<svg xmlns="http://www.w3.org/2000/svg" width="960" height="540" viewBox="0 0 960 540">
  <!-- Browser chrome -->
  <rect width="960" height="540" rx="8" fill="#1a1a2e"/>
  <rect y="0" width="960" height="32" rx="8" fill="#2d2d44"/>
  <rect y="16" width="960" height="16" fill="#2d2d44"/>
  <circle cx="16" cy="14" r="5" fill="#ff5f57"/>
  <circle cx="34" cy="14" r="5" fill="#febc2e"/>
  <circle cx="52" cy="14" r="5" fill="#28c840"/>
  <rect x="120" y="6" width="350" height="18" rx="9" fill="#1a1a2e"/>
  <text x="295" y="20" font-family="'Segoe UI',sans-serif" font-size="11" fill="#aaa" text-anchor="middle">www.masrikdahir.com</text>

  <!-- Navigation bar -->
  <rect x="0" y="32" width="960" height="40" fill="#ffffff"/>
  <rect x="0" y="70" width="960" height="2" fill="#e0e0e0"/>
  <text x="24" y="58" font-family="Georgia,serif" font-size="16" font-weight="700" fill="#cc0000">Home</text>
  <text x="90" y="58" font-family="Georgia,serif" font-size="15" fill="#333">Career</text>
  <text x="165" y="58" font-family="Georgia,serif" font-size="15" fill="#333">Academia</text>
  <text x="265" y="58" font-family="Georgia,serif" font-size="15" fill="#333">Software</text>
  <text x="360" y="58" font-family="Georgia,serif" font-size="15" fill="#333">Map</text>
  <text x="410" y="58" font-family="Georgia,serif" font-size="15" fill="#333">Milestones</text>
  <text x="520" y="58" font-family="Georgia,serif" font-size="16" font-weight="700" fill="#cc0000">Games</text>

  <!-- LEFT: Sidebar with strong contrast -->
  <rect x="0" y="72" width="310" height="468" fill="#111827"/>
  <!-- Subtle border on right edge -->
  <rect x="308" y="72" width="2" height="468" fill="#1e293b"/>

  <!-- Profile photo area -->
  <rect x="40" y="92" width="230" height="150" rx="8" fill="#1e293b"/>
  <circle cx="155" cy="147" r="42" fill="#334155"/>
  <circle cx="155" cy="147" r="40" fill="#475569" stroke="#60a5fa" stroke-width="2"/>
  <text x="155" y="153" font-family="'Segoe UI',sans-serif" font-size="14" font-weight="600" fill="#e2e8f0" text-anchor="middle">Photo</text>

  <!-- Name and title -->
  <text x="155" y="270" font-family="Georgia,serif" font-size="20" font-weight="700" fill="#ffffff" text-anchor="middle">Masrik Dahir</text>
  <text x="155" y="294" font-family="'Segoe UI',sans-serif" font-size="13" fill="#94a3b8" text-anchor="middle">Software Engineer</text>

  <!-- Matrix-style canvas animation preview -->
  <rect x="25" y="318" width="260" height="100" rx="6" fill="#000000" stroke="#1e293b" stroke-width="1"/>
  <text x="35" y="338" font-family="monospace" font-size="11" fill="#00ff00" opacity="0.9">0 1 1 0 1 0 0 1 1 0</text>
  <text x="35" y="353" font-family="monospace" font-size="11" fill="#00ff00" opacity="0.65">1 0 0 1 0 1 1 0 0 1</text>
  <text x="35" y="368" font-family="monospace" font-size="11" fill="#00ff00" opacity="0.85">0 1 0 1 1 0 1 0 1 0</text>
  <text x="35" y="383" font-family="monospace" font-size="11" fill="#00ff00" opacity="0.5">1 1 0 0 1 1 0 1 0 1</text>
  <text x="35" y="398" font-family="monospace" font-size="11" fill="#00ff00" opacity="0.75">0 0 1 1 0 0 1 0 1 1</text>
  <text x="35" y="413" font-family="monospace" font-size="11" fill="#00ff00" opacity="0.4">1 0 1 0 0 1 0 1 0 0</text>
  <text x="155" y="378" font-family="Georgia,serif" font-size="13" font-weight="700" fill="#22c55e" text-anchor="middle" opacity="0.95">32 Canvas Animations</text>

  <!-- Social links - bigger -->
  <rect x="25" y="435" width="78" height="28" rx="5" fill="#0077b5"/>
  <text x="64" y="454" font-family="'Segoe UI',sans-serif" font-size="12" font-weight="600" fill="#fff" text-anchor="middle">LinkedIn</text>
  <rect x="112" y="435" width="78" height="28" rx="5" fill="#374151"/>
  <text x="151" y="454" font-family="'Segoe UI',sans-serif" font-size="12" font-weight="600" fill="#fff" text-anchor="middle">GitHub</text>
  <rect x="199" y="435" width="78" height="28" rx="5" fill="#cc0000"/>
  <text x="238" y="454" font-family="'Segoe UI',sans-serif" font-size="12" font-weight="600" fill="#fff" text-anchor="middle">Resume</text>

  <!-- Sidebar stats row -->
  <rect x="25" y="478" width="260" height="44" rx="6" fill="#1e293b"/>
  <text x="68" y="497" font-family="'Segoe UI',sans-serif" font-size="18" font-weight="700" fill="#60a5fa" text-anchor="middle">99</text>
  <text x="68" y="514" font-family="'Segoe UI',sans-serif" font-size="10" fill="#94a3b8" text-anchor="middle">Games</text>
  <text x="155" y="497" font-family="'Segoe UI',sans-serif" font-size="18" font-weight="700" fill="#60a5fa" text-anchor="middle">290+</text>
  <text x="155" y="514" font-family="'Segoe UI',sans-serif" font-size="10" fill="#94a3b8" text-anchor="middle">Galleries</text>
  <text x="242" y="497" font-family="'Segoe UI',sans-serif" font-size="18" font-weight="700" fill="#60a5fa" text-anchor="middle">23</text>
  <text x="242" y="514" font-family="'Segoe UI',sans-serif" font-size="10" fill="#94a3b8" text-anchor="middle">Maps</text>

  <!-- RIGHT: Games Gallery -->
  <rect x="310" y="72" width="650" height="468" fill="#f8fafc"/>

  <!-- Games page header -->
  <rect x="310" y="72" width="650" height="48" fill="#ffffff"/>
  <rect x="310" y="118" width="650" height="2" fill="#e2e8f0"/>
  <rect x="324" y="82" width="320" height="30" rx="6" fill="#f1f5f9" stroke="#cbd5e1" stroke-width="1"/>
  <text x="344" y="102" font-family="'Segoe UI',sans-serif" font-size="13" fill="#94a3b8">Search 99 games...</text>

  <!-- Game title bar -->
  <rect x="324" y="128" width="622" height="34" rx="5" fill="#111827"/>
  <text x="480" y="150" font-family="monospace" font-size="15" font-weight="700" fill="#00ff88" text-anchor="middle" letter-spacing="4">SPACE INVADERS</text>

  <!-- Game cards grid - 4 columns x 3 rows -->
  <!-- Row 1 -->
  <!-- Card: Space Invaders -->
  <rect x="324" y="170" width="148" height="108" rx="6" fill="#1e1e2e"/>
  <rect x="324" y="170" width="148" height="72" rx="6" fill="#000"/>
  <rect x="324" y="235" width="148" height="43" fill="#1e1e2e"/>
  <rect x="378" y="183" width="5" height="5" fill="#44ff44"/>
  <rect x="392" y="183" width="5" height="5" fill="#44ff44"/>
  <rect x="381" y="188" width="10" height="5" fill="#44ff44"/>
  <rect x="376" y="193" width="20" height="5" fill="#44ff44"/>
  <rect x="371" y="198" width="5" height="5" fill="#44ff44"/>
  <rect x="396" y="198" width="5" height="5" fill="#44ff44"/>
  <rect x="376" y="198" width="20" height="5" fill="#44ff44"/>
  <rect x="384" y="218" width="8" height="4" fill="#00ff00"/>
  <rect x="380" y="222" width="16" height="4" fill="#00ff00"/>
  <text x="398" y="257" font-family="Georgia,serif" font-size="12" font-weight="700" fill="#fff" text-anchor="middle">Space Invaders</text>
  <rect x="426" y="246" width="40" height="18" rx="3" fill="#cc0000"/>
  <text x="446" y="259" font-family="'Segoe UI',sans-serif" font-size="10" font-weight="700" fill="#fff" text-anchor="middle">PLAY</text>

  <!-- Card: Pac-Man -->
  <rect x="480" y="170" width="148" height="108" rx="6" fill="#1e1e2e"/>
  <rect x="480" y="170" width="148" height="72" rx="6" fill="#000011"/>
  <rect x="480" y="235" width="148" height="43" fill="#1e1e2e"/>
  <circle cx="540" cy="205" r="14" fill="#ffff00"/>
  <path d="M540,205 L554,196 L554,214 Z" fill="#000011"/>
  <circle cx="562" cy="205" r="2.5" fill="#ffcc00"/>
  <circle cx="574" cy="205" r="2.5" fill="#ffcc00"/>
  <circle cx="586" cy="205" r="2.5" fill="#ffcc00"/>
  <rect x="514" y="197" width="12" height="16" rx="6" fill="#ff0000"/>
  <text x="554" y="257" font-family="Georgia,serif" font-size="12" font-weight="700" fill="#fff" text-anchor="middle">Pac-Man</text>
  <rect x="582" y="246" width="40" height="18" rx="3" fill="#cc0000"/>
  <text x="602" y="259" font-family="'Segoe UI',sans-serif" font-size="10" font-weight="700" fill="#fff" text-anchor="middle">PLAY</text>

  <!-- Card: Tetris -->
  <rect x="636" y="170" width="148" height="108" rx="6" fill="#1e1e2e"/>
  <rect x="636" y="170" width="148" height="72" rx="6" fill="#0a0a1a"/>
  <rect x="636" y="235" width="148" height="43" fill="#1e1e2e"/>
  <rect x="678" y="215" width="12" height="12" fill="#00ffff"/>
  <rect x="690" y="215" width="12" height="12" fill="#00ffff"/>
  <rect x="702" y="215" width="12" height="12" fill="#00ffff"/>
  <rect x="714" y="215" width="12" height="12" fill="#00ffff"/>
  <rect x="690" y="203" width="12" height="12" fill="#ff0000"/>
  <rect x="702" y="203" width="12" height="12" fill="#ff0000"/>
  <rect x="690" y="191" width="12" height="12" fill="#ff0000"/>
  <rect x="702" y="191" width="12" height="12" fill="#ff0000"/>
  <rect x="714" y="203" width="12" height="12" fill="#ffaa00"/>
  <rect x="726" y="203" width="12" height="12" fill="#ffaa00"/>
  <rect x="726" y="191" width="12" height="12" fill="#ffaa00"/>
  <rect x="738" y="191" width="12" height="12" fill="#ffaa00"/>
  <text x="710" y="257" font-family="Georgia,serif" font-size="12" font-weight="700" fill="#fff" text-anchor="middle">Tetris</text>
  <rect x="738" y="246" width="40" height="18" rx="3" fill="#cc0000"/>
  <text x="758" y="259" font-family="'Segoe UI',sans-serif" font-size="10" font-weight="700" fill="#fff" text-anchor="middle">PLAY</text>

  <!-- Card: Snake -->
  <rect x="792" y="170" width="148" height="108" rx="6" fill="#1e1e2e"/>
  <rect x="792" y="170" width="148" height="72" rx="6" fill="#001a00"/>
  <rect x="792" y="235" width="148" height="43" fill="#1e1e2e"/>
  <rect x="835" y="198" width="10" height="10" fill="#00ff00"/>
  <rect x="845" y="198" width="10" height="10" fill="#00dd00"/>
  <rect x="855" y="198" width="10" height="10" fill="#00bb00"/>
  <rect x="855" y="208" width="10" height="10" fill="#009900"/>
  <rect x="855" y="218" width="10" height="10" fill="#007700"/>
  <circle cx="888" cy="203" r="5" fill="#ff0000"/>
  <text x="866" y="257" font-family="Georgia,serif" font-size="12" font-weight="700" fill="#fff" text-anchor="middle">Snake</text>
  <rect x="894" y="246" width="40" height="18" rx="3" fill="#cc0000"/>
  <text x="914" y="259" font-family="'Segoe UI',sans-serif" font-size="10" font-weight="700" fill="#fff" text-anchor="middle">PLAY</text>

  <!-- Row 2 -->
  <!-- Card: Frogger -->
  <rect x="324" y="286" width="148" height="108" rx="6" fill="#1e1e2e"/>
  <rect x="324" y="286" width="148" height="72" rx="6" fill="#000033"/>
  <rect x="324" y="351" width="148" height="43" fill="#1e1e2e"/>
  <rect x="350" y="320" width="40" height="10" rx="3" fill="#663300"/>
  <rect x="410" y="305" width="45" height="10" rx="3" fill="#663300"/>
  <rect x="380" y="336" width="12" height="12" rx="6" fill="#00cc00"/>
  <text x="398" y="373" font-family="Georgia,serif" font-size="12" font-weight="700" fill="#fff" text-anchor="middle">Frogger</text>
  <rect x="426" y="362" width="40" height="18" rx="3" fill="#cc0000"/>
  <text x="446" y="375" font-family="'Segoe UI',sans-serif" font-size="10" font-weight="700" fill="#fff" text-anchor="middle">PLAY</text>

  <!-- Card: Galaga -->
  <rect x="480" y="286" width="148" height="108" rx="6" fill="#1e1e2e"/>
  <rect x="480" y="286" width="148" height="72" rx="6" fill="#000022"/>
  <rect x="480" y="351" width="148" height="43" fill="#1e1e2e"/>
  <circle cx="526" cy="304" r="5" fill="#ff4444"/>
  <circle cx="540" cy="304" r="5" fill="#ff4444"/>
  <circle cx="554" cy="304" r="5" fill="#ff4444"/>
  <circle cx="568" cy="304" r="5" fill="#ff4444"/>
  <circle cx="533" cy="318" r="5" fill="#44ff44"/>
  <circle cx="547" cy="318" r="5" fill="#44ff44"/>
  <circle cx="561" cy="318" r="5" fill="#44ff44"/>
  <rect x="544" y="338" width="10" height="10" fill="#00ccff"/>
  <text x="554" y="373" font-family="Georgia,serif" font-size="12" font-weight="700" fill="#fff" text-anchor="middle">Galaga</text>
  <rect x="582" y="362" width="40" height="18" rx="3" fill="#cc0000"/>
  <text x="602" y="375" font-family="'Segoe UI',sans-serif" font-size="10" font-weight="700" fill="#fff" text-anchor="middle">PLAY</text>

  <!-- Card: Breakout -->
  <rect x="636" y="286" width="148" height="108" rx="6" fill="#1e1e2e"/>
  <rect x="636" y="286" width="148" height="72" rx="6" fill="#0a0a0a"/>
  <rect x="636" y="351" width="148" height="43" fill="#1e1e2e"/>
  <rect x="656" y="298" width="22" height="7" fill="#ff0000"/>
  <rect x="681" y="298" width="22" height="7" fill="#ff0000"/>
  <rect x="706" y="298" width="22" height="7" fill="#ff0000"/>
  <rect x="731" y="298" width="22" height="7" fill="#ff0000"/>
  <rect x="756" y="298" width="22" height="7" fill="#ff0000"/>
  <rect x="656" y="308" width="22" height="7" fill="#ff8800"/>
  <rect x="681" y="308" width="22" height="7" fill="#ff8800"/>
  <rect x="706" y="308" width="22" height="7" fill="#ff8800"/>
  <rect x="731" y="308" width="22" height="7" fill="#ff8800"/>
  <rect x="756" y="308" width="22" height="7" fill="#ff8800"/>
  <rect x="693" y="342" width="34" height="6" rx="3" fill="#fff"/>
  <circle cx="710" cy="332" r="4" fill="#fff"/>
  <text x="710" y="373" font-family="Georgia,serif" font-size="12" font-weight="700" fill="#fff" text-anchor="middle">Breakout</text>
  <rect x="738" y="362" width="40" height="18" rx="3" fill="#cc0000"/>
  <text x="758" y="375" font-family="'Segoe UI',sans-serif" font-size="10" font-weight="700" fill="#fff" text-anchor="middle">PLAY</text>

  <!-- Card: Asteroids -->
  <rect x="792" y="286" width="148" height="108" rx="6" fill="#1e1e2e"/>
  <rect x="792" y="286" width="148" height="72" rx="6" fill="#000"/>
  <rect x="792" y="351" width="148" height="43" fill="#1e1e2e"/>
  <polygon points="866,308 858,324 874,324" fill="none" stroke="#fff" stroke-width="2"/>
  <circle cx="838" cy="316" r="10" fill="none" stroke="#bbb" stroke-width="1.5"/>
  <circle cx="895" cy="306" r="7" fill="none" stroke="#bbb" stroke-width="1.5"/>
  <circle cx="885" cy="338" r="6" fill="none" stroke="#bbb" stroke-width="1.5"/>
  <text x="866" y="373" font-family="Georgia,serif" font-size="12" font-weight="700" fill="#fff" text-anchor="middle">Asteroids</text>
  <rect x="894" y="362" width="40" height="18" rx="3" fill="#cc0000"/>
  <text x="914" y="375" font-family="'Segoe UI',sans-serif" font-size="10" font-weight="700" fill="#fff" text-anchor="middle">PLAY</text>

  <!-- Row 3 -->
  <!-- Card: Pong -->
  <rect x="324" y="402" width="148" height="108" rx="6" fill="#1e1e2e"/>
  <rect x="324" y="402" width="148" height="72" rx="6" fill="#000"/>
  <rect x="324" y="467" width="148" height="43" fill="#1e1e2e"/>
  <rect x="340" y="418" width="5" height="26" fill="#fff"/>
  <rect x="456" y="424" width="5" height="26" fill="#fff"/>
  <circle cx="398" cy="436" r="4" fill="#fff"/>
  <line x1="398" y1="406" x2="398" y2="468" stroke="#fff" stroke-width="0.7" stroke-dasharray="4,4"/>
  <text x="398" y="489" font-family="Georgia,serif" font-size="12" font-weight="700" fill="#fff" text-anchor="middle">Pong</text>
  <rect x="426" y="478" width="40" height="18" rx="3" fill="#cc0000"/>
  <text x="446" y="491" font-family="'Segoe UI',sans-serif" font-size="10" font-weight="700" fill="#fff" text-anchor="middle">PLAY</text>

  <!-- Card: Donkey Kong -->
  <rect x="480" y="402" width="148" height="108" rx="6" fill="#1e1e2e"/>
  <rect x="480" y="402" width="148" height="72" rx="6" fill="#1a0000"/>
  <rect x="480" y="467" width="148" height="43" fill="#1e1e2e"/>
  <rect x="496" y="460" width="130" height="4" fill="#ff6600"/>
  <rect x="502" y="444" width="120" height="4" fill="#ff6600"/>
  <rect x="496" y="428" width="130" height="4" fill="#ff6600"/>
  <rect x="540" y="436" width="10" height="8" rx="3" fill="#cc6600"/>
  <rect x="572" y="450" width="8" height="10" fill="#ff0000"/>
  <text x="554" y="489" font-family="Georgia,serif" font-size="12" font-weight="700" fill="#fff" text-anchor="middle">Donkey Kong</text>
  <rect x="582" y="478" width="40" height="18" rx="3" fill="#cc0000"/>
  <text x="602" y="491" font-family="'Segoe UI',sans-serif" font-size="10" font-weight="700" fill="#fff" text-anchor="middle">PLAY</text>

  <!-- Card: 2048 -->
  <rect x="636" y="402" width="148" height="108" rx="6" fill="#1e1e2e"/>
  <rect x="636" y="402" width="148" height="72" rx="6" fill="#faf8ef"/>
  <rect x="636" y="467" width="148" height="43" fill="#1e1e2e"/>
  <rect x="668" y="412" width="26" height="26" rx="4" fill="#eee4da"/>
  <text x="681" y="430" font-family="'Segoe UI',sans-serif" font-size="12" font-weight="700" fill="#776e65" text-anchor="middle">2</text>
  <rect x="698" y="412" width="26" height="26" rx="4" fill="#ede0c8"/>
  <text x="711" y="430" font-family="'Segoe UI',sans-serif" font-size="12" font-weight="700" fill="#776e65" text-anchor="middle">4</text>
  <rect x="728" y="412" width="26" height="26" rx="4" fill="#f2b179"/>
  <text x="741" y="430" font-family="'Segoe UI',sans-serif" font-size="10" font-weight="700" fill="#fff" text-anchor="middle">16</text>
  <rect x="668" y="442" width="26" height="26" rx="4" fill="#cdc1b4"/>
  <rect x="698" y="442" width="26" height="26" rx="4" fill="#eee4da"/>
  <text x="711" y="460" font-family="'Segoe UI',sans-serif" font-size="12" font-weight="700" fill="#776e65" text-anchor="middle">2</text>
  <rect x="728" y="442" width="26" height="26" rx="4" fill="#f67c5f"/>
  <text x="741" y="460" font-family="'Segoe UI',sans-serif" font-size="9" font-weight="700" fill="#fff" text-anchor="middle">128</text>
  <text x="710" y="489" font-family="Georgia,serif" font-size="12" font-weight="700" fill="#fff" text-anchor="middle">2048</text>
  <rect x="738" y="478" width="40" height="18" rx="3" fill="#cc0000"/>
  <text x="758" y="491" font-family="'Segoe UI',sans-serif" font-size="10" font-weight="700" fill="#fff" text-anchor="middle">PLAY</text>

  <!-- Card: OutRun -->
  <rect x="792" y="402" width="148" height="108" rx="6" fill="#1e1e2e"/>
  <rect x="792" y="402" width="148" height="72" rx="6" fill="#0044aa"/>
  <rect x="792" y="467" width="148" height="43" fill="#1e1e2e"/>
  <polygon points="866,470 828,420 904,420" fill="#444"/>
  <polygon points="866,470 846,420 886,420" fill="#555"/>
  <line x1="866" y1="470" x2="866" y2="420" stroke="#fff" stroke-width="1.2" stroke-dasharray="4,3"/>
  <circle cx="866" cy="412" r="10" fill="#ff8800"/>
  <text x="866" y="489" font-family="Georgia,serif" font-size="12" font-weight="700" fill="#fff" text-anchor="middle">OutRun</text>
  <rect x="894" y="478" width="40" height="18" rx="3" fill="#cc0000"/>
  <text x="914" y="491" font-family="'Segoe UI',sans-serif" font-size="10" font-weight="700" fill="#fff" text-anchor="middle">PLAY</text>

  <!-- Scroll indicator -->
  <text x="635" y="522" font-family="'Segoe UI',sans-serif" font-size="12" fill="#64748b" text-anchor="middle">Showing 12 of 99 games   ·   Scroll for more</text>
</svg>