<svg xmlns="http://www.w3.org/2000/svg" width="960" height="540" viewBox="0 0 960 540">
  <!-- Browser chrome -->
  <rect width="960" height="540" rx="8" fill="#1a1a2e"/>
  <rect y="0" width="960" height="32" rx="8" fill="#2d2d44"/>
  <rect y="16" width="960" height="16" fill="#2d2d44"/>
  <circle cx="16" cy="14" r="5" fill="#ff5f57"/>
  <circle cx="34" cy="14" r="5" fill="#febc2e"/>
  <circle cx="52" cy="14" r="5" fill="#28c840"/>
  <rect x="120" y="6" width="350" height="18" rx="9" fill="#1a1a2e"/>
  <text x="295" y="19" font-family="'Segoe UI',sans-serif" font-size="10" fill="#888" text-anchor="middle">www.masrikdahir.com</text>

  <!-- Navigation bar -->
  <rect x="0" y="32" width="960" height="36" fill="#ffffff"/>
  <text x="20" y="55" font-family="Georgia,serif" font-size="14" font-weight="700" fill="#cc0000">Home</text>
  <text x="75" y="55" font-family="Georgia,serif" font-size="13" fill="#333">Career</text>
  <text x="140" y="55" font-family="Georgia,serif" font-size="13" fill="#333">Academia</text>
  <text x="220" y="55" font-family="Georgia,serif" font-size="13" fill="#333">Software</text>
  <text x="300" y="55" font-family="Georgia,serif" font-size="13" fill="#333">Map</text>
  <text x="345" y="55" font-family="Georgia,serif" font-size="13" fill="#333">Milestones</text>
  <text x="435" y="55" font-family="Georgia,serif" font-size="13" fill="#cc0000">Games</text>

  <!-- Main content area - split into two panels -->
  <!-- LEFT: Profile + Matrix animations area -->
  <rect x="0" y="68" width="300" height="472" fill="#ffffff"/>

  <!-- Profile photo placeholder -->
  <rect x="30" y="85" width="240" height="160" rx="6" fill="#f0f0f0"/>
  <circle cx="150" cy="145" r="40" fill="#ddd"/>
  <text x="150" y="150" font-family="'Segoe UI',sans-serif" font-size="11" fill="#999" text-anchor="middle">Photo</text>
  <text x="150" y="215" font-family="Georgia,serif" font-size="14" font-weight="700" fill="#222" text-anchor="middle">Masrik Dahir</text>
  <text x="150" y="232" font-family="'Segoe UI',sans-serif" font-size="10" fill="#666" text-anchor="middle">Software Engineer</text>

  <!-- Matrix-style canvas animation preview -->
  <rect x="20" y="255" width="260" height="100" rx="4" fill="#0a0a0a"/>
  <text x="30" y="275" font-family="monospace" font-size="9" fill="#00ff00" opacity="0.8">0 1 1 0 1 0 0 1 1 0</text>
  <text x="30" y="287" font-family="monospace" font-size="9" fill="#00ff00" opacity="0.6">1 0 0 1 0 1 1 0 0 1</text>
  <text x="30" y="299" font-family="monospace" font-size="9" fill="#00ff00" opacity="0.9">0 1 0 1 1 0 1 0 1 0</text>
  <text x="30" y="311" font-family="monospace" font-size="9" fill="#00ff00" opacity="0.4">1 1 0 0 1 1 0 1 0 1</text>
  <text x="30" y="323" font-family="monospace" font-size="9" fill="#00ff00" opacity="0.7">0 0 1 1 0 0 1 0 1 1</text>
  <text x="30" y="335" font-family="monospace" font-size="9" fill="#00ff00" opacity="0.5">1 0 1 0 0 1 0 1 0 0</text>
  <text x="30" y="347" font-family="monospace" font-size="9" fill="#00ff00" opacity="0.3">0 1 0 1 1 0 1 1 0 1</text>
  <text x="150" y="310" font-family="Georgia,serif" font-size="11" fill="#00cc00" text-anchor="middle" opacity="0.9">32 Canvas Animations</text>

  <!-- Social links -->
  <rect x="30" y="370" width="55" height="20" rx="3" fill="#0077b5"/>
  <text x="57" y="384" font-family="'Segoe UI',sans-serif" font-size="8" fill="#fff" text-anchor="middle">LinkedIn</text>
  <rect x="92" y="370" width="55" height="20" rx="3" fill="#333"/>
  <text x="119" y="384" font-family="'Segoe UI',sans-serif" font-size="8" fill="#fff" text-anchor="middle">GitHub</text>
  <rect x="154" y="370" width="55" height="20" rx="3" fill="#cc0000"/>
  <text x="181" y="384" font-family="'Segoe UI',sans-serif" font-size="8" fill="#fff" text-anchor="middle">Resume</text>

  <!-- RIGHT: Games Gallery -->
  <rect x="300" y="68" width="660" height="472" fill="#fafafa"/>

  <!-- Games page header -->
  <rect x="300" y="68" width="660" height="45" fill="#ffffff"/>
  <rect x="310" y="78" width="300" height="26" rx="4" fill="#f5f5f5" stroke="#ddd" stroke-width="1"/>
  <text x="325" y="95" font-family="'Segoe UI',sans-serif" font-size="11" fill="#999">Search 99 games...</text>

  <!-- Game title bar (shows currently playing) -->
  <rect x="310" y="115" width="640" height="30" rx="4" fill="#1a1a2e"/>
  <text x="480" y="134" font-family="monospace" font-size="13" fill="#00ff88" text-anchor="middle" letter-spacing="3">SPACE INVADERS</text>

  <!-- Game cards grid - 4 columns x 3 rows -->
  <!-- Row 1 -->
  <!-- Card: Space Invaders -->
  <rect x="315" y="152" width="148" height="100" rx="5" fill="#111"/>
  <rect x="315" y="152" width="148" height="70" rx="5" fill="#000"/>
  <rect x="315" y="215" width="148" height="37" fill="#111"/>
  <rect x="370" y="165" width="4" height="4" fill="#44ff44"/>
  <rect x="382" y="165" width="4" height="4" fill="#44ff44"/>
  <rect x="374" y="169" width="8" height="4" fill="#44ff44"/>
  <rect x="370" y="173" width="16" height="4" fill="#44ff44"/>
  <rect x="366" y="177" width="4" height="4" fill="#44ff44"/>
  <rect x="386" y="177" width="4" height="4" fill="#44ff44"/>
  <rect x="370" y="177" width="16" height="4" fill="#44ff44"/>
  <rect x="378" y="198" width="6" height="3" fill="#00ff00"/>
  <rect x="375" y="201" width="12" height="3" fill="#00ff00"/>
  <text x="389" y="237" font-family="Georgia,serif" font-size="10" fill="#fff" text-anchor="middle">Space Invaders</text>
  <rect x="418" y="226" width="36" height="14" rx="2" fill="#cc0000"/>
  <text x="436" y="236" font-family="'Segoe UI',sans-serif" font-size="8" fill="#fff" text-anchor="middle">PLAY</text>

  <!-- Card: Pac-Man -->
  <rect x="470" y="152" width="148" height="100" rx="5" fill="#111"/>
  <rect x="470" y="152" width="148" height="70" rx="5" fill="#000011"/>
  <rect x="470" y="215" width="148" height="37" fill="#111"/>
  <circle cx="530" cy="185" r="12" fill="#ffff00"/>
  <path d="M530,185 L542,178 L542,192 Z" fill="#000011"/>
  <circle cx="550" cy="185" r="2" fill="#ffcc00"/>
  <circle cx="560" cy="185" r="2" fill="#ffcc00"/>
  <circle cx="570" cy="185" r="2" fill="#ffcc00"/>
  <rect x="505" y="178" width="10" height="14" rx="5" fill="#ff0000"/>
  <text x="544" y="237" font-family="Georgia,serif" font-size="10" fill="#fff" text-anchor="middle">Pac-Man</text>
  <rect x="573" y="226" width="36" height="14" rx="2" fill="#cc0000"/>
  <text x="591" y="236" font-family="'Segoe UI',sans-serif" font-size="8" fill="#fff" text-anchor="middle">PLAY</text>

  <!-- Card: Tetris -->
  <rect x="625" y="152" width="148" height="100" rx="5" fill="#111"/>
  <rect x="625" y="152" width="148" height="70" rx="5" fill="#0a0a1a"/>
  <rect x="625" y="215" width="148" height="37" fill="#111"/>
  <rect x="668" y="195" width="10" height="10" fill="#00ffff"/>
  <rect x="678" y="195" width="10" height="10" fill="#00ffff"/>
  <rect x="688" y="195" width="10" height="10" fill="#00ffff"/>
  <rect x="698" y="195" width="10" height="10" fill="#00ffff"/>
  <rect x="678" y="185" width="10" height="10" fill="#ff0000"/>
  <rect x="688" y="185" width="10" height="10" fill="#ff0000"/>
  <rect x="678" y="175" width="10" height="10" fill="#ff0000"/>
  <rect x="688" y="175" width="10" height="10" fill="#ff0000"/>
  <rect x="698" y="185" width="10" height="10" fill="#ffaa00"/>
  <rect x="708" y="185" width="10" height="10" fill="#ffaa00"/>
  <rect x="708" y="175" width="10" height="10" fill="#ffaa00"/>
  <rect x="718" y="175" width="10" height="10" fill="#ffaa00"/>
  <text x="699" y="237" font-family="Georgia,serif" font-size="10" fill="#fff" text-anchor="middle">Tetris</text>
  <rect x="728" y="226" width="36" height="14" rx="2" fill="#cc0000"/>
  <text x="746" y="236" font-family="'Segoe UI',sans-serif" font-size="8" fill="#fff" text-anchor="middle">PLAY</text>

  <!-- Card: Snake -->
  <rect x="780" y="152" width="148" height="100" rx="5" fill="#111"/>
  <rect x="780" y="152" width="148" height="70" rx="5" fill="#001a00"/>
  <rect x="780" y="215" width="148" height="37" fill="#111"/>
  <rect x="820" y="180" width="8" height="8" fill="#00ff00"/>
  <rect x="828" y="180" width="8" height="8" fill="#00dd00"/>
  <rect x="836" y="180" width="8" height="8" fill="#00bb00"/>
  <rect x="836" y="188" width="8" height="8" fill="#009900"/>
  <rect x="836" y="196" width="8" height="8" fill="#007700"/>
  <circle cx="870" cy="184" r="4" fill="#ff0000"/>
  <text x="854" y="237" font-family="Georgia,serif" font-size="10" fill="#fff" text-anchor="middle">Snake</text>
  <rect x="883" y="226" width="36" height="14" rx="2" fill="#cc0000"/>
  <text x="901" y="236" font-family="'Segoe UI',sans-serif" font-size="8" fill="#fff" text-anchor="middle">PLAY</text>

  <!-- Row 2 -->
  <rect x="315" y="260" width="148" height="100" rx="5" fill="#111"/>
  <rect x="315" y="260" width="148" height="70" rx="5" fill="#000033"/>
  <rect x="315" y="323" width="148" height="37" fill="#111"/>
  <rect x="340" y="300" width="35" height="8" rx="2" fill="#663300"/>
  <rect x="395" y="285" width="40" height="8" rx="2" fill="#663300"/>
  <rect x="370" y="310" width="10" height="10" rx="5" fill="#00cc00"/>
  <text x="389" y="345" font-family="Georgia,serif" font-size="10" fill="#fff" text-anchor="middle">Frogger</text>
  <rect x="418" y="334" width="36" height="14" rx="2" fill="#cc0000"/>
  <text x="436" y="344" font-family="'Segoe UI',sans-serif" font-size="8" fill="#fff" text-anchor="middle">PLAY</text>

  <rect x="470" y="260" width="148" height="100" rx="5" fill="#111"/>
  <rect x="470" y="260" width="148" height="70" rx="5" fill="#000022"/>
  <rect x="470" y="323" width="148" height="37" fill="#111"/>
  <circle cx="520" cy="278" r="4" fill="#ff4444"/>
  <circle cx="532" cy="278" r="4" fill="#ff4444"/>
  <circle cx="544" cy="278" r="4" fill="#ff4444"/>
  <circle cx="556" cy="278" r="4" fill="#ff4444"/>
  <circle cx="526" cy="290" r="4" fill="#44ff44"/>
  <circle cx="538" cy="290" r="4" fill="#44ff44"/>
  <circle cx="550" cy="290" r="4" fill="#44ff44"/>
  <rect x="534" y="310" width="8" height="8" fill="#00ccff"/>
  <text x="544" y="345" font-family="Georgia,serif" font-size="10" fill="#fff" text-anchor="middle">Galaga</text>
  <rect x="573" y="334" width="36" height="14" rx="2" fill="#cc0000"/>
  <text x="591" y="344" font-family="'Segoe UI',sans-serif" font-size="8" fill="#fff" text-anchor="middle">PLAY</text>

  <rect x="625" y="260" width="148" height="100" rx="5" fill="#111"/>
  <rect x="625" y="260" width="148" height="70" rx="5" fill="#0a0a0a"/>
  <rect x="625" y="323" width="148" height="37" fill="#111"/>
  <rect x="645" y="272" width="20" height="6" fill="#ff0000"/>
  <rect x="668" y="272" width="20" height="6" fill="#ff0000"/>
  <rect x="691" y="272" width="20" height="6" fill="#ff0000"/>
  <rect x="714" y="272" width="20" height="6" fill="#ff0000"/>
  <rect x="737" y="272" width="20" height="6" fill="#ff0000"/>
  <rect x="645" y="280" width="20" height="6" fill="#ff8800"/>
  <rect x="668" y="280" width="20" height="6" fill="#ff8800"/>
  <rect x="691" y="280" width="20" height="6" fill="#ff8800"/>
  <rect x="714" y="280" width="20" height="6" fill="#ff8800"/>
  <rect x="737" y="280" width="20" height="6" fill="#ff8800"/>
  <rect x="680" y="315" width="30" height="5" rx="2" fill="#fff"/>
  <circle cx="699" cy="305" r="3" fill="#fff"/>
  <text x="699" y="345" font-family="Georgia,serif" font-size="10" fill="#fff" text-anchor="middle">Breakout</text>
  <rect x="728" y="334" width="36" height="14" rx="2" fill="#cc0000"/>
  <text x="746" y="344" font-family="'Segoe UI',sans-serif" font-size="8" fill="#fff" text-anchor="middle">PLAY</text>

  <rect x="780" y="260" width="148" height="100" rx="5" fill="#111"/>
  <rect x="780" y="260" width="148" height="70" rx="5" fill="#000"/>
  <rect x="780" y="323" width="148" height="37" fill="#111"/>
  <polygon points="854,285 848,298 860,298" fill="none" stroke="#fff" stroke-width="1.5"/>
  <circle cx="825" cy="290" r="8" fill="none" stroke="#aaa" stroke-width="1"/>
  <circle cx="880" cy="280" r="6" fill="none" stroke="#aaa" stroke-width="1"/>
  <circle cx="870" cy="310" r="5" fill="none" stroke="#aaa" stroke-width="1"/>
  <text x="854" y="345" font-family="Georgia,serif" font-size="10" fill="#fff" text-anchor="middle">Asteroids</text>
  <rect x="883" y="334" width="36" height="14" rx="2" fill="#cc0000"/>
  <text x="901" y="344" font-family="'Segoe UI',sans-serif" font-size="8" fill="#fff" text-anchor="middle">PLAY</text>

  <!-- Row 3 -->
  <rect x="315" y="368" width="148" height="100" rx="5" fill="#111"/>
  <rect x="315" y="368" width="148" height="70" rx="5" fill="#000"/>
  <rect x="315" y="431" width="148" height="37" fill="#111"/>
  <rect x="330" y="385" width="4" height="22" fill="#fff"/>
  <rect x="446" y="390" width="4" height="22" fill="#fff"/>
  <circle cx="389" cy="400" r="3" fill="#fff"/>
  <line x1="389" y1="372" x2="389" y2="430" stroke="#fff" stroke-width="0.5" stroke-dasharray="3,3"/>
  <text x="389" y="453" font-family="Georgia,serif" font-size="10" fill="#fff" text-anchor="middle">Pong</text>
  <rect x="418" y="442" width="36" height="14" rx="2" fill="#cc0000"/>
  <text x="436" y="452" font-family="'Segoe UI',sans-serif" font-size="8" fill="#fff" text-anchor="middle">PLAY</text>

  <rect x="470" y="368" width="148" height="100" rx="5" fill="#111"/>
  <rect x="470" y="368" width="148" height="70" rx="5" fill="#1a0000"/>
  <rect x="470" y="431" width="148" height="37" fill="#111"/>
  <rect x="485" y="425" width="120" height="3" fill="#ff6600"/>
  <rect x="490" y="410" width="110" height="3" fill="#ff6600"/>
  <rect x="485" y="395" width="120" height="3" fill="#ff6600"/>
  <rect x="530" y="402" width="8" height="7" rx="2" fill="#cc6600"/>
  <rect x="560" y="418" width="6" height="8" fill="#ff0000"/>
  <text x="544" y="453" font-family="Georgia,serif" font-size="10" fill="#fff" text-anchor="middle">Donkey Kong</text>
  <rect x="573" y="442" width="36" height="14" rx="2" fill="#cc0000"/>
  <text x="591" y="452" font-family="'Segoe UI',sans-serif" font-size="8" fill="#fff" text-anchor="middle">PLAY</text>

  <rect x="625" y="368" width="148" height="100" rx="5" fill="#111"/>
  <rect x="625" y="368" width="148" height="70" rx="5" fill="#faf8ef"/>
  <rect x="625" y="431" width="148" height="37" fill="#111"/>
  <rect x="660" y="378" width="22" height="22" rx="3" fill="#eee4da"/>
  <text x="671" y="393" font-family="'Segoe UI',sans-serif" font-size="9" font-weight="700" fill="#776e65" text-anchor="middle">2</text>
  <rect x="685" y="378" width="22" height="22" rx="3" fill="#ede0c8"/>
  <text x="696" y="393" font-family="'Segoe UI',sans-serif" font-size="9" font-weight="700" fill="#776e65" text-anchor="middle">4</text>
  <rect x="710" y="378" width="22" height="22" rx="3" fill="#f2b179"/>
  <text x="721" y="393" font-family="'Segoe UI',sans-serif" font-size="8" font-weight="700" fill="#fff" text-anchor="middle">16</text>
  <rect x="660" y="403" width="22" height="22" rx="3" fill="#cdc1b4"/>
  <rect x="685" y="403" width="22" height="22" rx="3" fill="#eee4da"/>
  <text x="696" y="418" font-family="'Segoe UI',sans-serif" font-size="9" font-weight="700" fill="#776e65" text-anchor="middle">2</text>
  <rect x="710" y="403" width="22" height="22" rx="3" fill="#f67c5f"/>
  <text x="721" y="418" font-family="'Segoe UI',sans-serif" font-size="7" font-weight="700" fill="#fff" text-anchor="middle">128</text>
  <text x="699" y="453" font-family="Georgia,serif" font-size="10" fill="#fff" text-anchor="middle">2048</text>
  <rect x="728" y="442" width="36" height="14" rx="2" fill="#cc0000"/>
  <text x="746" y="452" font-family="'Segoe UI',sans-serif" font-size="8" fill="#fff" text-anchor="middle">PLAY</text>

  <rect x="780" y="368" width="148" height="100" rx="5" fill="#111"/>
  <rect x="780" y="368" width="148" height="70" rx="5" fill="#0044aa"/>
  <rect x="780" y="431" width="148" height="37" fill="#111"/>
  <polygon points="854,438 820,395 888,395" fill="#444"/>
  <polygon points="854,438 838,395 870,395" fill="#555"/>
  <line x1="854" y1="438" x2="854" y2="395" stroke="#fff" stroke-width="1" stroke-dasharray="3,2"/>
  <circle cx="854" cy="380" r="8" fill="#ff8800"/>
  <text x="854" y="453" font-family="Georgia,serif" font-size="10" fill="#fff" text-anchor="middle">OutRun</text>
  <rect x="883" y="442" width="36" height="14" rx="2" fill="#cc0000"/>
  <text x="901" y="452" font-family="'Segoe UI',sans-serif" font-size="8" fill="#fff" text-anchor="middle">PLAY</text>

  <!-- Scroll indicator -->
  <text x="630" y="490" font-family="'Segoe UI',sans-serif" font-size="10" fill="#999" text-anchor="middle">Showing 12 of 99 games   ·   Scroll for more</text>

  <!-- Footer bar -->
  <rect x="0" y="510" width="960" height="30" fill="#ffffff"/>
  <text x="480" y="528" font-family="Georgia,serif" font-size="10" fill="#999" text-anchor="middle">Made with love by Masrik Dahir  ·  masrikdahir.com  ·  CC BY-NC-SA 4.0</text>
</svg>