<svg
                        xmlns:dc="http://purl.org/dc/elements/1.1/"
                        xmlns:cc="http://creativecommons.org/ns#"
                        xmlns:rdf="http://www.w3.org/1999/02/22-rdf-syntax-ns#"
                        xmlns:svg="http://www.w3.org/2000/svg"
                        xmlns="http://www.w3.org/2000/svg"
                        xmlns:sodipodi="http://sodipodi.sourceforge.net/DTD/sodipodi-0.dtd"
                        xmlns:inkscape="http://www.inkscape.org/namespaces/inkscape"
                        enable_background="new 0 0 1200 589"
                        height="800"
                        width="2000"
                        viewBox="500 300 300 50"
                        id="us-map"
                        preserveAspectRatio="xMidYMid meet"
                        inkscape:version="0.48.4 r9939"
                        sodipodi:docname="us.svg">
                    <sodipodi:namedview
                            pagecolor="#ffffff"
                            bordercolor="#666666"
                            borderopacity="1"
                            objecttolerance="10"
                            gridtolerance="10"
                            guidetolerance="10"
                            inkscape:pageopacity="0"
                            inkscape:pageshadow="2"
                            inkscape:window-width="1920"
                            inkscape:window-height="1137"
                            id="namedview69"
                            showgrid="false"
                            inkscape:zoom="0.80893016"
                            inkscape:cx="817.66365"
                            inkscape:cy="409.3738"
                            inkscape:window-x="1192"
                            inkscape:window-y="118"
                            inkscape:window-maximized="1"
                            inkscape:current-layer="svg2"/>
                    <defs
                            id="defs4">
                        <style
                                type="text/css"
                                id="style6">path {
                            fill-rule: evenodd;
                        }</style>
                    </defs>
                    <metadata
                            id="metadata8">
                        <views
                                id="views10">
                            <view
                                    h="589.235294118"
                                    padding="0"
                                    w="1000"
                                    id="view12">
                                <proj
                                        id="laea-usa"
                                        lat0="45"
                                        lon0="-100"/>
                                <bbox
                                        h="321.97"
                                        w="589.33"
                                        x="690.09"
                                        y="918.69"
                                        id="bbox15"/>
                            </view>
                        </views>
                        <rdf:RDF>
                            <cc:Work
                                    rdf:about="">
                                <dc:format>image/svg+xml</dc:format>
                                <dc:type
                                        rdf:resource="http://purl.org/dc/dcmitype/StillImage"/>
                                <dc:title/>
                            </cc:Work>
                        </rdf:RDF>
                    </metadata>
                    <path id="AF" style="stroke-width:0.2;fill:lightgrey" data-name="Afghanistan" class="land" d="M685.88,350.59L685.74,350.62L685.53,350.53L685.45,350.4L685.42,350.38L685.26,350.47L684.95,350.57L684.42,350.85L684.44,350.92L684.78,351.2L684.86,351.3L684.9,351.33L684.59,351.46L683.93,351.76L683.49,352.01L683.38,352.02L683.12,351.92L682.73,351.79L682.63,351.8L681.73,351.82L680.9,351.86L680.56,351.92L679.92,351.98L679.51,352L679.26,352.1L678.98,352.22L678.68,352.3L678.47,352.33L678.21,352.45L678.04,352.68L677.54,353.03L677.27,353.2L677.13,353.38L676.97,353.4L676.7,353.37L676.49,353.57L676.26,353.87L675.84,354.29L675.61,354.46L675.48,354.73L675.58,354.88L675.92,355.09L676.08,355.29L676.16,355.45L676.32,355.86L676.42,356.27L676.57,356.44L676.61,356.74L676.65,356.92L676.57,357.05L676.49,357.19L676.49,357.33L676.58,357.46L676.66,357.59L676.7,357.69L676.65,357.8L676.49,357.97L676.41,358.14L676.24,358.42L675.96,358.62L675.79,358.76L675.59,359.06L675.28,359.4L675.14,359.67L675.01,359.83L674.86,359.91L674.9,360.06L675.02,360.25L675.23,360.45L675.22,360.78L675.21,361.01L675.22,361.3L675.11,361.53L674.54,361.76L673.99,361.86L673.32,361.87L673.07,361.83L672.87,361.78L672.14,361.53L671.84,361.68L671.78,362.05L672.31,362.64L672.53,362.98L672.77,363.53L672.95,363.82L672.89,364.09L672.41,364.39L671.93,364.68L671.32,364.74L670.94,364.84L670.75,364.99L670.62,365.61L670.48,365.84L670.49,366.11L670.36,366.41L670.16,366.61L670.02,366.93L670.07,367.54L670.13,368.57L669.87,368.9L669.58,369.22L669.27,369.46L668.98,369.57L668.74,369.53L668.54,369.32L668.43,369.15L668.22,369.01L668,369.04L667.79,369.17L667.44,369.13L667.14,369L666.99,369.01L666.91,369.14L666.59,369.42L665.81,369.85L665.49,369.88L665.36,369.98L665.41,370.16L665.55,370.3L665.79,370.4L665.8,370.52L665.59,370.62L665.41,370.73L665,370.87L664.54,370.93L664.06,370.85L663.81,370.66L663.52,370.64L663.25,370.78L662.98,371L662.68,371.49L662.6,371.57L662.52,371.65L662.32,371.75L662.04,371.93L661.9,372.28L661.73,372.91L661.77,373.25L661.79,373.84L661.72,374.26L661.6,374.53L661.62,374.74L661.81,374.98L661.73,375.14L661.58,375.31L661.42,375.41L660.82,375.59L659.99,375.84L659.44,376L658.63,376.24L658.39,376.3L657.89,376.32L657.64,376.28L657.29,376.27L656.78,376.28L656.42,376.35L656.06,376.47L655.8,376.62L655.65,376.76L655.59,376.83L655.23,376.71L654.1,376.5L651.04,376.78L650.75,376.73L649.71,376.39L648.36,375.96L647.53,375.69L646.46,375.34L647.19,374.47L647.83,373.71L648.47,372.94L649.1,372.19L649.17,371.92L649.18,371.4L649.01,370.71L648.75,370.39L647.87,370.26L647.21,370.17L646.49,370.06L646.39,370.02L646.31,369.48L646.35,369.24L646.3,368.77L646.31,368.41L646.41,367.81L646.42,367.54L646.08,366.38L645.9,365.74L645.71,365.07L645.67,364.86L645.66,364.59L646.1,363.97L646.24,363.84L646.5,363.53L646.66,363.36L646.63,363.25L646.35,363.19L645.93,363.18L645.7,363.09L645.52,362.92L645.45,362.67L645.57,362.23L645.45,361.38L645.69,360.96L645.89,360.67L646.58,360.62L646.34,360.29L646.23,360.1L646.16,360.04L646.13,359.95L646.16,359.86L646.34,359.83L646.46,359.71L646.66,359.56L646.76,359.49L646.78,359.3L646.87,359.16L647.01,359L647.12,358.8L647.09,358.58L647.19,358.31L647.24,358.14L647.32,357.99L647.25,357.78L647.19,357.6L647.18,357.38L647.29,357.33L647.43,357.25L647.45,357.08L647.53,356.86L647.58,356.69L647.68,356.55L647.69,356.42L647.63,356.19L647.86,356.16L647.96,356.28L648.08,356.44L648.42,356.75L648.64,356.83L648.92,356.88L649.26,356.84L649.53,356.78L649.66,356.79L649.95,357.01L650.3,357.32L650.41,357.46L650.46,357.67L650.57,357.73L650.79,357.52L651,357.45L651.2,357.49L651.42,357.52L651.63,357.44L651.73,357.39L652.11,357.12L652.45,356.91L652.67,356.79L652.74,356.37L652.84,356.13L652.98,355.99L652.93,355.82L652.87,355.68L652.81,355.51L652.87,355.41L653.01,355.37L653.35,355.37L653.96,355.18L654.46,354.99L654.93,354.84L655.14,354.81L655.34,354.84L655.43,354.79L655.46,354.65L655.57,354.49L655.83,354.37L656.32,354.1L656.75,353.7L656.9,353.4L657.01,352.96L657.21,352.28L657.43,351.53L657.51,351.2L657.61,350.94L657.99,350.73L658.37,350.57L658.97,350.54L659.68,350.52L659.83,350.11L659.92,349.76L660.04,349.58L660.21,349.43L660.27,349.4L660.65,349.62L661.23,349.95L661.91,350.11L662.25,350.19L662.39,350.18L663.25,350.1L663.93,350.23L664.28,350.58L664.63,350.67L664.97,350.5L665.19,350.47L665.27,350.58L665.44,350.62L665.7,350.61L665.85,350.7L665.86,350.8L665.88,350.91L666.08,351.18L666.42,351.5L666.73,351.58L667.14,351.33L667.27,351.36L667.34,351.28L667.38,351.09L667.63,350.92L668.07,350.76L668.33,350.62L668.42,350.5L668.57,350.46L668.74,350.5L668.85,350.46L668.89,350.34L668.94,350.29L669.03,350.25L669.1,350.23L669.24,350.26L669.49,350.47L669.85,350.85L670.09,351.02L670.2,350.99L670.34,350.88L670.51,350.68L670.55,350.38L670.47,350L670.53,349.7L670.73,349.46L671.1,349.32L671.65,349.26L671.99,349.29L672.11,349.42L672.28,349.48L672.49,349.5L672.68,349.36L672.86,349.07L672.87,348.71L672.71,348.29L672.76,348.15L672.82,348.09L673.03,347.94L673.33,347.61L673.61,347.2L673.88,346.69L674.22,346.38L674.62,346.26L675.11,346.4L675.68,346.79L675.89,347.28L675.75,347.85L675.74,348.17L675.86,348.23L676.05,348.21L676.33,348.12L676.51,348.12L676.59,348.2L676.59,348.36L676.49,348.6L676.38,349.29L676.31,349.87L676.24,350.45L676.17,350.96L676.28,351.35L676.45,351.95L676.64,352.34L676.83,352.46L677.02,352.51L677.21,352.47L677.6,352.22L678.2,351.75L678.77,351.46L679.61,351.3L679.89,350.8L680.28,350.47L681.17,349.97L681.65,349.78L681.92,349.75L682.27,349.84L682.35,349.87L682.42,349.89L682.6,349.93L682.63,350.09L682.59,350.25L682.39,350.38L682.33,350.49L682.41,350.56L682.68,350.59L683.24,350.41L683.6,350.29L683.85,350.25L683.95,350.1L684.11,349.95L684.36,349.93L684.63,350.02L684.85,350.06L685.23,350.02L685.43,350.15L685.71,350.4L685.84,350.56z"/>
                    <path id="KG" style="stroke-width:0.2;fill:lightgrey" data-name="Kyrgyzstan" class="land" d="M700.81,332.56l0.06,0.23l0.05,0.26l-0.03,0.06l-0.05,0.04l-0.86,0.07l-0.19,0.07l-0.21,0.36l-0.74,0.29l-0.42,0.15l-0.17,-0.01l-0.41,0.24l-1.14,0.59l-0.56,0.38l-0.28,0.16l-0.23,0.17l-0.04,0.17l-0.01,0.16l-0.63,0.76l-0.47,0.09l-0.4,-0.02l-0.27,0.12l-0.39,0.12l-0.84,-0.08l-0.29,0.01l-0.55,-0.1l-0.22,0.06l-0.23,0.16l-0.33,0.61l-0.13,0.14l-0.06,0.14l-0.05,0.29l-0.12,0.31l-0.16,0.25l-0.12,0.23l-0.24,0.22l-0.22,0.14l-0.17,-0.29l-0.15,0.08l-0.14,0.12l-0.26,-0.04l-0.16,0.06l-0.37,0.25l-0.55,-0.01l-0.06,-0.09l-0.11,-0.69l-0.09,-0.33l-0.08,-0.07l-0.1,-0.01l-0.79,0.54l-0.36,0.1l-0.3,0.02l-0.39,-0.16l-0.08,0.04l-0.07,0.09l-0.03,0.11l0.11,0.31l-0.03,0.06l-0.18,0l-0.25,0.07l-0.19,0.14l-0.56,0.49l-0.47,0.17l-0.44,0.06l-0.18,0.05l-0.08,0.06l-0.15,0.23l-0.15,0.37l-0.08,0.18l-0.06,0.1l0.01,0.14l0.12,0.18l0.09,0.39l-0.02,0.1l-0.1,0.16l-0.14,0.16l-0.3,0.1l-0.24,0.05l-0.16,-0.03l-0.29,-0.01l-0.23,0.06l-0.14,0.11l-0.28,0.14l-0.35,0.05l-0.45,0.02l-0.22,-0.01l-0.65,-0.09l-0.21,0.03l-0.21,0.07l-0.37,0.07l-0.2,0.23l-0.1,0.21l-0.06,0.03l-0.23,-0.19l-0.18,-0.18l-0.12,-0.15l-0.15,0l-0.52,0.27l-0.08,-0.01l-0.15,-0.1l0.03,-0.26l-0.01,-0.16l-0.17,-0.09l-0.35,-0.02l-0.12,-0.09l0.01,-0.14l0.03,-0.13l-0.04,-0.1l-0.09,-0.08l-0.19,0.02l-0.21,0.11l-0.16,0.12l-0.2,0.06l-0.24,0.02l-0.15,0.07l-0.17,0.3l-0.58,0.06l-0.19,-0.07l-0.15,-0.21l-0.2,-0.34l-0.11,-0.04l-0.19,-0.04l-0.31,0.02l-0.41,0.14l-0.1,-0.12l-0.11,-0.03l-0.1,0.1l-0.1,-0.01l-0.41,0.03l-0.52,-0.01l-0.29,-0.07l-0.19,0l-0.38,0.15l-0.2,0l-0.26,0.03l-0.05,-0.51l-0.14,-0.35l0.04,-0.24l0.1,-0.33l0.08,-0.19l0.16,0.08l0.19,0.14l0.12,-0.04l0.03,-0.11l-0.05,-0.15l-0.01,-0.11l0.07,-0.14l0.1,-0.13l0.66,-0.22l0.57,-0.16l0.29,0.11l0.57,0.25l0.29,0.13l0.2,0.08l0.18,0.36l0.12,-0.02l0.12,-0.07l0.07,-0.09l0.06,-0.31l0.26,-0.17l0.58,-0.21l0.04,-0.12l-0.01,-0.07l0.09,-0.06l0.29,-0.06l0.59,-0.06l0.2,0.04l0.23,0.12l0.18,0.12l0.17,0l0.14,-0.03l0.06,0.03l0.04,0.11l0.07,0.1l0.23,-0.13l0.2,-0.17l0.16,-0.02l0.15,-0.06l0.04,-0.11l0.12,-0.19l0.33,-0.36l0.17,-0.06h0.11l0.01,0.06l0.05,0.05l0.29,0.08l0.09,-0.09l0.05,-0.13l-0.1,-0.21l0,-0.09l0.04,-0.08l0.05,-0.05l0.46,0.2l0.1,0l0.21,-0.11l0.19,-0.2l0.07,-0.15l0.95,-0.5l0.07,-0.09l-0.01,-0.07l-0.4,-0.12l-0.18,0.07l-0.17,0l-0.1,-0.07l-0.48,-0.03l-0.11,-0.05l-0.32,-0.36l-0.22,-0.14l-0.18,-0.09l-0.19,0.01l-0.23,0.1l-0.07,-0.04l-0.02,-0.15l0,-0.19l-0.05,-0.21l-0.14,-0.05l-0.18,0.08l-0.26,-0.08l-0.22,-0.03l-0.06,-0.43l-0.09,-0.19l-0.09,-0.19l-0.1,-0.06l-0.16,-0.1l-0.01,-0.23l-0.03,-0.06l-0.06,-0.03l-0.08,0.03l-0.1,0.12l0.05,0.25l-0.04,0.25l-0.06,0.13l-0.11,0.09l-0.13,0l-0.22,-0.13l-0.04,0.77l-0.04,0.05l-0.26,-0.11l-0.21,0.05l-0.32,-0.05l-0.24,-0.13l-0.18,-0.03l-0.29,-0.11l-0.22,-0.14l-0.13,-0.51l-0.13,-0.18l-0.12,-0.04l-0.49,0.18l-0.18,-0.14l-0.33,-0.18l-0.25,-0.07l-0.07,-0.1l0.01,-0.12l0.77,-0.58l0.3,-0.4l0.19,-0.17l0.27,-0.11l0.21,-0.07l0.11,-0.36l0.04,-0.04l0.15,-0.03l0.34,-0.15l0.55,-0.32l0.01,-0.09l-0.06,-0.08l-0.23,-0.16l-0.26,-0.13l-0.16,0.07l-0.09,0.07l-0.15,-0.17v-0.18l0.17,-0.3l0.14,-0.15l0.06,-0.29l0.2,-0.19l0.21,-0.31l0.25,-0.25l0.46,-0.19l0.26,0.06l0.24,-0.04l0.38,-0.15l0.07,-0.01l0.16,0l0.97,0.23l0.32,0.01l0.75,0.3l0.34,0.07l0.24,0.09l0.11,0.13l0.18,0.16l0.94,0.13l0.26,0.09l0.09,0.14l0.27,0.18l0.23,0.04l-0.2,-0.7l0.08,-0.42l0.3,-1.14l0.16,-0.17l0.3,-0.15l0.47,-0.17l0.18,-0.24l0.38,0.02l0.17,-0.02l0.12,-0.04l0.06,-0.13l0.43,0.23l0.73,0.47l0.55,0.3l0.65,0.28l0.89,0.26l0.76,0.08l0.13,-0.06l0.3,-0.39l0.14,-0.02l0.26,0.03l0.8,0.02l0.82,0.02l0.38,-0.04l0.84,-0.16l0.12,-0.01l0.19,0.01l0.5,0.22l0.37,0.03l0.25,0l0.15,0.02l0.31,-0.01l0.5,0.03l0.62,0.14l0.75,-0.03l0.24,-0.03l0.42,0.03l0.33,0.14l0.42,0.14l0.26,0.06l0.18,0.03l0.31,0.01l0.19,-0.05l0.11,0.06l0.11,0.35l0.26,0.23l0.2,0.22l0.17,0.24l0.17,0.1l0.3,0l0.58,0.07l0.33,0.1l0.42,0.42L700.81,332.56zM675.54,341.08l0.03,-0.05l-0.1,-0.27l0.14,-0.25l-0.28,-0.04l-0.14,-0.07l-0.16,-0.25l-0.05,-0.01l-0.08,0.07l-0.04,0.17l0.04,0.18l0.11,0.12l0.07,0.04l0.01,0.01l0,0.06l-0.09,0.3l0.15,0.04l0.26,0.01L675.54,341.08zM677.15,340.87l0.03,-0.16l-0.07,0.01l-0.08,0.04l-0.16,0.04l-0.03,0.08l0.1,0.1l0.13,0.04L677.15,340.87zM674.12,341.32l-0.01,-0.08l-0.1,-0.04l-0.27,-0.04l-0.19,-0.06l-0.04,0l0.02,0.07l0.08,0.13l0.11,0.14l0.15,0.02L674.12,341.32z"/>
                    <path id="KZ" style="stroke-width:0.2;fill:lightgrey" data-name="Kazakhstan" class="land" d="M720.77,304.92l-0.26,-0.09l-0.51,-0.02l-0.31,0.05l-0.15,0.03l-0.22,0.17l-0.16,0.17l-0.07,0.3l0.08,0.33l-0.11,0.69l-0.15,0.26l-0.32,0.45l-0.19,0.1l-0.31,0.08l-0.3,0.13l-0.59,0.13l-0.63,0.07l-0.23,0.1l-0.16,0.31l-0.11,0.26l-0.07,0.2l-0.18,0.64l-0.1,0.57l0.1,0.71l0.08,0.78l0,0.27l0.16,0.4l0.08,0.24l-0.04,0.35l-0.22,0.27l-0.13,0.36l-0.13,0.15l-0.36,0.07l-0.34,0.04l-0.34,0.31l-0.28,0.21l-0.43,0.27l-0.2,0.05l-0.11,-0.14l-0.07,-0.31l-0.15,-0.14l-0.21,-0.01l-0.17,0l-0.54,-0.08l-0.35,0.01l-0.26,0.07l-0.3,0.03l-0.51,-0.11l-0.33,-0.1l-0.22,-0.09l-0.54,-0.27l-0.7,-0.32l-0.29,-0.09l-0.17,0.1l-0.03,0.18l-0.04,0.44l-0.08,0.28l-0.49,1.4l-0.3,0.97l-0.38,0.92l-0.12,0.62l-0.23,0.78l-0.23,0.56l-0.09,0.31l-0.01,0.13l0.04,0.17l0.35,0.19l0.37,0.12l0.08,0.07l0.04,0.2l-0.01,0.32l-0.07,0.31l-0.11,0.24l-0.11,0.12l-0.12,0.01l-0.23,-0.15l-0.21,-0.17l-0.16,-0.05l-0.4,0.1l-0.37,0.13l-0.13,0l-0.22,-0.08l-0.22,-0.17l-0.09,-0.34l-0.19,-0.15l-0.25,0.15l-0.75,0.26l-0.83,0.31l-0.53,0.16l-0.21,-0.02l-0.41,0.04l-0.35,0.09l-0.26,0.12l-0.52,0.16l-0.47,0.11l-0.31,0.25l-0.22,0.24l0.01,0.09l0.16,0.14l0.18,0.11l0.37,-0.03l0.36,-0.02l0.3,0.15l0.27,0.1l0.07,0.12l-0.07,0.12l-0.15,0.03l-0.05,0.08l0.03,0.11l-0.1,0.29l-0.05,0.45l0.05,0.44l0.03,0.4l-0.02,0.2l-0.01,0.29l0.11,0.2l0.1,0.37l0.18,0.23l0.27,0.8l0.16,0.47l0.15,0.53l-0.11,0.29l0.01,0.17l0.17,0.14l0.08,0.27l0.08,0.16l-0.02,0.16l-0.07,0.06l-0.38,-0.1l-0.31,0.16l-0.33,0.16l-0.04,0.09l-0.01,0.09l0.03,0.08l0.19,0.15l0.26,0.09l-0.01,0.15l-0.32,0.07l-0.49,0.22l-0.13,0.24l-0.1,0.26l-0.01,0.15l0.05,0.41l0.07,0.45l0.14,0.47l0.01,0.15l-0.07,0.1l-0.07,0.07l-0.39,-0.43l-0.42,-0.42l-0.33,-0.1l-0.58,-0.07l-0.3,0l-0.17,-0.1l-0.17,-0.24l-0.2,-0.22l-0.26,-0.23l-0.11,-0.35l-0.11,-0.06l-0.19,0.05l-0.31,-0.01l-0.18,-0.03l-0.26,-0.06l-0.42,-0.14l-0.33,-0.14l-0.42,-0.03l-0.24,0.03l-0.75,0.03l-0.62,-0.14l-0.5,-0.03l-0.31,0.01l-0.15,-0.02l-0.25,0l-0.37,-0.03l-0.5,-0.22l-0.19,-0.01l-0.12,0.01l-0.84,0.16l-0.38,0.04l-0.82,-0.02l-0.8,-0.02l-0.26,-0.03l-0.14,0.02l-0.3,0.39l-0.13,0.06l-0.76,-0.08l-0.89,-0.26l-0.65,-0.28l-0.55,-0.3l-0.73,-0.47l-0.43,-0.23l-0.06,0.13l-0.12,0.04l-0.17,0.02l-0.38,-0.02l-0.18,0.24l-0.47,0.17l-0.3,0.15l-0.16,0.17l-0.3,1.14l-0.08,0.42l0.2,0.7l-0.23,-0.04l-0.27,-0.18l-0.09,-0.14l-0.26,-0.09l-0.94,-0.13l-0.18,-0.16l-0.11,-0.13l-0.24,-0.09l-0.34,-0.07l-0.75,-0.3l-0.32,-0.01l-0.97,-0.23l-0.16,0l-0.07,0.01l-0.38,0.15l-0.24,0.04l-0.26,-0.06l-0.46,0.19l-0.25,0.25l-0.21,0.31l-0.2,0.19l-0.06,0.29l-0.14,0.15l-0.17,0.3v0.18l0.15,0.17l-0.24,0.16l-0.27,0.05l-0.14,0.1l-0.15,0.23l-0.14,0.2l-0.08,0.07l-0.12,-0.01l-0.14,-0.15l-0.21,0.01l-0.24,0.19l-0.29,0.31l-0.37,0.47l-0.38,0.25l-0.48,0.21l-0.35,0.09l-0.28,0.16l-0.46,0.33l-0.09,0.19l-0.33,0.11l-0.27,0.13l-0.25,0.22l-0.06,0.38l-0.16,0.22l-0.38,0.3l-0.32,0.3l-0.21,0.3l-0.22,0.32l-0.07,0.17l-0.01,0.24l0.1,0.2l0.02,0.19l-0.08,0.14l-0.22,0.05l-0.23,-0.04l-0.35,-0.14l-0.37,-0.24l-0.13,-0.12l-0.18,-0.2l0.03,-0.19l0.09,-0.37l0.06,-0.25l-0.15,-0.12l-0.11,-0.13l-0.08,-0.13l-0.16,-0.25l-0.2,0.06l-0.17,0.06l-0.2,-0.09l-0.58,0.04l-0.44,0.03l-0.41,0.03l-0.52,0.03l-0.63,0.04l-0.18,-0.05l-0.11,-0.08l-0.11,-0.34l-0.07,-0.29l-0.12,-0.54l-0.08,-0.42l-0.1,-0.5l-0.06,-0.56l-0.05,-0.4l-0.48,-0.01l-0.38,-0.01l-0.51,-0.01l0,-0.32l0.01,-0.4l0.01,-0.45l0.1,-0.6l0.04,-0.5l0.04,-0.61l0.03,-0.41l0.03,-0.45l-0.27,0.14l-0.29,0.15l-0.28,0.14l-0.19,-0.36l-0.18,-0.35l-0.28,-0.54l-0.21,-0.4l-0.36,-0.24l-0.27,-0.17l-0.28,-0.3l-0.24,-0.31l-0.23,-0.29l-0.27,-0.25l-0.26,0.08l-0.3,0.16l-0.29,0.15l-0.3,0.16l-0.15,0.08l-0.35,-0.03l-0.31,-0.03l-0.55,-0.05l-0.46,-0.04l-0.47,-0.04l-0.66,-0.06l-0.67,-0.06l-0.45,0.08l-0.57,0.09l-0.59,0.1l-0.49,0.08l-0.62,0.1l-0.46,0.08l-0.23,-0.01l-0.29,-0.33l-0.46,-0.53l-0.28,-0.32l-0.27,-0.31l-0.4,-0.45l-0.32,-0.34l-0.31,-0.34l-0.18,-0.31l-0.09,-0.39l-0.16,-0.18l-0.36,-0.24l-0.39,-0.26l-0.39,-0.26l-0.39,-0.26l-0.39,-0.26l-0.39,-0.26l-0.39,-0.26l-0.39,-0.26l-0.39,-0.26l-0.39,-0.26l-0.39,-0.26l-0.39,-0.26l-0.39,-0.26l-0.39,-0.26l-0.39,-0.26l-0.39,-0.26l-0.39,-0.26l-0.32,-0.19l-0.3,0.05l-0.44,0.13l-0.47,0.14l-0.46,0.14l-0.83,0.25l-0.53,0.16l-0.42,0.13l-0.44,0.14l-0.58,0.19l-0.49,0.16l-0.57,0.18l-0.5,0.16l-0.42,0.14l-0.44,0.14l-0.35,0.11v0.91v0.9l0,0.9v0.9v0.89l0,0.89V328v0.88v0.88l0,0.88v0.87v0.87l0,0.87v0.86v0.86l0,0.86l-0.12,-0.01l-0.27,0.05l-0.45,0.12l-0.37,0.06l-0.16,-0.04l-0.15,-0.09l-0.13,-0.19l-0.19,-0.23l-0.2,-0.19l-0.25,-0.38l-0.17,-0.29l-0.42,-0.64l-0.06,-0.2l-0.08,-0.21l-0.14,-0.17l-0.49,-0.43l-0.58,-0.38l-0.56,-0.38l-0.16,-0.09l-0.26,-0.12l-0.33,0l-0.22,0.02l-0.68,0.12l-0.52,0.15l-0.7,0.2l-0.54,0.22l-0.12,0.06l-0.4,0.26l-0.49,0.44l-0.57,0.62l-0.07,-0.4l-0.03,-0.61l0.01,-0.2l0.16,-0.52l0.16,-0.35l0.13,-0.37l0.06,-0.48l-0.12,-0.78l-0.13,-0.17l-0.16,-0.06l-0.17,-0.02l-0.31,0.03l-0.14,0.06l-0.25,-0.26l-0.3,-0.04l-0.16,0.07l-0.16,0.04l-0.18,-0.07l-0.15,-0.16l-0.09,-0.17l-0.07,-0.19l-0.24,-0.38l-0.24,-0.21l-0.29,-0.05l-0.47,0.01l-0.15,-0.03l-0.01,-0.22l0.06,-0.48l0,-0.25l-0.03,-0.24l-0.08,-0.19l-0.1,-0.17l-0.28,-0.28l-0.21,-0.39l-0.35,-0.81l-0.31,-0.91l-0.13,-0.14l-0.27,-0.14l-0.6,-0.12l-0.39,-0.12l-0.16,-0.12l-0.07,-0.2l0,-0.22l0.03,-0.25l0.09,-0.22l0.31,-0.17l0.68,-0.04l0.58,0.02l0.53,0.39l0.17,0.09l0.19,0.03l0.37,-0.12l0.19,-0.03l0.47,0.04l-0.14,-0.18l-0.18,-0.1l-0.18,0.01l-0.16,-0.07l-0.26,-0.35l-0.45,-0.4l-0.1,-0.17l-0.03,-0.27l0.09,-0.23l0.32,-0.24l0.27,-0.32l0.12,-0.43l0.11,-0.2l0.23,-0.31l0.35,0.06l0.54,-0.23l0.89,0.04l1.06,-0.06l0.29,0.02l0.68,0.22l0.39,0.09l0.47,0.05l0.34,-0.1l-0.32,-0.3l-0.7,-0.36l-0.18,-0.3l0.32,-0.83l0.43,-0.76l0.26,-0.9l-0.07,-0.9l-0.13,-0.25l0.04,-0.29l0.15,-0.25l0.11,-0.25l-0.09,-0.3l-0.19,-0.47l-0.1,-0.15l-0.33,-0.25l-0.67,-0.01l-0.55,-0.14l-0.18,0.11l-0.1,0.17l-0.13,0.11l-0.42,0.23l-0.14,0.04l-0.15,-0.05l-0.21,-0.25l-0.19,0.03l-0.56,-0.16l-0.26,-0.35l-0.1,-0.05l-0.91,-0.28l-0.32,-0.05l-0.72,0.29l-0.53,0.37l-0.15,0.05l-0.27,0.23l-0.15,0.04l-0.16,-0.04l-0.15,0.01l-0.32,0.35l-0.57,0.4l-0.29,0.25l-0.32,0.16l-0.35,0.1l-0.36,0.02l-0.13,0.09l-0.41,0.03l-0.25,0.07l-0.01,0.14l0.05,0.31l-0.21,-0.11l-0.22,0.21l0.07,0.2l-0.13,-0.05l-0.63,-0.38l-0.52,-0.27l-0.46,-0.24l-0.07,-0.04l-0.13,-0.12l-0.09,-0.18l-0.02,-0.2l0.05,-0.15l0.11,-0.09l0.13,-0.04l0.12,0.03l0.13,0.09l0.23,0.11l0.3,0.02l0.19,-0.08l0.03,-0.2l-0.36,-0.74l-0.33,-0.6l-0.32,-0.67l-0.14,-0.24l-0.39,-0.56l-0.39,-0.55l-0.3,-0.49l-0.16,-0.15l-0.49,-0.06l-0.94,-0.12l-0.33,-0.06l-0.27,0.15l-0.27,0.12l-0.25,-0.21l-0.2,-0.35l-0.11,-0.3l0.05,-0.3l0.02,-0.45l-0.15,-0.44l-0.17,-0.22l-0.42,-0.16l-0.54,-0.37l-0.15,-0.68l0.26,-0.98l0.42,-0.7l0.31,-0.29l0.15,-0.26l0.05,-0.22l-0.04,-0.21l-0.18,-0.23l-0.28,-0.22l-0.14,-0.27l0.06,-0.58l0.19,-0.84l0.29,-0.67l0.39,-0.38l0.33,-0.27l0.13,-0.25l0.01,-0.36l-0.01,-0.34l0.09,-0.25l0.14,-0.2l0.15,-0.17l0.21,-0.2l0.27,-0.05l0.3,0.16l0.4,0.42l0.59,0.82l0.34,0.54l0.12,0.17l0.31,0.32l0.28,0.13l0.46,-0.2l0.45,-0.23l0.14,-0.15l0.09,-0.22l-0.07,-0.38l-0.09,-0.25l-0.1,-0.31l-0.14,-0.55l-0.1,-0.86l-0.11,-0.27l0.08,-0.03l0.22,0.06l0.21,0.02l0.3,-0.19l0.41,-0.36l0.74,-0.56l0.16,-0.37l0.13,-0.41l0.21,-0.25l0.47,-0.08l0.44,-0.13l0.31,-0.29l0.48,-0.26l0.4,-0.16l0.17,-0.14l0.13,-0.22l0.46,-0.61l0.36,-0.38l0.32,-0.39l0.11,-0.24l0.25,0.05l0.38,0.17l0.41,0.15l0.3,0.24l0.06,0.24l0.03,0.19l0.12,0.1l0.14,0.02l0.22,-0.05l0.38,-0.01l0.47,-0.32l0.65,-0.53l0.59,-0.17l0.31,0.13l0.26,0.39l0.21,0.37l0.21,0.14l0.13,0l0.05,0.01l0.26,-0.08l0.02,0l0.24,0.01l0.23,0.12l0.38,0.01l0.53,-0.1l0.06,-0.04l0.25,0.05l0.31,0.17l0.24,0.2l0.43,0.66l0.25,0.17l0.51,0.23l0.24,0.21l0.28,0.33l0.14,0.2l0.3,0.36l0.35,0.59l0.06,0.47l0.08,0.4l0.13,0.19l0.11,0.02l0.11,-0.07l0.11,-0.18l0.04,-0.3l-0.03,-0.53l-0.09,-0.44l-0.11,-0.14l-0.05,-0.15l0.08,-0.2l0.19,-0.1l0.24,0.06l0.39,0.25l0.41,0.32l0.51,0.55l0.46,0.35l0.51,0.28l0.4,0.08l0.31,-0.08l0.37,-0.23l0.34,-0.26l0.15,-0.28l0.11,-0.3l0.51,-0.41l0.47,-0.37l0.21,0.07l0.15,0.1l0.48,-0.23l0.17,-0.06l0.46,-0.09l0.47,0.13l0.38,0.4l0.36,0.26l0.33,-0.03l0.27,-0.13l0.18,-0.25l0.13,-0.29l0.18,-0.19l0.03,-0.01l0.58,0.1l0.36,-0.02l0.04,-0.04l0.48,0.08l0.53,0.41l0.33,0.46l0.42,0.58l0.2,0.19l0.28,0.08l0.22,0.03l0.3,0.09l0.79,0.12l0.12,0.07l0.08,0.09l-0.07,0.32l0.07,0.08l0.64,-0.22l0.17,-0.17l0.21,-0.48l0.19,-0.48l0.14,-0.18l0.15,-0.05l0.15,0.07l0.21,0.29l0.28,0.29l0.38,0.11l0.23,0.04l0.36,0.02l0.85,-0.14l0.8,-0.35l0.46,-0.38l0.21,-0.57l0.13,-0.65l0.2,-0.41l-0.08,-0.42l-0.4,-0.4l-0.14,-0.12l-0.98,-0.23l-0.06,-0.16l-0.06,-0.04l-0.96,-0.36l-0.46,-0.15l-0.13,-0.24l-0.09,-0.31l-0.3,-0.28l-0.6,-0.25l-0.1,-0.19l0.1,-0.2l0.47,-0.22l0.54,-0.46l0.21,-0.09l0.48,-0.02l0.44,-0.38l0.31,-0.22l0.16,-0.26l-0.04,-0.27l-0.44,-0.8l-0.13,-0.49l0.08,-0.32l0.25,-0.35l0.14,-0.19l0.17,-0.34l0.11,-0.18l0.45,-0.08l0.54,-0.03l0.37,0.08l0.52,0.04l0.47,0.06l0.24,0.06l0.18,-0.1l0.13,-0.18l0,-0.24l-0.19,-0.23l-0.7,-0.31l-0.3,-0.25l-0.23,0.03l-0.39,-0.08l-0.35,-0.17l-0.31,-0.06l-0.1,-0.23l0.06,-0.33l0.12,-0.19l0.23,-0.09l0.25,0.05l0.27,-0.14l0.08,-0.08l0.02,-0.1l-0.04,-0.15l-0.13,-0.12l-0.18,-0.03l-0.21,0.1l-0.25,0.07l-0.42,-0.15l-0.33,-0.18l0.02,-0.17l0.25,-0.25l0.11,-0.2v-0.28v-0.33l0.09,-0.39l0.25,-0.27l0.29,-0.14l0.74,0.26l0.93,0.23l0.16,-0.04l0.05,-0.12l0.11,-0.11l1.29,-0.05l0.25,-0.15l0.13,-0.12l1.24,-0.17l0.15,-0.16l0.18,-0.15l0.29,0l0.34,-0.06l0.47,-0.19l0.33,-0.1l0.06,-0.01l0.35,0.04l0.44,-0.15l0.09,-0.06l0.07,-0.11l0.38,-0.21l0.74,-0.18l0.18,0.11l0.35,0.05l0.45,-0.08l0.33,-0.13l0.19,0.13l0.26,0.14l0.2,-0.12l0.1,-0.37l0.13,-0.36l0.22,-0.17l0.17,-0.06l0.16,-0.14l0.12,-0.15l0.65,0.02l0.58,-0.36l0.11,0.16l0.75,-0.04l0.93,-0.23l0.56,-0.11l0.96,-0.24l0.45,-0.2l0.64,-0.12l0.59,-0.09l0.38,-0.35l0.31,-0.05l0.38,-0.03l0.23,-0.08l0.15,-0.13l0.1,-0.24l-0.05,-0.31l-0.05,-0.22l0.27,-0.13l0.38,-0.04l0.24,-0.05l0.53,-0.51l0.36,-0.25l0.38,-0.15l0.76,0.08l0.69,0.08l0.69,0.24l0.36,0.3l0.31,0.23l0.3,0.11l0.27,0.07l0.31,-0.1l0.22,-0.14l0.13,-0.2l0.19,-0.14l0.71,-0.11l0.15,0.22l0.34,0.65l0.23,0.87l0.38,1.14l0.17,0.56l-0.07,0.29l0,0.4l-0.02,0.44l-0.28,0.5l0.11,0.23l0.68,0.26l0.96,-0.09l0.59,-0.21l0.33,0.08l0.17,-0.12l0.11,-0.37l0.23,-0.08l0.23,0.26l0.17,0.43l0.16,0.28l-0.01,0.33l0.06,0.42l0.12,0.11l0.23,-0.16l0.16,-0.1l0.04,-0.13l-0.07,-0.16l-0.03,-0.16l0.05,-0.15l0.11,-0.06l0.33,0.05l0.49,0.08l0.58,0.6l0.31,0.11l0.13,0.01l0.29,-0.03l0.35,-0.17l0.24,-0.22l0.08,-0.11l0.14,0.02l0.13,0.1l0.01,0.22l-0.1,0.32l-0.35,0.29l-0.43,0.27l-0.26,0.49l-0.06,0.51l0.12,0.26l0.1,0.17l0.03,0.24l0.1,0.03l0.18,-0.1l0.49,-0.51l0.25,-0.13l0.36,-0.08l0.59,0.04l0.4,0.16l0.19,0.23l0.21,0.19l0.14,-0.08l0.07,-0.22l0,-0.25l0.06,-0.21l0.64,-0.51l0.43,-0.34l0.15,-0.04l0.29,0.07l0.18,-0.04l0.47,-0.32l0.44,-0.36l0.04,-0.25l0.02,-0.22l0.11,-0.1l0.62,-0.08l0.1,-0.04l0.53,-0.25l0.73,-0.43l0.35,-0.26l0.64,-0.11l0.12,-0.07l0.21,-0.17l0.4,-0.24l0.22,-0.03l-0.14,0.58l-0.24,0.67l-0.14,0.18l-0.65,-0.03l0,0.18l0.1,0.28l0.07,0.16l0.08,0.14l0.18,0.24l0.69,0.57l0.88,0.72l0.95,0.81l0.66,0.56l0.27,0.29l0.17,0.23l0.49,0.81l0.46,0.77l0.78,1.35l0.69,1.29l0.76,1.41l0.44,0.81l0.9,1.69l0.24,0.52l0.46,0.98l0.4,0.91l0.36,0.8l0.22,0.07l0.02,-0.22l0.04,-0.15l0.11,-0.08l0.26,-0.24l0.14,-0.06l0.21,0.02l0.22,-0.12l0.08,-0.23l-0.05,-0.42l-0.03,-0.19l0.08,-0.21l0.12,-0.08l0.17,-0.07l0.15,-0.03l0.13,-0.24l0.24,-0.07l0.22,0.04l0.18,0.01l0.16,0.17l0.09,0.24l0.17,0.02l0.28,-0.02l0.04,0.2l-0.08,0.33l-0.1,0.26l-0.02,0.21l0.15,0.1l0.55,-0.09l0.19,0.04l0.06,0.21l0.08,0.17l0.04,0.21l-0.06,0.23l0.1,0.14l0.47,0l0.33,-0.11l0.51,-0.01l0.46,0.25l0.32,-0.04l0.32,-0.1l0.47,0.06l0.33,-0.19l0.23,-0.24l0.07,-0.19l0.12,-0.11l0.44,0l0.28,-0.02l0.21,-0.28l0.19,-0.13l0.32,-0.02h0.23l0.63,0.26l0.38,0.22l0.4,0.31l0.24,0.19l0.16,0.43l0.27,0.32l0.22,0.37l0.05,0.37l0.18,0.65l0.18,0.21h0.22l0.28,0.09l0.3,0.07l0.65,0.49l0.24,0.01l0.18,0.12l0.03,0.22l-0.07,0.26l0.07,0.25l0.21,0.32l0.17,0.31l0.21,0.37l0.06,0.21l0.17,0.07l0.22,-0.11l0.36,0.08l1.07,0.21l0.15,0.03l0.11,0.22l0.16,-0.02l0.18,-0.01l0.25,0.03l0.17,-0.2l0.14,-0.18l0.35,-0.22l0.29,-0.3l0.25,-0.27l0.18,-0.04l0.15,0.12l0.01,0.23l-0.18,0.17l-0.14,0.2l0.03,0.2l0.25,0.02l0.27,0.3l0.4,0.71l0.13,0.15l0.2,0.14l0.22,0.06l0.24,0.1l0.18,0.29L720.77,304.92zM623.55,320.07l-0.05,0.04l-0.19,-0.11l-0.12,-0.18l0.15,-0.22l0.14,0.04l0.09,0.23L623.55,320.07zM616.9,321.82l-0.1,0.05l-0.06,-0.25l0.11,-0.21l0.15,-0.03l-0.05,0.33L616.9,321.82zM616.54,322.28l-0.1,0.11l-0.15,-0.02l-0.28,-0.42l0.08,-0.43l0.1,-0.09l0.14,-0.06l0.02,0.09l-0.2,0.19l-0.02,0.24l0.17,0.27L616.54,322.28z"/>
                    <path id="TJ" style="stroke-width:0.2;fill:lightgrey" data-name="Tajikistan" class="land" d="M674.84,339.81l0.01,0.07l-0.04,0.12l-0.58,0.21l-0.26,0.17l-0.06,0.31l-0.07,0.09l-0.12,0.07l-0.12,0.02l-0.18,-0.36l-0.2,-0.08l-0.29,-0.13l-0.57,-0.25l-0.29,-0.11l-0.57,0.16l-0.66,0.22l-0.1,0.13l-0.07,0.14l0.01,0.11l0.05,0.15l-0.03,0.11l-0.12,0.04l-0.19,-0.14l-0.16,-0.08l-0.08,0.19l-0.1,0.33l-0.04,0.24l0.14,0.35l0.05,0.51l0.26,-0.03l0.2,0l0.38,-0.15l0.19,0l0.29,0.07l0.52,0.01l0.41,-0.03l0.1,0.01l0.1,-0.1l0.11,0.03l0.1,0.12l0.41,-0.14l0.31,-0.02l0.19,0.04l0.11,0.04l0.2,0.34l0.15,0.21l0.19,0.07l0.58,-0.06l0.17,-0.3l0.15,-0.07l0.24,-0.02l0.2,-0.06l0.16,-0.12l0.21,-0.11l0.19,-0.02l0.09,0.08l0.04,0.1l-0.03,0.13l-0.01,0.14l0.12,0.09l0.35,0.02l0.17,0.09l0.01,0.16L677,343.2l0.15,0.1l0.08,0.01l0.52,-0.27l0.15,0l0.12,0.15l0.18,0.18l0.23,0.19l0.06,-0.03l0.1,-0.21l0.2,-0.23l0.37,-0.07l0.21,-0.07l0.21,-0.03l0.65,0.09l0.22,0.01l0.45,-0.02l0.35,-0.05l0.28,-0.14l0.14,-0.11l0.23,-0.06l0.29,0.01l0.16,0.03l0.01,0.19l-0.04,0.36l-0.04,0.25l0.23,0.45l0.15,0.22l0.15,0.15l0.03,0.12l-0.03,0.1l-0.18,0.1l-0.07,0.1l-0.03,0.11l0.06,0.13l0.1,0.42l0.13,0.33l0.19,0.16l0.28,0.1l0.16,-0.02l0.11,-0.25l0.19,-0.19l0.16,0.01l0.25,-0.01l0.66,0.21l0.65,0.32l0.19,0.18l0.07,0.2l-0.18,0.46l0.01,0.29l0.04,0.31l0.15,0.23l0.14,0.4l0.03,0.33l0.06,0.1l0.05,0.12l-0.07,0.3l-0.05,0.3l0.06,0.1l0.2,0.15l0.31,0.28l0.06,0.23l-0.11,0.15l-0.2,0.18l-0.25,0.15l-0.08,0.06l-0.04,-0.04l-0.13,-0.15l-0.28,-0.25l-0.2,-0.13l-0.38,0.04l-0.22,-0.05l-0.27,-0.08l-0.25,0.01l-0.16,0.15l-0.1,0.15l-0.25,0.05l-0.36,0.12l-0.56,0.18l-0.27,-0.03l-0.07,-0.08l0.06,-0.1l0.19,-0.13l0.05,-0.16l-0.04,-0.15l-0.18,-0.04l-0.07,-0.02l-0.08,-0.03l-0.35,-0.09l-0.28,0.03l-0.48,0.19l-0.89,0.5l-0.39,0.33l-0.28,0.5l-0.84,0.16l-0.58,0.29l-0.59,0.47l-0.39,0.25l-0.19,0.04l-0.19,-0.04l-0.19,-0.13l-0.19,-0.39l-0.17,-0.59l-0.11,-0.39l0.06,-0.51l0.07,-0.58l0.07,-0.59l0.12,-0.68l0.1,-0.24l0,-0.16l-0.08,-0.08l-0.18,0l-0.28,0.09l-0.2,0.02l-0.12,-0.06l0.01,-0.32l0.14,-0.58l-0.21,-0.49l-0.57,-0.4l-0.49,-0.14l-0.4,0.12l-0.34,0.31l-0.27,0.51l-0.28,0.41l-0.29,0.32l-0.21,0.15l-0.07,0.06l-0.04,0.14l0.16,0.43l-0.01,0.36l-0.18,0.29l-0.19,0.14l-0.21,-0.01l-0.17,-0.07l-0.12,-0.12l-0.34,-0.03l-0.55,0.06l-0.38,0.14l-0.2,0.23l-0.06,0.31l0.08,0.38l-0.04,0.29l-0.17,0.2l-0.14,0.12l-0.11,0.03l-0.24,-0.17l-0.37,-0.38l-0.25,-0.21l-0.14,-0.03l-0.07,0.02l-0.08,0.04l-0.05,0.05l-0.04,0.11l-0.12,0.04l-0.17,-0.04l-0.15,0.03l-0.09,0.12l-0.25,0.14l-0.45,0.16l-0.25,0.17l-0.04,0.18l-0.07,0.08l-0.14,-0.03l-0.4,0.25l-0.31,-0.08l-0.35,-0.32l-0.19,-0.27l-0.02,-0.11l0.11,-0.26l0.05,-0.85l0.14,-0.29l0.41,-0.53l0.21,-0.4l0.24,-0.33l0.17,-0.11l0.16,-0.26l0.13,-0.3l0.04,-0.19l-0.01,-0.15l-0.05,-0.1l-0.23,-0.2l-0.3,-0.32l-0.16,-0.32l-0.09,-0.41l-0.02,-0.29l0.28,-0.79l-0.04,-0.13l-0.08,-0.12l-0.17,-0.08l-0.24,-0.03l-0.24,0.04l-0.3,0l-0.21,-0.04l-0.05,-0.05l-0.03,-0.36l-0.05,-0.08l-0.09,-0.07l-0.61,-0.17l-0.12,-0.07l-0.02,-0.09l0.21,-0.81l0.09,-0.06l0.09,-0.13l0.14,-0.14l0.5,-0.23l0.53,0.1l0.47,0.11l0.47,0.06l0.16,0.04l0.27,0.03l0.18,-0.03l0.12,-0.09l0.22,-0.26l0.07,-0.39l0.08,-0.35l0.13,-0.03l0.14,0.04l0.06,-0.07l0.03,-0.1l0.03,-0.08l0.06,-0.02l0.1,0.09l0.06,-0.02l0.05,-0.06l-0.01,-0.07l-0.11,-0.12l-0.1,-0.19l0.01,-0.07l0.03,-0.07l0.29,-0.06l0.13,-0.01l0.05,-0.07l-0.02,-0.11l-0.11,-0.06l-0.4,0.03l-0.41,-0.01l-0.05,-0.07l0.02,-0.07l0.06,-0.06l0.84,-0.15l0.45,0.05l0.33,0.08l0.13,-0.04l-0.15,-0.33l0.21,-0.03l0.03,-0.11l-0.28,-0.88l0.15,-0.08l0.15,-0.17l-0.01,-0.33l0.13,-0.16l0.16,-0.11l0.24,0.11l0.37,0.32l0.12,0.06l0.12,0.02l0.17,-0.1l0.65,-0.32l0.37,-0.18l0.44,-0.26l0.08,-0.1l0.15,-0.4l0.08,-0.03l0.11,0.04l0.38,0.41l0.22,0.27v0.09l-0.06,0.07l0.01,0.07l0.31,0.14v0.07l-0.07,0.13l-0.04,0.07l-0.04,0.03l-0.42,0.36l-0.47,0.4l-0.02,0.05l-0.02,0.1l0,0.1l0.08,0.08l0.2,0.06l0.18,0.08l0.09,0.21l0.1,0.19l0.14,0.05l0.69,-0.12L674.84,339.81zM673.99,337.25l-0.08,0.01l-0.15,-0.18l-0.05,-0.12l0.06,-0.04l0.13,0.09l0.09,0.15L673.99,337.25zM674.12,341.32l-0.25,0.14l-0.15,-0.02l-0.11,-0.14l-0.08,-0.13l-0.02,-0.07l0.04,0l0.19,0.06l0.27,0.04l0.1,0.04L674.12,341.32z"/>
                    <path id="TM" style="stroke-width:0.2;fill:lightgrey" data-name="Turkmenistan" class="land" d="M662.39,350.18l-0.14,0.01l-0.34,-0.08l-0.68,-0.16l-0.58,-0.33l-0.38,-0.22l-0.06,0.03l-0.17,0.15l-0.12,0.18l-0.09,0.35l-0.15,0.41l-0.71,0.02l-0.6,0.03l-0.39,0.16l-0.38,0.22l-0.09,0.25l-0.08,0.33l-0.22,0.75l-0.2,0.68l-0.1,0.44l-0.15,0.3l-0.43,0.4l-0.49,0.27l-0.26,0.13l-0.11,0.16l-0.03,0.15l-0.09,0.04l-0.2,-0.03l-0.21,0.03l-0.47,0.15l-0.5,0.19l-0.6,0.19h-0.34l-0.14,0.04l-0.06,0.1l0.06,0.18l0.06,0.13l0.05,0.17l-0.14,0.14l-0.1,0.24l-0.08,0.42l-0.21,0.13l-0.34,0.2l-0.38,0.27l-0.1,0.05l-0.22,0.08l-0.22,-0.02l-0.2,-0.04l-0.21,0.07l-0.22,0.21l-0.1,-0.06l-0.05,-0.21l-0.11,-0.14l-0.35,-0.31l-0.3,-0.22l-0.13,-0.01l-0.27,0.06l-0.34,0.04l-0.28,-0.04l-0.22,-0.09l-0.34,-0.3l-0.12,-0.16l-0.09,-0.13l-0.23,0.03l-0.07,-0.14l-0.01,-0.16l0.06,-0.19l-0.02,-0.36l-0.13,-0.26l-0.15,-0.11l0.02,-0.08l0.07,-0.18l0.08,-0.16l0,-0.32l-0.1,-0.34l-0.04,-0.5l0.03,-0.48l-0.14,-0.24l-1.16,0l-1.03,0.02l-0.06,-0.06l-0.4,-0.61l-0.32,-0.47l-0.32,-0.28l-0.73,-0.34l-0.35,-0.14l-0.3,-0.26l-0.25,-0.28l-0.06,-0.39l-0.05,-0.13l-0.07,-0.1l-0.08,-0.05l-0.09,0.01l-0.85,-0.45l-0.34,-0.12l-0.32,0.1l-0.14,0.02l-0.28,-0.13l-0.32,0.18l-0.14,0.01l-0.19,-0.04l-0.16,-0.07l-0.43,-0.41l-0.36,-0.17l-0.26,-0.11l-0.5,-0.16l-0.53,-0.08l-0.27,-0.07l-0.2,-0.09l-0.05,-0.06l0,-0.15l-0.01,-0.2l-0.07,-0.15l-0.13,-0.17l-0.19,-0.13l-0.32,0.02l-0.48,-0.01l-0.37,-0.13l-0.29,-0.02l-0.35,0.02l-0.29,0l-0.21,0.1l-0.12,0.11l-0.08,0.34l-0.07,0.05l-0.12,0.03l-0.16,-0.02l-0.34,0l-0.59,-0.06l-0.74,-0.02l-0.55,0.17l-0.44,0.25l-0.42,0.28l-0.49,0.44l-0.14,0.2l-0.29,0.78l-0.13,0.11l-0.17,0.09l-0.17,0.02l-0.34,0.12l-0.45,0.19l-0.3,0.07l-0.78,-0.04l-0.05,-0.25l-0.14,-0.9l-0.07,-0.91l0,-0.42l0.08,-0.85l-0.01,-0.43l-0.03,-0.39l0.03,-0.38l0.06,-0.43l0.03,-0.44l-0.05,-0.31l-0.15,-0.25l-0.25,-0.31l-0.04,-0.18l-0.01,-0.2l-0.24,-0.02l-0.22,-0.21l-0.18,-0.11l-0.39,-0.13l-0.19,-0.01l-0.18,0.09l-0.13,0.19l-0.09,-0.29l0,-0.31l0.31,-0.64l0.2,0.19l0.24,0.07l0.3,0.01l0.3,-0.05l-0.06,-0.22l-0.14,-0.12l-0.17,-0.1l-0.06,-0.29l0.02,-0.3l0.08,-0.28l-0.09,-0.11l-0.14,-0.07l-0.33,0.01l-0.42,-0.08l-0.42,-0.03l-0.1,0.34l0.23,0.44l-0.2,-0.22l-0.19,-0.29l-0.26,-0.52l-0.17,-0.61l-0.03,-0.66l0.14,-0.54l0.18,-0.51l0.11,-0.66l0.15,-0.65l0.15,0.29l0.17,0.26l0.24,0.24l0.13,0.06l0.4,0.1l0.25,-0.04l0.27,-0.14l0.27,0.05l0.22,0.27l0.2,0.3l0.3,0.06l0.61,-0.22l0.29,-0.05l0.25,0.1l0.13,0.02l0.13,-0.02l-0.12,-0.26l-0.05,-0.26l0.15,-0.14l0.48,0.14l0.31,-0.1l0.08,-0.05l0.07,-0.07l0.04,-0.22l-0.01,-0.23l-0.04,-0.22l-0.09,-0.19l-0.22,-0.27l-0.86,-0.63l-0.29,-0.25l-0.24,-0.33l-0.15,-0.46l-0.13,-0.48l-0.12,-0.36l-0.3,-0.84l-0.12,-0.1l-0.15,-0.04l-0.36,-0.03l-0.36,0.06l-0.59,0.14l-0.34,-0.04l-0.16,0.09l-0.39,0.35l-0.18,0.3l-0.25,0.69l0.19,0.22l0,0.15l-0.15,1.01l0.09,0.49l-0.03,0.04l-0.07,-0.11l-0.22,-0.5l-0.39,-0.61l-0.32,-0.94l0.57,-0.62l0.49,-0.44l0.4,-0.26l0.12,-0.06l0.54,-0.22l0.7,-0.2l0.52,-0.15l0.68,-0.12l0.22,-0.02l0.33,0l0.26,0.12l0.16,0.09l0.56,0.38l0.58,0.38l0.49,0.43l0.14,0.17l0.08,0.21l0.06,0.2l0.42,0.64l0.17,0.29l0.25,0.38l0.2,0.19l0.19,0.23l0.13,0.19l0.15,0.09l0.16,0.04l0.37,-0.06l0.45,-0.12l0.27,-0.05l0.12,0.01l0.74,0.04l0.67,0.04l0.82,0.05l0.25,0.04l0.29,0.04l0.15,0.01l0.13,-0.16l0.09,-0.09l0.07,-0.07l-0.01,-0.08l-0.1,-0.07l-0.16,-0.23l-0.09,-0.82l-0.06,-0.7l0.2,-0.22l0.22,-0.16l0.32,-0.48l0.17,-0.15l0.25,-0.12l0.85,-0.03l0.36,-0.09l0.12,-0.16l0.19,-0.39l0.06,-0.32l0.11,-0.15l0.13,-0.11l0.13,0l0.25,0.09l0.19,0.05l0.14,0.07l0.13,0.11l0.12,0.2l0.02,0.13l0.06,0.08l0.1,0l0.07,0l0.05,-0.03l0.03,-0.07l-0.02,-0.09l-0.17,-0.25l-0.36,-0.46l-0.24,-0.19l-0.12,-0.1l-0.03,-0.1l0.15,-0.15l0.15,-0.08l0.26,0.06l0.35,0.03l0.15,-0.07l0.16,-0.37l0.4,0.39l0.41,0.44l0.15,0.08l0.29,0.05l0.25,0.02l0.1,0.05l0.11,0.11l0.22,0.48l0.22,0.12l0.27,0.09l0.88,-0.01l0.27,0.02l0.22,0.22l0.14,0.09l0.06,0.08l-0.01,0.1l-0.05,0.12l-0.01,0.24l-0.01,0.19l-0.07,0.09l-0.02,0.08l0.06,0.07l0.41,0.18l0.14,0.19l0.1,0.08l0.02,0.12l-0.07,0.08l-0.19,-0.04l-0.09,0.12v0.22l0.14,0.21l0.04,0.19l-0.09,0.18l-0.11,0.26l0,0.18l0.06,0.1l0.31,0.19l0.71,0.47l0.17,0.02l0.68,-0.11l0.32,-0.01l0.19,0.07l0.52,0.07l0.17,0.08l0.18,0l0.24,-0.02l0.16,-0.21l0.08,-0.05l0.07,-0.04l0.15,-0.01l0.41,0.13l0.44,0.28l0.29,0.26l0.14,0.23l0.18,0.51l0.22,0.78l0.26,0.52l0.31,0.27l0.22,0.5l0.19,1.08l0.12,0.22l0.12,0.11l0.35,0.31l0.72,0.52l0.42,0.3l0.66,0.48l0.6,0.44l0.6,0.68l0.12,0.1l0.53,0.37l0.59,0.38l0.41,-0.08l0.62,0.58l0.25,0.21l0.11,0.07l0.45,0.23l0.72,0.48l0.91,0.68l0.6,0.39l0.16,0.05l0.16,0l0.17,-0.08l0.19,-0.07l0.32,0.09l0.35,0.16l0.22,0.12l0.25,0.17l0.2,0.16l0.15,0.08l0.52,0.14l0.09,0.08l0.06,0.1l0.01,0.1l-0.29,0.52l-0.04,0.66l0,0.5L662.39,350.18zM624.75,345.02l-0.03,0.17l-0.15,-0.51l-0.08,-0.56l0.1,-0.16l0.11,0.01l-0.1,0.2L624.75,345.02z"/>
                    <path id="UZ" style="stroke-width:0.2;fill:lightgrey" data-name="Uzbekistan" class="land" d="M674.81,332.34l0.09,-0.07l0.16,-0.07l0.26,0.13l0.23,0.16l0.06,0.08l-0.01,0.09l-0.55,0.32l-0.34,0.15l-0.15,0.03l-0.04,0.04l-0.11,0.36l-0.21,0.07l-0.27,0.11l-0.19,0.17l-0.3,0.4l-0.77,0.58l-0.01,0.12l0.07,0.1l0.25,0.07l0.33,0.18l0.18,0.14l0.49,-0.18l0.12,0.04l0.13,0.18l0.13,0.51l0.22,0.14l0.29,0.11l0.18,0.03l0.24,0.13l0.32,0.05l0.21,-0.05l0.26,0.11l0.04,-0.05l0.04,-0.77l0.22,0.13l0.13,0l0.11,-0.09l0.06,-0.13l0.04,-0.25l-0.05,-0.25l0.1,-0.12l0.08,-0.03l0.06,0.03l0.03,0.06l0.01,0.23l0.16,0.1l0.1,0.06l0.09,0.19l0.09,0.19l0.06,0.43l0.22,0.03l0.26,0.08l0.18,-0.08l0.14,0.05l0.05,0.21l0,0.19l0.02,0.15l0.07,0.04l0.23,-0.1l0.19,-0.01l0.18,0.09l0.22,0.14l0.32,0.36l0.11,0.05l0.48,0.03l0.1,0.07l0.17,0l0.18,-0.07l0.4,0.12l0.01,0.07l-0.07,0.09l-0.95,0.5l-0.07,0.15l-0.19,0.2l-0.21,0.11l-0.1,0l-0.46,-0.2l-0.05,0.05l-0.04,0.08l0,0.09l0.1,0.21l-0.05,0.13l-0.09,0.09l-0.29,-0.08l-0.05,-0.05l-0.01,-0.06h-0.11l-0.17,0.06l-0.33,0.36l-0.12,0.19l-0.04,0.11l-0.15,0.06l-0.16,0.02l-0.2,0.17l-0.23,0.13l-0.07,-0.1l-0.04,-0.11l-0.06,-0.03l-0.14,0.03l-0.17,0l-0.18,-0.12l-0.23,-0.12l-0.2,-0.04l-0.59,0.06l-0.29,0.06l-0.09,0.06l-0.16,0.02l-0.69,0.12l-0.14,-0.05l-0.1,-0.19l-0.09,-0.21l-0.18,-0.08l-0.2,-0.06l-0.08,-0.08l0,-0.1l0.02,-0.1l0.02,-0.05l0.47,-0.4l0.42,-0.36l0.04,-0.03l0.04,-0.07l0.07,-0.13v-0.07l-0.31,-0.14l-0.01,-0.07l0.06,-0.07v-0.09l-0.22,-0.27l-0.38,-0.41l-0.11,-0.04l-0.08,0.03l-0.15,0.4l-0.08,0.1l-0.44,0.26l-0.37,0.18l-0.65,0.32l-0.17,0.1l-0.12,-0.02l-0.12,-0.06l-0.37,-0.32l-0.24,-0.11l-0.16,0.11l-0.13,0.16l0.01,0.33l-0.15,0.17l-0.15,0.08l0.28,0.88l-0.03,0.11l-0.21,0.03l0.15,0.33l-0.13,0.04l-0.33,-0.08l-0.45,-0.05l-0.84,0.15l-0.06,0.06l-0.02,0.07l0.05,0.07l0.41,0.01l0.4,-0.03l0.11,0.06l0.02,0.11l-0.05,0.07l-0.13,0.01l-0.29,0.06l-0.03,0.07l-0.01,0.07l0.1,0.19l0.11,0.12l0.01,0.07l-0.05,0.06l-0.06,0.02l-0.1,-0.09l-0.06,0.02l-0.03,0.08l-0.03,0.1l-0.06,0.07l-0.14,-0.04l-0.13,0.03l-0.08,0.35l-0.07,0.39l-0.22,0.26l-0.12,0.09l-0.18,0.03l-0.27,-0.03l-0.16,-0.04l-0.47,-0.06l-0.47,-0.11l-0.53,-0.1l-0.5,0.23l-0.14,0.14l-0.09,0.13l-0.09,0.06l-0.21,0.81l0.02,0.09l0.12,0.07l0.61,0.17l0.09,0.07l0.05,0.08l0.03,0.36l0.05,0.05l0.21,0.04l0.3,0l0.24,-0.04l0.24,0.03l0.17,0.08l0.08,0.12l0.04,0.13l-0.28,0.79l0.02,0.29l0.09,0.41l0.16,0.32l0.3,0.32l0.23,0.2l0.05,0.1l0.01,0.15l-0.04,0.19l-0.13,0.3l-0.16,0.26l-0.17,0.11l-0.24,0.33l-0.21,0.4l-0.41,0.53l-0.14,0.29l-0.05,0.85l-0.11,0.26l-0.02,-0.1l-0.15,-0.1l-0.26,0.02l-0.17,-0.05l-0.08,-0.11l-0.21,0.03l-0.34,0.17l-0.35,-0.09l-0.36,-0.35l-0.68,-0.13l-0.86,0.08l-0.03,-0.39l0,-0.5l0.04,-0.66l0.29,-0.52l-0.01,-0.1l-0.06,-0.1l-0.09,-0.08l-0.52,-0.14l-0.15,-0.08l-0.2,-0.16l-0.25,-0.17l-0.22,-0.12l-0.35,-0.16l-0.32,-0.09l-0.19,0.07l-0.17,0.08l-0.16,0l-0.16,-0.05l-0.6,-0.39l-0.91,-0.68l-0.72,-0.48l-0.45,-0.23l-0.11,-0.07l-0.25,-0.21l-0.62,-0.58l-0.41,0.08l-0.59,-0.38l-0.53,-0.37l-0.12,-0.1l-0.6,-0.68l-0.6,-0.44l-0.66,-0.48l-0.42,-0.3l-0.72,-0.52l-0.35,-0.31l-0.12,-0.11l-0.12,-0.22l-0.19,-1.08l-0.22,-0.5l-0.31,-0.27l-0.26,-0.52l-0.22,-0.78l-0.18,-0.51l-0.14,-0.23l-0.29,-0.26l-0.44,-0.28l-0.41,-0.13l-0.15,0.01l-0.07,0.04l-0.08,0.05l-0.16,0.21l-0.24,0.02l-0.18,0l-0.17,-0.08l-0.52,-0.07l-0.19,-0.07l-0.32,0.01l-0.68,0.11l-0.17,-0.02l-0.71,-0.47l-0.31,-0.19l-0.06,-0.1l0,-0.18l0.11,-0.26l0.09,-0.18l-0.04,-0.19l-0.14,-0.21v-0.22l0.09,-0.12l0.19,0.04l0.07,-0.08l-0.02,-0.12l-0.1,-0.08l-0.14,-0.19l-0.41,-0.18l-0.06,-0.07l0.02,-0.08l0.07,-0.09l0.01,-0.19l0.01,-0.24l0.05,-0.12l0.01,-0.1l-0.06,-0.08l-0.14,-0.09l-0.22,-0.22l-0.27,-0.02l-0.88,0.01l-0.27,-0.09l-0.22,-0.12l-0.22,-0.48l-0.11,-0.11l-0.1,-0.05l-0.25,-0.02l-0.29,-0.05l-0.15,-0.08l-0.41,-0.44l-0.4,-0.39l-0.16,0.37l-0.15,0.07l-0.35,-0.03l-0.26,-0.06l-0.15,0.08l-0.15,0.15l0.03,0.1l0.12,0.1l0.24,0.19l0.36,0.46l0.17,0.25l0.02,0.09l-0.03,0.07l-0.05,0.03l-0.07,0l-0.1,0l-0.06,-0.08l-0.02,-0.13l-0.12,-0.2l-0.13,-0.11l-0.14,-0.07l-0.19,-0.05l-0.25,-0.09l-0.13,0l-0.13,0.11l-0.11,0.15l-0.06,0.32l-0.19,0.39l-0.12,0.16l-0.36,0.09l-0.85,0.03l-0.25,0.12l-0.17,0.15l-0.32,0.48l-0.22,0.16l-0.2,0.22l0.06,0.7l0.09,0.82l0.16,0.23l0.1,0.07l0.01,0.08l-0.07,0.07l-0.09,0.09l-0.13,0.16l-0.15,-0.01l-0.29,-0.04l-0.25,-0.04l-0.82,-0.05l-0.67,-0.04l-0.74,-0.04l0,-0.86v-0.86v-0.86l0,-0.87v-0.87v-0.87l0,-0.88v-0.88V328v-0.89l0,-0.89v-0.89v-0.9l0,-0.9v-0.9v-0.91l0.35,-0.11l0.44,-0.14l0.42,-0.14l0.5,-0.16l0.57,-0.18l0.49,-0.16l0.58,-0.19l0.44,-0.14l0.42,-0.13l0.53,-0.16l0.83,-0.25l0.46,-0.14l0.47,-0.14l0.44,-0.13l0.3,-0.05l0.32,0.19l0.39,0.26l0.39,0.26l0.39,0.26l0.39,0.26l0.39,0.26l0.39,0.26l0.39,0.26l0.39,0.26l0.39,0.26l0.39,0.26l0.39,0.26l0.39,0.26l0.39,0.26l0.39,0.26l0.39,0.26l0.39,0.26l0.36,0.24l0.16,0.18l0.09,0.39l0.18,0.31l0.31,0.34l0.32,0.34l0.4,0.45l0.27,0.31l0.28,0.32l0.46,0.53l0.29,0.33l0.23,0.01l0.46,-0.08l0.62,-0.1l0.49,-0.08l0.59,-0.1l0.57,-0.09l0.45,-0.08l0.67,0.06l0.66,0.06l0.47,0.04l0.46,0.04l0.55,0.05l0.31,0.03l0.35,0.03l0.15,-0.08l0.3,-0.16l0.29,-0.15l0.3,-0.16l0.26,-0.08l0.27,0.25l0.23,0.29l0.24,0.31l0.28,0.3l0.27,0.17l0.36,0.24l0.21,0.4l0.28,0.54l0.18,0.35l0.19,0.36l0.28,-0.14l0.29,-0.15l0.27,-0.14l-0.03,0.45l-0.03,0.41l-0.04,0.61l-0.04,0.5l-0.1,0.6l-0.01,0.45l-0.01,0.4l0,0.32l0.51,0.01l0.38,0.01l0.48,0.01l0.05,0.4l0.06,0.56l0.1,0.5l0.08,0.42l0.12,0.54l0.07,0.29l0.11,0.34l0.11,0.08l0.18,0.05l0.63,-0.04l0.52,-0.03l0.41,-0.03l0.44,-0.03l0.58,-0.04l0.2,0.09l0.17,-0.06l0.2,-0.06l0.16,0.25l0.08,0.13l0.11,0.13l0.15,0.12l-0.06,0.25l-0.09,0.37l-0.03,0.19l0.18,0.2l0.13,0.12l0.37,0.24l0.35,0.14l0.23,0.04l0.22,-0.05l0.08,-0.14l-0.02,-0.19l-0.1,-0.2l0.01,-0.24l0.07,-0.17l0.22,-0.32l0.21,-0.3l0.32,-0.3l0.38,-0.3l0.16,-0.22l0.06,-0.38l0.25,-0.22l0.27,-0.13l0.33,-0.11l0.09,-0.19l0.46,-0.33l0.28,-0.16l0.35,-0.09l0.48,-0.21l0.38,-0.25l0.37,-0.47l0.29,-0.31l0.24,-0.19l0.21,-0.01l0.14,0.15l0.12,0.01l0.08,-0.07l0.14,-0.2l0.15,-0.23l0.14,-0.1l0.27,-0.05L674.81,332.34zM673.99,337.25l-0.01,-0.09l-0.09,-0.15l-0.13,-0.09l-0.06,0.04l0.05,0.12l0.15,0.18L673.99,337.25zM675.54,341.08l-0.14,0.03l-0.26,-0.01l-0.15,-0.04l0.09,-0.3l0,-0.06l-0.01,-0.01l-0.07,-0.04l-0.11,-0.12l-0.04,-0.18l0.04,-0.17l0.08,-0.07l0.05,0.01l0.16,0.25l0.14,0.07l0.28,0.04l-0.14,0.25l0.1,0.27L675.54,341.08zM677.15,340.87l-0.08,0.16l-0.13,-0.04l-0.1,-0.1l0.03,-0.08l0.16,-0.04l0.08,-0.04l0.07,-0.01L677.15,340.87z"/>

                </svg>
