<svg
                        xmlns:dc="http://purl.org/dc/elements/1.1/"
                        xmlns:cc="http://creativecommons.org/ns#"
                        xmlns:rdf="http://www.w3.org/1999/02/22-rdf-syntax-ns#"
                        xmlns:svg="http://www.w3.org/2000/svg"
                        xmlns="http://www.w3.org/2000/svg"
                        xmlns:sodipodi="http://sodipodi.sourceforge.net/DTD/sodipodi-0.dtd"
                        xmlns:inkscape="http://www.inkscape.org/namespaces/inkscape"
                        enable_background="new 0 0 1200 589"
                        height="1000"
                        width="2000"
                        viewBox="460 395 124 124"
                        id="us-map"
                        preserveAspectRatio="xMidYMid meet"
                        inkscape:version="0.48.4 r9939"
                        sodipodi:docname="us.svg">
                    <sodipodi:namedview
                            pagecolor="#ffffff"
                            bordercolor="#666666"
                            borderopacity="1"
                            objecttolerance="10"
                            gridtolerance="10"
                            guidetolerance="10"
                            inkscape:pageopacity="0"
                            inkscape:pageshadow="2"
                            inkscape:window-width="1920"
                            inkscape:window-height="1137"
                            id="namedview69"
                            showgrid="false"
                            inkscape:zoom="0.80893016"
                            inkscape:cx="817.66365"
                            inkscape:cy="409.3738"
                            inkscape:window-x="1192"
                            inkscape:window-y="118"
                            inkscape:window-maximized="1"
                            inkscape:current-layer="svg2"/>
                    <defs
                            id="defs4">
                        <style
                                type="text/css"
                                id="style6">path {
                            fill-rule: evenodd;
                        }</style>
                    </defs>
                    <metadata
                            id="metadata8">
                        <views
                                id="views10">
                            <view
                                    h="589.235294118"
                                    padding="0"
                                    w="1000"
                                    id="view12">
                                <proj
                                        id="laea-usa"
                                        lat0="45"
                                        lon0="-100"/>
                                <bbox
                                        h="321.97"
                                        w="589.33"
                                        x="690.09"
                                        y="918.69"
                                        id="bbox15"/>
                            </view>
                        </views>
                        <rdf:RDF>
                            <cc:Work
                                    rdf:about="">
                                <dc:format>image/svg+xml</dc:format>
                                <dc:type
                                        rdf:resource="http://purl.org/dc/dcmitype/StillImage"/>
                                <dc:title/>
                            </cc:Work>
                        </rdf:RDF>
                    </metadata>
                <path id="AO" style="stroke-width:0.2;fill:lightgrey" data-name="Angola" class="land" d="M512.388,475.605l-0.043,0.045l-0.308,0.124l-0.331,0.116l-0.435,0.472l-0.22,0.204l-0.064,0.051l-0.199,0.113l-0.144,0.097l0.005,0.053l0.096,0.062l0.098,0.102l-0.01,0.771l-0.042,0.76l-0.054,0.064l-0.276,0.025l-0.367,0.053l-0.117,0.034l-0.041,-0.075l-0.123,-0.278l0.069,-0.264l0.074,-0.197l-0.083,-0.401l-0.187,-0.357l-0.198,-0.453l-0.061,-0.087l0.167,-0.146l0.251,-0.32l0.105,-0.166l0.291,-0.037l0.108,-0.116l0.077,-0.186l0.03,-0.108l0.328,-0.088l0.394,-0.157l0.218,-0.172l0.221,-0.11l0.14,-0.004l0.092,0.045l0.253,0.298l0.215,0.188L512.388,475.605zM542.961,493.164l0.062,0.372l0.061,0.517l0.043,0.372l0.044,0.167l0.015,0.089l-0.049,0.096L543.097,495l-0.079,0.198l-0.044,0.138l0.037,0.254l-0.03,0.364l-0.031,0.385l-0.01,0.371l0.105,0.664l-0.015,0.204l-0.131,0.348l-0.099,0.264l-0.064,0.306l-0.012,0.16l0.24,0.452l-0.014,0.09l-0.184,0.028l-0.152,0.008h-0.582h-0.834h-0.834h-0.834h-0.767h-0.734h-0.647l0,0.446v0.92l0,0.921l0,0.922v0.924l0,0.925v0.926l0,0.927l0,0.929v0.671l0.169,0.892l0.31,0.972l0.121,0.09l0.312,0.179l0.433,0.366l0.243,0.277l0.494,0.481l0.657,0.614l0.633,0.551l0.559,0.486l-0.877,0.171l-1.247,0.242l-0.841,0.164l-1.021,0.199l-0.68,0.125l-0.847,0.155l-0.135,-0.003l-0.227,-0.107l-0.49,-0.021l-0.576,0.148l-0.457,0.04l-0.338,-0.068l-0.33,-0.129l-0.322,-0.191l-0.557,-0.07l-0.793,0.052l-0.764,-0.037l-0.736,-0.126l-0.526,-0.05l-0.317,0.027l-0.34,-0.041l-0.363,-0.109l-0.303,-0.185l-0.364,-0.39l-0.285,-0.372l-0.074,-0.053l-0.09,-0.057l-0.089,-0.017l-0.808,-0.01l-0.767,-0.009l-0.439,-0.001l-1.074,-0.001l-1.074,-0.001l-1.074,-0.002l-1.074,-0.001l-1.074,-0.002l-1.074,-0.001l-1.074,-0.002l-1.074,-0.001l-0.57,-0.001l-0.53,0.03l-0.585,0.032l-0.084,-0.014l-0.139,-0.045l-0.095,-0.082l-0.315,-0.211l-0.274,-0.16l-0.373,-0.27l-0.241,-0.295l-0.203,-0.094l-0.359,-0.053l-0.27,-0.052l-0.22,-0.012l-0.387,0.139l-0.292,0.138l-0.208,0.133l-0.361,0.152l-0.304,0.152l-0.53,-0.02l-0.115,0.022l-0.295,-0.01l-0.278,-0.133l-0.282,0.012l-0.313,0.169l-0.448,0.066l0.104,-1.103l0.109,-0.487l0.003,-0.582l-0.064,-1.504l-0.077,-0.207l-0.052,-0.242l0.277,-0.184l0.141,-0.141l0.191,-0.249l0.136,-0.349l0.16,-0.768l0.582,-1.763l0.276,-1.723l0.35,-0.814l0.131,-0.912l0.974,-1.175l0.24,-0.721l0.504,-0.353l0.713,-0.376l0.508,-0.669l0.246,-0.463l0.28,-0.887l-0.003,-0.925l0.178,-1.233l-0.039,-0.354l-0.266,-0.49l-0.049,-0.35l-0.247,-0.344l-0.264,-0.26l-0.124,-0.464l-0.458,-0.731l-0.125,-0.487l-0.219,-0.35l-0.035,-0.431l-0.115,-0.456l-0.224,-0.45L512.18,488v-0.161l0.136,-0.194l0.129,-0.063l-0.043,0.098l-0.086,0.115l0.021,0.089l0.856,-0.902l0.054,-0.176l-0.029,-0.197l-0.004,-0.241l0.034,-0.28l-0.808,-1.661l-0.641,-1.542l-0.109,-0.779l-0.848,-1.023l-0.334,-0.665l-0.19,-0.466l-0.143,-0.176l0.054,-0.089l0.218,-0.023l0.486,-0.108l0.666,-0.118l0.615,-0.27l0.164,-0.12l0.326,-0.024l0.332,0.072l0.123,-0.052l0.07,-0.004l0.779,0l0.324,-0.018l0.601,0.005l0.379,0.022l0.216,0.03l0.583,0.047l0.728,-0.011l0.257,-0.024l0.954,-0.016l0.942,-0.016l0.847,-0.014l0.936,0.003l0.716,0.002l0.326,0.097l0.296,0.184l0.135,0.167l0.064,0.074l0.088,0.176l0.162,0.14l0.058,0.216l-0.047,0.293l0.023,0.353l0.094,0.412l0.197,0.432l0.298,0.454l0.13,0.36l-0.039,0.267l0.092,0.282l0.222,0.297l0.162,0.157l0.094,0.119l0.252,0.456l0.467,0.728l0.35,0.546l0.123,0.065l0.179,-0.023l0.38,-0.054l0.376,-0.011l0.269,0.112l0.108,-0.019l0.405,-0.217l0.402,-0.066l0.42,-0.09l0.219,-0.092l0.255,0l0.687,0.175l0.13,0.009h0.556l0.556,-0.098l0.082,-0.732l0.005,-0.145l0.134,-0.275l0.17,-0.24l0.021,-0.229l-0.01,-0.313l0.123,-0.379l0.373,-0.302l0.603,-0.143l0.343,-0.028l0.541,-0.084l0.82,-0.085l0.303,0.011l0.024,0.043l-0.174,0.524l-0.003,0.171l0.063,0.173l0.139,0.094l0.851,0.01l0.784,0.01l0.899,0.033l0.674,0.024l0.086,0.026l0.068,0.039l0.1,0.26l-0.022,0.508l-0.15,0.742l0.058,0.694l0.267,0.646l0.027,0.993l-0.094,0.593l-0.119,0.748l-0.046,0.849l0.122,0.355l0.258,0.371l0.394,0.389l0.305,0.503l0.216,0.619l0.078,0.39l-0.058,0.161l0.004,0.278l0.067,0.396l-0.075,0.263l-0.216,0.129l-0.072,0.178l0.109,0.342l0.027,0.311l0.085,0.119l0.062,0.086l0.102,0.013l0.219,-0.111l0.262,-0.207l0.21,-0.087l0.296,0.011l0.416,0.059l0.734,0.021l0.226,-0.037l0.683,-0.279l0.179,-0.021l0.27,0.026l0.383,0.083l0.386,0.017l0.188,-0.086l0.017,-0.113l0.06,-0.147L542.961,493.164z"/>
                <path id="CD" style="stroke-width:0.2;fill:lightgrey" data-name="Democratic Republic of Congo" class="land" d="M552.606,448.408L552.708,448.604L552.853,448.805L553.339,449.145L553.493,449.334L553.612,449.544L553.687,449.708L553.837,449.839L554.047,449.923L554.227,450.023L554.337,450.17L554.502,450.323L554.82,450.531L554.975,450.536L555.154,450.565L555.312,450.62L555.481,450.604L555.754,450.468L556.076,450.24L556.322,450.099L556.917,450.149L557.249,450.264L557.513,450.425L557.719,450.415L558.168,450.117L558.406,449.8L558.637,449.732L558.987,449.87L559.276,450.166L559.53,450.596L559.709,450.76L559.954,451.014L560.441,451.561L561.075,451.835L561.321,451.97L561.401,452.105L561.448,452.285L561.464,452.48L561.541,452.561L561.712,452.533L561.858,452.505L562.019,452.561L562.131,452.703L562.187,452.814L562.248,452.933L562.407,453.009L562.438,453.162L562.329,453.348L562.217,453.515L562.081,453.847L562.01,454.187L562.102,454.3L562.199,454.394L562.251,454.489L562.282,454.6L562.27,454.73L562.054,455.202L561.943,455.614L561.939,455.823L562.224,455.977L562.594,455.969L562.711,456.063L562.828,456.213L562.931,456.29L563.087,456.288L563.195,456.34L563.238,456.446L563.364,456.56L563.47,456.686L563.419,456.847L563.41,456.97L563.146,457.312L562.54,457.979L561.236,459.216L561.235,459.217L560.795,459.366L560.568,459.596L560.407,459.957L560.027,460.263L559.734,460.387L559.703,460.46L559.68,460.792L559.71,461.279L559.573,461.502L559.374,461.936L559.271,462.207L559.191,462.26L559.102,462.396L559.046,462.838L559.008,462.987L558.865,463.902L558.906,464.163L558.795,464.598L558.79,464.854L558.744,465.144L558.665,465.395L558.67,465.797L558.715,466.453L558.707,466.54L558.597,466.601L558.401,466.764L558.216,466.873L558.075,466.901L557.84,467.191L557.64,467.466L557.49,467.734L557.451,467.857L557.482,468.204L557.503,468.615L557.457,468.792L557.387,468.897L557.059,469.12L556.843,469.28L556.741,469.364L556.688,469.493L556.783,469.797L556.79,470.019L556.868,470.15L557.128,470.256L557.127,470.363L557.134,470.478L557.27,470.621L557.518,470.913L557.717,471.187L557.722,471.425L557.684,471.823L557.677,472.052L557.697,472.366L557.696,472.95L557.682,473.366L557.714,473.582L558.018,474.097L558.152,474.668L558.219,475.086L558.222,475.219L558.119,475.7L558.002,476.167L557.995,476.344L558.05,476.58L558.267,477.12L558.425,477.513L558.501,477.75L558.61,478.026L558.755,478.449L558.791,478.65L558.761,478.8L558.465,479.331L558.435,479.498L558.508,479.91L558.605,480.308L558.745,480.534L559.079,481.158L559.328,481.369L559.787,481.681L560.192,481.995L560.348,482.158L560.491,482.34L560.773,482.806L560.945,483.185L561.036,483.528L561.257,483.997L561.463,484.432L561.729,484.964L561.917,485.34L562.002,485.591L561.516,485.666L560.813,485.773L560.038,485.892L559.238,486.014L558.445,486.136L557.693,486.251L557.01,486.355L556.802,486.413L556.904,486.709L556.857,487.02L556.722,487.261L556.508,487.557L556.411,487.675L556.193,487.906L556.011,488.069L555.64,488.343L555.406,488.5L555.404,488.642L555.798,489.306L555.977,489.783L556.05,490.214L556.046,490.462L556.031,490.972L556.013,491.579L555.986,491.818L556.093,492.251L556.074,492.589L555.809,492.967L555.735,493.338L555.601,493.839L555.416,494.535L555.284,494.901L555.357,495.139L555.423,495.299L555.493,495.514L555.635,495.838L555.801,496.029L555.894,496.111L556.44,496.52L556.667,496.717L557.013,497.109L557.269,497.369L557.625,497.43L558.052,497.528L558.288,497.604L558.45,497.567L558.505,497.475L558.497,497.279L558.469,497.135L558.514,497.024L558.659,496.951L559.03,496.939L559.191,496.841L559.319,496.817L559.32,497.247L559.32,497.659L559.321,498.16L559.321,498.735L559.322,499.207L559.322,499.709L559.323,500.289L559.32,500.354L559.263,500.485L559.116,500.53L558.917,500.417L558.905,500.298L558.856,500.085L558.764,499.976L558.643,499.942L558.439,499.997L558.159,500.154L557.8,500.292L557.654,500.371L557.401,500.361L557.127,500.286L556.926,500.109L556.868,499.844L556.691,499.572L556.451,499.178L556.33,499.017L556.17,498.833L556.008,498.812L555.827,498.761L555.716,498.492L555.612,498.152L555.548,498.021L555.44,497.852L555.285,497.749L554.947,497.613L554.475,497.424L553.881,497.186L553.599,497.174L553.283,497.134L553.085,497.021L552.972,496.931L552.842,496.601L552.664,496.215L552.143,495.756L552.026,495.248L551.921,495.175L551.742,495.216L551.604,495.279L551.549,495.416L551.41,495.874L551.333,496.085L551.281,496.144L551.167,496.212L550.981,496.274L550.716,496.305L550.342,496.293L549.874,496.225L549.622,496.174L548.939,496.098L548.741,496.061L548.462,495.961L548.261,495.861L547.599,495.645L547.298,495.671L547.153,495.518L547.022,495.443L546.842,495.299L546.762,495.102L546.655,494.679L546.681,494.453L546.758,494.201L546.672,494.131L546.552,494.131L546.38,494.218L546.075,494.267L545.516,494.378L545.318,494.44L545.099,494.488L544.931,494.531L544.511,494.774L544.365,494.8L544.116,494.713L543.996,494.583L544.116,494.436L544.167,494.253L544.082,493.896L543.953,493.731L543.581,493.613L543.438,493.602L543.378,493.402L543.275,493.22L543.063,493.185L542.961,493.164L542.855,493.22L542.795,493.367L542.778,493.48L542.589,493.566L542.203,493.549L541.82,493.467L541.551,493.44L541.372,493.461L540.688,493.74L540.463,493.777L539.729,493.756L539.313,493.697L539.017,493.687L538.807,493.774L538.545,493.981L538.326,494.092L538.225,494.08L538.163,493.993L538.077,493.875L538.05,493.563L537.941,493.222L538.013,493.043L538.229,492.915L538.304,492.651L538.237,492.255L538.233,491.977L538.291,491.816L538.213,491.426L537.997,490.807L537.692,490.304L537.298,489.915L537.04,489.544L536.918,489.189L536.964,488.34L537.083,487.593L537.177,487L537.15,486.007L536.883,485.361L536.825,484.667L536.976,483.925L536.998,483.417L536.898,483.157L536.83,483.118L536.744,483.092L536.069,483.067L535.17,483.034L534.386,483.024L533.535,483.014L533.396,482.92L533.333,482.747L533.336,482.576L533.51,482.052L533.485,482.009L533.183,481.998L532.363,482.083L531.822,482.167L531.479,482.195L530.876,482.338L530.503,482.64L530.381,483.019L530.391,483.332L530.37,483.561L530.2,483.8L530.066,484.075L530.061,484.22L529.979,484.952L529.423,485.05L528.867,485.05L528.737,485.041L528.05,484.866L527.795,484.865L527.577,484.957L527.156,485.047L526.754,485.113L526.349,485.33L526.241,485.349L525.972,485.236L525.596,485.247L525.215,485.301L525.037,485.325L524.914,485.259L524.564,484.713L524.098,483.986L523.845,483.53L523.751,483.411L523.589,483.254L523.367,482.957L523.275,482.675L523.314,482.408L523.184,482.048L522.885,481.595L522.688,481.163L522.594,480.75L522.571,480.398L522.618,480.104L522.561,479.888L522.398,479.749L522.31,479.572L522.246,479.499L522.111,479.332L521.814,479.148L521.488,479.051L520.772,479.049L519.837,479.046L518.99,479.06L518.048,479.076L517.094,479.092L516.837,479.116L516.109,479.127L515.526,479.08L515.31,479.05L514.93,479.027L514.33,479.022L514.005,479.04L513.227,479.041L513.156,479.045L513.033,479.097L512.701,479.025L512.375,479.049L512.193,478.969L511.793,479.019L511.599,479.085L511.288,479.318L510.821,479.439L510.648,479.429L510.533,479.39L510.262,479.134L510.052,478.888L509.977,478.751L510.094,478.717L510.461,478.665L510.737,478.64L510.791,478.575L510.833,477.815L510.843,477.044L510.745,476.942L510.649,476.88L510.645,476.827L510.788,476.73L510.987,476.617L511.051,476.566L511.271,476.362L511.706,475.89L512.037,475.774L512.345,475.65L512.388,475.605L512.429,475.513L512.567,475.52L512.611,475.564L512.679,475.664L512.8,475.804L513.019,475.97L513.239,476.149L513.349,476.172L513.526,476.081L513.732,475.946L514.035,475.848L514.107,475.756L514.146,475.559L514.17,475.349L514.196,475.101L514.258,475.067L514.367,475.043L514.568,475.113L514.66,475.186L514.825,475.186L514.93,475.12L515.122,474.998L515.366,474.949L515.627,474.831L515.878,474.681L515.996,474.667L516.121,474.864L516.233,475.001L516.253,475.087L516.141,475.251L516.016,475.467L516.121,475.736L516.146,475.997L516.143,476.155L516.228,476.219L516.286,476.249L516.376,476.212L516.555,476.223L516.77,476.305L516.977,476.296L517.177,476.195L517.55,475.803L518.095,475.119L518.547,474.69L518.904,474.515L519.146,474.311L519.273,474.076L519.481,473.917L519.915,473.79L520.245,473.646L520.575,473.177L521.015,472.333L521.138,471.58L521.213,471.122L521.17,469.543L521.141,469.025L521.208,468.743L521.372,468.549L521.82,468.138L522.121,467.801L522.351,467.407L522.792,466.508L522.986,466.218L523.073,466.088L523.339,465.849L523.712,465.638L524.192,465.457L524.933,464.831L525.522,464.201L525.442,463.444L525.58,462.816L525.901,462.018L526.006,461.173L525.896,460.282L525.942,459.553L526.25,458.706L526.378,458.391L526.421,457.876L526.419,457.057L526.81,455.937L527.18,455.265L527.594,454.515L527.752,454.061L527.962,453.455L527.929,452.968L527.891,452.408L527.995,451.638L527.956,451.185L527.809,450.791L527.884,450.542L528.181,450.441L528.551,450.047L529.215,449.018L529.931,448.516L530.429,448.357L530.948,448.374L531.287,448.464L531.443,448.626L531.836,448.869L532.464,449.19L532.934,449.592L533.194,449.997L533.396,450.217L533.646,450.293L534.055,450.26L534.512,450.355L534.988,450.582L535.281,450.666L535.389,450.607L535.619,450.64L536.145,450.826L536.564,450.724L537.185,450.801L538.627,451.133L538.704,451.077L538.738,451.064L538.861,450.93L539.174,450.265L539.439,449.856L539.563,449.702L539.869,449.486L540.229,449.431L540.574,449.45L540.863,449.545L541.127,449.655L541.419,449.656L541.718,449.55L542.162,449.355L542.63,449.228L543.032,449.088L543.694,448.843L543.953,448.73L544.282,448.686L545.204,448.91L545.801,448.762L546.045,448.805L546.562,448.646L546.656,448.539L546.985,447.998L547.335,447.84L547.865,447.92L548.163,448.004L549.155,448.235L550.443,448.476L550.822,448.513L550.976,448.54L551.11,448.502L551.533,448.198L551.676,448.155L551.797,448.16z"/>
                <path id="CF" style="stroke-width:0.2;fill:lightgrey" data-name="Central African Republic" class="land" d="M539.856,432.041L540.054,432.394L540.149,432.518L540.967,433.352L541.125,433.55L541.53,434.155L541.778,434.563L542.063,435.15L542.09,435.469L542.053,435.741L541.996,436.514L541.922,436.736L541.563,437.152L541.547,437.339L541.622,437.495L541.73,437.559L541.798,437.636L541.757,437.996L541.886,438.137L542.155,438.231L542.836,438.295L543.19,438.347L543.469,438.419L543.602,438.454L543.675,438.581L543.561,438.996L543.64,439.255L543.873,439.474L544.109,439.567L544.335,439.621L545.123,439.756L545.45,439.908L545.882,440.394L546.424,440.836L546.556,441.07L546.532,441.283L546.371,441.541L546.396,441.647L546.645,441.906L546.93,442.17L547.452,442.464L548.356,442.925L548.771,443.233L548.912,443.466L549.144,443.72L549.467,443.952L549.684,444.131L549.534,444.636L549.579,444.802L549.66,444.946L549.849,445.145L549.924,445.4L550.111,445.719L550.334,445.864L550.707,445.918L550.903,446.066L551.313,446.32L551.709,446.539L551.878,446.689L551.983,446.823L552.073,446.981L552.118,447.139L552.127,447.48L552.195,447.903L552.408,448.192L552.606,448.408L551.797,448.16L551.676,448.155L551.533,448.198L551.11,448.502L550.976,448.54L550.822,448.513L550.443,448.476L549.155,448.235L548.163,448.004L547.865,447.92L547.335,447.84L546.985,447.998L546.656,448.539L546.562,448.646L546.045,448.805L545.801,448.762L545.204,448.91L544.282,448.686L543.953,448.73L543.694,448.843L543.032,449.088L542.63,449.228L542.162,449.355L541.718,449.55L541.419,449.656L541.127,449.655L540.863,449.545L540.574,449.45L540.229,449.431L539.869,449.486L539.563,449.702L539.439,449.856L539.174,450.265L538.861,450.93L538.738,451.064L538.704,451.077L538.627,451.133L537.185,450.801L536.564,450.724L536.145,450.826L535.619,450.64L535.389,450.607L535.281,450.666L534.988,450.582L534.512,450.355L534.055,450.26L533.646,450.293L533.396,450.217L533.194,449.997L532.934,449.592L532.464,449.19L531.836,448.869L531.443,448.626L531.287,448.464L530.948,448.374L530.429,448.357L529.931,448.516L529.215,449.018L528.551,450.047L528.181,450.441L527.884,450.542L527.809,450.791L527.956,451.185L527.995,451.638L527.891,452.408L527.929,452.968L527.771,452.879L527.619,452.617L527.548,452.564L527.109,452.682L526.882,452.788L526.761,452.892L526.668,452.908L526.529,452.765L526.419,452.739L526.247,452.765L526.07,452.763L525.956,452.744L525.88,452.757L525.673,452.672L524.919,452.456L524.79,452.384L524.639,452.392L524.248,452.58L524.041,452.632L523.417,452.749L522.749,452.806L522.493,452.809L522.317,452.893L522.204,453.01L522.127,453.271L521.996,453.721L521.941,453.842L521.951,454.021L521.912,454.322L521.893,454.592L521.918,454.773L521.729,455.138L521.5,455.58L521.31,455.959L521.118,456.34L520.985,456.079L520.903,455.773L520.871,455.422L520.889,455.329L520.838,455.225L520.834,455.202L520.77,454.937L520.835,454.752L520.782,454.559L520.626,454.369L520.485,454.223L520.403,454.092L520.336,454.036L520.181,454.016L519.972,453.948L519.695,453.662L519.427,453.384L519.083,453.028L518.808,452.72L518.47,452.343L518.158,451.994L517.971,451.658L517.895,451.465L517.986,451.446L518.121,451.442L518.178,451.407L518.181,451.317L518.042,451.052L517.976,450.714L517.861,450.508L517.498,450.191L517.152,449.95L517.042,449.826L516.98,449.649L516.847,448.531L516.788,448.213L516.679,448.074L516.6,448.009L516.57,447.93L516.584,447.731L516.63,447.553L516.628,447.483L516.722,447.327L516.722,446.291L516.671,446.238L516.61,446.148L516.513,446.155L516.402,446.146L516.292,445.995L516.2,445.805L516.227,445.67L516.323,445.558L516.428,445.459L516.561,445.377L516.954,445.211L517.065,445.128L517.135,445.026L517.181,444.888L517.409,444.354L517.749,443.822L517.894,443.712L518.039,443.36L518.238,442.929L518.318,442.728L518.377,442.528L518.487,442.367L518.861,442.101L519.144,441.635L519.451,441.66L519.765,441.734L520.168,441.771L520.484,441.681L520.689,441.499L521.14,441.354L521.667,441.186L521.738,440.936L521.893,440.805L522.072,440.689L522.134,440.674L522.147,440.757L522.256,441.018L522.479,441.275L522.806,441.559L522.899,441.541L523.102,441.326L523.612,441.193L523.741,441.134L524.103,440.821L524.539,440.62L524.635,440.602L524.792,440.549L525.232,440.341L525.545,440.369L526.048,440.336L526.887,440.238L527.493,440.205L527.8,440.166L527.876,440.124L527.995,439.823L528.086,439.738L528.314,439.608L528.76,439.154L529.053,438.77L529.135,438.642L529.142,438.632L529.202,438.608L529.328,438.446L529.203,438.279L528.703,437.938L528.71,437.892L528.682,437.834L528.709,437.787L528.9,437.648L529.157,437.49L529.431,437.431L530.146,437.443L530.756,437.409L530.898,437.417L531.374,437.336L531.699,437.264L532.033,437.1L532.79,437.117L533.42,436.699L533.602,436.625L533.681,436.56L533.705,436.496L534,436.33L534.33,435.987L534.591,435.678L534.662,435.46L535.376,434.721L535.625,434.736L535.747,434.645L536.03,434.151L536.118,434.061L536.251,434.03L536.412,433.974L536.552,433.828L536.673,433.61L536.674,433.341L536.619,433.125L536.619,433.02L536.687,432.924L536.801,432.827L537.343,432.561L537.481,432.432L537.563,432.316L537.715,432.295L537.881,432.307L537.986,432.235L538.104,432.114L538.48,431.951L538.828,431.824L539.194,431.877L539.492,431.943L539.736,432.02z"/>
                <path id="CG" style="stroke-width:0.2;fill:lightgrey" data-name="Republic of Congo" class="land" d="M527.929,452.968L527.962,453.455L527.752,454.061L527.594,454.515L527.18,455.265L526.81,455.937L526.419,457.057L526.421,457.876L526.378,458.391L526.25,458.706L525.942,459.553L525.896,460.282L526.006,461.173L525.901,462.018L525.58,462.816L525.442,463.444L525.522,464.201L524.933,464.831L524.192,465.457L523.712,465.638L523.339,465.849L523.073,466.088L522.986,466.218L522.792,466.508L522.351,467.407L522.121,467.801L521.82,468.138L521.372,468.549L521.208,468.743L521.141,469.025L521.17,469.543L521.213,471.122L521.138,471.58L521.015,472.333L520.575,473.177L520.245,473.646L519.915,473.79L519.481,473.917L519.273,474.076L519.146,474.311L518.904,474.515L518.547,474.69L518.095,475.119L517.55,475.803L517.177,476.195L516.977,476.296L516.77,476.305L516.555,476.223L516.376,476.212L516.286,476.249L516.228,476.219L516.143,476.155L516.146,475.997L516.121,475.736L516.016,475.467L516.141,475.251L516.253,475.087L516.233,475.001L516.121,474.864L515.996,474.667L515.878,474.681L515.627,474.831L515.366,474.949L515.122,474.998L514.93,475.12L514.825,475.186L514.66,475.186L514.568,475.113L514.367,475.043L514.258,475.067L514.196,475.101L514.17,475.349L514.146,475.559L514.107,475.756L514.035,475.848L513.732,475.946L513.526,476.081L513.349,476.172L513.239,476.149L513.019,475.97L512.8,475.804L512.679,475.664L512.611,475.564L512.567,475.52L512.429,475.513L512.388,475.605L512.319,475.562L512.104,475.373L511.85,475.075L511.758,475.029L511.618,475.034L511.396,475.144L511.178,475.315L510.785,475.473L510.457,475.561L510.427,475.669L510.35,475.855L510.242,475.971L509.951,476.007L509.846,476.173L509.595,476.493L509.429,476.639L509.385,476.577L509.284,476.499L509.078,476.251L508.874,475.942L508.82,475.802L508.762,475.722L508.753,475.412L508.446,475.044L507.676,474.39L507.594,474.195L506.936,473.597L507.104,473.166L507.229,472.966L507.38,472.828L507.986,472.49L508.078,472.503L508.496,472.942L508.629,472.977L508.778,472.965L508.954,472.983L509.041,472.897L509.054,472.784L508.927,472.657L508.908,472.521L508.998,472.374L509.048,472.21L509.179,472.018L509.193,471.927L509.055,471.828L508.772,471.677L508.579,471.531L508.505,471.392L508.558,471.214L508.713,471.069L508.704,470.99L508.567,470.86L508.467,470.721L508.365,470.634L508.08,470.582L508.135,470.395L508.239,470.119L508.265,469.908L508.186,469.354L508.192,469.254L508.27,469.203L508.439,469.264L508.61,469.348L509.076,469.228L509.238,469.209L509.373,469.315L509.558,469.398L510.63,469.167L510.651,468.932L510.712,468.719L510.72,468.56L510.676,468.457L510.623,468.38L510.591,468.22L510.59,468.049L510.693,467.968L511.035,467.764L511.141,467.771L511.38,467.883L511.604,468.057L511.804,468.423L511.941,468.739L512.162,469.121L512.629,469.277L513.187,469.376L513.489,469.35L513.92,469.024L514.164,468.77L514.243,468.633L514.385,468.704L514.546,469.038L514.649,469.168L514.675,469.292L514.603,469.446L514.673,469.545L514.973,469.616L515.236,469.549L515.354,469.413L515.551,469.235L515.553,469.085L515.447,468.988L515.447,468.854L515.557,468.749L515.663,468.461L515.696,468.251L515.8,468.117L515.997,468.024L516.068,467.94L516.178,467.442L516.121,467.262L516.121,467.113L516.246,466.922L516.269,466.61L516.216,466.099L516.181,465.748L516.143,465.38L516.239,464.897L516.339,464.394L516.321,464.269L516.182,464.116L516.011,463.977L515.571,463.862L515.407,463.679L515.279,463.485L515.186,463.423L514.704,463.347L514.598,463.237L514.641,462.923L514.684,462.46L514.667,462.139L514.752,461.879L514.849,461.684L515.062,461.478L515.174,461.235L515.236,461.175L515.639,461.134L515.785,461.033L515.9,460.93L515.949,460.792L516.087,460.563L516.209,460.408L516.223,460.303L516.197,460.157L516.075,459.87L515.929,459.631L515.841,459.545L515.663,458.983L515.498,458.851L515.176,458.779L514.573,458.715L514.208,458.816L513.653,459.005L513.229,459.136L512.953,459.21L512.791,459.19L512.717,459.104L512.825,459.031L512.878,458.86L512.809,458.615L512.702,458.391L512.641,458.075L512.667,457.684L512.771,457.316L512.994,456.838L513.008,456.643L513.681,456.649L514.353,456.655L515.087,456.65L515.796,456.646L516.349,456.662L516.615,456.538L516.868,456.726L516.992,456.767L517.034,456.752L517.131,456.884L517.446,456.87L517.496,456.9L517.523,457.06L517.815,457.056L517.959,457.091L518.076,457.087L518.246,456.995L518.368,457.025L518.59,457.145L518.748,457.248L518.969,457.214L519.481,457.232L519.878,457.331L520.271,457.605L520.534,457.763L520.77,457.997L520.857,457.955L520.939,457.891L520.985,457.863L520.982,457.663L520.85,457.322L520.799,457.033L520.828,456.796L520.928,456.625L521.099,456.522L521.116,456.362L521.118,456.34L521.31,455.959L521.5,455.58L521.729,455.138L521.918,454.773L521.893,454.592L521.912,454.322L521.951,454.021L521.941,453.842L521.996,453.721L522.127,453.271L522.204,453.01L522.317,452.893L522.493,452.809L522.749,452.806L523.417,452.749L524.041,452.632L524.248,452.58L524.639,452.392L524.79,452.384L524.919,452.456L525.673,452.672L525.88,452.757L525.956,452.744L526.07,452.763L526.247,452.765L526.419,452.739L526.529,452.765L526.668,452.908L526.761,452.892L526.882,452.788L527.109,452.682L527.548,452.564L527.619,452.617L527.771,452.879z"/>
                <path id="CM" style="stroke-width:0.2;fill:lightgrey" data-name="Cameroon" class="land" d="M519.144,441.635L518.861,442.101L518.487,442.367L518.377,442.528L518.318,442.728L518.238,442.929L518.039,443.36L517.894,443.712L517.749,443.822L517.409,444.354L517.181,444.888L517.135,445.026L517.065,445.128L516.954,445.211L516.561,445.377L516.428,445.459L516.323,445.558L516.227,445.67L516.2,445.805L516.292,445.995L516.402,446.146L516.513,446.155L516.61,446.148L516.671,446.238L516.722,446.291L516.722,447.327L516.628,447.483L516.63,447.553L516.584,447.731L516.57,447.93L516.6,448.009L516.679,448.074L516.788,448.213L516.847,448.531L516.98,449.649L517.042,449.826L517.152,449.95L517.498,450.191L517.861,450.508L517.976,450.714L518.042,451.052L518.181,451.317L518.178,451.407L518.121,451.442L517.986,451.446L517.895,451.465L517.971,451.658L518.158,451.994L518.47,452.343L518.808,452.72L519.083,453.028L519.427,453.384L519.695,453.662L519.972,453.948L520.181,454.016L520.336,454.036L520.403,454.092L520.485,454.223L520.626,454.369L520.782,454.559L520.835,454.752L520.77,454.937L520.834,455.202L520.838,455.225L520.889,455.329L520.871,455.422L520.903,455.773L520.985,456.079L521.118,456.34L521.116,456.362L521.099,456.522L520.928,456.625L520.828,456.796L520.799,457.033L520.85,457.322L520.982,457.663L520.985,457.863L520.939,457.891L520.857,457.955L520.77,457.997L520.534,457.763L520.271,457.605L519.878,457.331L519.481,457.232L518.969,457.214L518.748,457.248L518.59,457.145L518.368,457.025L518.246,456.995L518.076,457.087L517.959,457.091L517.815,457.056L517.523,457.06L517.496,456.9L517.446,456.87L517.131,456.884L517.034,456.752L516.992,456.767L516.868,456.726L516.615,456.538L516.349,456.662L515.796,456.646L515.087,456.65L514.353,456.655L513.681,456.649L513.008,456.643L512.941,456.468L512.802,456.378L512.551,456.37L511.812,456.405L511.246,456.377L511.065,456.354L510.864,456.309L510.392,456.268L509.808,456.301L509.675,456.292L509.208,456.298L508.14,456.251L507.549,456.258L507.563,456.365L507.525,456.441L507.494,456.627L506.842,456.626L505.984,456.626L505.174,456.626L504.626,456.626L503.708,456.626L503.4,456.499L503.307,456.417L503.288,456.325L503.277,456.263L503.205,456.245L503.264,455.589L503.393,455.043L503.443,454.536L503.62,454.083L503.526,453.634L503.417,453.438L502.844,452.802L503.107,452.562L502.761,452.595L502.687,452.358L502.519,452.075L502.622,452.029L502.721,451.874L503.034,451.921L503.024,451.845L502.754,451.607L502.78,451.487L502.891,451.353L502.837,451.296L502.643,451.436L502.503,451.431L502.395,451.341L502.315,451.326L502.363,451.508L502.254,451.671L502.151,451.728L501.975,451.718L501.831,451.677L501.792,451.586L501.657,451.517L501.277,451.396L500.958,451.254L500.894,450.866L500.767,450.699L500.715,450.51L500.685,450.294L500.729,449.962L500.647,449.909L500.555,449.891L500.417,449.907L500.29,449.889L500.138,449.705L500.005,449.634L500.087,449.972L499.993,450.067L499.764,450.04L499.666,449.912L499.647,449.816L499.752,449.408L499.711,449.399L499.793,449.182L499.949,448.918L500.16,448.583L500.399,448.161L500.563,447.416L500.674,446.951L500.775,446.527L500.95,446.144L501.127,445.888L501.628,445.392L502.006,445.017L502.199,444.866L502.333,444.739L502.569,444.594L502.81,444.421L502.995,444.09L503.146,443.781L503.261,443.714L503.412,443.66L503.874,443.328L504.167,443.117L504.235,443.222L504.285,443.352L504.341,443.412L504.587,443.453L504.924,443.451L505.118,443.413L505.221,443.303L505.326,443.002L505.387,442.945L505.466,442.93L505.834,443.14L506.14,443.439L506.442,443.735L506.595,443.84L506.662,443.956L506.794,444.495L506.87,444.629L507.001,444.685L507.237,444.649L507.482,444.554L507.698,444.416L507.911,444.237L508.056,444.076L508.119,443.957L508.151,443.516L508.199,443.419L508.416,443.243L508.78,442.949L508.988,442.78L508.97,442.72L508.84,442.54L508.725,442.342L508.842,442.138L508.963,441.981L509.422,441.45L509.424,441.274L509.448,441.061L509.815,440.457L510.026,439.655L510.032,439.5L510.251,439.113L510.51,438.617L511.013,438.537L511.206,438.413L511.429,438.194L511.573,437.99L511.641,437.796L511.691,437.421L511.78,436.994L511.835,436.619L511.986,436.272L512.238,436.097L512.676,435.951L512.742,435.883L512.805,435.653L512.854,435.175L512.868,434.887L512.885,434.762L512.941,434.546L513.347,434.163L513.527,433.563L513.687,432.934L514.148,432.173L514.688,431.415L514.938,431.211L515.149,431.117L515.393,431.107L515.559,431.051L516.14,430.673L516.383,430.545L516.562,430.414L516.605,430.299L516.623,430.132L516.567,429.74L516.667,429.453L516.726,429.006L516.75,428.658L516.729,428.537L516.638,428.37L516.621,428.334L516.447,428.117L516.156,427.986L515.756,427.95L515.544,427.873L515.509,427.691L515.489,427.586L515.468,427.472L515.439,427.219L515.17,425.886L515.678,425.89L516.286,426.049L516.439,426.169L516.52,426.625L516.74,426.884L517.127,427.096L517.368,427.535L517.462,428.199L517.675,428.596L517.724,428.659L517.965,429.232L518.025,429.408L518.043,429.753L518.016,429.986L518.139,430.274L517.953,430.766L517.897,431.067L517.881,431.49L517.99,432.236L518.168,432.811L518.361,433.276L518.572,433.637L518.919,434.035L519.29,434.398L519.635,434.627L519.315,434.761L518.695,434.778L518.339,434.701L518.169,434.697L517.998,434.745L517.336,434.814L516.668,434.782L516.049,434.691L515.673,434.706L515.383,434.927L515.147,435.259L514.927,435.522L515.004,435.813L515.17,435.974L515.49,436.328L515.776,436.671L515.923,436.901L516.495,437.405L517.047,437.855L517.155,437.93L517.31,438.011L517.406,438.044L517.707,438.302L518.123,438.725L518.505,439.387L518.776,440.059L519.04,440.712L519.156,440.822L519.34,440.892L519.362,441.032L519.348,441.239L519.291,441.408z"/>
                <path id="GA" style="stroke-width:0.2;fill:lightgrey" data-name="Gabon" class="land" d="M513.008,456.643L512.994,456.838L512.771,457.316L512.667,457.684L512.641,458.075L512.702,458.391L512.809,458.615L512.878,458.86L512.825,459.031L512.717,459.104L512.791,459.19L512.953,459.21L513.229,459.136L513.653,459.005L514.208,458.816L514.573,458.715L515.176,458.779L515.498,458.851L515.663,458.983L515.841,459.545L515.929,459.631L516.075,459.87L516.197,460.157L516.223,460.303L516.209,460.408L516.087,460.563L515.949,460.792L515.9,460.93L515.785,461.033L515.639,461.134L515.236,461.175L515.174,461.235L515.062,461.478L514.849,461.684L514.752,461.879L514.667,462.139L514.684,462.46L514.641,462.923L514.598,463.237L514.704,463.347L515.186,463.423L515.279,463.485L515.407,463.679L515.571,463.862L516.011,463.977L516.182,464.116L516.321,464.269L516.339,464.394L516.239,464.897L516.143,465.38L516.181,465.748L516.216,466.099L516.269,466.61L516.246,466.922L516.121,467.113L516.121,467.262L516.178,467.442L516.068,467.94L515.997,468.024L515.8,468.117L515.696,468.251L515.663,468.461L515.557,468.749L515.447,468.854L515.447,468.988L515.553,469.085L515.551,469.235L515.354,469.413L515.236,469.549L514.973,469.616L514.673,469.545L514.603,469.446L514.675,469.292L514.649,469.168L514.546,469.038L514.385,468.704L514.243,468.633L514.164,468.77L513.92,469.024L513.489,469.35L513.187,469.376L512.629,469.277L512.162,469.121L511.941,468.739L511.804,468.423L511.604,468.057L511.38,467.883L511.141,467.771L511.035,467.764L510.693,467.968L510.59,468.049L510.591,468.22L510.623,468.38L510.676,468.457L510.72,468.56L510.712,468.719L510.651,468.932L510.63,469.167L509.558,469.398L509.373,469.315L509.238,469.209L509.076,469.228L508.61,469.348L508.439,469.264L508.27,469.203L508.192,469.254L508.186,469.354L508.265,469.908L508.239,470.119L508.135,470.395L508.08,470.582L508.365,470.634L508.467,470.721L508.567,470.86L508.704,470.99L508.713,471.069L508.558,471.214L508.505,471.392L508.579,471.531L508.772,471.677L509.055,471.828L509.193,471.927L509.179,472.018L509.048,472.21L508.998,472.374L508.908,472.521L508.927,472.657L509.054,472.784L509.041,472.897L508.954,472.983L508.778,472.965L508.629,472.977L508.496,472.942L508.078,472.503L507.986,472.49L507.38,472.828L507.229,472.966L507.104,473.166L506.936,473.597L506.661,473.346L506.423,472.887L506.146,472.604L505.563,472.149L505.407,471.813L504.74,471.074L503.782,470.335L503.089,469.694L502.984,469.552L503.101,469.569L503.77,469.889L503.861,469.853L503.938,469.781L503.65,469.613L503.374,469.481L503.115,469.399L502.856,469.406L502.711,469.271L502.617,469.065L502.569,468.889L502.454,468.704L502.087,468.324L501.998,468.177L501.797,467.977L501.919,467.95L502.313,468.142L502.348,468.065L502.314,467.953L501.918,467.771L501.704,467.759L501.654,467.631L501.683,467.483L501.4,466.93L501.106,466.515L501.06,466.319L501.853,467.221L501.959,467.236L502.099,467.228L502.427,467.127L502.364,467.006L502.216,466.877L502.073,466.937L501.886,466.949L501.788,466.895L501.744,466.802L501.931,466.364L501.85,466.387L501.791,466.464L501.688,466.502L501.53,466.524L501.139,466.29L500.795,465.658L500.704,465.528L500.612,465.308L500.521,465.217L500.125,464.318L500.276,464.385L500.457,464.645L500.808,464.59L500.945,464.44L501.064,464.445L501.187,464.411L501.341,464.269L501.791,463.649L501.91,462.833L501.871,462.348L501.805,461.866L501.954,461.712L502.013,461.814L502.042,461.985L502.112,462.112L502.272,462.225L502.57,462.255L503.03,462.434L503.194,462.547L503.239,462.32L503.769,462.127L503.608,462.058L503.138,462.134L502.492,461.845L502.277,461.662L502.077,461.313L501.87,461.131L501.884,460.968L502.348,460.817L502.471,460.834L502.52,461.014L502.645,461.088L502.692,461.063L502.713,460.91L502.714,460.498L502.573,459.907L502.616,459.793L502.743,459.752L502.856,459.674L502.935,459.66L503.092,459.674L503.171,459.811L503.214,459.886L503.373,459.921L503.503,459.994L503.615,459.974L503.708,459.889L503.844,459.871L504.267,459.873L504.65,459.874L505.412,459.876L506.175,459.879L506.938,459.881L507.512,459.883L507.51,459.546L507.507,459.025L507.504,458.409L507.5,457.818L507.497,457.272L507.494,456.627L507.525,456.441L507.563,456.365L507.549,456.258L508.14,456.251L509.208,456.298L509.675,456.292L509.808,456.301L510.392,456.268L510.864,456.309L511.065,456.354L511.246,456.377L511.812,456.405L512.551,456.37L512.802,456.378L512.941,456.468z"/>
                <path id="GQ" style="stroke-width:0.2;fill:lightgrey" data-name="Equatorial Guinea" class="land" d="M500.216,452.186l0.069,0.011l0.42,-0.011l0.114,0.148l-0.013,0.217l-0.432,0.634l-0.081,0.267l-0.167,0.227l-0.145,0.018l-0.498,-0.133l-0.084,-0.081l-0.03,-0.108l0.049,-0.253l0.037,-0.077l0.239,-0.048l0.077,-0.041l0.128,-0.272l0.042,-0.249l0.107,-0.188L500.216,452.186zM507.494,456.627l0.003,0.646l0.003,0.546l0.003,0.591l0.003,0.616l0.003,0.521l0.002,0.337l-0.575,-0.002l-0.763,-0.002l-0.763,-0.002l-0.762,-0.002l-0.383,-0.001l-0.422,-0.001l-0.137,0.018l-0.093,0.085l-0.112,0.02l-0.13,-0.073l-0.159,-0.035l-0.042,-0.075l-0.079,-0.137l-0.157,-0.015l-0.079,0.015l-0.113,0.078l-0.127,0.041l0.024,-0.063l-0.251,-0.168l-0.181,-0.017l-0.167,-0.052l0.135,-0.438l0.169,-0.387l0.252,-0.293l0.134,-0.07l0.043,-0.145l0.2,-0.478l0.248,-0.387l-0.077,-0.392l0.059,-0.659l0.072,0.019l0.011,0.062l0.019,0.092l0.093,0.082l0.308,0.127h0.918h0.548l0.811,0h0.858L507.494,456.627z"/>
                <path id="ST" style="stroke-width:0.2;fill:lightgrey" data-name="Sao Tome and Principe" class="land" d="M496.535,458.3l-0.104,0.073l-0.124,-0.062l-0.033,-0.111l0.16,-0.214l0.076,-0.053l0.063,0.045l0.038,0.059l0.005,0.086L496.535,458.3zM494.391,462.334l-0.29,0.204l-0.104,-0.053l-0.064,-0.142l-0.081,-0.307l0.026,-0.147l0.131,-0.168l0.285,-0.167l0.171,-0.012l0.176,0.22l0.001,0.229L494.391,462.334z"/>
                <path id="TD" style="stroke-width:0.2;fill:lightgrey" data-name="Chad" class="land" d="M543,407.225L543.001,408.543L543.002,409.858L543.003,411.169L543.004,412.477L543.005,413.782L543.006,415.083L543.007,416.381L543.008,417.677L543.009,418.105L542.973,418.275L542.958,418.299L542.903,418.328L542.236,418.208L541.944,418.205L541.534,418.297L540.932,418.346L540.544,418.331L540.274,418.553L540.063,418.821L540.163,419.463L540.14,419.674L540.059,419.894L539.876,420.083L539.693,420.234L539.584,420.366L539.449,420.656L539.348,420.791L539.357,420.973L539.325,421.163L539.215,421.263L538.936,421.335L538.755,421.42L538.61,421.559L538.513,421.659L538.564,421.792L538.635,421.974L538.675,422.259L538.703,422.426L538.841,422.562L538.925,422.659L538.954,422.778L538.874,422.877L538.532,423.083L538.395,423.16L538.238,423.265L538.178,423.304L537.928,423.5L537.802,423.674L537.741,423.818L537.744,424.018L537.871,424.316L538.01,424.569L538.063,424.76L538.095,424.969L538.083,425.167L538.011,425.34L537.886,425.495L537.415,425.788L537.184,426.108L536.998,426.498L536.952,426.71L537.002,426.852L537.101,426.971L537.24,427.032L537.444,427.05L537.782,426.985L538.097,426.942L538.431,427.082L538.605,427.408L538.538,427.646L538.664,428.078L538.776,428.599L538.768,428.774L538.817,428.84L539.026,428.874L539.073,428.996L539.004,429.909L539.101,430.164L539.241,430.346L539.399,430.441L539.559,430.563L539.641,430.647L539.825,430.667L540.032,430.833L540.088,431.054L540.074,431.268L539.954,431.73L539.856,432.041L539.736,432.02L539.492,431.943L539.194,431.877L538.828,431.824L538.48,431.951L538.104,432.114L537.986,432.235L537.881,432.307L537.715,432.295L537.563,432.316L537.481,432.432L537.343,432.561L536.801,432.827L536.687,432.924L536.619,433.02L536.619,433.125L536.674,433.341L536.673,433.61L536.552,433.828L536.412,433.974L536.251,434.03L536.118,434.061L536.03,434.151L535.747,434.645L535.625,434.736L535.376,434.721L534.662,435.46L534.591,435.678L534.33,435.987L534,436.33L533.705,436.496L533.681,436.56L533.602,436.625L533.42,436.699L532.79,437.117L532.033,437.1L531.699,437.264L531.374,437.336L530.898,437.417L530.756,437.409L530.146,437.443L529.431,437.431L529.157,437.49L528.9,437.648L528.709,437.787L528.682,437.834L528.71,437.892L528.703,437.938L529.203,438.279L529.328,438.446L529.202,438.608L529.142,438.632L529.135,438.642L529.053,438.77L528.76,439.154L528.314,439.608L528.086,439.738L527.995,439.823L527.876,440.124L527.8,440.166L527.493,440.205L526.887,440.238L526.048,440.336L525.545,440.369L525.232,440.341L524.792,440.549L524.635,440.602L524.539,440.62L524.103,440.821L523.741,441.134L523.612,441.193L523.102,441.326L522.899,441.541L522.806,441.559L522.479,441.275L522.256,441.018L522.147,440.757L522.134,440.674L522.072,440.689L521.893,440.805L521.738,440.936L521.667,441.186L521.14,441.354L520.689,441.499L520.484,441.681L520.168,441.771L519.765,441.734L519.451,441.66L519.144,441.635L519.291,441.408L519.348,441.239L519.362,441.032L519.34,440.892L519.156,440.822L519.04,440.712L518.776,440.059L518.505,439.387L518.123,438.725L517.707,438.302L517.406,438.044L517.31,438.011L517.155,437.93L517.047,437.855L516.495,437.405L515.923,436.901L515.776,436.671L515.49,436.328L515.17,435.974L515.004,435.813L514.927,435.522L515.147,435.259L515.383,434.927L515.673,434.706L516.049,434.691L516.668,434.782L517.336,434.814L517.998,434.745L518.169,434.697L518.339,434.701L518.695,434.778L519.315,434.761L519.635,434.627L519.29,434.398L518.919,434.035L518.572,433.637L518.361,433.276L518.168,432.811L517.99,432.236L517.881,431.49L517.897,431.067L517.953,430.766L518.139,430.274L518.016,429.986L518.043,429.753L518.025,429.408L517.965,429.232L517.724,428.659L517.675,428.596L517.462,428.199L517.368,427.535L517.127,427.096L516.74,426.884L516.52,426.625L516.439,426.169L516.286,426.049L515.678,425.89L515.17,425.886L514.801,425.371L514.327,424.708L513.886,424.092L513.604,422.856L513.442,422.148L513.625,421.933L513.987,421.428L514.449,420.46L515.49,418.961L516.023,418.192L517.086,417.042L518.392,415.626L519.128,414.826L519.247,413.366L519.373,411.818L519.468,410.645L519.586,409.25L519.686,408.082L519.758,407.229L519.86,406.018L519.947,405.785L520.46,404.832L520.5,404.704L520.405,404.544L519.673,403.732L519.445,403.551L519.313,403.128L519.501,402.891L518.621,401.523L518.403,401.355L518.307,401.188L518.296,400.94L518.28,399.99L518.046,398.495L517.738,396.747L518.772,396.248L519.557,395.868L520.559,395.383L521.487,395.88L522.832,396.598L524.177,397.314L525.521,398.03L526.866,398.745L528.21,399.458L529.555,400.169L530.899,400.88L532.244,401.59L533.588,402.298L534.933,403.005L536.277,403.711L537.622,404.416L538.966,405.12L540.311,405.823L541.655,406.524Z"/>

                </svg>
