<svg


                        xmlns:dc="http://purl.org/dc/elements/1.1/"
                        xmlns:cc="http://creativecommons.org/ns#"
                        xmlns:rdf="http://www.w3.org/1999/02/22-rdf-syntax-ns#"
                        xmlns:svg="http://www.w3.org/2000/svg"
                        xmlns="http://www.w3.org/2000/svg"
                        xmlns:sodipodi="http://sodipodi.sourceforge.net/DTD/sodipodi-0.dtd"
                        xmlns:inkscape="http://www.inkscape.org/namespaces/inkscape"
                        enable_background="new 0 0 1200 589"
                        height="400"
                        width="1200"
                        viewBox="550 350 420 5"
                        id="us-map"
                        preserveAspectRatio="xMidYMid meet"
                        inkscape:version="0.48.4 r9939"
                        sodipodi:docname="us.svg">
                    <sodipodi:namedview
                            pagecolor="#ffffff"
                            bordercolor="#666666"
                            borderopacity="1"
                            objecttolerance="10"
                            gridtolerance="10"
                            guidetolerance="10"
                            inkscape:pageopacity="0"
                            inkscape:pageshadow="2"
                            inkscape:window-width="1920"
                            inkscape:window-height="1137"
                            id="namedview69"
                            showgrid="false"
                            inkscape:zoom="0.80893016"
                            inkscape:cx="817.66365"
                            inkscape:cy="409.3738"
                            inkscape:window-x="1192"
                            inkscape:window-y="118"
                            inkscape:window-maximized="1"
                            inkscape:current-layer="svg2"/>
                    <defs
                            id="defs4">
                        <style
                                type="text/css"
                                id="style6">path {
                            fill-rule: evenodd;
                        }</style>
                    </defs>
                    <metadata
                            id="metadata8">
                        <views
                                id="views10">
                            <view
                                    h="589.235294118"
                                    padding="0"
                                    w="1000"
                                    id="view12">
                                <proj
                                        id="laea-usa"
                                        lat0="45"
                                        lon0="-100"/>
                                <bbox
                                        h="321.97"
                                        w="589.33"
                                        x="690.09"
                                        y="918.69"
                                        id="bbox15"/>
                            </view>
                        </views>
                        <rdf:RDF>
                            <cc:Work
                                    rdf:about="">
                                <dc:format>image/svg+xml</dc:format>
                                <dc:type
                                        rdf:resource="http://purl.org/dc/dcmitype/StillImage"/>
                                <dc:title/>
                            </cc:Work>
                        </rdf:RDF>
                    </metadata>

                    <path id="CN" style="stroke-width:0.2;fill:lightgrey" data-name="China" class="land" d="M792.38,400.46l0.07,0.04l-0.14,0.12l-0.03,0.05l-0.03,0.28l-0.05,0.06l-0.08,-0.11l-0.02,-0.16l-0.06,-0.08l0.13,-0.11l0.06,-0.12L792.38,400.46zM807.16,392l-0.03,0.03l-0.05,0.12l0.03,0.04l0,0.13l0.17,0.03l0.09,-0.18l-0.04,-0.07L807.16,392zM812.02,388.8l-0.03,-0.05l-0.09,-0.05l-0.06,-0.09l-0.16,0.04l-0.07,0.15l0.08,0.12l-0.07,0.17l0,0.19l0.13,0.07l0.21,-0.14l0.03,-0.07l-0.07,-0.09l0.08,-0.16L812.02,388.8zM787.14,406.08l-0.09,-0.19l-0.14,-0.13l-0.22,-0.07l-0.18,-0.13l-0.19,-0.23l-0.08,0l-0.15,0.12l-0.03,0.07l0,0.29l-0.48,-0.23l-0.07,-0.01l-0.02,0.12l0.01,0.13l-0.14,-0.19l-0.37,-0.05l-0.12,0.01l-0.25,0.18l-0.5,0.09l-0.72,-0.06l-0.19,0.04l-0.2,0.2l-0.27,0.05l-0.29,-0.05l-0.14,0.06l-0.13,0.12l-0.12,0.22l0.12,0.03l0.16,-0.01l-0.27,0.26l-0.33,0.18l-0.45,0.39l-0.31,0.19l-0.27,0.24l-0.08,0.1l-0.04,0.12l-0.04,1.05l0.01,0.12l0.11,0.34l0.07,0.63l0.62,0.35l0.3,0.14l0.43,0.13l0.44,0.08l0.17,0.05l0.33,0.18l0.2,-0.02l0.26,-0.06l0.06,-0.04l0.16,-0.26l0.16,-0.14l0.43,-0.08l0.15,0.02l0.13,-0.09l0,-0.08l-0.05,-0.09l0.3,-0.19l0.27,-0.25l0.11,-0.04l0.12,-0.01l0.18,-0.07l0.15,-0.15l0.07,-0.19l0.12,-0.46l0.13,-0.38l-0.01,-0.11l0.03,-0.11l0.09,-0.1l0.11,-0.25l0.51,-0.79l0.25,-0.08l0.28,-0.21l-0.04,-0.32L787.14,406.08zM791.5,400.89l0.06,0.01l0.28,-0.06l0.01,-0.21l-0.25,0.11L791.5,400.89zM785.6,402.58l-0.1,-0.1l-0.21,0.06l-0.13,0.15l0.04,0.07l0.17,0.01l0.23,-0.03l0.23,0.12l0.1,-0.15l0,-0.06l-0.05,-0.13L785.6,402.58zM815.94,380.69l-0.08,-0.07l-0.2,0.22l-0.01,0.23l0.09,0l0.25,-0.08l0,-0.19L815.94,380.69zM853.73,310.34l-0.14,-0.3l-0.17,-0.42l-0.07,-0.2l0.11,-0.25l0.12,-0.16l0.06,-0.14l0.03,-0.24l-0.04,-0.18l-0.29,-0.29l-0.3,-0.14l-0.34,-0.06l-0.12,-0.02l-0.25,0.06l-1.02,0.36l-0.48,0.28l-0.28,0.31l-0.29,0.15l-0.47,-0.02l-0.44,-0.02l-0.35,0.17l-0.4,0.36l-0.29,0.16l-0.18,-0.03l-0.2,0.24l-0.21,0.51l-0.24,0.22l-0.27,-0.06l-0.65,0.05l-1.02,0.16l-0.64,-0.01l-0.26,-0.17l-0.41,-0.02l-0.55,0.13l-0.33,0.03l-0.12,-0.07l-0.08,-0.21l-0.05,-0.35l-0.19,-0.36l-0.33,-0.38l-0.06,-0.45l0.21,-0.53l0.05,-0.37l-0.11,-0.2l-0.05,-0.18l-0.25,-0.22l-0.17,-0.39l-0.13,-0.12l0.04,-0.33l0.15,-0.39l-0.18,-0.37l-0.56,-0.02l-0.45,-0.11l-0.45,-0.34l-0.69,-0.97l-0.34,-0.34l-0.22,-0.04l-0.16,-0.16l-0.1,-0.28l-0.16,0h-0.16l-0.1,0.12l-0.11,0.04l-0.17,-0.11l-0.18,-0.01l-0.18,0.08l-0.15,-0.05l-0.13,-0.19l-0.23,-0.13l-0.33,-0.06l-0.14,-0.13l0.06,-0.2l-0.06,-0.15l-0.18,-0.1l-0.5,0.03l-0.81,0.15l-0.67,-0.04l-0.52,-0.23l-0.29,-0.21l-0.06,-0.2l-0.15,-0.19l-0.24,-0.18l-0.14,-0.31l-0.03,-0.44l0.06,-0.42l0.22,-0.6l-0.55,-0.39l-0.16,-0.23l0.04,-0.19l-0.03,-0.15l-0.1,-0.11l0.01,-0.18l0.11,-0.25l0,-0.31l-0.11,-0.38l-0.31,-0.54l-0.5,-0.69l-0.27,-0.51l-0.04,-0.32l-0.07,-0.26l-0.09,-0.14l-0.06,-0.24l0.04,-0.27l-0.06,-0.17l-0.07,-0.16l0.01,-0.26l-0.09,-0.18l-0.18,-0.1l-0.06,-0.2l0.03,-0.42l-0.13,-0.35l-0.4,-0.66l-0.12,-0.48l-0.04,-0.43l-0.17,-0.21l-0.01,-0.19l-0.02,-0.33l-0.1,-0.09l-0.06,-0.12l0.05,-0.14l-0.08,-0.17l-0.21,-0.21l-0.1,-0.18l-0.02,-0.16l-0.11,-0.13l-0.31,-0.12l-0.08,-0.17l0.02,-0.15l0.07,-0.14l0.04,-0.09l-0.01,-0.11l-0.02,-0.11l-0.12,-0.13l-0.18,-0.15l-0.2,-0.33l-0.25,-0.09h-0.15l-0.13,-0.19l0.04,-0.12l-0.01,-0.22l-0.12,-0.18l-0.15,-0.07l-0.14,0.05l-0.35,-0.17l-0.55,-0.38l-0.42,-0.18l-0.29,0.03l-0.18,0.12l-0.07,0.2l-0.2,-0.02l-0.48,-0.36l-0.49,-0.09l-0.27,-0.19l-0.22,-0.33l-0.2,-0.14l-0.18,0.05l-0.45,-0.22l-0.71,-0.5l-0.37,-0.17l-0.13,0.09l-0.07,0l-0.13,-0.01l-0.18,-0.01l-0.32,-0.12l-0.44,0.05l-0.55,0.22l-0.6,0.14l-0.64,0.05l-0.38,-0.03l-0.12,-0.11l-0.7,0.16l-0.97,0.32l-0.95,0.31l-1.18,0.15l-0.79,0.53l-0.79,0.95l-0.57,0.59l-0.35,0.24l-0.14,0.32l0.07,0.39l0.29,0.14l0.53,-0.11l0.45,0.06l0.38,0.22l0.12,0.34l-0.14,0.45l0.04,0.44l0.22,0.43l0.01,0.5l-0.19,0.56l-0.48,0.56l-0.77,0.57l-0.48,0.55l-0.28,0.8l-0.43,0.69l-0.16,0.39l-0.03,0.32l-0.17,0.35l-0.31,0.37l-0.17,0.37l-0.03,0.37l-0.16,0.34l-0.29,0.3l-0.18,0.32l-0.07,0.34l-0.11,0.23l-0.15,0.12l0.08,0.11l0.31,0.11l0.13,0.33l-0.06,0.54l-0.19,0.39l-0.31,0.23l-0.47,0.15l-0.63,0.07l-0.85,0.51l-0.74,0.66l-0.88,0.77h-0.17l-0.32,-0.1l-0.62,-0.32l-0.65,-0.07l-0.63,-0.29l-0.37,-0.19l-0.58,-0.37l-0.26,0.6l-0.53,1.2l-0.45,1.01l-0.24,0.57l-0.17,0.43l-0.18,0.41l-0.03,0.25l-0.2,0.39l-0.37,0.47l-0.08,0.51l0.01,0.46l-0.03,0.41l-0.41,0.26l-0.32,0.23l0.09,0.78l0.17,0.29l0.27,0.32l0.28,0.25l0.24,0.21l0.27,-0.1l0.23,-0.33l0.44,-0.29l0.24,-0.01l0.17,0.07l0.38,0.02l0.39,-0.1l0.3,-0.02l0.39,0.07l0.14,0.07l0.33,0.13l0.36,0.28l0.25,0.31l0.18,0.06l0.09,-0.1l0.2,-0.27l0.28,-0.26l0.34,-0.43l0.26,-0.33l0.2,-0.05l0.39,0l0.18,-0.08l0.29,-0.04l0.26,0.12l0.73,0.06l0.2,0.17l0.34,0.5l0.2,0.27l0.34,0.14l0.2,0.09l0.18,0.07l0.18,0.13l0.04,0.16l0.07,0.24l0.11,0.14l0.21,0.14l0.16,0.08l0.05,0.17l0.05,0.08l0.14,0.12l0.42,0.52l0.21,0.14l0.31,0.3l0.13,0.25l0.01,0.26l0.08,0.2l0.21,0.3l0.1,0.2l-0.04,0.27l0.03,0.24l-0.08,0.25l-0.34,0.18l-0.12,0.09l-0.24,0.01l-0.41,-0.09l-0.4,0.05l-0.48,-0.1l-0.37,-0.22l-0.2,-0.17l-0.32,-0.1l-0.15,0.05l-0.19,0.23l-0.21,-0.04l-0.19,0.04l-0.49,-0.05l-0.27,-0.06l-0.43,0.16l-0.24,0.05l-0.45,0.19l-0.27,0.33l-0.2,0.08l-0.2,-0.02l-0.14,-0.12l-0.21,-0.15l-0.31,0.01l-0.09,0.06l-0.04,0.14l-0.1,0.41l0,0.18l-0.07,0.12l-0.18,0.04l-0.32,-0.01l-0.5,-0.03l-0.34,-0.11l-0.2,0.05l-0.28,0.22l-0.2,0.04l-0.16,0.09l-0.13,0.33l-0.2,0.2l-0.24,0.25l-0.26,0.54l-0.14,0.31l0.05,0.17l0.03,0.2l-0.12,0.23l-0.25,0.21l-0.2,0.04l-0.3,0.2l-0.41,0.37l-0.3,0.31l-0.4,0.07l-0.28,0.08l-0.62,0.09l-0.15,0.02l-0.68,0.05l-0.51,-0.16l-0.27,0.03l-0.24,0.09l-0.12,0.1l-0.04,0.19l-0.04,0.18l-0.19,0.27l-0.39,0.36l-0.32,0.24l-0.25,0.31l-0.14,0.11l-0.28,0.12l-0.15,0.06l-0.35,0.28l-0.28,0.25l-0.18,0.07l-0.22,-0.07l-0.15,-0.02l-0.43,-0.1l-0.29,-0.01l-0.41,-0.06l-0.96,-0.29l-0.31,-0.13l-0.27,-0.37l-0.25,-0.19l-0.33,-0.02l-0.5,0l-0.22,-0.07l-0.38,0.07l-0.41,0.37l-0.2,0.28l-0.17,0.28l-0.21,0.61l-0.09,0.4l-0.07,0.23l-0.22,0.36l-0.02,0.2l0.08,0.18l0.16,0.2l0.09,0.31l0.23,0.33l0.23,0.26l0.43,0.41l0.12,0.22l0.14,0.25l0.03,0.24l-0.03,0.16l-0.15,0.12l-0.3,0.06l-0.14,0.17l-0.22,0.22l-0.26,0.26l-0.12,0.01l-0.15,0.07l-0.74,0.32l-0.28,0.09l-0.22,0.11l-0.26,0.32l-0.21,0.24l-0.26,0.32l-0.11,0.14l-0.23,0.32l-0.3,0.36l-0.17,0.19l-0.09,0.12l-0.08,0.15l-0.31,0.12l-0.26,0.12l-0.39,0.19l-0.56,0.21l-0.45,0.2l-0.29,0.16l-0.43,0.21l-0.29,0.07l-0.58,-0.01l-0.72,0.05l-0.53,0.04l-0.4,-0.05l-0.6,-0.03l-0.46,-0.04l-0.31,0.08l-0.72,0.08l-0.16,0.02l-1.28,0.2l-0.57,0.1l-0.52,0.05l-0.38,0.08l-0.22,0.1l-0.32,0.14l-0.17,0.06l-0.57,0.27l-1.26,0.55l-0.84,0.45l-0.14,0.08l-0.57,0.31l-0.33,0.12l-0.23,0.28l-0.18,0.18l-0.19,0.08l-0.34,-0.18l-0.24,0.01l-0.77,-0.07v-0.82l-0.54,0.12l-0.86,0.18l-0.8,0.17l-0.73,-0.39l-0.57,-0.3l-0.49,-0.26l-0.75,-0.17l-0.65,-0.15l-1.17,-0.25l-0.52,-0.22l-0.26,-0.29l-0.47,-0.66l-0.15,-0.13l-0.23,-0.09l-0.24,-0.06l-0.51,0l-0.62,-0.05l-0.9,-0.14l-0.71,-0.11l-1.21,-0.21l-0.29,-0.03l-0.63,0.18l-0.81,0.23l-1.46,-0.18l-0.65,-0.09l-1.31,-0.17l-1.49,-0.2l-1.44,-0.2l-1.05,0.11l-0.58,0.06l-0.67,0.09l-0.09,-0.1l-0.03,-0.39l-0.12,-0.3l-0.37,-0.33l-0.25,-0.31l-0.47,-0.42l-0.15,-0.27l-0.05,-0.41l-0.43,-1.08l-0.27,-0.73l-0.07,-0.15l-0.12,-0.24l-0.15,-0.13l-0.32,-0.08l-0.09,-0.13v-0.25l0.05,-0.35l0.07,-0.26l-0.05,-0.06l-0.84,0.07l-0.52,-0.17l-0.43,-0.19l-0.61,-0.48l-0.36,-0.18l-0.46,-0.49l-0.68,-0.12l-0.25,-0.19l-0.32,-0.42l-0.28,-0.27l-0.39,-0.17l-0.62,-0.15l-1.06,-0.15l-0.36,-0.06l-0.59,0.1l-0.44,0.01l-0.71,-0.1l-0.4,-0.13l-0.5,0l-0.32,0l-0.43,-0.03l-0.21,-0.09l-0.19,-0.1l-0.36,0.03l-0.25,-0.1l-0.24,-0.2l-0.25,-0.09l-0.27,0.01l-0.11,0.09l-0.1,-0.01l-0.07,-0.27l-0.25,-0.43l-0.04,-0.19l-0.15,-0.22l-0.09,-0.2l0.03,-0.28l0.11,-0.54l0.24,-0.49l0.16,-0.13l0.1,-0.15l0.2,-0.26l0.12,-0.2l-0.01,-0.28l-0.14,-0.29l-0.1,-0.38l0.02,-0.22l0.15,-0.26l0.18,-0.57l-0.01,-0.15l-0.07,-0.12l-0.02,-0.27l-0.03,-0.36l-0.21,-0.55l-0.11,-0.29l-0.2,-0.13l-0.23,-0.08l-0.2,-0.4l-0.25,-0.47l-0.16,-0.29l-0.05,-0.18l-0.03,-0.33l-0.12,-0.4l-0.13,-0.22l-0.09,-0.17l-0.05,-0.24l-0.05,-0.09l-0.34,-0.11l-0.25,-0.18l-0.1,-0.24l-0.04,-0.2l-0.07,-0.11l-0.19,-0.04l-0.13,0.18l-0.22,0.09l-0.15,-0.02l-0.15,-0.11l-0.09,-0.11l-0.15,-0.13l-0.22,-0.4l-0.23,-0.1l-0.42,0.02l-0.37,0.18l-0.23,-0.03l-0.19,-0.06l-0.21,-0.2l-0.15,-0.16l-0.22,-0.05l-0.44,-0.29l-0.3,-0.21l-0.03,-0.41l-0.14,-0.28l-0.29,-0.08l-0.29,-0.29l-0.43,-0.16l-0.27,-0.12l-0.23,-0.07l-0.03,-0.11l0.01,-0.09l0.11,-0.16l0.11,-0.15l0.03,-0.14l-0.09,-0.12l-0.24,-0.13l-0.31,-0.11l-0.06,-0.19l-0.18,-0.2l0.03,-0.16l0.15,-0.11l0.15,-0.09l0.03,-0.15l-0.11,-0.14l-0.05,-0.21l0.02,-0.15l-0.03,-0.2l-0.15,-0.02l-0.26,0.08l-0.26,0.06l-0.17,0.04l-0.11,0.13l-0.17,0.06l-0.26,-0.04l-0.26,-0.09l-0.51,-0.02l-0.31,0.05l-0.15,0.03l-0.22,0.17l-0.16,0.17l-0.07,0.3l0.08,0.33l-0.11,0.69l-0.15,0.26l-0.32,0.45l-0.19,0.1l-0.31,0.08l-0.3,0.13l-0.59,0.13l-0.63,0.07l-0.23,0.1l-0.16,0.31l-0.11,0.26l-0.07,0.2l-0.18,0.64l-0.1,0.57l0.1,0.71l0.08,0.78l0,0.27l0.16,0.4l0.08,0.24l-0.04,0.35l-0.22,0.27l-0.13,0.36l-0.13,0.15l-0.36,0.07l-0.34,0.04l-0.34,0.31l-0.28,0.21l-0.43,0.27l-0.2,0.05l-0.11,-0.14l-0.07,-0.31l-0.15,-0.14l-0.21,-0.01l-0.17,0l-0.54,-0.08l-0.35,0.01l-0.26,0.07l-0.3,0.03l-0.51,-0.11l-0.33,-0.1l-0.22,-0.09l-0.54,-0.27l-0.7,-0.32l-0.29,-0.09l-0.17,0.1l-0.03,0.18l-0.04,0.44l-0.08,0.28l-0.49,1.4l-0.3,0.97l-0.38,0.92l-0.12,0.62l-0.23,0.78l-0.23,0.56l-0.09,0.31l-0.01,0.13l0.04,0.17l0.35,0.19l0.37,0.12l0.08,0.07l0.04,0.2l-0.01,0.32l-0.07,0.31l-0.11,0.24l-0.11,0.12l-0.12,0.01l-0.23,-0.15l-0.21,-0.17l-0.16,-0.05l-0.4,0.1l-0.37,0.13l-0.13,0l-0.22,-0.08l-0.22,-0.17l-0.09,-0.34l-0.19,-0.15l-0.25,0.15l-0.75,0.26l-0.83,0.31l-0.53,0.16l-0.21,-0.02l-0.41,0.04l-0.35,0.09l-0.26,0.12l-0.52,0.16l-0.47,0.11l-0.31,0.25l-0.22,0.24l0.01,0.09l0.16,0.14l0.18,0.11l0.37,-0.03l0.36,-0.02l0.3,0.15l0.27,0.1l0.07,0.12l-0.07,0.12l-0.15,0.03l-0.05,0.08l0.03,0.11l-0.1,0.29l-0.05,0.45l0.05,0.44l0.03,0.4l-0.02,0.2l-0.01,0.29l0.11,0.2l0.1,0.37l0.18,0.23l0.27,0.8l0.16,0.47l0.15,0.53l-0.11,0.29l0.01,0.17l0.17,0.14l0.08,0.27l0.08,0.16l-0.02,0.16l-0.07,0.06l-0.38,-0.1l-0.31,0.16l-0.33,0.16l-0.04,0.09l-0.01,0.09l0.03,0.08l0.19,0.15l0.26,0.09l-0.01,0.15l-0.32,0.07l-0.49,0.22l-0.13,0.24l-0.1,0.26l-0.01,0.15l0.05,0.41l0.07,0.45l0.14,0.47l0.01,0.15l-0.07,0.1l-0.07,0.07l0.06,0.23l0.05,0.26l-0.03,0.06l-0.05,0.04l-0.86,0.07l-0.19,0.07l-0.21,0.36l-0.74,0.29l-0.42,0.15l-0.17,-0.01l-0.41,0.24l-1.14,0.59l-0.56,0.38l-0.28,0.16l-0.23,0.17l-0.04,0.17l-0.01,0.16l-0.63,0.76l-0.47,0.09l-0.4,-0.02l-0.27,0.12l-0.39,0.12l-0.84,-0.08l-0.29,0.01l-0.55,-0.1l-0.22,0.06l-0.23,0.16l-0.33,0.61l-0.13,0.14l-0.06,0.14l-0.05,0.29l-0.12,0.31l-0.16,0.25l-0.12,0.23l-0.24,0.22l-0.22,0.14l-0.17,-0.29l-0.15,0.08l-0.14,0.12l-0.26,-0.04l-0.16,0.06l-0.37,0.25l-0.55,-0.01l-0.06,-0.09l-0.11,-0.69l-0.09,-0.33l-0.08,-0.07l-0.1,-0.01l-0.79,0.54l-0.36,0.1l-0.3,0.02l-0.39,-0.16l-0.08,0.04l-0.07,0.09l-0.03,0.11l0.11,0.31l-0.03,0.06l-0.18,0l-0.25,0.07l-0.19,0.14l-0.56,0.49l-0.47,0.17l-0.44,0.06l-0.18,0.05l-0.08,0.06l-0.15,0.23l-0.15,0.37l-0.08,0.18l-0.06,0.1l0.01,0.14l0.12,0.18l0.09,0.39l-0.02,0.1l-0.1,0.16l-0.14,0.16l-0.3,0.1l-0.24,0.05l0.01,0.19l-0.04,0.36l-0.04,0.25l0.23,0.45l0.15,0.22l0.15,0.15l0.03,0.12l-0.03,0.1l-0.18,0.1l-0.07,0.1l-0.03,0.11l0.06,0.13l0.1,0.42l0.13,0.33l0.19,0.16l0.28,0.1l0.16,-0.02l0.11,-0.25l0.19,-0.19l0.16,0.01l0.25,-0.01l0.66,0.21l0.65,0.32l0.19,0.18l0.07,0.2l-0.18,0.46l0.01,0.29l0.04,0.31l0.15,0.23l0.14,0.4l0.03,0.33l0.06,0.1l0.05,0.12l-0.07,0.3l-0.05,0.3l0.06,0.1l0.2,0.15l0.31,0.28l0.06,0.23l-0.11,0.15l-0.2,0.18l-0.25,0.15l-0.08,0.06l-0.14,0.02l-0.2,-0.08l-0.08,-0.13l-0.03,-0.02l-0.16,0.08l-0.31,0.11l-0.52,0.28l0.01,0.07l0.34,0.28l0.08,0.09l0.04,0.03l0.17,-0.05l0.26,0l0.21,0.08l0.21,0.12l0.13,0.09l0.17,-0.06l0.29,-0.07l0.26,0.05l0.57,0.21l0.08,0.1l0.13,0.51l0.1,0.05l0.32,-0.12l0.26,0.06l0.29,0.16l0.19,0.16l0.13,0.17l0.13,0.28l0.05,0.22l0.06,0.26l-0.02,0.74l-0.1,0.12l-0.08,0.16l0.02,0.14l0.09,0.11l0.18,0.07l0.17,0.05l0.09,0.12l0.13,0.41l0.08,0.06l0.21,0l0.38,-0.09l0.33,-0.14l0.14,-0.03l0.03,0.39l0.19,0.15l0.27,0.17l0.11,0.06l0.31,0.17l0.59,0.21l0.58,0.15l0.43,0.11l0.21,0.01l0.15,0.01l0.42,-0.03l0.21,-0.05l0.01,0.01l0,0.01l0.04,-0.11l0.12,-0.09l0.16,-0.07l0.21,-0.02l0.14,0.04l0.11,-0.02l0.01,-0.12l0.14,-0.04l0.09,-0.05l0.12,-0.11l0.18,-0.01l0.12,-0.04l0.12,-0.1l0.2,-0.1l0.12,-0.01l0.24,-0.12l0.13,-0.1l0.16,-0.05l0.21,-0.01l0.21,0.04l0.31,0.05h0.21l0.3,-0.05l0.04,-0.18l0.06,-0.12l0.22,-0.09h0.12l0.09,0.11l0.04,0.12l0.13,0.03l0.21,0.04l0.14,0.08l0.16,0.08l0.23,0.04l0.19,0.09l0.13,0.01l0.11,-0.01l0.13,-0.04l0.12,-0.01l0.15,0.04l0.11,0.08l0.1,0.08l0.12,0.19l0.13,0.15l0.14,0.04l0.13,0.03l0.07,0.11l0.12,0.11l0.03,0.17l-0.06,0.09l-0.06,0.12l-0.04,0.13l0.02,0.16l0.01,0.23l-0.04,0.15l-0.04,0.06l-0.09,0.04l-0.04,0.09l0.01,0.12l0.01,0.18l-0.01,0.24l-0.08,0.06l-0.06,0.24l-0.1,0.18l-0.07,0.11l-0.01,0.15l0.01,0.23l-0.08,0.01l-0.21,-0.01l-0.21,0.09l-0.14,0.06l-0.13,0.1l-0.09,0.15l-0.03,0.14l0.04,0.15l-0.12,0.04h-0.13l-0.24,0.03l-0.25,0.04l0.09,0.05l0.04,0.14l0.04,0.12l-0.05,0.13l0.02,0.14l0.01,0.15l0.03,0.11l-0.05,0.09l-0.1,0.14l-0.14,0.07l-0.09,0.04l0.04,0.1l0.03,0.15h-0.15l-0.25,0.02l-0.19,-0.08l-0.21,-0.01l-0.16,0.03l-0.15,-0.09l-0.16,0.04l-0.13,0.17l0.11,0.22l0.09,0.29l0.1,0.28l0.04,0.16l0.1,0.1l-0.02,0.14l-0.1,0.04l-0.13,-0.01l-0.2,0.02l0.02,0.11v0.19l0.02,0.17l0.03,0.19l0.11,0.12l0.11,0.17l0.17,0.1l0.13,0.08l0.52,0.03l0.15,0.02l0.09,0.1l-0.01,0.15l-0.1,0.16l-0.03,0.09l0.18,0.19l-0.03,0.13l-0.03,0.31l0.05,0.1l0.12,0.09l0.09,0.09l0.23,0.42l0,0.1l-0.04,0.18l-0.04,0.07l-0.03,0.06l-0.04,0.05l-0.07,0.08l-0.42,0.34l-0.14,-0.07l-0.06,0.01l-0.03,-0.01l0,0.02v0.02l-0.14,0.01l-0.12,0.07l-0.17,0.29l-0.2,0.08l-0.22,0.02l-0.23,-0.18l-0.19,-0.19l-0.05,-0.1l-0.05,-0.2l-0.1,-0.13l-0.19,0.06l-0.29,0.03l-0.32,0.04l-0.06,0.04l-0.01,0.08l0.08,0.18l0.07,0.23l0.04,0.32l0.09,0.21l0.03,0.07l0.51,0.64l0.13,0.13l0.03,0.08l-0.04,0.23l-0.09,0.27l0.02,0.21l0.17,0.24l0.14,0.17l-0.13,0.22l-0.08,0.26l0.09,0.12l-0.04,0.37l0.04,0.07l0.09,0.03l0.15,-0.03l0.15,-0.1l0.13,-0.02l0.08,0.03l0.1,-0.28l0.09,-0.04l0.18,0.08l0.35,0.53l0.3,0.44l0.09,0.08l0.05,0.05l0.29,0.23l0.2,0.15l0.28,-0.05l0.37,-0.01l0.22,0.14l0.13,0.1l0.02,0.02l0.44,0.35l0.19,-0.03l0.13,0.1l0.04,0.25l-0.06,0.25l0.01,0.12l0.2,0.02l0.42,0.17l0.37,0.15l0.19,0.05l0.21,0.11l0.18,0.18l0.36,0.23l0.31,0.17l0.07,0.23l0.13,0.21l0.15,0.2l0.19,-0.01l0.22,-0.17l0.45,-0.79l0.63,-0.16l0.6,0.08l0.53,0.12l0.16,0.26l0.1,0.28l0.07,0.14l0.17,0.17l0.75,0.39l0.43,0.35l0.6,0.48l0.45,0.21l0.4,0.02l0.22,0.19l0.34,0.37l0.29,0.43l0.36,0.39l0.25,-0.01l0.33,-0.13l0.41,-0.17l0.24,0.08l0.22,0.11l0.07,0.2l0.13,0.38l0.15,0.4l0.23,0.14l0.28,0.2l0.15,0.16l0.52,0.3l0.07,0.12l0.11,0.08l0.13,0.05l0.1,0.06l0.16,0.02l0.6,-0.18l0.16,0.02l0.09,0.03l0,0.06l-0.11,0.28l-0.09,0.36l0.09,0.18l0.25,0.07l0.56,0.05l0.75,0l0.23,0.18l0.23,0.27l0.23,0.46l0.09,0.19l0.11,0.06l0.2,-0.08l0.03,-0.19l0.01,-0.28l0.16,-0.1l0.1,0.07l0.12,0.22l0.31,0.2l0.22,0.1l0.21,-0.03l0.09,-0.08l0.11,-0.39l0.17,-0.06l0.21,0.03l0.08,0.08l0.09,0.15l0.26,0.07l0.26,0.1l0.24,0.13l0.34,0.29l0.42,0.05l0.49,-0.01l0.26,0.01l0.19,0.02l0.17,-0.02l0.5,-0.2l0.2,-0.02l0.25,0.02l0.24,0.04l-0.03,-0.11l0.03,-0.09l0.09,-0.05l0.38,-0.06l0.42,-0.14l0.17,-0.07l0.13,-0.07l0.13,-0.11l0.12,0l0.38,0.16l0.13,0.1l0.07,0.31l0.06,0.12L725,382l-0.23,0.77l0.04,0.29l0.19,0.21l0.17,0.15l0.16,-0.46l0.22,-0.17l0.22,-0.24l0.16,-0.37l0.31,-0.38l0.35,-0.4l0.24,-0.32l0.16,-0.15l0.33,-0.16l0.27,-0.09l0.19,-0.22l0.23,-0.12l0.23,-0.05l0.35,0.03l0.33,0.08l0.36,0.11l0.04,0.09l-0.03,0.15l-0.05,0.16l0,0.08l0.05,0.04l0.35,0.03l0.43,-0.02l0.24,0.02l0.54,0.14l0.16,0.1l0.16,0.08l0.16,-0.01l0.2,-0.17l0.21,-0.14l0.13,-0.02l0.09,0.05l0.17,0.13l0.35,0.13l0.31,0.1l0.1,0.09l-0.04,0.39l0.01,0.13l0.23,0l0.31,0.04l0.24,0.05l0.19,0l0.35,-0.24l0.16,-0.01l0.18,-0.05l0.08,-0.05l0.05,0.04l0.2,0.03l0.21,-0.01l0.18,-0.07l0.19,-0.1l0.33,-0.22l0.07,-0.13v-0.12l-0.06,-0.08l-0.06,-0.04l0.03,-0.1l0.14,-0.17l0.5,-0.26l0.43,-0.32l0.24,-0.24l0.11,-0.29l0.14,-0.31l0.13,-0.12l0.3,-0.08l0.85,-0.12l0.27,-0.13l0.4,-0.23l0.2,-0.18l0.11,-0.15l0.01,-0.17l0.26,-0.05l0.23,-0.27l0.28,-0.27l0.49,-0.23l0.43,-0.31l0.15,0.05l0.16,0.15l0.08,0.16l0.02,0.08l0.56,0.1l0.09,-0.02l0.41,0.14l0.38,0.17l0.21,0.04l0.1,0l0.09,-0.05l0.1,-0.15l0.1,-0.11l0.07,-0.05l0,-0.18l0.55,-0.34l0.49,-0.25l0.42,-0.18l0.12,0.07l0.14,0.14l0.19,0.35l0.11,0.09l0.29,-0.05l0.05,0.04l-0.04,0.13l-0.19,0.16l-0.25,0.14l-0.16,0.11l0.05,0.38l-0.01,0.13l0.07,0.04l0.52,-0.38l0.25,-0.07l0.09,0.09l0.03,0.2l0.21,0.41l0.09,0.21l-0.52,0.5l-0.19,0.26l0.01,0.09l-0.01,0.09l-0.13,0.13l0.01,0.05l0.11,0.08l0.13,0.06l0.06,0l0.11,-0.12l0.49,-0.17l0.14,0.03l0.35,0.26l0.16,0.02l0.42,0.08l0.27,-0.1l0.2,0.09l0.41,0.33l0.09,0.06l0.1,-0.12l0.21,-0.31l0.13,-0.23l0.07,-0.1l0.1,-0.17l0.17,-0.02l0.17,0.05l0.1,0.1l0.1,0.2l0.11,0.16l0.13,0l0.14,-0.02l0.06,0.02l0.13,0.14l0.25,0.32l0.11,0.08l0.1,0.14l0.05,0.28l0.03,0.28l0.31,0.96l0.09,0.2l0.07,0.15l0.14,0.04l0.12,-0.15l0.05,-0.17l0.12,-0.06l0.15,0.03l0.27,0.15l0.14,0.08l0.07,0.47l0.02,0.55l-0.02,0.17l0.12,0.46l0.04,0.52l0.03,0.29l0,0.27l-0.02,0.36l-0.06,0.48l-0.11,0.41l0.04,0.34l-0.06,0.16l-0.26,0.08l-0.02,0.13l0.08,0.21l0.18,0.27l0,0.17l-0.09,0.11l-0.19,0.01l-0.26,0.11l-0.18,0.34l-0.19,0.28l-0.1,0.06l-0.35,-0.08l-0.08,0.07l-0.12,0.48l-0.1,0.21l-0.15,0.17l-0.14,0.1l-0.12,0.07l-0.28,-0.05l-0.15,0.29l-0.15,0.38l-0.01,0.2l0.08,0.31l-0.04,0.09l-0.15,0.07l-0.25,0.14l-0.15,0.44l0.01,0.43l0.09,0.15l0.17,0.06l0.12,0.13l0.01,0.21l0.1,0.26l-0.05,0.3l-0.34,0.44l-0.01,0.24l0.18,0.07l0.16,-0.03l0.2,-0.1l0.23,-0.17l0.5,-0.24l0.55,-0.14l0.43,-0.03l0.37,0.01l0.18,0.05l0.05,0.09l0.51,-0.14l0.11,-0.01l0.09,-0.01l0,0.09l-0.37,0.39l-0.07,0.18l0.01,0.19l0.15,0.18l0.15,0.14l0.13,0.35l-0.1,0.32l0.06,0.12l0.11,0.13l0.07,0.18l0.01,0.22l-0.06,0.35l0.54,0.18l0.46,0.08l0.34,0.02l0.22,0.08l0.13,0.07l0.09,0.13l0.03,0.14l-0.11,0.1l-0.23,0.31l-0.13,0.41l0.01,0.31l-0.02,0.27l-0.27,0.39l-0.11,0.26l-0.09,0.27l0,0.12l0.05,0.08l0.11,0.05l0.2,0.03l0.24,-0.03l0.57,0.07l0.65,0.12l0.26,0.06l0.08,0.12l-0.02,0.26l-0.04,0.24l0.04,0.19l0.11,0.17l0.18,0.06l0.15,0.07l0.03,0.13l-0.05,0.18l0.08,0.14l0.09,0.09l0.19,0.05l0.38,-0.11l0.27,0.05l0.24,0.08l0.21,-0.04l0.2,-0.1l0.44,-0.45l0.52,-0.24l0.17,-0.06l0.11,0.03l0.03,0.03l-0.01,0.09l0.05,0.37l-0.02,0.04l0.16,0.14l-0.06,0.34l0.08,0.07l0.04,0.12l-0.02,0.19l0.04,0.16l0.07,0.08l0.09,0.04l0.46,-0.14l0.28,-0.01l0.12,0.09l0.11,0.06l0.13,0.04l0.1,0.06l0.07,-0.02l0.16,-0.14l0.05,-0.03l0,-0.07l-0.11,-0.13l-0.11,-0.11l0,-0.24l0.05,-0.42l0.01,-0.22l-0.01,-0.52l-0.02,-0.15l-0.1,-0.17l-0.27,-0.32l-0.08,-0.2l-0.04,-0.2l0,-0.13l-0.07,-0.14l-0.04,-0.13l0.12,-0.07l0.15,-0.15l0.07,-0.24l0.07,-0.17l0.1,-0.07l0.09,-0.03l0.06,0.02l0.23,0.31l0.29,-0.15l0.22,0l0.19,0.08l0.1,0.1l0.14,-0.11l0.17,-0.16l0.18,-0.24l0.21,-0.3l0.09,-0.19l0.06,-0.08l0.12,-0.05l0.13,0.03l0.23,0.12l0.34,0.16l0.31,0.19l0.12,0.19l0.17,0.18l0.13,0.05l0.07,-0.01l0.2,-0.13l0.17,-0.13l0,-0.15l0.16,-0.14l0.2,-0.23l0.1,-0.15l0.07,-0.02l0.08,0.05l0.32,0.48l0.06,0.03l0.09,-0.07l0.13,-0.37l0.14,-0.14l0.05,0.04l0.78,0.7l0.07,-0.01l0.08,-0.03l0.05,-0.11l0.06,-0.24l0.12,-0.26l0.25,-0.15l0.2,-0.03l0.07,0.12l0.17,0.17l0.21,0.02l0.44,-0.3l0.14,-0.05l0.15,0.01l0.16,-0.01l0.15,-0.12l0.16,-0.15l0.05,-0.3l0.03,-0.27l0.11,-0.11l0.13,-0.07l0.24,-0.1l0.54,-0.26l0.14,-0.13l0.1,-0.07l0.21,0.11l0.25,0.22l0.15,0.17l0.1,0.18l0.05,0.15l0.4,0.13l0.26,0.18l0.17,0.14l0.17,-0.01l0.17,-0.04l0.11,-0.11l0.19,0l0.22,0.02l0.1,0.05l0.18,0.26l0.08,0.04l0.17,-0.02l0.32,-0.09l0.25,-0.04l0.23,0.1l0.44,0.29l-0.12,0.21l-0.1,0.22l-0.19,0.16l-0.14,0.04l-0.09,0.22l-0.04,0.32l0.05,0.16l0.11,0.05l0.12,0.11l0.05,0.14l0.02,0.32l-0.01,0.36l0.02,0.12l0.09,-0.02l0.09,-0.04l0.18,0.06l0.23,0.09l0.14,0.09l0.13,-0.01l0.1,0.09l0.04,0.18l0.12,0.12l0.33,0.23l0.26,0.02l0.22,0.31l0.23,-0.1l0.11,0.13l0.48,-0.05l0.33,-0.12l0.12,0.03l0.3,0.25l0.18,0.16l0.27,-0.05l0.22,-0.12l0.28,0.02l0.16,-0.19l0.06,-0.21l0.08,-0.01l0.08,0.05l0.17,0.22l0.16,-0.08l0.07,-0.11l-0.09,-0.2l-0.03,-0.27l0,-0.23l0.32,0.01l0.06,0.1l-0.07,0.16l0.07,0.14l0.17,0.14l0.2,0.22l0.08,0.06l0.21,-0.01l0.21,0.03l0.31,-0.01l0.2,0.11l0.09,0.14l-0.1,0.17l-0.05,0.14l0.19,0.04l0.2,-0.05l0.35,-0.03l0.25,-0.08l0.3,-0.18l-0.06,-0.47l0.13,0.01l0.08,0.06l0.26,0.44l0.16,-0.01l0.04,-0.1l0.2,0.23l0.28,0.01l-0.03,0.31l-0.4,0.12l-0.05,0.33l-0.22,0.29l0.07,0.24l-0.12,0.41l0.06,0.13l0.12,0.1l0.12,0.17l0.11,0.21l-0.04,0.27l0.19,0.32l0.24,0.12l0.06,0.08l0.04,0.13l-0.15,0.01l-0.13,-0.04l-0.01,0.15l0.16,0.21l0.52,0.09l0.62,-0.09l0.29,-0.18l0.1,-0.21l0.09,-0.1l-0.02,-0.17l-0.56,-0.46l0.04,-0.14l0.12,-0.1l0.05,-0.11l-0.06,-0.14l-0.52,-0.06l-0.07,-0.26l0.11,-0.28l0.39,-0.28l0.12,-0.12l0.06,-0.23l0.04,-0.27l0.07,0.03l0.07,0.29l0.13,0.07l0.18,-0.02l0.24,-0.19l0.33,-0.32l0.3,-0.03l0.33,-0.1l0.06,-0.24l0.12,0l0.11,0.08l0.12,0.01l0.21,-0.04l0.28,0.02l0.21,-0.15l0.59,-0.07l0.22,-0.15l0.08,-0.14l0.18,-0.19l0.14,0.03l0.14,-0.02l0.15,-0.18l0.05,-0.22l0.23,0.02l0.26,0.11l0.21,0.13l0.31,0.06l0.14,-0.08l0.09,-0.1l-0.03,-0.35l-0.05,-0.18l0.1,-0.01l0.09,0.07l0.03,0.09l-0.05,0.14l0.21,0.19l0.26,0.13l0.13,-0.13l0.08,-0.12l0.18,-0.13l0.23,-0.13l0.27,0.19l0.14,-0.08l0.08,-0.09l0.07,-0.54l0.23,-0.27l0.17,0.4l0.33,-0.04l0.17,-0.17l0.11,-0.06l0.14,-0.04l0.16,-0.05l0.02,0l0.01,-0.07l0.04,-0.07l0.09,-0.01l0.06,0.07l0.01,0l0.08,-0.22l0.04,-0.16l-0.11,-0.16l0,-0.57l-0.19,-0.3l-0.1,-0.1l-0.05,-0.19l-0.24,-0.23l-0.02,-0.07l-0.02,-0.07l0.31,-0.09l0.05,-0.17l-0.04,-0.18l0.21,-0.14l0.28,-0.08l-0.08,0.15l-0.02,0.17l0.05,0.16l0.04,0.33l0.12,0.18l0.26,0.21l0.21,0.38l0.29,0.23l0.24,0.06l0.01,-0.01l0.09,-0.09l0.13,-0.02l0.07,-0.04h0.18l0.11,0.03l0.11,0.04l0.21,-0.16l0.22,0.03l0.21,0.17l0.16,-0.01l-0.03,-0.28l0.08,-0.1l0.06,-0.13l0.17,-0.17l0.17,0.05l0.11,0.34l0.29,0.03l0.12,-0.07l0.05,-0.14l0.27,-0.07l0.22,-0.22l0.29,-0.11l0.26,0.13l0.26,0.17h0.32l0.1,-0.14l0.07,-0.18l0.22,-0.09l0.32,0.09l0.27,0.07l0.59,-0.23l0.27,-0.03l0.14,-0.09l0.04,-0.09l0.08,-0.1l0.26,0.12l0.35,-0.01l0.14,-0.18l0.05,-0.52l0.13,-0.12l0.23,-0.03l0.08,-0.15l-0.05,-0.15l-0.15,-0.08l0.23,-0.02l0.13,-0.07l0.28,-0.21l0.14,-0.59l0.34,0.07l0.14,0.14l0.18,-0.06l0.22,-0.15l0.18,-0.21l0.11,0.02l0.04,0.22l0.06,0.14l0.14,-0.1l0.13,-0.35l-0.01,-0.11l-0.07,-0.06l0.09,-0.15l0.32,-0.05l0.14,0.06l0.11,-0.31l0.21,-0.23l0.27,0.01l0.18,-0.29l0.43,-0.43l-0.02,-0.25l-0.07,-0.16l-0.41,-0.05l-0.09,-0.11l-0.02,-0.13l0.15,-0.02l0.11,0.02l0.2,-0.02l0.02,-0.24l0.21,-0.21l0.3,0l0.28,0.16l0.33,-0.09l0.42,0.06l0.27,-0.13l0.17,-0.38l-0.08,-0.11l-0.14,-0.08l-0.01,-0.08l0.2,-0.04l0.32,-0.19l0.24,-0.05l0.13,-0.23l-0.12,-0.38l0.18,-0.25l0.13,-0.04l0.59,0.05l0.14,-0.08l-0.12,-0.23l-0.21,-0.15l-0.06,-0.18l0.09,-0.11l0.23,-0.06l0.23,0.07l0.22,-0.04l0.22,0.16l0.26,0.13l0.08,-0.07l-0.01,-0.14l-0.22,-0.48l0.04,-0.33l0.18,-0.38l0.09,-0.3l-0.08,-0.26l-0.33,-0.02l-0.23,0.17l-0.24,0.02l-0.19,-0.08l-0.35,-0.46l0.26,0.05l0.23,0.13l0.16,0.03l0.26,0l0.29,-0.23l0.35,-0.34l0.29,-0.2l0.24,-0.11l-0.01,-0.11l-0.1,-0.13l-0.03,-0.11l-0.13,-0.3l-0.17,-0.2l-0.25,-0.04l-0.04,-0.17l-0.09,-0.17l0,-0.17l0.18,0.12l0.17,0.06l0.16,-0.14l0.06,-0.18l0.1,-0.05l-0.03,0.15l0.02,0.19l0.06,0.15l0.1,0.02l0.01,0.23l0.24,0.08l0.21,-0.15l0.12,-0.12l0.03,-0.34l0.12,-0.33l0.39,-0.66l0.3,-0.18l0.24,-0.32l0.2,-0.19l0.19,-0.3l0.06,-0.22l-0.12,-0.31l0.22,-0.19l-0.01,-0.15l0.07,-0.18l0.41,-0.46v-0.15l-0.19,-0.13l-0.04,-0.1l0.18,-0.01l0.22,0.03l0.19,-0.1l0.22,-0.38l0.18,-0.42l0.13,-0.11l0.2,-0.06l0.16,0.39l0.23,-0.02l0.44,-0.3l0.28,0.1l-0.02,-0.24l-0.18,-0.49l-0.18,-0.38l0.12,-0.23l0.2,-0.07l0.11,-0.1l0.09,-0.27l-0.34,-0.26l0.28,0.05l0.11,-0.12l-0.04,-0.18l-0.4,-0.34l-0.21,-0.04l0.11,-0.2l0.13,-0.14l0.34,0l0.17,-0.06l0.21,0.1l0.18,0.31l0.18,-0.02l0.14,-1.14l-0.08,-0.37l-0.15,-0.07l-0.19,0.07l-0.37,0.3l-0.52,0.08l0.19,-0.17l0.29,-0.15l0.64,-0.63l0.5,-0.29l-0.18,-0.06l-0.21,-0.02l-0.37,-0.19l-0.38,-0.09l-0.69,-0.8l-0.26,-0.18l-0.23,-0.07l-0.28,0.01l-0.71,0.46l-0.76,0.09l-0.39,-0.55l-0.4,0.18l-0.26,-0.05l-0.09,0.04l-0.09,0.03l0.14,-0.14l0.57,-0.34l0.51,-0.01l0.54,0.12l0.21,-0.12l0.11,-0.25l0.17,-0.29l0.88,-0.46l0.31,-0.29l0.3,-0.17l0.42,-0.07l0.26,-0.02l0.3,-0.15l-0.12,-0.47l-0.14,-0.33l-0.35,-0.51l-0.87,-0.54l-0.41,-0.47l-0.42,-0.3l-0.33,-0.1l-0.42,-0.23l-0.1,-0.34l-0.1,-0.2l-0.61,-0.12l-0.42,0.22l-0.44,0.15l-0.44,-0.1l0.11,-0.08l0.07,-0.05l0.24,0.03l0.94,-0.46l0.39,0.08l0.37,0.16l0.51,0.53l0.48,0.09l0.34,-0.07l0.24,0.01l0.92,0.48l0.23,0.04l0.29,-0.01l-0.03,-0.37l-0.07,-0.27l-0.23,-0.31l-0.22,-0.19l-0.52,-0.23l-0.11,-0.11l-0.13,-0.17l-0.01,-0.55l-0.17,-0.18l-0.14,-0.11l-0.85,-0.36l-0.38,-0.31l0,-0.34l0.12,-0.26l-0.07,-0.58l-0.38,-0.73l-0.33,-0.85l-0.31,-0.49l-0.01,-0.26l-0.21,-0.5l-0.29,-1.02l-0.16,-0.35l-0.18,-0.17l-0.67,-0.41l-0.54,-0.16l-0.52,-0.29l-0.44,-0.45l-0.21,-0.12l-0.42,0l-0.1,-0.34l0.14,-0.56l0.38,-0.35l0.21,-0.64l0.27,-0.2l0.23,-0.38l0.31,-0.41l0.25,-0.1l0.16,-0.09l0.13,-0.17l0.19,-0.16l0.14,-0.2l0.08,-0.21l0.46,-0.25l0.18,-0.17l-0.06,-0.08l-0.23,-0.04l-0.25,-0.35l0.06,-0.11l0.19,-0.18l0.24,-0.08l0.16,-0.01l0.04,0.13l-0.04,0.27l0.05,0.11l0.13,0.09l0.35,-0.19l0.33,-0.07l0.12,-0.13l0,-0.6l0.08,-0.25l0.18,-0.15l0.2,0.1l0.14,-0.06l0.03,-0.14l-0.06,-0.19l-0.24,-0.24l0.04,-0.09l0.19,-0.01l0.31,0.13l0.18,-0.05l0.25,-0.17l0.75,-0.27l0.72,-0.34l0.74,-0.43l0.33,-0.04l0.32,0.04l0.11,0.11l0.05,0.17l0.06,0.1l0.09,0.06l0.19,0.01l0.33,-0.29l0.18,-0.11l0.01,-0.2l-0.1,-0.07l-0.11,-0.16l0.19,-0.24l0.2,-0.15l-0.04,-0.48l0.26,-0.3l-0.18,-0.08l-0.31,0.06l-0.44,0.01l-0.47,-0.18l-0.17,-0.23l-0.15,-0.02l-0.13,0.12l-0.13,0.18l-0.42,-0.04l-0.49,-0.01l-0.38,-0.19l-0.33,-0.23l-0.47,-0.07l-0.48,-0.44l-0.84,-0.38l-1.07,0.47l-0.24,0.03l-0.08,0.05l0.08,0.08l0.07,0.12l-0.44,0.45l-0.77,0.51l-0.01,0.19l0.02,0.15l-0.36,0.35l-0.87,0.11l-0.46,-0.05l-0.49,-0.22l-0.32,-0.27l-0.13,-0.19l0.01,-0.57l0.1,-0.52l0.12,-0.07l0.16,-0.14l-0.05,-0.17l-0.09,-0.1l-0.01,-0.12l-0.02,-0.34l-0.25,-0.49l-0.39,-0.3l-0.37,0l-0.35,0.11l-1.48,-0.31l-0.7,-0.46l-0.31,-0.4l-0.28,-0.72l-0.01,-0.24l0.18,-0.58l0.47,-1.01l0.23,-0.2l0.49,-0.13l0.3,0.11l0.42,0.46l0.49,-0.18l0.43,-0.21l0.35,0.06l0.21,-0.04l0.24,0.02l0.18,-0.06l0.18,-0.14l0.52,-0.67l0.1,-0.55l0.17,-0.37l0.19,-0.33l0.56,-0.55l0.73,-0.31l1.46,-0.79l0.31,-0.1l0.82,-1.31l0.2,-0.22l0.23,-0.13l0.23,-0.24l0.23,-0.34l0.25,-0.22l1.02,0.08l0.17,0.13l0.37,-0.01l0.1,-0.11l0.12,-0.34l0.07,-0.02l0.07,0.49l0.79,0.57l0.11,0.31l0.27,0.22l-0.03,0.15l-0.17,0.38l-0.04,0.14l-0.58,0.81l-0.32,0.33l-0.19,0.35l-0.8,0.39l-0.12,0.33l0.11,0.25l0.01,0.17l-0.13,0l-0.18,0.07l-0.39,0.28l0.05,0.09l0.04,0.24l-0.07,0.24l0.23,0.03l0.44,0.01l0.77,-0.09l0.09,0.05l-0.17,0.14l-0.26,0.28l-0.1,0.18l0.15,0.4l-1.17,0.53l-0.21,0.05l-0.23,0.09l0.04,0.39l0.12,0.29l0.12,-0.04l0.08,-0.08l0.23,-0.15l0.55,-0.08l0.37,-0.12l0.06,-0.1l-0.11,-0.23l0.13,-0.17l0.19,-0.02l0.17,0.07l0.17,-0.02l0.16,-0.14l0.17,-0.06l0.18,-0.15l0.21,-0.21l0.29,-0.42l0.31,-0.36l1.42,-0.85l0.34,-0.07l0.2,-0.19l0.54,-0.05l0.12,-0.15l0.22,-0.13l0.4,-0.02l0.25,-0.07l0.09,-0.2l0.11,-0.15l0.31,0.22l0.97,-0.07l0.45,-0.3l0.23,-0.32l0.03,0.03l0.07,-0.37l0.26,-0.28l0.65,-0.5l0.17,-0.24l0.33,-0.28l0.15,0.01l0.15,-0.02l0.05,-0.12l0.04,-0.1l0.13,-0.09l0.32,-0.15l0.36,-0.2l0.29,-0.06l0.35,-0.3l0.14,-0.13h0.14l0.04,-0.06l0.08,-0.16l0.11,-0.1l0.16,-0.02l0.25,-0.07l0.32,-0.05l0.22,-0.26l0.07,-0.18l0.14,-0.2l0.31,-0.22l0.21,-0.33l0.23,-0.36l0.11,-0.11l0.11,-0.02l0.06,-0.13l0.08,-0.38l0.11,-0.37l0.06,-0.17l0.27,-0.19l0.07,-0.09l0.06,-0.03l0.13,0.02l0.17,-0.11l0.16,-0.12l0.14,0.04l0.15,0.1l0.15,0.2l0.07,0.16l0.12,0.14l0.02,0.2l0.12,0.09l0.26,0.04l0.42,0.13l0.27,0.01l0.16,0.1l0.32,0.05l0.65,-0.08l0.26,0.05l0.11,0.12l0.16,0.1l0.11,0.01l0.14,-0.17l0.15,-0.27l0.1,-0.21l0,-0.17l-0.09,-0.18l-0.21,-0.17l-0.14,-0.26l-0.13,-0.27l-0.08,-0.09l-0.06,-0.13l-0.01,-0.2l0.05,-0.14l0.32,-0.09l0.41,-0.05l0.33,0.06l0.56,-0.04l0.34,-0.08l0.25,0.01l0.23,0l0.1,-0.12l0.33,-0.28l0.16,-0.1l0.17,-0.19l0.03,-0.2l0.04,-0.16l0.1,-0.17l0.17,-0.21l0.15,-0.1l0.16,0.01l0.17,0.1l0.11,0.1l0.12,-0.03l0.1,-0.17l0.07,-0.03l0.2,-0.01l0.06,-0.1l0.08,-0.49l0.08,-0.39l0.02,-0.27l0.17,-0.45l0.06,-0.27l0.1,-0.13l0.12,0.01l0.1,0.08l0.13,0.05l0.17,-0.04l0.12,0.07l0.07,0.15l0.25,0.1l0.02,0.07l-0.01,0.49l0.14,0.23l0.18,0.21l0.25,0.19l0.13,0.04l0.08,0.13l0.16,-0.12l-0.02,-0.21l-0.16,-0.19l-0.23,-0.04l-0.05,-0.05l0.01,-0.1l0.08,-0.11l0.11,-0.09l0.24,-0.12l0.41,-0.09l0.23,-0.08l0.18,-0.02l0.21,0.04l0.18,-0.12l0.18,-0.07l0.04,-0.21l0.01,-0.31l0.06,-0.09l0.07,-0.13l0.11,-0.17l0.1,-0.44l0.08,-0.31l0.05,-0.16l0.01,-0.21l-0.05,-0.14l-0.1,-0.08l-0.08,-0.06l-0.01,-0.24l0.01,-0.32l-0.03,-0.21l0.11,-1.16l0.12,-0.27l-0.36,-1.55l-0.11,-0.5l-0.07,-0.25l-0.16,-0.37l-0.1,-0.18l0.04,-0.17l0.14,-0.18l0.14,-0.08l0.41,-0.04l0.11,-0.06l0.5,-0.19l0.11,-0.12l0.26,-0.28l0.1,-0.21l0.11,-0.27l0.25,-0.15l0.15,-0.25l0.16,-0.09l0.16,0.21l0.19,0.12l0.25,0.07l0.32,0.09l0.51,0.17l0.52,0.15l0.33,0.12l0.16,0.05l0.32,0.08l0.14,0.06l0.13,0.06l0.21,-0.18l0.29,-0.22l-0.05,-0.36l0.05,-0.4l0.2,-0.69l0.23,-0.2l0.12,-0.03l0.13,-0.08l0.23,-0.13l0.08,-0.19l-0.05,-0.22l0.08,-0.21l0.02,-0.21l0.08,-0.27l0.11,-0.08l0.16,-0.09l0.11,-0.14l0.11,-0.22l0.07,-0.24l-0.03,-0.28l0.14,-0.19l0.23,-0.16l0.08,-0.09l0.04,-0.25l0.02,-0.11l0.06,-0.13l-0.04,-0.26l-0.06,-0.28l0.25,-0.47l0.18,-0.4l0.04,-0.59l0.02,-0.1l0.07,-0.28l0.04,-0.11l0.14,-0.37l0.18,-0.24l-0.04,-0.27l-0.07,-0.27l0.01,-0.18l0.16,-0.21l0.1,-0.1l0.09,-0.15l0.14,-0.07l0.12,-0.04l0.28,-0.04l0.16,-0.16l0.15,-0.16l0.28,-0.42l0.09,-0.25l0.07,-0.13L853.73,310.34zM816.9,369.56l-0.1,-0.12l-0.14,-0.06l-0.08,-0.21l-0.35,-0.13l-0.36,-0.03l0.04,0.16l0.31,0.38l0.52,0.31l0.73,0.28l0.23,-0.09l-0.05,-0.11l-0.1,-0.08L816.9,369.56zM794.14,397.02l-0.17,0l0.06,0.13l0.1,0.08l0.06,0.01l0.22,0.21l-0.02,-0.14l-0.1,-0.14L794.14,397.02zM819.08,375.02l-0.05,0.07l0.1,0.26l0.08,0.02l0.03,-0.15l-0.01,-0.19L819.08,375.02zM818.4,374.43l-0.4,-0.01l0.02,0.26l0.13,0.16l0.38,0.04l0.35,0.19l0.04,-0.06l0.07,-0.22l-0.11,-0.12L818.4,374.43zM818.43,375.58l-0.16,0.03l-0.05,0.12l0.12,0.03l0.24,0.21l0.01,-0.06l-0.02,-0.07L818.43,375.58z"/>-->
                    <path id="HK" style="stroke-width:0.2;fill:lightgrey" data-name="Hong Kong" class="land" d="M796.39,398.12l0.01,0.01l0.06,0.11l-0.02,0.13l0.11,0.06l0.03,0.12l-0.13,0.07l-0.01,0.15l-0.06,0.09l-0.36,-0.16l-0.3,-0.08l-0.27,0.03l-0.1,-0.09l-0.02,-0.1l0.31,-0.17l0.02,-0.08l0.01,-0.01l0.09,-0.09l0.13,-0.02l0.07,-0.04h0.18l0.11,0.03L796.39,398.12zM795.63,399.12h-0.34l-0.07,-0.03l-0.04,-0.06l0.12,-0.12l0.46,-0.16l-0.11,0.17L795.63,399.12zM796.29,399.12l-0.07,0.05l-0.19,-0.22l-0.01,-0.07l0.15,-0.01l0.17,0.1l-0.01,0.09L796.29,399.12z"/>
                    <path id="JP" style="stroke-width:0.2;fill:lightgrey" data-name="Japan" class="land" d="M879.34,325.17l0.35,0.02l0.16,-0.02l0.27,0.06l1.07,0.59l0.32,0.08l0.33,0.01l0.23,-0.05l0.21,-0.16l0.64,-0.72l0.68,-0.66l0.08,0.03v0.18l-0.05,0.2l-0.3,0.6l-0.33,0.8l-0.07,0.41l0.11,0.4l0.21,0.33l0.17,0.44l0.19,0.62l0.27,0.08l0.15,0.01l0.27,-0.18l0.25,-0.23l0.22,-0.03l0.23,0.04l-0.3,0.16l-0.28,0.2l-0.24,0.38l-0.09,0.07l-0.28,-0.02l-0.16,0.01l-0.33,0.16l-0.29,0.18l-0.28,0.22l-0.3,0.12l-0.32,0.03l-0.5,0.18l-0.32,0.01l-0.6,-0.16l-0.29,0.04l-0.64,0.35l-0.58,0.51l-0.51,0.57l-0.42,0.68l-0.17,0.35l-0.1,0.4l-0.01,0.26l-0.04,0.25l-0.1,0.18l-0.12,0.14l-0.35,-0.08l-0.58,-0.36l-1.12,-0.53l-1.18,-0.81l-0.66,-0.41l-1.25,0.12l-1.18,0.78l-0.11,-0.07l-0.45,-0.53l-0.22,-0.21l-0.26,-0.06l-0.19,0.01l-0.19,0.04l-0.27,0.27l-0.1,0.2l-0.08,0.22l-0.02,0.16l0.03,0.15l0.25,0.35l0.31,0.26l0.14,0.05l0.3,-0.02l0.14,0.03l0.5,0.52l0.55,0.49l0.12,0.16l-0.2,0.17l-0.22,0.08l-0.26,-0.02l-0.26,-0.06l-0.44,-0.21l-0.19,0.18l-0.29,0.36l-0.16,0.39l-0.13,0.18l-0.32,0.24l-0.34,0.12l-0.18,-0.04l-0.14,-0.15l-0.08,-0.18l-0.04,-0.21l0.07,-0.45l0.18,-0.4l0.07,-0.41l-0.14,-0.58l-0.09,-0.12l-0.36,-0.34l-0.17,-0.33l-0.04,-0.41l0.02,-0.23l0.09,-0.51l0.09,-0.26l0.17,-0.08l0.18,-0.05l0.28,-0.18l0.31,-0.24l0.29,-0.27l0.29,-0.33l0.15,-0.37l-0.25,-0.45l-0.05,-0.27l0.04,-0.25l0.27,-0.13l0.27,0.1l0.55,0.37l0.11,0.04l0.38,0.02l0.52,0.08l0.3,-0.02l0.14,-0.06l0.22,-0.31l0.11,-0.39l-0.04,-0.5l0,-0.5l0.14,-0.41l0.43,-0.66l0.12,-0.39l0.04,-0.95l0.16,-0.42l0.13,-0.44l0.06,-0.92l-0.18,-0.89l-0.18,-0.44l-0.2,-0.42l0.03,-0.4l0.17,-0.37l0,-0.11l0.04,-0.1l0.31,-0.07l0.14,-0.08l0.14,-0.18l0.17,-0.1l0.12,0.1l0.1,0.18l0.44,0.45l0.69,0.8l0.81,1.21l0.51,0.59l0.53,0.53l0.6,0.54l0.63,0.47l0.4,0.22l0.29,0.35L879.34,325.17zM871.62,320.39l-0.11,0.25l-0.15,-0.38l-0.03,-0.41l0.08,0l0.15,0.06l0.04,0.2L871.62,320.39zM872.24,321.24l-0.19,0.03l-0.23,-0.17l-0.03,-0.21l0.16,-0.17l0.16,0.06l0.16,0.21l0.05,0.11L872.24,321.24zM867.15,332.97l-0.06,0.02l-0.07,-0.03l-0.07,-0.29l0.06,-0.15l0.18,-0.11l0.18,-0.03l-0.15,0.52L867.15,332.97zM872.06,335.63l0.11,0.07l0.52,-0.19l-0.1,0.57l-0.06,0.58l0.04,0.95l0.05,0.43l0.09,0.41l0.22,0.3l0.29,0.21l0.42,0.67l0.23,0.82l0.16,0.4l0.12,0.42l0.04,0.19l0,0.19l-0.04,0.26l0.04,0.21l-0.05,0.66l-0.19,0.76l-0.02,0.39l-0.17,0.08l-0.1,0.18l-0.08,0.08l-0.09,0.06l-0.14,0.02l-0.1,0.07l-0.04,0.2l-0.06,0.19l-0.12,0.17l-0.09,0.19l-0.08,0.47l-0.03,0.48l-0.12,0.33l-0.28,0.09l-0.32,-0.01l-0.41,0.15l-0.09,0.09l-0.32,0.58l-0.09,0.34l0,0.37l0.09,0.45l0.12,0.44l0.09,0.82l-0.1,1.24l-0.09,0.39l-0.21,0.27l-0.16,0.12l-0.13,0.15l-0.17,0.4l-0.29,0.8l-0.02,0.2l0,0.21l-0.08,0.27l-0.05,0.27l0.05,0.31l0.09,0.29l0.39,0.74l0.15,0.22l0.17,0.2l-0.66,0.22l-0.12,0.1l-0.39,0.42l-0.13,0.4l0.01,0.44l-0.07,0.16l-0.11,0.14l-0.11,0.09l-0.44,0.2l-0.28,0.2l-0.28,0.31l-0.11,0.16l-0.21,-0.05l-0.13,-0.14l0.12,-0.18l-0.04,-0.21l0.06,-0.55l-0.07,-0.22l0.22,-0.17l0.11,-0.27l0.23,-0.21l0.17,-0.19l0.03,-0.15l-0.15,-0.17l-0.16,-0.12l-0.22,0l-0.21,0.04l-0.14,0.16l-0.04,0.21l0.01,0.1l-0.02,0.09l-0.33,0.29l0.04,0.31l0.1,0.16l0.12,0.07l-0.04,0.11l-0.16,0.25l-0.11,0.02l-0.2,-0.35l-0.25,-0.19l-0.31,0l-0.32,0.07l-0.24,0.23l-0.08,0.19l-0.05,0.2l0.02,0.48l-0.1,0.4l-0.2,0.35l-0.09,0.13l-0.24,0.24l-0.17,0.03l-0.12,-0.11l-0.1,-0.16l0.12,-0.6l0,-0.34l0.28,-0.17l-0.23,-0.24l-0.28,-0.1l-0.4,0.13l-0.11,0.14l-0.08,0.19l-0.21,0.25l-0.24,0.23l-0.27,0.39l-0.18,0.46l-0.59,-0.15l-0.32,-0.03l-0.33,0.01l-0.58,-0.06l-0.63,0.09l-0.72,0.18l0.04,-0.13l0.59,-0.28l0.02,-0.08l-0.06,-0.15l-0.15,-0.01l-0.35,0.05l-0.18,-0.02l-0.07,-0.16l-0.12,-0.07l-0.08,0.07l0.03,0.32l-0.09,0.04l-0.12,-0.08l0.04,-0.25l-0.08,-0.36l-0.01,-0.23l0.12,-0.19l-0.13,-0.08l-0.13,0.03l-0.17,0.09l-0.15,0.13l-0.32,0.66l-0.12,0.38l0.23,0.3l0.63,0.42l0.11,0.1l0,0.18l-0.08,0.19l-0.17,0.08l-0.7,0.14l-0.6,0.27l-0.17,0.28l-0.55,1.07l-0.44,0.73l-0.62,0.25l-0.68,-0.22l-0.17,-0.25l-0.13,-0.31l-0.25,-0.28l-0.23,-0.31l-0.13,-0.37l0.02,-0.59l-0.1,-0.36l0.09,-0.1l0.38,-0.22l0.12,-0.12l0.21,-0.28l0.08,-0.16l0.01,-0.24l-0.17,-0.13l-0.44,0l-0.44,0.07l-0.31,-0.1l-0.41,-0.29l-0.13,-0.06l-0.44,-0.02l-0.31,0.05l-0.31,0.11l-0.33,0.03l-0.11,0.05l-0.38,0.36l-0.3,0.22l-0.26,0.11l-0.56,0.03l-0.28,0.07l-0.29,0.12l-0.08,-0.01l-0.31,0.16l-0.35,0.14l-0.19,0.14l-0.35,-0.09l-0.69,0.25l-0.33,0.03l-0.34,-0.14l-0.32,-0.22l-0.3,0.1l-0.21,0.33l-0.1,0.66l-0.12,0.3l-0.04,0.35l-0.16,-0.06l-0.92,-0.64l-0.06,-0.02l-0.74,0.11l-0.19,0.05l-0.24,0.13l-0.25,0.06l-0.23,-0.09l-0.22,-0.15l-0.21,0.04l-0.22,0.11l-0.08,-0.97l0.04,-0.13l0.13,-0.17l0.15,-0.15l0.36,-0.05l0.36,0.05l0.26,-0.07l0.22,-0.19l0.23,-0.27l0.26,-0.22l0.35,-0.18l0.34,-0.2l0.3,-0.28l0.29,-0.31l0.26,-0.23l0.29,-0.19l0.43,-0.46l0.58,-0.52l0.22,-0.38l0.14,-0.11l0.5,-0.21l0.66,-0.16l0.31,0.01l0.31,0.34l0.17,-0.05l0.17,-0.09l0.34,-0.05l0.35,0.06l0.34,0l0.34,-0.04l0.65,-0.11l0.34,-0.13l0.34,-0.17l1.2,-0.12l0.82,-0.29l0.13,0.02l0.13,0.07l0.01,0.21l-0.1,0.23l0.1,0.14l0.17,0.09l0.77,0.03l0.22,0.05l0.32,-0.16l0.3,-0.2l0.32,-0.26l0.22,-0.29l-0.21,-0.37l-0.04,-0.4l0.17,-0.44l0.25,-0.37l0.3,-0.22l0.27,-0.26l0.55,-0.73l0.4,-0.59l0.14,-0.73l-0.08,-0.87l0.35,-0.65l0.33,-0.11l0.66,-0.3l0.35,-0.09l0.05,0.13l-0.01,0.17l-0.52,0.54l-0.3,0.22l-0.18,0.07l-0.16,0.1l-0.07,0.19l0.27,0.32l0.07,0.23l-0.02,0.23l0.01,0.2l0.3,0.22l0.34,0.07l0.14,0l0.13,-0.06l0.39,-0.54l0.09,-0.09l1.12,-0.4l0.55,-0.3l0.3,-0.08l0.29,-0.16l0.64,-0.61l0.24,-0.28l0.21,-0.31l0.17,-0.36l0.14,-0.39l0.19,-0.25l1.02,-0.58l0.33,-0.32l0.1,-0.15l0.13,-0.45l0.09,-0.47l0.12,-0.37l0.17,-0.34l0.22,-0.35l0.25,-0.33l0.15,-0.34l0.22,-0.8l0.09,-0.45l0.07,-0.16l0.11,-0.14l0.09,-0.17l0.07,-0.19l0.03,-0.19l0.05,-0.58l-0.03,-0.45l-0.17,-0.39l-0.14,-0.11l-0.15,-0.01l-0.23,0.03l-0.19,-0.16l0.04,-0.14l0.2,-0.03l0.13,-0.07l0.1,-0.13l0.18,-0.42l0.11,-0.45l0.01,-0.2l-0.14,-0.37l-0.11,-0.44l0,-0.24l0.12,-0.27l0.18,-0.22l0.16,-0.05l0.17,-0.02l0.16,-0.09l0.14,-0.13l0.08,-0.14l0.13,-0.38l0.05,-0.21l-0.08,-0.58l0.08,-0.16l0.12,-0.1l0.16,0.07l0.16,0.02l0.19,-0.02l0.18,0.06l0.03,0.15l0.11,0.97l0.06,0.13l0.13,0.1l0.15,-0.01l0.13,-0.15l0.08,-0.2l0.17,-0.04l0.51,0.22l0.18,-0.15l0.12,-0.24l0.1,-0.42l-0.05,-0.38l-0.12,-0.14l-0.13,0.03l-0.11,0.11l-0.13,0.06l-0.76,0.2l0,-0.43l0.16,-0.64l0.09,-0.2l0.13,-0.1l0.32,0.11l0.16,0.07L872.06,335.63zM863.96,348.51l-0.27,0.01l-0.07,-0.03l0.16,-0.09l0.01,-0.15l0.1,-0.26l0,-0.08l-0.21,-0.01l0.01,-0.3l0.16,-0.29l0.43,-0.46l0.12,-0.09l0.02,0.2l-0.13,0.48l-0.03,0.17l0.34,0.04l-0.22,0.57L863.96,348.51zM850,354.18l-0.13,0.13l-0.24,-0.04l-0.14,-0.19l0.05,-0.21l0.25,-0.16l0.24,0.32L850,354.18zM867.08,359.24l-0.03,0.16l-0.15,-0.04l-0.07,-0.1l0.01,-0.19l0.16,0L867.08,359.24zM838.82,360.51l-0.06,0.16l-0.19,-0.12l-0.09,-0.1l0.18,-0.51l-0.02,-0.2l0.01,-0.09l0.35,-0.27l0.06,0.05l0.02,0.07l-0.03,0.12l0.02,0.25l-0.26,0.42L838.82,360.51zM854.39,360.73l-0.3,0.29l-0.26,-0.02l-0.13,-0.13l-0.04,-0.16l0.25,-0.25l0.22,-0.35l0.2,-0.16l0.16,-0.09l0.12,0l-0.28,0.49L854.39,360.73zM852.76,360.07l-0.05,0.07l-0.05,-0.02l-0.18,0.16l-0.04,-0.15l-0.14,-0.1l-0.02,-0.08l0.4,-0.05l0.13,0.04L852.76,360.07zM852.77,360.84l0.39,0.14l0.4,-0.04l-0.01,0.62l0.06,0.21l0.11,0.19l-0.06,0.27l0.18,0.09l-0.53,0.31l-0.48,0.41l-0.2,0.27l-0.18,0.29l-0.1,0.31l-0.07,0.33l-0.16,-0.13l-0.46,-0.54l-0.29,-0.15l-0.47,-0.08l-0.15,0.02l-0.97,0.51l-0.13,0.37l-0.26,0.56l-0.13,0.18l-0.14,0.05l-0.1,0.1l-0.11,0.47l-0.3,0.29l-0.18,0.01l-0.31,-0.08l-0.14,0.04l0.19,-0.47l-0.3,-0.06l-0.3,0.01l-0.01,-0.3l-0.18,-0.17l0.13,-0.22l0,-0.18l0.08,-0.1l0.03,-0.15l-0.01,-0.13l-0.18,-0.04l-0.11,-0.09l0.02,-0.33l-0.11,-0.01l-0.26,0.06l-0.55,0.26l-0.15,0l0.23,-0.18l0.49,-0.25l0.22,-0.14l0.48,-0.4l0.3,-0.19l0.16,-0.34l0.05,-0.21l0.1,-0.18l0.09,-0.29l0.15,-0.1l0.27,-0.25l0.15,0.02l0.17,0.31l0.23,0.24l0.17,-0.02l0.3,-0.12l0.14,-0.03l0.34,0.01l0.31,-0.15l0.13,-0.18l0.05,-0.22l-0.12,-0.37l0.15,0.04l0.14,-0.02l0.33,-0.23l0.34,-0.14l0.36,-0.04l0.4,0.13L852.77,360.84zM838.52,361.29l-0.18,0.14l-0.08,-0.21l0.08,-0.59l0.34,0.12l-0.01,0.18L838.52,361.29zM847.78,361.31l-0.08,0.14l-0.25,-0.04l0.1,-0.12l0.08,-0.14l0.06,-0.03l0.05,0.15L847.78,361.31zM846.9,361.89l0.14,0.12l0.33,-0.05l0.04,0.03l-0.09,0.11l-0.14,0.11l-0.26,-0.08l-0.16,0l-0.02,-0.19l0.02,-0.07L846.9,361.89zM843.84,363.04l0.38,0.1l0.16,0.01l0.15,-0.05l0.23,-0.13l0.24,-0.1l0.17,0.05l0.15,0.12l0.08,0.16l-0.04,0.17l-0.27,0.37l-0.22,0.39l0.5,0.07l0.5,-0.01l-0.12,0.24l-0.02,0.21l0.15,0.1l0.13,0.14l-0.03,0.12l-0.08,0.12l0.28,0.18l-0.02,0.12l-0.07,0.13l-0.69,0.83l-0.2,0.42l-0.14,0.46l-0.13,0.34l-0.09,0.35l-0.07,0.38l-0.13,0.39l0.04,0.35l-0.04,0.35l-0.34,0.87l-0.25,-0.02l-0.31,-0.11l-0.19,0.02l-0.1,0.19l0.18,0.4l-0.55,0.47l-0.61,0.32l0,-0.14l0.06,-0.11l0.09,-0.09l0.06,-0.11l0.09,-0.37l-0.04,-0.37l-0.18,-0.47l-0.01,-0.17l0.13,-0.07l0.08,-0.02l0.05,-0.07l0,-0.16l-0.06,-0.11l-0.17,-0.04l-0.17,0l-0.12,0.17l-0.16,0.34l-0.08,0.34l0.03,0.19l0.07,0.17l0.22,0.28l-0.06,0.16l-0.09,0.13l-0.78,-0.29l-0.17,-0.02l-0.14,-0.06l-0.15,-0.38l0.32,-0.09l0.09,-0.05l0.04,-0.12l0.04,-0.37l-0.15,-0.31l-0.13,-0.11l-0.1,-0.13l0.06,-0.26l-0.04,-0.33l0,-0.46l0.05,-0.08l0.29,-0.09l0.21,-0.25l0.19,-0.28l0.28,-0.5l0.23,-0.54l-0.22,-0.02l-0.18,-0.1l0.2,-0.26l-0.06,-0.32l-0.3,-0.4l-0.17,-0.47l-0.26,-0.21l-0.14,-0.08l-0.17,0.11l-0.14,0.13l0.13,0.31l-0.02,0.27l0.02,0.27l0.13,0.02l0.16,-0.07l0.13,0.05l0.08,0.14l0.02,0.18l-0.06,0.18l-0.12,0.09l-0.15,-0.01l-0.15,-0.1l-0.12,-0.14l-0.28,-0.08l-0.29,0.16l-0.28,0.33l-0.24,0.17l0.11,-0.25l0.05,-0.27l-0.11,-0.19l-0.27,-0.31l-0.06,-0.18l-0.02,-0.22l0.05,-0.22l0.28,0.25l0.14,0.31l0.2,0.14l0.25,0l-0.2,-0.45l-0.07,-0.11l-0.27,-0.2l-0.38,-0.34l-0.24,-0.17l0.08,-0.36l0.14,-0.07l0.12,0.02l0.4,0.13l0.04,-0.18l-0.06,-0.1l-0.03,-0.11l0.26,-0.16l0.43,-0.13l0.09,-0.06l0.08,-0.13l0.11,-0.07l0.3,0l0.25,-0.12l0.21,-0.33l0.05,-0.18l0.07,-0.15l0.52,-0.27l0.13,-0.04l0.35,0.03l0.32,0.15l0.16,0.32l0.14,0.35L843.84,363.04zM839.97,362.55l-0.19,0.14l-0.15,-0.11l0.07,-0.3l0.05,-0.1l0.17,0.1L839.97,362.55zM839.12,364.31l-0.2,0.16l-0.14,0l0.13,-0.18l0.02,-0.09l0.11,-0.25l0.21,-0.09l0.09,-0.01l-0.17,0.26L839.12,364.31zM837.95,365.58l-0.07,0.04l-0.09,-0.3l-0.06,-0.11l0.11,-0.06l0.21,-0.54l0.04,0.22l0.08,0.21l0.08,0.03l-0.08,0.16l-0.12,0.06L837.95,365.58zM868.16,364.87l-0.05,0.04l-0.13,-0.11l-0.02,-0.1l0.02,-0.06l0.09,-0.01l0.18,0.12L868.16,364.87zM836.8,365.77l0.11,0.09l0.16,-0.05l0.13,-0.01l0.09,0.04l0.12,0.23l0.04,0.14l-0.21,0.02l-0.09,0.03l-0.11,0.17l-0.16,-0.06l-0.1,-0.08l-0.02,-0.11L836.8,365.77zM840.77,367.61l-0.22,0.12l-0.03,-0.11l-0.09,-0.05l0.16,-0.16l-0.01,-0.07l-0.1,-0.11l0.12,-0.41l-0.03,-0.17l0.44,-0.06l0.08,0.16l0.01,0.5L840.77,367.61zM841.61,366.97l-0.25,0.01l-0.1,-0.04l-0.04,-0.1l0.35,-0.21l0.27,0.04l-0.12,0.19L841.61,366.97zM839.75,369.49l-0.09,0.06l0.06,-0.26l0.23,-0.23l0.02,0.15L839.75,369.49zM843.24,373.6l-0.25,0.03l0,-0.19l0.2,-0.42l0.02,-0.31l0.18,-0.39l0.08,-0.09l0.06,-0.03l0.06,0.12l-0.07,0.48l-0.18,0.36L843.24,373.6zM842.29,374.03l-0.32,0.07l-0.18,-0.08l-0.16,-0.4l0.31,-0.25l0.41,0.25l0.08,0.07L842.29,374.03zM839.01,380.6l-0.24,0.26l-0.26,-0.23l-0.31,-0.15l0.15,-0.04l0.09,-0.06l0.01,-0.1l0.2,-0.15l0.4,-0.11l0.13,-0.01l0.14,-0.11l0.05,-0.1l0.06,-0.05l0.26,-0.13l0.07,0.15l-0.01,0.12l-0.19,0.07l-0.19,0.16l-0.17,0.2l-0.16,0.08l-0.05,0.06L839.01,380.6zM838.65,380.93l0.02,0.07l-0.28,-0.06l-0.11,-0.29l0.18,0.05l0.06,0.1L838.65,380.93zM837.73,382.15l-0.12,0.06l-0.16,-0.08l-0.05,-0.36l0.07,-0.18l0.12,-0.04l0.11,0.31l0.07,0.13L837.73,382.15zM835.66,385.5l-0.27,0.14l-0.1,0.17l-0.25,0.06l-0.24,0.24l-0.24,0.04l0.01,0.19l0.1,0.16l-0.16,0.03l-0.17,0.2l-0.01,0.14l0.06,0.12l-0.01,0.06l-0.21,0.17l-0.21,0.01l-0.01,-0.19l0.01,-0.14l0.2,-0.34l0,-0.39l0.19,-0.05l0.07,-0.05l0.3,-0.28l0.05,-0.12l-0.15,-0.12l0.01,-0.14l0.04,-0.06l0.24,0.04l0.1,0.1l0.05,0.01l0.14,-0.08l0.07,-0.14l0.27,-0.27l0.11,-0.27l0.21,0.22l-0.06,0.29L835.66,385.5zM874.75,385.61l-0.05,0l-0.18,-0.33l0.05,-0.02l0.1,0.05l0.11,0.19L874.75,385.61zM827.76,391.42l-0.24,0.08l-0.25,-0.05l0.04,-0.43l0.09,0.06l0.05,0.15l0.19,0.09L827.76,391.42zM824.53,392.11l-0.17,0.48l-0.14,0.07l-0.14,-0.04l-0.14,-0.27l0.1,-0.1l0.14,0.05l0.11,-0.02l0.26,-0.39l0.06,0.06L824.53,392.11zM823.39,392.84l-0.18,0.04l-0.21,-0.05l-0.19,-0.01l0,-0.09l0.2,-0.09l0,-0.13l0.05,-0.07l0.46,0.16l-0.02,0.12L823.39,392.84z"/>
                    <path id="KP" style="stroke-width:0.2;fill:lightgrey" data-name="North Korea" class="land" d="M842.02,331.25l0.08,0.23l0.18,0.22l0.09,0.16l0.02,0.17l0.08,0.1l-0.14,0.1l-0.19,-0.06l-0.31,-0.04l-0.4,0.33l-0.22,0.12l-0.16,0.33l-0.31,0.19l-0.17,0.21l-0.22,0.35l-0.15,0.34l-0.34,0.35l-0.2,0.44l-0.01,0.38l0.21,0.38l0.02,0.33l-0.15,0.67l0.08,0.71l-0.09,0.28l-1.03,0.48l-0.27,0.24l-0.38,0.63l-0.46,0.23l-0.29,0.25l-0.4,0.15l-0.25,0.44l-0.28,0.25l-0.33,0.15l-0.25,0.19l-0.56,0.01l-0.39,0.13l-0.28,0.36l-0.84,0.42l-0.11,0.31l0.06,0.48l0,0.37l-0.07,0.3l-0.18,-0.08l-0.1,0.1l-0.11,0.28l0.03,0.32l0.29,0.1l0.24,0.13l0.33,0.07l0.25,0.15l0.52,0.67l0.42,0.29l0.11,0.11l0.24,0.15l0.22,0.23l0.13,0.21l-0.1,0.06l-0.17,0.3l-0.16,0.38l-0.15,0.21l-0.17,0.11l-0.19,0.07l-0.38,0.03l-0.34,-0.03l-0.11,-0.04l-0.47,0.02l-0.13,0.03l-0.67,-0.03l-0.35,0.03l-0.22,0.07l-0.23,0.15l-0.2,0.23l-0.17,0.25l-0.35,0.45l-0.25,0.22l0,0.32l-0.01,0.1l-0.09,0.07l-0.03,-0.03l-0.14,-0.02l-0.57,-0.29l-0.47,0.18l-0.12,0.23l-0.12,0.07l-0.19,-0.45l-0.3,-0.01l-0.48,-0.4l-0.21,0.08l-0.05,0.16l-0.27,0.36l-0.37,0.3l-0.12,0.04l-0.14,-0.02l0.02,-0.08l-0.15,-0.34l-0.59,-0.14l-0.21,-0.14l-0.11,-0.03l0.57,-0.38l0.15,-0.07l-0.11,-0.09l-0.12,-0.04l-0.47,0.06l-0.25,-0.12l-0.36,0.04l-0.25,-0.1l0.52,-0.37l0.02,-0.22l-0.01,-0.17l0.26,-0.49l0.26,-0.27l0.68,-0.39l0.3,-0.05l0.21,0.02l0.18,-0.04l-0.18,-0.15l-0.18,-0.07l-0.35,0.01l-0.37,-0.22l-0.03,-0.24l0.71,-1.5l0.01,-0.14l-0.11,-0.37l-0.04,-0.36l-0.51,-0.21l-0.22,-0.02l-0.65,-0.4l-0.26,-0.2l-0.1,0.06l-0.02,0.32l-0.09,0.07l-0.17,0.06l-0.09,-0.37l-0.14,-0.27l-0.43,-0.27l-0.15,-0.15l0.07,-0.33l-0.04,-0.03l0.07,-0.37l0.26,-0.28l0.65,-0.5l0.17,-0.24l0.33,-0.28l0.15,0.01l0.15,-0.02l0.05,-0.12l0.04,-0.1l0.13,-0.09l0.32,-0.15l0.36,-0.2l0.29,-0.06l0.35,-0.3l0.14,-0.13h0.14l0.04,-0.06l0.08,-0.16l0.11,-0.1l0.16,-0.02l0.25,-0.07l0.32,-0.05l0.22,-0.26l0.07,-0.18l0.14,-0.2l0.31,-0.22l0.21,-0.33l0.23,-0.36l0.11,-0.11l0.11,-0.02l0.06,-0.13l0.08,-0.38l0.11,-0.37l0.06,-0.17l0.27,-0.19l0.07,-0.09l0.06,-0.03l0.13,0.02l0.17,-0.11l0.16,-0.12l0.14,0.04l0.15,0.1l0.15,0.2l0.07,0.16l0.12,0.14l0.02,0.2l0.12,0.09l0.26,0.04l0.42,0.13l0.27,0.01l0.16,0.1l0.32,0.05l0.65,-0.08l0.26,0.05l0.11,0.12l0.16,0.1l0.11,0.01l0.14,-0.17l0.15,-0.27l0.1,-0.21l0,-0.17l-0.09,-0.18l-0.21,-0.17l-0.14,-0.26l-0.13,-0.27l-0.08,-0.09l-0.06,-0.13l-0.01,-0.2l0.05,-0.14l0.32,-0.09l0.41,-0.05l0.33,0.06l0.56,-0.04l0.34,-0.08l0.25,0.01l0.23,0l0.1,-0.12l0.33,-0.28l0.16,-0.1l0.17,-0.19l0.03,-0.2l0.04,-0.16l0.1,-0.17l0.17,-0.21l0.15,-0.1l0.16,0.01l0.17,0.1l0.11,0.1l0.12,-0.03l0.1,-0.17l0.07,-0.03l0.2,-0.01l0.06,-0.1l0.08,-0.49l0.08,-0.39l0.02,-0.27l0.17,-0.45l0.06,-0.27l0.1,-0.13l0.12,0.01l0.1,0.08l0.13,0.05l0.17,-0.04l0.12,0.07l0.07,0.15l0.25,0.1l0.02,0.07l-0.01,0.49l0.14,0.23l0.18,0.21l0.25,0.19l0.13,0.04L842.02,331.25zM826.24,342.37l-0.16,0.1l-0.01,-0.19l0.12,-0.16l0.13,-0.02L826.24,342.37z"/>
                    <path id="KR" style="stroke-width:0.2;fill:lightgrey" data-name="South Korea" class="land" d="M831.1,348.65l0.09,-0.07l0.01,-0.1l0,-0.32l0.25,-0.22l0.35,-0.45l0.17,-0.25l0.2,-0.23l0.23,-0.15l0.22,-0.07l0.35,-0.03l0.67,0.03l0.13,-0.03l0.47,-0.02l0.11,0.04l0.34,0.03l0.38,-0.03l0.19,-0.07l0.17,-0.11l0.15,-0.21l0.16,-0.38l0.17,-0.3l0.1,-0.06l0.69,1.6l0.66,1.03l0.56,0.74l0.8,1.42l0.23,0.76l0.02,0.47l0.13,0.64l-0.11,0.37l0.03,0.58l-0.05,0.3l-0.1,0.22l0,0.42l0.03,0.22l0,0.3l0.06,0.12l0.09,0.04l0.14,-0.11l0.18,-0.04l-0.03,0.36l-0.21,0.9l-0.19,0.65l-0.25,0.57l-0.32,0.52l-0.39,0.2l-0.27,0.07l-0.52,0.03l-0.43,-0.09l-0.37,0.06l-0.15,0.11l-0.11,0.18l0.08,0.29l-0.01,0.21l-0.16,-0.02l-0.31,-0.12l-0.35,-0.02l-0.16,-0.06l-0.16,-0.3l-0.17,0.01l-0.29,0.18l-0.44,0.04l-0.16,0.1l-0.06,0.12l0.06,0.16l0.22,0.21l-0.08,0.21l-0.23,0.1l-0.19,-0.26l-0.12,-0.25l-0.13,-0.01l-0.2,0.07l-0.04,0.27l0.09,0.19l0.16,0.21l-0.22,0.25l-0.06,0.18l-0.16,0.13l-0.42,-0.28l0.06,-0.2l0.18,-0.19l0.02,-0.2l-0.06,-0.12l-0.61,0.5l-0.37,0.57l-0.2,-0.04l-0.08,-0.15l-0.12,-0.06l-0.4,0.37l-0.07,0.29l-0.15,0.01l-0.07,-0.12l0,-0.26l-0.07,-0.22l-0.42,-0.32l-0.19,-0.28l0.1,-0.16l0.35,0.09l0.28,-0.01l-0.05,-0.13l-0.09,-0.06l0.18,-0.08l0.15,-0.16l-0.13,-0.04l-0.19,0.09l-0.16,-0.04l-0.06,-0.37l-0.2,-0.38l-0.1,-0.37l0.2,-0.21l0.1,-0.33l0.18,-0.48l0.09,-0.16l0.25,-0.11l0.09,-0.13l-0.14,-0.06l-0.22,-0.06l0,-0.14l0.15,-0.08l0.17,-0.15l0.32,-0.19l0.1,-0.36l-0.09,-0.09l-0.2,-0.08l0.05,-0.18l0.08,-0.14l-0.03,-0.08l-0.24,-0.23l-0.16,-0.21l0.05,-0.24l-0.04,-0.37l0.02,-0.31l-0.01,-0.17l-0.12,-0.38l-0.05,-0.38l-0.15,0.06l-0.12,0.09l-0.44,-0.13l-0.14,-0.01l-0.06,-0.28l0.16,-0.35l0.38,-0.31l0.22,-0.04l0.16,-0.13l0.25,-0.04l0.31,0.21l0.27,0.04l0.15,0.36l0.09,0.08l0.02,-0.13l0.22,-0.15l0.05,-0.12l-0.05,-0.06l-0.25,-0.06l-0.23,-0.44l-0.03,-0.19l-0.08,-0.12l0.12,-0.36l-0.26,-0.41l-0.13,-0.13l0.02,-0.37l-0.14,-0.23l-0.08,-0.13l-0.05,-0.22l0.04,-0.1l0.12,-0.04L831.1,348.65zM830.78,348.81l-0.01,0.47l-0.16,-0.02l-0.11,-0.05l-0.04,-0.09l-0.11,-0.43l0.12,-0.18l0.23,0.14L830.78,348.81zM843.11,349.72l-0.13,0.1l-0.15,-0.1l-0.02,-0.11l0.08,-0.1l0.18,-0.06l0.09,0.08L843.11,349.72zM830.49,353.17l-0.04,0.23l-0.19,-0.15l-0.05,-0.49l0.19,0.14L830.49,353.17zM837.01,359l-0.26,0.21l-0.36,-0.28l-0.08,-0.16l0.27,-0.23l0.23,-0.26l0.15,-0.02L837.01,359zM835.11,358.97l-0.03,0.33l-0.2,0.02l-0.12,-0.21l-0.13,0.1l-0.07,0l-0.1,-0.27l-0.02,-0.21l0.23,-0.16l0.14,0.1l0.2,0.05L835.11,358.97zM829.8,359.23l-0.04,0.08l-0.12,-0.02l-0.13,-0.23l-0.05,-0.19l-0.13,-0.1l0.2,-0.16l0.25,0.29L829.8,359.23zM834.37,359.62l-0.03,0.1l-0.14,-0.16l0.14,-0.17L834.37,359.62zM829.97,360.45l-0.18,0.05l-0.1,-0.12l-0.07,-0.03l0.04,-0.15l0.29,-0.3l0.06,-0.1l0.27,0.06l0.1,0.16l-0.12,0.24L829.97,360.45zM831.43,360.54l0.05,0.16l-0.23,-0.03l-0.12,-0.15l0.02,-0.13l0.13,-0.02L831.43,360.54zM830.23,364.31l-0.13,0.07l-0.12,-0.04l-0.03,-0.04l-0.14,-0.19l-0.04,-0.1l0.09,-0.19l0.39,-0.31l1,-0.3l0.18,-0.01l0.4,0.13l0.08,0.24l-0.07,0.21l-0.09,0.14l-0.46,0.23l-0.36,0.11L830.23,364.31z"/>
                    <path id="MN" style="stroke-width:0.2;fill:lightgrey" data-name="Mongolia" class="land" d="M803.17,301.74L802.91,302.35L802.38,303.55L801.94,304.56L801.7,305.13L801.53,305.56L801.35,305.97L801.32,306.21L801.12,306.61L800.75,307.08L800.67,307.6L800.68,308.06L800.65,308.47L800.24,308.73L799.92,308.96L800.01,309.74L800.18,310.03L800.44,310.35L800.72,310.6L800.97,310.82L801.24,310.71L801.46,310.39L801.9,310.1L802.14,310.1L802.31,310.16L802.69,310.18L803.08,310.08L803.39,310.05L803.78,310.12L803.92,310.19L804.25,310.32L804.61,310.59L804.86,310.9L805.04,310.96L805.14,310.86L805.34,310.59L805.62,310.33L805.96,309.89L806.21,309.56L806.42,309.51L806.81,309.51L806.98,309.43L807.28,309.39L807.54,309.51L808.26,309.58L808.46,309.75L808.8,310.25L809,310.52L809.34,310.66L809.54,310.75L809.72,310.82L809.9,310.95L809.94,311.11L810.02,311.35L810.13,311.49L810.33,311.62L810.49,311.71L810.54,311.88L810.59,311.96L810.73,312.08L811.15,312.6L811.36,312.74L811.67,313.04L811.8,313.28L811.8,313.54L811.88,313.74L812.09,314.04L812.19,314.23L812.15,314.51L812.19,314.75L812.11,314.99L811.77,315.18L811.65,315.26L811.41,315.27L811,315.18L810.6,315.23L810.13,315.13L809.75,314.91L809.55,314.74L809.23,314.63L809.08,314.69L808.89,314.91L808.69,314.87L808.49,314.91L808,314.87L807.73,314.81L807.31,314.97L807.07,315.02L806.61,315.21L806.34,315.54L806.14,315.62L805.94,315.6L805.8,315.48L805.59,315.33L805.29,315.34L805.2,315.41L805.16,315.54L805.06,315.95L805.06,316.14L804.99,316.25L804.81,316.29L804.5,316.28L804,316.25L803.66,316.15L803.46,316.19L803.19,316.42L802.99,316.45L802.83,316.55L802.7,316.87L802.5,317.08L802.26,317.33L801.99,317.87L801.85,318.17L801.9,318.34L801.93,318.54L801.81,318.76L801.56,318.97L801.36,319.01L801.07,319.22L800.66,319.58L800.36,319.89L799.96,319.96L799.68,320.04L799.06,320.13L798.9,320.16L798.22,320.21L797.71,320.04L797.45,320.07L797.21,320.16L797.09,320.26L797.05,320.45L797.01,320.63L796.82,320.9L796.43,321.27L796.11,321.51L795.86,321.82L795.72,321.93L795.45,322.05L795.29,322.12L794.94,322.4L794.66,322.64L794.48,322.71L794.26,322.65L794.11,322.63L793.68,322.53L793.38,322.52L792.97,322.46L792.01,322.17L791.7,322.03L791.43,321.66L791.18,321.48L790.85,321.46L790.34,321.46L790.12,321.38L789.74,321.45L789.33,321.83L789.13,322.11L788.96,322.39L788.76,323L788.66,323.4L788.59,323.63L788.37,323.99L788.35,324.2L788.42,324.37L788.58,324.57L788.68,324.88L788.91,325.21L789.14,325.47L789.57,325.88L789.69,326.1L789.83,326.35L789.87,326.59L789.84,326.75L789.68,326.87L789.38,326.93L789.24,327.1L789.02,327.32L788.76,327.58L788.63,327.59L788.49,327.66L787.74,327.98L787.46,328.07L787.24,328.18L786.98,328.5L786.77,328.74L786.51,329.06L786.4,329.2L786.17,329.52L785.88,329.88L785.71,330.08L785.62,330.2L785.54,330.35L785.22,330.47L784.97,330.59L784.58,330.78L784.02,330.99L783.57,331.18L783.28,331.35L782.85,331.56L782.56,331.62L781.98,331.61L781.25,331.67L780.73,331.71L780.33,331.66L779.74,331.63L779.28,331.59L778.97,331.66L778.26,331.75L778.09,331.76L776.81,331.96L776.25,332.06L775.73,332.11L775.35,332.19L775.13,332.28L774.81,332.42L774.64,332.48L774.08,332.75L772.82,333.3L771.97,333.75L771.83,333.82L771.26,334.14L770.93,334.26L770.71,334.54L770.52,334.72L770.33,334.79L769.99,334.61L769.75,334.62L768.97,334.56L768.97,333.74L768.43,333.86L767.57,334.04L766.76,334.21L766.03,333.82L765.46,333.52L764.97,333.25L764.23,333.08L763.58,332.93L762.4,332.68L761.88,332.46L761.62,332.17L761.16,331.52L761.01,331.39L760.78,331.3L760.54,331.24L760.04,331.25L759.41,331.19L758.52,331.06L757.8,330.95L756.59,330.74L756.3,330.71L755.67,330.9L754.85,331.13L753.39,330.95L752.75,330.86L751.43,330.69L749.95,330.49L748.51,330.29L747.46,330.4L746.88,330.46L746.2,330.55L746.11,330.45L746.08,330.06L745.96,329.76L745.59,329.43L745.35,329.12L744.88,328.69L744.73,328.43L744.68,328.01L744.25,326.93L743.97,326.2L743.91,326.05L743.79,325.81L743.64,325.68L743.32,325.61L743.23,325.48L743.23,325.22L743.28,324.87L743.35,324.61L743.3,324.55L742.46,324.62L741.94,324.45L741.51,324.26L740.9,323.78L740.53,323.6L740.07,323.11L739.39,322.99L739.14,322.8L738.82,322.37L738.54,322.1L738.15,321.93L737.53,321.77L736.47,321.63L736.11,321.57L735.52,321.66L735.09,321.67L734.38,321.57L733.98,321.44L733.48,321.43L733.16,321.43L732.73,321.4L732.52,321.32L732.33,321.21L731.97,321.24L731.71,321.14L731.48,320.94L731.23,320.85L730.96,320.85L730.85,320.94L730.75,320.93L730.68,320.67L730.42,320.24L730.39,320.04L730.23,319.82L730.14,319.62L730.17,319.34L730.28,318.8L730.52,318.31L730.68,318.18L730.77,318.03L730.98,317.78L731.09,317.57L731.08,317.29L730.94,317L730.84,316.62L730.86,316.41L731.01,316.15L731.19,315.58L731.17,315.43L731.1,315.3L731.08,315.04L731.05,314.68L730.84,314.13L730.72,313.84L730.53,313.71L730.29,313.64L730.09,313.24L729.83,312.77L729.68,312.48L729.62,312.3L729.6,311.97L729.48,311.57L729.35,311.36L729.26,311.19L729.21,310.95L729.16,310.86L728.82,310.75L728.57,310.57L728.47,310.33L728.43,310.14L728.36,310.02L728.17,309.99L728.03,310.16L727.81,310.25L727.66,310.23L727.51,310.13L727.42,310.02L727.27,309.89L727.05,309.49L726.82,309.39L726.4,309.41L726.03,309.59L725.8,309.56L725.61,309.5L725.4,309.3L725.25,309.14L725.02,309.08L724.58,308.8L724.29,308.59L724.26,308.18L724.12,307.9L723.83,307.82L723.54,307.53L723.11,307.37L722.85,307.25L722.61,307.18L722.58,307.07L722.59,306.97L722.7,306.82L722.81,306.67L722.84,306.53L722.75,306.41L722.51,306.29L722.2,306.17L722.13,305.99L721.95,305.79L721.98,305.63L722.13,305.52L722.28,305.43L722.31,305.29L722.21,305.15L722.16,304.95L722.18,304.79L722.15,304.59L722.16,304.6L722.49,304.58L722.64,304.49L722.75,304.35L723,304.19L723.05,304.01L723.05,303.65L723.21,303.35L723.62,303.26L723.77,303.22L723.94,303.26L724.2,303.22L724.45,303.2L724.59,303.3L724.77,303.38L725,303.37L725.08,303.22L725.09,303.02L725.2,302.97L725.32,303.11L725.39,303.21L725.5,303.26L725.78,303.14L725.98,303L726.05,302.73L726.16,302.6L726.32,302.66L726.59,302.66L726.81,302.45L727.1,302.28L727.31,302.21L727.36,302.06L727.26,301.75L727.28,301.4L727.57,301.2L727.94,301.18L728.22,301.05L728.3,300.68L728.43,300.57L728.57,300.53L728.91,300.47L729.16,300.32L729.31,300.25L729.73,300.05L730.12,300.01L730.29,299.85L730.42,299.64L730.64,299.56L730.86,299.39L731.15,299.16L731.27,299.13L731.75,299L731.93,298.95L732.05,298.92L732.25,298.93L732.34,298.69L732.55,298.52L732.77,298.46L732.87,298.28L733.07,298.06L733.35,297.94L733.77,297.92L734.19,297.94L734.44,297.91L734.64,297.58L734.68,297.41L734.73,297.25L734.89,297.18L735.09,297.45L735.26,297.62L735.52,297.8L735.66,297.96L735.81,297.98L735.97,297.86L736.08,297.56L736.3,297.51L736.54,297.56L736.6,297.71L736.62,297.85L736.73,298.11L736.99,298.33L737.33,298.32L737.46,298.28L737.79,298.31L738.11,298.36L738.46,298.41L738.56,298.42L738.94,298.45L739.48,298.49L739.72,298.47L740.21,298.54L740.31,298.74L740.41,299.21L740.48,299.65L740.5,300.01L740.63,300.19L740.8,300.26L740.9,300.4L741.09,300.6L741.23,300.88L741.41,300.86L741.52,300.79L741.79,300.77L742.12,300.79L742.35,300.94L742.44,301.15L742.63,301.26L742.78,301.22L743.24,301.22L743.4,301.23L743.56,301.35L743.78,301.36L743.91,301.22L744.3,301.13L744.53,300.92L744.71,300.92L744.84,301.02L744.94,301.15L745.09,301.09L745.17,300.98L745.31,300.98L745.44,301.05L745.77,301.18L746.01,301.41L746.19,301.43L746.43,301.36L746.54,301.33L746.65,301.45L746.8,301.51L746.92,301.42L747.12,301.36L747.89,301.49L748.07,301.72L748.2,301.83L748.31,302.01L748.51,302.15L748.94,302.1L749.1,301.96L749.45,301.66L749.58,301.36L749.76,301.27L749.95,301.22L750.13,301.22L750.33,301.21L750.56,300.99L750.75,300.92L751.03,300.64L751.08,300.51L751.21,300.19L751.3,299.98L751.44,299.66L751.51,299.13L751.56,298.85L751.52,298.64L751.35,298.54L751.14,298.49L750.96,298.33L750.82,298.15L750.74,297.9L750.63,297.6L750.63,297.39L750.6,297.22L750.51,297.08L750.33,296.83L750.25,296.64L750.27,296.35L750.49,295.84L750.5,295.61L750.53,295.46L750.52,295.33L750.59,295.02L750.71,294.89L750.84,294.57L751.02,294.42L751.25,294.41L751.35,294.32L751.4,293.99L751.51,293.74L751.59,293.56L751.73,293.36L752.53,292.98L752.87,292.51L752.99,292.27L753.12,291.76L753.24,291.55L753.42,291.62L753.64,291.92L753.8,291.92L754.04,292.09L754.68,292.43L755.04,292.54L755.26,292.57L755.56,292.66L755.75,292.86L756.13,293.19L756.45,293.27L757,293.31L757.66,293.32L757.85,293.38L758.34,293.61L758.88,293.87L759.39,294.1L759.78,294.28L760.01,294.46L760.22,294.55L760.46,294.47L760.76,294.49L761.46,294.7L761.9,294.87L762.27,295L762.4,295.18L762.41,295.41L762.36,295.61L762.39,296.1L762.51,296.35L762.55,296.69L762.6,297.02L762.56,297.33L762.62,297.5L762.74,297.6L762.85,297.83L762.81,298.06L762.76,298.2L762.77,298.42L762.91,298.6L763.1,298.63L763.28,298.68L763.49,298.96L763.88,299.29L764.11,299.38L764.37,299.52L764.88,299.67L765.22,299.71L765.42,299.82L765.62,300.1L765.95,300.16L766.16,300.26L766.54,300.37L766.8,300.31L767.02,300.21L767.17,300.23L767.46,300.29L767.79,300.31L768.08,300.24L768.3,300.04L768.57,299.78L768.88,299.64L769.25,299.59L769.5,299.48L770.32,299.3L770.65,299.27L770.9,299.1L771.13,298.96L771.46,298.91L771.9,299.05L772.32,299.17L772.84,299.21L773.18,299.37L773.42,299.53L773.8,299.65L774.22,299.59L774.8,299.54L775.18,299.61L775.58,299.89L775.83,300.12L776.11,300.6L776.4,300.83L776.65,301.02L776.97,301.04L777.76,301.05L778.2,301.15L778.57,301.21L778.65,301.31L778.62,301.63L778.63,302.1L778.62,302.32L778.7,302.48L778.83,302.51L778.89,302.74L779.08,302.87L779.4,303.04L779.94,303.59L780.27,303.83L780.52,303.91L780.86,303.85L781.38,303.85L782.27,303.85L782.88,304.02L783.09,304.13L783.71,304.26L784.4,304.41L784.97,304.56L785.32,304.36L785.61,304.35L785.9,304.49L786.18,304.7L786.41,304.68L786.74,304.58L787.79,303.99L788.16,303.76L788.42,303.82L788.66,303.74L788.83,303.68L789.28,303.58L789.56,303.56L789.84,303.51L790.25,303.47L791.08,303.08L791.42,303L791.98,303.11L792.29,303.04L792.59,302.85L792.99,302.64L793.09,302.31L793.29,301.86L793.73,301.52L794.08,301.23L794.44,300.95L794.89,300.71L795.31,300.54L795.84,300.08L796.26,299.86L796.47,299.78L796.72,299.86L797.19,299.92L797.53,299.91L797.72,299.96L798.11,300.18L798.46,300.37L798.72,300.72L799.22,301.2L799.47,301.36L799.65,301.43L800.1,301.47L800.46,301.5L800.68,301.39L801.04,301.19L801.63,300.93L801.86,300.94L802.24,301.07L802.8,301.33L803.02,301.51z"/>
                    <path id="TW" style="stroke-width:0.2;fill:lightgrey" data-name="Taiwan" class="land" d="M815.31,397.88l-0.17,0.35l-0.14,0.37l-0.06,0.35l0,0.36l-0.04,0.33l-0.07,0.32l-0.27,-0.09l-0.15,-0.23l-0.03,-0.38l-0.2,-0.46l-0.07,-0.13l-0.29,-0.26l-0.26,-0.13l-0.2,-0.19l0.03,0.02l-0.15,-0.26l-0.11,-0.27l-0.23,-0.78l-0.08,-0.19l-0.11,-0.17l-0.03,-0.17l0.04,-0.19l0.1,-0.28l0.06,-0.29l-0.05,-0.39l0.02,-0.38l0.08,-0.17l1.32,-2.35l0.36,-0.5l0.22,-0.25l0.18,-0.28l0.17,-0.35l0.21,-0.32l0.15,-0.1l0.76,-0.29l0.24,-0.28l0.19,-0.09l0.21,0l0.14,0.13l0.12,0.16l0.13,0.08l0.33,0.15l0.15,0.15l0.07,0.25l-0.2,0.24l-0.1,0.22l-0.02,0.24l0.04,0.33l0,0.33l-0.26,0.76l-0.27,0.48l-0.07,0.24l-0.08,0.59l-0.16,0.59l-0.14,0.74l-0.22,0.76l-0.13,0.32l-0.16,0.31l-0.38,0.58L815.31,397.88zM808.01,392.09l0.12,0.2l-0.05,0.13l-0.39,-0.07l-0.02,-0.12l0.15,0.02L808.01,392.09z"/>

                </svg>
