<svg


                        xmlns:dc="http://purl.org/dc/elements/1.1/"
                        xmlns:cc="http://creativecommons.org/ns#"
                        xmlns:rdf="http://www.w3.org/1999/02/22-rdf-syntax-ns#"
                        xmlns:svg="http://www.w3.org/2000/svg"
                        xmlns="http://www.w3.org/2000/svg"
                        xmlns:sodipodi="http://sodipodi.sourceforge.net/DTD/sodipodi-0.dtd"
                        xmlns:inkscape="http://www.inkscape.org/namespaces/inkscape"
                        enable_background="new 0 0 1200 589"
                        height="600"
                        width="1200"
                        viewBox="230 120 600 600"
                        id="us-map"
                        preserveAspectRatio="xMidYMid meet"
                        inkscape:version="0.48.4 r9939"
                        sodipodi:docname="us.svg">
                    <sodipodi:namedview
                            pagecolor="#ffffff"
                            bordercolor="#666666"
                            borderopacity="1"
                            objecttolerance="10"
                            gridtolerance="10"
                            guidetolerance="10"
                            inkscape:pageopacity="0"
                            inkscape:pageshadow="2"
                            inkscape:window-width="1920"
                            inkscape:window-height="1137"
                            id="namedview69"
                            showgrid="false"
                            inkscape:zoom="0.80893016"
                            inkscape:cx="817.66365"
                            inkscape:cy="409.3738"
                            inkscape:window-x="1192"
                            inkscape:window-y="118"
                            inkscape:window-maximized="1"
                            inkscape:current-layer="svg2"/>
                    <defs
                            id="defs4">
                        <style
                                type="text/css"
                                id="style6">path {
                            fill-rule: evenodd;
                        }</style>
                    </defs>
                    <metadata
                            id="metadata8">
                        <views
                                id="views10">
                            <view
                                    h="589.235294118"
                                    padding="0"
                                    w="1000"
                                    id="view12">
                                <proj
                                        id="laea-usa"
                                        lat0="45"
                                        lon0="-100"/>
                                <bbox
                                        h="321.97"
                                        w="589.33"
                                        x="690.09"
                                        y="918.69"
                                        id="bbox15"/>
                            </view>
                        </views>
                        <rdf:RDF>
                            <cc:Work
                                    rdf:about="">
                                <dc:format>image/svg+xml</dc:format>
                                <dc:type
                                        rdf:resource="http://purl.org/dc/dcmitype/StillImage"/>
                                <dc:title/>
                            </cc:Work>
                        </rdf:RDF>
                    </metadata>

                    <path id="RU" style="stroke-width:0.1;fill:lightgrey" data-name="Russia" class="land" d="M354.35,511.24,354.77,511.24,355.39,511.11,355.78,511.59,356.5,512.05,357.36,512.47,358.65,513.17,359.98,513.6,360.42,513.65,361.83,513.6,363.31,513.66,363.72,514.69,364.45,515.18,365.05,515.85,365.09,516.24,364.27,518.63,364.1,519.44,364.07,520.25,364.37,521.26,364.65,521.83,364.42,521.9,360.63,521.79,357.04,521.6,353.71,521.42,350.51,521.25,347.44,521.09,345.53,520.93,343.65,520.78,343.38,520.64,344.42,519.65,345.09,518.62,345.66,517.27,345.73,516.33,345.87,515.27,346.76,514.86,348.71,514.92,349.54,514.41,350.61,513.14,351.73,511.62,352.09,510.98,352.48,511.07,351.82,512.19,350.04,514.56,350.6,514.87,351.25,514.97,352.01,515.41,352.74,515.49,354.04,515.11,354.27,513.08,354.35,511.24zM452.45,375.73,452.67,376.36,452.74,377.39,452.53,378.05,452.63,378.61,452.2,379.01,451.54,377.72,451.14,377.7,450.72,377.14,450.52,376.22,450.9,375.97,451.06,376.13,451.87,375.48,452.45,375.73zM498.86,350.64,498.61,350.87,497.27,350.07,497.16,349.47,497.21,349.21,497.74,349.04,498.31,349.27,498.71,350.07,498.86,350.64zM549.67,306.08,549.79,307.91,549.37,308.66,548.99,308.87,548.83,307.73,548.52,307.21,547.35,308.58,546.81,310.07,545.37,312.2,542.37,313.72,540.55,314.37,538.92,314.56,537.38,313.23,536.56,310.66,536.41,309.87,536.31,308.82,536.32,307.76,536.42,306.11,536.58,304.49,537.21,303.04,538.68,301.31,540.11,300.18,540.84,299.9,542.67,299.86,547.86,303.73,549.01,304.72,549.67,306.08zM615.61,548.52,615.37,548.99,615.62,549.45,617.05,550.06,617.77,550.73,617.98,551.48,618.29,552.05,619.41,552.42,621.72,553.29,621.85,553.38,622,553.77,624.34,554.31,624.66,554.61,625.63,555.58,625.83,556.59,625.34,557.59,625.02,559.16,624.52,560.53,623.42,561.45,621.51,562.29,619.46,562.63,618.59,562.57,618.03,562.47,617.11,562.2,616.42,561.5,615.92,560.82,615.56,560.65,615.2,560.76,614.87,561.19,614.41,562.35,613.91,563.49,613.49,563.9,611.96,564.44,611.79,564.25,611.96,563.49,611.77,563.26,611.48,563.09,609.59,562.8,608.87,562.58,608.34,562.5,607.66,562.3,607.19,561.85,606.18,560.46,605.39,559.36,604.13,558.37,602.98,558.18,602.89,558.28,602.02,558.32,600.63,558.07,600.56,558.1,600.13,558.55,599.81,559.26,599.38,559.85,598.74,560.17,597.96,560.24,597.09,559.62,596.19,558.67,595.06,558.36,593.97,558.57,593.57,558.72,592.43,559.26,592.07,559,591.56,558.84,590.45,559.74,589.22,560.71,588.96,561.44,588.59,562.1,587.78,562.74,586.89,563.28,586.14,563.49,585.17,563.29,583.96,562.61,582.84,561.77,581.63,560.44,580.64,559.68,579.69,559.07,579.12,558.93,578.65,559.16,578.47,559.63,578.6,560,578.88,560.33,579.09,561.38,579.17,562.67,579.08,563.39,578.81,563.83,578.53,563.98,578.28,563.93,577.97,563.48,577.78,562.52,577.63,561.39,576.8,559.97,576.08,559.1,575.74,558.62,575.08,557.82,574.51,557.33,573.29,556.77,572.7,556.36,571.67,554.77,571.09,554.28,570.35,553.88,569.73,553.76,569.6,553.85,568.33,554.08,567.42,554.04,566.86,553.74,566.29,553.71,566.24,553.71,565.62,553.91,565.5,553.89,565.19,553.88,564.68,553.55,564.19,552.67,563.57,551.73,562.82,551.42,561.39,551.82,559.83,553.1,558.71,553.86,557.8,553.88,557.28,554,556.93,553.95,556.64,553.71,556.57,553.25,556.43,552.67,555.71,552.09,554.73,551.72,553.82,551.32,553.23,551.21,552.97,551.79,552.22,552.72,551.36,553.63,550.27,555.09,549.97,555.61,549.55,555.95,548.59,556.33,547.43,556.94,546.69,557.64,545.64,557.96,544.51,558.16,544.01,558.76,543.71,559.75,543.33,560.63,541.55,561.97,540.58,562.83,539.87,563.29,539.37,563.23,538.84,563.09,538.64,563.17,538.91,563.83,539.14,565.9,539.47,567.22,539.71,567.98,539.93,568.57,540.1,569.48,539.88,570.01,539.54,570.36,538.47,570.92,537.35,571.4,536.68,571.09,535.94,570.33,535.65,569.93,534.84,568.64,533.42,566.66,532.45,565.65,531.74,565.27,531.09,565.39,530.59,565.86,530.23,566.28,529.9,566.75,529.68,567.34,529.7,568.15,529.69,569,529.37,569.61,528.57,570.25,527.65,571.15,526.96,572.77,526.51,574.79,526.37,576.19,526.71,576.84,527.39,577.37,527.82,577.91,527.91,578.42,527.8,578.95,527.45,579.57,526.71,580.27,525.7,581.94,525.07,584.3,525.42,585.94,526.71,586.84,527.73,587.23,528.14,587.76,528.5,588.82,528.45,589.89,528.33,590.62,528.58,591.33,529.06,592.17,529.67,592.69,530.31,592.41,530.94,592.06,531.74,592.2,533.99,592.49,535.17,592.64,535.55,593.01,536.28,594.19,537.21,595.52,538.15,596.86,538.47,597.45,539.24,599.04,540.03,600.48,540.88,602.25,540.82,602.73,540.37,602.93,539.65,602.88,539.1,602.62,538.78,602.41,538.5,602.33,538.19,602.42,537.92,602.64,537.81,602.99,537.86,603.47,538.07,603.9,538.37,604.18,538.53,604.29,539.64,604.86,540.88,605.5,542.4,606.41,542.72,606.52,542.81,606.96,542,607.06,541.9,607.58,541.69,607.96,539.88,608.82,539.43,608.82,539.03,608.96,539.05,609.51,539.16,610.02,539.47,610.56,539.34,610.79,539.07,610.86,538.72,610.7,538.39,610.42,538.04,610.35,537.71,610.42,536.16,611.93,535.5,612.33,534.78,612.48,533.29,613.04,532.84,613.01,532.42,612.81,532.07,613.1,531.96,613.8,531.56,613.31,531.12,612.93,530.93,612.8,530.82,612.88,531.23,613.63,531.26,614.31,531.16,614.69,530.99,615.03,530.76,615.24,530.48,615.36,530.33,616.56,530.06,617.3,529.69,617.95,529.19,619.14,528.79,619.66,528.47,620.26,528.26,621.1,527.97,620.91,527.72,620.54,527.59,621.02,527.42,621.43,526.63,622.04,526.05,622.62,525.79,623.52,525.73,624.06,525.82,624.55,526.04,624.84,527.13,625.16,527.86,625.57,528.53,626.33,529.25,626.98,529.77,627.82,530.13,628.84,530.59,630.83,530.81,632.92,531.49,630.32,532.05,629.86,531.93,630.59,531.52,631.71,531.13,633.34,531,634.52,531.14,635.54,531.15,636.02,530.82,637.71,530.99,638.04,531.26,638.34,531.97,638.92,532.47,639.77,532.6,640.96,532.88,641.29,533.23,641.57,534.97,643.94,535.97,645.5,536.47,646.41,537.01,647.56,537.3,647.82,537.64,647.99,538.28,648.54,537.92,649.13,537.33,650.17,537.06,650.72,536.44,651.23,535.39,651.77,534.81,652.01,534.19,653.12,533.49,654.2,533.02,654.32,531.68,654.16,531.2,654.06,529.84,653.58,529.46,653.29,529.08,652.03,528.66,651.49,528.13,651.15,527.77,650.85,527.62,650.55,527.24,650.11,526.53,649.45,526.01,648.83,525.62,648.66,525.12,648.88,524.82,648.94,524.69,648.83,524.59,648.31,523.87,648.12,523.74,648,522.77,647.5,522.4,647.23,522.05,647.21,521.3,647.06,520.66,646.82,520.37,646.5,519.94,646.14,519.13,645.7,518.54,645.28,518.51,645.01,518.88,643.9,519.14,642.83,518.99,642.62,518.66,642.44,518.03,642.28,516.56,642.33,515.65,641.25,515.32,641.01,514.73,640.83,513.86,640.51,513.38,640.27,513.24,640.35,512.7,641.54,512.17,640.69,511.85,640.46,511.4,640.34,510.92,640.34,509.73,640.75,508.86,641.21,508.21,641.54,507.55,641.73,507.23,642,506.35,641.95,505.9,641.75,505.76,641.54,505.83,641.17,506.14,640.75,506.16,640.53,506.05,640.35,504.98,639.8,504.54,639.46,503.13,638.98,501.39,638.14,500.79,637.58,500.73,637.2,500.05,636.82,499.18,636.48,498.5,636.57,497.87,636.61,496.88,635.97,495.94,635.94,494.88,636.13,494.65,636.2,494.4,636.29,491.24,636.02,490.43,635.49,489.74,634.97,487.89,634.59,486.94,634.19,486,633.61,484.96,633.11,484.1,633.32,482.91,633.03,481.61,632.78,481.17,632.94,480.76,633.57,480.46,634.17,479.75,633.68,477.35,631.31,476.09,629.74,471.97,626.09,471.43,625.81,469.25,625.28,468.37,624.85,466.15,622.22,465.16,622.57,464.27,622.48,463.75,622.25,463.19,621.88,462.79,621.37,462.33,620.27,461.8,619.63,460.05,618.71,458.07,618.17,457.91,617.93,457.86,617.61,459.57,616.97,460.02,616.61,459.15,616.13,458.82,616.05,458.54,615.83,459.03,615.46,459.52,615.3,460.27,615.71,461.12,616.49,461.86,616.78,462.2,616.41,464.77,615.78,464.95,615.27,464.94,614.71,464.69,614.73,464.52,614.61,464.54,613.98,464.92,613.12,466.08,611.72,466.7,609.77,467.24,609.33,467.64,609.62,467.62,610.08,467.68,610.42,468.04,609.76,468.38,608.87,469.25,608.87,469.84,609.02,470.46,608.91,469.27,607.45,467.67,605.96,467,606.08,466.57,605.85,465.87,604.62,465.58,603.61,466.26,603.63,466.93,603.78,468.22,603.07,468.69,602.97,469.46,603.19,470.52,603.34,470.43,602.67,470.1,601.87,471.39,601.28,472.54,600.96,474.73,599.8,475.7,599.6,475.82,599.34,475.85,598.99,475.52,598.07,475.19,597.38,474.04,597.35,473.39,598.3,471.64,598.62,470.86,598.55,471.48,597.94,472.1,597.71,472.27,597.45,471.03,597.67,470.41,598.3,468.59,599.13,468.53,598.7,468.5,598.31,468.64,597.94,468.93,597.7,469.04,597.48,469.04,597.3,468.77,597.19,468.55,597.11,468.5,596.87,468.58,596.65,468.78,596.34,468.87,595.99,468.89,595.29,469.08,594.5,469.63,593.99,470.59,593.87,471.46,593.44,471.98,592.96,472.68,591.73,473.2,591.55,474.26,591.61,474.94,591.72,476.51,591.76,478.31,591.69,478.83,591.65,479.11,591.22,479.1,590.45,479.35,589.74,479.83,588.4,480.34,587.7,480.32,587.39,480.05,587.26,479.7,587.19,479.58,587.05,479.59,586.75,479.86,586.46,479.81,585.87,479.65,585.21,479.5,584.62,479.03,584.32,478.21,584.13,478.39,583.4,478.62,582.62,478.96,582.18,479.21,581.92,479.96,582.06,480.5,581.93,480.63,581.78,480.53,581.48,479.69,581.21,478.94,580.83,478.62,580.37,478.5,579.88,478.99,579.58,479.86,579.3,480.44,578.63,481.07,577.9,481.34,577.38,481.47,576.8,481.45,576.17,480.99,575.52,480.99,574.84,481.24,574.37,481.15,574.02,480.81,573.81,480.32,573.87,479.78,574.11,479.13,574.07,478.09,573.25,476.99,572.45,476.36,572.42,475.91,572.3,475.53,571.89,475.3,571.35,475.05,571.12,474.65,571.27,474.06,571.51,473.33,571.44,472.37,570.82,471.51,570.11,470.86,570.09,470.18,569.99,468.89,569.07,468.55,569.08,468.34,569.35,468.24,570.09,468.14,570.25,467.9,570.37,467.46,570.45,466.81,569.99,465.16,568.47,464.49,567.36,464.34,566.56,463.79,566.04,463.26,565.3,462.73,565.23,462.13,565.47,461.57,565.83,461.3,565.93,460.34,566.05,458.8,566.56,458.38,567.03,457.86,567.42,457.46,567.15,457.05,566.68,456.17,566.5,455.75,566.68,455.33,566.35,454.97,565.76,454.47,565.33,453.74,565.21,452.95,565.03,452.32,565.36,451.5,565.99,450.94,565.75,450.63,565,450.25,564.79,449.73,563.94,449.6,563.19,449.73,562.86,449.92,562.44,449.92,561.95,449.77,561.53,449.54,561.2,449.29,560.07,449.08,559.59,449.04,559.19,449.22,558.83,449.06,558.58,448.77,558.55,448.3,558.58,448.03,558.4,447.74,557.76,447.59,557.12,447.39,556.88,446.9,556.89,446.08,557.03,445.35,557.24,445.03,557.21,444.39,556.88,443.54,556.52,441.81,556.44,441.67,556.32,441.77,556.09,442.12,555.71,442.09,555.41,441.78,555.16,441.62,554.55,441.64,553.86,441.59,553.1,441.22,552.52,441.01,552.12,441.05,551.75,441.84,551.61,442.79,551.34,442.94,551.07,442.91,550.65,441,548.48,440.34,546.55,439.71,545.51,439.02,544.8,438.45,544.48,437.63,544.62,436.55,544.6,435.44,544.39,434.51,544.53,432.83,545.45,432.2,545.5,431.12,545.2,430.2,544.88,429.71,544.9,429.41,545.03,429.22,545.28,428.68,547.01,428.24,547.35,427.6,547.71,427.06,547.77,426.6,547.75,425.94,547.49,425.31,547.17,425.19,547.16,425.15,546.88,424.7,545.85,424.42,545.39,424.1,545.14,423.93,544.84,423.93,543.59,423.99,542.41,424.19,542.26,423.59,541.3,423.55,540.57,423.84,540.21,423.85,539.9,423.65,539.47,423.03,538.76,422.43,537.96,422.04,537.34,421.79,537.03,422.09,536.54,422.5,535.67,422.66,535.15,422.86,535.03,423.84,534.96,424.55,534.97,425.08,535.16,425.28,535.58,425.77,536.03,427.15,536.22,427.73,536.2,428.47,535.79,429.65,534.86,429.94,534.19,430.67,533.72,431.11,533.54,431.52,533.45,431.56,533.06,431.53,532.52,431.39,532.19,429.94,531.08,429.76,530.71,429.64,530.28,429.81,529.87,429.81,529.42,428.13,528.42,426.73,528.24,425.57,528.3,425.12,528.09,425.32,527.58,425.6,526.67,425.69,525.91,425.61,525.57,425.38,525.28,424.28,524.65,422.77,523.68,422.06,522.58,421.7,521.42,421.29,520.72,420.55,520.27,420.6,519.97,421.09,518.89,421.07,518.72,420.87,518.45,419.94,517.9,418.7,516.88,418.64,516.62,418.73,515.98,418.91,515.34,419.15,515.04,419.9,513.76,419.9,513.32,419.77,512.73,419.23,511.72,418.8,511.07,418.78,510.74,418.85,510.46,419.12,510.11,419.38,509.67,419.44,508.15,419.42,507.62,419.26,507.31,419.08,507.18,418.71,507.25,418.18,507,417.78,506.6,417.53,506.48,417.27,506.07,416.52,505.25,416.39,505.04,414.89,504.34,413.61,504.44,412.9,504.34,412.53,504.49,412.14,504.94,411.6,505.23,411.2,505.24,410.83,505.46,409.84,506.26,409.37,505.78,408.97,505.07,409.1,504.46,409.27,503.91,409.26,503.54,409.12,503.22,408.5,502.87,407.18,502.23,406.81,502.22,406.24,502.46,405.21,503.17,404.85,503.02,404.51,502.45,404.15,501.74,403.66,501.37,402.6,501.41,402.5,501.44,401.99,501.85,401.78,501.81,400.86,500.76,401.03,500.19,401.23,499.34,401.16,498.67,401,497.81,400.61,496.3,400.56,495.87,399.92,495.21,399.81,494.66,399.47,493.94,399.14,493.49,399.07,492.47,398.85,492.11,398.56,491.94,397.55,492.23,397.44,492.2,397.92,490.57,397.96,489.63,398.27,488.63,398.62,488.24,398.72,487.89,398.78,487.23,398.71,486.67,398.5,486.37,397.66,485.73,396.76,484.96,396.58,483.98,396.3,483.79,395.51,483.74,395.52,483.46,395.64,482.68,395.83,481.99,396.45,481.26,396.6,480.77,396.79,480.33,398.2,479.8,398.37,479.6,398.38,479.43,398.31,479.25,398,478.98,397.67,478.62,397.47,477.61,396.98,476.03,396.52,474.97,396.42,474.35,396.54,473.63,396.7,472.92,396.71,472.23,396.01,468.39,396.06,467.69,396.26,466.98,396.59,466.4,397.32,465.64,398.24,464.24,398.85,462.4,399.18,461.28,399.45,461.02,399.98,460.96,400.18,460.62,400.28,460.41,400.73,460.23,400.88,460,400.76,459.62,400.31,458.96,399.95,458.55,400.3,457.63,400.18,456.39,399.96,455.35,400.26,454.6,400.75,454.53,401.3,455.36,402.12,455.78,402.72,455.23,402.92,454.16,403.35,453.69,403.93,454.11,404.9,454.26,405.7,454.19,406.24,453.96,406.47,453.62,406.68,452.99,407.13,452.19,407.59,451.67,411.1,452.26,414.15,453.36,414.38,452.95,414.48,452.24,413.73,451.63,413.17,451.31,412.46,450.04,411.45,449.03,410.43,448.94,409.09,449.3,407.06,449.08,405.33,447.19,404.19,446.59,403.38,445.12,403.17,444.34,404.05,445.01,404.17,444.31,404.24,443.37,403.75,442.8,403.32,442.46,401.07,443.92,398.5,444.4,400.89,441.52,402.61,439.44,402.93,439.12,403.69,438.56,404.33,437.97,404.84,437.19,406.55,435.66,408.29,434,409.91,431.8,410.49,431.11,411.24,430.37,412.87,428.03,413.39,427.37,415.38,424.42,416.55,422.93,417.13,422.08,419.62,419.25,421.31,416.96,421.97,415.7,422.62,413.89,422.99,412.65,423.64,411.04,423.66,410.5,423.48,410,422.99,409.23,422.32,408.33,421.72,407.24,421.27,406.25,419.88,404.87,417.73,403.11,416.14,401.81,413.7,399.01,413.27,398.31,413.35,398.13,414.74,397.27,416.12,395.07,416.71,393.95,416.86,393.08,416.87,392.09,416.78,391.18,416.6,390.62,415.95,389.91,414.05,388.61,413.6,387.41,413.23,386.14,413.23,385.62,414.13,384.26,414.17,383.57,414.06,382.87,413.81,382.36,411.86,381.74,411.32,381.08,410.88,380.04,410.66,379.14,410.64,378.61,410.78,378.01,411.44,377.36,412.05,376.91,412.16,376.32,412.15,375.68,412.05,375.36,410.83,375.06,410.71,374.88,410.68,374.66,410.75,374.39,411.4,373.24,411.49,371.03,412.11,369.48,411.41,368.57,411.46,368.41,412.53,367.94,413.52,367.82,413.96,367.64,414.01,366.91,413.91,365.93,412.9,362.03,412.67,360.9,412,359.47,411.44,358.51,411.11,357.82,410.57,356.46,410.26,355.07,409.72,353.51,409.09,352.08,408.57,350.74,407.22,348.12,407.04,347.39,407.06,346.73,407.18,346.03,408.23,343.86,409.2,342.05,410.44,339.91,411.64,338.12,412.93,335.99,413.24,333.86,413.18,333.5,412.12,332.34,410.12,329.22,408.91,326.83,407.02,325.82,404.48,324.52,403.63,321.58,403.03,319.08,403.09,318.17,404.93,313.85,405.1,313.06,405.07,312.57,404.88,312.26,404.62,312.1,402.92,311.97,402.65,311.37,403.67,310.92,404.52,310.31,405.91,309.4,406.36,309.16,407.39,308.64,407.74,308.23,408.01,307.75,408.97,304.46,409.21,303.94,412.2,302.75,413.28,302.14,413.91,301.37,414.21,300.77,414.42,300.05,414.58,299.26,414.64,298.53,414.4,297.58,414.53,297.46,414.85,297.5,415.88,298.45,417.46,299.45,418.63,299.53,419.11,299.34,419.36,298.9,419.53,298.04,419.54,297.15,419.17,294.6,420.38,294.87,423.1,296.42,423.73,296.28,424.53,295.81,425.36,293.96,425.97,293.65,426.76,294.08,426.98,293.58,426.57,292.05,426.67,291.27,429.41,292.93,430.58,294.15,433.11,295.21,433.56,295.79,433.59,296.79,433.47,297.65,432.94,298.12,431.85,298.04,427.97,296.72,427.39,297.52,427.86,298.22,429,299.04,429.32,300.48,431.06,300.28,432.73,300.83,433.51,300.65,433.65,301.12,433.11,302.32,433.36,302.62,435.23,301.47,436.1,301.15,436.56,301.46,436.63,302.41,436.32,303.61,436.29,304.52,435.71,306.72,434.83,307.38,434.46,308.29,435.75,307.73,436.44,307.12,437.73,304.11,438.11,303.71,441.78,303.65,442.61,303.85,446.05,305.27,447.03,305.4,448.15,305.22,448.53,304.56,448.91,304.37,452.74,305.96,457.85,309.51,465.33,315.32,469.55,320.42,470.04,321.51,471.57,322.12,471.89,321.7,472.74,322.07,477.7,326.65,479.42,326.89,479.19,325.92,478.9,325.02,479.32,325.23,479.9,325.88,480.84,327.67,481.99,328.99,483.17,330.95,484.14,331.7,485.02,331.98,485.76,332.54,487.11,333.06,487.74,337.81,488.23,338.83,488.23,340.91,489.09,341.75,489.75,341.91,489.72,343.44,489.19,347,488.6,348.52,484.11,354.96,481.3,357.42,475.82,360.22,471.55,361.27,469.82,361.34,466.48,360.82,464.65,360.26,462.4,358.67,460.31,357.88,458.87,357.52,456.2,357.38,450.42,355.81,449.41,355.26,445.78,352.18,444.34,353.05,443.48,353.2,442.9,352.14,443.13,351.86,443.27,351.5,441.22,350.61,439.52,350.55,438.62,349.8,437.51,349.22,437.03,349.57,436.75,349.57,434.52,348.21,433.52,347.11,432.48,345.16,432.73,344.48,433.04,344.03,429.47,342.89,426.07,342.74,426.66,343.29,428.13,343.58,429.07,344.36,430.15,345.47,429.9,346.97,431.4,348.46,432.55,349.87,432.58,350.3,433.03,350.6,434.72,351.01,435.02,352.3,434.74,352.81,434.97,353.52,436.23,354.32,436.99,354.54,437.92,355.02,437.5,356,436.72,356.63,435.93,356.92,436.3,357.15,437.32,357.06,440.99,358.67,442.92,360.28,444.89,363.21,445.53,364.64,445.57,365.44,445.46,366.23,445.18,367.08,445.05,367.93,444.38,370.44,443.9,371.3,442.97,372.29,443.84,374.19,444.75,375.95,445.64,378.86,445.8,380.02,445.84,381.81,446.64,382.5,446.33,382.78,446.01,383.28,446.09,385.58,447.2,387.46,448.87,388.67,449.87,388.91,451.32,388.42,452.36,389.09,454.68,391.35,455.72,393.74,456.15,394.22,458.49,395.11,460.25,395.65,462.93,397.07,463.39,397.12,464.69,395.9,466.93,395.05,467.62,393.87,467.57,392.87,466.99,391.08,466.84,389.32,466.09,388.61,465.4,388.13,463.31,388.49,462.37,388.43,461.66,387.95,460.69,386.69,458.87,383.62,457.89,382.59,457.58,381.95,457.25,381.06,457.29,379.61,458.08,379.66,458.98,378.84,459.63,375.88,460.76,375.51,461.37,375.53,463.97,376.91,467.21,380.56,467.93,380.94,468.68,381,469.92,380.91,470.12,381.38,470.79,381.95,471.27,382.02,474.24,383.17,477.69,385.42,478.98,385.32,479.48,384.07,479.59,383.53,480.99,382.27,481.97,382.06,483.35,382.52,483.6,382.14,483.13,380.28,482.5,378.67,481.56,377.63,479.91,374.56,479.25,373.03,478.92,371.44,479.13,370.04,479.37,369.01,482.81,366.5,484.05,364.99,485.26,363.01,485.81,362.61,487.84,362.06,490.53,360.36,492.59,358.1,494.62,354.63,495.48,353.72,496.17,353.81,497.09,354.35,498.11,355.36,499.49,355.55,500.83,355.39,502.36,355.48,504.49,357.06,504.85,357.56,505.18,358.24,504.49,359.53,504.43,360.36,504.99,359.98,505.75,359.78,506.47,360.05,507.14,360.77,507.63,361.59,508.22,362.27,508.41,361.34,508.49,360.54,508.17,358.5,509,355.62,509.65,354.36,510.8,351.15,510.46,349.05,510.4,346.6,510.23,345.46,509.48,343.81,508.02,342.64,506.54,342.27,506.05,341.13,506.14,339.82,506.55,337.9,507.76,333.82,509.03,328.02,509.07,326.66,508.96,325.92,509.04,325.16,508.89,323.36,508.65,322.03,503.51,316.87,503.2,316.36,503.03,315.67,503.57,315.51,503.96,315.55,507.84,317.96,508.7,318.1,514.77,317.42,517.74,318.01,520.25,319.24,522.04,322.68,523.86,325.8,525.57,328.47,525.62,330.65,523.86,331.1,522.14,331.2,517.8,332.28,516.76,333.5,513.84,337.23,513.59,338.36,513.84,339.45,515.18,340.6,518.03,342.32,519.31,345.72,520.2,347.4,520.88,348.05,521.54,348.22,522.98,348.23,523.99,348.64,524.29,348.96,524.69,348.64,525.62,348.53,531.04,346.74,532.11,345.95,532.47,344.76,532.87,340.76,533.35,339.36,533.81,337.63,533.64,336.56,533.59,335.35,536.3,334.18,538.83,333.38,540.04,333.63,540.34,332.74,539.56,331.04,539.11,330.2,539.5,329.81,540.08,330.28,540.85,330.56,542.2,330.27,547.42,326.77,549.46,324.78,550.67,324,552.59,322.2,553.53,321.61,555.14,321.37,556.88,320.65,558.76,319.3,561.31,318.15,561.72,318.1,562.21,318.27,563.26,319.61,562.87,320.36,562.58,321.17,563.09,321.59,563.51,321.8,564.01,321.58,564.54,321.02,565.85,320.21,566.2,319.16,565.7,318.75,565.04,317.16,564.27,316.83,563.66,316.87,565.94,314.6,570.85,311.22,573.47,309.65,576.05,309.52,578.1,309.72,577.33,310.24,573.95,310.95,573.44,311.31,573.44,311.74,574.26,311.99,574.6,312.49,574.32,313.1,574.07,313.29,573.68,315.01,573.18,316.39,574.24,318.18,574.33,320.04,573.65,321.01,572.71,320.65,571.88,321.3,570.38,321.73,570.04,322.31,569.82,323.11,570.78,323.3,571.54,323.25,574.22,323.77,574.58,323.84,575.47,323.26,576.37,323.13,577.45,322.97,578,322.63,578.57,323.01,579.63,324.62,580.59,324.3,581.01,321.17,582.54,319.23,584.34,317.62,586.07,317.47,587.75,316.33,588.55,316.12,590.11,316.58,592.43,316.67,594.37,317.64,595.84,317.87,597.97,316.26,602.88,311.64,603.31,312.68,604.09,311.15,607.89,309.51,608.82,309.46,608.84,310.09,609.18,311.52,609.92,312.39,610.93,314.46,610.45,315.02,609.94,315.33,609.19,316.72,609.11,319.88,610.53,320.69,612.5,321.59,613.32,321.58,614.01,321.05,614.22,320.77,614.48,320.29,614.65,319.39,614.77,318.67,614.26,316.93,614.47,315.06,616.25,315.18,618.46,314.64,619.46,313.56,620.65,311.54,621.45,309.83,620.94,306.84,619.64,307.5,617.44,300.9,616.32,298.33,617.03,297.13,618.93,296.37,620.64,293.86,621.28,293.35,622,293.27,627.08,294.99,632.87,295.38,637.78,296.7,643.36,299.41,646.06,301.31,648.33,303.42,648.11,304.9,649.02,304.48,651.01,305.78,652.36,306.31,653.76,307.09,654.28,308.13,656.11,308.9,658,310.3,658.34,310.56,660.63,311.6,662.28,311.95,663.27,314.17,666.57,317.4,667.18,318.61,668.15,319.29,668.15,319.39,670.8,340.58,665.93,350.28,656.9,359.56,647.47,367.08,635.9,380.14,623.35,389.91,618.82,437.89,615.6,459.13,611.35,471.16,607.08,479.66,601.89,486.22,600.55,492.04,605.61,496.26,606.35,501.43,602.37,507.85,596.22,509.38,588.82,510.26,591.93,516.13,594.81,520.53,599.16,526.12,603.71,522.5,608.13,519.81,612.67,522.38,614.38,526.59,611.19,529.94,608.48,535.22,608.69,541.59,613.2,543.19,615.11,547.71,616.37,548.16,615.61,548.52zM618.2,291.64,618.4,292.6,618.38,294.39,618.13,295.71,617.37,295.92,616.62,296.46,615.34,295.89,614.63,296.28,613.91,296.3,613.31,296.1,612.73,295.81,612.33,295.47,612.35,294.45,611.82,292.98,611.01,292.51,610.24,292.35,609.41,291.89,608.99,292.11,608.47,292.65,608.12,292.46,606.29,289.35,605.98,288.62,605.79,287.8,605.53,287.28,604.89,285.07,605.21,284.04,605.85,283.39,606.27,283.22,607.05,281.75,608.48,281.1,608.76,281.19,609.03,281.66,610.52,283.18,611.31,284.19,612,285.43,612.72,286.46,614.87,288.22,616.33,289.91,617.81,291.09,618.2,291.64zM567.42,262.57,568.03,264.12,568.57,265.24,569.02,265.15,569.37,265.71,569.45,266.87,568.55,268.84,568.39,269.55,568.78,270.2,568.88,270.56,568.22,270.83,568.1,269.95,567.73,269.08,566.96,268.41,566.65,267.8,566.31,266.43,565.02,264.98,564.2,265.21,563.29,264.56,563.02,264.25,562.96,263.41,563.34,262.74,564.79,262.15,565.5,262.18,566.25,262.78,566.19,262.05,566.27,261.75,566.57,261.83,567.42,262.57zM583.68,219.41,586.82,220.34,589.18,220.63,590.61,221.35,591.14,221.91,590.93,223.36,590.51,223.95,589.53,225.81,589.38,226.96,589.55,228.76,589.4,230.06,589.07,231,588.82,231.39,587.04,231.39,586.39,231.92,586.36,232.93,586.24,234.06,585.67,235.7,584.5,236.23,584.24,236.82,584.33,237.9,583.92,238.71,583.95,239.96,584.15,240.65,584.21,242.08,585.01,244.13,584.86,244.98,584.24,246.63,584.05,248.64,583.53,250.37,584.7,251.81,585.2,253.66,585.66,255.67,587.04,259.55,588.54,262.98,591.31,267.96,594.28,271.69,595.42,272.74,598.24,274.46,598.73,275,599.19,275.76,597.99,277.14,596.76,277.64,596.64,278.27,595.96,278.59,592.62,277.43,592.44,277.25,592.08,276.39,591.69,275.76,590.85,275.65,590,276.04,590.51,276.82,591.06,277.06,592.03,278.5,591.62,279.05,591.18,279.12,589.21,277.2,589.03,277.44,588.84,278,587.86,277.37,587.63,277.84,586.89,278.06,586.28,277.52,586.28,276.85,586.15,276.5,583.12,277.03,581.87,277.02,580.63,276.79,579.14,275.49,578.89,276.07,578.84,276.75,578.28,276.48,577.04,275.43,576.14,275.02,572.93,274,570.65,272.79,571.22,272.24,572.2,271.95,572.21,271.2,572.06,270.17,572.02,269.1,572.58,268.39,573.84,268.73,573.68,267.56,574.28,267.33,575.43,268.01,575.85,267.58,574.03,266.11,572.05,264.01,572.26,263.25,571.54,263.04,570.83,263.09,570.22,261.85,570.31,260.2,570.84,259.08,570.52,258.83,567.46,259.82,565.91,259.6,564.16,258.93,562.55,259.92,560.92,260.25,560.08,259.9,559.27,259.18,558.59,258.2,558.05,256.56,557.57,253.8,557.5,252.75,557.6,250.39,557.86,249.41,558.53,247.41,559.01,246.8,560.03,245.86,560.57,245.62,561.8,246.1,563.04,246.13,563.58,245.6,564.08,244.66,564.45,243.43,565.29,242.73,565.53,242.36,565.8,241.56,566.09,240.36,566.14,239.33,566.38,238.31,567.15,236.81,566.88,235.88,566.99,235.25,567.51,234.13,565.94,233.82,565.41,233.33,564.9,232.58,565.05,231.87,565.24,231.35,566.81,229.44,567.49,228.87,568.23,228.56,568.98,228.57,569.78,228.78,570.56,228.49,569.73,227.19,569.67,226.32,569.34,224.17,569.4,223.16,569.76,222.34,570.48,221.37,571.52,221.05,572.33,220.54,573.14,219.76,573.89,219.63,575.41,220.16,576.16,220.04,577,219.62,579.35,217.96,580.21,217.55,581.13,217.65,582.34,218.27,583.68,219.41zM667.41,144.09,664.72,146.24,663.12,147.73,661.55,148.74,659.96,149.44,657.44,151.21,652.97,153.4,650.16,155.2,647.09,156.61,643.85,158.48,640.6,159.77,639.79,159.87,637.48,161.65,635.66,162.39,629.07,166.37,626.04,169.26,625.17,169.49,624.29,169.38,623.57,170.28,622.89,171.83,621.46,173.38,620.75,174.77,620.01,175.87,619.58,176.22,618.76,176.11,618.37,176.23,617.03,177.46,616.79,178.42,618.23,179.06,618.54,180.13,618.12,180.89,617.19,181.88,616.66,182.92,615.71,183.96,615.05,184.25,613.47,184.22,613.38,185.5,613.63,186.29,613.5,186.99,612.97,187.67,612.45,187.58,610.05,185.57,609.66,186.26,609.5,187.66,609.42,189.15,609.12,190.27,608.71,190.82,607.96,191.4,605.31,190.49,605.09,191.36,605.49,192.42,606.06,194.77,606.19,195.73,605.87,197.27,604.68,199.7,600.15,202.52,600.22,203.5,600.73,205.35,600.85,206.5,600.67,207.59,600.07,208.46,599.41,208.49,599.04,208.31,598,207.1,597.09,206.8,596.94,207.37,598.11,209.02,598.63,211.13,598.08,212.27,595.89,214.79,594.74,218.04,592.52,219.5,591.15,219.67,589.79,219.27,588.49,218.53,585.22,218.27,583.41,217.44,581.57,215.99,579.97,216.09,578.61,216.82,576.82,218.41,575.68,215.34,576.17,213.9,573.71,210.19,573.2,208.53,573.8,207.7,574.55,207.18,575.97,205.64,577.4,204.43,578.87,204.05,579.12,203.85,579.73,202.03,580.39,200.52,580.99,199.7,581.68,198.28,583.82,192.48,584.33,192.06,588.78,190.93,589.18,190.56,587.9,189.4,586.58,189.42,585.98,189.04,585.63,188.17,585.44,187.23,585.97,186.5,587.67,182.93,589.72,180.32,591.61,178.77,591.14,178.36,590.54,177.31,588.24,177.57,587.33,176.13,587.05,175.29,586.98,174.4,587.72,173.26,588.49,172.57,589.35,172.78,590.2,173.36,590.87,174.05,591.52,175.15,592.09,175.11,594.15,171.25,593.83,170.37,593.7,169.02,593.94,168.41,594.91,167.78,595.57,167.55,597.01,167.83,599.07,168.68,599.23,168.28,599.75,165.66,600.25,164.25,602.34,161.94,602.2,161.22,602.1,160.02,604.53,158.48,606.1,156.92,607.64,154.78,608.4,154.31,609.18,154.26,610.77,153.34,613.7,152.26,615.41,151.21,615.96,148.9,617.05,148.07,619.25,147.72,620.08,147.85,620.56,148.84,621.51,148.77,621.88,148.26,622.26,147.41,622.14,146.02,622.13,144.22,622.95,143.07,623.25,142.83,625.73,142.36,627.19,142.57,630.22,143.97,631.79,144.29,633.89,143.87,635.16,144.11,638.89,142.05,645.2,140.09,646.84,138.72,648.47,137.04,649.3,136.68,650.14,136.6,650.89,136.07,652.36,134.63,653.09,134.31,653.89,134.3,654.61,133.31,655.26,131.13,655.96,129.43,657.86,127.22,661.11,124.17,664.04,122.98,665.86,121.67,666.65,121.55,669.11,122.18,672.26,123.88,673.7,125.75,674.87,128.15,675.13,129,675.33,130.55,674.98,131.96,674.77,133.39,675.05,134.48,672.75,138.05,670.49,141.93,670.11,142.75,667.41,144.09z"/>
                    <path id="UA" style="stroke-width:0.1;fill:lightgrey" data-name="Ukraine" class="land" d="M468.59,599.13,468.35,599.24,466,599.09,464.08,599.3,462.71,600.85,461.89,600.85,460.74,601.25,459.96,601.75,459.04,602.84,458.32,602.35,457.45,602.37,456.6,602.66,455.57,603.39,455,603.51,453.86,603.31,452.53,603.72,449.66,606.09,448.69,607.82,448.34,608.15,447.85,608.57,447.33,608.78,447.06,608.76,448.43,607.54,448.85,607.08,448.92,606.74,448.93,606.19,448.51,605.51,447.39,607.2,446.76,607.44,445.95,607.95,445.91,609.08,446,609.91,446.33,610.96,447.12,612.67,448.71,615.11,449.48,616,450.04,616.36,450.72,616.41,452.02,615.66,452.57,615.54,453.78,615.83,454.21,615.33,454.84,615.05,455.64,615.02,456.56,615.24,457.56,615.62,457.15,616.48,456.72,617.16,456.57,617.91,456.34,618.75,455.24,619.12,454.06,619.08,452.82,619.32,452.37,618.99,452.07,618.7,451.52,618.4,450.8,618.23,450.14,618.43,449.37,619.57,448,620.35,447.55,621.24,446.21,621.04,445.06,621.2,443.4,622.01,442.13,623.73,440.74,624.81,439.63,625.15,438.59,625.05,437.92,624.72,436.54,623.59,436.62,623.18,436.81,622.98,437.07,622.39,437.63,620.24,437.55,619.54,437.24,618.44,436.15,617.58,435.27,617.75,434.76,617.52,432.96,616.05,431.98,615.95,430.89,616.25,430.49,616.03,430.2,615.52,432.35,613.71,434.46,612.21,435.39,612.05,436.64,611.35,437.98,610.3,437.79,609.47,437.5,608.86,436.86,609.03,436.4,609.23,435.28,608.57,434.87,608.09,433.12,608.59,432.14,608.52,429.99,608.98,429,608.53,427.02,607.26,426.28,607.01,425.64,607.06,425.3,606.64,425.72,606.43,426.21,606.41,426.72,606.26,426.87,606.03,426.84,605.62,425.81,605.3,424.85,605.21,424.25,604.84,423.78,604.41,424.87,604.4,425.96,604.72,427.66,604.84,429.21,605.18,429.6,604.76,430.5,604.04,430.67,603.81,429.16,604.3,427.63,603.99,427.08,603.54,426.61,602.89,426.41,602.15,426.54,601.46,426.37,600.21,425.87,599.1,425.69,598.48,425.16,597.93,425.68,599.18,425.88,600,426.19,600.76,426.12,602.77,425.92,603.47,425.3,603.65,424.47,603.54,423.63,603.33,423.84,602.22,423.39,602.6,422.76,603.68,422.21,603.84,420.97,603.72,418.68,604.43,418.52,605.2,418.18,606.24,417.85,606.84,417.74,607.21,416.76,608.77,416.64,608.92,414.8,611.08,414.56,611.24,413.37,611.74,412.66,612.18,412.12,612.37,411.2,612.16,410.82,612.47,410.64,612.85,410.64,613.64,411.1,614.21,411.48,616.1,411.34,616.9,410.98,616.38,410.41,615.84,409.31,615.37,408.1,615.53,406.78,616.32,405.88,616.61,405.41,616.41,405.13,616.42,405.02,616.64,405.05,616.83,405.19,616.97,405.17,617.08,404.98,617.14,402.9,616.59,402,616.06,401.3,615.08,401.65,614.76,401.95,614.61,403.04,614.53,403.22,614.43,403.24,614.2,403.32,613.91,403.29,613.47,403.17,613.01,403.65,612.34,404.36,611.78,404.77,611.22,404.84,610.4,405.58,610,406.24,609.31,406.41,608.55,406.64,608.08,406.22,606.99,406.13,606.28,406.11,605.67,406.31,605.34,406.93,604.96,407.58,604.67,407.85,604.7,407.95,604.89,407.97,606.11,408.1,606.13,408.31,605.98,408.65,605.26,408.88,605.47,409.24,605.55,409.51,605.36,409.68,605.39,409.9,605.57,410.33,605.83,410.73,605.92,411.07,605.75,411.35,605.43,411.65,605.54,412.23,606.39,412.5,606.3,413.83,606.13,414.05,605.89,414.2,605.68,412.81,604.56,412.88,603.71,412.94,602.75,412.77,602.17,412.5,601.72,411.44,601.19,410.62,600.64,410.44,600.39,410.42,600.07,410.39,599.57,410.06,599.14,410.03,598.77,410.24,598.2,410.29,597.6,410.22,597.36,410.03,597.16,409.66,597.15,409.17,596.79,408.84,596.32,407.94,595.64,407.67,595.53,407.5,595.19,407.42,594.79,407.61,594.28,407.85,593.51,408.01,592.78,408.01,592.35,407.9,591.27,407.44,590.45,407.22,590.34,406.84,590.57,406.41,590.77,406.08,590.58,405.69,590.14,405.07,588.89,403.91,588.64,403.44,588.58,402.98,589.19,402.84,589,402.71,588.62,402.47,588.46,402.16,588.64,402.07,588.47,402.2,587.95,401.82,587.69,400.93,587.7,400.46,587.51,400.41,587.12,400.12,586.86,399.62,586.74,399.13,586.42,398.66,585.9,397.94,585.56,397,585.41,396.92,585.35,396.83,585.28,396.22,585.63,395.85,585.91,395.4,585.73,394.68,586.35,393.2,586.38,392.47,586.35,392.11,586.19,390.72,587.13,390.57,587.48,390.26,587.59,389.39,587.78,388.47,588.04,388.27,588.96,388,589.45,387.5,590.17,385.8,590.42,384.32,590.77,382.81,590.99,380.82,591.87,380.18,592.64,379.54,592.86,378.96,592.92,378.59,592.49,377.33,591.33,376.85,590.79,376.21,590.62,375.52,590.72,374.85,590.98,374.15,591.04,373.36,590.65,373.27,590.69,372.97,590.74,371,590.27,370.81,590.19,370.73,590.17,370.45,590.14,368.97,590.19,367.59,589.25,367.16,589.22,366.84,589.6,366.59,590.03,365.64,590.45,365.39,590.62,365.26,590.49,365.19,590.12,365.26,589.8,365.12,589.49,364.76,589.14,364.67,588.99,364.22,589.02,364.09,589.05,364.05,589.05,363.42,588.75,363,588.03,362.35,587.65,361.85,587.52,361.63,587.21,361.48,586.8,361.33,586.49,361.31,586.46,361.2,585.99,361.05,585.94,361.02,585.93,360.38,586.01,360.46,584.36,361.48,583.16,361.73,582.56,362.12,581.25,362.4,580.64,362.75,580.13,363.02,579.64,363.12,579.21,363.4,579.17,364.22,579.55,364.95,579.75,365.15,579.56,365.23,579.32,365.2,579.13,364.61,578.56,364.24,578.2,364.22,577.98,364.35,577.49,364.42,576.93,364.34,576.32,363.94,574.98,363.87,574.41,364.25,573.71,365.49,572.05,365.9,571.43,366.47,570.67,368,568.85,368.97,567.79,369.63,567.21,370.59,566.19,371.01,565.66,372.77,565.31,372.99,564.82,373.31,564.27,373.56,564.04,373.59,563.12,373.26,562,373,561.61,372.81,561.34,372.93,561.08,373.13,561.01,373.37,560.98,373.66,560.71,373.6,560.41,372.86,559.69,372.54,559.13,372.03,557.7,371.02,556.21,370.7,555.73,370.65,555.28,370.8,554.82,370.66,554.24,370.3,553.49,370.35,553.41,370.32,552.49,370.58,552.29,370.98,552.16,371.55,552.2,372.04,552.35,372.62,552.77,372.81,552.7,373.81,551.91,374.84,550.71,375.13,550.02,375.39,549.7,376.28,549.53,377.07,549.46,377.56,549.48,378.78,549.36,379.51,549.23,380.13,549.02,381.48,548.94,383.59,549.08,384.97,549.09,385.91,549.2,388.21,549.84,389.06,549.95,389.46,550.29,390.22,550.42,391.61,550.76,392.82,550.94,393.64,550.86,394.09,550.96,394.96,552.46,395.13,552.63,395.48,552.67,396.18,552.54,397.18,552.59,397.78,552.9,397.69,553.79,397.85,553.92,398.13,553.87,398.45,553.37,398.71,552.85,398.91,552.69,399.94,553.04,400.41,552.98,400.84,552.59,401.1,552.52,401.83,552.8,402.72,553,403.45,553.01,403.9,553.23,404.22,554.16,404.51,554.35,404.79,554.4,405.2,553.57,405.58,553.25,406.11,553.01,406.44,552.91,406.68,552.62,407,552.33,407.28,552.31,407.51,552.42,407.77,552.82,408.14,553.72,408.6,554.62,408.93,554.95,409.75,554.67,410.32,554.39,411.34,554.34,412.71,554.14,413.75,553.88,414.4,553.92,414.8,554.21,415.4,554.77,415.57,555.57,416.35,556.12,416.99,556.22,417.2,555.64,417.58,555.24,417.44,554.7,417.38,554,417.1,553.35,416.91,552.65,417.25,551.64,417.62,550.76,417.81,550.28,418.4,549.4,419.01,548.77,419.92,547.76,420.58,547.42,421.18,547.57,421.52,547.71,422.38,547.11,423.91,547.08,425.19,547.16,425.31,547.17,425.94,547.49,426.6,547.75,427.06,547.77,427.6,547.71,428.24,547.35,428.68,547.01,429.22,545.28,429.41,545.03,429.71,544.9,430.2,544.88,431.12,545.2,432.2,545.5,432.83,545.45,434.51,544.53,435.44,544.39,436.55,544.6,437.63,544.62,438.45,544.48,439.02,544.8,439.71,545.51,440.34,546.55,441,548.48,442.91,550.65,442.94,551.07,442.79,551.34,441.84,551.61,441.05,551.75,441.01,552.12,441.22,552.52,441.59,553.1,441.64,553.86,441.62,554.55,441.78,555.16,442.09,555.41,442.12,555.71,441.77,556.09,441.67,556.32,441.81,556.44,443.54,556.52,444.39,556.88,445.03,557.21,445.35,557.24,446.08,557.03,446.9,556.89,447.39,556.88,447.59,557.12,447.74,557.76,448.03,558.4,448.3,558.58,448.77,558.55,449.06,558.58,449.22,558.83,449.04,559.19,449.08,559.59,449.29,560.07,449.54,561.2,449.77,561.53,449.92,561.95,449.92,562.44,449.73,562.86,449.6,563.19,449.73,563.94,450.25,564.79,450.63,565,450.94,565.75,451.5,565.99,452.32,565.36,452.95,565.03,453.74,565.21,454.47,565.33,454.97,565.76,455.33,566.35,455.75,566.68,456.17,566.5,457.05,566.68,457.46,567.15,457.86,567.42,458.38,567.03,458.8,566.56,460.34,566.05,461.3,565.93,461.57,565.83,462.13,565.47,462.73,565.23,463.26,565.3,463.79,566.04,464.34,566.56,464.49,567.36,465.16,568.47,466.81,569.99,467.46,570.45,467.9,570.37,468.14,570.25,468.24,570.09,468.34,569.35,468.55,569.08,468.89,569.07,470.18,569.99,470.86,570.09,471.51,570.11,472.37,570.82,473.33,571.44,474.06,571.51,474.65,571.27,475.05,571.12,475.3,571.35,475.53,571.89,475.91,572.3,476.36,572.42,476.99,572.45,478.09,573.25,479.13,574.07,479.78,574.11,480.32,573.87,480.81,573.81,481.15,574.02,481.24,574.37,480.99,574.84,480.99,575.52,481.45,576.17,481.47,576.8,481.34,577.38,481.07,577.9,480.44,578.63,479.86,579.3,478.99,579.58,478.5,579.88,478.62,580.37,478.94,580.83,479.69,581.21,480.53,581.48,480.63,581.78,480.5,581.93,479.96,582.06,479.21,581.92,478.96,582.18,478.62,582.62,478.39,583.4,478.21,584.13,479.03,584.32,479.5,584.62,479.65,585.21,479.81,585.87,479.86,586.46,479.59,586.75,479.58,587.05,479.7,587.19,480.05,587.26,480.32,587.39,480.34,587.7,479.83,588.4,479.35,589.74,479.1,590.45,479.11,591.22,478.83,591.65,478.31,591.69,476.51,591.76,474.94,591.72,474.26,591.61,473.2,591.55,472.68,591.73,471.98,592.96,471.46,593.44,470.59,593.87,469.63,593.99,469.08,594.5,468.89,595.29,468.87,595.99,468.78,596.34,468.58,596.65,468.5,596.87,468.55,597.11,468.77,597.19,469.04,597.3,469.04,597.48,468.93,597.7,468.64,597.94,468.5,598.31,468.53,598.7,468.59,599.13zM426.86,607.82,427.79,608.29,426.84,608.17,424.76,607.72,423.84,607.29,423.61,606.82,423.47,606.17,423.99,606.85,424.35,607.15,426.86,607.82z"/>
                    <path id="SK" style="stroke-width:0.1;fill:lightgrey" data-name="Slovakia" class="land" d="M363.12,579.21,363.02,579.64,362.75,580.13,362.4,580.64,362.12,581.25,361.73,582.56,361.48,583.16,360.46,584.36,360.38,586.01,360.25,586.13,357.93,586.69,357.62,586.6,357.31,586.28,357.13,586.05,357.02,585.88,356.82,585.42,356.56,585.09,356.16,584.83,355.81,584.52,355.34,584.51,354.09,584.94,353.22,584.99,352.64,584.85,351.87,584.59,350.37,584.55,349.34,584.78,349.24,585.1,348.29,587.12,346.91,587.86,345.71,588.62,345.36,588.77,344.76,588.54,344.08,588.09,343.52,587.85,343.11,587.95,342.66,588.46,342.45,588.98,341.1,589.36,338.73,589.58,337.91,590.09,337.63,590.7,337.62,591.17,337.82,591.57,337.57,592.03,337.46,592.23,335.79,592.33,333.56,592.46,332.23,592.43,330.98,592.4,330.13,592,329.09,591.22,327.99,590.19,327.88,590.16,327.72,590.05,327.03,589.97,326.85,590.03,326.43,589.7,326.31,589.26,325.67,588.1,324.95,586.2,324.93,585.64,325.21,585.02,325.48,584.53,325.51,584.15,325.54,584.05,325.76,583.26,326.28,582.2,326.77,581.58,327.12,581.38,327.85,581.56,329.1,581.72,330.06,581.57,330.96,581.1,331.45,580.69,331.86,580.25,332,579.97,332.19,579.84,332.93,579.58,333.16,579.29,333.26,578.73,333.32,578.11,333.48,577.65,333.67,577.32,335.04,576.5,335.16,576.22,335.38,575.94,335.79,575.63,336.18,575.18,336.6,574.9,337.13,574.93,337.63,574.87,338.01,574.72,338.18,574.7,338.9,574.83,339.02,575.35,339.1,575.89,340.32,575.85,341,574.69,341.35,574.56,341.91,574.15,342.28,573.8,342.54,574.02,342.91,574.76,343.3,575.36,343.53,575.59,343.55,575.78,343.78,575.89,344.22,575.95,344.52,576.13,344.61,576.69,344.61,577.19,344.48,577.54,344.4,577.86,344.71,577.98,345.16,577.87,345.48,577.69,346.43,578.1,346.76,577.18,347.14,576.71,347.63,576.49,348.08,576.2,348.48,576,348.76,576.01,348.88,575.93,349.23,575.95,349.64,576.04,350.19,575.93,350.95,576.16,351.42,576.58,351.88,576.73,352.41,576.7,352.78,576.47,353.3,575.66,353.68,575.67,354.28,575.54,355.13,575.55,357.07,575.72,357.56,576.03,358.76,576.43,359.28,576.89,359.51,577.43,359.63,577.81,360.86,578.39,362.68,579.13,363.12,579.21z"/>
                    <path id="RS" style="stroke-width:0.1;fill:lightgrey" data-name="Serbia" class="land" d="M347.67,608.74,348.07,609.3,348.45,610.03,348.99,610.36,349.62,610.76,349.95,611.05,350.43,611.92,350.81,612.34,350.94,612.32,351.07,612.21,351.15,612.12,351.25,612.2,351.26,612.47,351.28,613.05,351.19,613.67,351.33,614.25,351.33,614.43,351.24,614.6,351.25,614.75,351.38,614.91,351.9,615.29,352.38,615.89,352.93,616.31,353.44,616.57,353.76,616.59,354.29,617.07,355.34,617.42,355.67,617.54,355.9,617.73,356.07,617.96,356.08,618.21,355.92,618.33,355.69,618.66,355.6,619.06,355.43,619.16,355.27,619.17,355.14,619.28,355.17,619.46,355.31,619.62,355.53,619.77,355.94,619.92,356.36,620.14,356.35,620.31,356.27,620.5,355.74,620.57,355.35,620.6,355.18,620.68,355.19,621.01,356.29,621.36,356.79,621.69,357.05,622.11,357.75,622.39,358.89,622.53,359.68,622.97,360.12,623.7,360.85,623.52,361.86,622.44,362.85,622.15,363.82,622.67,364.35,623.1,364.44,623.44,364.21,623.57,363.67,623.51,363.22,623.72,362.88,624.19,362.82,624.7,363.07,625.24,363.41,625.62,363.86,625.82,364.09,626.1,364.12,626.46,364.24,626.56,363.99,626.72,363.71,626.97,363.56,627.39,363.52,628.08,362.65,628.61,362.33,628.71,362.18,629.07,361.96,630.07,361.98,630.82,362.1,631.2,362.15,631.51,362.43,631.89,362.69,632.48,362.86,633.25,363.23,633.85,364.19,634.43,364.66,634.78,365.01,635.27,365.28,635.71,366.07,636.31,366.01,636.73,365.84,637.14,365.65,637.34,365.26,637.87,364.88,638.17,364.25,639.1,363.25,639.15,363.01,639.22,362.64,639.48,362.45,639.94,362.63,640.32,362.61,640.7,362.43,641.43,362.67,642.21,363.02,642.57,363.08,642.78,363.02,643.14,362.5,643.89,362.34,644.16,361.81,644.3,361.63,644.23,361.36,643.97,361.11,643.9,360.48,644.2,359.85,644.38,359.35,644.24,358.85,644.22,358.51,644.35,358.25,644.39,357.74,644.72,356.93,644.95,356.55,644.9,356.41,644.6,356.26,644.16,356.33,643.97,356.87,643.63,356.93,643.3,357.68,641.74,357.83,641.22,357.83,641.06,357.64,640.95,357.23,640.95,355.4,640.31,355.48,639.58,354.94,639.18,354.36,638.83,354.27,638.44,353.62,637.64,353.15,637.19,352.55,636.97,352.03,636.64,351.72,636.44,351.58,636.07,351.58,635.85,351.43,635.63,351.18,635.66,350.75,635.95,350.23,636.21,350.14,636.4,350.33,636.84,350.46,637.12,350.4,637.38,350.24,637.72,349.24,638.47,349.12,638.73,349.32,639.14,349.2,639.34,348.36,639.61,348.38,639.38,348.33,639.02,347.85,638.63,347.17,638.32,345.66,637.29,345.09,637.15,344.57,637.03,343.83,636.53,343.45,636.44,343.02,636.08,342.1,634.88,341.32,634.22,340.78,633.89,340.63,633.57,340.6,633.23,340.62,633.12,341.02,632.65,341.34,632.58,341.74,632.56,342,632.8,342.35,632.85,342.54,632.55,342.64,632.1,342.6,631.54,341.76,630.23,341.04,629.31,340.96,629.11,341.12,628.94,341.37,628.84,341.63,628.92,342.34,628.99,343.01,628.9,343.24,628.68,343.24,628.38,342.99,628.1,342.21,627.34,341.59,626.67,340.87,626.16,340.33,625.95,340.18,625.69,340.11,625.41,340.17,624.9,340.2,624.25,340.33,623.84,340.81,623.06,341.28,622.24,341.56,621.45,341.71,620.71,341.66,620.5,341.42,620.34,340.91,620.18,340.2,620.32,339.6,620.59,339.36,620.61,339.28,620.28,339.38,620.13,339.57,620.15,339.72,620.21,339.89,620.06,339.99,619.62,339.74,618.06,340.19,617.93,340.19,617.7,340.23,617.5,340.7,617.77,341.35,617.78,341.92,617.72,342.01,617.57,342,617.35,341.88,617.17,341.68,617.03,341.53,616.82,341.15,616.72,339.94,616.16,339.34,615.56,339.36,614.93,339.54,614.58,339.74,614.46,339.68,614.34,339,614.04,338.76,613.63,338.96,613.11,338.6,612.04,338.23,611.38,338.6,611.09,338.65,610.68,338.68,610.45,338.83,610.45,339.42,610.18,339.63,609.96,339.76,609.7,339.9,609.63,340.3,609.92,340.71,609.94,341.18,609.76,341.53,609.51,341.96,609.31,342.15,609.17,342.39,608.94,342.88,608.29,343.44,608.15,344.19,608.32,344.99,608.38,345.6,608.23,347.13,608.42,347.45,608.57,347.67,608.74z"/>
                    <path id="RO" style="stroke-width:0.1;fill:lightgrey" data-name="Romania" class="land" d="M401.3,615.08,402,616.06,402.9,616.59,404.98,617.14,405.17,617.08,405.19,616.97,405.05,616.83,405.02,616.64,405.13,616.42,405.41,616.41,405.88,616.61,406.78,616.32,408.1,615.53,409.31,615.37,410.41,615.84,410.98,616.38,411.34,616.9,411.23,617.53,411.16,617.93,410.87,619.56,410.67,620.17,410.35,620.85,406.92,621.67,407.14,621.28,407.06,620.59,406.92,620.07,407.24,619.61,406.46,619.44,406.13,619.69,405.86,620.14,406.1,621.17,405.72,621.74,405.58,622.06,405.56,622.81,405.34,623.13,405.3,623.48,405.84,623.39,405.6,624.04,404.57,625.28,404.21,626.02,404.3,628.93,403.84,630.67,403.8,631.18,402.72,631.2,402.39,631.16,401.36,630.9,400.2,630.44,399.52,629.54,399.09,628.9,398.11,629.19,397.92,629.11,397.65,628.8,396.91,628.59,396,628.59,393.95,627.42,393.72,627.22,392.11,627.42,389.7,628,387.86,628.71,385.96,629.99,385.19,630.95,384.3,631.46,383.03,631.84,380.76,631.7,378.39,631.22,375.85,630.7,374.48,630.98,372.62,630.77,369.82,630.15,367.74,629.96,365.68,630.32,365.33,630.04,365.26,629.72,365.34,629.27,365.63,628.9,366.13,628.62,366.39,628.34,366.42,628.05,365.86,627.59,364.71,626.96,364.24,626.56,364.12,626.46,364.09,626.1,363.86,625.82,363.41,625.62,363.07,625.24,362.82,624.7,362.88,624.19,363.22,623.72,363.67,623.51,364.21,623.57,364.44,623.44,364.35,623.1,363.82,622.67,362.85,622.15,361.86,622.44,360.85,623.52,360.12,623.7,359.68,622.97,358.89,622.53,357.75,622.39,357.05,622.11,356.79,621.69,356.29,621.36,355.19,621.01,355.18,620.68,355.35,620.6,355.74,620.57,356.27,620.5,356.35,620.31,356.36,620.14,355.94,619.92,355.53,619.77,355.31,619.62,355.17,619.46,355.14,619.28,355.27,619.17,355.43,619.16,355.6,619.06,355.69,618.66,355.92,618.33,356.08,618.21,356.07,617.96,355.9,617.73,355.67,617.54,355.34,617.42,354.29,617.07,353.76,616.59,353.44,616.57,352.93,616.31,352.38,615.89,351.9,615.29,351.38,614.91,351.25,614.75,351.24,614.6,351.33,614.43,351.33,614.25,351.19,613.67,351.28,613.05,351.26,612.47,351.25,612.2,351.15,612.12,351.07,612.21,350.94,612.32,350.81,612.34,350.43,611.92,349.95,611.05,349.62,610.76,348.99,610.36,348.45,610.03,348.07,609.3,347.67,608.74,347.93,608.5,349.46,608.17,350.17,608.5,350.49,608.38,350.8,608.12,350.97,607.91,351,607.68,351.16,607.4,351.67,607.27,353.04,607.44,353.59,607.05,353.79,606.84,353.92,606.37,354.06,605.99,354.55,605.79,354.54,605.44,354.47,605.07,354.75,604.23,354.92,603.88,355.2,603.76,355.53,603.49,356.11,602.94,355.98,602.46,356.1,602.1,356.7,601.23,357.16,600.39,357.15,599.97,357.22,599.6,357.63,599.2,358.05,598.67,358.62,597.03,358.82,596.75,359.19,596.44,359.47,596.12,359.5,595.04,359.75,594.72,360.25,594.37,360.74,593.8,361.14,593.13,361.45,592.82,361.86,592.74,362.31,592.47,362.8,592.37,363.28,592.5,363.59,592.43,364.05,592.11,365.23,590.87,365.39,590.62,365.64,590.45,366.59,590.03,366.84,589.6,367.16,589.22,367.59,589.25,368.97,590.19,370.45,590.14,370.73,590.17,370.81,590.19,371,590.27,372.97,590.74,373.27,590.69,373.36,590.65,374.15,591.04,374.85,590.98,375.52,590.72,376.21,590.62,376.85,590.79,377.33,591.33,378.59,592.49,378.96,592.92,379.54,592.86,380.18,592.64,380.82,591.87,382.81,590.99,384.32,590.77,385.8,590.42,387.5,590.17,388,589.45,388.27,588.96,388.47,588.04,389.39,587.78,390.26,587.59,390.57,587.48,391.21,587.44,391.71,587.52,392.47,587.97,393.01,588.54,393.22,588.98,393.68,589.62,394.16,590.5,394.69,591.68,394.81,592.28,395.01,592.92,395.4,593.7,396.16,594.56,396.27,594.72,396.61,595.33,397.27,596.67,397.82,597.21,398.3,597.79,398.54,598.37,398.88,598.91,399.69,599.61,400.35,600.25,400.87,602.08,401.24,602.92,401.48,603.56,401.36,604.86,401.51,605.41,401.21,606.42,400.67,608.45,400.54,610.05,400.63,610.92,400.64,611.47,400.77,611.83,400.92,612.56,400.94,613.19,400.75,613.37,400.47,613.52,400.37,613.65,400.62,613.94,400.96,614.47,401.3,615.08z"/>
                    <path id="PL" style="stroke-width:0.1;fill:lightgrey" data-name="Poland" class="land" d="M343.38,520.64,343.65,520.78,345.53,520.93,347.44,521.09,350.51,521.25,353.71,521.42,357.04,521.6,360.63,521.79,364.42,521.9,364.65,521.83,365.04,521.38,365.51,521.44,366.07,521.72,366.33,521.92,366.44,522.16,366.51,522.43,366.81,522.49,367.37,522.69,368.12,523.17,368.72,523.63,369.28,524.28,369.46,525.02,369.47,525.86,369.44,526.39,369.49,526.61,370.25,530.48,371.54,534.19,372.01,535.97,372.19,536.91,372.34,538.28,372.39,539.24,372.38,539.78,372.29,540.52,371.91,540.96,369.45,542.2,368.99,542.59,368.27,543.56,367.6,544.56,367.44,544.9,367.4,545.12,367.55,545.45,368.43,545.98,369.31,546.41,369.6,546.73,370.25,547.13,370.49,547.5,370.61,547.82,370.61,548.55,370.31,549.57,370.44,550.34,370.14,550.85,369.89,551.41,369.86,552.4,370.3,553.49,370.66,554.24,370.8,554.82,370.65,555.28,370.7,555.73,371.02,556.21,372.03,557.7,372.54,559.13,372.86,559.69,373.6,560.41,373.66,560.71,373.37,560.98,373.13,561.01,372.93,561.08,372.81,561.34,373,561.61,373.26,562,373.59,563.12,373.56,564.04,373.31,564.27,372.99,564.82,372.77,565.31,371.01,565.66,370.59,566.19,369.63,567.21,368.97,567.79,368,568.85,366.47,570.67,365.9,571.43,365.49,572.05,364.25,573.71,363.87,574.41,363.94,574.98,364.34,576.32,364.42,576.93,364.35,577.49,364.22,577.98,364.24,578.2,364.61,578.56,365.2,579.13,365.23,579.32,365.15,579.56,364.95,579.75,364.22,579.55,363.4,579.17,363.12,579.21,362.68,579.13,360.86,578.39,359.63,577.81,359.51,577.43,359.28,576.89,358.76,576.43,357.56,576.03,357.07,575.72,355.13,575.55,354.28,575.54,353.68,575.67,353.3,575.66,352.78,576.47,352.41,576.7,351.88,576.73,351.42,576.58,350.95,576.16,350.19,575.93,349.64,576.04,349.23,575.95,348.88,575.93,348.76,576.01,348.48,576,348.08,576.2,347.63,576.49,347.14,576.71,346.76,577.18,346.43,578.1,345.48,577.69,345.16,577.87,344.71,577.98,344.4,577.86,344.48,577.54,344.61,577.19,344.61,576.69,344.52,576.13,344.22,575.95,343.78,575.89,343.55,575.78,343.53,575.59,343.3,575.36,342.91,574.76,342.54,574.02,342.28,573.8,341.91,574.15,341.35,574.56,341,574.69,340.32,575.85,339.1,575.89,339.02,575.35,338.9,574.83,338.18,574.7,338.16,574.4,338.01,573.64,336.59,572.14,336.41,571.51,336.47,571.27,336.37,570.87,336.06,570.63,334.93,570.35,334.64,570.51,334.38,570.34,333.97,569.98,333.25,569.69,333.17,569.54,332.92,569.28,332.77,569.25,332.68,569.4,332.48,569.62,331.74,569.9,331.45,569.79,331.18,569.55,330.88,569.02,330.44,568.56,330.08,568.4,329.87,568.15,329.82,567.97,330.63,567.59,330.8,567.2,330.7,566.48,330.58,566.39,330.26,566.64,329.59,566.85,328.97,566.95,328.65,566.95,326.88,565.65,325.73,565.25,325.05,565.13,324.98,565.26,325.28,565.99,325.81,566.89,325.79,567.13,325.15,567.5,324.79,567.66,324.37,567.97,324.01,568.4,323.7,568.6,323.43,568.55,323.14,568.34,322.41,567.01,321.49,565.99,321.38,565.77,321.09,565.71,320.68,565.48,320.54,565.17,320.75,564.84,321.03,564.54,321.53,564.36,321.68,564.18,321.77,563.92,321.95,563.58,321.9,563.46,321.55,563.08,321.03,562.72,319.57,562.99,319.18,563.18,318.95,562.93,318.78,562.56,318.41,562.49,317.91,562.15,317.31,561.82,316.73,561.73,315.52,561.25,315.05,561.22,314.78,561.06,314.5,560.7,314.26,560.3,314.14,559.5,313.25,559.13,312.36,558.9,312.29,559.02,312.33,559.83,312.28,560.26,311.7,560.53,311.12,560.56,311.15,560.42,311.84,558.96,312.16,558.04,312.51,556.35,312.08,555.01,311.97,554.38,311.77,554.08,310.55,553.43,310.45,553.2,310.64,552.31,310.55,551.94,310.26,551.54,309.87,550.75,309.72,550.09,310.21,549.3,310.33,548.72,310.55,547.92,310.71,547.49,310.73,547.37,310.41,547.06,310.33,546.62,310.42,545.99,310.25,545.52,309.81,545.22,309.53,544.82,309.4,544.32,309.5,543.53,309.84,542.46,309.13,541.16,307.38,539.64,306.54,538.58,306.61,537.97,306.97,537.42,307.64,536.92,308.15,536.04,308.44,534.99,308.45,534.8,308.46,534.05,307.68,530.97,307.55,530.19,307.46,529.26,307.41,529,308.95,529.66,309.6,530.03,309.52,529.61,309.39,529.26,309.47,528.73,309.43,527.94,308.03,527.54,307.11,527.4,307.01,526.85,307.09,526.49,307.35,526.7,308.26,526.78,310.49,525.71,314.34,524.32,318.46,523.01,319.42,522.87,320.38,522.59,320.74,522.1,321.09,521.77,321.65,520.9,322.89,519.55,325.08,519.05,325.9,518.41,327.62,517.51,331.53,516.49,333.16,516.27,334.76,516.24,336.18,517.04,337.69,518.03,337.96,518.63,337.15,518.25,335.96,517.37,335.52,517.33,336.53,520.02,337.09,520.97,338.21,521.68,339.15,521.92,342.05,521.49,343.08,520.93,343.38,520.64z"/>
                    <path id="MD" style="stroke-width:0.1;fill:lightgrey" data-name="Moldova" class="land" d="M401.3,615.08,400.96,614.47,400.62,613.94,400.37,613.65,400.47,613.52,400.75,613.37,400.94,613.19,400.92,612.56,400.77,611.83,400.64,611.47,400.63,610.92,400.54,610.05,400.67,608.45,401.21,606.42,401.51,605.41,401.36,604.86,401.48,603.56,401.24,602.92,400.87,602.08,400.35,600.25,399.69,599.61,398.88,598.91,398.54,598.37,398.3,597.79,397.82,597.21,397.27,596.67,396.61,595.33,396.27,594.72,396.16,594.56,395.4,593.7,395.01,592.92,394.81,592.28,394.69,591.68,394.16,590.5,393.68,589.62,393.22,588.98,393.01,588.54,392.47,587.97,391.71,587.52,391.21,587.44,390.57,587.48,390.72,587.13,392.11,586.19,392.47,586.35,393.2,586.38,394.68,586.35,395.4,585.73,395.85,585.91,396.22,585.63,396.83,585.28,396.92,585.35,397,585.41,397.94,585.56,398.66,585.9,399.13,586.42,399.62,586.74,400.12,586.86,400.41,587.12,400.46,587.51,400.93,587.7,401.82,587.69,402.2,587.95,402.07,588.47,402.16,588.64,402.47,588.46,402.71,588.62,402.84,589,402.98,589.19,403.44,588.58,403.91,588.64,405.07,588.89,405.69,590.14,406.08,590.58,406.41,590.77,406.84,590.57,407.22,590.34,407.44,590.45,407.9,591.27,408.01,592.35,408.01,592.78,407.85,593.51,407.61,594.28,407.42,594.79,407.5,595.19,407.67,595.53,407.94,595.64,408.84,596.32,409.17,596.79,409.66,597.15,410.03,597.16,410.22,597.36,410.29,597.6,410.24,598.2,410.03,598.77,410.06,599.14,410.39,599.57,410.42,600.07,410.44,600.39,410.62,600.64,411.44,601.19,412.5,601.72,412.77,602.17,412.94,602.75,412.88,603.71,412.81,604.56,414.2,605.68,414.05,605.89,413.83,606.13,412.5,606.3,412.23,606.39,411.65,605.54,411.35,605.43,411.07,605.75,410.73,605.92,410.33,605.83,409.9,605.57,409.68,605.39,409.51,605.36,409.24,605.55,408.88,605.47,408.65,605.26,408.31,605.98,408.1,606.13,407.97,606.11,407.95,604.89,407.85,604.7,407.58,604.67,406.93,604.96,406.31,605.34,406.11,605.67,406.13,606.28,406.22,606.99,406.64,608.08,406.41,608.55,406.24,609.31,405.58,610,404.84,610.4,404.77,611.22,404.36,611.78,403.65,612.34,403.17,613.01,403.29,613.47,403.32,613.91,403.24,614.2,403.22,614.43,403.04,614.53,401.95,614.61,401.65,614.76,401.3,615.08z"/>
                    <path id="LT" style="stroke-width:0.1;fill:lightgrey" data-name="Lithuania" class="land" d="M390.4,506.46,390.39,507,390.22,507.9,389.9,509.07,389.57,509.97,389.49,510.32,389.74,510.61,390.99,510.74,391.52,510.9,391.63,511.14,391.35,511.45,390.95,511.71,390.77,511.95,390.45,512.82,388.37,512.71,388.1,512.89,387.97,513.29,387.86,513.76,387.59,514.31,387.04,514.79,386.17,514.97,385.46,515.29,384.93,516.3,384.54,517.64,384.55,518.59,384.6,519.12,384.56,519.43,384.29,519.76,383.86,520.63,383.5,521.59,383.36,522.11,383.43,522.36,383.83,522.36,384.41,522.56,384.71,522.94,384.83,523.39,384.83,523.86,384.72,524.13,384.26,524.31,383.54,524.32,383.12,524.09,383.03,523.92,383.23,523.46,383.08,522.88,382.78,522.56,382.17,523.04,381.59,523.04,380.89,523.47,380.43,524.15,379.99,524.4,378.8,524.26,378.51,524.56,378.26,525.94,378.12,526.21,377.13,526.15,376.17,526.7,375.09,527.15,374.55,526.84,374.24,526.49,373.65,526.55,373.01,526.7,372.58,526.62,372.1,526.66,371.16,526.93,369.99,526.84,369.49,526.61,369.44,526.39,369.47,525.86,369.46,525.02,369.28,524.28,368.72,523.63,368.12,523.17,367.37,522.69,366.81,522.49,366.51,522.43,366.44,522.16,366.33,521.92,366.07,521.72,365.51,521.44,365.04,521.38,364.65,521.83,364.37,521.26,364.07,520.25,364.1,519.44,364.27,518.63,365.09,516.24,365.05,515.85,364.45,515.18,363.72,514.69,363.31,513.66,361.83,513.6,360.42,513.65,359.98,513.6,358.65,513.17,357.36,512.47,356.5,512.05,355.78,511.59,355.39,511.11,354.77,511.24,354.35,511.24,354.36,511.16,354.12,510.3,354.37,508.99,353.92,507.05,353.19,504.72,353.13,502.21,353.08,501.64,354.89,500.21,357.17,498.68,357.68,498.55,359.79,497.64,360.07,497.57,361.96,497.73,363.45,497.95,364.7,497.92,365.39,497.69,366.01,497.89,366.51,498.57,367.03,498.49,367.54,498.05,370.35,498.45,370.98,498.44,371.69,498.51,373.01,498.92,373.77,499.29,375.43,499.07,376.14,499.05,376.51,498.91,377.66,497.87,378.16,497.7,378.61,497.51,379.03,497.67,379.3,498.55,380.15,500.07,381.07,500.33,383.62,500.91,384.14,501.22,385.58,502.55,386.44,503.2,386.98,503.72,387.82,504.73,388.3,505.47,389.11,506.03,390.06,506.4,390.4,506.46zM352.48,511.07,352.09,510.98,352.86,509.62,353.16,508.73,353.36,507.47,353.54,507.07,353.55,507.64,353.47,508.6,352.98,510.22,352.48,511.07z"/>
                    <path id="HU" style="stroke-width:0.1;fill:lightgrey" data-name="Hungary" class="land" d="M360.38,586.01,361.02,585.93,361.05,585.94,361.2,585.99,361.31,586.46,361.33,586.49,361.48,586.8,361.63,587.21,361.85,587.52,362.35,587.65,363,588.03,363.42,588.75,364.05,589.05,364.09,589.05,364.22,589.02,364.67,588.99,364.76,589.14,365.12,589.49,365.26,589.8,365.19,590.12,365.26,590.49,365.39,590.62,365.23,590.87,364.05,592.11,363.59,592.43,363.28,592.5,362.8,592.37,362.31,592.47,361.86,592.74,361.45,592.82,361.14,593.13,360.74,593.8,360.25,594.37,359.75,594.72,359.5,595.04,359.47,596.12,359.19,596.44,358.82,596.75,358.62,597.03,358.05,598.67,357.63,599.2,357.22,599.6,357.15,599.97,357.16,600.39,356.7,601.23,356.1,602.1,355.98,602.46,356.11,602.94,355.53,603.49,355.2,603.76,354.92,603.88,354.75,604.23,354.47,605.07,354.54,605.44,354.55,605.79,354.06,605.99,353.92,606.37,353.79,606.84,353.59,607.05,353.04,607.44,351.67,607.27,351.16,607.4,351,607.68,350.97,607.91,350.8,608.12,350.49,608.38,350.17,608.5,349.46,608.17,347.93,608.5,347.67,608.74,347.45,608.57,347.13,608.42,345.6,608.23,344.99,608.38,344.19,608.32,343.44,608.15,342.88,608.29,342.39,608.94,342.15,609.17,341.96,609.31,341.53,609.51,341.18,609.76,340.71,609.94,340.3,609.92,339.9,609.63,339.76,609.7,339.63,609.96,339.42,610.18,338.83,610.45,338.68,610.45,338.64,610.45,338.19,610.65,337.44,610.76,337.06,610.68,336.38,611.59,336.17,611.76,335.53,612.03,334.99,612.17,334.54,612.06,334.36,612.05,332.34,612.01,331.29,611.81,330.61,611.46,330.16,611.06,329.94,610.62,329.42,610.36,328.59,610.26,327.95,609.83,327.49,609.05,326.86,608.43,326.08,607.98,325.45,607.33,324.99,606.5,324.16,605.75,322.96,605.08,322.6,604.94,322.53,604.72,321.94,603.89,321.69,603.58,321.72,603.17,321.6,602.93,321.38,602.77,321.27,602.17,321.2,601.73,321.04,601.44,319.75,601.38,320.83,600.31,321.36,600.01,321.98,600.06,322.18,599.97,322.23,599.81,322.34,599.46,322.39,599.14,322.44,598.83,322.38,598.65,322.08,598.6,321.93,597.83,322.09,597.54,322.24,597.34,322.05,596.4,322.11,596.09,322.59,596.04,322.99,595.84,323.32,595.61,323.41,595.32,323.68,594.73,323.43,594,322.04,593.53,321.96,593.35,322.29,593.15,322.63,592.85,322.84,592.62,323.1,592.59,323.48,592.71,324.16,593.23,324.42,593.31,324.67,593.16,324.93,593.12,325.68,593.14,326.3,593.02,326.16,592.46,326.16,592.05,326.06,591.73,326.12,591.37,326.38,591.09,326.46,590.46,326.85,590.03,327.03,589.97,327.72,590.05,327.88,590.16,327.99,590.19,329.09,591.22,330.13,592,330.98,592.4,332.23,592.43,333.56,592.46,335.79,592.33,337.46,592.23,337.57,592.03,337.82,591.57,337.62,591.17,337.63,590.7,337.91,590.09,338.73,589.58,341.1,589.36,342.45,588.98,342.66,588.46,343.11,587.95,343.52,587.85,344.08,588.09,344.76,588.54,345.36,588.77,345.71,588.62,346.91,587.86,348.29,587.12,349.24,585.1,349.34,584.78,350.37,584.55,351.87,584.59,352.64,584.85,353.22,584.99,354.09,584.94,355.34,584.51,355.81,584.52,356.16,584.83,356.56,585.09,356.82,585.42,357.02,585.88,357.13,586.05,357.31,586.28,357.62,586.6,357.93,586.69,360.25,586.13,360.38,586.01z"/>
                    <path id="CZ" style="stroke-width:0.1;fill:lightgrey" data-name="Czech Republic" class="land" d="M311.12,560.56,311.7,560.53,312.28,560.26,312.33,559.83,312.29,559.02,312.36,558.9,313.25,559.13,314.14,559.5,314.26,560.3,314.5,560.7,314.78,561.06,315.05,561.22,315.52,561.25,316.73,561.73,317.31,561.82,317.91,562.15,318.41,562.49,318.78,562.56,318.95,562.93,319.18,563.18,319.57,562.99,321.03,562.72,321.55,563.08,321.9,563.46,321.95,563.58,321.77,563.92,321.68,564.18,321.53,564.36,321.03,564.54,320.75,564.84,320.54,565.17,320.68,565.48,321.09,565.71,321.38,565.77,321.49,565.99,322.41,567.01,323.14,568.34,323.43,568.55,323.7,568.6,324.01,568.4,324.37,567.97,324.79,567.66,325.15,567.5,325.79,567.13,325.81,566.89,325.28,565.99,324.98,565.26,325.05,565.13,325.73,565.25,326.88,565.65,328.65,566.95,328.97,566.95,329.59,566.85,330.26,566.64,330.58,566.39,330.7,566.48,330.8,567.2,330.63,567.59,329.82,567.97,329.87,568.15,330.08,568.4,330.44,568.56,330.88,569.02,331.18,569.55,331.45,569.79,331.74,569.9,332.48,569.62,332.68,569.4,332.77,569.25,332.92,569.28,333.17,569.54,333.25,569.69,333.97,569.98,334.38,570.34,334.64,570.51,334.93,570.35,336.06,570.63,336.37,570.87,336.47,571.27,336.41,571.51,336.59,572.14,338.01,573.64,338.16,574.4,338.18,574.7,338.01,574.72,337.63,574.87,337.13,574.93,336.6,574.9,336.18,575.18,335.79,575.63,335.38,575.94,335.16,576.22,335.04,576.5,333.67,577.32,333.48,577.65,333.32,578.11,333.26,578.73,333.16,579.29,332.93,579.58,332.19,579.84,332,579.97,331.86,580.25,331.45,580.69,330.96,581.1,330.06,581.57,329.1,581.72,327.85,581.56,327.12,581.38,326.77,581.58,326.28,582.2,325.76,583.26,325.54,584.05,325.37,583.82,325.07,582.98,324.73,582.87,324.27,582.8,323.92,582.67,323.17,582.19,322.78,582.04,322.34,582,321.92,582.29,321.6,582.62,320.6,582.62,319.51,582.46,317.95,581.34,317.55,581.33,317.11,581.38,316.43,581.12,315.11,580.39,314.49,580.22,314.1,580.33,313.74,580.49,313.49,580.51,313.34,580.27,312.85,579.98,312.36,579.95,312.21,580.12,312.05,581.72,311.88,582.29,311.2,582.27,310.96,582.54,310.43,583.31,310.32,584.04,309.4,583.9,308.96,583.78,308.57,583.87,308.14,584.28,306.95,584.25,306,584.01,305.6,583.1,305.16,582.73,304.62,582.41,304.43,582.34,304.12,581.84,303.55,581.22,302.63,580.37,301.91,580.41,301.64,580.19,301.52,579.88,301.22,579.34,300.89,578.96,300.48,578.81,299.89,578.33,299.1,577.29,298.38,576.56,297.69,576.57,297.25,576.2,296.8,575.7,296.47,575.21,295.95,574.04,295.58,573.37,295.29,572.95,294.96,572.6,294.84,572.33,295.24,571.7,295.39,571.39,295.56,571.15,295.66,570.89,295.66,570.7,295.29,570.08,294.8,569.63,294.08,569.17,293.61,568.59,293.44,568.07,293.39,567.77,293.08,567.38,292.82,566.8,292.82,566.45,292.88,566.35,293.12,566.35,293.39,566.59,293.77,567.05,294.08,567.72,294.27,567.46,294.63,566.75,295.26,565.95,295.91,565.49,296.49,565.45,296.97,565.32,297.37,565.09,298.06,565.18,298.56,565.35,298.72,565.25,298.92,564.83,299.05,564.46,300.16,564.25,300.54,563.55,300.76,563.55,301,563.45,301.24,563.18,301.46,563.07,301.64,563.21,301.88,563.29,302.12,563.13,302.49,562.32,302.69,562.2,303.66,562.07,304.99,561.59,305.66,561.17,306.32,560.94,307.03,560.53,308.15,560.13,308.21,559.97,307.69,559.56,307.51,559.3,307.39,559.03,307.58,558.74,307.82,558.65,308.14,558.77,309.09,558.95,309.34,559.12,309.44,559.53,309.68,559.92,309.87,559.96,309.8,560.59,310.1,560.84,310.54,561.03,310.83,560.99,311.04,560.73,311.12,560.56z"/>
                    <path id="BY" style="stroke-width:0.1;fill:lightgrey" data-name="Belarus" class="land" d="M400.86,500.76,401.78,501.81,401.99,501.85,402.5,501.44,402.6,501.41,403.66,501.37,404.15,501.74,404.51,502.45,404.85,503.02,405.21,503.17,406.24,502.46,406.81,502.22,407.18,502.23,408.5,502.87,409.12,503.22,409.26,503.54,409.27,503.91,409.1,504.46,408.97,505.07,409.37,505.78,409.84,506.26,410.83,505.46,411.2,505.24,411.6,505.23,412.14,504.94,412.53,504.49,412.9,504.34,413.61,504.44,414.89,504.34,416.39,505.04,416.52,505.25,417.27,506.07,417.53,506.48,417.78,506.6,418.18,507,418.71,507.25,419.08,507.18,419.26,507.31,419.42,507.62,419.44,508.15,419.38,509.67,419.12,510.11,418.85,510.46,418.78,510.74,418.8,511.07,419.23,511.72,419.77,512.73,419.9,513.32,419.9,513.76,419.15,515.04,418.91,515.34,418.73,515.98,418.64,516.62,418.7,516.88,419.94,517.9,420.87,518.45,421.07,518.72,421.09,518.89,420.6,519.97,420.55,520.27,421.29,520.72,421.7,521.42,422.06,522.58,422.77,523.68,424.28,524.65,425.38,525.28,425.61,525.57,425.69,525.91,425.6,526.67,425.32,527.58,425.12,528.09,425.57,528.3,426.73,528.24,428.13,528.42,429.81,529.42,429.81,529.87,429.64,530.28,429.76,530.71,429.94,531.08,431.39,532.19,431.53,532.52,431.56,533.06,431.52,533.45,431.11,533.54,430.67,533.72,429.94,534.19,429.65,534.86,428.47,535.79,427.73,536.2,427.15,536.22,425.77,536.03,425.28,535.58,425.08,535.16,424.55,534.97,423.84,534.96,422.86,535.03,422.66,535.15,422.5,535.67,422.09,536.54,421.79,537.03,422.04,537.34,422.43,537.96,423.03,538.76,423.65,539.47,423.85,539.9,423.84,540.21,423.55,540.57,423.59,541.3,424.19,542.26,423.99,542.41,423.93,543.59,423.93,544.84,424.1,545.14,424.42,545.39,424.7,545.85,425.15,546.88,425.19,547.16,423.91,547.08,422.38,547.11,421.52,547.71,421.18,547.57,420.58,547.42,419.92,547.76,419.01,548.77,418.4,549.4,417.81,550.28,417.62,550.76,417.25,551.64,416.91,552.65,417.1,553.35,417.38,554,417.44,554.7,417.58,555.24,417.2,555.64,416.99,556.22,416.35,556.12,415.57,555.57,415.4,554.77,414.8,554.21,414.4,553.92,413.75,553.88,412.71,554.14,411.34,554.34,410.32,554.39,409.75,554.67,408.93,554.95,408.6,554.62,408.14,553.72,407.77,552.82,407.51,552.42,407.28,552.31,407,552.33,406.68,552.62,406.44,552.91,406.11,553.01,405.58,553.25,405.2,553.57,404.79,554.4,404.51,554.35,404.22,554.16,403.9,553.23,403.45,553.01,402.72,553,401.83,552.8,401.1,552.52,400.84,552.59,400.41,552.98,399.94,553.04,398.91,552.69,398.71,552.85,398.45,553.37,398.13,553.87,397.85,553.92,397.69,553.79,397.78,552.9,397.18,552.59,396.18,552.54,395.48,552.67,395.13,552.63,394.96,552.46,394.09,550.96,393.64,550.86,392.82,550.94,391.61,550.76,390.22,550.42,389.46,550.29,389.06,549.95,388.21,549.84,385.91,549.2,384.97,549.09,383.59,549.08,381.48,548.94,380.13,549.02,379.51,549.23,378.78,549.36,377.56,549.48,377.07,549.46,376.28,549.53,375.39,549.7,375.13,550.02,374.84,550.71,373.81,551.91,372.81,552.7,372.62,552.77,372.04,552.35,371.55,552.2,370.98,552.16,370.58,552.29,370.32,552.49,370.35,553.41,370.3,553.49,369.86,552.4,369.89,551.41,370.14,550.85,370.44,550.34,370.31,549.57,370.61,548.55,370.61,547.82,370.49,547.5,370.25,547.13,369.6,546.73,369.31,546.41,368.43,545.98,367.55,545.45,367.4,545.12,367.44,544.9,367.6,544.56,368.27,543.56,368.99,542.59,369.45,542.2,371.91,540.96,372.29,540.52,372.38,539.78,372.39,539.24,372.34,538.28,372.19,536.91,372.01,535.97,371.54,534.19,370.25,530.48,369.49,526.61,369.99,526.84,371.16,526.93,372.1,526.66,372.58,526.62,373.01,526.7,373.65,526.55,374.24,526.49,374.55,526.84,375.09,527.15,376.17,526.7,377.13,526.15,378.12,526.21,378.26,525.94,378.51,524.56,378.8,524.26,379.99,524.4,380.43,524.15,380.89,523.47,381.59,523.04,382.17,523.04,382.78,522.56,383.08,522.88,383.23,523.46,383.03,523.92,383.12,524.09,383.54,524.32,384.26,524.31,384.72,524.13,384.83,523.86,384.83,523.39,384.71,522.94,384.41,522.56,383.83,522.36,383.43,522.36,383.36,522.11,383.5,521.59,383.86,520.63,384.29,519.76,384.56,519.43,384.6,519.12,384.55,518.59,384.54,517.64,384.93,516.3,385.46,515.29,386.17,514.97,387.04,514.79,387.59,514.31,387.86,513.76,387.97,513.29,388.1,512.89,388.37,512.71,390.45,512.82,390.77,511.95,390.95,511.71,391.35,511.45,391.63,511.14,391.52,510.9,390.99,510.74,389.74,510.61,389.49,510.32,389.57,509.97,389.9,509.07,390.22,507.9,390.39,507,390.4,506.46,390.58,506.32,391.6,506.14,391.94,505.96,392.82,504.72,393.49,504.51,395.22,504.83,396.01,504.81,396.23,504.84,397.02,504.89,397.1,504.77,397.46,503.54,397.81,503.18,399.17,501.56,400.08,500.88,400.66,500.72,400.86,500.76z"/>
                    <path id="BG" style="stroke-width:0.1;fill:lightgrey" data-name="Bulgaria" class="land" d="M403.8,631.18,403.65,633.42,403,634.45,402.02,634.1,400.77,634.39,400.1,635.57,399.73,635.92,399.39,636.32,399.17,637.85,399.12,640.33,398.64,640.63,398.21,640.72,396.4,642.9,397.44,643.51,397.9,643.97,398.66,645.26,399.75,646.71,399.96,647.42,399.05,647.26,398.74,647.31,398.53,647.53,398.11,647.49,397.59,647.49,397.04,647.74,396.74,647.85,396.33,647.62,395.58,646.91,395.12,646.42,394.78,646.3,394.44,646.44,393.22,646.61,392.93,646.9,392.36,647.21,391.79,647.36,390.98,647.47,390.55,647.46,390.31,647.61,390.11,648.07,389.97,648.52,389.85,648.7,388.83,648.93,388.61,649.19,388.55,649.44,388.57,649.69,387.76,649.45,387.13,649.61,386.99,649.8,386.85,650.08,386.93,650.38,387.16,650.67,387.38,651.44,387.45,652.22,387.32,652.66,386.86,652.97,385.89,653.32,384.96,653.15,384.55,653.29,383.86,653.34,383.23,653.43,382.25,653.74,381.37,653.93,380.58,653.28,379.64,652.84,378.65,652.58,378.31,652.77,378.16,652.92,377.33,652.35,376.96,652.15,376.78,651.93,376.44,651.17,376.24,651.14,375.56,651.43,374.9,651.41,374.5,651.36,373.33,651.39,373.17,651.91,373.03,651.99,372.77,652.06,372.15,652.03,371.35,652.42,370.5,652.65,369.83,652.66,369.14,652.54,368.73,652.62,367.84,652.67,367.27,653.23,366.4,653.2,365.66,653.1,365.75,652.92,365.9,650.69,366.26,649.69,366.25,649.48,366.17,649.33,365.85,649.17,365.61,648.62,365.13,647.2,364.85,646.91,364.09,646.6,363.42,646.19,362.85,645.65,361.81,644.3,362.34,644.16,362.5,643.89,363.02,643.14,363.08,642.78,363.02,642.57,362.67,642.21,362.43,641.43,362.61,640.7,362.63,640.32,362.45,639.94,362.64,639.48,363.01,639.22,363.25,639.15,364.25,639.1,364.88,638.17,365.26,637.87,365.65,637.34,365.84,637.14,366.01,636.73,366.07,636.31,365.28,635.71,365.01,635.27,364.66,634.78,364.19,634.43,363.23,633.85,362.86,633.25,362.69,632.48,362.43,631.89,362.15,631.51,362.1,631.2,361.98,630.82,361.96,630.07,362.18,629.07,362.33,628.71,362.65,628.61,363.52,628.08,363.56,627.39,363.71,626.97,363.99,626.72,364.24,626.56,364.71,626.96,365.86,627.59,366.42,628.05,366.39,628.34,366.13,628.62,365.63,628.9,365.34,629.27,365.26,629.72,365.33,630.04,365.68,630.32,367.74,629.96,369.82,630.15,372.62,630.77,374.48,630.98,375.85,630.7,378.39,631.22,380.76,631.7,383.03,631.84,384.3,631.46,385.19,630.95,385.96,629.99,387.86,628.71,389.7,628,392.11,627.42,393.72,627.22,393.95,627.42,396,628.59,396.91,628.59,397.65,628.8,397.92,629.11,398.11,629.19,399.09,628.9,399.52,629.54,400.2,630.44,401.36,630.9,402.39,631.16,402.72,631.2,403.8,631.18z"/>
                    <path id="AZ" style="stroke-width:0.1;fill:lightgrey" data-name="Azerbaijan" class="land" d="M538.28,648.54,538.9,649.06,539.97,650.47,541.5,652.76,541.87,653.41,542.12,654.16,542.33,655.07,542.68,655.87,544.23,657.88,544.9,658.62,545.99,659.57,546.38,659.79,546.89,659.85,547.82,659.85,548.69,660.22,549.11,660.49,549.55,660.87,549.95,661.3,550.35,662.47,548.85,662.09,547.34,662.15,546.49,662.4,545.66,662.74,544.87,663.22,544.37,664.16,543.95,666.32,543.34,668.34,543.36,669.28,543.63,670.17,543.6,670.59,543.32,670.77,542.97,671.15,542.5,672.99,542.27,673.36,541.97,673.58,541.89,673.37,541.91,672.89,541.25,672.46,540.9,672.94,540.66,673.95,540.18,675.01,540.15,675.21,540.27,678.47,540.08,678.46,538.71,678.79,538.42,678.68,537.24,677.18,536.99,677.01,536.49,676.95,536.19,676.7,535.94,676.3,535.81,676,534.59,675.18,534.41,674.88,534.38,674.62,534.56,674.38,534.77,674.18,535.36,673.98,536.06,673.8,536.28,673.67,536.39,673.46,536.39,673.11,536.27,672.76,535.27,672.14,535.16,671.87,535.13,671.53,535.19,671.19,535.34,670.92,536.16,670.55,536.6,670.16,536.32,669.74,535.45,668.76,534.4,667.69,533.7,667.68,532.9,667.99,531.62,668.91,530.9,669.3,529.98,669.95,528.97,670.67,528.14,671.43,527.63,672.06,526.71,672.34,526.24,672.86,524.71,674.44,524.27,674.42,524.25,673.64,524.27,673.02,524.17,672.66,523.67,672.17,523.67,671.96,523.8,671.83,524.18,671.91,524.67,671.88,524.91,671.68,524.38,671.04,523.91,670.6,523.52,670.31,523.43,670.13,523.43,670.01,523.51,669.86,524.19,669.5,524.26,669.18,524.21,668.81,523.14,668.26,522.33,668.46,521.61,667.85,521.15,667.38,520.57,666.88,520.05,666.6,519.56,665.96,518.7,665.31,518.15,665.12,518.15,665.02,518.25,664.9,518.48,664.8,520.02,664.82,520.21,664.71,520.3,664.42,520.51,664.01,520.75,663.39,520.73,662.87,519.19,662.03,518.08,661.26,517.3,660.24,516.78,659.31,516.79,658.99,516.95,658.7,518.14,657.83,518.22,657.61,518.2,657.46,517.77,657.02,517.23,656.56,517.07,656.23,516.73,656.06,516.08,656.04,514.96,655.48,514.72,655.43,514.67,655.31,514.72,655.2,515.52,654.97,515.51,654.79,515.27,654.54,514.81,654.36,514.4,653.91,514.25,653.51,515.71,652.32,516.14,652.09,517.09,652.31,519.06,653.09,518.93,653.52,519.13,653.77,519.58,654.1,520.45,654.44,521.18,654.61,521.56,654.46,522.12,654.34,522.86,654.72,523.53,655.22,523.87,655.41,524.05,655.47,524.57,655.31,525.19,654.68,525.43,653.91,525.5,653.54,525.14,653.03,524.4,652.48,523.56,652,523.03,651.57,522.69,650.72,522.34,650.63,522.26,650.52,522.2,650.23,522.21,649.82,522.33,649.51,522.67,649.38,523.01,649.33,523.32,649.03,523.7,648.45,523.87,648.12,524.59,648.31,524.69,648.83,524.82,648.94,525.12,648.88,525.62,648.66,526.01,648.83,526.53,649.45,527.24,650.11,527.62,650.55,527.77,650.85,528.13,651.15,528.66,651.49,529.08,652.03,529.46,653.29,529.84,653.58,531.2,654.06,531.68,654.16,533.02,654.32,533.49,654.2,534.19,653.12,534.81,652.01,535.39,651.77,536.44,651.23,537.06,650.72,537.33,650.17,537.92,649.13,538.28,648.54zM517.96,659.5,518.03,659.21,517.84,659.08,517.64,659.07,517.47,659.22,517.47,659.58,517.71,659.65,517.96,659.5zM514.4,655.86,514.26,655.96,514.04,655.86,513.97,655.63,513.99,655.39,514.21,655.34,514.39,655.41,514.44,655.62,514.4,655.86zM521.74,674.67,520.45,674.41,518.11,673.85,517.47,673.56,516.86,672.79,516.5,672.42,515.97,671.94,515.53,671.75,515.2,671.42,515.01,670.92,514.73,670.48,514.25,669.95,513.16,668.16,513.01,667.98,512.79,667.68,512.69,667.51,513.35,667.38,514.46,666.98,514.76,667.17,515.08,667.58,515.24,667.92,515.27,668.57,515.41,668.67,515.94,668.46,516.18,668.72,516.6,669.03,517.32,669.33,518.35,668.85,518.87,668.73,519.29,668.74,519.52,668.89,519.6,669.39,519.52,670.01,519.4,670.34,519.62,670.59,520.47,671.18,520.82,671.51,520.65,672.08,521.28,673.47,521.49,674.01,521.74,674.67z"/>
                    <path id="AM" style="stroke-width:0.1;fill:lightgrey" data-name="Armenia" class="land" d="M524.27,674.42,523.11,674.37,522.12,674.75,521.74,674.67,521.49,674.01,521.28,673.47,520.65,672.08,520.82,671.51,520.47,671.18,519.62,670.59,519.4,670.34,519.52,670.01,519.6,669.39,519.52,668.89,519.29,668.74,518.87,668.73,518.35,668.85,517.32,669.33,516.6,669.03,516.18,668.72,515.94,668.46,515.41,668.67,515.27,668.57,515.24,667.92,515.08,667.58,514.76,667.17,514.46,666.98,513.35,667.38,512.69,667.51,512.45,667.14,511.29,665.91,510.21,664.96,509.46,664.57,508.71,664.61,507.55,664.8,507.13,664.72,506.12,664.31,505.27,663.82,505.39,663.61,505.56,663.46,505.35,662.82,504.88,661.79,504.93,661.47,504.78,661.02,504.62,660.68,505.28,659.87,505.58,659.22,505.65,658.59,505.47,657.93,505.04,656.73,504.77,656.38,504.27,656.06,503.85,655.52,503.75,655.15,504.1,655.07,505.13,655.06,506.13,654.93,506.91,654.68,508.04,654.47,508.5,654.29,509.05,654.2,510.7,654.4,511.32,654.24,513.18,654.22,513.23,654.14,512.97,653.88,512.98,653.79,514.08,653.63,514.25,653.51,514.4,653.91,514.81,654.36,515.27,654.54,515.51,654.79,515.52,654.97,514.72,655.2,514.67,655.31,514.72,655.43,514.96,655.48,516.08,656.04,516.73,656.06,517.07,656.23,517.23,656.56,517.77,657.02,518.2,657.46,518.22,657.61,518.14,657.83,516.95,658.7,516.79,658.99,516.78,659.31,517.3,660.24,518.08,661.26,519.19,662.03,520.73,662.87,520.75,663.39,520.51,664.01,520.3,664.42,520.21,664.71,520.02,664.82,518.48,664.8,518.25,664.9,518.15,665.02,518.15,665.12,518.7,665.31,519.56,665.96,520.05,666.6,520.57,666.88,521.15,667.38,521.61,667.85,522.33,668.46,523.14,668.26,524.21,668.81,524.26,669.18,524.19,669.5,523.51,669.86,523.43,670.01,523.43,670.13,523.52,670.31,523.91,670.6,524.38,671.04,524.91,671.68,524.67,671.88,524.18,671.91,523.8,671.83,523.67,671.96,523.67,672.17,524.17,672.66,524.27,673.02,524.25,673.64,524.27,674.42zM514.4,655.86,514.44,655.62,514.39,655.41,514.21,655.34,513.99,655.39,513.97,655.63,514.04,655.86,514.26,655.96,514.4,655.86zM517.96,659.5,517.71,659.65,517.47,659.58,517.47,659.22,517.64,659.07,517.84,659.08,518.03,659.21,517.96,659.5z"/>
                    <path id="KZ" style="stroke-width:0.1;fill:lightgrey" data-name="Kazakhstan" class="land" d="M549.13,620.75,548.89,621.01,548.53,620.97,547.85,619.97,548.04,618.94,548.29,618.73,548.62,618.59,548.67,618.82,548.19,619.27,548.15,619.85,548.55,620.49,549.13,620.75zM549.98,619.63,549.75,619.76,549.61,619.16,549.87,618.65,550.24,618.58,550.11,619.38,549.98,619.63zM565.93,615.45,565.82,615.55,565.37,615.29,565.07,614.85,565.44,614.33,565.78,614.43,566,614.98,565.93,615.45zM542.72,606.52,542.4,606.41,540.88,605.5,539.64,604.86,538.53,604.29,538.37,604.18,538.07,603.9,537.86,603.47,537.81,602.99,537.92,602.64,538.19,602.42,538.5,602.33,538.78,602.41,539.1,602.62,539.65,602.88,540.37,602.93,540.82,602.73,540.88,602.25,540.03,600.48,539.24,599.04,538.47,597.45,538.15,596.86,537.21,595.52,536.28,594.19,535.55,593.01,535.17,592.64,533.99,592.49,531.74,592.2,530.94,592.06,530.31,592.41,529.67,592.69,529.06,592.17,528.58,591.33,528.33,590.62,528.45,589.89,528.5,588.82,528.14,587.76,527.73,587.23,526.71,586.84,525.42,585.94,525.07,584.3,525.7,581.94,526.71,580.27,527.45,579.57,527.8,578.95,527.91,578.42,527.82,577.91,527.39,577.37,526.71,576.84,526.37,576.19,526.51,574.79,526.96,572.77,527.65,571.15,528.57,570.25,529.37,569.61,529.69,569,529.7,568.15,529.68,567.34,529.9,566.75,530.23,566.28,530.59,565.86,531.09,565.39,531.74,565.27,532.45,565.65,533.42,566.66,534.84,568.64,535.65,569.93,535.94,570.33,536.68,571.09,537.35,571.4,538.47,570.92,539.54,570.36,539.88,570.01,540.1,569.48,539.93,568.57,539.71,567.98,539.47,567.22,539.14,565.9,538.91,563.83,538.64,563.17,538.84,563.09,539.37,563.23,539.87,563.29,540.58,562.83,541.55,561.97,543.33,560.63,543.71,559.75,544.01,558.76,544.51,558.16,545.64,557.96,546.69,557.64,547.43,556.94,548.59,556.33,549.55,555.95,549.97,555.61,550.27,555.09,551.36,553.63,552.22,552.72,552.97,551.79,553.23,551.21,553.82,551.32,554.73,551.72,555.71,552.09,556.43,552.67,556.57,553.25,556.64,553.71,556.93,553.95,557.28,554,557.8,553.88,558.71,553.86,559.83,553.1,561.39,551.82,562.82,551.42,563.57,551.73,564.19,552.67,564.68,553.55,565.19,553.88,565.5,553.89,565.62,553.91,566.24,553.71,566.29,553.71,566.86,553.74,567.42,554.04,568.33,554.08,569.6,553.85,569.73,553.76,570.35,553.88,571.09,554.28,571.67,554.77,572.7,556.36,573.29,556.77,574.51,557.33,575.08,557.82,575.74,558.62,576.08,559.1,576.8,559.97,577.63,561.39,577.78,562.52,577.97,563.48,578.28,563.93,578.53,563.98,578.81,563.83,579.08,563.39,579.17,562.67,579.09,561.38,578.88,560.33,578.6,560,578.47,559.63,578.65,559.16,579.12,558.93,579.69,559.07,580.64,559.68,581.63,560.44,582.84,561.77,583.96,562.61,585.17,563.29,586.14,563.49,586.89,563.28,587.78,562.74,588.59,562.1,588.96,561.44,589.22,560.71,590.45,559.74,591.56,558.84,592.07,559,592.43,559.26,593.57,558.72,593.97,558.57,595.06,558.36,596.19,558.67,597.09,559.62,597.96,560.24,598.74,560.17,599.38,559.85,599.81,559.26,600.13,558.55,600.56,558.1,600.63,558.07,602.02,558.32,602.89,558.28,602.98,558.18,604.13,558.37,605.39,559.36,606.18,560.46,607.19,561.85,607.66,562.3,608.34,562.5,608.87,562.58,609.59,562.8,611.48,563.09,611.77,563.26,611.96,563.49,611.79,564.25,611.96,564.44,613.49,563.9,613.91,563.49,614.41,562.35,614.87,561.19,615.2,560.76,615.56,560.65,615.92,560.82,616.42,561.5,617.11,562.2,618.03,562.47,618.59,562.57,619.46,562.63,621.51,562.29,623.42,561.45,624.52,560.53,625.02,559.16,625.34,557.59,625.83,556.59,625.63,555.58,624.66,554.61,624.34,554.31,622,553.77,621.85,553.38,621.72,553.29,619.41,552.42,618.29,552.05,617.98,551.48,617.77,550.73,617.05,550.06,615.62,549.45,615.37,548.99,615.61,548.52,616.74,547.99,618.03,546.89,618.53,546.66,619.68,546.61,620.74,545.71,621.48,545.19,621.86,544.57,621.76,543.93,620.69,542,620.38,540.83,620.57,540.06,621.18,539.23,621.52,538.78,621.94,537.97,622.21,537.53,623.29,537.34,624.59,537.27,625.49,537.46,626.74,537.56,627.87,537.71,628.45,537.85,628.87,537.6,629.18,537.16,629.17,536.58,628.72,536.02,627.05,535.28,626.34,534.66,625.77,534.73,624.83,534.54,623.99,534.14,623.24,534,622.99,533.45,623.15,532.66,623.44,532.22,623.99,531.99,624.59,532.1,625.25,531.78,625.44,531.59,625.49,531.34,625.39,530.99,625.09,530.7,624.65,530.62,624.16,530.87,623.56,531.03,622.56,530.67,621.76,530.23,621.8,529.82,622.39,529.22,622.66,528.73,622.66,528.06,622.66,527.27,622.86,526.34,623.45,525.7,624.14,525.36,625.92,525.98,628.14,526.53,628.53,526.44,628.64,526.15,628.89,525.89,631.98,525.77,632.58,525.41,632.88,525.13,635.85,524.72,636.2,524.33,636.64,523.96,637.32,523.97,638.13,523.82,639.27,523.38,640.07,523.13,640.2,523.11,641.05,523.21,642.11,522.86,642.33,522.71,642.5,522.45,643.42,521.93,645.18,521.51,645.61,521.76,646.45,521.88,647.53,521.69,648.32,521.37,648.78,521.69,649.4,522.02,649.87,521.74,650.1,520.85,650.41,519.99,650.93,519.57,651.35,519.42,651.73,519.09,652.02,518.74,653.57,518.8,654.96,517.93,655.23,518.32,657.03,518.23,659.27,517.67,660.61,517.41,662.93,516.82,664,516.35,665.53,516.05,666.93,515.84,667.85,515.01,668.59,514.89,669.49,514.82,670.04,514.62,670.4,514.31,670.63,513.73,670.51,513,670.38,512.46,671.02,512.16,671.94,512.07,672.52,511.94,673.79,510.72,674.66,510.13,675.57,509.76,677.38,509.96,679.04,510.15,680.7,510.73,681.58,511.46,682.33,512.01,683.04,512.27,683.68,512.44,684.42,512.19,684.95,511.86,685.26,511.37,685.72,511.03,687.42,510.76,687.77,511.28,688.57,512.85,689.12,514.93,690.03,517.68,690.43,519.02,690.25,519.72,690.25,520.69,690.2,521.74,689.53,522.94,689.8,523.49,691.44,524.11,693.73,523.88,695.15,523.38,695.94,523.57,696.35,523.27,696.61,522.38,697.16,522.19,697.72,522.8,698.12,523.84,698.51,524.51,698.48,525.31,698.63,526.33,698.91,526.59,699.47,526.2,699.85,525.97,699.94,525.66,699.78,525.28,699.7,524.89,699.83,524.53,700.09,524.38,700.89,524.5,702.06,524.69,703.44,526.14,704.18,526.41,704.49,526.43,705.2,526.35,706.04,525.93,706.6,525.41,706.79,525.15,707.12,525.2,707.43,525.44,707.45,525.97,707.2,526.73,706.36,527.43,705.32,528.07,704.69,529.26,704.56,530.49,704.83,531.12,705.07,531.54,705.14,532.12,705.37,532.2,705.8,531.96,706.96,530.74,707.55,530.44,708.41,530.25,709.82,530.35,710.77,530.74,711.23,531.29,711.73,531.75,712.07,531.56,712.25,531.03,712.26,530.43,712.4,529.94,713.95,528.72,714.97,527.91,715.33,527.82,716.02,527.99,716.44,527.9,717.57,527.14,718.63,526.26,718.73,525.67,718.77,525.14,719.03,524.9,720.51,524.71,720.75,524.61,722.01,524,723.76,522.96,724.61,522.34,726.16,522.07,726.45,521.89,726.96,521.48,727.93,520.9,728.45,520.84,728.13,522.23,727.55,523.83,727.22,524.26,725.66,524.19,725.66,524.62,725.9,525.29,726.08,525.67,726.27,526,726.69,526.58,728.34,527.95,730.44,529.68,732.7,531.62,734.29,532.97,734.92,533.66,735.33,534.21,736.5,536.16,737.61,538.01,739.47,541.24,741.13,544.35,742.95,547.74,744,549.7,746.16,553.76,746.73,555,747.82,557.34,748.79,559.53,749.64,561.45,750.17,561.63,750.22,561.11,750.31,560.76,750.59,560.56,751.21,559.99,751.55,559.86,752.05,559.92,752.58,559.63,752.77,559.08,752.65,558.06,752.57,557.6,752.75,557.09,753.03,556.89,753.44,556.74,753.8,556.65,754.11,556.08,754.68,555.91,755.2,556.02,755.63,556.04,756.02,556.45,756.23,557.02,756.64,557.07,757.32,557.01,757.41,557.49,757.22,558.28,756.98,558.89,756.94,559.39,757.3,559.63,758.61,559.41,759.07,559.52,759.22,560.02,759.4,560.43,759.5,560.93,759.36,561.49,759.59,561.82,760.72,561.83,761.52,561.56,762.74,561.54,763.85,562.13,764.61,562.04,765.38,561.8,766.51,561.95,767.3,561.49,767.85,560.9,768.02,560.44,768.31,560.19,769.37,560.19,770.04,560.15,770.54,559.47,770.99,559.17,771.76,559.11,772.32,559.11,773.83,559.74,774.74,560.26,775.7,560.99,776.27,561.45,776.66,562.49,777.31,563.25,777.83,564.15,777.95,565.02,778.38,566.59,778.82,567.11,779.34,567.11,780,567.32,780.73,567.5,782.29,568.66,782.86,568.69,783.3,568.97,783.37,569.51,783.2,570.13,783.38,570.72,783.89,571.48,784.29,572.21,784.79,573.11,784.94,573.61,785.34,573.78,785.87,573.53,786.73,573.72,789.3,574.23,789.65,574.29,789.93,574.82,790.3,574.78,790.73,574.76,791.32,574.82,791.73,574.33,792.07,573.91,792.91,573.38,793.61,572.66,794.21,572.02,794.64,571.94,795,572.23,795.02,572.79,794.58,573.19,794.23,573.68,794.31,574.16,794.91,574.21,795.56,574.94,796.51,576.65,796.83,577.01,797.3,577.34,797.82,577.5,798.4,577.74,798.83,578.44,799,579.08,798.38,578.87,797.15,578.83,796.41,578.96,796.06,579.03,795.54,579.45,795.17,579.87,795,580.58,795.2,581.38,794.93,583.05,794.57,583.68,793.8,584.76,793.35,585,792.61,585.19,791.89,585.51,790.48,585.82,788.95,585.98,788.41,586.21,788.03,586.95,787.76,587.57,787.59,588.04,787.15,589.57,786.91,590.94,787.15,592.63,787.33,594.51,787.32,595.15,787.69,596.11,787.88,596.69,787.79,597.52,787.26,598.18,786.94,599.04,786.63,599.41,785.76,599.57,784.94,599.68,784.12,600.42,783.45,600.93,782.42,601.58,781.93,601.7,781.66,601.37,781.48,600.63,781.13,600.31,780.63,600.28,780.23,600.27,778.92,600.07,778.09,600.09,777.46,600.25,776.75,600.33,775.52,600.06,774.72,599.83,774.18,599.61,772.9,598.96,771.21,598.19,770.52,597.97,770.11,598.2,770.05,598.64,769.94,599.7,769.75,600.37,768.57,603.72,767.84,606.04,766.92,608.25,766.63,609.73,766.08,611.6,765.53,612.96,765.31,613.69,765.29,613.99,765.38,614.41,766.23,614.87,767.11,615.15,767.3,615.33,767.4,615.8,767.37,616.58,767.2,617.31,766.95,617.89,766.7,618.18,766.41,618.19,765.86,617.82,765.36,617.41,764.98,617.28,764.01,617.52,763.11,617.83,762.82,617.84,762.3,617.64,761.77,617.22,761.56,616.41,761.12,616.04,760.51,616.41,758.71,617.03,756.73,617.76,755.47,618.14,754.98,618.08,754,618.17,753.16,618.37,752.52,618.66,751.27,619.05,750.13,619.31,749.4,619.9,748.87,620.47,748.89,620.69,749.27,621.03,749.71,621.29,750.59,621.23,751.45,621.19,752.16,621.55,752.8,621.77,752.97,622.07,752.8,622.36,752.43,622.43,752.3,622.63,752.36,622.9,752.12,623.61,751.99,624.67,752.12,625.73,752.19,626.69,752.15,627.18,752.12,627.87,752.39,628.34,752.63,629.23,753.07,629.79,753.72,631.71,754.11,632.83,754.47,634.1,754.21,634.79,754.22,635.18,754.64,635.51,754.82,636.16,755.02,636.55,754.96,636.94,754.79,637.09,753.88,636.86,753.14,637.25,752.36,637.64,752.25,637.85,752.23,638.08,752.31,638.28,752.76,638.63,753.39,638.85,753.36,639.19,752.58,639.36,751.41,639.89,751.09,640.47,750.84,641.1,750.82,641.46,750.94,642.44,751.12,643.52,751.45,644.66,751.47,645.01,751.3,645.26,751.14,645.42,750.21,644.4,749.2,643.4,748.41,643.17,747.03,643,746.3,642.99,745.88,642.76,745.48,642.18,744.99,641.65,744.37,641.09,744.11,640.24,743.86,640.09,743.41,640.2,742.65,640.17,742.23,640.1,741.6,639.95,740.6,639.6,739.8,639.28,738.8,639.21,738.23,639.28,736.43,639.34,734.94,639,733.73,638.93,732.99,638.95,732.64,638.91,732.03,638.91,731.13,638.84,729.93,638.3,729.47,638.28,729.17,638.3,727.17,638.69,726.24,638.78,724.29,638.73,722.36,638.69,721.74,638.61,721.4,638.65,720.68,639.59,720.37,639.73,718.55,639.53,716.41,638.91,714.86,638.24,713.55,637.52,711.81,636.39,710.77,635.83,710.62,636.15,710.34,636.25,709.94,636.3,709.02,636.24,708.6,636.82,707.47,637.23,706.75,637.6,706.38,638.01,705.66,640.75,705.47,641.75,705.95,643.43,705.4,643.34,704.76,642.91,704.54,642.57,703.92,642.36,701.66,642.05,701.24,641.66,700.97,641.35,700.39,641.14,699.56,640.98,697.76,640.25,696.99,640.23,694.67,639.66,694.29,639.67,694.12,639.69,693.22,640.06,692.64,640.17,692.02,640.02,690.9,640.48,690.3,641.08,689.81,641.82,689.33,642.28,689.19,642.98,688.86,643.34,688.46,644.06,688.46,644.48,688.82,644.89,688.24,645.26,687.59,645.38,687.26,645.61,686.91,646.17,686.58,646.64,686.38,646.81,686.08,646.78,685.74,646.41,685.25,646.43,684.66,646.89,683.97,647.63,683.09,648.76,682.18,649.36,681.02,649.87,680.19,650.09,679.52,650.48,678.42,651.26,678.2,651.72,677.4,651.99,676.75,652.31,676.16,652.83,676.01,653.75,675.63,654.27,674.72,655,673.95,655.73,673.45,656.44,672.92,657.2,672.76,657.61,672.74,658.18,672.99,658.66,673.03,659.11,672.85,659.44,672.33,659.57,671.79,659.47,670.96,659.15,670.07,658.57,669.75,658.28,669.31,657.79,669.38,657.34,669.6,656.45,669.75,655.84,669.39,655.55,669.13,655.24,668.93,654.94,668.56,654.35,668.09,654.49,667.68,654.64,667.21,654.43,665.82,654.52,664.76,654.59,663.78,654.65,662.53,654.73,661.02,654.83,660.58,654.7,660.31,654.5,660.04,653.69,659.88,652.99,659.58,651.69,659.39,650.68,659.16,649.47,659,648.14,658.89,647.18,657.75,647.15,656.84,647.13,655.6,647.09,655.61,646.34,655.63,645.38,655.64,644.29,655.87,642.85,655.96,641.65,656.06,640.17,656.13,639.2,656.21,638.12,655.57,638.45,654.87,638.82,654.21,639.16,653.76,638.29,653.32,637.44,652.65,636.15,652.15,635.18,651.27,634.61,650.63,634.19,649.96,633.48,649.38,632.75,648.83,632.05,648.17,631.44,647.54,631.63,646.83,632.01,646.14,632.38,645.42,632.76,645.06,632.95,644.22,632.88,643.49,632.82,642.17,632.71,641.06,632.61,639.92,632.51,638.34,632.38,636.74,632.24,635.67,632.42,634.32,632.65,632.89,632.89,631.71,633.09,630.22,633.34,629.11,633.53,628.56,633.5,627.87,632.71,626.76,631.45,626.09,630.68,625.43,629.93,624.49,628.84,623.72,628.01,622.98,627.21,622.55,626.46,622.34,625.52,621.95,625.09,621.08,624.52,620.15,623.9,619.22,623.28,618.29,622.66,617.37,622.04,616.44,621.42,615.51,620.79,614.58,620.17,613.65,619.55,612.72,618.92,611.79,618.3,610.86,617.67,609.93,617.04,609,616.42,608.07,615.79,607.14,615.16,606.21,614.53,605.45,614.07,604.73,614.19,603.67,614.51,602.55,614.85,601.45,615.18,599.47,615.77,598.19,616.16,597.2,616.48,596.14,616.82,594.75,617.27,593.58,617.65,592.22,618.09,591.01,618.48,589.99,618.81,588.93,619.15,588.09,619.42,588.09,621.59,588.09,623.76,588.09,625.92,588.09,628.06,588.09,630.21,588.1,632.34,588.1,634.46,588.1,636.58,588.1,638.69,588.1,640.79,588.1,642.88,588.1,644.96,588.1,647.04,588.1,649.11,588.1,651.17,588.1,653.23,587.82,653.21,587.17,653.33,586.09,653.61,585.19,653.76,584.8,653.67,584.45,653.46,584.14,653.01,583.68,652.46,583.21,652.01,582.62,651.1,582.21,650.39,581.21,648.85,581.07,648.37,580.88,647.87,580.54,647.45,579.36,646.43,577.98,645.51,576.63,644.6,576.24,644.38,575.61,644.1,574.83,644.1,574.3,644.15,572.68,644.45,571.44,644.8,569.75,645.28,568.45,645.8,568.15,645.96,567.2,646.59,566.03,647.64,564.66,649.12,564.49,648.17,564.43,646.7,564.45,646.23,564.82,644.99,565.2,644.14,565.5,643.26,565.64,642.1,565.36,640.23,565.04,639.82,564.67,639.68,564.26,639.64,563.52,639.72,563.18,639.87,562.58,639.24,561.85,639.14,561.47,639.31,561.08,639.4,560.66,639.23,560.29,638.86,560.07,638.45,559.9,638,559.33,637.08,558.76,636.58,558.07,636.47,556.95,636.5,556.6,636.43,556.58,635.91,556.72,634.76,556.73,634.16,556.64,633.59,556.46,633.12,556.22,632.72,555.55,632.05,555.05,631.11,554.21,629.17,553.47,626.98,553.15,626.65,552.49,626.3,551.06,626.02,550.11,625.74,549.74,625.46,549.59,624.97,549.59,624.46,549.67,623.85,549.89,623.33,550.64,622.93,552.28,622.84,553.67,622.88,554.94,623.81,555.36,624.02,555.81,624.08,556.7,623.79,557.15,623.71,558.27,623.8,557.94,623.37,557.51,623.14,557.08,623.15,556.7,622.98,556.08,622.12,555,621.15,554.75,620.75,554.68,620.11,554.89,619.56,555.65,618.99,556.3,618.21,556.59,617.18,556.86,616.71,557.41,615.96,558.24,616.1,559.54,615.56,561.67,615.67,564.21,615.51,564.92,615.57,566.54,616.1,567.47,616.33,568.6,616.44,569.42,616.21,568.65,615.49,566.98,614.63,566.55,613.9,567.31,611.92,568.35,610.1,568.98,607.93,568.8,605.77,568.5,605.18,568.6,604.47,568.96,603.88,569.22,603.28,569,602.57,568.54,601.45,568.3,601.09,567.5,600.48,565.9,600.46,564.59,600.13,564.17,600.39,563.93,600.8,563.63,601.07,562.61,601.61,562.27,601.72,561.92,601.61,561.42,601,560.97,601.07,559.62,600.69,558.99,599.86,558.75,599.74,556.57,599.08,555.81,598.95,554.08,599.63,552.82,600.51,552.46,600.64,551.81,601.19,551.44,601.28,551.06,601.19,550.71,601.22,549.95,602.05,548.57,603.02,547.88,603.62,547.12,604,546.27,604.24,545.41,604.28,545.09,604.49,544.1,604.57,543.5,604.75,543.47,605.08,543.59,605.81,543.08,605.55,542.54,606.05,542.72,606.52z"/>

                </svg>
