<svg


                        xmlns:dc="http://purl.org/dc/elements/1.1/"
                        xmlns:cc="http://creativecommons.org/ns#"
                        xmlns:rdf="http://www.w3.org/1999/02/22-rdf-syntax-ns#"
                        xmlns:svg="http://www.w3.org/2000/svg"
                        xmlns="http://www.w3.org/2000/svg"
                        xmlns:sodipodi="http://sodipodi.sourceforge.net/DTD/sodipodi-0.dtd"
                        xmlns:inkscape="http://www.inkscape.org/namespaces/inkscape"
                        enable_background="new 0 0 1200 589"
                        height="600"
                        width="1200"
                        viewBox="500 410 135 135"
                        id="us-map"
                        preserveAspectRatio="xMidYMid meet"
                        inkscape:version="0.48.4 r9939"
                        sodipodi:docname="us.svg">
                    <sodipodi:namedview
                            pagecolor="#ffffff"
                            bordercolor="#666666"
                            borderopacity="1"
                            objecttolerance="10"
                            gridtolerance="10"
                            guidetolerance="10"
                            inkscape:pageopacity="0"
                            inkscape:pageshadow="2"
                            inkscape:window-width="1920"
                            inkscape:window-height="1137"
                            id="namedview69"
                            showgrid="false"
                            inkscape:zoom="0.80893016"
                            inkscape:cx="817.66365"
                            inkscape:cy="409.3738"
                            inkscape:window-x="1192"
                            inkscape:window-y="118"
                            inkscape:window-maximized="1"
                            inkscape:current-layer="svg2"/>
                    <defs
                            id="defs4">
                        <style
                                type="text/css"
                                id="style6">path {
                            fill-rule: evenodd;
                        }</style>
                    </defs>
                    <metadata
                            id="metadata8">
                        <views
                                id="views10">
                            <view
                                    h="589.235294118"
                                    padding="0"
                                    w="1000"
                                    id="view12">
                                <proj
                                        id="laea-usa"
                                        lat0="45"
                                        lon0="-100"/>
                                <bbox
                                        h="321.97"
                                        w="589.33"
                                        x="690.09"
                                        y="918.69"
                                        id="bbox15"/>
                            </view>
                        </views>
                        <rdf:RDF>
                            <cc:Work
                                    rdf:about="">
                                <dc:format>image/svg+xml</dc:format>
                                <dc:type
                                        rdf:resource="http://purl.org/dc/dcmitype/StillImage"/>
                                <dc:title/>
                            </cc:Work>
                        </rdf:RDF>
                    </metadata>

                <path id="BI" style="stroke-width:0.2;fill:lightgrey" data-name="Burundi" class="land" d="M561.448,469.363L561.392,469.436L561.135,469.958L561.085,470.037L561.113,470.085L561.223,470.184L561.158,470.349L561.133,470.393L561.084,470.546L561.111,470.687L561.173,470.739L561.34,470.807L561.59,470.856L561.885,470.974L562.084,470.995L562.131,471.08L562.122,471.231L562.17,471.362L562.171,471.597L562.112,471.804L561.808,471.901L561.651,472.007L561.609,472.061L561.647,472.123L561.667,472.206L561.381,472.413L561.087,472.682L561.017,472.863L560.958,473.078L560.872,473.215L560.648,473.413L560.419,473.811L560.307,474.069L559.746,474.689L559.247,474.999L559.102,475.104L558.219,475.086L558.152,474.668L558.018,474.097L557.714,473.582L557.682,473.366L557.696,472.95L557.697,472.366L557.677,472.052L557.684,471.823L557.722,471.425L557.717,471.187L557.518,470.913L557.27,470.621L557.134,470.478L557.127,470.363L557.128,470.256L557.168,470.101L557.265,469.928L557.374,469.909L557.642,469.978L557.921,470.125L558.069,470.456L558.183,470.503L558.389,470.502L558.916,470.459L559.047,470.464L559.286,470.385L559.524,470.246L559.593,470.102L559.648,469.777L559.698,469.194L559.82,469.188L560.152,469.395L560.224,469.409L560.293,469.402L560.409,469.299L560.55,469.215L560.655,469.217L561.041,469.12L561.248,469.296L561.378,469.351z"/>
                <path id="DJ" style="stroke-width:0.2;fill:lightgrey" data-name="Djibouti" class="land" d="M597.069,430.392L596.826,430.773L596.515,431.261L596.162,431.815L595.941,431.819L595.77,431.787L595.652,431.693L595.41,431.59L595.137,431.583L594.877,431.679L594.437,431.798L594.039,431.837L593.718,431.903L593.453,431.98L593.213,431.938L593.006,431.869L592.96,431.279L592.912,430.639L592.917,430.138L592.99,429.862L593.055,429.754L593.431,429.373L593.561,429.217L593.99,428.585L594.359,428.042L594.634,427.637L594.719,427.557L594.835,427.479L594.917,427.502L595.453,427.893L595.547,427.882L595.726,427.761L595.888,427.343L596.002,427.19L596.051,427.194L596.395,427.077L596.706,426.944L596.746,427.082L597.216,427.644L597.371,427.92L597.528,428.426L597.446,428.707L597.323,428.891L597.142,429.054L596.513,429.455L595.814,429.71L595.368,430.221L595.036,430.186L595.087,430.379L595.21,430.401L595.404,430.364L595.789,430.216L596.13,430.145L596.499,430.14L596.833,430.204z"/>
                <path id="ER" style="stroke-width:0.2;fill:lightgrey" data-name="Eritrea" class="land" d="M596.706,426.944l-0.312,0.133l-0.344,0.117l-0.049,-0.004l-0.114,0.153l-0.163,0.418l-0.179,0.122l-0.094,0.011l-0.535,-0.391l-0.083,-0.022l-0.116,0.077l-0.084,0.08l-0.249,-0.297l-0.182,-0.262l-0.254,-0.313l-0.247,-0.141l-0.265,-0.177l-0.26,-0.411l-0.265,-0.453l-0.393,-0.371l-0.735,-0.535l-0.675,-0.678l-0.516,-0.709l-0.333,-0.37l-0.142,-0.094l-0.688,-0.232l-0.48,-0.325l-0.37,-0.268l-0.227,-0.072l-0.22,-0.009l-0.469,0.053l-0.39,-0.168h-0.164l-0.261,-0.049l-0.205,-0.06l-0.241,0.072l-0.494,0.12l-0.203,-0.026l-0.11,-0.167l-0.065,-0.128l-0.172,-0.133h-0.142l-0.079,0.119l-0.516,0.301l-0.863,0.167l-0.205,-0.012l-0.153,-0.121l-0.436,-0.517l-0.125,-0.084l-0.099,-0.008l-0.202,-0.061l-0.189,-0.099l-0.166,-0.212l-0.167,-0.121l-0.179,0.415l-0.314,0.724l-0.168,0.388l-0.217,0.499l-0.068,0.015l-0.111,-0.036l-0.431,-0.622l-0.271,-0.234l-0.202,0.022l-0.147,0.115l-0.093,0.208l-0.101,0.128l-0.109,0.05l-0.235,-0.025l-0.361,-0.099l-0.373,0.021l-0.384,0.142l-0.051,0.004l-0.09,-0.828l-0.06,-0.554l-0.064,-0.587l-0.06,-0.555l0.267,-0.341l0.124,-0.324l0.318,-1.054l0.127,-0.21l0.25,-0.565l0.035,-0.164l0.247,-0.714l-0.023,-0.475l-0.05,-0.48l0.135,-0.285l0.12,-0.228l-0.008,-0.192l0.054,-0.449l0.039,-0.112l0.147,-0.007l0.303,0.058l0.223,-0.045l0.257,0l0.198,-0.014l0.117,-0.137l0.161,-0.524l0.104,-0.105l0.081,-0.032l0.227,-0.097l0.194,-0.153l0.158,-0.109l0.059,-0.022l0.167,-0.014l0.167,-0.064l0.077,-0.074l0.211,-0.059l0.207,0.033l0.139,-0.065l0.093,-0.042l0.105,-0.003l0.097,-0.061l0.039,-0.093l0.063,-0.06l0.161,-0.136l0.074,-0.099l0.033,-0.1l0.033,-0.079l0.071,-0.134l0.282,-0.336l0.243,-0.195l0.848,1.692l0.344,0.998l0.304,1.039l0.225,1.557l0.214,0.792l0.346,0.39l0.237,0.737l0.203,0.028l0.147,0.202l0.252,0.691l0.181,0.257l0.095,-0.221l-0.011,-0.127l-0.071,-0.213l0.065,-0.274l0.141,-0.164l0.322,0.224l0.176,0.169l0.047,0.339l0.074,0.188l0.336,0.398l0.284,0.116l0.368,0.029l0.308,0.087l0.247,0.146l0.463,0.404l1.059,0.354l0.851,1.084l0.501,0.75l1.647,1.135l0.285,0.543l0.148,0.532l0.346,-0.025l0.594,0.581l0.173,0.441l0.486,0.16l0.083,-0.261l0.235,0.214L596.706,426.944zM588.174,417.229l0.094,0.28l-0.274,-0.107l-0.045,-0.058l0.12,-0.111l0.026,-0.068L588.174,417.229zM588.355,418.349l0.116,0.154l0.081,-0.015l0.064,-0.051l0.045,-0.109l0.443,0.215l-0.025,0.143l-0.265,0.007l-0.305,-0.061l-0.283,0.021l-0.337,-0.062l-0.078,-0.243l0.215,0.117l0.111,-0.029l0.02,-0.031l-0.152,-0.164l-0.214,-0.033l0.015,-0.129l0.096,-0.051l0.059,-0.063l-0.123,-0.177l0.241,0.04l0.152,0.107l0.1,0.125L588.355,418.349z"/>
                <path id="ET" style="stroke-width:0.2;fill:lightgrey" data-name="Ethiopia" class="land" d="M583.557,422.01L583.762,422.022L584.625,421.855L585.141,421.554L585.219,421.435L585.361,421.435L585.533,421.568L585.598,421.696L585.708,421.864L585.911,421.89L586.404,421.771L586.646,421.699L586.85,421.758L587.111,421.807L587.275,421.807L587.665,421.976L588.133,421.922L588.354,421.931L588.581,422.003L588.95,422.271L589.431,422.596L590.119,422.828L590.261,422.922L590.593,423.292L591.109,424.001L591.784,424.679L592.52,425.214L592.913,425.584L593.178,426.037L593.438,426.448L593.703,426.625L593.949,426.765L594.204,427.078L594.386,427.34L594.634,427.637L594.359,428.042L593.99,428.585L593.561,429.217L593.431,429.373L593.055,429.754L592.99,429.862L592.917,430.138L592.912,430.639L592.96,431.279L593.006,431.869L593.213,431.938L593.453,431.98L593.718,431.903L594.039,431.837L594.437,431.798L594.877,431.679L595.137,431.583L595.41,431.59L595.652,431.693L595.77,431.787L595.941,431.819L596.162,431.815L596.115,431.926L595.994,432.088L595.845,432.25L595.714,432.418L595.423,432.888L595.414,432.948L595.45,433.041L595.607,433.255L595.771,433.602L595.863,433.92L595.934,434.074L596.133,434.25L596.42,434.613L596.572,434.858L596.889,434.989L596.992,435.299L597.229,435.755L597.485,436.119L597.733,436.404L598.009,436.514L598.12,436.523L598.699,437.05L599.14,437.451L599.249,437.515L600.044,437.778L600.959,438.08L601.693,438.322L602.628,438.63L603.55,438.935L604.415,439.225L605.629,439.633L606.607,439.962L607.379,440.222L607.543,440.303L608.462,440.303L609.395,440.303L610.35,440.303L609.658,440.972L608.875,441.729L608.053,442.523L607.523,443.034L606.684,443.845L605.985,444.519L605.266,445.255L604.616,445.921L603.77,446.843L603.222,447.439L602.364,448.374L601.825,448.96L601.743,448.994L600.972,448.95L600.222,448.906L599.264,448.851L599.154,448.853L598.875,448.908L598.706,448.962L598.016,449.12L597.889,449.161L597.316,449.412L596.731,449.708L596.423,449.936L596.185,450.266L596.083,450.501L595.976,450.604L595.794,450.694L594.569,450.917L594.213,450.947L593.64,451.125L593.334,451.423L593.247,451.573L592.836,451.569L592.118,451.613L591.811,451.661L591.661,451.669L591.386,451.668L591.16,451.614L591.01,451.533L590.824,451.35L590.408,450.979L590.106,450.747L589.443,451.014L588.846,451.279L587.999,451.656L587.516,451.926L587.371,452.197L586.998,452.69L586.665,452.993L586.54,453.03L585.785,452.967L585.513,452.905L585.063,452.85L584.458,452.743L584.053,452.628L583.613,452.614L582.979,452.575L582.588,452.492L582.191,452.218L581.681,451.889L581.155,451.55L580.613,451.201L579.973,450.799L579.274,450.36L579.114,450.316L579.044,450.308L578.285,450.288L577.496,450.267L576.963,450.253L576.795,450.202L576.673,450.102L576.508,449.777L576.3,449.546L576.068,449.251L576.049,448.853L576.113,448.418L576.173,448.274L576.139,448.131L576.148,447.934L576.018,447.751L575.242,447.541L575.116,447.557L574.987,447.636L574.84,447.692L574.734,447.639L574.669,447.561L574.667,447.432L574.68,447.336L574.635,447.283L574.388,447.087L574.156,446.829L574.016,446.544L573.88,446.31L573.812,445.787L573.64,445.465L573.472,445.071L573.223,444.32L573.115,444.061L572.913,443.887L572.7,443.726L572.479,443.393L571.904,443.099L571.683,442.87L571.3,442.473L571.205,442.272L571.177,442.073L571.058,441.886L570.846,441.675L570.183,441.221L570,441.167L569.763,441.118L569.415,441.073L568.948,440.969L568.54,440.791L568.355,440.665L568.311,440.578L568.349,440.432L568.497,440.181L568.777,439.588L568.971,439.179L569.103,439.063L569.462,439.034L569.844,439.046L570.123,439.076L570.517,439.081L570.989,439.046L571.176,438.909L571.324,438.759L571.386,438.654L571.406,438.389L571.405,438.176L571.375,437.359L571.357,436.859L571.336,436.287L571.339,436.172L571.343,436.025L571.458,435.414L571.566,435.064L571.64,434.879L571.938,434.295L571.994,434.108L572.004,433.937L571.894,433.152L572.085,432.782L572.331,432.416L572.546,432.259L572.725,432.153L572.809,432.198L573.015,432.367L573.285,432.534L573.411,432.497L573.596,432.351L573.734,432.197L573.716,431.921L573.84,431.354L573.816,431.026L573.949,430.62L574.094,430.047L574.159,429.685L574.242,429.49L574.635,429.09L574.973,428.524L575.188,428.11L575.6,427.434L575.808,427.187L575.977,427.081L576.229,427.013L576.698,426.951L577.035,426.894L577.084,426.806L577.113,426.668L577.118,426.365L577.183,425.844L577.329,425.335L577.501,424.949L577.594,424.773L577.705,424.604L577.83,424.317L577.988,423.697L577.979,423.276L578.205,422.504L578.255,422.5L578.639,422.358L579.012,422.337L579.373,422.436L579.608,422.461L579.718,422.411L579.819,422.283L579.912,422.075L580.06,421.96L580.262,421.938L580.532,422.172L580.963,422.793L581.074,422.83L581.143,422.814L581.359,422.315L581.528,421.928L581.842,421.204L582.021,420.789L582.188,420.909L582.354,421.121L582.542,421.22L582.745,421.281L582.843,421.289L582.968,421.373L583.404,421.89z"/>
                <path id="KE" style="stroke-width:0.2;fill:lightgrey" data-name="Kenya" class="land" d="M593.247,451.573l-0.345,0.492l-0.414,0.59l-0.763,1.085l-0.58,0.571l-0.438,0.432l-0.041,0.078l0.002,0.481l0.005,1.176l0.009,2.351l0.009,2.35l0.009,2.35l0.004,1.175l0.002,0.395l0.385,0.494l0.376,0.483l0.497,0.638l0.267,0.342l0.044,0.114l-0.014,0.229l-0.409,0.479l-0.335,0.218l-0.451,0.104l-0.135,-0.02l-0.177,-0.068l-0.069,0.115l-0.052,0.179l-0.1,-0.038l-0.075,-0.053l0.045,0.318l0.046,0.157L590.48,469l-0.219,0.185l-0.02,0.157l-0.474,0.41l-0.673,0.045l-0.354,0.204l-0.157,0.167l-0.12,0.365l0.042,0.559l-0.188,0.43l-0.035,0.216l-0.348,0.279l-0.154,0.256l-0.114,0.261l-0.099,0.114l-0.118,0.584l-0.162,0.355l-0.044,0.118l-0.04,0.106l-0.125,0.208l-0.082,0.144l-0.059,0.094l-0.41,0.91l-0.32,0.411l-0.251,-0.047l-0.167,0.159l-0.018,0.075l-0.089,-0.042l-0.209,-0.151l-0.431,-0.309l-0.431,-0.309l-0.431,-0.309l-0.431,-0.309l-0.431,-0.309l-0.431,-0.309l-0.431,-0.309l-0.431,-0.309l-0.253,-0.181l-0.111,-0.107l-0.088,-0.213l-0.042,-0.053l-0.115,-0.067l-0.135,-0.015l-0.039,-0.041l0.001,-0.103l0.046,-0.148l0.159,-0.283l0.017,-0.167l-0.031,-0.189l-0.049,-0.303l-0.043,-0.069l-0.286,-0.159l-0.598,-0.332l-0.598,-0.332l-0.598,-0.332l-0.599,-0.332l-0.598,-0.332l-0.598,-0.332l-0.598,-0.332l-0.598,-0.332l-0.599,-0.332l-0.598,-0.332l-0.599,-0.332l-0.598,-0.332l-0.598,-0.332l-0.598,-0.332l-0.598,-0.332l-0.599,-0.332l-0.225,-0.125l-0.202,-0.105h-0.214l-0.009,-0.475l0.068,-1.209l-0.008,-1.062l0.061,-0.532l0.264,-0.337l0.122,-0.245l0.087,-0.342l0.138,-0.279l0.313,-0.227l0.056,-0.125l0.332,-0.379l0.199,-0.487l0.15,-0.166l0.188,-0.153l0.132,-0.081l0.218,-0.081l0.171,-0.046l0.031,-0.039l0.015,-0.079l-0.057,-0.302l0.073,-0.099l0.116,-0.202l0.133,-0.188l0.12,-0.12l0.067,-0.123l0.031,-0.212l0.005,-0.151l-0.001,-0.246l-0.038,-0.559l-0.141,-0.468l-0.087,-0.524l0.064,-0.172l-0.111,-0.307l-0.055,-0.017l-0.09,-0.067l-0.116,-0.29l-0.087,-0.264l-0.054,-0.066l-0.376,-0.231l-0.187,-0.545l-0.21,-0.121l-0.114,-0.542l-0.022,-0.154l0.119,-0.541l-0.012,-0.124l-0.126,-0.114l-0.353,-0.117l-0.286,-0.223l0.037,-0.078l0.021,-0.081l-0.151,-0.054l-0.438,-0.925l0.563,-0.556l0.571,-0.563l0.729,-0.713l0.669,-0.655l0.578,-0.566l0.516,-0.505l-0.013,0.096l0.002,0.128l0.064,0.078l0.106,0.054l0.147,-0.057l0.129,-0.079l0.126,-0.017l0.775,0.21l0.13,0.183l-0.009,0.197l0.034,0.143l-0.06,0.144l-0.064,0.434l0.02,0.398l0.231,0.295l0.208,0.231l0.165,0.325l0.122,0.1l0.168,0.052l0.533,0.014l0.789,0.021l0.759,0.02l0.069,0.008l0.161,0.044l0.699,0.438l0.64,0.402l0.542,0.349l0.526,0.339l0.511,0.33l0.396,0.273l0.391,0.083l0.635,0.04l0.439,0.014l0.406,0.115l0.604,0.107l0.45,0.055l0.272,0.062l0.755,0.063l0.125,-0.037l0.333,-0.303l0.373,-0.493l0.146,-0.271l0.482,-0.27l0.847,-0.376l0.597,-0.266l0.664,-0.267l0.302,0.231l0.416,0.371l0.186,0.183l0.149,0.081l0.226,0.054l0.275,0.001l0.15,-0.008l0.307,-0.048l0.718,-0.044L593.247,451.573zM590.75,468.689l-0.104,0.024l0.054,-0.16l0.308,-0.205l0.125,0.046l0.024,0.046l-0.007,0.043l-0.052,0.042L590.75,468.689z"/>
                <path id="KM" style="stroke-width:0.2;fill:lightgrey" data-name="Comoros" class="land" d="M597.686,496.092l-0.053,0.038l-0.256,-0.163l-0.146,-0.038l-0.215,-0.263l0.083,-0.91l0.069,-0.117l0.052,-0.047l0.119,-0.017l0.145,0.114l-0.038,0.585l0.191,0.394l0.123,0.313L597.686,496.092zM600.522,496.606l0.141,0.394l-0.001,0.297l-0.06,0.094l-0.126,-0.062l-0.232,-0.236l-0.441,-0.23l0.203,-0.019l0.118,0.023l0.125,-0.021l0.078,-0.13l0.016,-0.077l0.11,-0.062L600.522,496.606zM598.592,497.249l0.197,0.175l-0.548,-0.072l-0.086,-0.158l-0.004,-0.116l0.205,0.025L598.592,497.249z"/>
                <path id="MG" style="stroke-width:0.2;fill:lightgrey" data-name="Madagascar" class="land" d="M614.729,497.606l0.129,0.299l0.15,0.287l0.469,0.694l0.201,0.267l0.171,0.284l0.083,0.567l0.299,0.882l0.281,1.328l0.086,1.365l0.087,0.627l0.219,0.591l0.359,0.614l0.116,0.683l-0.22,0.705l-0.317,0.665l-0.082,0.125l-0.149,0.171l-0.067,-0.007l-0.254,-0.172l-0.208,-0.281l-0.263,-0.661l-0.096,-0.335l-0.11,-0.053l-0.308,0.029l-0.223,0.208l-0.041,0.131l0.048,0.373l0.085,0.335l0.037,0.341l0.007,0.429l0.083,0.13l0.122,0.109l0.127,0.281l0.022,0.67l-0.078,0.339l-0.217,0.292l0.013,0.161l0.081,0.166l-0.077,0.1l-0.289,0.126l-0.117,0.112l-0.156,0.297l-0.253,0.606l-0.034,0.31l0.158,0.944l-0.044,0.67l-0.322,1.285l-0.186,0.611l-0.263,0.731l-0.402,0.965l-0.398,1.215l-0.338,1.253l-0.25,0.755l-0.284,0.745l-0.389,1.319l-0.33,1.343l-0.491,1.482l-0.678,1.659l-0.073,0.217l-0.141,0.851l-0.152,0.74l-0.182,0.734l-0.38,1.216l-0.043,0.375l-0.086,0.361l-0.366,0.766l-0.155,0.285l-0.109,0.303l-0.062,0.385l-0.109,0.372l-0.268,0.685l-0.399,0.59l-0.272,0.215l-0.588,0.312l-0.298,0.063l-0.661,0.007l-0.64,0.178l-0.667,0.342l-0.642,0.393l-0.246,0.187l-0.271,0.107l-0.848,0.022l-0.254,-0.085l-0.849,-0.646l-0.329,-0.106l-0.623,-0.088l-0.188,-0.055l-0.171,-0.084l-0.252,-0.337l-0.5,-0.284l-0.12,-0.089l-0.076,-0.196l-0.052,-0.211l-0.13,-0.236l-0.096,-0.449l-0.163,-0.313l-0.46,-0.553l-0.049,-0.177l-0.037,-0.586l0.015,-0.396l-0.045,-0.724l0.053,-0.34l0.162,-0.306l-0.066,-0.331l-0.172,-0.348l-0.064,-0.359l-0.126,-0.327l-0.482,-0.588l-0.113,-0.289l-0.078,-0.299l-0.182,-0.931l-0.022,-0.324l0.027,-0.684l0.067,-0.352l0.117,-0.245l0.029,-0.183l0.076,-0.157l0.114,-0.125l0.077,-0.149l0.18,-0.87l0.228,-0.193l0.338,-0.111l0.271,-0.227l0.156,-0.306l0.156,-0.631l0.426,-0.625l0.152,-0.328l0.344,-0.496l0.304,-0.696l0.092,-0.328l0.066,-0.335l0.077,-0.735l0.058,-0.365l-0.012,-0.362l-0.174,-0.371l-0.415,-0.673l-0.013,-0.125l0.033,-0.5l-0.035,-0.361l-0.153,-0.36l-0.196,-0.338l-0.193,-0.632l-0.094,-1.043l0.02,-0.376l-0.057,-0.334l-0.14,-0.318l0.1,-0.555l1.241,-2.01l0.041,-0.236l-0.05,-0.611l0.026,-0.355l0.043,-0.132l0.095,-0.077l0.212,-0.037l1.003,-0.087l0.129,-0.062l0.25,-0.168l0.344,-0.326l0.158,-0.094l0.136,0.035l0.087,0.139l0.112,0.076l0.405,-0.147l0.155,-0.004l0.159,0.024l0.074,-0.136l0.044,-0.182l0.059,-0.128l0.108,-0.073l0.521,-0.04l0.333,-0.052l0.43,-0.127l0.092,0.025l0.347,0.458l0.105,0.039l0.135,0.019l0.118,-0.083l-0.282,-0.239l-0.042,-0.135l0.015,-0.154l0.151,-0.329l0.252,-0.251l0.56,-0.381l0.582,-0.44l0.169,-0.03l0.143,0.069l0.11,0.52l-0.014,0.085l0.093,0.012l0.108,-0.064l0.096,-0.209l0.005,-0.174l-0.078,-0.167l-0.038,-0.141l-0.003,-0.13l0.295,-0.307l0.232,-0.292l0.107,-0.349l0.093,-0.161l0.245,-0.181l0.072,0.028l0.057,0.147l0.032,0.156l-0.063,0.155l-0.089,0.153l-0.036,0.204l0.138,0.04l0.13,-0.049l0.19,-0.369l0.217,-0.349l0.129,-0.182l0.163,-0.126l0.271,0.025l0.263,0.078l-0.429,-0.368l-0.107,-0.504l0.51,-0.871l0.005,-0.181l0.074,-0.056l0.035,-0.07l-0.264,-0.293l-0.05,-0.146l0.035,-0.221l0.126,-0.196l0.115,-0.137l0.163,-0.053l0.129,0.075l0.284,0.241l0.191,0.037l0.231,-0.231l0.189,-0.289l0.284,-0.198l0.323,-0.123l0.491,-0.455l0.32,-0.95l0.025,-0.277l-0.071,-0.335l-0.113,-0.319l-0.189,-0.398l0.049,-0.088l0.269,0.053l0.09,-0.056l0.292,-0.352l0.481,-0.674l0.158,0.001l0.136,0.125l0.051,0.185l0.096,0.136l0.325,0.32L614.729,497.606zM611.371,500.272l0.004,0.104l-0.369,-0.043l-0.058,-0.359l0.181,-0.011l0.04,-0.147l0.11,-0.018l0.119,0.319L611.371,500.272zM615.846,510.499l-0.315,0.536l0.089,-0.447l0.365,-0.644l0.104,-0.049L615.846,510.499z"/>
                <path id="MU" style="stroke-width:0.2;fill:lightgrey" data-name="Mauritius" class="land" d="M637.497,521.05L637.143,521.134L636.745,521.105L636.591,520.946L636.561,520.879L636.694,520.816L636.686,520.611L636.752,520.287L636.837,520.154L637.034,520.035L637.115,519.774L637.285,519.6L637.512,519.578L637.738,519.9L637.892,520.239L637.86,520.58L637.704,520.704L637.652,520.901z"/>
                <path id="MW" style="stroke-width:0.2;fill:lightgrey" data-name="Malawi" class="land" d="M573.813,495.171l-0.373,-0.007l-0.469,0.037l-0.115,0.09l-0.035,0.199l-0.147,0.41l-0.082,0.151l-0.173,0.276l-0.244,0.389l-0.051,0.127l0.008,0.131l0.144,0.529l0.151,0.556l0.048,0.218l0.107,0.74l0.06,0.524l0.009,0.308l0.051,0.412l0.134,0.223l0.141,0.14l0.53,0.084l0.158,0.103l0.3,0.263l0.656,0.728l0.36,0.465l0.317,0.409l0.566,0.761l0.44,0.592l0.055,0.556l0.073,0.081l-0.148,0.413l-0.097,0.667l0.07,0.443l-0.029,0.757l-0.081,0.807l-0.101,0.289l-0.13,0.109l-0.308,0.087l-0.676,0.101l-0.101,0.095l-0.087,0.157l-0.137,0.373l-0.161,0.376l-0.051,0.161l0.031,0.038l0.145,0.192l0.144,0.491l0.026,0.843l-0.05,0.063l-0.2,0.037l-0.215,-0.011l-0.089,-0.048l-0.08,-0.094l-0.058,-0.18l0.141,-0.125l0.05,-0.22l-0.09,-0.188l-0.181,-0.042l-0.23,-0.173l-0.49,-0.563l-0.41,-0.395l-0.238,-0.327l-0.243,-0.13l-0.07,-0.08l-0.059,-0.138l-0.001,-0.199l0.022,-0.146l-0.076,-0.165l-0.246,-0.254l-0.112,-0.141l-0.006,-0.168l0.104,-0.162l0.21,-0.198l0.159,-0.401l0.057,-0.259l0.297,-0.521l0.041,-0.452l0.006,-0.361l-0.018,-0.27l-0.076,-0.553l-0.053,-0.382l-0.366,-0.5l-0.119,-0.047l-0.347,0.044l-0.3,0.073l-0.147,0.104l-0.223,0.005l-0.585,0.087l-0.184,0.037l-0.106,0.09l-0.062,0.019l-0.368,-0.386l-0.323,-0.417l-0.411,-0.708l-0.117,-0.085l-0.15,-0.208l-0.125,0.052l-0.172,0.146l-0.093,0.04l-0.048,-0.004l-0.031,-0.037l-0.038,-0.093l-0.133,-0.267l-0.149,-0.191l-0.158,-0.074l-0.129,-0.088l0.057,-0.085l0.06,-0.061l-0.026,-0.063l-0.072,-0.092l-0.28,-0.133l-0.004,-0.057l0.247,-0.115l0.156,-0.137l0.106,-0.131l0.134,-0.287l0.109,-0.286l0.082,-0.093l0.028,-0.189l-0.019,-0.213l0.055,-0.272l0.026,-0.257l-0.083,-0.1l-0.07,-0.173l0.083,-0.294l0.13,-0.203l0.623,-0.211l0.434,-0.191l0.092,-0.083l0.147,-0.163l0.082,-0.159l-0.059,-0.047l-0.341,-0.004l-0.084,-0.061l-0.246,-0.559l0.136,-0.64l0.012,-0.251l-0.003,-0.312l-0.043,-0.227l-0.108,-0.095l-0.066,-0.122l0.018,-0.333l0.1,-0.04l0.216,-0.44l0.096,-0.259l-0.115,-0.207l-0.127,-0.295l-0.058,-0.188l-0.032,-0.062l0.088,-0.116l0.146,-0.112l0.164,-0.031l0.173,-0.053l0.545,-0.546l0.007,-0.106l-0.099,-0.183l-0.204,-0.276l-0.045,-0.112l-0.024,-0.332l-0.081,-0.099l-0.299,-0.223l-0.23,-0.235l0.072,-0.238l0.039,-0.26l-0.114,-0.143l-0.169,-0.148l-0.105,-0.216l-0.048,-0.161l-0.133,-0.064l-0.123,-0.002l-0.09,0.1l-0.097,-0.009l-0.118,-0.035l-0.039,-0.139l-0.007,-0.15l-0.081,-0.102l-0.078,-0.142l-0.01,-0.075l0.049,-0.022l0.103,-0.013l0.439,0.285l0.266,0.013l0.296,0.053l0.253,0.251l0.131,0.033l0.167,-0.035l0.478,-0.026l0.192,0.036l0.247,0.147l0.097,0.02l0.155,0.006l0.027,-0.04l0.016,-0.087l-0.027,-0.176l0.035,-0.095l0.094,-0.103l0.261,0.12l0.652,0.548l0.02,0.071l0.416,0.544l0.135,0.23v0.122l0.128,0.476l0.028,0.223l-0.029,0.17l0.005,0.136l0.05,0.194l-0.017,0.082l0.148,0.285l0.071,0.24l0.015,0.234l-0.042,0.229l-0.131,0.333l-0.022,0.134l0.029,0.122l0.085,0.133l0.141,0.143l0.106,0.172l0.072,0.203l0.061,0.092l0.076,-0.002l0.14,0.031l0.112,0.119l0.13,0.199l0.043,0.229L573.813,495.171zM572.921,496.413l-0.056,0.151l-0.116,-0.002l-0.109,-0.134l0.035,-0.104l0.105,-0.032l0.092,0.039L572.921,496.413zM573.139,496.689l-0.099,0.023l-0.062,-0.051l0.015,-0.152l0.035,-0.11l0.098,-0.017l0.068,0.029l0.047,0.05l0.001,0.081l-0.029,0.083L573.139,496.689z"/>
                <path id="MZ" style="stroke-width:0.2;fill:lightgrey" data-name="Mozambique" class="land" d="M567.994,540.456l-0.308,0.005l-0.527,0.015l-0.312,0.009l-0.349,0.009l-0.432,-0.088l-0.243,0.019l-0.02,-0.999l-0.079,-0.219l-0.083,-0.32l-0.02,-0.205l0.052,-0.206l0.025,-0.326l-0.023,-0.286l-0.258,-0.143l-0.057,-0.045l-0.056,-0.224l-0.022,-0.346l0.181,-0.439l-0.015,-0.843l0.021,-0.296l-0.003,-0.585l-0.004,-0.707l-0.003,-0.633l0.007,-0.545l-0.054,-0.258l-0.045,-0.142l-0.12,-0.288l-0.14,-0.599l-0.165,-0.452l-0.212,-0.298l-0.067,-0.157l-0.068,-0.209l-0.201,-0.37l-0.164,-0.215l-0.045,-0.172l0.006,-0.445l-0.183,-0.797l-0.133,-0.58l-0.2,-0.628l-0.134,-0.419l-0.02,-0.072l-0.015,-0.159l0.398,-0.311l0.398,-0.438l0.466,-0.512l0.416,-0.457l0.366,-0.401l0.501,-0.548l0.495,-0.541l0.116,-0.069l0.049,-0.044l-0.214,-0.48l0.344,-0.557l0.019,-0.362l-0.015,-0.346l0.042,-0.159l0.104,-0.139l0.402,-0.289l0.304,-0.46l0.249,-0.43l0.346,-0.69l0.034,-0.163l0.005,-0.167L568.237,519l-0.23,-0.377l-0.167,-0.326l-0.149,-0.501l0.15,-0.435l0.053,-0.263l0,-0.142l-0.066,-0.134l-0.168,-0.102l-0.14,-0.066l-0.047,-0.18l-0.001,-0.213l0.063,-0.118l0.372,-0.191l0.084,-0.104l0.044,-0.116l0.004,-0.165l0.115,-0.413l0.142,-0.392l0.01,-0.138l-0.05,-0.121l-0.039,-0.221l-0.025,-0.333l-0.002,-0.931l0.073,-0.959l-0.032,-0.543l-0.238,-0.624l-0.023,-0.45l0.173,-0.314l0.028,-0.185l-0.126,-0.024l-0.26,-0.019l-0.192,-0.058l-0.297,-0.257l-0.516,-0.214l-0.586,-0.195l-0.852,-0.058l-0.708,-0.624l-0.555,-0.1l-0.179,-0.08l-0.533,-0.374l-0.835,-0.035l-0.866,-0.037l-0.54,-0.011l-0.08,-0.05l-0.031,-0.515l-0.006,-0.457l-0.046,-0.397l-0.082,-0.452l-0.126,-0.176l-0.15,-0.305l-0.076,-0.336l-0.009,-0.163l0.028,-0.058l0.601,-0.239l0.257,-0.118l0.381,-0.137l0.678,-0.189l0.605,-0.169l0.555,-0.164l0.588,-0.174l0.239,-0.117l0.297,-0.117l0.711,-0.235l0.203,-0.081l0.408,-0.131l0.205,-0.051l0.787,-0.269l0.902,-0.308l0.316,-0.108l0.603,-0.206l0.117,0.085l0.411,0.708l0.323,0.417l0.368,0.386l0.062,-0.019l0.106,-0.09l0.184,-0.037l0.585,-0.087l0.223,-0.005l0.147,-0.104l0.3,-0.073l0.347,-0.044l0.119,0.047l0.366,0.5l0.053,0.382l0.076,0.553l0.018,0.27l-0.006,0.361l-0.041,0.452l-0.297,0.521l-0.057,0.259l-0.159,0.401l-0.21,0.198l-0.104,0.162l0.006,0.168l0.112,0.141l0.246,0.254l0.076,0.165l-0.022,0.146l0.001,0.199l0.059,0.138l0.07,0.08l0.243,0.13l0.238,0.327l0.41,0.395l0.49,0.563l0.23,0.173l0.181,0.042l0.09,0.188l-0.05,0.22l-0.141,0.125l0.058,0.18l0.08,0.094l0.089,0.048l0.215,0.011l0.2,-0.037l0.05,-0.063l-0.026,-0.843l-0.144,-0.491l-0.145,-0.192l-0.031,-0.038l0.051,-0.161l0.161,-0.376l0.137,-0.373l0.087,-0.157l0.101,-0.095l0.676,-0.101l0.308,-0.087l0.13,-0.109l0.101,-0.289l0.081,-0.807l0.029,-0.757l-0.07,-0.443l0.097,-0.667l0.148,-0.413l-0.073,-0.081l-0.055,-0.556l-0.44,-0.592l-0.566,-0.761l-0.317,-0.409l-0.36,-0.465l-0.656,-0.728l-0.3,-0.263l-0.158,-0.103l-0.53,-0.084l-0.141,-0.14l-0.134,-0.223l-0.051,-0.412l-0.009,-0.308l-0.06,-0.524l-0.107,-0.74l-0.048,-0.218l-0.151,-0.556l-0.144,-0.529l-0.008,-0.131l0.051,-0.127l0.244,-0.389l0.173,-0.276l0.082,-0.151l0.147,-0.41l0.035,-0.199l0.115,-0.09l0.469,-0.037l0.373,0.007l0.626,-0.009l0.661,0.024l0.093,0.018l0.149,0.043l0.168,-0.007l0.187,-0.058l0.207,-0.142l0.227,-0.226l0.354,0.005l0.479,0.235l0.262,0.205l0.044,0.175l0.321,0.102l0.598,0.028l0.435,-0.091l0.273,-0.21l0.286,-0.111l0.298,-0.013l0.225,0.072l0.153,0.156l0.293,0.112l0.434,0.068l0.474,-0.101l0.514,-0.269l0.293,-0.281l0.072,-0.292l0.085,-0.178l0.098,-0.063l0.272,-0.036l0.447,-0.01l0.389,0.092l0.496,0.291l0.313,-0.193l0.537,-0.331l0.541,-0.175l0.515,-0.001l0.423,-0.126l0.33,-0.25l0.349,-0.159l0.368,-0.067l0.344,-0.121l0.481,-0.26l0.499,-0.378l0.508,-0.386l0.326,-0.248l0.149,0.292l0.267,0.267l-0.159,0.155l-0.192,0.139l0.31,0.186l-0.227,0.281l-0.028,0.195l0.058,0.077l0.05,0.114l-0.149,0.322l-0.198,0.247l-0.051,0.189l0.175,0.333l-0.09,0.592l0.169,0.533l0.047,0.273l0.059,0.183l-0.084,0.327l0.022,0.552l0.039,0.228l-0.101,0.284l0.172,0.098l0.091,0.312l-0.024,0.351l-0.053,0.189l-0.296,0.229l-0.035,0.089l0.004,0.135l0.37,0.004l0.013,0.209l-0.024,0.165l0.014,0.31l-0.049,0.201l0.086,0.23l-0.105,0.255l0.036,0.197l0.005,0.255l0.086,0.645l0.015,0.798l0.019,0.128l0.132,0.09l0.185,0.045l-0.007,0.219l-0.206,0.286l-0.012,0.178l0.03,0.25l0.226,-0.34l0.136,0.001l0.121,0.133l-0.017,0.196l0.042,0.097l-0.018,0.19l0.067,0.241l-0.026,0.21l-0.166,0.147l-0.211,0.252l-0.038,0.236l0.02,0.155l-0.146,0.049l-0.068,0.096l0.099,0.223l-0.006,0.197l-0.258,0.614l-0.688,0.841l-0.297,0.299l-0.278,0.325v0.134l-0.027,0.116l-0.324,0.465l-0.348,0.076l-0.193,0.125l0.151,0.41l-0.225,0.095l-0.391,0.323l-1.075,0.621l-0.17,0.144l-0.273,0.381l-0.36,0.092l-0.2,0.108l-0.357,0.039l-0.125,-0.027l-0.122,0.014l-0.103,0.082l-0.709,0.268l-0.662,0.212l-0.163,0.097l-0.108,0.132l-0.586,0.21l-0.918,0.519l-0.751,0.496l-0.544,0.496l-0.144,0.075l-0.168,0.172l-0.057,0.254l-0.055,0.144l-0.403,0.524l-0.606,0.62l-0.118,0.169l-0.241,0.345l-0.023,0.226l-0.215,0.069l-0.18,-0.216l-0.077,0.417l-0.147,0.03l-0.163,-0.086l-0.407,0.207l-0.354,0.239l-0.568,0.503l-0.803,0.976l-1.171,0.944l-0.16,0.027l-0.108,-0.004l-0.369,-0.329l-0.201,-0.024l0.18,0.195l0.119,0.163l-0.03,0.319l0.014,0.479l-0.145,0.933l0.02,0.204l0.167,0.265l0.315,0.324l0.295,0.404l0.38,1.162l0.029,0.6l0.392,0.767l0.015,0.333l0.159,0.829l-0.011,0.672l-0.028,0.412l0.189,0.174l0.07,-0.157l-0.02,-0.261l0.05,-0.418l0.105,-0.186l0.105,0.026l0.031,0.197l0.071,0.175l0.029,0.164l0.005,0.223l-0.145,0.849l0.043,0.346l0.195,0.579l-0.228,0.673l-0.33,1.59l-0.019,0.276l0.08,0.12l0.177,0.041l0.065,-0.204l0.104,0.002l0.055,0.12l-0.147,0.736l-0.145,0.323l-0.515,0.793l-0.277,0.34l-0.46,0.335l-1.08,0.524l-2.165,0.759l-0.858,0.373l-0.513,0.223l-1.084,0.709l-0.474,0.476l-0.195,0.547l-0.187,0.25l-0.184,0.318l0.16,0.273l0.157,0.207l0.186,0.139l0.096,0.12l0.126,0.083l0.126,-0.43l0.063,-0.134l0.108,-0.01l-0.06,0.524l-0.125,1.804L567.994,540.456zM573.139,496.689l0.075,-0.063l0.029,-0.083l-0.001,-0.081l-0.047,-0.05l-0.068,-0.029l-0.098,0.017l-0.035,0.11l-0.015,0.152l0.062,0.051L573.139,496.689zM572.921,496.413l-0.049,-0.083l-0.092,-0.039l-0.105,0.032l-0.035,0.104l0.109,0.134l0.116,0.002L572.921,496.413z"/>
                <path id="RE" style="stroke-width:0.2;fill:lightgrey" data-name="Reunion" class="land" d="M632.294,523.602L631.897,523.691L631.621,523.659L631.074,523.405L630.928,523.236L630.71,522.761L630.758,522.594L630.93,522.3L631.32,522.184L631.73,522.227L631.914,522.307L632.131,522.651L632.411,523.001L632.364,523.417z"/>
                <path id="RW" style="stroke-width:0.2;fill:lightgrey" data-name="Rwanda" class="land" d="M561.325,465.646L561.233,465.689L561.214,465.824L561.32,466.039L561.668,466.483L561.889,466.564L562.033,466.737L562.175,467.028L562.217,467.393L562.158,467.831L562.193,468.156L562.321,468.37L562.354,468.647L562.294,468.987L562.22,469.191L562.133,469.259L562.034,469.284L561.9,469.261L561.737,469.29L561.56,469.354L561.448,469.363L561.378,469.351L561.248,469.296L561.041,469.12L560.655,469.217L560.55,469.215L560.409,469.299L560.293,469.402L560.224,469.409L560.152,469.395L559.82,469.188L559.698,469.194L559.648,469.777L559.593,470.102L559.524,470.246L559.286,470.385L559.047,470.464L558.916,470.459L558.389,470.502L558.183,470.503L558.069,470.456L557.921,470.125L557.642,469.978L557.374,469.909L557.265,469.928L557.168,470.101L557.128,470.256L556.868,470.15L556.79,470.019L556.783,469.797L556.688,469.493L556.741,469.364L556.843,469.28L557.059,469.12L557.387,468.897L557.457,468.792L557.503,468.615L557.482,468.204L557.451,467.857L557.49,467.734L557.64,467.466L557.84,467.191L558.075,466.901L558.216,466.873L558.401,466.764L558.597,466.601L558.707,466.54L558.799,466.538L559.404,466.394L559.464,466.439L559.562,466.718L559.614,466.759L559.698,466.769L559.868,466.705L560.179,466.486L560.315,466.354L560.475,466.167L560.68,465.957L560.794,465.773L560.905,465.666L561.051,465.634L561.213,465.643z"/>
                <path id="SC" style="stroke-width:0.2;fill:lightgrey" data-name="Seychelles" class="land" d="M631.572,475.768L631.58,476.027L631.445,475.94L631.407,475.773L631.227,475.648L631.133,475.534L631.336,475.393z"/>
                <path id="SO" style="stroke-width:0.2;fill:lightgrey" data-name="Somalia" class="land" d="M592.261,467.397L592.274,467.168L592.23,467.054L591.964,466.711L591.467,466.073L591.091,465.59L590.706,465.097L590.704,464.702L590.7,463.527L590.69,461.178L590.682,458.828L590.672,456.478L590.667,455.302L590.666,454.821L590.706,454.743L591.145,454.312L591.725,453.74L592.487,452.655L592.901,452.064L593.247,451.573L593.334,451.423L593.64,451.125L594.213,450.947L594.569,450.917L595.794,450.694L595.976,450.604L596.083,450.501L596.185,450.266L596.423,449.936L596.731,449.708L597.316,449.412L597.889,449.161L598.016,449.12L598.706,448.962L598.875,448.908L599.154,448.853L599.264,448.851L600.222,448.906L600.972,448.95L601.743,448.994L601.825,448.96L602.364,448.374L603.222,447.439L603.77,446.843L604.616,445.921L605.266,445.255L605.985,444.519L606.684,443.845L607.523,443.034L608.053,442.523L608.875,441.729L609.658,440.972L610.35,440.303L609.395,440.303L608.462,440.303L607.543,440.303L607.379,440.222L606.607,439.962L605.629,439.633L604.415,439.225L603.55,438.935L602.628,438.63L601.693,438.322L600.959,438.08L600.044,437.778L599.249,437.515L599.14,437.451L598.699,437.05L598.12,436.523L598.009,436.514L597.733,436.404L597.485,436.119L597.229,435.755L596.992,435.299L596.889,434.989L596.572,434.858L596.42,434.613L596.133,434.25L595.934,434.074L595.863,433.92L595.771,433.602L595.607,433.255L595.45,433.041L595.414,432.948L595.423,432.888L595.714,432.418L595.845,432.25L595.994,432.088L596.115,431.926L596.162,431.815L596.515,431.261L596.826,430.773L597.069,430.392L597.617,430.828L598.15,431.712L598.771,432.426L599.629,433.088L599.969,433.312L600.27,433.43L601.831,433.412L602.939,432.808L603.945,432.37L604.283,432.279L604.867,432.399L605.511,432.435L606.09,432.568L606.384,432.534L607.53,432.025L608.25,431.529L608.741,431.318L608.934,431.316L609.604,431.495L610.465,431.417L611.643,430.989L612.018,430.902L612.304,430.896L612.945,431.089L613.045,431.079L613.392,431.043L614.307,430.839L615.02,430.531L616.333,430.308L617.332,429.744L617.507,429.471L617.809,429.127L618.247,429.014L619.367,429.418L619.546,429.45L619.481,429.694L619.442,429.943L619.213,430.377L619.066,430.859L619.174,431.595L619.226,432.787L619.199,432.96L619.125,433.13L619.094,433.265L618.973,433.312L618.92,433.389L619.008,433.419L619.358,433.29L619.352,433.147L619.372,433.077L619.66,433.236L619.866,433.302L619.926,433.452L619.91,433.554L619.583,433.507L619.416,433.428L618.931,433.558L618.634,433.698L618.545,433.932L618.476,434.864L618.361,435.468L618.339,436.267L617.946,436.795L617.814,437.167L617.23,437.913L616.926,438.549L616.826,438.86L616.313,439.732L615.608,440.4L615.354,441.253L615.102,441.788L614.817,442.272L614.195,443.134L613.877,443.732L613.478,444.77L613.355,445.426L612.232,447.33L611.067,448.846L610.342,450.121L609.04,451.599L607.265,453.506L604.941,455.768L604.311,456.229L601.768,457.624L600.119,458.792L599.277,459.587L598.393,460.279L597.691,460.938L595.57,463.16L595.352,463.369L595.146,463.566L594.879,463.943L594.693,464.092L594.187,464.728L593.87,465.057L593.516,465.383L593.365,465.613L593.259,465.878L593.14,466.025L592.821,466.657L592.539,467.071Z"/>
                <path id="SS" style="stroke-width:0.2;fill:lightgrey" data-name="South Sudan" class="land" d="M571.006,435.087L570.825,435.448L570.767,435.705L570.749,435.921L570.76,436.046L570.78,436.126L570.789,436.145L570.797,436.158L570.805,436.167L570.814,436.17L571.336,436.172L571.339,436.172L571.339,436.172L571.336,436.287L571.357,436.859L571.375,437.359L571.405,438.176L571.406,438.389L571.386,438.654L571.324,438.759L571.176,438.909L570.989,439.046L570.517,439.081L570.123,439.076L569.844,439.046L569.462,439.034L569.103,439.063L568.971,439.179L568.777,439.588L568.497,440.181L568.349,440.432L568.311,440.578L568.355,440.665L568.54,440.791L568.948,440.969L569.415,441.073L569.763,441.118L570,441.167L570.183,441.221L570.846,441.675L571.058,441.886L571.177,442.073L571.205,442.272L571.3,442.473L571.683,442.87L571.904,443.099L572.479,443.393L572.7,443.726L572.913,443.887L573.115,444.061L573.223,444.32L573.472,445.071L573.64,445.465L573.812,445.787L573.88,446.31L574.016,446.544L574.156,446.829L574.388,447.087L574.635,447.283L574.68,447.336L574.164,447.841L573.585,448.407L572.916,449.063L572.187,449.775L571.616,450.339L571.053,450.895L570.395,451.552L569.909,452.037L569.828,452.105L569.687,452.195L569.224,452.197L568.746,452.14L568.306,451.845L567.859,452.074L567.576,452.146L567.407,452.172L567.008,452.209L566.449,452.332L566.196,452.485L566.059,452.606L565.946,452.829L565.889,452.852L565.786,452.826L565.643,452.736L565.344,452.607L565.193,452.323L565.055,452.152L564.94,452.062L564.466,452.345L564.236,452.411L564.048,452.403L563.704,452.244L563.324,452.108L563.128,452.109L562.835,452.279L562.502,452.533L562.331,452.784L562.248,452.933L562.187,452.814L562.131,452.703L562.019,452.561L561.858,452.505L561.712,452.533L561.541,452.561L561.464,452.48L561.448,452.285L561.401,452.105L561.321,451.97L561.075,451.835L560.441,451.561L559.954,451.014L559.709,450.76L559.53,450.596L559.276,450.166L558.987,449.87L558.637,449.732L558.406,449.8L558.168,450.117L557.719,450.415L557.513,450.425L557.249,450.264L556.917,450.149L556.322,450.099L556.076,450.24L555.754,450.468L555.481,450.604L555.312,450.62L555.154,450.565L554.975,450.536L554.82,450.531L554.502,450.323L554.337,450.17L554.227,450.023L554.047,449.923L553.837,449.839L553.687,449.708L553.612,449.544L553.493,449.334L553.339,449.145L552.853,448.805L552.708,448.604L552.606,448.408L552.408,448.192L552.195,447.903L552.127,447.48L552.118,447.139L552.073,446.981L551.983,446.823L551.878,446.689L551.709,446.539L551.313,446.32L550.903,446.066L550.707,445.918L550.334,445.864L550.111,445.719L549.924,445.4L549.849,445.145L549.66,444.946L549.579,444.802L549.534,444.636L549.684,444.131L549.467,443.952L549.144,443.72L548.912,443.466L548.771,443.233L548.356,442.925L547.452,442.464L546.93,442.17L546.645,441.906L546.396,441.647L546.371,441.541L546.532,441.283L546.556,441.07L546.424,440.836L545.882,440.394L545.45,439.908L545.123,439.756L544.335,439.621L544.109,439.567L543.873,439.474L543.64,439.255L543.561,438.996L543.675,438.581L543.602,438.454L543.469,438.419L543.469,438.419L543.505,438.333L543.654,438.131L543.897,438L544.548,437.795L544.584,437.716L544.597,437.457L544.65,437.33L544.874,436.97L544.906,436.827L544.916,436.521L544.946,436.376L545.011,436.273L545.189,436.095L545.251,435.986L545.278,435.751L545.259,435.287L545.35,435.103L545.76,434.681L545.87,434.492L545.907,434.323L545.903,434.151L545.928,433.981L546.05,433.817L546.154,433.766L546.456,433.714L546.662,433.747L548.102,433.458L548.271,433.497L548.346,433.668L548.339,433.942L548.364,434.075L548.441,434.169L548.67,434.299L548.828,434.517L548.913,434.597L549.144,434.746L550.215,435.99L550.517,436.108L550.81,436.065L551.392,435.807L551.683,435.742L553.719,435.815L553.947,435.776L553.961,435.782L554.271,436.406L554.418,436.548L556.651,436.555L556.609,436.377L556.637,436.179L556.898,435.924L557.03,435.797L557.03,435.798L557.086,435.752L557.431,435.569L557.768,435.447L558.416,435.304L558.652,435.078L558.783,434.872L558.787,434.465L558.873,434.398L559.027,434.304L559.776,433.94L559.903,433.863L561.227,434.708L561.969,435.377L562.014,435.41L562.053,435.422L562.092,435.399L562.125,435.368L562.179,435.348L562.215,435.339L562.533,435.33L563.134,435.297L563.332,435.217L564.539,434.022L564.846,433.641L564.923,433.563L565.098,433.292L565.282,432.824L565.319,432.771L566.642,431.649L566.688,431.56L566.701,431.489L566.501,431.111L566.458,430.919L566.45,430.623L566.489,430.163L566.475,429.872L566.47,429.838L566.457,429.793L566.448,429.776L565.71,428.948L567.575,428.94L567.579,428.871L567.577,428.835L567.572,428.802L567.537,428.703L567.516,428.57L567.515,428.534L567.518,428.497L567.528,428.429L567.529,428.392L567.527,428.374L567.524,428.358L567.525,428.343L567.533,428.331L568.873,428.348L568.855,428.583L568.693,429.134L568.696,429.464L568.657,429.842L568.648,429.872L568.611,429.954L568.579,430L568.542,430.045L568.532,430.062L568.52,430.09L568.519,430.131L568.797,432.239L568.786,432.292L568.776,432.326L568.702,432.458L568.683,432.501L568.679,432.534L568.709,432.557L569.326,432.785L569.356,432.799L569.38,432.817L569.602,433.088L570.817,434.085L570.859,434.135L570.985,434.448L570.999,434.496L571.003,434.57L571,434.628L570.969,434.816L570.979,434.9L571,434.956L571.017,435.021L571.017,435.04L571.015,435.057z"/>
                <path id="TZ" style="stroke-width:0.2;fill:lightgrey" data-name="Tanzania" class="land" d="M587.149,484.982l-0.152,0.037l-0.059,-0.036l-0.093,-0.118l0.162,-0.1l0.157,-0.194l0.365,-0.285l0.125,-0.188l0.045,-0.04l-0.026,0.222l-0.206,0.485l-0.176,0.032L587.149,484.982zM586.546,479.917l0.215,0.597l-0.027,0.112l-0.152,0.068l-0.079,0.006l-0.094,-0.096l-0.066,-0.201l-0.115,0.048l-0.196,-0.241l-0.194,-0.012l-0.172,-0.287l0.067,-0.25l-0.039,-0.427l0.209,-0.218l0.118,-0.368l0.136,0.251l0.031,0.392l0.183,0.46l0.153,0.142L586.546,479.917zM587.58,476.364l0.017,0.141l-0.043,0.133l0.009,0.423l-0.017,0.281l-0.16,0.389l-0.131,0.139l-0.117,-0.041l-0.096,-0.064l-0.075,-0.107l0.152,-0.713l-0.078,-0.522l0.301,0.05L587.58,476.364zM562.206,465.456l0.059,0.008h0.294h0.499h0.499h0.499h0.499h0.499h0.499h0.499h0.499h0.499h0.499h0.499h0.499h0.499h0.499h0.499h0.499h0.307h0.214l0.202,0.105l0.225,0.125l0.599,0.332l0.598,0.332l0.598,0.332l0.598,0.332l0.598,0.332l0.599,0.332l0.598,0.332l0.599,0.332l0.598,0.332l0.598,0.332l0.598,0.332l0.598,0.332l0.599,0.332l0.598,0.332l0.598,0.332l0.598,0.332l0.286,0.159l0.043,0.069l0.049,0.303l0.031,0.189l-0.017,0.167l-0.159,0.283l-0.046,0.148l-0.001,0.103l0.039,0.041l0.135,0.015l0.115,0.067l0.042,0.053l0.088,0.213l0.111,0.107l0.253,0.181l0.431,0.309l0.431,0.309l0.431,0.309l0.431,0.309l0.431,0.309l0.431,0.309l0.431,0.309l0.431,0.309l0.209,0.151l0.089,0.042l-0.056,0.235l-0.221,0.571l-0.013,0.238l-0.086,0.28l-0.083,0.185l-0.225,0.804l-0.188,0.301l-0.257,0.705l-0.041,0.54l0.142,0.378l0.052,0.354l0.302,0.348l0.241,0.124l0.163,0.159l0.289,0.363l0.166,0.364l0.519,0.179l0.207,0.409l-0.075,0.281l-0.241,0.233l-0.225,0.377l-0.181,0.496l-0.004,0.759l0.122,-0.115l0.275,0.186l0.035,0.559l-0.283,0.651l-0.087,0.305l-0.014,0.262l0.206,0.781l0.312,0.397L586.5,487.6l-0.081,0.104l0.534,0.704l-0.044,0.613l0.2,0.478l0.087,0.414l0.132,0.318l0.025,0.219l-0.165,0.243l0.389,0.061l0.229,0.199l0.108,0.19l0.281,-0.008l0.152,0.13l0.22,0.108l0.485,0.32l0.131,0.161l0.047,0.093l0.031,0.061l-0.326,0.248l-0.508,0.386l-0.499,0.378l-0.481,0.26l-0.344,0.121l-0.368,0.067l-0.349,0.159l-0.33,0.25l-0.423,0.126l-0.515,0.001l-0.541,0.175l-0.537,0.331l-0.313,0.193l-0.496,-0.291l-0.389,-0.092l-0.447,0.01l-0.272,0.036l-0.098,0.063l-0.085,0.178l-0.072,0.292l-0.293,0.281l-0.514,0.269l-0.474,0.101l-0.434,-0.068l-0.293,-0.112l-0.153,-0.156l-0.225,-0.072l-0.298,0.013l-0.286,0.111l-0.273,0.21l-0.435,0.091l-0.598,-0.028l-0.321,-0.102l-0.044,-0.175l-0.262,-0.205l-0.479,-0.235l-0.354,-0.005l-0.227,0.226l-0.207,0.142l-0.187,0.058l-0.168,0.007l-0.149,-0.043l-0.093,-0.018l-0.661,-0.024l-0.626,0.009l-0.02,-0.098l-0.043,-0.229l-0.13,-0.199l-0.112,-0.119l-0.14,-0.031l-0.076,0.002l-0.061,-0.092l-0.072,-0.203l-0.106,-0.172l-0.141,-0.143l-0.085,-0.133l-0.029,-0.122l0.022,-0.134l0.131,-0.333l0.042,-0.229l-0.015,-0.234l-0.071,-0.24l-0.148,-0.285l0.017,-0.082l-0.05,-0.194l-0.005,-0.136l0.029,-0.17l-0.028,-0.223l-0.128,-0.476v-0.122l-0.135,-0.23l-0.416,-0.544l-0.02,-0.071l-0.652,-0.548l-0.261,-0.12l-0.094,0.103l-0.035,0.095l0.027,0.176l-0.016,0.087l-0.027,0.04l-0.155,-0.006l-0.097,-0.02l-0.247,-0.147l-0.192,-0.036l-0.478,0.026l-0.167,0.035l-0.131,-0.033l-0.253,-0.251l-0.296,-0.053l-0.266,-0.013l-0.439,-0.285l-0.103,0.013l-0.049,0.022l-0.159,-0.075l-0.299,-0.166l-0.416,-0.146l-0.34,-0.163l-0.152,-0.159l-0.319,-0.061l-0.276,-0.026l-0.256,-0.148l-0.265,-0.017l-0.26,-0.038l-0.058,-0.097l-0.009,-0.218l-0.091,-0.057l-0.191,-0.056l-0.206,0.003l-0.125,0.031l-0.074,-0.016l-0.171,-0.128l-0.159,-0.163l-0.06,-0.26l-0.24,-0.167l-0.277,-0.132l-0.77,0.014l-0.121,-0.04l-0.183,-0.132l-0.214,-0.218l-0.172,-0.249l-0.151,-0.337l-0.072,-0.204l-0.085,-0.251l-0.188,-0.376l-0.266,-0.532l-0.206,-0.436l-0.221,-0.468l-0.09,-0.343l-0.172,-0.379l-0.282,-0.466l-0.143,-0.182l-0.156,-0.163l-0.405,-0.314l-0.459,-0.312l-0.249,-0.21l-0.334,-0.625l-0.14,-0.226l-0.097,-0.397l-0.073,-0.412l0.03,-0.167l0.296,-0.531l0.03,-0.149l-0.036,-0.201l-0.146,-0.423l-0.109,-0.276l-0.076,-0.236l-0.158,-0.393l-0.217,-0.541l-0.055,-0.236l0.007,-0.177l0.117,-0.467l0.103,-0.481l-0.003,-0.132l0.883,0.018l0.145,-0.105l0.499,-0.31l0.561,-0.621l0.112,-0.258l0.229,-0.398l0.224,-0.197l0.086,-0.137l0.059,-0.215l0.07,-0.182l0.294,-0.269l0.286,-0.207l-0.021,-0.083l-0.038,-0.062l0.042,-0.053l0.156,-0.106l0.304,-0.097l0.06,-0.207l-0.001,-0.235l-0.049,-0.131l0.009,-0.151l-0.047,-0.084l-0.199,-0.021l-0.295,-0.117l-0.25,-0.049l-0.167,-0.068l-0.062,-0.052l-0.027,-0.141l0.049,-0.154l0.025,-0.044l0.064,-0.165l-0.109,-0.099l-0.028,-0.048l0.05,-0.079l0.257,-0.522l0.056,-0.073l0.112,-0.009l0.177,-0.064l0.164,-0.029l0.134,0.022l0.099,-0.025l0.087,-0.067l0.074,-0.204l0.061,-0.34l-0.034,-0.277l-0.128,-0.214l-0.035,-0.326l0.059,-0.438l-0.042,-0.364l-0.142,-0.291l-0.145,-0.173l-0.221,-0.082l-0.348,-0.444l-0.106,-0.215l0.019,-0.134l0.092,-0.043l0.028,-0.013l0.222,0.02l0.208,-0.051l0.194,-0.122l0.188,-0.035L562.206,465.456z"/>
                <path id="UG" style="stroke-width:0.2;fill:lightgrey" data-name="Uganda" class="land" d="M570.849,465.464L570.542,465.464L570.043,465.464L569.544,465.464L569.045,465.464L568.546,465.464L568.048,465.464L567.549,465.464L567.05,465.464L566.551,465.464L566.052,465.464L565.553,465.464L565.054,465.464L564.555,465.464L564.057,465.464L563.558,465.464L563.059,465.464L562.56,465.464L562.265,465.464L562.206,465.456L562.165,465.444L561.977,465.479L561.782,465.602L561.575,465.652L561.353,465.633L561.325,465.646L561.213,465.643L561.051,465.634L560.905,465.666L560.794,465.773L560.68,465.957L560.475,466.167L560.315,466.354L560.179,466.486L559.868,466.705L559.698,466.769L559.614,466.759L559.562,466.718L559.464,466.439L559.404,466.394L558.799,466.538L558.707,466.54L558.715,466.453L558.67,465.797L558.665,465.395L558.744,465.144L558.79,464.854L558.795,464.598L558.906,464.163L558.865,463.902L559.008,462.987L559.046,462.838L559.102,462.396L559.191,462.26L559.271,462.207L559.374,461.936L559.573,461.502L559.71,461.279L559.68,460.792L559.703,460.46L559.734,460.387L560.027,460.263L560.407,459.957L560.568,459.596L560.795,459.366L561.235,459.217L561.236,459.216L562.54,457.979L563.146,457.312L563.41,456.97L563.419,456.847L563.47,456.686L563.364,456.56L563.238,456.446L563.195,456.34L563.087,456.288L562.931,456.29L562.828,456.213L562.711,456.063L562.594,455.969L562.224,455.977L561.939,455.823L561.943,455.614L562.054,455.202L562.27,454.73L562.282,454.6L562.251,454.489L562.199,454.394L562.102,454.3L562.01,454.187L562.081,453.847L562.217,453.515L562.329,453.348L562.438,453.162L562.407,453.009L562.248,452.933L562.331,452.784L562.502,452.533L562.835,452.279L563.128,452.109L563.324,452.108L563.704,452.244L564.048,452.403L564.236,452.411L564.466,452.345L564.94,452.062L565.055,452.152L565.193,452.323L565.344,452.607L565.643,452.736L565.786,452.826L565.889,452.852L565.946,452.829L566.059,452.606L566.196,452.485L566.449,452.332L567.008,452.209L567.407,452.172L567.576,452.146L567.859,452.074L568.306,451.845L568.746,452.14L569.224,452.197L569.687,452.195L569.828,452.105L569.909,452.037L570.395,451.552L571.053,450.895L571.491,451.82L571.642,451.875L571.62,451.955L571.583,452.033L571.87,452.256L572.223,452.373L572.349,452.487L572.36,452.61L572.241,453.151L572.263,453.305L572.377,453.847L572.587,453.968L572.773,454.514L573.15,454.745L573.204,454.811L573.291,455.075L573.406,455.365L573.496,455.432L573.551,455.449L573.662,455.755L573.598,455.928L573.685,456.452L573.826,456.92L573.864,457.479L573.865,457.725L573.86,457.876L573.829,458.088L573.762,458.211L573.642,458.331L573.508,458.519L573.392,458.721L573.319,458.82L573.376,459.122L573.361,459.201L573.331,459.239L573.16,459.285L572.942,459.366L572.81,459.446L572.622,459.6L572.472,459.765L572.273,460.252L571.941,460.632L571.885,460.757L571.572,460.983L571.434,461.262L571.346,461.604L571.225,461.849L570.96,462.186L570.9,462.718L570.908,463.779L570.839,464.989z"/>
                <path id="ZM" style="stroke-width:0.2;fill:lightgrey" data-name="Zambia" class="land" d="M568.089,489.016L568.099,489.091L568.176,489.233L568.257,489.335L568.264,489.485L568.302,489.625L568.42,489.659L568.517,489.668L568.607,489.568L568.729,489.57L568.863,489.634L568.911,489.795L569.016,490.011L569.185,490.159L569.299,490.302L569.26,490.562L569.188,490.799L569.418,491.034L569.717,491.257L569.798,491.356L569.822,491.688L569.868,491.8L570.071,492.076L570.17,492.259L570.163,492.365L569.618,492.912L569.445,492.965L569.281,492.996L569.135,493.108L569.047,493.225L569.079,493.287L569.137,493.474L569.264,493.77L569.379,493.977L569.283,494.236L569.067,494.676L568.967,494.715L568.949,495.048L569.015,495.17L569.123,495.266L569.167,495.492L569.17,495.804L569.158,496.055L569.022,496.694L569.268,497.253L569.352,497.314L569.693,497.318L569.751,497.365L569.67,497.524L569.522,497.688L569.431,497.771L568.997,497.962L568.374,498.173L568.244,498.375L568.161,498.67L568.231,498.843L568.313,498.942L568.287,499.199L568.232,499.471L568.251,499.685L568.223,499.874L568.141,499.967L568.032,500.252L567.898,500.539L567.792,500.67L567.636,500.807L567.389,500.921L567.393,500.979L567.673,501.111L567.745,501.203L567.771,501.266L567.711,501.326L567.654,501.411L567.783,501.499L567.941,501.573L568.09,501.764L568.223,502.031L568.261,502.125L568.292,502.162L568.34,502.166L568.433,502.126L568.604,501.98L568.729,501.928L568.88,502.136L568.277,502.342L567.961,502.45L567.06,502.758L566.273,503.027L566.068,503.078L565.66,503.209L565.457,503.29L564.746,503.525L564.449,503.642L564.21,503.759L563.623,503.933L563.068,504.097L562.462,504.267L561.784,504.456L561.403,504.593L561.146,504.711L560.545,504.951L560.517,505.009L560.525,505.172L560.602,505.508L560.752,505.813L560.878,505.989L560.96,506.441L561.006,506.838L560.598,506.839L559.88,506.841L559.135,506.842L558.455,506.994L557.896,507.225L557.229,507.586L557.012,507.728L556.844,507.837L556.738,507.978L556.686,508.286L556.686,508.762L556.618,509.104L556.416,509.419L556.416,509.418L555.403,509.799L554.741,510.11L554.091,510.479L553.598,510.958L553.262,511.547L552.704,512.277L552.136,512.91L551.533,513.584L550.857,513.828L550.289,513.773L549.604,513.5L549.06,513.448L548.657,513.618L548.285,513.565L547.943,513.291L547.657,513.191L547.425,513.265L547.129,513.252L546.588,513.102L546.12,512.635L545.867,512.443L545.672,512.369L545.112,512.294L543.827,512.187L543.693,512.211L543.159,512.303L542.492,512.418L541.918,512.533L541.317,512.653L540.758,512.167L540.125,511.616L539.468,511.001L538.975,510.52L538.731,510.243L538.298,509.877L537.986,509.698L537.865,509.608L537.555,508.636L537.386,507.744L537.386,507.073L537.385,506.144L537.385,505.216L537.385,504.29L537.384,503.365L537.384,502.441L537.384,501.52L537.383,500.599L537.383,499.679L537.383,499.232L538.03,499.232L538.764,499.232L539.531,499.232L540.365,499.232L541.199,499.232L542.033,499.232L542.615,499.232L542.768,499.225L542.952,499.197L542.965,499.106L542.725,498.655L542.737,498.495L542.801,498.189L542.9,497.925L543.031,497.578L543.045,497.374L542.94,496.709L542.95,496.339L542.98,495.954L543.01,495.59L542.974,495.336L543.018,495.198L543.097,495L543.138,494.776L543.187,494.68L543.171,494.591L543.127,494.425L543.083,494.053L543.022,493.536L542.961,493.164L543.063,493.185L543.275,493.22L543.378,493.402L543.438,493.602L543.581,493.613L543.953,493.731L544.082,493.896L544.167,494.253L544.116,494.436L543.996,494.583L544.116,494.713L544.365,494.8L544.511,494.774L544.931,494.531L545.099,494.488L545.318,494.44L545.516,494.378L546.075,494.267L546.38,494.218L546.552,494.131L546.672,494.131L546.758,494.201L546.681,494.453L546.655,494.679L546.762,495.102L546.842,495.299L547.022,495.443L547.153,495.518L547.298,495.671L547.599,495.645L548.261,495.861L548.462,495.961L548.741,496.061L548.939,496.098L549.622,496.174L549.874,496.225L550.342,496.293L550.716,496.305L550.981,496.274L551.167,496.212L551.281,496.144L551.333,496.085L551.41,495.874L551.549,495.416L551.604,495.279L551.742,495.216L551.921,495.175L552.026,495.248L552.143,495.756L552.664,496.215L552.842,496.601L552.972,496.931L553.085,497.021L553.283,497.134L553.599,497.174L553.881,497.186L554.475,497.424L554.947,497.613L555.285,497.749L555.44,497.852L555.548,498.021L555.612,498.152L555.716,498.492L555.827,498.761L556.008,498.812L556.17,498.833L556.33,499.017L556.451,499.178L556.691,499.572L556.868,499.844L556.926,500.109L557.127,500.286L557.401,500.361L557.654,500.371L557.8,500.292L558.159,500.154L558.439,499.997L558.643,499.942L558.764,499.976L558.856,500.085L558.905,500.298L558.917,500.417L559.116,500.53L559.263,500.485L559.32,500.354L559.323,500.289L559.322,499.709L559.322,499.207L559.321,498.735L559.321,498.16L559.32,497.659L559.32,497.247L559.319,496.817L559.191,496.841L559.03,496.939L558.659,496.951L558.514,497.024L558.469,497.135L558.497,497.279L558.505,497.475L558.45,497.567L558.288,497.604L558.052,497.528L557.625,497.43L557.269,497.369L557.013,497.109L556.667,496.717L556.44,496.52L555.894,496.111L555.801,496.029L555.635,495.838L555.493,495.514L555.423,495.299L555.357,495.139L555.284,494.901L555.416,494.535L555.601,493.839L555.735,493.338L555.809,492.967L556.074,492.589L556.093,492.251L555.986,491.818L556.013,491.579L556.031,490.972L556.046,490.462L556.05,490.214L555.977,489.783L555.798,489.306L555.404,488.642L555.406,488.5L555.64,488.343L556.011,488.069L556.193,487.906L556.411,487.675L556.508,487.557L556.722,487.261L556.857,487.02L556.904,486.709L556.802,486.413L557.01,486.355L557.693,486.251L558.445,486.136L559.238,486.014L560.038,485.892L560.813,485.773L561.516,485.666L562.002,485.591L562.074,485.794L562.226,486.132L562.397,486.38L562.612,486.598L562.794,486.73L562.915,486.77L563.685,486.756L563.961,486.888L564.202,487.056L564.262,487.316L564.42,487.479L564.591,487.607L564.665,487.623L564.791,487.592L564.997,487.589L565.188,487.645L565.279,487.702L565.288,487.92L565.346,488.017L565.606,488.055L565.871,488.072L566.127,488.22L566.403,488.246L566.723,488.307L566.875,488.466L567.214,488.629L567.63,488.775L567.93,488.94z"/>
                <path id="ZW" style="stroke-width:0.2;fill:lightgrey" data-name="Zimbabwe" class="land" d="M563.508,526.797L563.254,526.625L562.907,526.513L562.465,526.461L561.892,526.482L561.186,526.577L560.429,526.462L559.62,526.14L558.949,526.026L558.147,526.166L558.111,526.169L557.973,526.06L557.753,525.825L557.388,525.783L557.289,525.729L557.207,525.641L557.153,525.529L557.132,525.404L557.192,525.018L557.159,524.975L557.062,524.928L556.861,524.882L556.38,524.707L555.774,524.537L554.791,524.351L554.409,524.303L554.32,524.246L554.21,524.104L554.021,523.661L553.844,523.369L553.421,522.918L553.354,522.779L553.375,522.421L553.406,522.133L553.451,521.889L553.431,521.66L553.425,521.376L553.438,521.186L553.381,521.104L553.228,521.046L552.791,521.02L552.263,521.031L552.246,520.743L552.195,520.297L552.097,520.041L551.975,519.908L551.732,519.769L551.241,519.579L550.572,519.29L550,518.862L549.345,518.331L549.14,518.239L548.898,517.741L548.53,516.889L548.554,516.606L548.498,516.467L548.14,516.05L548.061,515.833L547.998,515.614L547.429,515.004L547.235,514.738L547.087,514.396L546.94,514.123L546.816,514.013L546.654,513.828L546.542,513.616L546.49,513.458L546.533,513.247L546.588,513.102L547.129,513.252L547.425,513.265L547.657,513.191L547.943,513.291L548.285,513.565L548.657,513.618L549.06,513.448L549.604,513.5L550.289,513.773L550.857,513.828L551.533,513.584L552.136,512.91L552.704,512.277L553.262,511.547L553.598,510.958L554.091,510.479L554.741,510.11L555.403,509.799L556.416,509.418L556.416,509.419L556.618,509.104L556.686,508.762L556.686,508.286L556.738,507.978L556.844,507.837L557.012,507.728L557.229,507.586L557.896,507.225L558.455,506.994L559.135,506.842L559.88,506.841L560.598,506.839L561.006,506.838L561.012,507.295L561.043,507.81L561.123,507.859L561.663,507.87L562.529,507.907L563.364,507.941L563.897,508.315L564.076,508.395L564.63,508.495L565.338,509.118L566.19,509.176L566.776,509.371L567.292,509.585L567.589,509.842L567.781,509.9L568.041,509.919L568.167,509.943L568.14,510.128L567.966,510.442L567.989,510.892L568.228,511.516L568.26,512.06L568.187,513.019L568.189,513.95L568.214,514.283L568.253,514.503L568.304,514.624L568.294,514.762L568.152,515.154L568.038,515.566L568.034,515.731L567.99,515.848L567.905,515.951L567.533,516.142L567.47,516.26L567.471,516.474L567.518,516.654L567.658,516.72L567.826,516.822L567.892,516.956L567.893,517.098L567.839,517.361L567.689,517.796L567.839,518.298L568.006,518.624L568.237,519L568.333,519.233L568.328,519.4L568.293,519.563L567.948,520.253L567.699,520.683L567.395,521.143L566.993,521.432L566.889,521.571L566.848,521.729L566.862,522.075L566.844,522.438L566.5,522.995L566.713,523.475L566.665,523.52L566.549,523.588L566.054,524.129L565.553,524.678L565.187,525.079L564.771,525.535L564.305,526.047L563.906,526.486Z"/>

                </svg>
