<svg
                        xmlns:dc="http://purl.org/dc/elements/1.1/"
                        xmlns:cc="http://creativecommons.org/ns#"
                        xmlns:rdf="http://www.w3.org/1999/02/22-rdf-syntax-ns#"
                        xmlns:svg="http://www.w3.org/2000/svg"
                        xmlns="http://www.w3.org/2000/svg"
                        xmlns:sodipodi="http://sodipodi.sourceforge.net/DTD/sodipodi-0.dtd"
                        xmlns:inkscape="http://www.inkscape.org/namespaces/inkscape"
                        enable_background="new 0 0 1200 589"
                        height="700"
                        width="2000"
                        viewBox="460 350 100 100"
                        id="us-map"
                        preserveAspectRatio="xMidYMid meet"
                        inkscape:version="0.48.4 r9939"
                        sodipodi:docname="us.svg">
                    <sodipodi:namedview
                            pagecolor="#ffffff"
                            bordercolor="#666666"
                            borderopacity="1"
                            objecttolerance="10"
                            gridtolerance="10"
                            guidetolerance="10"
                            inkscape:pageopacity="0"
                            inkscape:pageshadow="2"
                            inkscape:window-width="1920"
                            inkscape:window-height="1137"
                            id="namedview69"
                            showgrid="false"
                            inkscape:zoom="0.80893016"
                            inkscape:cx="817.66365"
                            inkscape:cy="409.3738"
                            inkscape:window-x="1192"
                            inkscape:window-y="118"
                            inkscape:window-maximized="1"
                            inkscape:current-layer="svg2"/>
                    <defs
                            id="defs4">
                        <style
                                type="text/css"
                                id="style6">path {
                            fill-rule: evenodd;
                        }</style>
                    </defs>
                    <metadata
                            id="metadata8">
                        <views
                                id="views10">
                            <view
                                    h="589.235294118"
                                    padding="0"
                                    w="1000"
                                    id="view12">
                                <proj
                                        id="laea-usa"
                                        lat0="45"
                                        lon0="-100"/>
                                <bbox
                                        h="321.97"
                                        w="589.33"
                                        x="690.09"
                                        y="918.69"
                                        id="bbox15"/>
                            </view>
                        </views>
                        <rdf:RDF>
                            <cc:Work
                                    rdf:about="">
                                <dc:format>image/svg+xml</dc:format>
                                <dc:type
                                        rdf:resource="http://purl.org/dc/dcmitype/StillImage"/>
                                <dc:title/>
                            </cc:Work>
                        </rdf:RDF>
                    </metadata>
                        <path id="DZ" style="stroke-width:0.2;fill:lightgrey" data-name="Algeria" class="land" d="M499.77,351.624L499.829,351.81L499.839,351.984L499.573,352.146L499.398,352.24L499.188,352.687L498.799,352.99L498.734,353.082L498.737,353.165L499.001,353.302L499.089,353.432L499.13,353.606L499.012,354.228L498.938,354.704L498.841,355.327L498.845,355.564L498.945,355.848L499.044,356.069L499.075,356.319L499.04,356.934L499.161,357.289L499.258,357.616L499.027,358.023L498.928,358.382L498.866,358.895L498.841,359.218L498.692,359.516L498.498,359.795L498.279,359.969L498.009,360.119L497.698,360.316L497.446,360.843L496.901,361.281L496.787,361.431L496.736,361.781L496.749,362.266L496.845,362.651L497.106,363.219L497.335,363.843L497.397,364.156L497.485,364.275L497.807,364.479L498.364,364.755L498.467,364.868L498.743,365.296L499.005,366.062L499.087,366.568L499.597,366.97L500.068,367.34L500.52,367.665L501.011,368.017L501.082,368.125L501.245,368.87L501.408,369.608L501.586,370.419L501.766,371.231L501.978,372.184L502.098,372.723L502.243,373.376L502.414,374.14L502.139,374.302L501.829,374.509L502.055,374.901L502.491,375.538L502.754,376.051L502.846,376.274L503.051,376.909L503.218,377.523L503.261,377.722L503.322,378.194L503.247,379.49L503.367,381.129L503.529,381.943L503.274,382.676L503.056,383.375L503.07,383.726L503.19,384.273L503.308,384.677L503.468,384.889L503.437,385.568L503.37,385.814L502.88,386.169L502.337,386.494L502.187,386.769L502.144,387.075L502.216,387.324L502.589,387.874L503.15,388.697L503.767,389.601L503.818,389.828L503.843,390.468L504.1,391.271L504.378,391.621L504.482,391.882L504.679,392.069L504.875,392.206L504.997,392.222L505.69,392.004L506.875,392.364L507.996,392.73L508.078,392.802L508.323,393.265L508.724,394.02L509.021,394.623L509.287,395.162L507.834,396.09L506.38,397.016L504.927,397.94L503.474,398.861L502.021,399.781L500.567,400.699L499.114,401.615L497.661,402.528L496.697,403.133L496.084,403.667L495.315,404.334L494.589,404.996L494.018,405.517L493.278,406.189L492.905,406.528L492.08,407.277L491.832,407.41L490.739,407.631L489.736,407.833L488.81,408.02L488.177,408.148L487.564,408.271L486.673,408.445L486.037,408.57L485.351,408.704L485.244,408.727L485.12,408.732L485.027,408.727L484.837,408.653L484.608,408.478L484.455,408.388L484.417,408.25L484.506,408.066L484.617,407.901L484.659,407.771L484.735,407.672L484.833,407.592L484.837,407.479L484.756,407.293L484.685,407.036L484.688,406.569L484.69,406.413L484.69,406.357L484.485,406.178L484.098,405.98L483.742,405.864L483.58,405.824L483.187,405.754L482.644,405.629L482.453,405.543L482.101,405.108L481.928,404.997L481.113,404.923L480.842,404.851L480.62,404.748L480.43,404.608L480.323,404.369L480.291,404.174L480.22,404.081L479.321,403.609L479.092,403.449L478.971,403.3L478.967,403.079L478.991,402.808L478.953,402.567L478.915,402.449L478.504,402.163L477.585,401.521L476.666,400.879L475.747,400.236L474.828,399.592L473.909,398.947L472.99,398.301L472.071,397.654L471.152,397.006L470.233,396.356L469.313,395.707L468.395,395.055L467.476,394.403L466.557,393.75L465.637,393.095L464.718,392.439L463.799,391.782L463.022,391.227L462.165,390.639L461.528,390.208L460.896,389.778L460.216,389.317L459.774,389.031L459.247,388.689L458.719,388.346L458.191,388.003L457.663,387.66L457.135,387.317L456.607,386.973L456.08,386.629L455.552,386.284L455.024,385.939L454.497,385.594L453.969,385.249L453.441,384.903L452.913,384.557L452.385,384.21L451.857,383.863L451.33,383.516L451.33,382.874L451.33,382.351L451.33,381.581L451.33,380.911L451.33,380.241L451.33,379.779L451.33,379.297L451.344,379.079L451.396,378.986L451.681,378.829L452.127,378.471L452.292,378.312L452.503,378.151L453.25,377.666L453.405,377.53L454.131,376.971L454.301,376.889L454.691,376.834L454.854,376.729L455.073,376.505L455.395,376.249L455.604,376.127L455.654,376.105L455.788,376.087L456.459,376.163L456.741,376.22L457.078,376.268L457.183,376.235L457.273,376.155L457.4,375.976L457.427,375.763L457.435,375.577L457.455,375.496L457.514,375.459L457.661,375.473L457.857,375.498L458.258,375.49L458.394,375.464L458.849,375.424L459.492,375.303L460.002,375.145L460.408,375.02L460.843,374.691L461.162,374.344L461.493,373.826L461.756,373.376L462.289,373.095L462.734,372.924L462.989,372.857L463.567,372.619L464.056,372.259L464.515,371.921L464.866,371.876L465.31,371.82L465.409,371.757L465.521,371.637L465.527,371.425L465.393,371.276L465.231,371.198L465.116,371.112L465.002,371.096L464.941,370.994L464.975,370.806L464.992,370.632L465.065,370.458L465.045,370.212L464.931,369.966L464.896,369.789L464.904,369.613L464.96,369.476L465.124,369.385L465.315,369.35L465.583,369.394L466.046,369.335L467.231,368.909L467.313,368.778L467.389,368.483L467.474,368.224L467.597,368.137L467.664,368.118L468.059,368.048L468.618,367.95L468.828,367.936L469.438,367.964L469.882,367.985L470.6,368.019L471.11,368.036L471.554,368.051L472.12,368.071L472.259,368.011L472.259,367.822L472.157,367.47L472.219,367.25L472.437,367.046L472.709,366.818L472.582,366.54L472.365,366.354L472.062,366.13L471.905,366.039L471.63,365.768L471.462,365.459L471.348,364.807L471.139,364.441L470.987,363.989L471.122,363.158L470.92,362.655L470.889,362.437L470.887,362.18L470.949,361.735L470.909,361.108L470.671,360.46L470.783,360.239L470.835,360.124L470.818,360.025L470.601,359.819L470.509,359.648L470.557,359.488L470.67,359.255L470.66,359.157L470.309,358.873L469.717,358.412L469.551,358.21L469.47,357.957L470.037,358.022L470.33,357.991L471.002,357.687L471.536,357.276L471.951,357.067L472.316,356.616L472.647,356.331L473.125,356.023L474.504,355.358L474.715,355.353L475.169,355.504L475.564,355.457L475.834,355.224L476.125,354.662L476.576,354.319L477.145,353.975L477.919,353.646L478.426,353.343L479.228,353.08L481.241,352.913L482.275,352.764L482.978,352.798L483.688,352.316L484.043,352.157L485.58,352.12L486.305,351.767L489.053,351.767L489.389,351.885L489.719,352.075L490.281,352.532L490.561,352.632L490.924,352.537L491.768,352.104L492.72,351.878L493.238,351.62L493.458,351.243L493.904,351.104L494.155,351.394L495.142,351.686L495.748,351.602L496.014,351.514L495.918,351.081L496.559,351.196L497.051,351.405L497.566,351.823L497.9,351.906L498.508,351.718z"/>
                        <path id="EG" style="stroke-width:0.2;fill:lightgrey" data-name="Egypt" class="land" d="M571.676,370.587L571.717,370.686L571.809,370.96L572.042,371.656L572.246,372.2L572.495,372.952L572.573,373.24L572.606,373.439L572.968,374.263L573.183,374.938L573.34,375.486L573.562,376.284L573.658,376.562L573.501,376.707L573.187,377.224L572.852,378.861L572.373,380.134L572.319,380.929L572.242,381.215L572.014,381.617L571.738,382.01L571.247,381.807L570.447,381.115L569.981,380.457L569.481,380.031L569.009,379.466L568.88,379.059L568.885,378.797L568.679,378.158L568.526,377.855L567.95,377.174L567.785,376.81L567.659,376.649L567.532,376.419L567.323,375.53L567.095,374.964L566.835,375.121L566.881,375.359L566.654,375.688L566.517,376.069L566.622,376.38L567.093,376.853L567.188,377.06L567.298,377.507L567.28,378.114L567.356,378.319L567.709,378.769L567.835,379.036L567.911,379.266L568.028,379.474L568.378,379.864L568.881,380.606L569.358,381.106L569.703,381.347L569.849,381.588L569.882,382.209L569.856,382.505L570.159,383.062L570.271,383.343L570.563,383.572L570.697,383.833L570.82,384.258L571.005,385.511L571.259,385.818L572.044,387.457L572.706,388.49L573.026,389.26L573.515,390.194L574.472,392.238L575.041,392.866L575.268,393.219L575.68,393.49L576.126,393.882L575.701,393.844L575.593,393.867L575.444,393.934L575.373,394.172L575.342,394.366L575.394,395.391L575.511,395.913L575.885,396.898L576.164,397.193L576.3,397.384L576.49,397.523L577.377,397.859L577.896,398.567L579.062,399.461L579.176,399.708L579.179,399.765L578.258,399.766L577.337,399.766L576.416,399.766L575.495,399.766L574.575,399.766L573.653,399.767L572.733,399.767L571.812,399.767L570.891,399.767L569.97,399.767L569.049,399.767L568.129,399.767L567.208,399.768L566.287,399.768L565.366,399.768L564.445,399.768L563.92,399.768L564.01,399.5L564.065,399.311L564.003,399.179L563.824,399.146L563.707,399.188L563.432,399.749L563.288,399.771L562.961,399.771L561.889,399.771L560.816,399.771L559.744,399.771L558.672,399.77L557.6,399.77L556.528,399.77L555.456,399.77L554.384,399.77L553.312,399.769L552.239,399.769L551.167,399.769L550.095,399.769L549.023,399.769L547.951,399.769L546.878,399.768L545.806,399.768L545.806,399.092L545.806,398.414L545.806,397.735L545.806,397.056L545.806,396.375L545.806,395.693L545.806,395.01L545.806,394.326L545.806,393.64L545.806,392.954L545.806,392.266L545.806,391.576L545.806,390.886L545.806,390.194L545.806,389.501L545.806,388.807L545.806,388.111L545.806,387.414L545.806,386.716L545.806,386.017L545.806,385.315L545.806,384.613L545.806,383.909L545.806,383.204L545.806,382.497L545.806,381.789L545.806,381.079L545.806,380.368L545.806,379.655L545.806,378.941L545.806,378.225L545.806,377.508L545.782,377.374L545.626,376.885L545.485,376.263L545.331,375.497L545.311,375.248L545.053,374.456L545.029,374.231L545.094,374.071L545.518,373.402L545.646,373.076L545.753,372.685L545.789,372.367L545.664,371.879L545.518,371.44L545.469,370.99L545.448,370.547L545.665,370.244L545.925,369.96L546.022,369.786L546.176,369.59L546.284,369.498L546.495,369.896L546.935,369.964L548.369,369.61L549.952,369.967L550.825,370.103L552.171,370.406L552.99,370.946L553.215,371.014L553.804,371.003L554.19,371.322L555.726,371.475L556.546,371.826L557.011,372.106L557.29,372.192L557.537,372.178L557.87,372.073L558.291,371.876L558.748,371.602L559.697,370.897L560.033,370.773L560.252,370.806L560.519,370.796L560.63,370.605L560.771,370.474L560.859,370.325L561.003,370.145L561.497,370.095L562.486,369.787L562.375,369.933L561.474,370.278L561.86,370.321L562.255,370.203L562.706,370.128L562.788,369.981L562.847,369.706L562.933,369.667L563.245,369.719L564.172,370.143L564.403,370.151L565.056,369.92L565.195,369.871L565.407,369.999L565.889,370.526L565.721,370.515L565.205,370.063L565.159,370.289L564.865,370.685L565.232,370.856L565.531,370.92L565.691,371.141L565.792,371.337L566.087,371.251L566.298,370.984L566.188,370.835L566.114,370.681L566.21,370.677L566.415,370.804L567.002,371.311L567.2,371.416L567.428,371.398L567.905,371.256L568.038,371.278L568.678,371.091L568.753,371.228L568.859,371.364L569.375,371.212L570.184,371.214L570.847,371.049L571.615,370.647z"/>
                        <path id="EH" style="stroke-width:0.2;fill:lightgrey" data-name="Western Sahara" class="land" d="M451.33,383.516L451.331,384.039L451.331,384.66L451.332,385.279L451.333,385.983L451.333,386.683L451.333,387.192L451.333,387.546L450.762,387.546L450.239,387.546L449.716,387.546L449.194,387.546L448.671,387.546L448.148,387.546L447.625,387.546L447.102,387.546L446.579,387.546L446.056,387.546L445.533,387.546L445.01,387.546L444.487,387.546L443.964,387.546L443.441,387.546L442.919,387.546L442.396,387.546L441.976,387.546L441.976,387.917L441.976,388.338L441.976,388.76L441.976,389.181L441.976,389.602L441.976,390.022L441.976,390.442L441.976,390.861L441.976,391.28L441.976,391.698L441.976,392.116L441.976,392.534L441.976,392.95L441.976,393.367L441.976,393.783L441.976,394.199L441.976,394.614L441.976,394.984L441.956,395.315L441.788,395.413L441.387,395.589L440.975,395.77L440.452,395.853L440.28,395.912L439.946,396.15L439.507,396.463L439.127,396.734L438.876,397.086L438.785,397.279L438.748,397.482L438.777,397.676L438.914,398.064L438.951,398.26L438.972,398.601L438.995,398.971L439.02,399.37L439.045,399.769L439.071,400.192L439.098,400.616L439.125,401.041L439.145,401.357L439.17,401.755L438.745,401.756L438.102,401.756L437.458,401.757L436.814,401.758L436.171,401.759L435.528,401.76L434.884,401.761L434.24,401.761L433.597,401.762L432.953,401.763L432.31,401.764L431.667,401.765L431.023,401.766L430.379,401.767L429.736,401.767L429.092,401.768L428.449,401.769L428.089,401.77L427.973,402.329L427.87,402.73L427.81,403.057L427.854,403.333L427.712,403.182L427.962,401.626L427.98,401.495L428.184,400.056L428.569,399.274L428.876,398.929L429.352,398.75L429.789,397.962L429.942,397.235L430.229,396.9L430.319,396.638L430.206,396.438L430.477,396.045L430.805,395.443L430.957,395.056L431.34,394.457L431.387,394.324L431.353,394.174L431.202,394.301L431.041,394.523L430.85,394.698L430.928,394.483L431.078,394.167L431.419,393.835L431.957,393.47L433.073,392.227L433.493,392.012L433.871,391.487L434.006,391.02L434.043,389.946L434.178,389.378L434.424,388.935L434.718,388.126L434.942,387.765L435.088,387.025L435.247,386.744L435.532,386.609L435.936,386.24L436.543,386.011L437.262,385.53L437.599,385.242L437.824,384.812L438.065,383.954L438.496,383.049L438.717,382.365L450.951,382.351L450.953,382.352L450.953,382.351L451.33,382.351L451.33,382.874z"/>
                        <path id="LY" style="stroke-width:0.2;fill:lightgrey" data-name="Libya" class="land" d="M546.284,369.498L546.176,369.59L546.022,369.786L545.925,369.96L545.665,370.244L545.448,370.547L545.469,370.99L545.518,371.44L545.664,371.879L545.789,372.367L545.753,372.685L545.646,373.076L545.518,373.402L545.094,374.071L545.029,374.231L545.053,374.456L545.311,375.248L545.331,375.497L545.485,376.263L545.626,376.885L545.782,377.374L545.806,377.508L545.806,378.225L545.806,378.941L545.806,379.655L545.806,380.368L545.806,381.079L545.806,381.789L545.806,382.497L545.806,383.204L545.806,383.909L545.806,384.613L545.806,385.315L545.806,386.017L545.806,386.716L545.806,387.414L545.806,388.111L545.806,388.807L545.806,389.501L545.806,390.194L545.806,390.886L545.806,391.576L545.806,392.266L545.806,392.954L545.806,393.64L545.806,394.326L545.806,395.01L545.806,395.693L545.806,396.375L545.806,397.056L545.806,397.735L545.806,398.414L545.806,399.092L545.806,399.768L545.806,401.265L545.805,402.757L545.805,404.244L545.804,405.726L545.795,405.73L545.787,405.736L545.778,405.741L545.769,405.747L545.077,405.746L544.385,405.746L543.692,405.746L543,405.745L543,406.116L543,406.486L543,406.855L543,407.225L541.655,406.524L540.311,405.823L538.966,405.12L537.622,404.416L536.277,403.711L534.933,403.005L533.588,402.298L532.244,401.59L530.899,400.88L529.555,400.169L528.21,399.458L526.866,398.745L525.521,398.03L524.177,397.314L522.832,396.598L521.487,395.88L520.559,395.383L519.557,395.868L518.772,396.248L517.738,396.747L517.738,396.747L516.55,397.394L515.638,397.89L515.595,397.886L515.554,397.874L514.605,397.032L513.864,396.373L513.535,396.188L512.138,395.851L510.749,395.516L509.287,395.162L509.021,394.623L508.724,394.02L508.323,393.265L508.078,392.802L507.996,392.73L506.875,392.364L505.69,392.004L504.997,392.222L504.875,392.206L504.679,392.069L504.482,391.882L504.378,391.621L504.1,391.271L503.843,390.468L503.818,389.828L503.767,389.601L503.15,388.697L502.589,387.874L502.216,387.324L502.144,387.075L502.187,386.769L502.337,386.494L502.88,386.169L503.37,385.814L503.437,385.568L503.468,384.889L503.308,384.677L503.19,384.273L503.07,383.726L503.056,383.375L503.274,382.676L503.529,381.943L503.367,381.129L503.247,379.49L503.322,378.194L503.261,377.722L503.218,377.523L503.051,376.909L502.846,376.274L502.754,376.051L502.491,375.538L502.055,374.901L501.829,374.509L502.139,374.302L502.414,374.14L502.749,373.969L503.224,373.775L503.47,373.629L503.575,373.506L503.932,373.004L504.118,372.726L504.372,372.345L504.483,372.079L504.486,371.833L504.447,371.535L504.249,370.821L504.087,370.125L504.213,369.856L504.314,369.728L504.535,369.4L504.623,369.334L505.1,369.232L505.29,369.014L505.436,368.74L505.473,368.596L505.681,368.445L505.93,368.294L506.083,368.098L506.585,367.794L507.043,367.517L507.576,367.225L507.988,366.999L508.075,366.801L508.069,366.63L507.845,366.24L507.845,365.778L507.86,365.394L507.882,365.167L507.981,364.534L507.987,364.445L508.415,364.656L508.854,364.74L510.163,365.523L510.576,365.621L511.492,365.714L512.571,365.394L512.979,365.336L513.689,365.637L514.002,365.722L514.528,365.745L515.427,366.017L515.656,366.112L516.18,366.546L516.431,366.676L518.292,367.073L518.546,367.336L518.805,367.837L518.816,368.459L518.959,368.909L519.19,369.492L519.469,369.904L519.778,370.247L520.133,370.461L520.949,370.777L521.869,370.898L522.797,370.939L524.39,371.374L525.741,371.875L526.074,372.122L526.751,372.364L528.096,373.538L528.845,373.943L529.37,374.021L529.841,373.95L530.678,373.544L531.024,373.302L531.866,372.288L532.143,371.758L532.253,371.383L532.226,371.002L532.121,370.659L531.885,370.299L531.72,369.823L531.623,368.964L531.755,368.367L531.916,368.009L532.17,367.643L532.869,366.942L533.572,366.447L534.811,365.799L535.53,365.792L535.828,365.72L536.42,365.261L536.66,365.244L536.992,365.356L537.968,365.324L538.398,365.452L538.911,365.738L539.559,365.915L540.016,366.092L540.503,366.319L540.613,366.884L540.559,367.052L540.547,367.271L541.052,367.659L542.487,367.841L542.77,367.945L543.165,368.242L543.419,368.333L544.402,368.375L544.975,368.312L545.521,368.416L545.723,368.516L545.932,368.748L546.185,369.31z"/>
                        <path id="MA" style="stroke-width:0.2;fill:lightgrey" data-name="Morocco" class="land" d="M469.47,357.957L469.551,358.21L469.717,358.412L470.309,358.873L470.66,359.157L470.67,359.255L470.557,359.488L470.509,359.648L470.601,359.819L470.818,360.025L470.835,360.124L470.783,360.239L470.671,360.46L470.909,361.108L470.949,361.735L470.887,362.18L470.889,362.437L470.92,362.655L471.122,363.158L470.987,363.989L471.139,364.441L471.348,364.807L471.462,365.459L471.63,365.768L471.905,366.039L472.062,366.13L472.365,366.354L472.582,366.54L472.709,366.818L472.437,367.046L472.219,367.25L472.157,367.47L472.259,367.822L472.259,368.011L472.12,368.071L471.554,368.051L471.11,368.036L470.6,368.019L469.882,367.985L469.438,367.964L468.828,367.936L468.618,367.95L468.059,368.048L467.664,368.118L467.597,368.137L467.474,368.224L467.389,368.483L467.313,368.778L467.231,368.909L466.046,369.335L465.583,369.394L465.315,369.35L465.124,369.385L464.96,369.476L464.904,369.613L464.896,369.789L464.931,369.966L465.045,370.212L465.065,370.458L464.992,370.632L464.975,370.806L464.941,370.994L465.002,371.096L465.116,371.112L465.231,371.198L465.393,371.276L465.527,371.425L465.521,371.637L465.409,371.757L465.31,371.82L464.866,371.876L464.515,371.921L464.056,372.259L463.567,372.619L462.989,372.857L462.734,372.924L462.289,373.095L461.756,373.376L461.493,373.826L461.162,374.344L460.843,374.691L460.408,375.02L460.002,375.145L459.492,375.303L458.849,375.424L458.394,375.464L458.258,375.49L457.857,375.498L457.661,375.473L457.514,375.459L457.455,375.496L457.435,375.577L457.427,375.763L457.4,375.976L457.273,376.155L457.183,376.235L457.078,376.268L456.741,376.22L456.459,376.163L455.788,376.087L455.654,376.105L455.604,376.127L455.395,376.249L455.073,376.505L454.854,376.729L454.691,376.834L454.301,376.889L454.131,376.971L453.405,377.53L453.25,377.666L452.503,378.151L452.292,378.312L452.127,378.471L451.681,378.829L451.396,378.986L451.344,379.079L451.33,379.297L451.33,379.779L451.33,380.241L451.33,380.911L451.33,381.581L451.33,382.351L450.953,382.351L450.953,382.352L450.951,382.351L438.717,382.365L438.721,382.353L439.101,381.993L439.358,381.537L439.794,381.334L440.706,381.236L442.061,380.857L443.277,380.284L443.621,380.056L443.989,379.598L444.601,379.001L445.744,378.283L446.27,377.881L447.072,376.872L447.605,376.035L448.048,375.495L448.354,375.015L448.569,374.528L448.69,373.742L448.609,373.434L448.271,372.93L448.045,372.795L447.984,372.557L448.105,372.137L448.103,371.413L448.171,370.253L448.547,369.314L449.466,368.079L449.637,367.57L449.742,366.76L449.751,366.473L450.901,365.317L451.574,364.428L451.808,364.21L452.402,363.803L454.476,362.912L455.648,362.273L456.332,361.807L456.74,361.254L457.87,359.075L458.979,355.979L459.072,355.619L459.568,355.515L459.919,355.47L460.202,355.356L460.552,355.122L460.888,355.216L460.72,355.375L460.72,355.759L460.958,356.208L461.372,356.712L462.124,357.351L462.71,357.607L463.547,357.761L464.523,357.481L465.069,357.476L465.334,357.355L465.623,357.532L466.172,357.589L466.702,357.496L467.103,357.228L467.358,356.919L467.398,357.071L467.41,357.235L467.488,357.331L467.646,357.723L467.729,357.876L468.034,357.851L468.299,357.928L468.897,357.891z"/>
                        <path id="SD" style="stroke-width:0.2;fill:lightgrey" data-name="Sudan" class="land" d="M564.01,399.5L563.92,399.768L564.445,399.768L565.366,399.768L566.287,399.768L567.208,399.768L568.129,399.767L569.049,399.767L569.97,399.767L570.891,399.767L571.812,399.767L572.733,399.767L573.653,399.767L574.575,399.766L575.495,399.766L576.416,399.766L577.337,399.766L578.258,399.766L579.179,399.765L579.21,400.451L579.334,400.998L579.768,401.779L580.134,402.199L580.266,402.43L580.278,402.537L580.261,402.637L580.15,402.522L579.962,402.444L579.936,402.809L579.979,403.068L580.024,403.555L580.178,404.077L580.067,404.559L580.082,405.375L580.276,406.351L580.237,406.973L580.554,408.421L580.862,409.223L581.031,409.42L581.222,409.526L581.588,409.594L582.127,410.001L582.554,410.431L582.706,410.656L582.912,410.902L583.054,410.858L583.141,410.792L583.28,410.991L583.957,411.42L584.057,411.619L583.813,411.814L583.532,412.15L583.461,412.284L583.428,412.363L583.395,412.463L583.321,412.562L583.16,412.698L583.096,412.757L583.058,412.851L582.961,412.912L582.855,412.915L582.763,412.957L582.624,413.021L582.417,412.988L582.206,413.047L582.129,413.121L581.961,413.186L581.794,413.2L581.735,413.222L581.577,413.331L581.383,413.484L581.156,413.581L581.076,413.613L580.972,413.718L580.811,414.242L580.693,414.379L580.495,414.393L580.238,414.393L580.015,414.438L579.712,414.38L579.565,414.387L579.526,414.499L579.472,414.948L579.479,415.141L579.359,415.368L579.225,415.653L579.274,416.133L579.297,416.608L579.051,417.322L579.016,417.486L578.767,418.051L578.639,418.262L578.321,419.316L578.197,419.64L577.931,419.981L577.991,420.536L578.055,421.123L578.115,421.677L578.205,422.504L577.979,423.276L577.988,423.697L577.83,424.317L577.705,424.604L577.594,424.773L577.501,424.949L577.329,425.335L577.183,425.844L577.118,426.365L577.113,426.668L577.084,426.806L577.035,426.894L576.698,426.951L576.229,427.013L575.977,427.081L575.808,427.187L575.6,427.434L575.188,428.11L574.973,428.524L574.635,429.09L574.242,429.49L574.159,429.685L574.094,430.047L573.949,430.62L573.816,431.026L573.84,431.354L573.716,431.921L573.734,432.197L573.596,432.351L573.411,432.497L573.285,432.534L573.015,432.367L572.809,432.198L572.725,432.153L572.546,432.259L572.331,432.416L572.085,432.782L571.894,433.152L572.004,433.937L571.994,434.108L571.938,434.295L571.64,434.879L571.566,435.064L571.458,435.414L571.343,436.025L571.339,436.172L571.339,436.172L571.336,436.172L570.814,436.17L570.805,436.167L570.797,436.158L570.789,436.145L570.78,436.126L570.76,436.046L570.749,435.921L570.767,435.705L570.825,435.448L571.006,435.087L571.015,435.057L571.017,435.04L571.017,435.021L571,434.956L570.979,434.9L570.969,434.816L571,434.628L571.003,434.57L570.999,434.496L570.985,434.448L570.859,434.135L570.817,434.085L569.602,433.088L569.38,432.817L569.356,432.799L569.326,432.785L568.709,432.557L568.679,432.534L568.683,432.501L568.702,432.458L568.776,432.326L568.786,432.292L568.797,432.239L568.519,430.131L568.52,430.09L568.532,430.062L568.542,430.045L568.579,430L568.611,429.954L568.648,429.872L568.657,429.842L568.696,429.464L568.693,429.134L568.855,428.583L568.873,428.348L567.533,428.331L567.525,428.343L567.524,428.358L567.527,428.374L567.529,428.392L567.528,428.429L567.518,428.497L567.515,428.534L567.516,428.57L567.537,428.703L567.572,428.802L567.577,428.835L567.579,428.871L567.575,428.94L565.71,428.948L566.448,429.776L566.457,429.793L566.47,429.838L566.475,429.872L566.489,430.163L566.45,430.623L566.458,430.919L566.501,431.111L566.701,431.489L566.688,431.56L566.642,431.649L565.319,432.771L565.282,432.824L565.098,433.292L564.923,433.563L564.846,433.641L564.539,434.022L563.332,435.217L563.134,435.297L562.533,435.33L562.215,435.339L562.179,435.348L562.125,435.368L562.092,435.399L562.053,435.422L562.014,435.41L561.969,435.377L561.227,434.708L559.903,433.863L559.776,433.94L559.027,434.304L558.873,434.398L558.787,434.465L558.783,434.872L558.652,435.078L558.416,435.304L557.768,435.447L557.431,435.569L557.086,435.752L557.03,435.798L557.03,435.797L556.898,435.924L556.637,436.179L556.609,436.377L556.651,436.555L554.418,436.548L554.271,436.406L553.961,435.782L553.947,435.776L553.719,435.815L551.683,435.742L551.392,435.807L550.81,436.065L550.517,436.108L550.215,435.99L549.144,434.746L548.913,434.597L548.828,434.517L548.67,434.299L548.441,434.169L548.364,434.075L548.339,433.942L548.346,433.668L548.271,433.497L548.102,433.458L546.662,433.747L546.456,433.714L546.154,433.766L546.05,433.817L545.928,433.981L545.903,434.151L545.907,434.323L545.87,434.492L545.76,434.681L545.35,435.103L545.259,435.287L545.278,435.751L545.251,435.986L545.189,436.095L545.011,436.273L544.946,436.376L544.916,436.521L544.906,436.827L544.874,436.97L544.65,437.33L544.597,437.457L544.584,437.716L544.548,437.795L543.897,438L543.654,438.131L543.505,438.333L543.469,438.419L543.469,438.419L543.19,438.347L542.836,438.295L542.155,438.231L541.886,438.137L541.757,437.996L541.798,437.636L541.73,437.559L541.622,437.495L541.547,437.339L541.563,437.152L541.922,436.736L541.996,436.514L542.053,435.741L542.09,435.469L542.063,435.15L541.778,434.563L541.53,434.155L541.125,433.55L540.967,433.352L540.149,432.518L540.054,432.394L539.856,432.041L539.954,431.73L540.074,431.268L540.088,431.054L540.032,430.833L539.825,430.667L539.641,430.647L539.559,430.563L539.399,430.441L539.241,430.346L539.101,430.164L539.004,429.909L539.073,428.996L539.026,428.874L538.817,428.84L538.768,428.774L538.776,428.599L538.664,428.078L538.538,427.646L538.605,427.408L538.431,427.082L538.097,426.942L537.782,426.985L537.444,427.05L537.24,427.032L537.101,426.971L537.002,426.852L536.952,426.71L536.998,426.498L537.184,426.108L537.415,425.788L537.886,425.495L538.011,425.34L538.083,425.167L538.095,424.969L538.063,424.76L538.01,424.569L537.871,424.316L537.744,424.018L537.741,423.818L537.802,423.674L537.928,423.5L538.178,423.304L538.238,423.265L538.395,423.16L538.532,423.083L538.874,422.877L538.954,422.778L538.925,422.659L538.841,422.562L538.703,422.426L538.675,422.259L538.635,421.974L538.564,421.792L538.513,421.659L538.61,421.559L538.755,421.42L538.936,421.335L539.215,421.263L539.325,421.163L539.357,420.973L539.348,420.791L539.449,420.656L539.584,420.366L539.693,420.234L539.876,420.083L540.059,419.894L540.14,419.674L540.163,419.463L540.063,418.821L540.274,418.553L540.544,418.331L540.932,418.346L541.534,418.297L541.944,418.205L542.236,418.208L542.903,418.328L542.958,418.299L542.973,418.275L543.009,418.105L543.008,417.677L543.007,416.381L543.006,415.083L543.005,413.782L543.004,412.477L543.003,411.169L543.002,409.858L543.001,408.543L543,407.225L543,406.855L543,406.486L543,406.116L543,405.745L543.692,405.746L544.385,405.746L545.077,405.746L545.769,405.747L545.778,405.741L545.787,405.736L545.795,405.73L545.804,405.726L545.805,404.244L545.805,402.757L545.806,401.265L545.806,399.768L546.878,399.768L547.951,399.769L549.023,399.769L550.095,399.769L551.167,399.769L552.239,399.769L553.312,399.769L554.384,399.77L555.456,399.77L556.528,399.77L557.6,399.77L558.672,399.77L559.744,399.771L560.816,399.771L561.889,399.771L562.961,399.771L563.288,399.771L563.432,399.749L563.707,399.188L563.824,399.146L564.003,399.179L564.065,399.311z"/>
                        <path id="TN" style="stroke-width:0.2;fill:lightgrey" data-name="Tunisia" class="land" d="M507.987,364.445l-0.006,0.088l-0.099,0.633l-0.022,0.227l-0.015,0.385v0.462l0.224,0.39l0.006,0.171l-0.087,0.198l-0.413,0.226l-0.533,0.292l-0.458,0.277l-0.502,0.304l-0.154,0.196l-0.249,0.151l-0.208,0.151l-0.038,0.145l-0.146,0.273l-0.19,0.218l-0.477,0.103l-0.088,0.065l-0.221,0.328l-0.102,0.128l-0.126,0.269l0.162,0.696l0.198,0.714l0.039,0.297l-0.003,0.247l-0.111,0.266l-0.254,0.38l-0.186,0.279l-0.357,0.501l-0.105,0.124l-0.246,0.146l-0.475,0.193l-0.335,0.171l-0.17,-0.764l-0.146,-0.653l-0.12,-0.54l-0.211,-0.953l-0.18,-0.812l-0.179,-0.811l-0.163,-0.738l-0.164,-0.745l-0.07,-0.109l-0.491,-0.352l-0.452,-0.325l-0.471,-0.37l-0.51,-0.401l-0.082,-0.506l-0.262,-0.766l-0.276,-0.428l-0.104,-0.112l-0.557,-0.277l-0.321,-0.204l-0.088,-0.119l-0.062,-0.313l-0.229,-0.624l-0.261,-0.568l-0.096,-0.385l-0.013,-0.485l0.051,-0.351l0.114,-0.15l0.544,-0.438l0.252,-0.527l0.312,-0.198l0.27,-0.149l0.219,-0.174l0.194,-0.279l0.148,-0.298l0.025,-0.323l0.062,-0.513l0.099,-0.359l0.23,-0.407l-0.097,-0.328l-0.122,-0.354l0.035,-0.615l-0.031,-0.25l-0.099,-0.221l-0.101,-0.284l-0.003,-0.237l0.097,-0.623l0.074,-0.477l0.118,-0.621l-0.042,-0.174l-0.088,-0.13l-0.264,-0.137l-0.003,-0.083l0.064,-0.092l0.39,-0.304l0.209,-0.447l0.175,-0.093l0.266,-0.162l-0.01,-0.174l-0.06,-0.187l0.693,-0.211l0.66,-0.554l0.233,-0.136l1.532,-0.512l0.199,0.035l0.223,0.075l-0.064,0.191l-0.088,0.151l0.13,0.267l0.186,-0.163l-0.047,-0.109l-0.011,-0.145l0.315,-0.013l0.279,0.023l0.306,0.159l-0.021,0.603l0.408,0.589l-0.115,0.293l0.334,0.173l0.297,-0.208l0.149,-0.307l0.547,-0.178l0.52,-0.452l0.288,-0.046l0.065,0.371l0.139,0.324l-0.197,0.114l-0.25,0.344l-0.475,0.87l-0.437,0.255l-0.328,0.334l-0.106,0.237l-0.032,0.276l0.082,0.494l0.239,0.501l0.276,0.302l0.266,0.094l0.619,0.476l-0.01,0.282l0.086,0.335l0.033,0.407l0.215,0.325l-0.46,0.706l-0.252,0.509l-0.492,0.7l-0.438,0.454l-0.938,0.673l-0.23,0.223l-0.15,0.231l-0.069,0.241l0.025,0.283l0.309,0.695l0.411,0.409l0.418,0.221l0.727,-0.089l-0.025,0.267l0.052,0.319l0.295,-0.015l0.198,-0.05l0.167,-0.311l0.355,0.213l0.185,0.648l0.301,0.202l0.035,0.075l-0.106,0.05l-0.083,0.074l0.089,0.053l0.291,0.08l0.176,-0.051L507.987,364.445zM507.351,359.151l-0.433,0.245l0.083,-0.213l0.286,-0.258l0.074,0.062L507.351,359.151zM506.452,362.637l-0.074,0.016l-0.136,0.091l-0.072,0.01l-0.204,-0.103l-0.078,0.001l-0.098,-0.072l0.033,-0.392l0.032,-0.111l0.496,-0.015l0.269,0.235l0.044,0.062l0.011,0.067l-0.125,0.131L506.452,362.637z"/>

                </svg>
