<svg
                        xmlns:dc="http://purl.org/dc/elements/1.1/"
                        xmlns:cc="http://creativecommons.org/ns#"
                        xmlns:rdf="http://www.w3.org/1999/02/22-rdf-syntax-ns#"
                        xmlns:svg="http://www.w3.org/2000/svg"
                        xmlns="http://www.w3.org/2000/svg"
                        xmlns:sodipodi="http://sodipodi.sourceforge.net/DTD/sodipodi-0.dtd"
                        xmlns:inkscape="http://www.inkscape.org/namespaces/inkscape"
                        enable_background="new 0 0 1200 589"
                        height="150"
                        width="2000"
                        viewBox="250 0 150 150"
                        id="us-map"
                        preserveAspectRatio="xMidYMid meet"
                        inkscape:version="0.48.4 r9939"
                        sodipodi:docname="us.svg">
                    <sodipodi:namedview
                            pagecolor="#ffffff"
                            bordercolor="#666666"
                            borderopacity="1"
                            objecttolerance="10"
                            gridtolerance="10"
                            guidetolerance="10"
                            inkscape:pageopacity="0"
                            inkscape:pageshadow="2"
                            inkscape:window-width="1920"
                            inkscape:window-height="1137"
                            id="namedview69"
                            showgrid="false"
                            inkscape:zoom="0.80893016"
                            inkscape:cx="817.66365"
                            inkscape:cy="409.3738"
                            inkscape:window-x="1192"
                            inkscape:window-y="118"
                            inkscape:window-maximized="1"
                            inkscape:current-layer="svg2"/>
                    <defs
                            id="defs4">
                        <style
                                type="text/css"
                                id="style6">path {
                            fill-rule: evenodd;
                        }</style>
                    </defs>
                    <metadata
                            id="metadata8">
                        <views
                                id="views10">
                            <view
                                    h="589.235294118"
                                    padding="0"
                                    w="1000"
                                    id="view12">
                                <proj
                                        id="laea-usa"
                                        lat0="45"
                                        lon0="-100"/>
                                <bbox
                                        h="321.97"
                                        w="589.33"
                                        x="690.09"
                                        y="918.69"
                                        id="bbox15"/>
                            </view>
                        </views>
                        <rdf:RDF>
                            <cc:Work
                                    rdf:about="">
                                <dc:format>image/svg+xml</dc:format>
                                <dc:type
                                        rdf:resource="http://purl.org/dc/dcmitype/StillImage"/>
                                <dc:title/>
                            </cc:Work>
                        </rdf:RDF>
                    </metadata>
                    <path id="SJ" style="stroke-width:0.1;fill:lightgrey" data-name="Svalbard and Jan Mayen" class="land" d="M151.24,273.5,150.62,273.63,150.26,273.18,151.16,271.92,154.15,269.55,155.34,267.28,157.64,266.5,157.79,267.76,157.64,269.33,155.62,270.58,153.38,271.42,151.24,273.5zM340.79,193.2,339.98,194.17,338.76,192.7,337.95,190.82,338.38,190.1,340.54,190.01,341.07,190.99,341.16,191.55,340.79,193.2zM356.86,70.99,357.79,71.79,359.79,71.63,360.89,77.34,361.51,83.31,362.52,83.74,364.44,82.92,366.15,82.52,367.03,82.96,368.59,84.69,369.27,85.9,368.68,86.85,367.25,87.91,367.01,91.04,368.45,92.13,370.83,94.78,372.17,95.13,374.56,94.04,376.8,96.1,379.02,98.58,373.83,101.69,373.37,102.56,372.65,104.84,371.89,106.71,371.18,107.81,369.62,109.7,368.79,110.35,366.91,110.2,366.2,110.95,365.55,112.47,364.89,113.56,363.22,113.83,362.37,112.33,362.65,111.86,362.77,110.97,362.47,108.83,364.07,106.64,364.43,105.41,364.11,104.97,363.67,105.09,362.51,104.42,362.17,104.45,361.21,105.74,359.88,106.6,358.53,106.82,353.1,108.47,352.29,107.89,351.92,104.6,354.12,102.91,354.46,100.02,355.02,98.09,355.67,96.81,356.86,93.48,357.16,93.24,354.18,90.58,353.01,88.85,351.73,85.36,351.33,82.52,349.59,80.08,349.81,76.95,348.55,77.19,347.57,74.98,348.48,73.73,353.08,72.31,355.83,70.92,356.86,70.99zM392.3,69.17,391.32,69.25,389.5,66.72,389.15,64.51,389.48,63.6,390.35,63.57,391.72,66.59,393.19,67.5,392.3,69.17zM287.17,70.48,287.25,72.82,288.34,72.59,289.63,75.07,291.04,76.39,291.44,77.28,291.74,78.44,292.59,80.74,293,83.16,291.98,83.42,290.58,79.97,289.43,77.99,287.99,76.3,286.83,76.21,286.3,75.47,284.41,69.31,284.07,67.88,282.99,65.56,282.51,62.66,282.51,60.38,283.96,60.92,285.22,62.35,286.32,65.58,286.52,66.58,286.01,67.9,286.53,69.46,287.17,70.48zM406.91,60.06,408.92,60.28,410.93,59.73,411.28,60.32,408.68,62.16,405.79,61.18,403.19,60.93,400.12,62.97,399.12,62.15,400.68,60.19,402.38,59.54,402.66,58.33,403.31,58.12,405.55,58,406.91,60.06zM324.42,23.59,324.77,23.66,325.11,23.25,325.36,22.17,325.63,21.58,327.33,22.28,329.75,24.43,330.46,25.49,331.47,27.67,332.29,31.29,331.64,33.89,330.79,36.34,330.48,37.68,330.79,39.6,330.67,41.47,330.36,43.11,331.65,41.23,334.41,35.18,334.83,34.8,335.26,35.01,336.5,36.26,337.62,39.35,337.87,40.37,338.07,41.61,338.18,43.15,338.12,44.9,338.02,46.12,337.43,46.91,337.14,47.62,337.78,47.68,338.51,48.61,339.17,50.6,339.91,51.39,342.61,50.72,344.36,51.75,345.32,54.98,346.81,54.25,346.81,52.53,347.14,51.8,349.12,52.38,350.15,53.19,351.2,54.88,349.41,57.63,350.89,60.25,353.37,62.14,354.87,64.11,355.14,64.93,355.38,66.03,354.41,67.44,353.42,68.23,350.92,68.37,348.64,69.36,344.48,70.07,343.87,70.51,343.72,70.91,343.47,72.13,341.87,74.92,340.32,78.29,339.69,80.3,339.2,83.11,339.03,84.82,339.37,86.46,339.28,88.12,338.11,89.42,337.38,89.47,336.45,89.21,335.54,89.96,335.48,91.07,335.54,92.64,335.3,97.39,335.02,100.93,334.59,104.19,334.12,105.94,333.51,106.42,331.56,106.74,330.05,109.76,328.83,115.1,328.2,117.17,326.88,120.43,327.12,121.58,327.53,122.82,326.81,125.03,325.7,127.5,325.72,128.45,326.1,130.18,326.28,131.98,325.42,133.52,323.84,134.3,322.24,133.42,321.45,132.39,320.73,130.73,319.96,129.65,319.16,129,316.08,125.28,313.24,119.34,310.64,117.01,308.95,115.9,308.13,114.82,307.34,113.36,306.65,111.72,306.01,109.64,305.7,108.34,305.64,106.39,305.85,105.23,306.15,104.64,308.21,104.15,308.95,104.43,309.68,105.46,310.35,105.86,311.87,100.72,320.51,97.75,323.29,97.24,326.08,97.27,325.65,95.86,325.28,94.06,324.87,93.62,322.76,94.63,319.53,95.69,317.96,95.69,316.34,94.99,314.72,95.37,313.05,96.91,311.37,97.87,309.73,98.26,306.28,98.11,305.42,97.32,304.27,95.48,303.99,94.53,303.75,93.37,303.52,89.86,303.77,88.9,304.13,88.35,304.49,88.01,305.25,87.99,305.99,88.6,307.74,90.61,307.34,88.45,312.36,85.84,314.7,83.55,315.89,83.16,317.1,83.33,316.83,82.1,316.82,80.96,317.67,80.03,318.29,79.63,320.14,79.17,324.36,79.25,325.88,78.62,327.01,77.02,325.8,77.58,324.59,77.69,324.02,77.36,322.73,75.96,322.15,74.11,323.81,70.4,324.39,68.67,322.7,68.92,322.13,69.53,320.19,72.94,318.75,74.47,316.98,75.2,315.21,75.14,314.82,74.65,314.28,72.4,314.11,71.21,314.18,70.56,314.74,68.68,315.03,66.69,314.98,64.96,314.57,64.62,313.92,66.31,313.32,68.65,312.51,69.81,311.67,69.49,311.31,68.6,311,67.23,310.67,66.7,310.31,66.7,309.56,67.25,308.81,68.26,309.07,69.8,309.14,71.5,308.82,72.85,308.58,74.49,309.34,75.52,309.97,77.11,309.03,77.85,308.12,78.94,307.27,80.6,306.41,81.9,305.05,82.03,303.35,82.75,299.95,83,298.36,80.9,298.07,79.89,297.75,79.22,296.69,78.11,295.14,74.81,293.95,71.02,293.15,70.65,291.96,69.39,291.31,68.3,290.69,66.86,290.51,65.13,290.57,63.56,291.28,62.86,289.6,61.08,287.95,58.72,288.56,57.92,289.17,57.57,294.07,60.33,294.39,59.99,294.93,58.62,294.74,58.16,293.92,57.84,292.8,57.85,292.52,57.57,292.09,56.08,291.72,54.23,291.56,53,291.49,51.56,292.32,49.38,292.78,47.41,292.07,46.5,290.06,46.56,289.39,46.84,289.63,49.66,288.99,51.59,287.77,53.1,286.89,52.37,286.21,48.66,285.32,46.06,284.99,44.41,284.73,42.03,284.37,40.28,283.72,38.17,283.64,36.86,283.72,35.89,284.21,33.67,283.84,31.82,283.38,30.19,283.35,29.25,283.78,28.1,284.17,27.71,284.58,27.8,285.82,29.18,286.5,30.81,286.73,30.68,287.17,28.24,287.8,27.69,290.21,26.88,292.9,30.04,293.6,30.73,294.15,30.96,293.86,29.56,293.69,27.75,294.1,27.06,296.27,28.69,297.28,28.59,299.67,26.46,303.6,25.34,305.09,27.02,305.17,27.92,305.14,29.12,305.05,29.48,304.18,30.88,299.21,32.01,295.95,36.34,300.39,35.65,301.19,36.14,301.52,39.62,301.85,39.99,302.99,40.49,303.76,41.52,304.55,43.48,305.38,44.8,305.87,44.63,306.05,43.21,305.85,41.52,305.75,39.58,305.81,37.48,305.94,35.74,306.87,34.5,308.23,30.47,309.67,27.72,311.27,28.94,312.75,32.38,314.09,37.23,315.39,42.34,316.84,48.59,317.54,50.77,318.18,51.29,321.11,57.64,321.44,57.81,320.83,52.99,319.31,44.7,318.29,38.2,318.06,35.69,317.89,32.14,317.96,31.11,318.09,30.18,318.83,26.33,319.8,24.44,319.51,21.77,319.76,19.7,320.78,18.06,321.73,17.94,322.65,19.19,324.42,23.59zM430.32,15.34,423.94,16.81,423.29,15.78,433.64,11.44,434.17,11.02,436.09,10.47,437.74,11.46,437.25,12.23,430.32,15.34zM337.57,8.14,336.12,10.34,333.68,8.65,333.97,6.9,334.55,5.84,336.08,6.24,337.57,8.14zM352.08,10.17,352.76,10.61,356.46,10.45,357.17,11.42,357.46,13.77,358.02,14.57,358.81,14.82,360.78,17.66,361.45,18.07,362.03,16.5,362.48,12.54,362.5,7.84,362.31,5.55,362.53,4.07,363.19,3.49,364.02,3.65,364.83,2.82,365.53,1.36,366.28,1.16,367.92,2.27,368.35,3.14,367.91,4.93,367.74,7.47,367,12.67,368.6,12.99,370.85,11.89,371.43,10.39,372.64,7.99,373.92,8.37,374.53,8.05,374.84,7,374.96,5.75,375.66,5.96,376.63,8.37,377.08,8.74,377.91,8.12,378.24,8.15,379.06,9.11,382.85,10.84,384.17,11.77,384.74,12.63,385.31,13.13,389.35,13.12,392.2,13.73,393.25,15.09,394.14,17.68,394.47,23.59,393.67,25.17,387.9,32.3,386.45,34.56,385.75,36.64,384.57,41.13,384,42.48,381.29,44.6,380.66,44.83,378.62,43.79,378,43.89,375.53,46.18,374.68,47.56,373.85,49.29,372.6,50.05,371.33,49.64,365.58,48.74,364.81,47.53,364.18,45.18,365.32,42.16,358.9,43.29,351.83,42.67,351.46,42.24,351.16,41.07,348.73,40.27,346.9,39.3,345.37,37.66,343.85,35.53,344.34,34.53,344.84,33.94,346.14,33.7,347.3,33.99,349.36,33.98,349.84,31.81,350.66,31.18,351.32,29.62,349.14,28.63,346.87,28.48,345.36,29.79,343.61,30.37,342,30.45,338.92,30.08,337.46,29.16,335.46,26.73,334.77,25.39,334.5,24.33,334.3,22.72,336.59,21.28,337.47,20.13,338.34,18.56,334.9,17.67,333.46,16.35,332.02,14.4,333.19,13.29,337.83,12.41,339.06,13.15,340.27,14.57,341.62,15.45,342.93,13.61,341.7,12.73,340.6,9.64,340.37,8.1,340.51,6.91,341.09,6.74,341.52,7.25,343.14,10.17,344.37,11.08,344.71,8.39,344.76,7.1,344.54,6.04,343.96,4.06,343.45,1.62,344.25,1,345.04,1.27,346.74,2.95,348.46,4.12,349.24,5.3,350.71,8.23,352.08,10.17z"/>

                </svg>
