                <svg
                        xmlns:dc="http://purl.org/dc/elements/1.1/"
                        xmlns:cc="http://creativecommons.org/ns#"
                        xmlns:rdf="http://www.w3.org/1999/02/22-rdf-syntax-ns#"
                        xmlns:svg="http://www.w3.org/2000/svg"
                        xmlns="http://www.w3.org/2000/svg"
                        xmlns:sodipodi="http://sodipodi.sourceforge.net/DTD/sodipodi-0.dtd"
                        xmlns:inkscape="http://www.inkscape.org/namespaces/inkscape"
                        enable_background="new 0 0 1200 589"
                        height="900"
                        width="2000"
                        viewBox="250 0 150 150"
                        id="us-map"
                        preserveAspectRatio="xMidYMid meet"
                        inkscape:version="0.48.4 r9939"
                        sodipodi:docname="us.svg">
                    <sodipodi:namedview
                            pagecolor="#ffffff"
                            bordercolor="#666666"
                            borderopacity="1"
                            objecttolerance="10"
                            gridtolerance="10"
                            guidetolerance="10"
                            inkscape:pageopacity="0"
                            inkscape:pageshadow="2"
                            inkscape:window-width="1920"
                            inkscape:window-height="1137"
                            id="namedview69"
                            showgrid="false"
                            inkscape:zoom="0.80893016"
                            inkscape:cx="817.66365"
                            inkscape:cy="409.3738"
                            inkscape:window-x="1192"
                            inkscape:window-y="118"
                            inkscape:window-maximized="1"
                            inkscape:current-layer="svg2"/>
                    <defs
                            id="defs4">
                        <style
                                type="text/css"
                                id="style6">path {
                            fill-rule: evenodd;
                        }</style>
                    </defs>
                    <metadata
                            id="metadata8">
                        <views
                                id="views10">
                            <view
                                    h="589.235294118"
                                    padding="0"
                                    w="1000"
                                    id="view12">
                                <proj
                                        id="laea-usa"
                                        lat0="45"
                                        lon0="-100"/>
                                <bbox
                                        h="321.97"
                                        w="589.33"
                                        x="690.09"
                                        y="918.69"
                                        id="bbox15"/>
                            </view>
                        </views>
                        <rdf:RDF>
                            <cc:Work
                                    rdf:about="">
                                <dc:format>image/svg+xml</dc:format>
                                <dc:type
                                        rdf:resource="http://purl.org/dc/dcmitype/StillImage"/>
                                <dc:title/>
                            </cc:Work>
                        </rdf:RDF>
                    </metadata>
                    <path id="SJ" style="stroke-width:0.1;fill:lightgrey" data-name="Svalbard and Jan Mayen" class="land" d="M151.24,273.5,150.62,273.63,150.26,273.18,151.16,271.92,154.15,269.55,155.34,267.28,157.64,266.5,157.79,267.76,157.64,269.33,155.62,270.58,153.38,271.42,151.24,273.5zM340.79,193.2,339.98,194.17,338.76,192.7,337.95,190.82,338.38,190.1,340.54,190.01,341.07,190.99,341.16,191.55,340.79,193.2zM356.86,70.99,357.79,71.79,359.79,71.63,360.89,77.34,361.51,83.31,362.52,83.74,364.44,82.92,366.15,82.52,367.03,82.96,368.59,84.69,369.27,85.9,368.68,86.85,367.25,87.91,367.01,91.04,368.45,92.13,370.83,94.78,372.17,95.13,374.56,94.04,376.8,96.1,379.02,98.58,373.83,101.69,373.37,102.56,372.65,104.84,371.89,106.71,371.18,107.81,369.62,109.7,368.79,110.35,366.91,110.2,366.2,110.95,365.55,112.47,364.89,113.56,363.22,113.83,362.37,112.33,362.65,111.86,362.77,110.97,362.47,108.83,364.07,106.64,364.43,105.41,364.11,104.97,363.67,105.09,362.51,104.42,362.17,104.45,361.21,105.74,359.88,106.6,358.53,106.82,353.1,108.47,352.29,107.89,351.92,104.6,354.12,102.91,354.46,100.02,355.02,98.09,355.67,96.81,356.86,93.48,357.16,93.24,354.18,90.58,353.01,88.85,351.73,85.36,351.33,82.52,349.59,80.08,349.81,76.95,348.55,77.19,347.57,74.98,348.48,73.73,353.08,72.31,355.83,70.92,356.86,70.99zM392.3,69.17,391.32,69.25,389.5,66.72,389.15,64.51,389.48,63.6,390.35,63.57,391.72,66.59,393.19,67.5,392.3,69.17zM287.17,70.48,287.25,72.82,288.34,72.59,289.63,75.07,291.04,76.39,291.44,77.28,291.74,78.44,292.59,80.74,293,83.16,291.98,83.42,290.58,79.97,289.43,77.99,287.99,76.3,286.83,76.21,286.3,75.47,284.41,69.31,284.07,67.88,282.99,65.56,282.51,62.66,282.51,60.38,283.96,60.92,285.22,62.35,286.32,65.58,286.52,66.58,286.01,67.9,286.53,69.46,287.17,70.48zM406.91,60.06,408.92,60.28,410.93,59.73,411.28,60.32,408.68,62.16,405.79,61.18,403.19,60.93,400.12,62.97,399.12,62.15,400.68,60.19,402.38,59.54,402.66,58.33,403.31,58.12,405.55,58,406.91,60.06zM324.42,23.59,324.77,23.66,325.11,23.25,325.36,22.17,325.63,21.58,327.33,22.28,329.75,24.43,330.46,25.49,331.47,27.67,332.29,31.29,331.64,33.89,330.79,36.34,330.48,37.68,330.79,39.6,330.67,41.47,330.36,43.11,331.65,41.23,334.41,35.18,334.83,34.8,335.26,35.01,336.5,36.26,337.62,39.35,337.87,40.37,338.07,41.61,338.18,43.15,338.12,44.9,338.02,46.12,337.43,46.91,337.14,47.62,337.78,47.68,338.51,48.61,339.17,50.6,339.91,51.39,342.61,50.72,344.36,51.75,345.32,54.98,346.81,54.25,346.81,52.53,347.14,51.8,349.12,52.38,350.15,53.19,351.2,54.88,349.41,57.63,350.89,60.25,353.37,62.14,354.87,64.11,355.14,64.93,355.38,66.03,354.41,67.44,353.42,68.23,350.92,68.37,348.64,69.36,344.48,70.07,343.87,70.51,343.72,70.91,343.47,72.13,341.87,74.92,340.32,78.29,339.69,80.3,339.2,83.11,339.03,84.82,339.37,86.46,339.28,88.12,338.11,89.42,337.38,89.47,336.45,89.21,335.54,89.96,335.48,91.07,335.54,92.64,335.3,97.39,335.02,100.93,334.59,104.19,334.12,105.94,333.51,106.42,331.56,106.74,330.05,109.76,328.83,115.1,328.2,117.17,326.88,120.43,327.12,121.58,327.53,122.82,326.81,125.03,325.7,127.5,325.72,128.45,326.1,130.18,326.28,131.98,325.42,133.52,323.84,134.3,322.24,133.42,321.45,132.39,320.73,130.73,319.96,129.65,319.16,129,316.08,125.28,313.24,119.34,310.64,117.01,308.95,115.9,308.13,114.82,307.34,113.36,306.65,111.72,306.01,109.64,305.7,108.34,305.64,106.39,305.85,105.23,306.15,104.64,308.21,104.15,308.95,104.43,309.68,105.46,310.35,105.86,311.87,100.72,320.51,97.75,323.29,97.24,326.08,97.27,325.65,95.86,325.28,94.06,324.87,93.62,322.76,94.63,319.53,95.69,317.96,95.69,316.34,94.99,314.72,95.37,313.05,96.91,311.37,97.87,309.73,98.26,306.28,98.11,305.42,97.32,304.27,95.48,303.99,94.53,303.75,93.37,303.52,89.86,303.77,88.9,304.13,88.35,304.49,88.01,305.25,87.99,305.99,88.6,307.74,90.61,307.34,88.45,312.36,85.84,314.7,83.55,315.89,83.16,317.1,83.33,316.83,82.1,316.82,80.96,317.67,80.03,318.29,79.63,320.14,79.17,324.36,79.25,325.88,78.62,327.01,77.02,325.8,77.58,324.59,77.69,324.02,77.36,322.73,75.96,322.15,74.11,323.81,70.4,324.39,68.67,322.7,68.92,322.13,69.53,320.19,72.94,318.75,74.47,316.98,75.2,315.21,75.14,314.82,74.65,314.28,72.4,314.11,71.21,314.18,70.56,314.74,68.68,315.03,66.69,314.98,64.96,314.57,64.62,313.92,66.31,313.32,68.65,312.51,69.81,311.67,69.49,311.31,68.6,311,67.23,310.67,66.7,310.31,66.7,309.56,67.25,308.81,68.26,309.07,69.8,309.14,71.5,308.82,72.85,308.58,74.49,309.34,75.52,309.97,77.11,309.03,77.85,308.12,78.94,307.27,80.6,306.41,81.9,305.05,82.03,303.35,82.75,299.95,83,298.36,80.9,298.07,79.89,297.75,79.22,296.69,78.11,295.14,74.81,293.95,71.02,293.15,70.65,291.96,69.39,291.31,68.3,290.69,66.86,290.51,65.13,290.57,63.56,291.28,62.86,289.6,61.08,287.95,58.72,288.56,57.92,289.17,57.57,294.07,60.33,294.39,59.99,294.93,58.62,294.74,58.16,293.92,57.84,292.8,57.85,292.52,57.57,292.09,56.08,291.72,54.23,291.56,53,291.49,51.56,292.32,49.38,292.78,47.41,292.07,46.5,290.06,46.56,289.39,46.84,289.63,49.66,288.99,51.59,287.77,53.1,286.89,52.37,286.21,48.66,285.32,46.06,284.99,44.41,284.73,42.03,284.37,40.28,283.72,38.17,283.64,36.86,283.72,35.89,284.21,33.67,283.84,31.82,283.38,30.19,283.35,29.25,283.78,28.1,284.17,27.71,284.58,27.8,285.82,29.18,286.5,30.81,286.73,30.68,287.17,28.24,287.8,27.69,290.21,26.88,292.9,30.04,293.6,30.73,294.15,30.96,293.86,29.56,293.69,27.75,294.1,27.06,296.27,28.69,297.28,28.59,299.67,26.46,303.6,25.34,305.09,27.02,305.17,27.92,305.14,29.12,305.05,29.48,304.18,30.88,299.21,32.01,295.95,36.34,300.39,35.65,301.19,36.14,301.52,39.62,301.85,39.99,302.99,40.49,303.76,41.52,304.55,43.48,305.38,44.8,305.87,44.63,306.05,43.21,305.85,41.52,305.75,39.58,305.81,37.48,305.94,35.74,306.87,34.5,308.23,30.47,309.67,27.72,311.27,28.94,312.75,32.38,314.09,37.23,315.39,42.34,316.84,48.59,317.54,50.77,318.18,51.29,321.11,57.64,321.44,57.81,320.83,52.99,319.31,44.7,318.29,38.2,318.06,35.69,317.89,32.14,317.96,31.11,318.09,30.18,318.83,26.33,319.8,24.44,319.51,21.77,319.76,19.7,320.78,18.06,321.73,17.94,322.65,19.19,324.42,23.59zM430.32,15.34,423.94,16.81,423.29,15.78,433.64,11.44,434.17,11.02,436.09,10.47,437.74,11.46,437.25,12.23,430.32,15.34zM337.57,8.14,336.12,10.34,333.68,8.65,333.97,6.9,334.55,5.84,336.08,6.24,337.57,8.14zM352.08,10.17,352.76,10.61,356.46,10.45,357.17,11.42,357.46,13.77,358.02,14.57,358.81,14.82,360.78,17.66,361.45,18.07,362.03,16.5,362.48,12.54,362.5,7.84,362.31,5.55,362.53,4.07,363.19,3.49,364.02,3.65,364.83,2.82,365.53,1.36,366.28,1.16,367.92,2.27,368.35,3.14,367.91,4.93,367.74,7.47,367,12.67,368.6,12.99,370.85,11.89,371.43,10.39,372.64,7.99,373.92,8.37,374.53,8.05,374.84,7,374.96,5.75,375.66,5.96,376.63,8.37,377.08,8.74,377.91,8.12,378.24,8.15,379.06,9.11,382.85,10.84,384.17,11.77,384.74,12.63,385.31,13.13,389.35,13.12,392.2,13.73,393.25,15.09,394.14,17.68,394.47,23.59,393.67,25.17,387.9,32.3,386.45,34.56,385.75,36.64,384.57,41.13,384,42.48,381.29,44.6,380.66,44.83,378.62,43.79,378,43.89,375.53,46.18,374.68,47.56,373.85,49.29,372.6,50.05,371.33,49.64,365.58,48.74,364.81,47.53,364.18,45.18,365.32,42.16,358.9,43.29,351.83,42.67,351.46,42.24,351.16,41.07,348.73,40.27,346.9,39.3,345.37,37.66,343.85,35.53,344.34,34.53,344.84,33.94,346.14,33.7,347.3,33.99,349.36,33.98,349.84,31.81,350.66,31.18,351.32,29.62,349.14,28.63,346.87,28.48,345.36,29.79,343.61,30.37,342,30.45,338.92,30.08,337.46,29.16,335.46,26.73,334.77,25.39,334.5,24.33,334.3,22.72,336.59,21.28,337.47,20.13,338.34,18.56,334.9,17.67,333.46,16.35,332.02,14.4,333.19,13.29,337.83,12.41,339.06,13.15,340.27,14.57,341.62,15.45,342.93,13.61,341.7,12.73,340.6,9.64,340.37,8.1,340.51,6.91,341.09,6.74,341.52,7.25,343.14,10.17,344.37,11.08,344.71,8.39,344.76,7.1,344.54,6.04,343.96,4.06,343.45,1.62,344.25,1,345.04,1.27,346.74,2.95,348.46,4.12,349.24,5.3,350.71,8.23,352.08,10.17z"/>

                </svg>
                <svg
                        xmlns:dc="http://purl.org/dc/elements/1.1/"
                        xmlns:cc="http://creativecommons.org/ns#"
                        xmlns:rdf="http://www.w3.org/1999/02/22-rdf-syntax-ns#"
                        xmlns:svg="http://www.w3.org/2000/svg"
                        xmlns="http://www.w3.org/2000/svg"
                        xmlns:sodipodi="http://sodipodi.sourceforge.net/DTD/sodipodi-0.dtd"
                        xmlns:inkscape="http://www.inkscape.org/namespaces/inkscape"
                        enable_background="new 0 0 1200 589"
                        height="600"
                        width="2000"
                        viewBox="110 260 260 260"
                        id="us-map"
                        preserveAspectRatio="xMidYMid meet"
                        inkscape:version="0.48.4 r9939"
                        sodipodi:docname="us.svg">
                    <sodipodi:namedview
                            pagecolor="#ffffff"
                            bordercolor="#666666"
                            borderopacity="1"
                            objecttolerance="10"
                            gridtolerance="10"
                            guidetolerance="10"
                            inkscape:pageopacity="0"
                            inkscape:pageshadow="2"
                            inkscape:window-width="1920"
                            inkscape:window-height="1137"
                            id="namedview69"
                            showgrid="false"
                            inkscape:zoom="0.80893016"
                            inkscape:cx="817.66365"
                            inkscape:cy="409.3738"
                            inkscape:window-x="1192"
                            inkscape:window-y="118"
                            inkscape:window-maximized="1"
                            inkscape:current-layer="svg2"/>
                    <defs
                            id="defs4">
                        <style
                                type="text/css"
                                id="style6">path {
                            fill-rule: evenodd;
                        }</style>
                    </defs>
                    <metadata
                            id="metadata8">
                        <views
                                id="views10">
                            <view
                                    h="589.235294118"
                                    padding="0"
                                    w="1000"
                                    id="view12">
                                <proj
                                        id="laea-usa"
                                        lat0="45"
                                        lon0="-100"/>
                                <bbox
                                        h="321.97"
                                        w="589.33"
                                        x="690.09"
                                        y="918.69"
                                        id="bbox15"/>
                            </view>
                        </views>
                        <rdf:RDF>
                            <cc:Work
                                    rdf:about="">
                                <dc:format>image/svg+xml</dc:format>
                                <dc:type
                                        rdf:resource="http://purl.org/dc/dcmitype/StillImage"/>
                                <dc:title/>
                            </cc:Work>
                        </rdf:RDF>
                    </metadata>
                    <path id="SE" style="stroke-width:0.1;fill:lightgrey" data-name="Sweden" class="land" d="M374,365.62,372.22,366,370.88,365.24,370.21,365.62,369.04,365.63,367.71,365.93,367.27,366.53,366.91,366.76,365.68,365.93,364.52,364.54,363.67,365.6,363.12,365.8,362.63,364.84,362.19,364.68,361.96,365,361.76,365.85,361.43,366.51,361.35,366.93,361.29,368.62,361.21,369.01,360.08,368.8,360.14,369.24,360.39,369.46,360.49,369.74,360.08,370.11,358.96,370.08,358.84,370.47,359.16,371.08,358.91,371.62,358.69,371.83,357.35,372.17,356.57,372.09,356.35,372.44,356.29,372.89,356.44,373.33,356.78,373.57,356.89,373.85,356.87,374.45,356.58,374.56,355.78,373.5,355.53,373.55,355.71,374.11,356.18,374.71,356.44,375.33,356.68,376.07,356.63,376.63,355.63,378.43,354.74,379.57,354.09,380.59,353.7,381.67,354.15,382.21,354.65,383,355,384.5,355.42,385.83,356.26,387.1,356.09,387.83,355.9,388.4,354.49,389.65,352.89,391.53,351.17,396.29,350.6,396.92,349.09,397.72,348.54,398.5,347.42,399.41,345.46,400.2,344.57,401.29,344.17,402.42,343.72,402.5,343.28,402.06,342.69,401.73,342.62,402.47,342.64,403.01,341.7,402.21,341.25,402.94,340.9,404.17,339.54,405.81,338.08,405.51,337.91,405.8,338.3,406.01,338.36,406.27,338.1,406.41,337.69,406.4,337.07,406.72,336.66,406.69,336.47,407.47,336.15,408.4,335.33,408.79,334.9,408.87,334.69,409.4,335.96,409.51,335.86,409.96,335.83,410.4,335.7,410.88,334.25,411.57,334.03,412.12,333.73,412.45,333.08,412.43,333.11,412.12,333.21,411.77,332.26,411.8,331.96,411.02,331.77,411.22,331.88,411.85,332.13,412.5,332.41,413.46,332.19,414.06,331.93,414.36,332.12,414.64,332.63,414.85,332.83,415.22,332.23,415.54,331.47,416.65,330.69,416.68,330.21,417.4,329.7,417.4,329.28,416.94,328.62,416.57,328.4,417.23,328.37,417.76,328.74,419.09,329.46,420.12,330.12,420.56,329.64,420.86,329.29,421.52,328.86,423.59,328.63,424.4,328.38,425.82,328.54,427.02,328.66,427.61,328.99,428.41,328.11,428.31,327.18,427.84,327.31,428.81,326.74,429.95,326.84,430.95,326.96,431.6,326.78,432.68,327.05,433.02,327.2,433.66,326.96,434.13,327.07,434.54,327.11,435.97,327.29,438.21,327.22,438.68,327.73,440.61,327.61,441.28,327.54,442.14,328.28,442.96,328.93,442.95,329.59,442.94,329.85,443.14,330.1,443.73,330.3,444.41,330.85,444.35,331.72,443.8,332.29,443.66,332.66,444.73,333.68,446.15,334.27,446.78,335.28,447.11,336.34,448.24,336.19,449.61,336.63,450.06,337.88,450.6,338.32,451.32,338.53,451.93,338.86,452.44,339.25,453.98,339.11,454.92,338.61,455.24,337.42,456.25,336.89,457,336.47,457.47,335.29,458.47,334.86,458.65,334.44,459.17,334.04,459.39,333.68,459.26,332.34,460.2,331.44,459.94,331.06,459.48,331.3,457.64,331.14,457.04,330.97,456.74,330.37,457.08,330.48,457.79,329.45,457.82,328.48,457.22,328.36,458.4,326.28,457.42,325.7,457.67,324.79,457.18,324.19,457.77,323.48,457.56,322.99,456.86,322.31,458.09,320.82,458.43,319.43,458.63,320.1,459.03,323.24,458.96,324.12,459.26,325.28,459.06,326.3,460.02,327.03,460.25,327.91,461.35,328.35,461.05,329.05,461.1,329.69,461.41,331.75,461.37,332.45,460.6,333.48,460.77,334,460.57,334.4,460.1,334.85,459.99,335.25,460.08,335.67,459.71,336.01,459.56,336.35,459.74,336.74,460.63,335.94,461.09,335.37,461.11,335.09,462.57,334.75,463.19,334.5,463.49,333.24,464.1,332.41,464.88,331.43,465.51,331.01,465.37,330.36,466.01,328.93,466.76,328.19,467.77,326.55,468.68,325.71,469.41,323.43,469.45,321.25,469.29,320.57,469.64,321.27,469.74,321.76,470.09,322.34,469.94,323.72,470.11,324.43,470.3,325.34,471.49,324.67,471.92,323.51,472.24,323.95,473.93,324.31,475.06,323.84,475.74,323.8,478.83,323.14,478.89,322.86,480.16,323.07,480.81,323.06,482.31,323.19,483.23,323.52,484.08,323.37,484.96,322.33,487.02,322.35,487.98,322.54,488.55,322.68,489.46,322.21,491.2,321.87,492.66,321.47,493.88,320.58,495.33,320.14,496.42,319.11,499.8,318.59,500.46,317.96,500.98,317.26,500.5,316.62,500.24,315.83,500.28,314.6,500.66,312.74,500.41,310.93,500.53,310.48,500.87,310.75,502.08,310.08,502.24,309.43,501.9,308.86,502.31,308.38,502.76,307.43,503.83,307.12,504.49,307.04,505.73,307.53,506.83,307.97,508.12,306.84,509.68,306.21,509.73,304.37,509.3,301.11,510.27,298.18,509.5,298.54,508.67,298.53,508.06,298.7,507.12,298.8,506.15,298.77,505.5,298.55,504.81,297.83,503.9,296.2,500.82,295.72,499.52,295.39,498.98,295.63,498.95,296.97,499.65,297.28,499.56,297.61,499.3,297.21,498.29,296.87,497.84,296.63,497.15,297.42,496.97,297.98,497.01,298.4,496.24,298.16,495,297.55,494.61,297.04,494.44,296.07,492.48,295.05,491.45,293.24,487.49,292.57,484.75,291.96,485.01,291.66,483.81,291.44,482.67,291.4,481.84,290.43,481.36,290.39,480.77,290.22,478.13,289.18,477.77,288.51,476.28,288.39,473.45,287.71,472.94,287.16,473.08,287.18,472.37,287.31,471.71,286.99,469.08,286.89,466.66,286.63,465.93,286.48,465.07,286.61,464.32,286.8,463.9,287.47,463.78,288.1,464.44,288.65,466.1,289.14,466.31,289.81,465.88,290.28,464.67,290.55,462.86,290.86,461.12,290.49,459.25,290.09,457.6,290.07,457.12,291.1,455.72,291.42,454.58,291.76,453.5,292.14,453.13,292.7,453.04,293.35,452.84,294.18,452.11,294.92,451.13,295.49,450.23,295.68,448.44,295.69,447.54,295.93,446.87,296.18,445.56,295.94,444.27,295.21,442.29,294.33,439.5,294.19,437.97,294.6,437.69,295.36,437.43,296.81,437.36,296.97,437.18,297.11,436.5,297.44,435.59,297.79,434.92,298.03,433.96,298.14,433.09,297.31,431.78,296.23,430.43,295.49,429.99,294.18,428.85,293.26,427.9,293.79,424.24,294.18,421.51,294.24,420.84,294.26,419.8,292.99,415.35,293.04,414.35,293.16,413.45,293.02,411.91,292.95,410.54,293.16,410.12,293.68,409.33,293.19,408.12,293.15,408.02,292.21,405,293.64,401.99,293.39,400.42,294.25,399.28,295.8,396.66,296.67,395.18,296.86,394.92,297.55,394.27,298.86,393.49,300.31,393.11,300.96,393.12,303.46,393.64,305.41,394.05,305.69,393.64,306.1,392.8,306.62,391.59,306.67,390.25,306.48,388.27,306.19,387.08,304.82,386.31,303.32,385.25,305.17,381.86,306.45,379.49,308.04,375.91,308.54,374.41,308.9,373.81,309.37,368.22,309.68,366.64,309.94,365.82,309.95,364.97,309.78,363.53,309.33,360.26,311.85,359.86,312.67,359.63,313.43,359.24,314.92,358.22,315.65,357.32,315.25,354.23,316.15,353.18,318.35,349.49,320.73,345.94,321.84,344.58,321.96,343.92,322.05,342.85,321.55,341.17,321.02,340.12,319.99,338.13,320.43,336.74,321.19,336.47,322.2,335.92,322.99,334.72,323.07,334.57,324.4,329.83,327,327.4,328.04,326.08,329.66,327.07,332.02,328.57,333.08,326.36,333.43,325.54,333.77,324.32,333.63,322.21,333.57,319.45,333.68,318.34,334.62,317.84,335.13,317.72,337.76,318.86,338.43,318.84,339.67,319,341.05,319.5,343.96,320.83,345.17,321.38,345.84,321.49,346.42,320.87,347.66,319.28,345.83,318.09,347.03,316.89,347.66,315.67,348.19,314.17,348.38,312.41,348.31,311.46,347.94,310.81,346.83,309.19,349.35,308.95,350.23,308.88,352.06,309.96,352.14,310.19,352.16,310.75,352.22,311.32,354,312.78,354.52,313.55,355.61,314.72,355.9,315.35,356.91,316.08,357.64,316.87,358.49,317.5,359.48,318.48,360.81,319.27,361.93,319.52,364.76,320.86,365.24,321.29,366.06,322.22,366.88,323.29,367.45,325.48,368.37,325.6,368.62,326.35,369.42,327.63,370.52,328.76,370.48,329.14,369.6,330.18,369.51,331.58,369.59,333.37,369.87,334.82,369.84,335.24,369.62,335.74,369.36,336.52,369.26,337.2,369.29,337.53,369.37,337.71,369.84,337.72,370.67,337.88,371.16,338.18,371.44,339.83,371.34,340.15,370.64,340.89,370.44,341.48,370.42,342.35,370.54,343.3,370.78,344.36,371.33,345.49,372.07,346.67,372.56,347.63,372.79,348.31,372.88,348.78,372.54,349.38,372.24,350.55,372.18,351.89,372.05,352.76,371.39,353.96,370.94,354.38,370.81,355.01,370.76,356.06,370.89,357.34,370.94,358.21,371.08,358.83,371.28,359.24,372.33,359.95,372.92,361.41,373.28,362.58,374,365.62zM336.59,458.73,336.42,459.17,336.25,458.64,336.32,458.53,336.43,458,336.76,457.71,337.28,457.88,337.28,458.02,336.78,458.45,336.59,458.73zM335.38,464.54,335.09,464.66,334.94,464.62,335.12,464.02,335.26,463.75,335.71,463.51,335.85,463.55,335.38,464.54zM340.36,478.77,340.24,479.56,339.89,479.5,339.58,478.91,340.22,478.02,341.2,478.07,341.54,478.26,340.36,478.77zM339.83,479.86,339.27,480.16,338.94,481.05,338.49,481.2,338.06,481.5,337.91,484.3,338.69,485.36,338.26,485.51,337.86,485.82,337.58,486.29,337.29,487.3,336.21,487.86,335.8,488.28,335.19,489.22,334.87,490.57,334.26,491.14,333.57,491.28,333.97,490.18,334.5,489.27,333.99,488.65,333.69,487.68,333.29,486.93,333.61,486.1,333.45,484.72,333.5,483.38,333.96,482.7,334.49,482.14,335.31,480.86,336.2,479.93,337.44,479.51,338,479.9,338.24,479.05,338.64,478.86,339.02,479.05,339.83,479.86zM322.68,498.98,322.34,499.58,322.03,499.54,321.83,498.73,321.78,496.63,321.9,495.59,323.37,491.82,324.02,491.51,324.95,489.18,325.19,488.14,325.59,487.2,325.83,486.36,326.03,486.02,326.46,486.18,326.65,486.34,326.19,486.83,326.25,487.46,326.22,487.73,325.07,490.48,324.77,492.27,324.36,492.7,322.68,498.98z"/>
                    <path id="NO" style="stroke-width:0.1;fill:lightgrey" data-name="Norway" class="land" d="M383.63,267.24,385.42,268.03,386.04,268.02,386.93,269.5,387.4,269.37,387.31,270.27,386.41,270.7,385.01,270.96,384.8,271.14,383.6,271,382.92,269.78,381.8,269.48,381.8,269.09,382.53,268.17,383.63,267.24zM419.17,294.6,419.54,297.15,419.53,298.04,419.36,298.9,419.11,299.34,418.63,299.53,417.46,299.45,415.88,298.45,414.85,297.5,414.53,297.46,414.4,297.58,414.64,298.53,414.58,299.26,414.42,300.05,414.21,300.77,413.91,301.37,413.28,302.14,412.2,302.75,409.21,303.94,408.97,304.46,408.01,307.75,407.74,308.23,407.39,308.64,406.36,309.16,405.87,308.44,405.47,307.34,405.56,306.24,406.76,304.13,407.88,302.63,408.2,302.11,408.84,300.6,407.55,296.77,405.25,295.61,402.64,293.83,401.68,292.88,400.18,290.91,399.13,289.14,398.17,289.08,397.12,289.52,395.48,291.14,394.52,291.95,394,292.19,393.87,292.23,392.7,291.77,391.39,291.67,390.34,291.8,389.94,292.02,388.48,294.62,387.46,295.93,386.9,296.38,386.49,297.13,386.15,298.37,385.4,302.64,384.84,304.23,384.72,305.21,384.85,308.15,384.72,309.76,384.03,311.09,383.55,311.69,382.92,311.81,382.08,312.15,381.36,312.92,380.84,313.96,380.27,316.29,379.29,317.15,378.35,316.9,377.68,316.05,376.25,315.38,375.19,314.96,373.99,314.04,372.94,313.35,371.97,313.21,371.42,314.09,370.98,314.92,369.34,315.59,368.4,316.12,367.2,316.24,366.71,315.65,364.95,315.26,362.87,314.8,362.26,314.81,362.07,313.75,361.52,312.28,360.03,309.71,359.43,308.8,358.28,306.67,356.95,304.46,356.76,304.41,355.87,304.33,354.56,304.41,353.74,304.91,353.21,305.54,353.12,306.06,353.63,308.06,353.47,308.55,353.21,308.79,352.02,308.23,350.59,308.27,350.23,308.88,349.35,308.95,346.83,309.19,347.94,310.81,348.31,311.46,348.38,312.41,348.19,314.17,347.66,315.67,347.03,316.89,345.83,318.09,347.66,319.28,346.42,320.87,345.84,321.49,345.17,321.38,343.96,320.83,341.05,319.5,339.67,319,338.43,318.84,337.76,318.86,335.13,317.72,334.62,317.84,333.68,318.34,333.57,319.45,333.63,322.21,333.77,324.32,333.43,325.54,333.08,326.36,332.02,328.57,329.66,327.07,328.04,326.08,327,327.4,324.4,329.83,323.07,334.57,322.99,334.72,322.2,335.92,321.19,336.47,320.43,336.74,319.99,338.13,321.02,340.12,321.55,341.17,322.05,342.85,321.96,343.92,321.84,344.58,320.73,345.94,318.35,349.49,316.15,353.18,315.25,354.23,315.65,357.32,314.92,358.22,313.43,359.24,312.67,359.63,311.85,359.86,309.33,360.26,309.78,363.53,309.95,364.97,309.94,365.82,309.68,366.64,309.37,368.22,308.9,373.81,308.54,374.41,308.04,375.91,306.45,379.49,305.17,381.86,303.32,385.25,304.82,386.31,306.19,387.08,306.48,388.27,306.67,390.25,306.62,391.59,306.1,392.8,305.69,393.64,305.41,394.05,303.46,393.64,300.96,393.12,300.31,393.11,298.86,393.49,297.55,394.27,296.86,394.92,296.67,395.18,295.8,396.66,294.25,399.28,293.39,400.42,293.64,401.99,292.21,405,293.15,408.02,293.19,408.12,293.68,409.33,293.16,410.12,292.95,410.54,293.02,411.91,293.16,413.45,293.04,414.35,292.99,415.35,294.26,419.8,294.24,420.84,294.18,421.51,293.79,424.24,293.26,427.9,294.18,428.85,295.49,429.99,296.23,430.43,297.31,431.78,298.14,433.09,298.03,433.96,297.79,434.92,297.44,435.59,297.11,436.5,296.97,437.18,296.81,437.36,295.36,437.43,294.6,437.69,294.19,437.97,294.33,439.5,295.21,442.29,295.94,444.27,296.18,445.56,295.93,446.87,295.69,447.54,295.68,448.44,295.49,450.23,294.92,451.13,294.18,452.11,293.35,452.84,292.7,453.04,292.14,453.13,291.76,453.5,291.42,454.58,291.1,455.72,290.07,457.12,290.09,457.6,290.49,459.25,290.86,461.12,290.55,462.86,290.28,464.67,289.81,465.88,289.14,466.31,288.65,466.1,288.1,464.44,288.09,464.06,287.95,463.55,286.38,463.04,286.1,463.06,285.48,462.77,285.12,462.68,284.37,462.51,283.75,461.04,283.1,459.81,283,459.29,283.03,456.98,282.83,455.95,282.76,454.82,282.35,455.74,282.59,457.19,282.08,457.79,281.44,458.09,281.5,458.93,281.76,459.09,281.82,459.96,281.66,461.25,280.39,464.11,280.14,464.41,279.97,464.8,279.32,464.54,278.49,465.33,277.7,465.46,277.41,464.56,276.3,463.38,275.78,463.44,276.25,464.03,276.71,464.79,276.45,465.29,276.19,465.62,275.74,465.79,274.12,466.78,274.69,467.45,274.2,468.2,273.64,468.31,273.33,468.66,273.23,469.14,271.55,470.5,268.81,473.96,267.4,474.93,266.42,475.94,265.55,475.92,264.47,476.77,261.71,477.52,259.88,477.18,258.61,477.48,257.92,476.89,257.84,476.49,257.87,476.25,257.98,475.97,257.75,475.87,257.25,475.82,257.03,476.11,257,476.75,256.77,476.92,255.82,476.55,255.58,476.22,255.92,475.54,256.5,474.94,256.4,474.81,256.29,474.44,256,474.39,255.15,474.48,254.46,474.37,252.21,473,251.69,472.27,249.87,471.09,249.06,469.85,248.6,468.47,248.63,467.23,248.86,465.24,249.24,464.75,250.87,465.45,252.51,466.61,252.77,466.55,253.29,465.64,254.29,464.91,254.01,464.7,252.51,465.54,251.96,465.08,251.1,464.13,251.1,463.64,251.5,463.15,251.63,462.48,251.42,461.85,251.52,461,252.19,460.09,253.18,459.16,253.9,458.27,254.64,457.72,254.56,457.53,253.72,457.88,252.91,458.48,251.96,459.47,250.8,460.28,249.95,460.59,249.54,460.85,248.91,461.1,248.26,462.25,247.56,462.74,246.28,462.79,246,461.95,246.36,458.96,246.75,457.49,247.17,456.45,247.83,456.27,248.3,455.51,248.68,455.51,249.02,455.86,250.31,456.2,250.95,455.23,251.79,455.09,253.3,454.1,253.27,453.92,252.25,454.14,251.62,454.17,250.73,454.42,250.25,454.24,250.03,453.51,250.39,452.84,251.82,451.24,252.32,450.54,252.6,449.89,252.55,449.44,252.79,448.52,254.19,446.89,255.33,446.15,255.71,446.79,255.39,448.78,255.39,449.61,256.29,446.7,256.69,446.01,257.14,445.52,258.24,445.19,258.55,444.73,257.27,444.88,254.18,445.99,252.88,446.99,252.53,447.75,251.63,448.89,251.2,449.64,251.02,450.72,250.51,451.31,249.82,451.53,248.87,452.91,248.44,454.01,247.5,454.88,246.89,455.55,246.7,455.79,246.37,456.45,246.1,456.5,245.86,456.11,245.82,455.26,245.92,453.9,246.38,452.92,246.6,451.95,246.29,451.05,246.5,450.48,246.9,450.5,247.65,450.76,248.44,450.72,249.75,450.01,249.54,449.59,248.98,449.53,247.93,449.59,247.04,448.89,246.35,447.5,246.04,445.63,246.25,445.1,248.79,443.19,249.48,442.32,249.08,442.23,248.13,443.29,246.76,443.94,245.9,443.03,245.45,442.05,245.19,439.97,245.28,438.89,245.18,437.48,245.76,437.02,246.41,437.26,247.06,437.35,248.52,437.23,251.74,436.38,253.81,436.88,254.66,436.84,255.95,436.1,257.08,436.03,257.92,436.59,258.39,437.23,258.44,438.09,258.83,438.66,259.1,438.48,258.89,437.8,258.84,436.74,262.24,435.54,262.64,435.08,261.29,434.92,260.91,433.82,261.62,432.15,261.55,431.94,260.8,432.82,260.43,434.05,260.58,435.04,260.43,435.49,259.74,435.7,258.19,435.78,257.19,435.36,256.27,435.13,255.95,434.82,256.06,434.12,255.88,433.97,255.5,434.6,255.16,435.86,254.43,436.15,252.4,435.68,249.47,435.96,248.15,436.59,247.3,436.51,245.84,435.4,245.26,434.52,245.05,432.74,245.14,431.95,246.28,431.62,246.86,431.64,247.4,431.22,246.92,430.95,246.25,430.41,245.79,429.32,245.1,428.97,244.63,428.04,244.51,426.63,244.65,425.65,245.02,425.34,245.91,425.55,248.25,425.39,250.46,426.38,251.95,426.95,254.99,426.66,256.76,425.77,256.44,425.53,254.51,426.04,252.73,426.02,249.59,425.02,248.3,424.69,246.91,424.83,246.19,424.53,245.77,423.53,246.08,421.62,246.74,421.2,247.1,421.7,247.52,421.73,247.96,420.93,248.38,420.47,248.71,419.44,249.95,418.45,250.48,418.37,251.23,417.91,251.71,418.04,252.02,418.5,252.41,418.87,253.25,418.83,255.75,418.04,256.02,417.81,256.5,417.15,254.92,417.44,253.61,417.91,252.76,418.03,252.64,417.46,252.95,416.94,253.44,416.4,253.68,415.47,254.22,415.07,254.8,415.09,256.01,414.92,256.86,414.68,258.31,414.84,260.48,415.2,261.88,416.06,262.41,415.99,262.97,415.76,263.22,415.44,262.12,415.08,262.06,414.56,262.2,414.18,263.99,413.46,265.94,413.3,265.61,412.72,261.32,413.59,260.2,413,259.32,413,258.74,413.34,257.09,413.76,256.79,413.46,257.1,412.45,258.09,410.78,258.17,410.37,258.63,409.97,261.19,409,262.42,407.87,262.98,407.72,263.53,407.8,264.36,407.67,265.98,407.99,266.72,409.41,267.39,409.85,269.5,411.62,269.4,411.11,267.58,408.72,266.88,408.12,266.37,406.94,266.54,405.82,267.13,405.08,269.21,404.67,269.58,404.24,269.62,403.49,269.3,402.98,268.53,403.01,267.9,402.69,267.73,401.89,267.98,401.34,269.18,400.34,269.83,400.02,270.97,399.67,272.94,400.46,273.09,400.87,272.54,401.86,272.6,402.42,273.08,402.48,274.21,400.81,275.53,400.58,276.08,400.22,276.72,399.99,277.63,401.51,278.03,401.99,278.33,402.19,278.62,403.45,278.9,403.51,279.3,402.88,280.03,402.55,281.05,402.33,282.73,402.67,283.5,402.42,283.87,402.45,283.51,401.32,283.29,400.99,283.64,399.98,284,399.59,285.17,398.87,286.28,398.55,287.01,397.87,287.98,397.25,287.83,396.75,287.56,396.17,286.93,396.13,286.67,395.81,287.47,395.06,288.57,394.22,288.37,393.89,287.55,393.51,286.92,393.8,285.99,394.45,284.91,395.47,285.26,395.77,285.81,396.63,285.05,397.78,281.04,400.8,279.13,401.68,278.25,401.54,278.04,400.72,277.63,400.11,277.19,398.85,276.45,398.89,276.03,399.16,275.85,398.75,276.17,397.4,276.79,396.33,277.85,395.52,278.35,394.55,278.83,392.99,280.35,391.5,282.56,387.8,284.37,386.61,285.03,385.31,286.1,384.73,287,383.71,287.72,383.61,289.01,382.69,289.75,381.59,289.27,381.52,288.13,382.23,287.48,382.52,287.53,381.34,287.84,380.13,288.78,379.02,293.29,375.78,293.74,376.32,294.28,377.26,295.64,377.05,297.18,375.21,298.37,373.2,297.73,373.55,297.03,374.37,295.66,375.52,295.02,375.7,294.66,375.55,294.46,374.79,293.99,374.54,293.56,374.71,293.12,374.17,293.04,372.83,293.6,370.82,294.05,369.49,294.54,368.48,296.44,365.6,296.85,364.02,297.71,363.19,298.83,363.37,299.17,363.13,298.78,362.09,297.56,361.26,297.49,360.74,301.55,359.37,303.48,359.42,304.05,358.74,305.11,358.3,305.9,357.46,305.49,357.09,303.53,357.86,302.3,358.22,301.74,358.21,301.31,358.47,299.74,358.58,299.4,355.22,299.65,353.39,300.23,353.43,300.37,351.67,301.04,350.63,301.97,350.4,302.44,349.96,303.12,349.05,304.25,349.26,305.4,349.06,305.11,348.63,303.68,348.08,303.33,347.13,303.83,346.6,304.38,346.21,304.87,346.14,305.82,344.27,306.4,343.47,307.05,343.61,307.96,342.79,308.85,343.07,309.71,342.53,310.89,342.17,315.2,342.03,315.32,341.26,314.42,341.08,311.22,340.89,309.58,340.9,308.9,341.1,308.64,340.83,308.69,340.37,309.28,339.64,309.56,338.83,310.75,336.85,312.14,335.52,313.21,335.86,314.34,337.13,315.15,337.28,315.53,337.69,316.12,339.43,316.4,339.49,316.27,337.82,317.05,336.45,316.85,336.08,315.68,336.57,314.78,336.06,314.07,335.03,313.87,334.09,314.31,333.16,314.73,332.69,314.44,332.14,312.67,333.61,311.42,333.95,310.93,333.74,311.2,332.41,311.05,331.35,312.73,328.74,313.3,328.43,314.25,328.65,315.1,329.39,315.81,329.27,316.58,328.87,316.48,328.16,314.8,327.88,314.37,327.29,314.53,326.71,315.68,326.09,316.82,324.98,318.13,324.66,319.18,323.81,319.38,324.01,319.56,324.34,319.94,327.45,320.88,329.98,321.23,330.07,320.87,327.92,321.2,327.3,321.63,326.83,321.77,326.3,321.28,326.11,320.88,325.34,320.3,322.86,320.5,322.21,321.74,320.89,323.29,320.58,324.95,321.51,325.53,321.52,326.49,321.27,328.12,320.51,329.08,320.21,329.58,320.21,329.7,319.83,329.24,319.58,329.09,319.33,328.72,319.19,327.22,319.61,323.06,319.48,322.66,319.03,322.59,318.26,323.03,317.16,323.51,316.55,325.08,315.44,326.74,315.29,328.49,313.33,329.15,311.85,329.53,309.56,330.6,307.69,333.27,306.63,333.37,306.16,333.09,305.19,333.11,303.42,333.85,301.36,334.33,300.64,334.56,300.56,335.13,301.23,335.83,302.67,336.93,303.49,338.36,303.63,338.75,303.23,337.63,302.41,336.79,301.34,336.72,300.26,337.12,299.69,337.74,299.75,338.52,299.63,339.25,298.9,339.36,298.39,339.39,297.69,339.57,296.98,340.64,295.29,343.93,294.18,344.17,294.63,344,297.9,343.62,300.01,343.63,301.54,344.27,300.01,345.13,295.79,345.78,293.79,346.5,292.64,347.03,292.38,347.54,291.79,348.22,291.43,348.43,291.89,348.65,292.95,348.28,296.66,348.32,297.83,347.91,299.39,346.34,302.84,346.41,303.28,346.76,303.12,347.37,302.55,349.32,299.27,351.02,299.68,351.04,299.42,350.49,298.45,349.83,297.52,349.62,296.37,349.71,293.28,350.23,292.05,351.69,292.18,352.57,292.01,352.98,292.56,353.87,292.52,354.48,290.29,355.68,290.1,356.74,291.57,358.01,292.56,359.04,293.99,359.33,293.6,358.77,290.27,358.17,289.05,356.86,288.42,355.46,286.91,355.1,286.24,355.16,285.74,356.39,285.25,358.02,285.81,359.47,284.54,359.86,284.89,360.97,284.22,361.66,285.12,362.09,284.85,362.33,283.66,364.1,282.91,365.23,283.6,365.83,284.31,366.11,285.67,366.54,288.35,367.42,289.78,367.96,290.49,368.61,290.68,368.92,289.97,368.31,289.1,368.15,288.29,368.44,286.26,368.78,285.46,370.67,282.41,372.26,280.82,373.21,280.69,374.87,277.11,375.35,276.45,375.78,276.3,375.67,275.42,374.76,274.86,374.73,273.76,375.93,272.42,377.38,270.17,378.1,270.01,378.55,270.64,379.97,271.66,380.83,272.82,381.46,273.41,381.87,273.29,382.21,272.41,382.61,272.01,383.52,272.23,384.05,272.8,384.47,272.87,384.85,273.21,384.94,273.96,384.16,274.77,382.83,276.91,381.52,279.34,381.09,280.61,380.67,283.93,379.64,286.04,379.56,287.51,379.98,288.2,381.11,287.66,382.5,285.69,382.85,283.6,386.33,277.86,387.96,274.66,389.82,271.99,390.86,271.43,391.35,273.2,390.95,275.51,390.17,276.97,390.75,277.64,390.64,279.37,390.45,280.33,390.34,281.33,390.35,282.21,390.89,281.97,393.07,280.17,393.62,278.2,394.13,276.72,394.37,275.44,395.22,274.23,396.81,274.22,396.88,273.74,394.95,272.04,394.72,271.28,395.37,270.25,397.16,268.29,398.07,268.51,398.62,268.96,400.82,269.3,402.51,270.7,402.44,272.88,402.07,273.79,401.7,274.34,399.54,275.98,399.18,276.79,399.86,277.07,401.32,276.25,401.69,276.99,401.23,278.84,401.15,281.6,400.98,283.2,400.98,284.66,401.16,285.43,401.75,282.34,401.95,281.54,402.81,280.37,403.13,277.99,403.97,275.13,404.91,273.45,405.46,272.99,407.28,273.06,408.06,273.69,408.75,275.09,409.27,275.65,410.89,276.24,411.45,276.98,411.56,277.42,411.95,277.51,413.05,276.46,413.76,276.28,414.92,277.92,414.69,279.14,414.76,279.52,416.16,279.44,417.33,279.92,419.55,282.38,419.79,283.53,419.67,284.92,416.48,286.44,415.09,287.89,412.82,288.45,405.12,287.48,405.28,288.53,410.64,290.81,410.95,291.46,410.77,292.83,410.77,293.92,410.87,294.66,411.27,295.35,411.92,295.68,413.26,295.51,413.92,295.88,414.37,295.33,414.53,293.47,414.92,293.06,415.67,293.6,415.99,295.58,416.2,295.78,416.58,294.37,417.32,294.47,418.13,294.36,419.17,294.6zM369.19,273.98,369.06,274.62,368.83,275.24,368.28,275.9,366.68,278.49,365.75,278.91,365.45,279.32,365.08,279.56,363.91,279.2,363.57,279.73,363.25,280.08,362.41,280.21,361.91,280.1,360.63,279.14,359.87,278.1,359.46,277.22,360.64,277.23,361.06,277.02,361.85,277.2,362.33,276.29,363.34,276.4,365.27,275.76,365.98,276.12,367.6,273.98,368.11,274.04,368.89,273.43,369.19,273.98zM373.07,279.03,371.79,279.84,371.05,279.15,370.73,278.43,370.69,276.85,370.86,275.88,371.46,275.38,371.85,275.74,371.96,276.05,372.66,276.35,373.48,277.35,373.07,279.03zM370.37,279.4,370.49,280.34,370.54,281.12,369.91,282.24,368.46,283.71,368.55,284.1,368.05,284.48,367.3,284.76,366.9,284.49,366.95,283.23,366.83,282.86,366.27,283.35,365.67,282.71,365.67,282.07,365.83,281.51,366.38,280.66,367.29,280.07,367.89,280.29,369.9,278.03,370.12,278.5,370.37,279.4zM344.48,286.07,344.82,286.3,345.16,286.16,345.44,286.36,346,287.41,346.61,287.82,346.64,288.34,346.08,288.85,345.35,289.01,344.57,288.83,344.34,288.18,344.1,287.09,343.44,286.02,343.34,285.08,343.91,284.94,344.48,286.07zM341.03,289.05,341.63,290.12,342.15,290.02,342.31,289.61,342.67,289.41,343.4,289.98,343.3,290.94,342.29,292.15,341.56,293.88,340.64,294.28,340.19,294.07,339.36,295.06,338.7,296.09,338.01,297.38,337.97,298.05,337.86,298.56,335.34,299.06,334.43,299.4,333.46,298.97,333,298.11,333.15,297.65,334.11,297.46,334.15,296.67,334.39,296.18,334.7,295.92,334.93,294.9,335.32,294.63,336.03,294.88,336.51,294.14,336.78,294.02,337.12,294.63,337.28,293.79,337.12,293.02,337.2,292.5,338.13,291.14,338.53,290.15,339.1,289.51,339.66,289.61,339.82,288.67,339.66,287.7,339.72,287.06,340.21,285.52,340.74,285.46,340.99,286.83,341.03,289.05zM351.28,288.59,350.92,289.04,350.36,289.23,350.06,288.95,349.64,288.76,349.16,288.85,348.77,288,348.81,287.3,349.36,286.33,350.45,285.79,351.33,286.01,351.55,286.29,351.28,288.59zM413.03,294.34,411.75,294.91,411.6,294.44,411.88,293.71,412.22,292.21,412.74,292.27,413.27,292.84,413.69,293.52,413.03,294.34zM329.24,298.23,330.05,299.33,330.41,298.99,331.13,298.87,331.66,299.25,332.1,299.95,332.61,299.98,332.94,300.89,333.1,302.08,332.73,302.96,332.19,303.36,332.05,304.39,332.25,305.84,331.06,306.33,329.68,306.55,329.14,305.87,328.03,307.13,326.94,309.09,326.41,309.32,326.37,308.7,325.59,308.27,324.58,308.25,324.61,307.79,324.8,307.46,325.67,306.98,325.84,305.98,325.68,304.2,325.84,303.33,325.87,302.72,326.41,302.02,328.28,302.35,328.51,301.68,328.37,301.25,327.4,300.51,327.55,300.01,328.25,299.56,328.91,299.5,329.11,298.74,329.14,298.41,329.24,298.23zM317.52,317.74,317.6,317.87,318.51,316.09,319.53,315.53,319.59,314.91,319.99,314.31,319.94,313.33,320.14,312.53,320.66,312.31,320.98,312.04,321.34,311.89,321.99,312.54,322.35,313.26,322.81,314.87,322.62,316.41,321.4,317.61,320.43,318.16,319.45,319.53,318.96,320.65,318.54,320.89,318.27,320.8,318.03,320.53,317.54,320.53,316.99,321.5,315.34,322.29,314.7,322.06,314.67,321.09,314.28,321.17,313.66,322.33,313.06,322.72,312.65,322.83,311.91,322.4,309.9,324.36,308.02,324.73,307.4,324.5,307.4,323.3,308.62,321.76,309.61,320.69,313.04,319.94,315.18,316.73,315.69,313.22,316.2,311.94,315.96,311.22,315.38,311.09,315.35,309.98,315.65,308.76,316.77,307.08,317.39,306.36,318.41,304.33,318.89,303.87,319.45,303.87,320,304.4,319.9,305.49,319.08,307.46,317.86,309.12,318.01,310.31,318.49,311.29,318.61,312.96,318.64,314.56,317.72,316.71,317.52,317.74zM313.79,310.64,314.67,312.53,315.07,313.62,314.74,315.68,313.89,316.72,312.58,316.91,311.66,316.82,311.08,316.32,311.01,315.76,310.67,315.6,309.79,316.32,309.18,316.41,308.39,315.85,308.18,314.96,309.01,313.84,309.4,312.97,310.32,313.04,310.55,313.32,311.07,313.49,311.38,312.43,311.31,311.7,311.54,311.19,312.65,311.56,312.65,309.57,313.08,309.43,313.26,309.5,313.58,309.92,313.79,310.64zM304.82,323.15,305.22,323.46,306.26,323.37,306.47,323.49,306.32,324,305.87,324.56,304.92,324.91,304.49,325.76,304.18,326.05,303.36,326.06,302.87,326.25,302.28,327.01,301.8,326.45,301.66,326.85,301.58,327.56,301.31,327.77,300.49,328.03,300.29,326.37,300.67,325.77,300.96,325.05,301.42,324.94,301.83,325,302.56,323.45,303.57,323,304.22,322.95,304.82,323.15zM298.75,330.2,297.76,331.14,298.12,329.42,298.66,327.67,299.4,326.66,299.77,327.05,299.6,327.9,299.6,328.73,299.45,329.12,298.75,330.2zM295.04,361.69,294.42,361.8,294.52,361.07,295.03,360.38,295.22,359.9,295.32,359.34,295.76,358.91,296.39,359.46,296.4,360.38,296.09,361.22,295.04,361.69zM295.64,364.03,295.1,364.08,295.11,363.4,295.42,362.79,295.91,362.38,296.54,362.27,297.24,362.22,297.45,362.55,297.05,363.01,295.64,364.03zM292,368.54,291.55,369.04,290.72,368.9,290.63,368.47,290.87,367.61,291.38,367.25,292.03,367.32,292.24,367.68,292,368.54zM287.04,380.77,286.69,381.21,285.91,380.85,284.36,381.13,283.74,380.7,284.23,379.86,285.63,378.97,286.38,379.02,287.14,380.1,287.04,380.77zM268.47,399.34,267.7,399.38,267.23,399.04,268.34,398.36,270.07,397.72,270.24,397.3,270.45,397.25,270.75,397.76,270.79,398.45,270.59,398.79,268.47,399.34zM265.99,404.31,265.33,404.32,264.55,404.09,264.06,403.6,263.98,403.17,264.89,402.63,265.8,402.31,266.22,402.9,266.25,403.88,265.99,404.31zM244.84,436.83,244.24,437.01,243.77,436.86,243.94,435.53,244.19,435.31,244.55,435.23,244.94,435.95,244.84,436.83zM245.7,447.51,245.72,449.12,245.1,449,244.82,448.38,244.74,447.99,244.79,447.06,244.65,446.09,244.83,445.61,245.05,445.55,245.46,446.4,245.7,447.51z"/>
                    <path id="LV" style="stroke-width:0.1;fill:lightgrey" data-name="Latvia" class="land" d="M395.51,483.74,396.3,483.79,396.58,483.98,396.76,484.96,397.66,485.73,398.5,486.37,398.71,486.67,398.78,487.23,398.72,487.89,398.62,488.24,398.27,488.63,397.96,489.63,397.92,490.57,397.44,492.2,397.55,492.23,398.56,491.94,398.85,492.11,399.07,492.47,399.14,493.49,399.47,493.94,399.81,494.66,399.92,495.21,400.56,495.87,400.61,496.3,401,497.81,401.16,498.67,401.23,499.34,401.03,500.19,400.86,500.76,400.66,500.72,400.08,500.88,399.17,501.56,397.81,503.18,397.46,503.54,397.1,504.77,397.02,504.89,396.23,504.84,396.01,504.81,395.22,504.83,393.49,504.51,392.82,504.72,391.94,505.96,391.6,506.14,390.58,506.32,390.4,506.46,390.06,506.4,389.11,506.03,388.3,505.47,387.82,504.73,386.98,503.72,386.44,503.2,385.58,502.55,384.14,501.22,383.62,500.91,381.07,500.33,380.15,500.07,379.3,498.55,379.03,497.67,378.61,497.51,378.16,497.7,377.66,497.87,376.51,498.91,376.14,499.05,375.43,499.07,373.77,499.29,373.01,498.92,371.69,498.51,370.98,498.44,370.35,498.45,367.54,498.05,367.03,498.49,366.51,498.57,366.01,497.89,365.39,497.69,364.7,497.92,363.45,497.95,361.96,497.73,360.07,497.57,359.79,497.64,357.68,498.55,357.17,498.68,354.89,500.21,353.08,501.64,352.87,499.36,352.98,494.76,353.25,492.47,354.5,491.13,355.13,490.08,355.49,488.68,355.6,487.38,355.86,486.3,357.67,483.2,359.11,482.86,361.05,481.99,363.23,481.27,363.65,482.19,363.86,482.89,366.48,485.44,367.15,486.29,368.16,489.19,370.58,490.66,372.49,490.2,373.32,489.48,374.85,488.17,375.53,487.2,375.67,486.27,375.4,482.27,374.98,480.52,375.12,479.43,375.39,479.48,376.04,478.95,378.17,477.97,378.6,477.93,379.08,477.73,380.43,476.98,380.86,477.38,381.22,477.83,381.42,477.84,381.52,477.67,381.49,477.38,381.58,477.17,381.97,477.29,383.53,478.51,384.12,478.8,384.53,478.88,385.02,479.45,386.35,479.84,386.51,480.13,386.61,480.5,387.86,482.05,388.42,482.82,389.52,483.53,389.99,483.7,391.92,482.98,392.46,482.72,392.91,482.72,393.36,483.1,394.4,483.61,395.34,483.77,395.51,483.74z"/>
                    <path id="JE" style="stroke-width:0.1;fill:lightgrey" data-name="Jersey" class="land" d="M197.9,577.58,197.95,578.1,197.66,578.22,197.41,578.04,196.91,578.04,196.43,578.15,196.54,577.22,197.47,577.34,197.9,577.58z"/>
                    <path id="IS" style="stroke-width:0.1;fill:lightgrey" data-name="Iceland" class="land" d="M106.9,358.61,107.67,358.67,108.93,358.1,109.46,357.72,110.76,356.42,111.52,356.05,112.7,356.14,113.27,356.05,113.29,356.18,112.56,356.71,111.98,356.89,111.15,357.68,110.35,359.46,109.76,360.33,109.77,360.71,110.49,361.39,111.27,361.78,111.99,361.43,112.3,361.57,112.59,362.07,112.75,362.58,112.78,363.07,112.65,364.11,112.22,365.15,111.64,366.02,111.72,366.29,112.19,366.43,114.41,365.87,114.65,365.91,114.77,366.19,114.8,366.71,114.92,367.18,115.14,367.6,115.07,368.02,114.1,369.38,115.25,368.53,116.16,368.29,117.72,368.71,118.35,369.2,118.73,370.06,119.27,369.78,119.5,369.8,119.85,370.29,119.87,370.81,119.61,371.55,119.52,372.24,119.25,372.52,118.74,372.72,118.6,372.95,118.82,373.47,119.15,373.98,119.61,374,119.7,374.24,119.71,374.52,119.64,374.85,119.49,375.07,119.25,375.2,118.93,375.56,120.1,376.35,120.25,376.65,120.27,377.08,120.18,377.55,119.98,378.06,119.62,378.37,118.78,378.42,118.27,378.75,118.44,379.3,118.43,380,118.27,380.83,117.61,382.07,116.98,382.73,116.37,383.15,115.28,383,114.69,382.67,114.76,383.74,114.15,384.4,114.27,384.94,114.48,385.22,114.37,385.92,114.08,386.62,113.6,387.37,113.06,387.83,111.97,388.4,111.04,389.33,110.41,389.7,108.83,389.68,107.22,390.28,104.95,391.55,103.42,392.55,102.24,393.69,100.68,395.55,99.52,396.33,98.85,396.53,97.55,396.7,96.46,397.2,92.84,398.14,91.61,398.65,91.45,399.11,90.94,399.81,90.91,400.06,91.13,400.26,91.18,400.51,90.73,401.33,89.83,401.93,89.41,401.92,88.9,401.41,88.67,401.42,88.59,401.5,88.58,401.66,88.87,402.27,88.33,402.56,85.97,403.27,81.96,402.74,80.37,402.19,78.41,401.32,77.24,401.09,75.58,401.03,74.22,399.8,73.59,399.04,73.54,398.72,73.61,398.36,73.75,398.11,73.96,397.98,74.41,397.97,74.47,397.86,74.13,397.24,73.8,397.44,72.92,398.31,72.53,398.28,72.02,397.84,72,397.42,71,397.26,70.13,396.74,69.27,395.98,69.14,395.69,69.55,395.27,69.47,395.19,69.16,395.12,68.53,395.26,67.58,396.21,67.17,396.43,60.95,396.66,59.37,396.76,59.07,396.9,58.79,396.28,58.55,394.89,58.46,393.97,58.52,393.52,58.74,392.99,59.08,393.08,59.4,393.5,59.69,394.11,60.03,394.4,62.2,393.66,63.08,393.17,63.45,392.7,63.89,391.9,64.36,391.49,64.58,391.1,65.02,389.87,65.32,389.3,65.69,388.87,66.11,388.6,67.07,388.41,66.44,388.12,65.83,388.12,63.79,389.42,63.1,389.42,63.13,389.22,63.42,388.85,64.12,388.21,63.64,388.17,63.45,387.88,63.43,387.27,63.79,386.29,65.46,384.99,66.04,384.8,66.21,384.54,65.99,384.33,65.64,384.21,63.97,385.54,62.74,386.01,62.38,385.92,61.75,385.4,61.55,385.17,61.27,384.57,61.3,384.22,61.89,383.17,61.79,382.96,61.39,382.86,60.31,381.89,58.61,381.99,54.39,381.42,53.52,381.66,52.09,382.49,51.22,382.77,50.82,382.59,50.45,382.15,50.12,381.55,49.82,380.8,49.95,380.28,50.51,379.98,50.92,379.84,52.07,380.02,53.46,379.5,54.36,379.39,54.61,379.3,55.14,378.74,55.4,378.6,55.8,378.8,56,379.18,57.41,378.59,57.89,378.29,57.94,378.11,58.16,377.9,58.86,378.22,59.42,378.23,60.13,378.01,61.38,377.91,64.18,377.86,64.6,377.38,64.8,376.95,65.05,375.86,64.94,375.64,63.19,376.64,62.79,376.62,60.76,376.09,60.03,375.49,60.27,375.01,61.34,373.97,62.45,373.13,64.08,372.22,64.46,371.87,64.5,371.45,63.42,370.71,61.36,370.91,60.84,370.03,59.13,369.5,57.99,369.83,57.39,369.29,55.91,370.04,52.66,371.11,51.37,371.85,50.67,372.1,49.87,371.49,48.49,370.81,46.94,370.6,46.8,370.19,47.71,368.96,48.33,368.73,48.95,368.84,50.14,369.71,50.96,369.98,49.93,368.71,49.96,368.22,49.88,367.49,49.56,367.18,49.25,366.37,49.38,366.09,49.78,365.99,50.61,366.27,52.59,367.68,53.55,367.43,54.09,366.91,54.81,366.52,54.6,366.32,52.9,366.3,51.99,366.01,51.53,365.6,51.13,364.9,51.27,364.57,51.74,364.31,53.2,364.39,52.24,363.16,51.57,362.46,51.5,362.12,51.54,361.69,51.63,361.4,51.77,361.26,53.44,361.98,53.81,362.01,53.47,361.54,52.74,360.86,52.7,360.6,53.01,360.39,53.16,360,53.18,359.68,53.68,359.4,54.2,359.39,54.71,359.64,56.31,360.98,56.54,361.35,56.61,361.85,56.53,362.46,56.6,362.7,57.23,362.49,57.72,362.75,57.97,362.68,58.59,361.76,59.02,361.98,59.27,362.41,59.36,362.8,59.39,363.33,59.28,364.44,59.31,364.6,59.75,363.97,60.49,363.92,60.58,363.61,60.6,362.44,60.54,361.45,60.46,361.25,58.03,359.88,57.61,359.55,57.08,358.87,57.19,358.53,57.66,358.23,58.37,358.11,60.03,358.12,60.2,357.98,59.88,357.62,59.11,357.39,58.93,357.18,58.84,356.79,57.93,357,56.92,357.01,55.94,356.77,55.92,356.46,56.31,356,57.1,355.24,57.47,355.06,58.59,355.19,59.69,354.98,60.59,355.23,61.3,355.98,62.31,357.3,63.68,358.14,63.8,358.4,64.53,359.08,65.98,360.92,67.45,361.99,67.52,362.26,67.27,362.57,66.71,362.94,66.84,363.15,67.58,363.42,68.11,364.14,68.14,364.45,67.66,366.66,67.41,367.12,67.11,367.37,65.76,366.96,66.08,367.66,67.05,368.4,67.27,368.82,67.12,369.22,67.23,369.32,67.58,369.1,67.73,369.33,67.67,370.01,67.52,370.57,67.28,371.02,67.35,371.21,67.73,371.15,68.08,371.27,68.64,371.89,69.09,373.77,69.31,374.37,69.47,373.83,69.68,372.46,69.87,371.76,70.05,371.73,70.2,371.5,70.33,371.07,70.59,369.54,71.5,368.38,71.94,368.02,72.35,367.95,72.54,368.09,73.23,369.31,73.64,369.51,73.85,369.45,74.14,368.62,74.51,367.03,74.6,365.25,74.4,363.27,74.51,361.86,74.95,361.01,75.52,360.75,76.22,361.08,76.74,361.59,77.76,363.56,78.58,364.59,79.28,365.69,79.65,366.05,80.35,366.23,80.53,366.16,80.66,365.9,80.72,365.47,80.57,362.66,80.77,361.78,81.07,361.15,82.33,360.79,83.01,360.39,83.68,359.75,84.24,359.4,84.68,359.36,85.14,359.61,85.62,360.16,86.37,361.23,87.31,363,88.51,364.31,89.13,366.39,89.27,366.74,89.42,366.79,89.57,366.52,89.67,366.13,89.7,365.21,89.37,363.98,88.25,360.87,88.23,360.27,88.37,359.8,89.16,359.74,91,360.03,91.58,360.52,92.83,362.42,93.18,362.88,93.39,363,93.47,362.77,93.96,362.42,94.29,361.99,94.85,360.94,96.07,359.04,96.32,358.98,96.68,359.13,97.3,359.63,97.6,360.03,98.19,360.33,98.79,360.23,99.62,359.56,100.56,359.15,100.89,358.21,100.95,357.78,100.19,354.95,100.51,354.37,102.15,353.67,103.58,353.62,103.92,353.81,104.83,355.19,105.44,355.88,105.75,356.43,105.83,357.66,106.2,358.11,106.9,358.61z"/>
                    <path id="IM" style="stroke-width:0.1;fill:lightgrey" data-name="Isle of Man" class="land" d="M181.79,523.8,180.43,525.25,179.88,524.99,179.41,525.13,179.28,525.09,179.55,524.56,179.86,523.34,180.43,522.86,181.14,521.6,181.71,521.24,181.9,521.29,182.03,521.41,182.29,522.84,181.93,523.34,181.79,523.8z"/>
                    <path id="GG" style="stroke-width:0.1;fill:lightgrey" data-name="Guernsey" class="land" d="M194.57,574.87,194.34,575.55,193.72,575.32,193.67,575.14,194.37,574.74,194.52,574.75,194.57,574.87z"/>
                    <path id="FO" style="stroke-width:0.1;fill:lightgrey" data-name="Faroe Islands" class="land" d="M168.38,420.19,168.05,421.23,167.58,421.07,167.45,420.96,167.34,420.68,167.39,419.91,167.38,418.79,167.93,419.71,168.38,420.19zM166.86,420.64,166.7,422.57,166.42,422.56,165.93,422.02,165.57,421.91,165.45,422.2,165.47,422.54,165.66,422.76,166.25,424.05,166.3,424.43,166.23,424.61,165.66,424.24,164.29,422.56,163.22,419.8,164.66,419.36,165.7,420.09,166.86,420.64zM163.12,421.91,163.73,422.47,163.94,422.86,163.59,423.24,163.17,423.34,162.66,423.25,161.83,422.84,161.54,421.9,162.11,421.92,162.8,421.74,163.12,421.91zM166.92,426.68,166.78,427.22,166.6,427.21,165.97,426.55,165.46,426.19,165.29,425.88,165.16,425.36,165.44,425.29,165.79,425.41,166.65,425.89,166.9,426.39,166.92,426.68zM166.4,431.8,166.53,432.22,166.38,432.18,165.92,431.69,165.13,430.53,164.86,429.56,164.82,429.12,165.01,429.17,165.18,429.57,165.93,429.83,166.12,430.02,166.12,430.5,166.37,431.07,166.4,431.8z"/>
                    <path id="FI" style="stroke-width:0.1;fill:lightgrey" data-name="Finland" class="land" d="M406.36,309.16,405.91,309.4,404.52,310.31,403.67,310.92,402.65,311.37,402.92,311.97,404.62,312.1,404.88,312.26,405.07,312.57,405.1,313.06,404.93,313.85,403.09,318.17,403.03,319.08,403.63,321.58,404.48,324.52,407.02,325.82,408.91,326.83,410.12,329.22,412.12,332.34,413.18,333.5,413.24,333.86,412.93,335.99,411.64,338.12,410.44,339.91,409.2,342.05,408.23,343.86,407.18,346.03,407.06,346.73,407.04,347.39,407.22,348.12,408.57,350.74,409.09,352.08,409.72,353.51,410.26,355.07,410.57,356.46,411.11,357.82,411.44,358.51,412,359.47,412.67,360.9,412.9,362.03,413.91,365.93,414.01,366.91,413.96,367.64,413.52,367.82,412.53,367.94,411.46,368.41,411.41,368.57,412.11,369.48,411.49,371.03,411.4,373.24,410.75,374.39,410.68,374.66,410.71,374.88,410.83,375.06,412.05,375.36,412.15,375.68,412.16,376.32,412.05,376.91,411.44,377.36,410.78,378.01,410.64,378.61,410.66,379.14,410.88,380.04,411.32,381.08,411.86,381.74,413.81,382.36,414.06,382.87,414.17,383.57,414.13,384.26,413.23,385.62,413.23,386.14,413.6,387.41,414.05,388.61,415.95,389.91,416.6,390.62,416.78,391.18,416.87,392.09,416.86,393.08,416.71,393.95,416.12,395.07,414.74,397.27,413.35,398.13,413.27,398.31,413.7,399.01,416.14,401.81,417.73,403.11,419.88,404.87,421.27,406.25,421.72,407.24,422.32,408.33,422.99,409.23,423.48,410,423.66,410.5,423.64,411.04,422.99,412.65,422.62,413.89,421.97,415.7,421.31,416.96,419.62,419.25,417.13,422.08,416.55,422.93,415.38,424.42,413.39,427.37,412.87,428.03,411.24,430.37,410.49,431.11,409.91,431.8,408.29,434,406.55,435.66,404.84,437.19,404.33,437.97,403.69,438.56,402.93,439.12,402.61,439.44,400.89,441.52,398.5,444.4,398.26,444.44,397.64,444.91,396.67,445.02,396.25,445.37,394.77,444.36,394.52,444.3,393.65,444.55,392.81,445.28,391.26,445.5,390.5,445.74,390.01,446.08,389.91,445.28,390.12,444.26,390.46,443.58,390.49,443.14,390.24,443.19,389.75,444.18,389.48,445.34,388.95,445.93,387.79,446.17,386.65,445.23,386.11,445.24,386.45,445.91,386.68,446.64,386.65,447.05,386.05,446.98,385.37,447.42,384.78,448.05,384.5,448.06,384.1,447.16,383.37,447.58,382.75,448.14,381.48,448.31,380.73,449.05,379.4,449.54,378.66,449.53,376.99,450.13,376.44,451.04,375.95,451.38,375.26,451.1,373.12,451.54,371.08,452.13,370.21,452.1,369.34,451.85,368.42,452.66,367.45,453.75,366.37,454.13,365.98,454,366.29,453.43,367,452.84,367.49,452.04,367.56,451.37,367.22,451.11,366.76,451.03,366.19,450.34,365.63,448.84,365.33,448.76,365.18,449.15,365.01,450.3,364.84,450.63,364.54,450.9,364.19,451.16,363.84,451.29,362.61,451.27,362.45,450.69,362.45,450.45,362.67,449.69,362.48,449.55,362.66,448.95,362.95,448.98,363.29,448.89,363.47,448.59,363.45,448.22,362.97,448.12,362.94,447.87,363.37,446.81,363.43,446.52,363.27,446.46,363,446.57,361.23,446.24,359.05,444.89,358.52,444.82,358.19,443.6,357.66,443.76,356.9,444.47,356.32,443.93,355.7,443.57,355.53,443.02,355.54,442.2,355.49,441.22,355.32,440.08,355.19,438.46,355.31,437.19,355.8,436.24,355.99,435.64,356.22,434.09,356.28,432.27,356.14,431.65,356.18,431.24,356.57,431.24,356.48,430.88,356.31,430.69,356.12,430.28,356.28,430.07,356.75,430.05,356.79,429.92,356.85,429.73,356.48,428.66,356.44,428.15,355.93,426.6,355.36,425.13,354.49,424.06,354.8,422.3,355.15,420.69,355.08,419.92,354.95,418.98,353.88,417.94,353.73,416.47,353.47,414.89,353.56,413.92,353.74,413.18,354.09,412.44,355.85,410.08,355.95,408.85,357.15,408.76,356.59,407.66,356.46,407.03,356.44,406.31,358.15,405.81,358.8,406.22,360.31,405.71,361.65,404.72,361.62,404.19,361.42,403.72,361.13,402.81,361.33,402.55,361.82,402.74,361.6,402.28,361.64,401.8,362.17,402,363.05,400.66,363.08,399.64,364.59,399.1,366.32,396.99,367.12,396.33,367.9,395.86,369.55,393.74,370.25,393.64,370.62,392.2,372.02,390.28,372.45,390.04,373.1,388.3,374.83,386.28,375.92,383.7,376.52,382.78,376.71,381.79,377.38,381.71,377.98,380.98,379.29,380.48,380.59,380.62,381.12,380.96,381.62,380.85,381.57,379.96,381.22,379.42,381.51,378.89,382.19,378.49,382.12,377.6,381.97,377.06,381.4,376.35,381.69,374.75,381.75,372.98,382.02,370.94,381.31,369.85,378.6,367.99,378.1,368.06,377.49,367.82,376.87,366.41,377.15,365.18,377.18,364.73,376.93,364.75,376.54,365.34,375.67,366.03,374.55,365.5,374,365.62,373.28,362.58,372.92,361.41,372.33,359.95,371.28,359.24,371.08,358.83,370.94,358.21,370.89,357.34,370.76,356.06,370.81,355.01,370.94,354.38,371.39,353.96,372.05,352.76,372.18,351.89,372.24,350.55,372.54,349.38,372.88,348.78,372.79,348.31,372.56,347.63,372.07,346.67,371.33,345.49,370.78,344.36,370.54,343.3,370.42,342.35,370.44,341.48,370.64,340.89,371.34,340.15,371.44,339.83,371.16,338.18,370.67,337.88,369.84,337.72,369.37,337.71,369.29,337.53,369.26,337.2,369.36,336.52,369.62,335.74,369.84,335.24,369.87,334.82,369.59,333.37,369.51,331.58,369.6,330.18,370.48,329.14,370.52,328.76,369.42,327.63,368.62,326.35,368.37,325.6,367.45,325.48,366.88,323.29,366.06,322.22,365.24,321.29,364.76,320.86,361.93,319.52,360.81,319.27,359.48,318.48,358.49,317.5,357.64,316.87,356.91,316.08,355.9,315.35,355.61,314.72,354.52,313.55,354,312.78,352.22,311.32,352.16,310.75,352.14,310.19,352.06,309.96,350.23,308.88,350.59,308.27,352.02,308.23,353.21,308.79,353.47,308.55,353.63,308.06,353.12,306.06,353.21,305.54,353.74,304.91,354.56,304.41,355.87,304.33,356.76,304.41,356.95,304.46,358.28,306.67,359.43,308.8,360.03,309.71,361.52,312.28,362.07,313.75,362.26,314.81,362.87,314.8,364.95,315.26,366.71,315.65,367.2,316.24,368.4,316.12,369.34,315.59,370.98,314.92,371.42,314.09,371.97,313.21,372.94,313.35,373.99,314.04,375.19,314.96,376.25,315.38,377.68,316.05,378.35,316.9,379.29,317.15,380.27,316.29,380.84,313.96,381.36,312.92,382.08,312.15,382.92,311.81,383.55,311.69,384.03,311.09,384.72,309.76,384.85,308.15,384.72,305.21,384.84,304.23,385.4,302.64,386.15,298.37,386.49,297.13,386.9,296.38,387.46,295.93,388.48,294.62,389.94,292.02,390.34,291.8,391.39,291.67,392.7,291.77,393.87,292.23,394,292.19,394.52,291.95,395.48,291.14,397.12,289.52,398.17,289.08,399.13,289.14,400.18,290.91,401.68,292.88,402.64,293.83,405.25,295.61,407.55,296.77,408.84,300.6,408.2,302.11,407.88,302.63,406.76,304.13,405.56,306.24,405.47,307.34,405.87,308.44,406.36,309.16zM378.66,378.78,377.66,379.31,376.85,378.98,376.83,377.95,377.33,377.46,378.24,377.26,379.48,377.75,379.67,378.02,378.95,378.22,378.66,378.78zM354.23,405.75,354.31,406.03,354.7,405.96,355.23,405.45,355.61,405.68,355.57,406.41,355.31,406.38,355.24,406.26,354.91,406.68,354.85,406.93,354.47,407.09,353.77,406.38,353.33,405.21,354.36,405.21,354.26,405.49,354.23,405.75zM355.8,444.49,355.71,445.12,355.25,445.05,354.79,445.17,354.41,444.54,354.21,443.47,354.28,443.24,354.57,443,354.8,443.58,355.8,444.49zM359.46,447.12,358.97,447.18,358.28,446.5,358.19,446.24,358.46,446.09,358.28,445.54,358.33,445.3,358.87,445.73,359.16,446.23,358.88,446.35,359.36,446.86,359.46,447.12zM360.68,446.65,361.53,446.97,361.89,446.86,362.29,447.57,361.6,448.02,361.55,448.58,361.83,448.93,361.92,449.44,361.23,449.43,360.91,449.01,360.76,448.47,360.44,448.09,360.02,447.8,360.23,447.41,360.34,446.86,360.68,446.65zM358.37,449.77,357.7,450.24,357.45,450.13,357.51,449.34,357.91,448.99,358.58,448.95,358.37,449.77zM357,450.22,356.41,450.35,356.04,449.96,356.18,449.67,356.59,449.34,357.03,449.39,357.13,449.77,357,450.22z"/>
                    <path id="EE" style="stroke-width:0.1;fill:lightgrey" data-name="Estonia" class="land" d="M399.95,458.55,400.31,458.96,400.76,459.62,400.88,460,400.73,460.23,400.28,460.41,400.18,460.62,399.98,460.96,399.45,461.02,399.18,461.28,398.85,462.4,398.24,464.24,397.32,465.64,396.59,466.4,396.26,466.98,396.06,467.69,396.01,468.39,396.71,472.23,396.7,472.92,396.54,473.63,396.42,474.35,396.52,474.97,396.98,476.03,397.47,477.61,397.67,478.62,398,478.98,398.31,479.25,398.38,479.43,398.37,479.6,398.2,479.8,396.79,480.33,396.6,480.77,396.45,481.26,395.83,481.99,395.64,482.68,395.52,483.46,395.51,483.74,395.34,483.77,394.4,483.61,393.36,483.1,392.91,482.72,392.46,482.72,391.92,482.98,389.99,483.7,389.52,483.53,388.42,482.82,387.86,482.05,386.61,480.5,386.51,480.13,386.35,479.84,385.02,479.45,384.53,478.88,384.12,478.8,383.53,478.51,381.97,477.29,381.58,477.17,381.49,477.38,381.52,477.67,381.42,477.84,381.22,477.83,380.86,477.38,380.43,476.98,379.08,477.73,378.6,477.93,378.17,477.97,376.04,478.95,375.39,479.48,375.12,479.43,375.19,478.93,376.07,476.44,376.23,474.46,376.56,474.18,376.65,473.91,376.51,473.27,375.59,472.86,375.22,472.92,374.89,473.61,374.54,474.1,373.73,474.4,373.03,473.88,371.39,473.19,370.98,472.26,370.88,471.33,370.01,470.42,369.65,469.35,369.8,468.61,370.58,468.12,370.81,467.69,369.82,467.76,369.61,467.65,369.57,467.27,369.13,465.95,369.52,465.43,369.69,464.93,369.37,464.5,369.46,464.01,369.7,463.51,369.55,462.36,370.53,461.74,371.49,461.31,373.51,461.09,373.31,460.03,374.13,459.98,375.51,458.7,376.88,458.93,378.86,458.05,382.67,458.06,383.19,457.55,383.1,457.04,383.11,456.5,383.82,456.65,385.02,456.55,389.51,457.63,390.61,457.63,392.14,458.72,392.97,459,395.4,459,399.14,459.48,399.88,458.74,399.95,458.55zM365.71,467.17,365.16,467.81,364.83,467.56,364.66,467.25,363.95,468.7,363.15,468.95,362.68,468.66,362.72,468.12,362.26,466.7,361.57,466.28,360.59,466.24,359.88,465.65,362.61,465.25,362.89,464.57,363.45,463.86,363.87,463.78,364.22,463.95,364.29,464.5,364.38,464.72,365.62,465.03,366.1,465.96,366.28,467.08,365.71,467.17zM368.54,470.75,367.98,470.88,366.65,469.97,366.96,469.35,367.34,469.1,368.46,469.48,368.62,470.43,368.54,470.75zM363.65,469.84,364.13,470.15,364.57,470.05,365.01,469.83,365.98,470.04,368.2,471.61,368.4,472.03,367.08,472.22,366.78,472.7,366.46,473.04,366.09,473.15,365.45,473.82,364.59,474.47,364.41,474.85,362.85,474.78,362,475.02,361.31,475.74,361.03,477.13,360.52,478.21,360.01,478.6,359.48,478.66,359.35,478.25,359.4,477.85,360.53,476.32,360.76,475.82,360.2,475.6,359.73,475.07,358.7,474.45,358.52,473.94,358.76,473.91,358.99,473.76,359.26,473.34,359.39,472.85,358.57,471.44,358.99,471.22,359.51,471.27,360.04,471.68,360.63,471.2,360.88,471.12,361.29,471.3,361.7,470.36,362.69,470.05,363.18,469.76,363.65,469.84z"/>
                    <path id="DK" style="stroke-width:0.1;fill:lightgrey" data-name="Denmark" class="land" d="M277.01,516.39,276.91,516.39,276.48,516.29,276.17,516.04,275.39,516.22,274.33,516.61,273.75,516.59,273.28,516.17,271.38,515.56,271.07,515.51,269.82,515.48,269.81,515.48,269.75,514.51,269.6,513.81,269.16,512.77,269.81,512.52,269.68,510.48,269.45,509.42,267.63,508.33,266.19,507.27,266.52,503.67,266.66,502.69,266.12,500.8,266.18,498.6,266.41,495.13,266.86,494.99,267.2,495.01,268.49,495.63,269.02,495.7,269.39,496.25,269.82,496.48,270.13,495.89,270.26,494.88,271.28,493.56,271.99,493.07,272.48,492.84,272.97,493.37,273.35,493.97,273.44,492.66,273.75,490.16,272.77,489.76,271.98,490.1,271.2,491.69,270.5,493.68,269.36,493.86,268.45,494.42,267.64,493.84,267.11,493.33,267.09,492.57,267.21,492.12,268.18,490.49,269.46,488.93,270.76,488.94,271.71,488.44,272.27,488.38,274.04,488.49,274.95,488.14,275.76,487.42,277.52,484.36,278.51,483.07,280.5,482.62,282.35,481.13,282.86,481.11,281.99,482.22,281.86,482.65,281.75,483.31,282.37,484.73,282.24,485.59,282.29,487.29,281.7,488.17,281.04,490.04,280.75,490.31,280.69,492.48,280.75,493,280.66,494.96,281.34,495.76,282.06,496.18,284.45,496.17,284.7,496.52,284.99,497.12,284.78,498.14,284.52,498.91,283.83,499.56,282.94,500.05,282.38,500.07,281.63,499.15,281.27,499.45,280.9,499.91,280.28,502.42,279.99,504.1,279.83,504.24,279.48,503.99,278.88,503.97,278.11,504.37,278.5,504.72,278.92,505.34,278.75,505.65,278.08,505.98,277.48,506.66,277.23,507.17,276.48,507.77,276.01,508.53,276.24,509.48,276.34,510.3,276.55,511.22,276.36,511.94,275.43,512.98,275.08,513.89,275.88,513.87,276.37,514.08,276.66,514.35,276.96,514.72,276.78,515.19,277.01,516.39zM285.84,487.17,285.56,487.46,284.64,487.05,285.05,486.48,286.06,486.21,286.66,486.3,286,486.87,285.84,487.17zM296.04,505.06,296.06,506.25,295.88,506.6,295.63,506.83,294.95,507.07,294.37,507.41,293.85,508,293.66,508.85,294.07,509.47,294.81,509.81,294.99,510.98,294.38,511.56,292.82,512.14,292.66,513.53,292.71,514.62,292.68,515.41,292.55,516.51,291.29,517.01,290.47,515.34,290.46,514.67,290.22,513.89,290.18,513.22,289.89,512.15,288.69,511.86,288.22,511.83,287.57,512.02,287.41,511.95,286.64,510.48,286.76,508.86,286.35,508.04,286.29,507.67,286.3,507.26,285.96,506.92,285.55,506.74,285.34,505.82,285.82,505.59,287,505.7,287.34,505.64,287.65,505.45,288.61,503.93,288.58,503.59,288.68,503.16,289.71,503,290.17,503.59,290.08,504.53,290.14,505.73,290.76,506.05,291,506.1,291.26,505.22,291.44,504.78,291.69,504.54,291.78,503.73,291.63,503.23,291.32,502.86,292.48,501.85,293.69,501.05,294.39,501.01,295.1,501.21,295.75,501.48,296.11,501.71,296.31,502.08,295.87,502.97,295.75,503.46,296.04,505.06zM282.85,505.08,282.73,505.3,282.3,505.07,282.26,504.3,282.42,503.6,282.23,502.98,282.44,502.58,283.04,503.51,283.21,503.95,282.98,504.47,282.85,505.08zM296.69,507.31,296.06,507.81,295.92,507.78,295.72,507.09,296.05,506.67,296.25,506.31,296.39,506.32,296.58,506.71,296.69,507.31zM283.1,507.15,283.38,507.77,283.72,509.09,284.27,510.56,284.04,511.18,284.2,511.96,284.04,512.78,282.96,513.73,281.74,513.78,280.47,513.32,278.68,512.43,278.54,511.94,278.29,511.66,277.81,510.14,277.82,508.27,278.72,508.03,280.68,507.14,281.14,507.28,281.61,507.74,282.16,507.76,282.95,507.11,283.1,507.15zM312.99,514.09,312.74,514.29,311.63,513.96,310.27,513.15,310.47,511.55,310.82,510.86,313.29,512.65,313.32,513.33,312.99,514.09zM283.7,517.26,283.4,517.33,282.99,516.38,282.94,516.09,283.42,515.48,283.73,514.79,284.52,513.74,284.98,512.5,285.16,512.51,284.95,513.62,283.91,516.69,283.7,517.26zM279.17,515.68,278.47,515.84,278.11,515.56,277.46,515.45,277.22,513.65,277.29,513.54,277.62,513.67,278.75,514.51,279.15,515.43,279.17,515.68zM295.91,514.75,295.65,514.92,294.62,514.8,293.46,515.61,293.01,515.35,293.18,514.83,293.3,514.64,293.7,514.42,293.96,514.1,294.06,513.6,294.3,513.87,295.02,513.98,295.37,514.14,295.67,514.38,295.91,514.75zM282.02,516.13,281.57,516.25,281.05,516,280.21,515.04,280.1,514.79,280.55,514.95,281.09,515.45,281.54,515.56,282.16,515.98,282.02,516.13zM287.92,515.62,289.11,516.34,289.92,516.3,290.46,516.6,290.59,517.06,290.64,518.09,290.06,518.39,289.43,518.29,288.56,518.68,285.73,517,285.77,515.6,285.88,515.04,287.23,514.91,287.92,515.62z"/>

                </svg>
