<svg
                        xmlns:dc="http://purl.org/dc/elements/1.1/"
                        xmlns:cc="http://creativecommons.org/ns#"
                        xmlns:rdf="http://www.w3.org/1999/02/22-rdf-syntax-ns#"
                        xmlns:svg="http://www.w3.org/2000/svg"
                        xmlns="http://www.w3.org/2000/svg"
                        xmlns:sodipodi="http://sodipodi.sourceforge.net/DTD/sodipodi-0.dtd"
                        xmlns:inkscape="http://www.inkscape.org/namespaces/inkscape"
                        enable_background="new 0 0 1200 589"
                        height="800"
                        width="2000"
                        viewBox="635 350 100 100"
                        id="us-map"
                        preserveAspectRatio="xMidYMid meet"
                        inkscape:version="0.48.4 r9939"
                        sodipodi:docname="us.svg">
                    <sodipodi:namedview
                            pagecolor="#ffffff"
                            bordercolor="#666666"
                            borderopacity="1"
                            objecttolerance="10"
                            gridtolerance="10"
                            guidetolerance="10"
                            inkscape:pageopacity="0"
                            inkscape:pageshadow="2"
                            inkscape:window-width="1920"
                            inkscape:window-height="1137"
                            id="namedview69"
                            showgrid="false"
                            inkscape:zoom="0.80893016"
                            inkscape:cx="817.66365"
                            inkscape:cy="409.3738"
                            inkscape:window-x="1192"
                            inkscape:window-y="118"
                            inkscape:window-maximized="1"
                            inkscape:current-layer="svg2"/>
                    <defs
                            id="defs4">
                        <style
                                type="text/css"
                                id="style6">path {
                            fill-rule: evenodd;
                        }</style>
                    </defs>
                    <metadata
                            id="metadata8">
                        <views
                                id="views10">
                            <view
                                    h="589.235294118"
                                    padding="0"
                                    w="1000"
                                    id="view12">
                                <proj
                                        id="laea-usa"
                                        lat0="45"
                                        lon0="-100"/>
                                <bbox
                                        h="321.97"
                                        w="589.33"
                                        x="690.09"
                                        y="918.69"
                                        id="bbox15"/>
                            </view>
                        </views>
                        <rdf:RDF>
                            <cc:Work
                                    rdf:about="">
                                <dc:format>image/svg+xml</dc:format>
                                <dc:type
                                        rdf:resource="http://purl.org/dc/dcmitype/StillImage"/>
                                <dc:title/>
                            </cc:Work>
                        </rdf:RDF>
                    </metadata>
                    <path id="BT" style="stroke-width:0.2;fill:lightgrey" data-name="Bhutan" class="land" d="M732.86,382.02L732.85,382.1L732.77,382.29L732.72,382.49L732.76,382.66L732.94,382.86L733.18,383.02L733.48,383.04L733.76,382.97L733.87,383L734.02,383.27L734.13,383.5L733.98,383.74L733.9,383.95L733.88,384.1L733.89,384.16L733.98,384.29L734.09,384.49L734.1,384.68L734.04,384.81L733.89,384.87L733.74,384.85L733.61,384.85L733.45,384.87L733.21,384.94L732.97,385.03L732.54,385.02L732.37,384.83L732.29,384.83L731.89,385.07L731.47,385.03L730.69,385.11L730.36,385.13L730.02,385.1L729.85,385.05L729.54,384.88L729.25,384.76L728.96,384.87L728.86,384.89L728.63,385.18L728.12,385.28L727.62,385.35L727.47,385.31L727.19,385.29L727.18,385.22L727.19,385.16L727.12,385.1L727.01,385.05L726.81,385.03L726.55,384.96L726.41,384.89L725.89,384.99L725.59,384.84L725.25,384.63L725.08,384.53L725.01,384.21L724.95,384.1L724.82,383.99L724.74,383.86L724.8,383.73L725.14,383.48L725.17,383.42L725.33,382.96L725.55,382.79L725.76,382.55L725.93,382.18L726.24,381.79L726.59,381.4L726.83,381.08L726.98,380.93L727.31,380.76L727.58,380.67L727.77,380.45L728,380.33L728.23,380.28L728.58,380.31L728.9,380.39L729.26,380.49L729.3,380.58L729.27,380.73L729.22,380.89L729.22,380.97L729.27,381.01L729.62,381.04L730.05,381.02L730.29,381.04L730.83,381.18L730.98,381.28L731.15,381.36L731.31,381.35L731.51,381.18L731.72,381.04L731.86,381.02L731.95,381.06L732.12,381.2L732.47,381.32L732.79,381.42L732.89,381.51L732.86,381.9z"/>
                    <path id="IN" style="stroke-width:0.2;fill:lightgrey" data-name="India" class="land" d="M736.1,436.8l0.07,0.19l-0.06,0.1l-0.12,0.02l-0.08,-0.1l-0.01,-0.11l0.07,-0.07l0.07,-0.04L736.1,436.8zM735.95,426.26l-0.06,-0.04l-0.04,0.01l-0.04,0.05l0.02,0.4l0.09,-0.19L735.95,426.26zM736.68,427.43l-0.07,-0.89l-0.22,-0.26l0.07,-0.09l0.12,-0.25l0.15,-0.08l0.11,-0.19l0.07,-0.19l0.02,-0.09l-0.16,-0.24l0.17,-0.19l-0.03,-0.1l-0.01,-0.31l-0.09,0l-0.29,0.17l-0.19,0.37l0.01,0.37l-0.14,0.55l0.06,0.11l-0.07,0.35l-0.15,0.17l-0.04,0.12l0.05,0.32l-0.08,0.15l-0.03,0.21l0,0.53l0.04,0.06l0.12,0.1l0.03,0.22l-0.05,0.03l-0.21,0l-0.05,0.06l-0.1,0.23l-0.02,0.28l-0.07,0.18l-0.12,0.05l-0.09,0.16l0.07,0.11l0.04,0.33l0.26,0.51l0.09,0.07l0.06,-0.07l0.12,-0.29l0.01,-0.36l0.09,-0.31l0,-0.12l-0.09,-0.07l-0.04,-0.15l0.11,-0.12l0.04,-0.13l0.19,-0.29l0.04,-0.13l-0.04,-0.59l0.19,-0.05L736.68,427.43zM735.83,430.5l-0.14,-0.13l-0.02,0.23l-0.11,0.11l0.14,0.07l0.14,-0.06l-0.02,-0.09L735.83,430.5zM679.96,431.12l-0.03,0.08l0,0.05l0.02,-0.02l0.02,-0.04l0.01,-0.07l0.01,-0.05l-0.01,-0.01L679.96,431.12zM735.33,432.1l-0.18,0.09l-0.22,0.2l-0.05,0.12l0.07,0.29l-0.02,0.29l0.29,0.08l0.08,-0.1l0.2,-0.42l-0.06,-0.27L735.33,432.1zM680.78,439.43l-0.05,0.09l-0.05,0.03l-0.04,-0.03l-0.01,0.03l0.01,0.04l0.03,0l0.04,-0.01l0.04,-0.04l0.03,-0.07l0.01,-0.05l-0.01,-0.02L680.78,439.43zM739.01,442.44l-0.39,0.15l-0.08,0.13l0,0.34l0.14,0.04l0.34,0.71l0.17,-0.23l0.11,-0.4l-0.2,-0.66L739.01,442.44zM738.65,441.95l-0.11,0.09l-0.11,0.06l-0.05,0.11l0.12,0.16l0.27,-0.27L738.65,441.95zM736.69,428.88l-0.11,0.08l0.07,0.12l0.23,0.17l-0.13,-0.39L736.69,428.88zM748.89,381.32l-0.02,0.14l-0.08,0.1l-0.22,0.05l-0.19,0.17l-0.3,0.24l-0.24,0.19l-0.18,0.17l-0.06,0.18l0.02,0.23l0.05,0.24l0.57,0.87l0,0.15l-0.18,0.04l-0.24,-0.1l-0.21,-0.14l-0.23,-0.37l-0.19,-0.11l-0.18,-0.02l-1.1,0.19l-0.23,0.05l-0.36,0.14l-0.25,0.28l-0.18,0.26l-0.19,0.1l-0.28,0.2l-0.77,0.61l-0.45,0.26l-0.29,0.1l-0.2,0.14l-0.11,0.22l-0.08,0.16l-0.02,0.4l0.05,0.49l0.11,0.31l0.06,0.07l0.01,0.09l-0.11,0.17l-0.15,0.14l-0.07,0.09l-0.07,0.44l-0.13,0.22l-0.24,0.32l-0.21,0.24l-0.33,0.19l-0.13,0.15l-0.12,0.28l-0.07,0.24l0,0.09l0.04,0.07l0.14,0.08l0.17,0.08l0.08,0.13l0.01,0.15l-0.12,0.36l-0.22,0.5l-0.25,0.4l-0.26,0.38l-0.06,0.12l-0.24,0.47l-0.21,0.64l-0.14,0.43l-0.12,0.29l-0.15,0.01l-0.18,-0.09l-0.44,-0.13l-0.28,-0.1l-0.2,-0.09l-0.14,0l-0.19,0.06l-0.2,0.04l-0.12,-0.04l-0.27,-0.27l-0.08,0.03l-0.05,0.13l0.18,0.76l0.12,0.28l-0.02,0.47l-0.05,0.57l-0.07,0.63l-0.05,0.14l-0.12,0.17l-0.15,0.04l-0.14,-0.06l-0.11,0.01l-0.04,0.11l0.03,0.27l-0.14,0.31l-0.1,0.26l0.03,0.26l0.05,0.26l0.16,0.56l0,0.21l-0.03,0.18l-0.08,0.08l-0.14,-0.01l-0.08,0.08l-0.06,0.12l-0.16,0.43l-0.15,0.04l-0.16,-0.06l-0.23,-0.29l-0.14,-0.08l-0.09,0l-0.04,0.08l-0.06,0.17l-0.06,0.11l-0.16,0.1l-0.04,-0.21l-0.08,-1.09l-0.06,-0.35l-0.05,-0.48l-0.08,-0.15l-0.1,-0.26l-0.1,-0.23l-0.09,-0.1l-0.06,-0.43l-0.02,-0.52l0,-0.25l-0.13,-0.51l-0.12,-0.58l-0.17,0.02l-0.1,-0.14l-0.07,0l-0.23,0.13l-0.18,-0.04l-0.14,0.02l0,0.27l0.02,0.28l-0.05,0.1l-0.36,0.33l-0.1,0.22l0.01,0.24l0.04,0.31l-0.06,0.16l-0.16,0.15l-0.21,0.08l-0.19,-0.04l-0.12,-0.13l-0.11,-0.33l-0.1,-0.18l-0.1,-0.04l-0.08,0.05l-0.01,0.21l0.01,0.17l-0.03,0.02l-0.06,-0.03l-0.07,-0.08l-0.17,-0.82l-0.25,-0.63l-0.01,-0.24l0.09,-0.31l0.11,-0.48l0.29,-0.3l0.04,-0.13l0.05,-0.1l0.07,-0.02l0.38,0.03l0.13,-0.05l0.11,-0.14l0.16,-0.11l0.16,-0.05l0.13,-0.02l0.21,0.11l0.09,-0.06l0.06,-0.2l0.09,-0.2l0.06,-0.1l0.14,-0.04l0.18,-0.01l0.06,-0.04l0.05,-0.07l0.04,-0.26l0.23,-0.59l0.08,-0.26l0.01,-0.05l-0.01,-0.29l0.06,-0.04l0.38,0.14l0.16,0l0.09,-0.06l0.03,-0.11l-0.05,-0.13l-0.27,-0.22l-0.47,-0.29l-0.43,-0.18l-0.8,0.03l-0.8,0.06l-0.23,-0.03l-0.29,-0.08l-0.71,0.01l-0.86,0.04l-0.33,-0.03l-0.16,0l-0.33,0.03l-0.53,-0.08l-0.37,-0.11l-0.33,-0.12l-0.39,-0.11l-0.09,0l-0.05,-0.04l-0.04,-0.09l-0.01,-0.12l0.08,-0.57l-0.07,-0.87l0.07,-0.32l-0.32,-0.71l-0.11,-0.13l-0.15,-0.01l-0.09,0.09l-0.04,0.17l0.05,0.19l-0.12,0.21l-0.23,0.07l-0.27,-0.07l-0.23,-0.1L726,387.2l-0.22,-0.3l-0.02,-0.33l-0.1,-0.21l-0.13,-0.1l-0.1,-0.03l-0.09,0.02l-0.08,0.12l0.07,0.12l0.09,0.16l-0.03,0.11l-0.08,0.02l-0.12,-0.05l-0.19,0.03l-0.19,-0.08l-0.11,-0.01l-0.11,-0.03l-0.01,-0.19l-0.17,-0.24l-0.29,-0.27l-0.28,-0.17l-0.13,0.02l-0.07,0.19l0.02,0.07l0.1,0.03l0.14,0.11l0.03,0.11l-0.02,0.1l-0.17,0.18l-0.12,0.17l-0.28,0.25l-0.24,0.28l-0.06,0.21l-0.09,0.19l-0.04,0.21l0.06,0.15l0.11,0.09l0.3,0.07l0.31,0.28l0.25,0.38l0.14,0.12l0.26,0.13l0.49,0.01l0.07,0.11l0.07,0.28l0.1,0.1l0.25,0.13l0.02,0.1l-0.06,0.11l-0.11,0.09l-0.21,0.06l-0.2,0.02l-0.2,-0.04l-0.29,-0.02l-0.33,0l-0.23,0.7l-0.17,0.25h-0.09l-0.25,-0.12l-0.11,0.02l-0.29,0.62l-0.04,0.15l-0.02,0.11l0.16,0.24l0.19,0.2l0.22,0.08l0.17,-0.06l0.14,0.08l0.17,0.2l0.29,0.13l0.4,0.06l0.23,0.16l0.03,0.13l-0.02,0.14l-0.04,0.36l-0.04,0.21l-0.22,0.54l-0.16,0.46l0.08,0.22l0.06,0.09l0.05,0.07l0.17,0.17l0.12,0.17l-0.1,0.44l0.06,0.12l0.23,0.08l0.25,0.06l0.09,0.07l-0.22,0.44l0.05,0.31l0.09,0.29l0.07,0.47l0.01,0.05l-0.02,0.12l0.14,0.37l0.22,0.71l0.02,0.27l-0.01,0.28l-0.07,0.47l-0.22,0l0.2,0.31l0.06,0.23l0.03,0.31l-0.24,0.04l-0.17,-0.04l-0.14,-0.27l-0.07,0.25l-0.25,0.23l-0.09,-0.11l-0.05,-0.12l-0.01,-0.21l0.14,-0.82l-0.03,-0.09l-0.06,-0.06l-0.14,-0.03l-0.05,-0.17l-0.21,0.87l0.09,0.36l-0.04,0.16l-0.39,0.14l-0.39,-0.33l-0.05,-0.1l-0.02,0.18l-0.07,0.22l-0.37,-0.04l-0.18,-0.18l0.12,-0.3l0.23,-0.72l0.04,-0.32l-0.31,-0.24l-0.26,-0.14l-0.15,-0.33l0.06,0.36l0.14,0.13l0.2,0.09l0.21,0.18l-0.15,0.22l-0.15,0.14l-0.29,0.53l-0.35,0.29l-0.41,0.22l-1.34,0.33l-0.28,0.13l-0.41,0.41l-0.27,0.39l-0.05,0.39l0.15,0.42l0.12,0.66l0.1,0.13l-0.14,0.24l-0.25,0.25l-0.21,0.34l0.02,0.19l-0.05,0.13l-0.71,0.42l-0.15,0.25l-0.19,0.24l-0.23,-0.14l-0.14,0l0.19,0.19l-0.02,0.13l-0.07,0.07l-0.18,0.07l-1.02,0.31l-0.78,0.29l-0.22,-0.01l0.04,-0.09l0.14,-0.08l-0.01,-0.34l-0.14,-0.06l-0.12,-0.02l-0.59,0.41l-0.24,0.41l0.05,0.08l0.13,-0.02l0.4,-0.23l0.19,0.06l0.01,0.09l-0.61,0.35l-1.28,1.13l-0.06,0.22l-0.17,0.25l-0.23,0.24l-0.41,0.57l-0.79,0.85l-0.22,0.32l-1.26,0.65l-0.23,0.19l-0.52,0.64l-0.53,0.52l-0.62,0.43l-1.08,0.55l-0.66,0.52l-0.21,0.34l-0.01,0.12l0.07,0.17l0.12,0.16l0.03,0.12l-0.06,0.22l-0.03,0.12l-0.19,0.3l-0.33,0.22l-1.07,0.45l-0.14,-0.01l-0.87,-0.09l-0.33,0.08l-0.13,0.21l-0.3,0.88l-0.29,0.23l-0.1,0.21l-0.04,0.15l-0.17,0l-0.15,-0.07l-0.11,0.05l-0.12,-0.29l-0.21,-0.06l-0.17,-0.02l-0.73,0.3l-0.26,0.24l-0.54,1.12l-0.13,0.72l0.13,0.8l0.19,0.64l0.04,0.29l-0.02,0.37l-0.1,0.18l-0.07,0.21l0.09,0.44l0.23,0.58l0.05,0.24l0,0.25l0.17,0.58l-0.12,-0.1l-0.09,-0.24l-0.22,-0.31l-0.26,0.31l0.15,0.22l0.49,0.26l0.15,0.22l-0.32,1.92l-0.24,0.68l-0.3,0.45l-0.16,0.17l-0.35,0.7l-0.24,0.85l-0.05,0.33l0.11,0.37l-0.13,0.22l-0.16,0.17l0.3,-0.07l0.1,0.2l0.04,0.2l0,1.22l-0.03,1.27l-0.23,0.05l-0.25,0.01l-0.22,-0.04l-0.16,-0.05l-0.4,0.07l-0.21,0.14l-0.17,0.23l0.01,0.4l-0.73,1l-0.16,0.33l-0.06,0.32l0.09,0.17l0.19,0.17l0.25,0.07l0.47,0.07l0.23,0.09l0.15,0.17l-0.56,-0.18l-0.66,-0.04l-1.57,0.46l-0.41,0.32l-0.23,0.28l-0.16,0.64l-0.03,0.43l-0.19,0.36l-0.81,0.55l-0.51,0.17l-0.2,0.15l-0.61,-0.19l-0.66,-0.48l-0.28,-0.26l-0.98,-1.24l-0.18,-0.16l-0.2,-0.53l-0.03,-0.2l-0.05,-0.08l-0.09,-0.05l-0.04,-0.08l-0.22,-0.61l-0.09,-0.63l-0.14,-0.71l0.12,0.05l0.16,0.23l0.08,0.34l0.01,0.47l0.12,0.06l0.11,-0.04l-0.32,-1.09l-0.27,-0.27l-0.07,-0.02l-0.08,-0.18l-0.01,-0.22l0.02,-0.1l-0.22,-0.36l-0.08,-0.21l-0.49,-1.08l-0.22,-0.78l-0.34,-0.86l-0.22,-0.3l-0.34,-0.67l-0.29,-0.31l-0.3,-0.42l-0.24,-0.19l-0.09,-0.1l-0.71,-1.45l-0.22,-0.8l-0.18,-0.38l-0.09,-0.29l-0.25,-1.23l0,-0.22l-0.03,-0.24l-0.18,-0.52l-0.31,-0.57l-0.09,-0.35l0,-0.14l-0.2,-0.55l-0.04,-0.25l-0.13,-0.23l-0.15,-0.21l-0.16,-0.17l-0.38,-0.56l-0.13,-0.14l-0.26,-0.36l-0.18,-0.67l-0.23,-0.26h0.37l-0.22,-0.25l-0.11,-0.16l-0.12,-0.1l0.17,-0.25l-0.28,0.01l-0.15,-0.15l-0.2,-0.47l-0.37,-0.53l-0.06,-0.28l-0.33,-0.89l-0.28,-2.15l-0.25,-0.96l0.02,-0.28l-0.31,-0.83l-0.15,-0.56l-0.06,-0.47l-0.08,-0.31l-0.07,-0.62l-0.12,-0.2l-0.01,-0.12l0.08,-0.28l0.22,-0.44l0.08,-0.28l-0.09,-0.39l-0.2,0.41l-0.19,0.11l-0.09,-0.31l0,-0.41l-0.02,-0.1l0.05,-0.14l0.49,0.06l-0.56,-0.25l-0.07,-0.15l-0.02,-0.11l0.12,-0.21l-0.2,-0.17l-0.08,-0.53l-0.06,-0.12l-0.02,-0.1l0.12,-0.73l0.48,-1.44l0.04,-0.33l-0.04,-0.46l-0.11,-0.37l-0.05,-0.39l-0.03,-0.1l-0.17,-0.04l-0.17,-0.15l-0.19,-0.58l0.18,-0.19l0.14,-0.1l-0.19,0.04l-0.15,-0.02l0.29,-0.27l0.26,-0.21l0.59,-0.24l0.25,-0.15l-0.37,0.14l-0.39,0.05l-0.83,-0.03l0.14,-0.54l0.14,-0.18l0.16,-0.1l-0.23,0.03l-0.27,-0.04l0.09,-0.55l0.21,-0.12l0.23,-0.02l0.28,-0.08l-0.3,-0.09l-0.31,-0.04l-0.38,0.09l-0.35,-0.07l-0.42,0l0.17,0.07l0.18,0.17l-0.09,0.3l-0.08,0.19l-0.23,0.13l-0.19,0.19l-0.05,0.17l-0.11,0.12l0.18,0.09l0.19,0.06l0.11,0.14l0.13,0.2l-0.01,0.39l-0.5,0.92l-0.17,0.2l-1.25,0.55l-0.49,0.3l-1.04,0.39l-0.41,0.07l-0.45,-0.08l-0.66,-0.3l-1,-0.76l-0.26,-0.25l-0.8,-0.98l-0.58,-0.52l-0.44,-0.48l-0.54,-0.46l-0.51,-0.62l-0.11,-0.28l0.04,-0.29l0.19,-0.16l0.22,0.06l0.18,0.24l0.13,0.11l0.11,0.04l0.77,-0.37l0.3,0.01l0.2,-0.19l0.26,0.04l0.52,-0.29l0.22,-0.02l0.26,-0.06l0.42,-0.74l0.32,-0.47l0.21,-0.1l-0.01,-0.11l-0.06,-0.15l-0.15,0.04l-0.11,0.14l-0.08,0.17l-0.08,0.1l-0.25,-0.09l-0.17,0.02l-0.21,0.06l-0.75,0.27l-0.31,0.25l-0.21,0.05l-1.2,-0.27l-1.18,-0.62l-0.5,-0.41l-0.31,-0.53l-0.31,-0.63l0.1,-0.18l0.49,-0.38l0.42,-0.3l-0.38,0.13l-0.41,0.18l-0.2,0.13l-0.23,0.27l-0.3,0.06l-0.12,-0.4l-0.08,-0.39l0.19,-0.13l0.14,-0.08l0.28,-0.07l0.3,-0.05l0.27,0l0.39,0.01l0.01,-0.92l0.03,-0.08l0.05,-0.05l0.06,-0.02l0.05,0.01l0.08,0.14l0.1,-0.01l0.11,-0.08l0.23,0.06l0.19,-0.04l0.19,0.05l0.32,0l0.58,-0.02l0.33,0.01l0.21,0.15l0.23,0.16l0.25,0.02l0.36,-0.02l0.25,-0.06l0.12,-0.15l0.09,-0.14l0.54,-0.21l0.56,-0.17l0.16,-0.02l0.05,0.1l-0.03,0.17l0.07,0.16l0.23,0.1l0.16,0.02l0.14,-0.02l0.11,-0.05l0.23,-0.25l0.12,-0.06l0.15,0l0.17,-0.12l0,-0.09l-0.11,-0.04l-0.09,-0.13l0.02,-0.11l-0.03,-0.15l0.02,-0.14l0.07,-0.11l0.13,-0.1l-0.08,-0.21l-0.2,-0.41l-0.21,-0.53l-0.22,-0.44l-0.28,-0.39l-0.14,-0.28l0.01,-0.63l-0.02,-0.13l-0.09,-0.08l-0.13,-0.04l-0.18,0.06l-0.16,0.01l-0.35,-0.01l-0.17,-0.06l-0.46,-0.63l-0.06,-0.25l0,-0.25l0.15,-0.44l0.05,-0.41l0.02,-0.39l-0.03,-0.11l-0.09,-0.13l-0.16,-0.1l-0.42,-0.02l-0.49,-0.13l-0.38,-0.23l-0.26,-0.14l-0.07,-0.09l-0.03,-0.1l0.07,-0.47l0.12,-0.53l0.09,-0.16l0.15,-0.17l0.11,-0.11l0.18,-0.15l0.48,-0.51l0.43,-0.7l0.27,-0.49l0.14,-0.14l0.14,-0.12l0.21,-0.15l0.24,-0.14l0.24,0.01l0.23,0.13l0.17,0.15l0.06,0.32l0.12,0.21l0.13,0.13l0.17,0.06l0.22,-0.02l0.87,-0.37l0.3,-0.07l0.71,-0.05l0.49,-0.14l0.43,-0.15l0.05,-0.27l0.17,-0.41l0.51,-0.54l0.14,-0.24l0.15,-0.46l0.16,-0.42l0.14,-0.17l0.8,-0.46l0.78,-0.42l0.13,-0.19l0.5,-0.88l0.29,-0.6l0.08,-0.19l0.17,-0.52l0.18,-0.52l0.24,-0.12l0.54,-0.2l0.42,-0.19l0.22,-0.22l0.13,-0.19l-0.02,-0.19l-0.12,-0.23l0.02,-0.14l0.02,-0.13l0.31,-0.27l0.58,-0.81l0.35,-0.4l0.12,0l0.36,-0.22l0.34,-0.24l-0.02,-0.11l-0.04,-0.14l-0.2,-0.06l-0.06,-0.17l0.05,-0.25l0.17,-0.67l-0.03,-0.19l-0.2,-0.62l0.04,-0.17l0.08,-0.18l0.23,-0.23l0.29,-0.19l0.93,-0.46l0.19,-0.05l0.32,-0.12l0.2,-0.25l0.02,-0.21l-0.09,-0.13l-0.19,-0.18l-0.36,-0.16l-0.33,-0.14l-0.56,0.01l-0.29,-0.12l-0.08,-0.08l-0.04,-0.29l0.06,-0.5l-0.09,-0.04l-0.12,0.06l-0.29,-0.06l-0.36,0.01l-0.14,-0.14l0.11,0.11l-0.06,0.03l-0.07,0.1h-0.05l-0.12,-0.04l-0.04,-0.2l-0.07,-0.14h-0.07l-0.21,-0.03l-0.1,-0.1l-0.11,-0.05l-0.05,-0.1l-0.12,-0.1l-0.19,-0.02l-0.17,-0.03l-0.36,-0.02l-0.03,-0.17l-0.09,-0.04l-0.16,-0.02l-0.13,-0.03l0.01,-0.18l-0.01,-0.17l-0.07,0.02l0.03,-0.12l-0.03,-0.1l-0.06,-0.14l0.01,-0.07l0.07,-0.1l0.02,-0.11v-0.15l-0.02,-0.14l-0.03,-0.12l-0.07,-0.16l-0.04,-0.12l0.07,-0.18v-0.19l-0.03,-0.15l-0.06,-0.04l0.04,-0.12l0.01,-0.16l-0.08,-0.2l-0.04,-0.18l-0.09,-0.2v-0.18l-0.06,-0.35l-0.04,-0.05l-0.05,-0.12l-0.06,-0.16l0.03,-0.15l-0.06,-0.14v-0.11l0.04,-0.17l0.01,-0.16v-0.14l0.06,-0.05l0.13,-0.01l0.12,-0.02l0.2,0.02l0.16,-0.03l0.04,-0.17l0.03,-0.12v-0.37l0.25,-0.03l0.08,-0.09l0.11,-0.08l0.09,0.02l0.13,-0.04l0.13,0.02l0.05,-0.15l0.06,-0.04l0.11,-0.06l-0.01,-0.17l0.05,-0.19l0.08,-0.11l0.03,-0.15l-0.06,-0.16l-0.16,-0.04l-0.13,0.04l-0.07,-0.09l-0.13,-0.09l-0.19,-0.05l-0.05,-0.1l-0.07,-0.03l-0.12,0.03l-0.1,-0.05l-0.07,-0.1v-0.2l0.01,-0.17l0.06,-0.1h0.1v-0.11l0.07,-0.01l-0.01,-0.15l-0.08,-0.03l-0.15,-0.04l-0.19,0.03h-0.21l-0.2,-0.01l-0.13,-0.14l-0.11,-0.05h-0.1l-0.06,-0.02l-0.11,-0.05l-0.1,-0.02l-0.08,-0.12l-0.07,-0.05l-0.13,-0.01l-0.04,-0.09l-0.08,-0.25l-0.12,-0.13l-0.01,-0.1l-0.19,0.02l-0.12,-0.04l-0.06,-0.05l-0.18,0.05l-0.12,0.02l-0.09,-0.01l-0.13,0.04l-0.05,0.03l-0.14,0.1l-0.02,-0.07l-0.06,-0.07l-0.13,-0.07l-0.04,-0.09l-0.2,-0.03l0.02,-0.14l0.03,-0.12l-0.06,-0.15L679,355l0.04,-0.1l0.07,-0.09l-0.03,-0.22l0.11,-0.12h0.28l0.04,-0.07l0.04,-0.13l0.13,-0.1l0.1,-0.1l0.12,-0.09l0.05,-0.1l0.03,-0.12l0.13,-0.01l0.2,-0.04l0.02,-0.15l0.04,-0.18l0.07,-0.02l0.1,-0.08l0.02,-0.14l0.09,-0.17l0.1,-0.08h0.12l0.16,-0.02h0.15l0.22,-0.06l0.26,-0.02l0.25,0.08l0.19,0.06l0.12,-0.06l0.12,-0.01l0.13,-0.03l0.15,-0.07h0.16l-0.02,-0.17l-0.16,-0.08l-0.05,-0.13l-0.08,-0.06l-0.16,0.01l-0.19,-0.02l0.08,-0.08l0.12,-0.02l0.19,0.01l0.22,0.04l0.21,0.02l0.21,0.03l0.2,0.06l0.16,-0.01l-0.03,-0.36l0.04,0l0.44,-0.25l0.66,-0.3l0.31,-0.13l0.17,-0.05l0.26,0l0.21,0.08l0.21,0.12l0.13,0.09l0.17,-0.06l0.29,-0.07l0.26,0.05l0.57,0.21l0.08,0.1l0.13,0.51l0.1,0.05l0.32,-0.12l0.26,0.06l0.29,0.16l0.19,0.16l0.13,0.17l0.13,0.28l0.05,0.22l0.06,0.26l-0.02,0.74l-0.1,0.12l-0.08,0.16l0.02,0.14l0.09,0.11l0.18,0.07l0.17,0.05l0.09,0.12l0.13,0.41l0.08,0.06l0.21,0l0.38,-0.09l0.33,-0.14l0.14,-0.03l0.03,0.39l0.19,0.15l0.27,0.17l0.11,0.06l0.31,0.17l0.59,0.21l0.58,0.15l0.43,0.11l0.21,0.01l0.15,0.01l0.42,-0.03l0.21,-0.05l0.01,0.02l0.04,-0.11l0.12,-0.09l0.16,-0.07l0.21,-0.02l0.14,0.04l0.11,-0.02l0.01,-0.12l0.14,-0.04l0.09,-0.05l0.12,-0.11l0.18,-0.01l0.12,-0.04l0.12,-0.1l0.2,-0.1l0.12,-0.01l0.24,-0.12l0.13,-0.1l0.16,-0.05l0.21,-0.01l0.21,0.04l0.31,0.05h0.21l0.3,-0.05l0.04,-0.18l0.06,-0.12l0.22,-0.09h0.12l0.09,0.11l0.04,0.12l0.13,0.03l0.21,0.04l0.14,0.08l0.16,0.08l0.23,0.04l0.19,0.09l0.13,0.01l0.11,-0.01l0.13,-0.04l0.12,-0.01l0.15,0.04l0.11,0.08l0.1,0.08l0.12,0.19l0.13,0.15l0.14,0.04l0.13,0.03l0.07,0.11l0.12,0.11l0.03,0.17l-0.06,0.09l-0.06,0.12l-0.04,0.13l0.02,0.16l0.01,0.23l-0.04,0.15l-0.04,0.06l-0.09,0.04l-0.04,0.09l0.01,0.12l0.01,0.18l-0.01,0.24l-0.08,0.06l-0.06,0.24l-0.1,0.18l-0.07,0.11l-0.01,0.15l0.01,0.23l-0.08,0.01l-0.21,-0.01l-0.21,0.09l-0.14,0.06l-0.13,0.1l-0.09,0.15l-0.03,0.14l0.04,0.15l-0.12,0.04h-0.13l-0.24,0.03l-0.25,0.04l0.09,0.05l0.04,0.14l0.04,0.12l-0.05,0.13l0.02,0.14l0.01,0.15l0.03,0.11l-0.05,0.09l-0.1,0.14l-0.14,0.07l-0.09,0.04l0.04,0.1l0.03,0.15h-0.15l-0.25,0.02l-0.19,-0.08l-0.21,-0.01l-0.16,0.03l-0.15,-0.09l-0.16,0.04l-0.13,0.17l0.11,0.22l0.09,0.29l0.1,0.28l0.04,0.16l0.1,0.1l-0.02,0.14l-0.1,0.04l-0.13,-0.01l-0.2,0.02l0.02,0.11v0.19l0.02,0.17l0.03,0.19l0.11,0.12l0.11,0.17l0.17,0.1l0.13,0.08l0.52,0.03l0.15,0.02l0.09,0.1l-0.01,0.15l-0.1,0.16l-0.03,0.09l0.18,0.19l-0.03,0.13l-0.03,0.31l0.05,0.1l0.12,0.09l0.09,0.09l0.23,0.42l0,0.1l-0.04,0.18l-0.04,0.07l-0.03,0.06l-0.04,0.05l-0.07,0.08l-0.42,0.34l-0.14,-0.07l-0.06,0.01l-0.03,-0.01l-0.01,-0.16l0.01,0.21l-0.14,0.01l-0.12,0.07l-0.17,0.29l-0.2,0.08l-0.22,0.02l-0.23,-0.18l-0.19,-0.19l-0.05,-0.1l-0.05,-0.2l-0.1,-0.13l-0.19,0.06l-0.29,0.03l-0.32,0.04l-0.06,0.04l-0.01,0.08l0.08,0.18l0.07,0.23l0.04,0.32l0.09,0.21l0.03,0.07l0.51,0.64l0.13,0.13l0.03,0.08l-0.04,0.23l-0.09,0.27l0.02,0.21l0.17,0.24l0.14,0.17l-0.13,0.22l-0.08,0.26l0.09,0.12l-0.04,0.37l0.04,0.07l0.09,0.03l0.15,-0.03l0.15,-0.1l0.13,-0.02l0.08,0.03l0.1,-0.28l0.09,-0.04l0.18,0.08l0.35,0.53l0.3,0.44l0.06,0.06l0.02,0.02l0.05,0.05l0.29,0.23l0.2,0.15l0.28,-0.05l0.37,-0.01l0.22,0.14l0.13,0.1l0.01,0.01l0.02,0l0.44,0.35l0.19,-0.03l0.13,0.1l0.04,0.25l-0.06,0.25l0.01,0.12l0.2,0.02l0.42,0.17l0.37,0.15l0.19,0.05l0.21,0.11l0.18,0.18l0.36,0.23l0.31,0.17l0.07,0.23l-0.12,-0.05l-0.16,0.03l-0.17,0.1l-0.08,0.07l-0.38,0.4l-0.2,0.12l-0.18,0.18l-0.41,0.55l-0.24,0.51l-0.17,0.48l0,0.34l-0.06,0.4l-0.18,0.23l-0.11,0.08l-0.13,0.34l-0.09,0.4l0.05,0.13l0.22,0.17l0.22,0.17l0.28,0.18l0.26,0.17l0.17,0.02l0.05,-0.1l0.06,-0.09l0.19,0.05l0.24,0.17l0.15,0.13l0.07,0.04l0.41,0.23l0.34,0.19l0.43,0.24l0.1,0.14l0.09,0.15l0.2,0.2l0.49,0.36l0.42,0.26l0.34,0.21l0.27,0.15l0.12,-0.02l0.14,-0.08l0.12,-0.05l0.14,0.04l0.21,0.11l0.49,0.34l0.46,0.27l0.5,-0.05l0.13,0.04l0.09,0.24l0.06,0.24l0.56,0.16l0.37,0.07l0.42,0.13l0.21,0.1l0.22,-0.12l0.04,-0.11l0.18,-0.06l0.29,0.03l0.55,0.19l0.23,0.06l0.19,-0.18l0.36,-0.08l0.19,-0.09l0.39,0.2l0.7,0.25l0.36,0.16l0.09,0.15l0.04,0.15l0,0.35l0.09,0.16l0.71,0.36l0.23,0.15l0.19,0.05l0.11,0.01l0.07,0.04l0.06,0.2l0.05,0.05l0.14,0.05l0.15,0.03l0.46,-0.18l0.31,-0.13l0.22,0.03l0.14,0.15l0.02,0.22l0.08,0.23l0.16,0.11l0.17,0.01l0.43,-0.15l0.34,0.12l0.31,0.04l0.35,0.07l0.14,0.06l0.36,0.19l0.44,0.19l0.17,-0.02l0.71,-0.35l0.06,0.04l0.14,0.34l0.22,0.12l0.34,0.11l0.35,-0.2l0.28,0.06l0.34,0.02l0.32,-0.09l0.28,-0.02l0.41,0.17l0.09,-0.04l0.08,-0.11l0.16,-0.49l0.14,-0.43l-0.01,-0.26l-0.13,-0.38l-0.33,-0.49l-0.02,-0.15l0.11,-0.86l0.12,-0.5l0.11,-0.24l0.12,-0.34l0.02,-0.16l-0.01,-0.14l-0.11,-0.09l-0.03,-0.11l0.03,-0.09l0.09,-0.05l0.38,-0.06l0.42,-0.14l0.17,-0.07l0.13,-0.07l0.13,-0.11l0.12,0l0.38,0.16l0.13,0.1l0.07,0.31l0.06,0.12L725,382l-0.23,0.77l0.04,0.29l0.19,0.21l0.17,0.15l-0.03,0.06l-0.34,0.25l-0.06,0.13l0.08,0.13l0.13,0.11l0.06,0.1l0.06,0.33l0.17,0.09l0.34,0.21l0.3,0.15l0.52,-0.1l0.15,0.07l0.25,0.07l0.2,0.02l0.12,0.05l0.06,0.05l-0.01,0.07l0.01,0.07l0.28,0.02l0.15,0.04l0.5,-0.07l0.5,-0.1l0.23,-0.29l0.1,-0.02l0.29,-0.11l0.29,0.12l0.31,0.17l0.17,0.05l0.33,0.03l0.33,-0.02l0.78,-0.08l0.43,0.04l0.39,-0.24l0.08,0l0.17,0.19l0.43,0.02l0.23,-0.09l0.25,-0.07l0.16,-0.02l0.13,0l0.15,0.02l0.14,-0.06l0.07,-0.13l-0.01,-0.19l-0.1,-0.21l-0.09,-0.12l-0.02,-0.06l0.03,-0.15l0.08,-0.21l0.15,-0.24l-0.11,-0.23l-0.15,-0.27l-0.11,-0.03l-0.28,0.06l-0.3,-0.01l-0.24,-0.16l-0.18,-0.2l-0.04,-0.17l0.05,-0.21l0.08,-0.19l0.02,-0.07l0.23,0l0.31,0.04l0.24,0.05l0.19,0l0.35,-0.24l0.16,-0.01l0.18,-0.05l0.08,-0.05l0.05,0.04l0.2,0.03l0.21,-0.01l0.18,-0.07l0.19,-0.1l0.33,-0.22l0.07,-0.13v-0.12l-0.06,-0.08l-0.06,-0.04l0.03,-0.1l0.14,-0.17l0.5,-0.26l0.43,-0.32l0.24,-0.24l0.11,-0.29l0.14,-0.31l0.13,-0.12l0.3,-0.08l0.85,-0.12l0.27,-0.13l0.4,-0.23l0.2,-0.18l0.11,-0.15l0.01,-0.17l0.26,-0.05l0.23,-0.27l0.28,-0.27l0.49,-0.23l0.43,-0.31l0.15,0.05l0.16,0.15l0.08,0.16l0.02,0.08l0.56,0.1l0.09,-0.02l0.41,0.14l0.38,0.17l0.21,0.04l0.1,0l0.09,-0.05l0.1,-0.15l0.1,-0.11l0.07,-0.05l0,-0.18l0.55,-0.34l0.49,-0.25l0.42,-0.18l0.12,0.07l0.14,0.14l0.19,0.35l0.11,0.09l0.29,-0.05l0.05,0.04l-0.04,0.13l-0.19,0.16l-0.25,0.14l-0.16,0.11l0.05,0.38l-0.01,0.13l0.07,0.04l0.52,-0.38l0.25,-0.07l0.09,0.09l0.03,0.2l0.21,0.41l0.09,0.21l-0.52,0.5l-0.19,0.26l0.01,0.09l-0.01,0.09l-0.13,0.13l0.01,0.05l0.11,0.08l0.13,0.06l0.06,0l0.11,-0.12l0.49,-0.17l0.14,0.03l0.35,0.26l0.16,0.02l0.42,0.08l0.27,-0.1l0.2,0.09l0.41,0.33l0.09,0.06l-0.03,0.2l-0.02,0.22l0.1,0.17L748.89,381.32zM697.73,364.3l0.06,0.18l-0.05,-0.16L697.73,364.3zM738.2,439.69l-0.11,-0.03l-0.11,0.15l0.01,0.18l0.02,0.1l0,0.06l0.02,0.08l0.03,0.01l0.13,-0.1l-0.07,-0.29L738.2,439.69zM736.97,439.31l-0.05,0.06l-0.04,0.15l0.14,0.16l0.16,0.02l-0.08,-0.11L736.97,439.31zM737.76,440.24l-0.12,0.03l-0.07,0.12l0.09,0.13l0.06,0.12l0.22,0l0.01,-0.06l-0.04,-0.14L737.76,440.24z"/>
                    <path id="LK" style="stroke-width:0.2;fill:lightgrey" data-name="Sri Lanka" class="land" d="M700.17,435.18l0.27,0.01l0.29,-0.01l0.2,0.04l0.35,0.44l0.94,0.78l0.51,0.79l0.05,0.17l0.07,0.15l0.12,0.04l0.1,0.07l0.51,0.76l0.06,0.15l-0.01,0.17l0.03,0.12l0.13,0.06l0.17,0.03l0.11,0.11l0.14,0.61v0.19l0.04,0.08l0.64,0.95l0.04,0.12l-0.01,0.09l0.02,0.07l0.13,0.17l0.19,0.45l0.1,0.1l0.12,0.39l0.01,0.75l-0.04,0.33l-0.12,0.41l-0.14,0.4l-0.15,0.29l-0.21,0.24l-0.72,0.52l-0.21,0.1l-0.94,0.32l-0.69,0.31l-0.64,0.08l-0.64,-0.17l-0.48,-0.4l-0.25,-0.59l-0.17,-0.62l-0.25,-0.69l-0.19,-2.12l-0.09,-0.59l-0.15,-0.76l0.01,-0.33l0.1,-0.32l0,0.69l0.1,0.09l0.07,-0.09l0.06,-0.72l0.05,-0.3l0.26,-0.79l0,-0.14l-0.04,-0.3l0,-0.15l0.38,-0.55l0.1,-0.32l0.05,-0.33l-0.02,-0.36l-0.07,-0.35l0.31,0.11l0.17,0.12l0.17,0.08l0.14,-0.04l0.17,0l-0.12,-0.19l-0.36,-0.18l-0.59,-0.11l-0.19,-0.14l-0.07,-0.12l0.04,-0.14L700.17,435.18zM700.13,435.69l-0.18,0.03l-0.14,-0.19l-0.03,-0.08l0.04,-0.06l0.04,-0.03l0.04,0.01l0.07,0.18L700.13,435.69zM699.87,437.33l0.08,0.21l-0.23,-0.15l-0.15,-0.12l-0.05,-0.1l0.32,0.11L699.87,437.33z"/>
                    <path id="MV" style="stroke-width:0.2;fill:lightgrey" data-name="Maldives" class="land" d="M682.01,451.05l-0.05,0.03l-0.05,-0.01l-0.02,-0.03l0.02,-0.05l0.04,-0.06l0.03,-0.07l0.04,-0.04l0.03,0.01l0,0.04l-0.01,0.05l-0.01,0.07L682.01,451.05zM681.74,453.66l-0.06,0.01l-0.04,-0.05l0.01,-0.07l0.05,-0.05l0.07,0l0.04,0.04l-0.02,0.07L681.74,453.66z"/>
                    <path id="NP" style="stroke-width:0.2;fill:lightgrey" data-name="Nepal" class="land" d="M722.98,381.67L723.09,381.76L723.1,381.9L723.08,382.06L722.97,382.39L722.86,382.63L722.74,383.13L722.63,383.99L722.65,384.14L722.98,384.64L723.11,385.02L723.12,385.27L722.98,385.71L722.82,386.19L722.75,386.3L722.66,386.34L722.25,386.17L721.97,386.2L721.64,386.29L721.3,386.27L721.02,386.22L720.67,386.41L720.33,386.31L720.12,386.18L719.97,385.85L719.91,385.8L719.2,386.16L719.03,386.18L718.58,385.99L718.22,385.8L718.08,385.74L717.74,385.67L717.42,385.63L717.08,385.51L716.65,385.66L716.48,385.65L716.32,385.54L716.24,385.31L716.21,385.1L716.07,384.95L715.85,384.91L715.53,385.05L715.07,385.22L714.92,385.19L714.79,385.14L714.74,385.1L714.68,384.89L714.6,384.85L714.5,384.84L714.31,384.79L714.07,384.64L713.37,384.28L713.28,384.13L713.28,383.77L713.24,383.63L713.16,383.48L712.79,383.32L712.09,383.07L711.7,382.87L711.51,382.96L711.16,383.05L710.96,383.23L710.73,383.17L710.19,382.98L709.89,382.95L709.72,383.02L709.67,383.13L709.45,383.25L709.24,383.15L708.82,383.02L708.45,382.94L707.89,382.78L707.83,382.54L707.73,382.3L707.6,382.25L707.1,382.3L706.64,382.03L706.15,381.69L705.94,381.58L705.8,381.54L705.68,381.58L705.54,381.66L705.42,381.69L705.15,381.54L704.81,381.33L704.39,381.07L703.9,380.71L703.7,380.5L703.6,380.35L703.5,380.21L703.07,379.97L702.73,379.78L702.33,379.55L702.26,379.51L702.1,379.38L701.87,379.21L701.67,379.16L701.61,379.25L701.56,379.35L701.39,379.33L701.13,379.15L700.85,378.97L700.64,378.8L700.42,378.63L700.36,378.5L700.46,378.11L700.58,377.77L700.69,377.69L700.87,377.47L700.94,377.07L700.93,376.73L701.11,376.26L701.35,375.75L701.76,375.2L701.94,375.02L702.14,374.9L702.52,374.5L702.6,374.43L702.77,374.33L702.93,374.3L703.05,374.35L703.18,374.56L703.33,374.76L703.52,374.75L703.74,374.58L704.2,373.79L704.83,373.63L705.42,373.71L705.95,373.83L706.11,374.09L706.21,374.37L706.28,374.51L706.45,374.67L707.2,375.07L707.63,375.42L708.23,375.9L708.68,376.11L709.07,376.13L709.3,376.31L709.63,376.68L709.92,377.11L710.28,377.5L710.52,377.49L710.86,377.36L711.26,377.2L711.51,377.28L711.73,377.39L711.8,377.59L711.94,377.97L712.09,378.37L712.32,378.51L712.6,378.71L712.75,378.88L713.27,379.17L713.34,379.29L713.45,379.38L713.58,379.43L713.68,379.49L713.84,379.51L714.45,379.33L714.61,379.35L714.7,379.39L714.7,379.45L714.59,379.73L714.5,380.09L714.59,380.27L714.85,380.34L715.4,380.39L716.15,380.39L716.38,380.57L716.61,380.84L716.84,381.3L716.93,381.49L717.04,381.55L717.24,381.47L717.27,381.28L717.28,381L717.44,380.9L717.55,380.98L717.67,381.2L717.98,381.39L718.2,381.49L718.42,381.46L718.51,381.38L718.61,381L718.78,380.94L719,380.97L719.08,381.04L719.16,381.2L719.42,381.27L719.68,381.37L719.92,381.49L720.26,381.78L720.68,381.83L721.17,381.82L721.42,381.83L721.61,381.85L721.78,381.83L722.28,381.63L722.48,381.61L722.74,381.63z"/>
                    <path id="PK" style="stroke-width:0.2;fill:lightgrey" data-name="Pakistan" class="land" d="M684.21,365.92L684.16,365.92L684.04,365.88L684,365.68L683.93,365.54L683.86,365.54L683.65,365.51L683.55,365.41L683.45,365.36L683.39,365.26L683.28,365.17L683.09,365.15L682.92,365.12L682.57,365.09L682.54,364.93L682.45,364.88L682.29,364.86L682.16,364.83L682.17,364.65L682.16,364.48L682.09,364.5L682.12,364.39L682.09,364.29L682.03,364.15L682.04,364.08L682.11,363.98L682.13,363.88L682.13,363.73L682.11,363.59L682.08,363.47L682.01,363.31L681.97,363.2L682.04,363.01L682.04,362.82L682.01,362.67L681.95,362.63L682,362.51L682,362.35L681.92,362.15L681.88,361.97L681.79,361.77L681.79,361.58L681.73,361.23L681.68,361.18L681.63,361.06L681.57,360.9L681.59,360.75L681.53,360.61L681.53,360.5L681.57,360.33L681.58,360.17L681.58,360.03L681.64,359.97L681.76,359.96L681.89,359.94L682.08,359.96L682.24,359.94L682.29,359.76L682.32,359.64L682.32,359.28L682.57,359.25L682.65,359.16L682.75,359.08L682.84,359.1L682.97,359.06L683.1,359.08L683.15,358.93L683.22,358.89L683.32,358.82L683.31,358.65L683.37,358.46L683.45,358.35L683.47,358.2L683.41,358.03L683.25,357.99L683.12,358.03L683.05,357.95L682.92,357.86L682.73,357.81L682.68,357.71L682.61,357.68L682.49,357.71L682.4,357.65L682.32,357.56L682.32,357.36L682.33,357.19L682.4,357.09L682.49,357.09L682.49,356.98L682.57,356.97L682.56,356.82L682.48,356.78L682.32,356.74L682.14,356.77L681.92,356.77L681.73,356.76L681.59,356.62L681.49,356.57L681.39,356.57L681.33,356.54L681.22,356.49L681.12,356.47L681.04,356.35L680.97,356.29L680.84,356.28L680.8,356.2L680.72,355.94L680.6,355.81L680.6,355.71L680.41,355.74L680.29,355.69L680.23,355.64L680.05,355.69L679.94,355.71L679.85,355.7L679.72,355.75L679.67,355.78L679.53,355.88L679.51,355.81L679.45,355.75L679.31,355.68L679.27,355.59L679.07,355.56L679.09,355.42L679.12,355.3L679.05,355.15L679,355L679.04,354.9L679.12,354.82L679.09,354.6L679.2,354.48L679.47,354.48L679.52,354.41L679.56,354.28L679.7,354.18L679.79,354.08L679.91,353.99L679.96,353.89L679.99,353.77L680.11,353.76L680.31,353.72L680.33,353.56L680.36,353.39L680.44,353.36L680.53,353.29L680.55,353.14L680.64,352.98L680.74,352.9L680.85,352.9L681.01,352.88L681.17,352.88L681.39,352.82L681.65,352.8L681.9,352.88L682.08,352.93L682.2,352.88L682.32,352.87L682.44,352.83L682.59,352.77L682.75,352.77L682.73,352.6L682.57,352.52L682.52,352.39L682.44,352.34L682.28,352.35L682.09,352.33L682.17,352.25L682.29,352.23L682.48,352.24L682.7,352.28L682.91,352.3L683.13,352.34L683.32,352.39L683.48,352.38L683.45,352.02L683.38,352.02L683.12,351.92L682.73,351.79L682.63,351.8L681.73,351.82L680.9,351.86L680.56,351.92L679.92,351.98L679.51,352L679.26,352.1L678.98,352.22L678.68,352.3L678.47,352.33L678.21,352.45L678.04,352.68L677.54,353.03L677.27,353.2L677.13,353.38L676.97,353.4L676.7,353.37L676.49,353.57L676.26,353.87L675.84,354.29L675.61,354.46L675.48,354.73L675.58,354.88L675.92,355.09L676.08,355.29L676.16,355.45L676.32,355.86L676.42,356.27L676.57,356.44L676.61,356.74L676.65,356.92L676.57,357.05L676.49,357.19L676.49,357.33L676.58,357.46L676.66,357.59L676.7,357.69L676.65,357.8L676.49,357.97L676.41,358.14L676.24,358.42L675.96,358.62L675.79,358.76L675.59,359.06L675.28,359.4L675.14,359.67L675.01,359.83L674.86,359.91L674.9,360.06L675.02,360.25L675.23,360.45L675.22,360.78L675.21,361.01L675.22,361.3L675.11,361.53L674.54,361.76L673.99,361.86L673.32,361.87L673.07,361.83L672.87,361.78L672.14,361.53L671.84,361.68L671.78,362.05L672.31,362.64L672.53,362.98L672.77,363.53L672.95,363.82L672.89,364.09L672.41,364.39L671.93,364.68L671.32,364.74L670.94,364.84L670.75,364.99L670.62,365.61L670.48,365.84L670.49,366.11L670.36,366.41L670.16,366.61L670.02,366.93L670.07,367.54L670.13,368.57L669.87,368.9L669.58,369.22L669.27,369.46L668.98,369.57L668.74,369.53L668.54,369.32L668.43,369.15L668.22,369.01L668,369.04L667.79,369.17L667.44,369.13L667.14,369L666.99,369.01L666.91,369.14L666.59,369.42L665.81,369.85L665.49,369.88L665.36,369.98L665.41,370.16L665.55,370.3L665.79,370.4L665.8,370.52L665.59,370.62L665.41,370.73L665,370.87L664.54,370.93L664.06,370.85L663.81,370.66L663.52,370.64L663.25,370.78L662.98,371L662.68,371.49L662.6,371.57L662.52,371.65L662.32,371.75L662.04,371.93L661.9,372.28L661.73,372.91L661.77,373.25L661.79,373.84L661.72,374.26L661.6,374.53L661.62,374.74L661.81,374.98L661.73,375.14L661.58,375.31L661.42,375.41L660.82,375.59L659.99,375.84L659.44,376L658.63,376.24L658.39,376.3L657.89,376.32L657.64,376.28L657.29,376.27L656.78,376.28L656.42,376.35L656.06,376.47L655.8,376.62L655.65,376.76L655.59,376.83L655.23,376.71L654.1,376.5L651.04,376.78L650.75,376.73L649.71,376.39L648.36,375.96L647.53,375.69L646.46,375.34L646.99,375.96L647.32,376.35L647.79,376.9L647.85,377.03L647.84,377.24L648.32,378.07L648.49,378.5L648.64,378.75L649.02,379.15L649.39,379.53L649.79,379.71L650.07,379.75L650.69,379.95L650.92,380.11L651.29,380.52L651.72,380.47L651.8,380.47L651.83,380.49L651.84,380.63L651.78,381.26L651.9,381.9L651.98,382.85L651.95,383.02L651.85,383.29L651.84,383.47L651.81,383.58L651.84,383.63L651.98,383.69L652.27,383.73L652.98,383.62L653.06,383.65L653.23,383.76L653.35,383.94L653.37,384.02L653.19,384.17L653.16,384.42L653.21,384.79L653.19,384.84L653.03,384.92L652.98,385.46L652.95,385.51L652.77,385.56L651.91,385.53L651.81,385.54L651.49,385.68L650.93,385.79L650.78,385.84L650.58,386L650.43,386.2L650.4,386.38L650.37,386.42L650.06,386.38L649.95,386.54L649.34,386.78L649.26,386.83L649.17,387.02L649.09,387.55L649.01,388.02L648.97,388.09L648.77,388.25L648.75,388.3L648.78,388.49L648.69,388.82L648.62,389.74L648.54,390L648.49,390.05L648.98,390.2L649.44,390.22L649.95,390.15L650.13,389.99L650.26,389.93L650.4,390.02L650.59,390.21L650.8,390.15L650.95,390.02L651.31,389.84L651.57,389.81L652.55,389.93L652.99,389.84L653.31,389.92L653.89,389.98L653.9,389.71L654.07,389.54L654.53,389.43L655.13,389.57L655.28,389.54L655.48,389.38L655.67,389.47L655.74,389.6L656.84,389.9L656.98,389.99L657.16,390.06L657.49,389.68L658.29,389.67L659.26,389.47L660.03,389.53L660.6,389.33L661.59,389.19L661.85,389.19L662.06,389.25L662.24,389.25L662.07,389.13L661.93,389.06L661.3,389.1L661.38,388.92L661.54,388.8L661.84,388.77L662.13,388.85L662.43,389.13L662.53,389.46L662.89,389.93L662.92,390.28L662.84,390.84L662.9,391.05L664.02,391.27L664.22,391.38L664.54,392.57L664.59,392.89L664.6,393.16L664.76,393.41L664.93,393.49L665.01,393.57L665.07,393.64L665.15,393.88L665.31,394.05L665.55,393.94L665.56,394.1L665.61,394.27L666.03,394.22L666.15,393.99L666.4,394.22L666.54,394.22L666.64,394.16L666.73,394.25L666.87,394.44L666.96,394.31L667,394.13L667.2,394L667.33,393.91L667.61,393.84L667.91,393.79L668.19,393.79L668.57,393.8L668.58,392.88L668.62,392.8L668.67,392.75L668.73,392.73L668.79,392.75L668.87,392.88L668.96,392.88L669.07,392.8L669.3,392.86L669.49,392.82L669.68,392.87L670.01,392.87L670.59,392.85L670.92,392.86L671.13,393L671.36,393.16L671.61,393.19L671.97,393.17L672.21,393.11L672.34,392.96L672.43,392.81L672.96,392.6L673.53,392.43L673.69,392.41L673.74,392.51L673.71,392.68L673.78,392.84L674,392.94L674.16,392.96L674.31,392.94L674.41,392.89L674.64,392.64L674.76,392.58L674.91,392.59L675.08,392.47L675.09,392.38L674.98,392.33L674.88,392.2L674.9,392.09L674.88,391.94L674.89,391.8L674.97,391.69L675.09,391.58L675.02,391.37L674.82,390.96L674.62,390.43L674.4,389.99L674.13,389.6L673.98,389.32L674,388.69L673.97,388.57L673.88,388.49L673.75,388.44L673.57,388.51L673.41,388.52L673.07,388.51L672.9,388.44L672.43,387.81L672.37,387.56L672.37,387.31L672.53,386.86L672.57,386.45L672.59,386.07L672.57,385.96L672.48,385.83L672.32,385.73L671.91,385.71L671.41,385.58L671.03,385.35L670.77,385.22L670.7,385.13L670.67,385.03L670.74,384.56L670.85,384.03L670.94,383.87L671.09,383.7L671.2,383.58L671.38,383.43L671.86,382.93L672.29,382.23L672.56,381.74L672.7,381.6L672.84,381.47L673.05,381.32L673.29,381.19L673.53,381.19L673.75,381.32L673.92,381.46L673.98,381.79L674.09,382L674.22,382.12L674.39,382.18L674.61,382.17L675.48,381.8L675.77,381.72L676.48,381.68L676.97,381.53L677.4,381.38L677.46,381.12L677.62,380.7L678.13,380.17L678.27,379.93L678.42,379.47L678.59,379.05L678.73,378.88L679.52,378.42L680.3,378L680.43,377.81L680.93,376.92L681.22,376.33L681.3,376.13L681.46,375.61L681.64,375.09L681.88,374.97L682.42,374.77L682.84,374.58L683.06,374.36L683.19,374.16L683.17,373.97L683.05,373.74L683.08,373.61L683.1,373.47L683.41,373.2L683.98,372.39L684.33,371.99L684.45,371.99L684.81,371.77L685.16,371.53L685.14,371.42L685.09,371.27L684.89,371.21L684.83,371.03L684.88,370.79L685.05,370.12L685.01,369.93L684.81,369.31L684.86,369.14L684.94,368.96L685.16,368.73L685.46,368.53L686.39,368.07L686.58,368.02L686.9,367.9L687.1,367.65L687.12,367.44L687.04,367.31L686.84,367.14L686.48,366.98L686.15,366.84L685.59,366.85L685.3,366.73L685.23,366.65L685.19,366.36L685.24,365.86L685.15,365.81L685.03,365.87L684.74,365.81L684.38,365.82L684.34,365.79L684.29,365.82z"/>

                </svg>
