<svg
                    xmlns:dc="http://purl.org/dc/elements/1.1/"
                    xmlns:cc="http://creativecommons.org/ns#"
                    xmlns:rdf="http://www.w3.org/1999/02/22-rdf-syntax-ns#"
                    xmlns:svg="http://www.w3.org/2000/svg"
                    xmlns="http://www.w3.org/2000/svg"
                    xmlns:sodipodi="http://sodipodi.sourceforge.net/DTD/sodipodi-0.dtd"
                    xmlns:inkscape="http://www.inkscape.org/namespaces/inkscape"
                    enable_background="new 0 0 1200 589"
                    height="900"
                    width="2000"
                    viewBox="160 560 250 250"
                    id="us-map"
                    preserveAspectRatio="xMidYMid meet"
                    inkscape:version="0.48.4 r9939"
                    sodipodi:docname="us.svg">
                <sodipodi:namedview
                        pagecolor="#ffffff"
                        bordercolor="#666666"
                        borderopacity="1"
                        objecttolerance="10"
                        gridtolerance="10"
                        guidetolerance="10"
                        inkscape:pageopacity="0"
                        inkscape:pageshadow="2"
                        inkscape:window-width="1920"
                        inkscape:window-height="1137"
                        id="namedview69"
                        showgrid="false"
                        inkscape:zoom="0.80893016"
                        inkscape:cx="817.66365"
                        inkscape:cy="409.3738"
                        inkscape:window-x="1192"
                        inkscape:window-y="118"
                        inkscape:window-maximized="1"
                        inkscape:current-layer="svg2"/>
                <defs
                        id="defs4">
                    <style
                            type="text/css"
                            id="style6">path {
                        fill-rule: evenodd;
                    }</style>
                </defs>
                <metadata
                        id="metadata8">
                    <views
                            id="views10">
                        <view
                                h="589.235294118"
                                padding="0"
                                w="1000"
                                id="view12">
                            <proj
                                    id="laea-usa"
                                    lat0="45"
                                    lon0="-100"/>
                            <bbox
                                    h="321.97"
                                    w="589.33"
                                    x="690.09"
                                    y="918.69"
                                    id="bbox15"/>
                        </view>
                    </views>
                    <rdf:RDF>
                        <cc:Work
                                rdf:about="">
                            <dc:format>image/svg+xml</dc:format>
                            <dc:type
                                    rdf:resource="http://purl.org/dc/dcmitype/StillImage"/>
                            <dc:title/>
                        </cc:Work>
                    </rdf:RDF>
                </metadata>
                <path id="GI" style="stroke-width:0.1;fill:lightgrey" data-name="Gibraltar" class="land" d="M175.59,697.64,175.57,697.75,175.58,697.84,175.56,698.06,175.51,698.05,175.44,697.94,175.45,697.78,175.52,697.74,175.47,697.65,175.59,697.64z"/>
                <path id="VA" style="stroke-width:0.1;fill:lightgrey" data-name="Vatican City" class="land" d="M295.17,648.06,295.11,648.06,295.09,648.03,295.11,647.99,295.16,647.99,295.17,648.06z"/>
                <path id="CY" style="stroke-width:0.1;fill:lightgrey" data-name="Cyprus" class="land" d="M443.35,702.35,439.84,704.83,439.62,705.57,439.77,706.08,440.27,706.69,440.39,706.85,440.57,707.32,439.81,707.46,439.04,707.51,438.61,707.45,438.21,707.47,436.97,708.81,436.3,709.26,435.5,709.53,434.69,709.69,434.28,709.71,433.93,709.88,433.67,710.19,433.67,710.49,433.56,710.74,433.12,710.69,432.93,710.2,432.61,710,431.83,710.1,431.44,710.09,430.18,709.63,429.8,709.44,429.56,709.04,428.91,707.61,428.8,706.55,429.41,706.82,429.97,706.49,430.52,705.95,431.17,705.73,431.57,705.83,431.98,705.92,432.7,705.75,433.01,704.95,433.11,704.02,434.34,704.29,435.58,704.43,436.59,704.47,437.59,704.32,440.66,703.34,441.53,702.74,442.07,702.54,443,702.06,443.98,701.78,443.35,702.35z"/>
                <path id="TR" style="stroke-width:0.1;fill:lightgrey" data-name="Turkey" class="land" d="M399.96,647.42,399.78,648.45,400.2,649.58,401.2,651.15,402.2,651.94,406.24,653.89,406.98,654.05,406.81,654.85,406.57,655.56,406.3,656.03,405.12,656.33,401.85,655.46,401.02,655.38,400.44,655.55,399.36,656.18,398.17,655.98,396.5,656.34,396.03,657.52,394.87,658.87,392.97,659.96,391.6,660.54,389.56,662.63,388.63,663.84,388.24,664.08,387.77,664.26,387.93,663.68,388.16,663.15,388.11,662.75,388.12,662.16,388.8,661.5,389.42,661.01,391.26,660.14,391.74,659.41,390.3,659.43,388.84,659.59,387.92,659.48,387.12,659.54,386.87,658.91,386.67,658.52,386.88,658.4,387.14,658.32,387.61,657.64,388.03,657.14,388.64,656.5,388.79,656.12,388.79,655.77,388.65,655.53,388.62,655.24,388.6,654.82,388.63,653.97,390.02,653.04,390.46,652.94,390.61,652.52,390.51,651.53,390.32,650.73,390.07,650.67,389.74,650.44,389.52,650.17,389.17,649.87,388.57,649.69,388.55,649.44,388.61,649.19,388.83,648.93,389.85,648.7,389.97,648.52,390.11,648.07,390.31,647.61,390.55,647.46,390.98,647.47,391.79,647.36,392.36,647.21,392.93,646.9,393.22,646.61,394.44,646.44,394.78,646.3,395.12,646.42,395.58,646.91,396.33,647.62,396.74,647.85,397.04,647.74,397.59,647.49,398.11,647.49,398.53,647.53,398.74,647.31,399.05,647.26,399.96,647.42zM490.76,651.48,491.21,651.66,492.05,651.89,492.58,652.17,492.87,652.24,493.56,651.68,494.58,651.69,495.48,651.76,495.94,651.86,496.51,652.05,497.2,652.17,497.48,651.9,497.88,651.1,498.03,651,498.14,650.93,498.65,650.87,499.13,650.93,499.36,651.07,499.59,651.7,500.16,651.93,501.17,652.95,501.79,653.36,501.94,653.53,501.74,653.74,501.82,653.99,502.17,654.33,502.67,654.45,503.2,654.41,503.5,654.53,503.7,654.71,503.76,654.98,503.75,655.15,503.85,655.52,504.27,656.06,504.77,656.38,505.04,656.73,505.47,657.93,505.65,658.59,505.58,659.22,505.28,659.87,504.62,660.68,504.78,661.02,504.93,661.47,504.88,661.79,505.35,662.82,505.56,663.46,505.39,663.61,505.27,663.82,506.12,664.31,507.13,664.72,507.55,664.8,508.71,664.61,509.46,664.57,510.21,664.96,511.29,665.91,512.45,667.14,512.69,667.51,512.79,667.68,513.01,667.98,512.78,667.97,512.39,667.7,511.47,666.95,510.99,667.27,510.58,667.84,510.14,669.96,509.77,670.19,509.13,670.18,508.35,670.11,507.81,670.22,507.67,670.35,507.74,670.58,507.9,670.93,508.02,671.37,508.05,671.73,508.33,672.06,508.71,672.37,508.73,672.68,508.67,673.13,508.58,673.47,508.49,673.67,508.67,674.18,509.08,674.8,509.34,675.03,509.25,676.2,509.4,676.71,509.52,677.42,509.47,678.6,509.53,678.89,509.67,678.99,510.04,679.04,510.42,679.15,510.54,679.34,510.54,679.48,510.08,680.02,510.02,680.4,509.86,680.94,509.73,681.26,509.32,681.86,509.06,682.47,508.94,682.97,509.02,683.21,509.78,683.28,510.19,683.64,511.29,684.36,511.49,684.65,511.19,685.09,511.19,685.28,511.33,685.51,511.4,685.92,511.37,686.38,511.38,686.98,511.58,687.08,512.33,687.64,512.86,688.2,512.88,688.38,512.62,688.82,512.68,689.33,512.66,689.45,512.43,689.26,512.02,689.19,511.59,689.17,511.33,689.32,510.85,689.72,510.22,690.15,509.71,690.56,509.41,690.83,509.17,690.79,508.98,690.55,508.87,690.21,508.92,688.94,508.81,688.54,508.57,688.26,508.29,688.11,507.95,688.02,507.61,688.01,507.11,688.38,506.42,688.77,505.34,688.73,504.61,688.66,504.26,688.59,502.85,688,502.56,687.98,502.03,687.74,501.41,687.55,500.36,687.91,499.91,687.83,499.27,687.51,499.05,687.6,498.34,688.55,497.13,689.56,496.48,689.73,496.17,688.71,495.87,688.32,495.73,688.27,495.42,688.14,495.19,688.22,494.46,688.91,493.3,689.33,492.33,689.59,490.8,689.9,489.62,690.05,489.11,690.06,488.02,689.92,487.06,689.73,486.09,689.74,485.35,689.82,483.63,690.57,480.71,692.11,478.49,692.84,477.25,693.14,476.28,693.31,474.61,693.32,473.25,693.2,472.31,693.22,471.78,693.03,471.04,692.41,470.13,691.8,469.73,691.66,469.21,691.54,468.44,691.47,466.52,692.37,465.92,692.61,465.27,692.79,463.94,693.34,463.36,693.63,462.62,693.61,461.68,693.53,460.86,693.56,460.32,693.14,460.03,692.67,458.92,692.38,458.12,692.3,457.92,692.51,457.71,693.15,457.37,694.78,457.31,695.19,458.01,696.8,457.98,697.05,457.48,697.13,456.9,697.16,456.53,697.3,456.22,697.57,456.03,698.96,455.37,699.22,455.05,699.51,454.72,700.37,454.55,700.39,453.47,699.73,452.97,699.68,453.4,699,452.93,697.67,452.42,696.42,452.9,695.61,453.9,694.64,454.96,693.5,454.96,692.8,454.9,692.26,454.6,691.89,454.02,691.4,453.05,691.92,452.36,692.51,451.9,692.63,451.41,692.96,451.17,693.56,450.58,694.02,449.61,694.2,448.15,693.71,446.58,692.95,445.69,692.33,444.97,692.18,444.28,692.45,442.25,693.96,440.39,696.16,439.93,696.54,438.18,697.48,437.02,697.79,436.48,697.72,434.18,698.14,433.03,698.2,432.13,698.69,430.37,698.15,429.32,697.47,428.69,696.77,427.66,695.26,426.93,694.54,425.28,693.89,422.42,692.31,421.67,692.14,419.72,691.92,417.66,691.77,417.24,692.35,417.08,694.62,416.73,695.24,416.58,696.41,416.32,696.75,415.93,696.97,415.31,696.6,414.88,696.44,413.88,696.92,411.9,697.59,411.23,697.69,408.94,696.84,408.1,696.29,407.56,695.69,407.38,694.66,407.04,694.08,406.99,693.68,406.85,693.21,406.39,693.03,405.89,693.38,405.36,693.37,404.69,693.15,403.12,692.29,401.91,692.22,401.18,693.27,400.62,693.61,400,693.71,399.96,693.41,400.43,692.73,398.55,692.85,397.55,693.37,396.77,693.29,396.19,693.06,396.28,692.77,396.87,692.67,397.38,692.43,399.42,692.25,399.9,692.06,400.42,691.31,401.38,690.68,401.5,690.4,400.77,690.4,397.63,690.58,395.49,690.48,395.23,690.8,394.91,690.84,394.82,689.98,395.16,689.58,395.61,689.62,396.74,689.27,396.64,688.55,395.83,688.06,395.67,687.78,395.09,687.71,394.61,687.37,394.51,686.51,394.13,685.56,393.59,685.1,393.66,684.84,394.65,684.52,394.85,683.19,394.7,682.37,394.21,682.3,392.76,681.66,392.32,681.72,391.84,681.01,391,680.5,390.59,680.69,390.33,680.92,389.94,680.81,389.29,680.36,388.65,680.12,388.37,679.83,388.72,679.03,389.21,679.05,389.3,678.43,388.91,677.39,388.95,676.85,389.38,676.71,389.86,676.81,390.36,677.43,390.52,678.03,390.41,678.62,390.72,679.18,390.95,679.33,391.09,678.73,391.3,678.62,391.59,678.88,392.21,679.01,393.8,678.64,394.11,678.33,392.94,678.37,392.51,678.08,392.05,677.43,391.76,676.83,391.71,676.54,391.55,676.12,391.73,675.89,392.53,675.55,393.23,674.59,392.94,674.32,392.6,674.19,392.24,674.28,391.89,673.96,391.85,673.5,392.12,673.13,392.15,672.62,391.25,671.36,391,671.09,391.19,670.68,391.88,669.99,392.54,669.14,392.46,668.85,391.97,668.74,389.67,669.11,388.77,669.43,387.17,669.57,387.06,669.11,387.09,668.69,387.45,667.92,387.42,666.04,387.63,665.01,388.52,664.7,389.61,663.19,391.38,661.41,393.22,661.44,393.96,660.95,395.05,660.92,395.25,661.28,395.38,661.62,396.34,662.11,398.04,662.04,398.45,661.84,398.85,661.57,398.06,660.69,398.31,660.44,399.02,660.41,399.8,660.62,399.83,660.82,399.63,661.1,399.39,661.58,399.61,661.67,401.81,661.38,404.11,661.62,404.84,661.49,406.64,661.5,406.97,661.2,406.42,660.82,405.88,660.68,405.53,660.5,405.17,660.23,406.31,659.37,406.96,659.21,410.01,658.69,412.28,658.42,412.31,658.23,411.98,658.23,409.05,657.79,408.34,657.45,407.36,656.65,407.15,656.42,406.9,656.03,407.05,655.19,407.23,654.52,407.59,654.13,408.76,654.07,412.78,654.76,415.64,654.35,418.77,655.34,421.77,655.14,422.38,654.69,423.13,653.25,427.36,650.84,428.84,649.58,430.43,648.88,433.15,648.12,435.42,647.1,436.07,646.98,441.53,647.47,445.28,647.53,447.01,646.57,448.01,646.89,447.91,647.23,447.73,647.53,447.78,648.12,448.37,648.99,448.97,649.59,450.72,650.43,453.15,649.72,453.54,649.8,454.04,650,454.9,652.29,455.56,653.1,456.42,653.65,457.12,653.76,457.64,653.19,458.05,652.96,458.92,652.86,460.37,653.65,460.86,654.46,463.32,655.08,465.57,655.4,466.54,656.08,469.71,656.77,470.89,656.66,472.88,655.94,476.74,655.15,479.31,656.25,480.01,656.4,480.61,656.3,481.47,656.61,482.39,656.44,485.23,655.14,486.12,654.41,487.06,654.21,487.89,653.77,490.12,652.32,490.76,651.48zM386.21,663.73,384.66,664,384.18,663.73,384.67,663.2,385.57,662.87,385.86,662.84,386.26,663.36,386.21,663.73z"/>
                <path id="SI" style="stroke-width:0.1;fill:lightgrey" data-name="Slovenia" class="land" d="M322.6,604.94,322.01,604.7,321.29,604.6,321.15,604.73,320.87,604.86,320.72,605.09,320.83,606.02,320.66,606.17,319.84,606.08,319.58,606.19,319.13,606.83,318.68,607.1,318.1,607.29,317.68,607.52,317.14,607.72,316.68,607.85,316.5,608.13,316.39,608.44,316.42,608.73,316.88,609.32,316.95,609.95,316.89,610.71,316.79,611.12,316.6,611.39,315.45,611.74,314.26,612.37,314.24,612.51,314.78,613.07,314.8,613.21,314.35,613.52,314.31,613.84,314.36,614.2,314.6,614.58,314.68,614.92,314.03,615.16,313.14,615.07,312.09,614.6,311.73,614.67,311.37,614.91,311.01,614.81,310.61,614.52,310.04,613.92,309.77,613.55,309.65,613.15,309.5,613.09,309.26,613.21,309.07,613.69,308.55,614.55,308.16,614.78,307.58,614.73,306.76,614.74,306.25,614.81,305.62,614.51,305.47,614.57,305.47,614.77,305.24,615.08,304.86,615.29,303.08,614.82,302.83,614.44,303.23,614.26,303.79,613.76,304.16,613.82,304.63,613.71,304.83,613.5,304.54,612.87,303.8,612.09,303.41,611.8,302.87,611.6,302.78,611.39,303.07,610.16,302.98,609.99,302.37,610.04,302.22,609.91,302.17,609.7,302.22,609.41,302.63,608.93,303.09,608.5,303.22,608.26,303.2,608.08,302.61,607.89,302.25,607.69,301.97,607.63,301.78,607.73,301.63,607.61,301.49,607.26,301.63,606.71,302.16,606.21,302.73,605.76,303.23,605.44,303.52,605.3,303.65,604.74,303.95,604.8,304.54,604.83,305.19,604.95,305.8,605.11,306.34,605.31,307.47,605.51,308.5,605.64,308.81,605.75,309.06,605.74,309.37,605.91,309.55,605.78,309.69,605.56,310.25,605.29,310.76,604.94,311.13,604.5,311.33,604.15,311.68,603.9,312.06,603.83,312.4,603.7,313.86,603.54,315.36,603.67,316.07,603.42,316.66,603,317.51,602.87,317.56,602.87,318.84,603.2,318.94,603.01,319,602.92,318.97,601.99,319.38,601.56,319.75,601.38,321.04,601.44,321.2,601.73,321.27,602.17,321.38,602.77,321.6,602.93,321.72,603.17,321.69,603.58,321.94,603.89,322.53,604.72,322.6,604.94z"/>
                <path id="SM" style="stroke-width:0.1;fill:lightgrey" data-name="San Marino" class="land" d="M294.89,629.39,295.18,628.95,295.6,628.88,295.68,629.22,295.48,629.7,295.08,629.77,294.89,629.39z"/>
                <path id="PT" style="stroke-width:0.1;fill:lightgrey" data-name="Portugal" class="land" d="M95.81,724.45,96.73,724.87,97.57,724.67,98.62,725.21,99.16,725.34,98.68,725.72,98.19,726.21,96.98,726.09,95.95,725.62,95.58,725.27,95.48,724.94,95.81,724.45zM63.09,690.98,63.06,691.14,62.68,691.07,62.2,691.12,61.94,690.67,62.17,690.49,62.71,690.44,62.97,690.64,63.09,690.98zM58.91,683.54,59.33,683.6,61.48,683.48,62.05,683.57,61.99,684.19,61.58,684.44,60.32,684.61,58.33,684.21,57.66,683.67,57.57,683.28,57.58,683.09,58,682.95,58.91,683.54zM42.1,678.33,42.65,678.67,41.81,678.74,41.53,678.91,40.85,678.67,40.03,678.7,39.51,678.24,39.4,677.76,39.66,677.46,40.38,677.46,42.1,678.33zM38.77,677.71,38.08,677.73,37.42,677.08,38.39,676.73,38.68,676.94,38.89,677.18,39.01,677.48,38.77,677.71zM44.58,677.44,44.26,677.55,42.47,676.89,41.83,676.59,41,675.83,43.34,676.75,44.58,677.44zM49.31,676.69,49.18,676.77,47.78,676.54,47.38,676.22,47.22,675.64,47.45,675.44,48.07,675.32,48.96,675.43,49.53,675.85,49.53,676.38,49.31,676.69zM21.98,670.1,21.68,670.51,21.17,670.36,21,670.21,21.15,669.31,21.56,669.11,21.97,669.47,21.98,670.1zM161.65,689.14,161.06,689.23,158.77,690.6,158.06,690.6,156.73,690,154.39,689.81,153.63,689.63,152.68,690.02,151.94,690.01,151.36,690.51,150.94,690.37,151.42,689.25,152.17,687.02,152.14,685.65,152.32,684.46,152.12,683.28,151.74,682.54,152.25,680.62,152.2,679.63,151.72,678.38,153.16,678.57,152.71,678.07,152.28,677.76,151.85,677.83,151.5,677.82,150.28,678.3,149.67,678.45,149.49,678.36,149.56,677.59,149.24,676.57,149.73,676.31,150.3,676.23,150.78,675.8,151.08,675.32,150.92,674.45,151.34,673.63,152.33,672.94,151.82,673.05,151.23,673.48,150.31,675.04,150.01,675.84,149.23,676.09,148.52,676.22,148.16,676.14,147.73,675.94,147.7,675.35,147.73,674.89,148.02,673.96,148.14,672.65,148.55,671.47,148.52,671.16,148.4,670.69,148.77,670.23,149.23,669.93,149.93,668.92,150.9,666.49,152.01,663.91,151.92,663.59,151.69,663.35,151.78,662.65,152.45,659.59,152.73,659.19,153.05,658.3,153.12,656.84,153.24,655.84,153.21,655.33,153.11,654.72,152.68,653.56,152.23,651.1,152.2,650.27,152.57,649.86,151.96,649.8,151.68,649.26,151.74,648.65,152.42,647.67,153.06,647.06,153.68,646.66,154.03,646.51,155.48,646.1,155.86,645.9,156.22,645.93,156.28,646.13,156.48,646.51,156.71,646.78,156.78,646.97,156.22,647.8,156.14,648.08,156.43,648.61,156.48,648.76,156.63,648.83,157.02,648.81,157.71,648.47,158.18,648.19,158.35,648.31,159.72,648.15,160.04,648.28,160.26,648.42,160.93,648.62,161.66,648.64,162.57,648.36,162.97,648.08,163.05,647.78,163.07,647.54,163.18,647.39,163.39,647.31,163.71,647.46,164.18,647.58,165.28,647.63,165.5,647.46,165.88,647.51,166.37,647.73,166.95,647.66,167.24,647.92,167.36,648.27,167.39,649.04,167.35,649.8,167.46,650.09,167.85,650.16,168.47,650.15,169.04,650.36,169.47,650.72,169.62,651.09,169.68,651.35,169.46,651.49,169.16,652.04,168.4,652.75,167.3,653.39,166.46,654.19,165.89,655.14,165.17,655.54,164.95,655.76,164.86,656.02,165.34,657.18,165.48,658.07,165.6,659.17,165.52,659.48,165.49,660.68,165.38,661.03,165.4,661.31,165.58,661.62,165.66,661.91,165.33,662.28,164.73,662.72,164.28,663.1,164.16,663.45,164.19,663.67,164.94,664.43,165.08,664.73,164.98,665.47,164.55,666.69,164.13,667.42,164.06,667.5,163.59,667.7,161.32,667.71,160.78,667.88,160.85,668.03,161.39,668.97,161.94,669.48,162.12,669.59,162.32,670.69,163.22,672.45,164.09,672.69,164.39,673.13,164.34,673.75,164.07,674.42,163.54,675.11,162.9,675.6,162.49,676.08,162.45,676.64,162.32,677.35,162.12,677.91,162.07,678.28,163.66,680.65,164.55,680.53,164.67,680.59,164.51,681.15,164.23,681.81,163.89,681.94,163.13,682.14,162.41,682.99,161.83,684.01,161.39,684.5,160.99,685.71,161.04,686.23,161.24,687.04,161.65,689.14z"/>
                <path id="MT" style="stroke-width:0.1;fill:lightgrey" data-name="Malta" class="land" d="M307.78,698.76,307.38,698.89,306.98,698.64,306.88,698.49,307.44,698.36,307.72,698.47,307.83,698.69,307.78,698.76zM309.48,700.21,309.26,700.48,308.61,700.47,308.04,700.05,308.04,699.17,308.69,699.34,309.28,699.93,309.48,700.21z"/>
                <path id="HR" style="stroke-width:0.1;fill:lightgrey" data-name="Croatia" class="land" d="M322.6,604.94,322.96,605.08,324.16,605.75,324.99,606.5,325.45,607.33,326.08,607.98,326.86,608.43,327.49,609.05,327.95,609.83,328.59,610.26,329.42,610.36,329.94,610.62,330.16,611.06,330.61,611.46,331.29,611.81,332.34,612.01,334.36,612.05,334.54,612.06,334.99,612.17,335.53,612.03,336.17,611.76,336.38,611.59,337.06,610.68,337.44,610.76,338.19,610.65,338.64,610.45,338.68,610.45,338.65,610.68,338.6,611.09,338.23,611.38,338.6,612.04,338.96,613.11,338.76,613.63,339,614.04,339.68,614.34,339.74,614.46,339.54,614.58,339.36,614.93,339.34,615.56,339.94,616.16,341.15,616.72,341.53,616.82,341.68,617.03,341.88,617.17,342,617.35,342.01,617.57,341.92,617.72,341.35,617.78,340.7,617.77,340.23,617.5,340.19,617.7,340.19,617.93,339.74,618.06,339.99,619.62,339.89,620.06,339.72,620.21,339.57,620.15,339.38,620.13,339.28,620.28,339.36,620.61,338.92,620.65,338.21,620.48,337.89,620.18,337.83,619.87,337.83,619.59,337.6,619.12,337.04,618.63,335.87,618.55,335.44,618.4,334.99,618.22,334.5,618.09,334.05,618.11,333.51,618.23,332.56,618.02,332.24,618.31,331.74,618.64,331.32,618.63,330.5,617.86,330.25,617.81,329.53,618.2,329.24,618.23,329.01,618.1,328.04,617.81,327.6,617.75,327.27,617.89,326.7,617.74,325.31,616.74,324.45,617.5,322.7,617.31,322.18,617.83,321.58,618.81,321.1,619.29,320.68,619.12,320.19,618.68,319.32,617.57,318.88,617.36,318.38,617.32,317.94,617.44,317.7,617.67,317.52,619.3,317.36,620.73,317.36,621.59,318.32,622.38,319.46,623.74,319.82,623.9,320,624.34,320.27,625.49,320.57,626.77,321.15,627.62,321.67,628.22,322.3,628.76,323.1,629.59,323.75,630.5,323.93,630.84,325.2,632.05,326.43,633.27,327.53,633.7,327.7,633.93,327.71,634.87,327.83,635.22,328.56,636.21,330.06,637.64,330.23,637.97,330.28,638.22,330.19,638.4,329.79,638.6,329.47,638.38,328.08,636.98,326.73,636.09,325.2,634.42,323.17,633.76,321.78,633.03,320.94,633.14,320.01,633.37,319.44,633.38,319.03,633.24,318.74,632.79,318.79,632.44,318.73,631.98,317.92,631.24,316.81,630.54,315.76,629.63,313.65,627.17,313.23,626.38,313.64,626.23,313.96,626.24,314.31,626.08,314.89,626.08,315.57,626.24,314.97,625.71,314.21,625.19,312.27,623.13,311.69,622.15,311.63,621.09,311.77,619.64,311.42,618.6,309.92,617.25,309.38,616.53,308.27,616.11,307.77,616.15,307.48,616.68,307.26,617.85,306.28,619.39,305.95,620.06,305.44,620.93,305,620.99,304.73,620.91,303.94,619.45,303.18,618.34,303.07,617.82,303,617.17,302.42,614.78,302.83,614.44,303.08,614.82,304.86,615.29,305.24,615.08,305.47,614.77,305.47,614.57,305.62,614.51,306.25,614.81,306.76,614.74,307.58,614.73,308.16,614.78,308.55,614.55,309.07,613.69,309.26,613.21,309.5,613.09,309.65,613.15,309.77,613.55,310.04,613.92,310.61,614.52,311.01,614.81,311.37,614.91,311.73,614.67,312.09,614.6,313.14,615.07,314.03,615.16,314.68,614.92,314.6,614.58,314.36,614.2,314.31,613.84,314.35,613.52,314.8,613.21,314.78,613.07,314.24,612.51,314.26,612.37,315.45,611.74,316.6,611.39,316.79,611.12,316.89,610.71,316.95,609.95,316.88,609.32,316.42,608.73,316.39,608.44,316.5,608.13,316.68,607.85,317.14,607.72,317.68,607.52,318.1,607.29,318.68,607.1,319.13,606.83,319.58,606.19,319.84,606.08,320.66,606.17,320.83,606.02,320.72,605.09,320.87,604.86,321.15,604.73,321.29,604.6,322.01,604.7,322.6,604.94zM311.12,619.59,310.29,619.79,309.9,619.43,309.8,619.13,309.11,619.03,308.7,618.62,308.62,618.43,309.2,617.97,309.51,617.23,309.91,617.68,310.39,618.51,310.64,618.75,311.12,619.59zM308.96,622.59,308.9,622.95,308.49,622.49,308.29,621.66,307.77,620.31,307.71,619.93,307.97,619.56,307.96,619.18,307.59,617.99,307.9,617.8,308.08,617.78,308.16,618.6,308.32,619.07,308.82,619.65,308.72,620.61,308.82,621.97,308.92,622.27,308.96,622.59zM311.27,621.65,311.43,622.07,310.8,621.69,310.23,621.55,310.11,621.27,310.2,621.03,310.32,620.81,310.75,620.84,310.81,621.06,311.27,621.65zM313.67,625.64,313.49,625.89,313.06,625.43,312.66,625.1,312.37,624.71,311.81,624.23,311.62,623.67,310.79,622.54,310.66,622.23,311.08,622.69,311.43,622.98,311.71,623.05,312.44,623.77,313.16,624.7,314.01,625.5,313.84,625.53,313.67,625.64zM313.67,629.51,313.77,629.64,313.76,629.73,313.41,629.6,313.31,629.65,311.67,627.61,311.49,627.21,312.08,627.69,313.67,629.51zM313.95,628.2,314.06,628.53,313.22,627.91,312.9,627.49,312.84,627.31,313.95,628.2zM314.9,629.03,315.34,629.72,314.92,629.58,314.48,629.15,314.22,628.68,314.9,629.03zM324.41,635.55,323.35,635.57,322.43,635.4,321.97,635.12,322.01,634.87,322.15,634.47,323.18,634.52,324.74,634.81,325.12,635.14,325.01,635.29,324.41,635.55zM327.16,636.88,326.69,636.98,323.7,636.9,322.83,636.71,321.86,636.22,321.66,636.07,322.64,635.93,323.54,636.07,323.82,636.43,326.27,636.71,327.16,636.88zM330.35,638.98,330.84,638.81,331.25,638.93,331.52,639.46,332.04,639.8,332.88,640.4,333.42,640.87,334.63,641.7,334.92,641.82,335.52,642.06,335.53,642.4,335.79,642.78,336.07,643.22,334.82,642.35,333.67,641.38,331.4,639.89,329.79,639.53,327.59,638.32,326.16,637.9,326.71,637.8,327.34,637.8,330.72,639.4,330.35,638.98zM323.51,638.07,324.75,638.32,325.66,638.2,326.49,638.36,327,638.65,327.12,638.8,326.46,638.82,325.7,638.7,324.85,638.99,324.1,638.84,323.81,638.64,323.61,638.4,323.51,638.07zM329.95,640.15,330.86,640.78,328.17,639.96,328.48,639.88,328.76,639.86,329.95,640.15z"/>
                <path id="ME" style="stroke-width:0.1;fill:lightgrey" data-name="Montenegro" class="land" d="M340.62,633.12,340.6,633.23,340.63,633.57,340.78,633.89,341.32,634.22,342.1,634.88,343.02,636.08,343.45,636.44,343.83,636.53,344.57,637.03,345.09,637.15,345.66,637.29,347.17,638.32,347.85,638.63,348.33,639.02,348.38,639.38,348.36,639.61,347.49,639.88,347.34,640.28,346.92,640.24,346.41,640.23,346.24,640.49,346.48,640.91,346.64,641.41,346.51,642.09,346.47,642.17,346.35,642.15,345.63,642.54,345.1,642.73,344.62,642.82,344.39,642.63,344.28,642.38,344.3,641.63,344.21,641.38,344.04,641.26,343.72,641.43,343.33,642.01,342.98,642.68,342.44,643.38,342,644.04,341.53,644.88,341.2,645.58,341.54,645.97,341.74,646.51,341.68,646.92,341.74,647.16,341.64,647.87,341.62,648.32,340.57,647.6,340.14,646.59,338.6,644.88,336.84,643.71,336.75,643.53,336.85,643.3,336.93,643.13,336.56,643.11,336.31,643.26,336.07,643.22,335.79,642.78,335.53,642.4,335.52,642.06,335.64,642.02,335.81,641.88,336.18,641.51,336.26,641.31,336.24,641.02,335.72,640.08,335.65,639.46,335.57,638.32,335.68,638.05,335.87,637.92,336.78,637.78,336.77,636.89,336.82,636.62,337,636.25,337.12,635.91,337.63,635.43,338.31,634.85,338.61,634.83,338.87,634.91,339.17,635.41,339.49,635.34,339.56,634.75,339.14,633.96,338.91,633.46,338.98,633.18,339.14,633.04,339.5,633.13,339.85,633.26,340.07,633.17,340.42,633.1,340.62,633.12z"/>
                <path id="MC" style="stroke-width:0.1;fill:lightgrey" data-name="Monaco" class="land" d="M261.53,631.11,261.12,631.28,261.13,631.08,261.23,630.97,261.36,630.91,261.51,631,261.53,631.11z"/>
                <path id="KV" style="stroke-width:0.1;fill:lightgrey" data-name="Kosovo" class="land" d="M356.55,644.9,356.54,644.9,355.39,645.15,355,645.45,354.77,645.96,354.7,646.23,354.49,646.24,354.16,645.97,353.73,645.56,353.17,645.59,351.28,646.5,351.09,646.97,351.05,648,350.92,648.28,350.72,648.46,349.93,648.35,349.85,648.28,349.95,647.88,349.91,647.02,349.56,645.59,349.31,645.12,348.79,644.65,348.38,644.34,347.66,644.07,347.29,643.28,346.74,642.38,346.47,642.17,346.51,642.09,346.64,641.41,346.48,640.91,346.24,640.49,346.41,640.23,346.92,640.24,347.34,640.28,347.49,639.88,348.36,639.61,349.2,639.34,349.32,639.14,349.12,638.73,349.24,638.47,350.24,637.72,350.4,637.38,350.46,637.12,350.33,636.84,350.14,636.4,350.23,636.21,350.75,635.95,351.18,635.66,351.43,635.63,351.58,635.85,351.58,636.07,351.72,636.44,352.03,636.64,352.55,636.97,353.15,637.19,353.62,637.64,354.27,638.44,354.36,638.83,354.94,639.18,355.48,639.58,355.4,640.31,357.23,640.95,357.64,640.95,357.83,641.06,357.83,641.22,357.68,641.74,356.93,643.3,356.87,643.63,356.33,643.97,356.26,644.16,356.41,644.6,356.55,644.9z"/>
                <path id="MK" style="stroke-width:0.1;fill:lightgrey" data-name="Macedonia" class="land" d="M361.81,644.3,362.85,645.65,363.42,646.19,364.09,646.6,364.85,646.91,365.13,647.2,365.61,648.62,365.85,649.17,366.17,649.33,366.25,649.48,366.26,649.69,365.9,650.69,365.75,652.92,365.66,653.1,365.28,653.09,364.77,653.14,364.58,653.31,364.37,654.51,363.56,654.85,362.82,655.04,362.19,655,361.1,654.72,360.74,654.69,360.43,654.85,359.45,654.93,359.02,655.14,358.01,656.54,356.99,657.02,356.64,657.26,355.86,656.96,355.49,656.92,354.95,657.28,353.76,657.31,353.44,657.38,352.53,657.43,352.49,657.24,352.32,656.96,351.9,656.83,351.02,656.94,350.81,656.74,350.45,655.55,350.17,655.36,349.86,654.96,349.33,653.67,349.32,653.1,349.35,652.61,349.06,651.45,349.24,651.15,349.51,650.97,349.52,650.5,349.44,649.78,349.76,648.38,349.85,648.28,349.93,648.35,350.72,648.46,350.92,648.28,351.05,648,351.09,646.97,351.28,646.5,353.17,645.59,353.73,645.56,354.16,645.97,354.49,646.24,354.7,646.23,354.77,645.96,355,645.45,355.39,645.15,356.54,644.9,356.55,644.9,356.93,644.95,357.74,644.72,358.25,644.39,358.51,644.35,358.85,644.22,359.35,644.24,359.85,644.38,360.48,644.2,361.11,643.9,361.36,643.97,361.63,644.23,361.81,644.3z"/>
                <path id="GR" style="stroke-width:0.1;fill:lightgrey" data-name="Greece" class="land" d="M388.57,649.69,389.17,649.87,389.52,650.17,389.74,650.44,390.07,650.67,390.32,650.73,390.51,651.53,390.61,652.52,390.46,652.94,390.02,653.04,388.63,653.97,388.6,654.82,388.62,655.24,388.65,655.53,388.79,655.77,388.79,656.12,388.64,656.5,388.03,657.14,387.61,657.64,387.14,658.32,386.88,658.4,386.67,658.52,386.48,658.15,385.44,657.48,383.02,657.1,381.87,656.6,381.36,656.7,380.38,656.15,379.71,656.39,378.29,657.36,377.52,657.26,376.7,656.67,376.16,656.56,375.54,656.87,374.53,658,373.51,658.55,372.59,658.33,371.36,658.34,371.23,658.96,371.46,659.4,372.14,660.14,371.82,660.69,372.06,661.25,372.5,661.36,373.16,661.33,374.39,662.05,374.92,662.8,375.26,663.63,374.52,663.04,374.02,662.47,373.33,662.26,372.37,661.77,371.76,661.69,371.12,662.03,371.07,662.41,371.77,663.12,372.4,663.56,372.73,663.92,372.96,664.71,372.83,664.98,372.6,665.22,371.85,664.73,370.7,662.96,369.09,662.61,368.82,662.98,369.14,663.91,369.37,664.28,370.76,665.28,370.65,665.5,370.45,665.59,368.89,665.01,368.43,664.14,368.32,663.02,366.89,662.25,365.53,661.41,365.22,660.61,365.5,660.31,365.7,659.73,364.96,659.83,364.49,660.21,363.73,660.57,363.7,661.16,363.82,661.7,363.57,662.5,363.33,663.88,363.48,664.6,365.12,666.67,365.68,668.16,366.08,668.73,366.92,669.36,367.8,670.52,368.17,671.12,368.43,672.11,367.69,672.72,367.27,672.74,367.03,672.47,367.36,671.8,367.31,671.39,366.18,670.75,365.7,670.97,365.14,671.38,365.46,672.15,365.81,672.66,365.99,673.35,366.67,673.29,365.76,674.07,364.9,674.47,364.05,674.49,363.51,674.56,363.33,674.76,363.76,674.91,364.12,674.92,364.7,675.34,366.36,675.84,367.15,676.48,367.93,676.54,368.71,677.7,370.06,678.01,370.83,679.18,371.85,679.41,372.73,679.85,372.99,680.26,373.12,681,373.18,682.57,373.37,683.74,373.37,684.11,373.33,684.66,373.09,684.93,372.76,684.94,372.13,684.08,371.16,683.18,370.13,682.1,369.84,681.91,369.6,681.89,369.05,682.26,367.53,682.54,366.81,682.93,366.54,683.02,366.47,683.23,366.8,683.44,367.22,683.93,367.22,684.6,367.55,685.42,367.99,685.63,368.56,685.61,368.89,685.76,368.98,686.08,369.31,686.46,369.53,686.74,369.52,686.94,367.92,687.47,367.59,687.71,367.31,687.84,366.9,687.58,366.87,686.93,366.33,686.59,365.83,686.29,365.22,686.16,364.71,685.71,364.38,686.08,364.64,687.33,365.22,688.2,366.19,690.51,366.63,691.87,366.72,692.53,366.5,693.62,366.98,694.43,367.3,695.26,366.94,695.23,366.63,694.94,366.11,694.59,365.1,693.27,364.74,692.44,364.32,692.37,363.59,692.49,362.79,694.26,362.79,695.27,362.37,695.03,362.02,694.72,362.06,693.61,362.03,693.14,361.05,691.63,360.61,691.46,360.4,690.95,360.04,690.4,359.58,690.51,359.2,690.73,359.09,691.55,359.05,692.29,358.77,692.85,357.74,691.79,356.69,689.97,356.66,688.96,357.43,688.04,357.34,687.39,356.61,686.09,355.57,685.25,354.98,685,354.71,684.11,354.15,683.65,353.7,683.43,353.61,683.11,353.74,682.88,354.84,681.96,355.48,680.51,355.8,680.45,356.46,680.79,357.2,680.7,357.8,679.85,358.32,679.39,359.18,679.45,361.14,680.58,363.24,681.23,364.28,681.79,364.88,682.35,365.19,682.47,365.69,682.55,365.67,682.13,365.51,681.76,365.92,681.56,367.05,681.57,367.25,681.37,367.46,681.05,367.23,680.69,366.85,680.52,366.46,680.47,366.19,680.35,365.77,680.47,365.11,680.19,364.77,679.96,364.57,679.72,363.42,679.25,362.33,678.45,362.09,678.9,361.65,679.15,361.02,679.18,359.26,678.67,358.18,679.06,357.59,679.16,357.14,679.17,356.59,679.34,355.95,679.45,355.39,678.71,355.16,678.14,355,678.03,354.99,678.57,354.81,679,354,679.24,353.53,678.91,353.17,677.89,352.72,676.6,351.92,675.55,351.27,675.28,351.21,674.7,351.27,674.24,352.05,674.13,353.27,674.61,353.52,674.51,353.79,674.29,353.74,673.8,353.56,673.36,353.23,673.34,353,673.39,352.25,673.3,351.29,673.54,350.84,673.32,350.69,673.04,349.89,672.34,349.19,671.41,348.06,670.79,347.33,668.89,346.71,668.06,346.05,667.46,346.19,667.45,346.44,667.55,346.92,667.88,347.43,667.95,347.71,667.73,347.87,667.53,347.98,667.21,348.02,666.83,348.1,666.7,348.49,666.74,348.61,666.65,348.61,666.31,348.36,665.88,348.14,665.35,348.13,665.1,348.32,665,348.62,664.77,348.79,664.49,349.11,664.35,349.59,664.32,350.12,664.2,350.46,663.89,350.51,663.59,350.73,662.76,350.87,662.35,351.1,661.98,351.22,661.48,351.46,661.01,351.97,660.81,352.43,660.58,352.78,659.97,352.98,659.45,352.98,659.13,352.69,658.6,352.47,658.09,352.53,657.43,353.44,657.38,353.76,657.31,354.95,657.28,355.49,656.92,355.86,656.96,356.64,657.26,356.99,657.02,358.01,656.54,359.02,655.14,359.45,654.93,360.43,654.85,360.74,654.69,361.1,654.72,362.19,655,362.82,655.04,363.56,654.85,364.37,654.51,364.58,653.31,364.77,653.14,365.28,653.09,365.66,653.1,366.4,653.2,367.27,653.23,367.84,652.67,368.73,652.62,369.14,652.54,369.83,652.66,370.5,652.65,371.35,652.42,372.15,652.03,372.77,652.06,373.03,651.99,373.17,651.91,373.33,651.39,374.5,651.36,374.9,651.41,375.56,651.43,376.24,651.14,376.44,651.17,376.78,651.93,376.96,652.15,377.33,652.35,378.16,652.92,378.31,652.77,378.65,652.58,379.64,652.84,380.58,653.28,381.37,653.93,382.25,653.74,383.23,653.43,383.86,653.34,384.55,653.29,384.96,653.15,385.89,653.32,386.86,652.97,387.32,652.66,387.45,652.22,387.38,651.44,387.16,650.67,386.93,650.38,386.85,650.08,386.99,649.8,387.13,649.61,387.76,649.45,388.57,649.69zM378.16,659.51,377.3,659.83,376.42,659.23,376.43,658.87,376.89,658.15,377.15,657.94,377.79,658,378.16,658.49,378.24,658.73,378.12,659.12,378.16,659.51zM384.3,661.18,383.53,661.41,382.7,660.68,383.51,660.39,383.88,660.6,384.15,660.85,384.3,661.18zM382.63,665.07,382.37,665.37,382.18,665.87,382.08,666.6,381.69,666.62,381.45,666.47,381.38,666.2,381.36,665.85,381.19,665.86,381.05,666.24,380.93,666.41,380.53,666.45,380.1,666.22,380.12,665.71,380.03,665.13,380.07,664.93,381.26,664.88,381.6,665.31,382.02,665.06,382.19,664.79,382.7,664.62,382.63,665.07zM346.57,669.87,346.71,670.36,345.87,670.06,345.26,669.62,344.75,668.54,343.68,667.32,343.66,666.96,344.07,666.69,344.95,666.5,345.31,666.7,345.54,666.9,345.62,667.14,345.11,667.61,345.01,667.82,345.4,668.25,345.39,668.42,345.55,669.24,345.74,669.54,346.23,669.79,346.57,669.87zM389.17,670.77,389.05,671.28,389.98,672.13,390.3,672.67,390.42,673.2,390.34,673.35,389.99,673.06,389.7,672.97,389.79,673.35,390.09,673.67,389.56,673.85,389.03,673.84,387.49,673.4,387.14,672.92,388.06,672.2,388.25,671.91,387.59,671.94,386.9,672.79,385.78,672.42,385.44,672.07,385.36,671.89,385.8,671.13,386.59,671.16,387,670.99,387.52,670.75,387.52,670.39,388.75,670.3,389.17,670.77zM372.2,672.25,371.89,672.35,372.2,671.66,372.76,671.3,372.55,671.88,372.2,672.25zM371.47,672.63,371.17,672.92,370.71,672.79,370.22,671.82,371.47,672.63zM369.02,673.98,369.4,674.91,369.76,675.23,370.51,675.6,370.86,675.65,372.13,676.32,373.62,676.45,373.81,676.65,373.99,677.16,374.3,677.57,374.37,677.88,374.21,678.23,374.43,679.3,374.81,680.32,375.37,680.81,376.07,680.95,376.74,680.93,376.91,681.13,376.85,682.02,376.56,682.36,376.33,682.45,376.13,682.36,375.95,682.15,375.76,682.05,375.37,682.03,375.09,681.68,374.38,681.19,374.25,680.9,374.23,680.45,373.92,680.12,373.65,679.49,373.38,679.31,373.23,679,373.22,678.86,372.19,678.77,371.33,678.77,370.6,678.41,370.38,677.47,369.95,677.22,369.62,676.95,369.36,676.58,368.67,675.9,367.92,675.33,367.19,674.96,366.42,674.71,365.79,675,365.43,674.93,365.35,674.74,366.13,674.34,367.21,673.6,367.96,673.35,368.33,673.32,369.02,673.98zM377.49,675.26,376.78,675.47,376.59,675.44,376.75,675.18,376.76,675.06,376.06,674.58,376.14,673.95,376.22,673.79,376.75,674.12,376.86,674.66,377.49,675.26zM350.66,676.99,350.4,677.05,350.17,677.01,349.97,677.05,349.77,677.21,349.79,676.53,350.03,675.69,350.31,675.19,350.71,674.96,350.88,675.35,350.85,676.73,350.66,676.99zM387.04,680.33,386.4,680.81,385.68,680.12,385.56,679.89,386.09,679.61,386.35,679.17,386.14,678.64,385.41,677.85,385.37,677.28,386.49,677.05,387.15,677.54,387.49,677.57,387.36,678.04,387.42,678.19,387.47,679.61,387.15,679.81,387.1,680.19,387.04,680.33zM351.14,679.38,350.81,679.47,350.39,678.65,350.24,678.09,350.41,678.06,350.58,678.12,350.76,678.34,350.76,678.55,350.83,678.79,351.01,679.07,351.14,679.38zM350.16,678.92,350.24,679.91,350.72,680.09,351.35,680.98,351.29,681.43,351.16,681.59,350.12,681.17,349.87,681.36,349.56,681.28,349.37,680.79,349.4,680.62,349.23,680.33,349.08,680.19,348.67,680.58,348.41,680.66,348.41,680.3,348.79,679.32,348.97,679.15,349.28,679.48,349.54,679.36,349.73,678.82,349.74,678.29,349.83,678.13,350.16,678.92zM369.93,682.82,369.67,683.03,369.37,683.02,369.15,682.94,369.05,682.78,369.18,682.7,369.33,682.36,369.48,682.27,369.69,682.31,369.82,682.44,369.93,682.82zM379.63,684.23,379.43,684.8,378.9,684.14,378.33,683.69,378.11,683.29,377.76,683.05,377.66,682.52,378.09,682.3,378.27,682.27,378.71,682.93,379.39,683,379.33,683.4,379.55,683.92,379.63,684.23zM352.02,683.85,352.73,684.67,352.16,684.47,351.55,685.04,350.78,684.37,350.31,683.69,350.21,683.42,350.69,682.79,351.14,683.44,351.69,683.54,352.02,683.85zM391.96,683.79,392.78,684.07,393.01,684.04,393.4,684.15,393.51,684.66,392.99,684.74,392.09,685.21,391.71,685.1,391.26,684.69,390.53,684.65,390.32,684.54,390.71,684.05,391.41,683.81,391.96,683.79zM375.35,685.78,374.9,686.19,374.82,685.58,375.11,684.93,375.5,684.89,375.65,685.17,375.35,685.78zM381.4,685.59,381.15,686.14,380.73,686.05,380.03,685.46,379.79,685.2,379.66,684.93,379.95,684.9,380.3,685.18,381.2,685.33,381.4,685.59zM386.61,686.18,386.29,686.22,386.39,685.88,386.99,685.29,387.83,685.26,388.6,684.97,388.77,684.96,388.41,685.42,387.79,685.85,386.61,686.18zM382.39,687.12,381.75,687.17,381.79,686.52,382.02,686.35,382.8,686.68,382.76,686.88,382.39,687.12zM379.3,686.49,379.26,687.36,379.09,687.36,378.98,687.22,378.98,686.89,379.05,686.36,379.3,686.49zM375.89,687.75,375.5,688,375.63,687.42,375.44,687.11,375.61,686.85,375.85,686.64,375.97,686.86,376.19,687.21,375.89,687.75zM376.48,689.59,376.23,689.72,375.81,689.54,375.92,689.07,376.21,688.88,376.51,689.03,376.56,689.24,376.48,689.59zM383.35,690.92,382.75,691.24,382.35,690.78,382.12,690.05,383.22,688.99,383.48,689.09,383.64,689.36,383.61,690.32,383.35,690.92zM381.56,690.07,381.02,690.72,380.58,690.65,380.39,690.35,380.67,689.74,381.26,689.4,381.53,689.49,381.51,689.94,381.56,690.07zM393.27,690.99,392.6,691.11,392.72,690.44,392.39,689.91,392.91,690.21,393.25,690.56,393.41,690.63,393.37,690.85,393.27,690.99zM377.8,691.31,377.68,691.34,377.5,690.99,377.47,690.66,377.54,690.46,377.77,690.45,378.09,691.07,377.8,691.31zM385.46,692.4,384.87,692.47,384.68,692.41,385.04,692.26,385.29,692.11,385.42,691.92,386.02,691.6,386.41,691.17,386.84,691.46,386.31,691.66,385.46,692.4zM392.8,692.93,392.59,692.94,392.84,692.54,393.55,691.98,394.58,691.5,394.93,691.44,395.51,691.75,394.44,692.25,394.15,692.51,393.36,692.57,392.8,692.93zM382.25,693.38,382.13,693.51,381.62,692.98,381.43,692.67,381.67,692.41,382.42,693.02,382.25,693.38zM376.56,692.63,376.57,693.12,376.52,693.29,375.15,693.53,375.27,692.97,375.36,692.79,375.81,693.05,375.98,692.92,376.05,692.76,376.56,692.63zM398.92,694.38,398.78,694.51,398.44,694.13,398.42,693.93,398.77,693.7,398.94,693.65,398.99,693.81,398.98,694.14,398.92,694.38zM389.51,694.12,388.98,694.32,388.64,694.74,388.23,694.44,388.23,694.03,388.68,694.16,388.99,693.93,388.9,693.67,389.24,693.79,389.51,694.12zM382.93,695.73,382.61,696.16,382.17,696.01,382.35,695.84,382.46,695.62,382.47,695.31,382.35,695.12,382.43,695.05,382.83,695.37,382.93,695.73zM398.81,699.58,398.32,699.75,398.16,699.73,397.95,699.34,398.23,698.42,397.97,697.82,397.96,697.57,398.35,697.21,398.62,696.69,399.29,696.12,401.02,695.45,401.43,695.38,401.41,695.91,400.84,697.25,400.32,697.91,400.46,698.45,399.63,698.6,398.81,699.58zM366.59,697.41,366.51,697.77,365.82,697.53,365.63,697.15,365.59,696.33,365.77,695.93,365.89,695.8,366.21,696.26,366.88,696.94,366.59,697.41zM394.32,703.41,394.07,703.87,393.8,703.48,393.92,703.03,393.61,702.32,394.19,701.25,394.2,700.74,394.64,700.48,394.53,701.35,394.2,702.05,394.54,702.64,394.71,703.3,394.32,703.41zM371.96,702.83,372.42,702.89,373.04,702.88,373.18,702.83,373.58,702.35,374.07,702.34,374.28,702.81,373.79,703.03,373.69,703.16,373.78,703.26,374.15,703.45,374.67,703.38,374.69,703.75,374.8,704.06,375.06,704.24,375.33,704.28,375.95,704.22,376.55,704.1,377.17,703.86,377.81,703.74,379.7,703.86,380.38,704.38,381.68,704.44,382.88,704.72,383.51,704.54,384.59,704.37,384.77,704.55,384.63,705.72,384.69,706.06,385.01,706.22,385.31,706.14,385.69,705.76,386.6,705.46,387.54,705.46,388.33,704.69,388.56,704.64,388.42,705.02,388.3,705.92,388.13,706.45,388.05,706.86,387.52,707.07,386.72,707.11,385.26,707.02,383.79,707.17,381.07,707.56,378.33,707.76,377.97,707.63,377.96,707.11,377.9,706.75,377.72,706.5,376.88,706.28,376.07,705.91,372.92,705.41,372.17,705.21,370.96,705.31,370.52,705.3,370.21,705.12,370,704.81,369.91,703.82,370.06,702.83,370.32,702.58,370.44,702.87,370.75,703.01,371.04,702.71,371.04,702.26,371.18,701.84,371.41,702.01,371.56,702.66,371.96,702.83z"/>
                <path id="ES" style="stroke-width:0.1;fill:lightgrey" data-name="Spain" class="land" d="M199.41,634.28,199.42,634.61,199.68,635.05,199.95,635.21,200.53,635.44,200.97,635.47,201.58,635.57,201.99,635.83,202.01,636.22,201.91,636.67,201.66,637.07,201.52,637.38,201.65,637.56,201.86,637.7,202.1,637.74,202.26,637.69,202.38,637.45,202.6,637.14,202.73,637.11,202.72,637.28,202.83,637.49,203.57,637.84,205.19,638.5,205.83,638.51,206.35,638.59,206.5,638.86,207.53,639.88,207.78,639.85,208.24,639.87,208.8,639.79,209.2,639.6,209.46,639.64,209.75,639.83,210.1,640,210.54,640.33,210.93,640.75,211.2,640.88,212.83,640.6,213.2,640.85,213.58,640.84,214.02,640.78,214.96,640.91,215.73,640.88,215.8,640.78,215.86,639.86,215.98,639.54,216.17,639.45,216.62,639.52,218.27,640.06,218.95,640.4,219.61,640.66,220.18,640.69,220.56,640.87,221.09,641.73,221,642.16,221.04,642.32,221.1,642.62,221.09,642.96,221.23,643.17,221.48,643.2,221.8,643.14,222.15,643.01,222.77,642.64,222.96,642.58,223.99,643,224.45,643.28,224.61,643.58,224.84,643.89,225.15,643.94,225.59,643.64,226.28,643.32,227.45,643.6,228.75,644.01,229.32,644.06,229.34,643.86,229.44,643.58,229.66,643.44,229.98,643.4,230.42,643.25,230.93,643.01,231.46,642.9,232.02,643.09,232.69,643.23,233.08,643.23,233.28,643.81,233.6,644.03,233.73,644.52,233.13,644.78,232.78,644.82,232.67,645.67,232.84,645.91,233.17,646.13,233.26,646.4,233.33,647.64,232.65,648.39,231.69,649.23,227.03,651.94,225.91,653.24,225.49,653.54,222.02,654.36,219.59,655.23,218.43,655.55,216.97,657.06,216.29,657.67,216.83,657.84,217.47,658.56,217.26,658.88,216.33,659.38,215.92,659.53,215.7,659.45,215.49,659.52,213.92,662.12,212.54,663.99,211.77,664.8,210.97,666.01,209.28,669.11,209.26,670.01,210.1,673.08,210.58,673.88,211.25,674.56,212.52,675.13,212.83,675.69,212.39,676.23,211.12,677.18,208.91,678.47,207.97,679.48,207.77,680.46,207.13,680.9,206.88,682.26,206.49,683.16,206.41,683.46,206,684.15,205.94,684.64,206.62,685.32,206.28,685.62,205.95,685.75,205.17,685.83,202.55,685.92,200.44,687.39,199.38,688.69,198.43,691.1,197.27,692.52,196.76,692.78,195.96,692.16,194.97,692.06,194.01,692.27,193.51,692.76,192.72,693.04,191.95,692.8,190.29,692.67,189.55,692.69,188.39,693.09,187.4,692.83,185.72,692.69,182.1,693.01,181.64,693.16,181.19,693.75,180.03,694.78,178.27,694.81,176.68,695.47,176.29,695.88,175.62,697.03,175.41,697.87,175.27,697.88,175.1,697.67,174.85,697.74,174.72,698.38,174.13,698.67,173.63,698.77,172.4,698.26,171.37,697.48,170.83,697.43,169.96,696.22,169.59,695.44,169.32,694.61,169.37,694.29,169.3,694.02,168.52,693.69,168.33,692.92,168.9,691.92,169.36,691.49,169.65,691.37,168.95,691.41,168.44,692.06,167.79,691.03,165.16,689.01,165.33,688.55,165.3,688.3,164.85,688.84,164.55,688.98,163.2,688.89,161.65,689.14,161.24,687.04,161.04,686.23,160.99,685.71,161.39,684.5,161.83,684.01,162.41,682.99,163.13,682.14,163.89,681.94,164.23,681.81,164.51,681.15,164.67,680.59,164.55,680.53,163.66,680.65,162.07,678.28,162.12,677.91,162.32,677.35,162.45,676.64,162.49,676.08,162.9,675.6,163.54,675.11,164.07,674.42,164.34,673.75,164.39,673.13,164.09,672.69,163.22,672.45,162.32,670.69,162.12,669.59,161.94,669.48,161.39,668.97,160.85,668.03,160.78,667.88,161.32,667.71,163.59,667.7,164.06,667.5,164.13,667.42,164.55,666.69,164.98,665.47,165.08,664.73,164.94,664.43,164.19,663.67,164.16,663.45,164.28,663.1,164.73,662.72,165.33,662.28,165.66,661.91,165.58,661.62,165.4,661.31,165.38,661.03,165.49,660.68,165.52,659.48,165.6,659.17,165.48,658.07,165.34,657.18,164.86,656.02,164.95,655.76,165.17,655.54,165.89,655.14,166.46,654.19,167.3,653.39,168.4,652.75,169.16,652.04,169.46,651.49,169.68,651.35,169.62,651.09,169.47,650.72,169.04,650.36,168.47,650.15,167.85,650.16,167.46,650.09,167.35,649.8,167.39,649.04,167.36,648.27,167.24,647.92,166.95,647.66,166.37,647.73,165.88,647.51,165.5,647.46,165.28,647.63,164.18,647.58,163.71,647.46,163.39,647.31,163.18,647.39,163.07,647.54,163.05,647.78,162.97,648.08,162.57,648.36,161.66,648.64,160.93,648.62,160.26,648.42,160.04,648.28,159.72,648.15,158.35,648.31,158.18,648.19,157.71,648.47,157.02,648.81,156.63,648.83,156.48,648.76,156.43,648.61,156.14,648.08,156.22,647.8,156.78,646.97,156.71,646.78,156.48,646.51,156.28,646.13,156.22,645.93,155.86,645.9,155.48,646.1,154.03,646.51,153.68,646.66,153.06,647.06,152.42,647.67,151.92,647.8,151.74,647.62,151.68,646.19,152.45,645.23,153,644.66,152.75,644.54,152.16,644.56,152.2,644.11,152.48,643.89,152.74,643.41,152.43,643.2,152.19,642.88,152.2,642.04,152.27,641.7,152.19,641.33,151.01,641.82,150.7,641.75,150.69,641.13,151.35,640.17,151.41,639.88,150.64,639.74,150.07,639.27,149.72,638.85,149.34,638.25,149.34,637.71,149.73,636.44,150.28,636.07,150.76,635.84,151.77,634.96,153.17,635.12,154.04,634.93,154.82,634.48,155.26,634.38,155.98,633.99,155.95,633.46,155.71,633.06,155.92,632.69,156.73,632.23,157.62,631.63,158.64,631.51,159.68,630.97,160.38,631.32,160.99,631.2,161.69,631.61,162.62,632.55,163.97,632.93,165.05,632.63,166.95,632.57,167.91,632.7,169.6,632.47,170.57,632.55,172.14,632.08,173.36,632.66,175.71,632.94,177.13,633.41,181.05,634.21,182.46,634.22,184.46,633.77,185.31,633.43,186.08,633.63,187.22,633.25,187.77,633.33,188.48,633.87,190.99,634.61,191.64,633.99,192.13,633.85,193.94,634.23,195.75,635.02,196.7,635.07,198.08,634.86,199.17,634.34,199.41,634.28zM240.37,666.31,240.24,666.41,238.17,665.4,237.5,665.28,237.33,665.13,237.35,664.6,237.4,664.37,238.79,664.27,239.91,664.64,240.51,665.65,240.56,665.82,240.37,666.31zM232.64,666.76,233.28,667.05,233.96,666.79,234.33,666.87,234.68,667.01,234.77,667.57,234.45,668.18,234.01,668.8,233.63,669.49,233.31,670.27,232.7,670.73,232.15,671.01,230.99,670.43,230.31,670.29,230.11,670.07,229.95,669.2,229.65,668.92,229.2,668.8,228.81,669.02,228.29,669.48,228.02,669.02,227.59,668.94,227.42,668.66,227.43,668.3,230.21,666.19,231.02,665.73,232.73,665.18,232.99,665.26,232.77,665.59,232.79,665.73,233,665.89,232.95,666.14,232.73,666.35,232.64,666.76zM221.2,674.32,220.96,674.85,219.93,674.66,219.71,674.45,219.93,673.85,220.22,673.78,220.24,673.35,220.55,672.92,222,672.57,222.33,672.86,222.4,673.28,221.53,674.2,221.2,674.32zM222.2,676.44,222.05,676.56,221.6,676.45,220.94,676.45,220.91,676.1,221.01,675.86,221.14,675.62,221.55,676.1,222.19,676.19,222.2,676.44zM119.19,755.37,118.74,755.88,118.23,755.7,118.47,754.59,118.71,754.26,119.64,753.78,120.41,753.59,120.64,753.07,120.89,752.87,121.17,753.18,120.96,753.53,120.8,754.64,120.28,755,119.19,755.37zM91.48,758.57,91.32,758.63,91.16,758.02,90.36,756.54,90.85,755.88,91.73,755.87,92.09,756.33,92.21,756.8,92.04,757.08,92.09,757.63,92,757.99,91.48,758.57zM115.96,761.03,115.04,761.89,114.13,761.69,113.97,761.55,114.89,761.33,115.72,760.68,116.26,759.23,117.09,757.62,117.26,756.94,117.59,756.67,118.05,756.65,118.24,756.7,118.45,757.06,118.44,757.87,118.2,759.21,117.77,760.39,115.96,761.03zM101.58,759.43,101.01,761.17,100.49,761.85,100.17,762.08,99.4,762.27,98.48,761.19,98,760.09,97.74,759.74,98.15,759.46,98.77,759.51,100.08,759.27,100.34,759.18,101.68,758.07,102.99,757.94,103.02,758.3,101.58,759.43zM95.86,762.15,95.58,762.22,95.26,762.03,94.91,761.43,95.14,760.98,95.36,760.78,95.66,760.81,96.23,761.14,96.4,761.48,96.42,761.69,95.86,762.15zM107.86,761.2,107.82,761.78,107.98,762.37,107.94,763.27,107.62,763.76,106.79,764.24,106.14,764.15,105.78,763.96,105.12,763.17,105.11,762.36,105.7,761.83,105.96,761.15,107.51,761.28,107.64,761.15,107.76,761.11,107.86,761.2zM91.12,763.76,90.47,765,89.65,764.54,89.46,764.38,89.29,764.13,90.08,764.08,90.88,763.46,91.12,763.76z"/>
                <path id="BA" style="stroke-width:0.1;fill:lightgrey" data-name="Bosnia and Herzegovina" class="land" d="M339.36,620.61,339.6,620.59,340.2,620.32,340.91,620.18,341.42,620.34,341.66,620.5,341.71,620.71,341.56,621.45,341.28,622.24,340.81,623.06,340.33,623.84,340.2,624.25,340.17,624.9,340.11,625.41,340.18,625.69,340.33,625.95,340.87,626.16,341.59,626.67,342.21,627.34,342.99,628.1,343.24,628.38,343.24,628.68,343.01,628.9,342.34,628.99,341.63,628.92,341.37,628.84,341.12,628.94,340.96,629.11,341.04,629.31,341.76,630.23,342.6,631.54,342.64,632.1,342.54,632.55,342.35,632.85,342,632.8,341.74,632.56,341.34,632.58,341.02,632.65,340.62,633.12,340.42,633.1,340.07,633.17,339.85,633.26,339.5,633.13,339.14,633.04,338.98,633.18,338.91,633.46,339.14,633.96,339.56,634.75,339.49,635.34,339.17,635.41,338.87,634.91,338.61,634.83,338.31,634.85,337.63,635.43,337.12,635.91,337,636.25,336.82,636.62,336.77,636.89,336.78,637.78,335.87,637.92,335.68,638.05,335.57,638.32,335.65,639.46,335.72,640.08,336.24,641.02,336.26,641.31,336.18,641.51,335.81,641.88,335.64,642.02,335.52,642.06,334.92,641.82,334.63,641.7,333.42,640.87,332.88,640.4,332.04,639.8,331.52,639.46,331.25,638.93,330.84,638.81,330.35,638.98,329.79,638.6,330.19,638.4,330.28,638.22,330.23,637.97,330.06,637.64,328.56,636.21,327.83,635.22,327.71,634.87,327.7,633.93,327.53,633.7,326.43,633.27,325.2,632.05,323.93,630.84,323.75,630.5,323.1,629.59,322.3,628.76,321.67,628.22,321.15,627.62,320.57,626.77,320.27,625.49,320,624.34,319.82,623.9,319.46,623.74,318.32,622.38,317.36,621.59,317.36,620.73,317.52,619.3,317.7,617.67,317.94,617.44,318.38,617.32,318.88,617.36,319.32,617.57,320.19,618.68,320.68,619.12,321.1,619.29,321.58,618.81,322.18,617.83,322.7,617.31,324.45,617.5,325.31,616.74,326.7,617.74,327.27,617.89,327.6,617.75,328.04,617.81,329.01,618.1,329.24,618.23,329.53,618.2,330.25,617.81,330.5,617.86,331.32,618.63,331.74,618.64,332.24,618.31,332.56,618.02,333.51,618.23,334.05,618.11,334.5,618.09,334.99,618.22,335.44,618.4,335.87,618.55,337.04,618.63,337.6,619.12,337.83,619.59,337.83,619.87,337.89,620.18,338.21,620.48,338.92,620.65,339.36,620.61z"/>
                <path id="AD" style="stroke-width:0.1;fill:lightgrey" data-name="Andorra" class="land" d="M222.96,642.58,222.77,642.64,222.15,643.01,221.8,643.14,221.48,643.2,221.23,643.17,221.09,642.96,221.1,642.62,221.04,642.32,221,642.16,221.09,641.73,221.29,641.5,221.58,641.3,222.03,641.38,222.98,641.65,223.18,641.91,223.19,642.09,223.01,642.37,222.96,642.58z"/>
                <path id="AL" style="stroke-width:0.1;fill:lightgrey" data-name="Albania" class="land" d="M346.47,642.17,346.74,642.38,347.29,643.28,347.66,644.07,348.38,644.34,348.79,644.65,349.31,645.12,349.56,645.59,349.91,647.02,349.95,647.88,349.85,648.28,349.76,648.38,349.44,649.78,349.52,650.5,349.51,650.97,349.24,651.15,349.06,651.45,349.35,652.61,349.32,653.1,349.33,653.67,349.86,654.96,350.17,655.36,350.45,655.55,350.81,656.74,351.02,656.94,351.9,656.83,352.32,656.96,352.49,657.24,352.53,657.43,352.47,658.09,352.69,658.6,352.98,659.13,352.98,659.45,352.78,659.97,352.43,660.58,351.97,660.81,351.46,661.01,351.22,661.48,351.1,661.98,350.87,662.35,350.73,662.76,350.51,663.59,350.46,663.89,350.12,664.2,349.59,664.32,349.11,664.35,348.79,664.49,348.62,664.77,348.32,665,348.13,665.1,348.14,665.35,348.36,665.88,348.61,666.31,348.61,666.65,348.49,666.74,348.1,666.7,348.02,666.83,347.98,667.21,347.87,667.53,347.71,667.73,347.43,667.95,346.92,667.88,346.44,667.55,346.19,667.45,346.05,667.46,346.01,666.66,345.8,666.04,345.04,664.54,342.57,663.08,341.99,662.42,341.74,661.87,341.48,661.35,341.73,661.33,341.97,661.47,342.28,661.62,342.4,661.36,342.27,660.79,341.63,659.45,341.58,659.08,341.9,657.96,342.42,656.69,342.38,655.16,342.54,653.99,342.36,653.24,342.28,652.31,342.66,651.07,342.98,650.77,343.19,650.38,343.2,649.05,342.46,648.44,341.62,648.32,341.64,647.87,341.74,647.16,341.68,646.92,341.74,646.51,341.54,645.97,341.2,645.58,341.53,644.88,342,644.04,342.44,643.38,342.98,642.68,343.33,642.01,343.72,641.43,344.04,641.26,344.21,641.38,344.3,641.63,344.28,642.38,344.39,642.63,344.62,642.82,345.1,642.73,345.63,642.54,346.35,642.15,346.47,642.17z"/>
                <path id="IT" style="stroke-width:0.1;fill:lightgrey" data-name="Italy" class="land" d="M292.56,692.68,292.24,692.78,291.82,692.49,291.79,692.08,291.87,691.96,292.38,692.15,292.54,692.52,292.56,692.68zM316.28,680.31,315.82,681.28,315.6,681.65,313.98,684.02,313.79,684.57,313.68,685.16,313.51,685.68,313.28,686.16,313.07,686.78,313.11,687.48,313.19,687.83,313.38,688.05,313.7,688.27,313.95,688.59,313.57,688.89,313.99,689.48,314.34,689.83,314.39,690.18,314.38,690.53,313.65,691.19,313.36,691.56,313.18,691.99,313.1,692.45,313.18,692.86,313.16,693.26,312.42,693.21,311.66,692.96,310.89,693.07,309.8,692.6,309.41,692.52,309.05,692.33,308.14,690.87,307.41,690.26,306.63,689.77,305.83,689.75,305.04,689.8,304.33,689.5,302.89,688.51,301.37,687.71,300.73,687.19,300.43,686.84,300.09,686.61,299.21,686.38,298.43,685.84,298.08,685.8,297.31,685.86,296.92,685.83,296.52,685.63,295.76,685,295.27,684.11,295.15,683.72,295.49,682.71,295.9,681.74,296.26,681.47,296.69,681.27,296.94,680.98,297.16,680.63,297.94,681.65,298.29,681.89,298.64,681.84,299.27,681.47,299.33,681.08,300.02,680.57,300.9,680.56,301.31,680.65,301.52,681.11,301.86,681.25,302.25,681.31,303.53,682.18,303.89,682.33,304.25,682.35,305.25,681.98,306.01,681.85,307.61,682.05,308.47,681.83,309.08,681.8,309.96,681.47,310.63,680.91,310.98,680.77,311.36,680.73,312.28,680.76,313.2,680.89,313.58,680.76,313.91,680.39,314.28,680.23,314.69,680.34,315.76,679.71,316.22,679.67,316.67,679.91,316.28,680.31zM268.52,673.04,268.14,673.89,267.73,673.28,267.72,672.77,267.77,672.62,268.27,672.84,268.52,673.04zM305.26,658.71,304.96,658.79,304.78,658.68,304.69,658.55,304.81,658.21,305.42,658.41,305.41,658.6,305.26,658.71zM267.23,655.74,267,656.15,266.69,656.12,266.81,655.82,267.1,655.22,267.46,655.01,267.61,655.19,267.45,655.54,267.23,655.74zM276.28,657.15,276.62,657.71,277.38,660.03,277.45,660.53,277.3,661.04,277.1,661.41,276.36,662.57,276.47,663.53,276.75,664.12,276.79,664.77,276.65,665.59,276.18,670.55,275.96,671.43,275.81,672.18,275.3,672.41,274.64,672.17,273.81,671.74,273.42,671.77,273.04,671.92,272.72,671.79,272.41,671.55,272.18,673.25,271.81,673.93,271.23,674.37,270.69,674.4,270.14,674.25,269.67,674.25,269.31,673.93,269.03,673.36,268.57,672.66,268.12,671.84,268.07,671.09,267.99,669.45,268.12,669.09,268.31,668.74,268.4,668,268.34,667.36,268.47,667.13,268.74,667.36,268.94,667.27,268.93,666.94,268.99,666.33,268.64,665.82,268.05,665.65,267.99,665.11,268.05,664.59,268.36,664.24,268.47,663.78,268.47,662.35,268.06,661.83,267.9,661.03,267.68,660.52,267.29,660.01,266.85,659.59,266.58,659.19,266.52,658.13,266.67,657.25,266.81,656.87,266.95,656.93,267.39,657.36,267.75,657.46,268.45,657.57,269.15,657.43,270.01,657.03,270.83,656.54,272.02,655.12,272.75,654.83,273.13,654.45,273.26,653.94,273.57,653.81,273.93,654.3,274.39,654.35,275.09,654.76,275.4,655.15,275.66,655.62,275.9,655.83,276.17,655.95,276.21,656.06,276,656.17,275.76,656.7,275.89,656.86,276.28,657.15zM281.42,639.34,281.64,639.69,281.67,639.9,281.52,640.13,281.58,640.66,281.02,640.22,280.17,640.44,279.64,640.4,279.5,640,279.62,639.77,280.43,639.72,280.68,639.61,281.17,639.66,281.42,639.34zM303.65,604.74,303.52,605.3,303.23,605.44,302.73,605.76,302.16,606.21,301.63,606.71,301.49,607.26,301.63,607.61,301.78,607.73,301.97,607.63,302.25,607.69,302.61,607.89,303.2,608.08,303.22,608.26,303.09,608.5,302.63,608.93,302.22,609.41,302.17,609.7,302.22,609.91,302.37,610.04,302.98,609.99,303.07,610.16,302.78,611.39,302.87,611.6,303.41,611.8,303.8,612.09,304.54,612.87,304.83,613.5,304.63,613.71,304.16,613.82,303.79,613.76,304.21,613.38,303.17,612,302.7,612,302.07,612.59,300.33,612,300,612.23,299.75,612.7,299.15,613.28,298.29,613.54,297.34,614.18,296.33,614.63,295.56,614.97,295.12,614.91,295.82,614.17,295.52,614.16,294.6,614.68,294.06,615.12,293.89,615.86,293.73,617.07,294.14,617.39,294.86,618.99,295.74,619.67,295.57,620.32,295.33,620.84,294.8,621.28,294.36,620.95,294.09,620.96,293.89,622,294.27,624.76,294.88,626.69,295.49,627.53,296.87,628.83,298.32,629.52,300.93,631.7,302.36,632.39,302.74,632.77,303.61,634.45,304.36,636.38,305.17,639.4,305.74,640.88,306.9,642.55,309.31,644.93,311.5,646.66,313.53,647.73,315.12,647.92,318.89,647.69,319.54,647.79,320.24,648.08,320.4,648.82,320.15,649.32,319.35,649.83,318.55,650.55,318.46,651.53,319.21,652.21,322.84,654.03,326.55,655.55,327.71,656.32,329.05,657.51,332.28,659.16,332.83,659.95,334.79,661.67,335.68,662.98,335.85,664,335.43,665.04,335.23,665.77,334.9,666.49,334.06,666.21,333.11,665.48,331.68,662.46,329.06,662.16,328.52,661.94,327.59,661.42,327.53,661.08,327.3,660.65,327.07,660.5,326.07,660.41,325.37,660.9,324.56,662.06,323.63,663.72,322.69,666.15,322.64,667.13,323.15,668.08,324.67,668.61,325.85,669.45,326.63,670.32,326.68,672.44,327.03,673.63,326.52,674.31,325.53,674.14,324.21,674.57,323.28,675.34,322.89,676.08,322.99,677.98,322.8,678.7,321.03,680.06,320.1,681.46,319.87,682.03,319.51,682.69,317.27,682.71,316.74,681.9,316.73,680.7,317.11,679.95,317.93,679.61,318.49,678.06,318.31,676.94,318.64,676.45,318.94,676.09,319.57,675.89,320.45,675.69,320.54,674.13,319.85,673.41,319.61,672.41,319.29,670.56,318.15,668.19,317.54,666.06,317.06,665.01,316.34,664.46,315.03,664.47,314.38,664.31,312.07,662.83,311.91,662.6,311.92,662.21,312.31,661.61,312.05,660.8,311.77,660.03,311.32,659.38,310.82,659.04,309.78,659.25,309.42,659.41,308.76,659.36,308.25,659.65,307.96,659.66,308.77,658.51,308.55,658.24,307.75,657.76,306.66,657.69,306.36,657.63,306.18,657.93,305.97,657.77,305.99,657.25,304.73,654.94,303.88,654,303.45,653.83,302.68,654.03,301.38,653.62,300.6,653.53,300.18,653.62,299.54,653.93,299.22,653.73,299.11,653.42,297.93,652.45,296.46,651.91,293.6,648.83,292.72,647.67,290.92,646.4,289.78,644.54,288.84,643.85,287.48,643.3,287.17,643.37,286.76,643.58,286.44,643.61,286.18,643.36,286.44,643.11,286.73,643,286.62,642.29,285.07,640.43,284.16,639.83,283.91,639.46,283.72,638.95,283.53,638.62,283.1,638.43,282.73,638.46,282.22,638.33,282.24,637.44,282.34,636.75,282.26,636.16,281.77,634.62,280.92,633.31,280.41,630.16,280.02,629.27,279.08,628.6,276.95,627.84,273.98,625.79,273.35,625.76,271.56,624.96,270.45,624.83,269.02,625.54,267.27,627.51,265.85,629.54,265.34,629.93,263.51,630.62,261.89,630.95,261.87,630.43,261.82,630.04,262.09,629.61,262.54,629.1,262.96,628.47,263.13,628,263.05,627.7,262.86,627.24,262.61,627.21,261.07,627.59,260.72,627.49,259.58,626.9,258.35,626.16,257.9,625.64,257.73,625.11,257.86,624.77,257.76,624.44,257.52,623.99,257.73,623.49,258.12,622.86,258.31,622.43,258.63,622.31,258.78,622.05,258.52,621.01,258.39,620.84,258.17,620.71,257.83,620.69,257.24,620.48,256.81,620.11,256.72,619.63,256.5,619.15,256.12,618.72,256.07,618.25,256.5,618,257.1,617.99,257.51,618.08,258.45,617.32,258.79,617.25,259.1,617.09,259.36,616.04,259.56,615.73,259.61,615.55,259.42,615.33,258.67,614.6,258.32,613.83,257.78,612.97,257.27,612.59,257.17,612.29,257.16,611.91,257.26,611.58,258.18,611.06,258.72,610.51,258.95,610.72,259.44,610.94,260.78,610.64,261.61,610.33,262.2,610,262.56,610.06,263.88,610.54,264.31,610.3,265.26,609.64,265.4,609.29,266.14,608.23,266.16,607.97,265.85,607.31,265.95,607.16,266.86,606.48,267.31,605.88,267.8,605.47,268.15,605.46,268.24,605.6,268.28,605.88,268.25,607.05,268.39,607.41,269.11,608.24,269.62,608.72,270.81,609.04,270.87,609.2,270.54,609.83,271.26,610.58,271.39,611.12,271.72,611.43,272.19,611.28,272.34,610.99,272.16,610.48,272.02,609.95,272.05,609.65,272.18,609.29,272.51,608.8,273.4,607.67,273.72,607.01,273.78,605.99,273.78,605.18,274.08,604.98,274.72,605.12,274.91,605.11,275,605.61,275.27,606.41,275.59,606.82,275.93,606.92,276.33,606.92,277.33,606.43,277.98,606.22,278.35,606.28,278.57,606.61,279.03,607.48,279.3,607.58,279.62,607.48,279.74,607.33,279.63,607,279.5,606.27,279.31,605.71,279.07,605.44,279.02,605.1,279.17,604.48,279.34,603.96,279.68,603.82,280.07,603.75,280.59,604.3,281.2,604.48,281.66,604.45,281.74,604.13,281.71,603.77,281.44,603.32,281.49,602.64,281.81,601.36,281.98,601.46,282.66,601.47,283.4,601.54,283.87,602.07,284.34,602.24,285,602.3,285.44,602.23,285.66,602.03,285.91,601.42,286.39,600.66,287.13,600.27,288.4,600.2,289.04,600.06,289.7,600.07,290.19,600.19,290.71,600.17,292.01,599.64,293.36,599.23,293.54,599.3,293.57,599.43,293.33,599.76,293.09,600.18,293.25,600.67,294.02,601.65,294.44,602.39,294.83,602.95,295.44,603.25,296.24,603.43,296.92,603.49,297.64,603.71,300.08,604.23,301.31,604.37,302.24,604.39,303.65,604.74zM294.89,629.39,295.08,629.77,295.48,629.7,295.68,629.22,295.6,628.88,295.18,628.95,294.89,629.39z"/>

            </svg>
