<svg
                        xmlns:dc="http://purl.org/dc/elements/1.1/"
                        xmlns:cc="http://creativecommons.org/ns#"
                        xmlns:rdf="http://www.w3.org/1999/02/22-rdf-syntax-ns#"
                        xmlns:svg="http://www.w3.org/2000/svg"
                        xmlns="http://www.w3.org/2000/svg"
                        xmlns:sodipodi="http://sodipodi.sourceforge.net/DTD/sodipodi-0.dtd"
                        xmlns:inkscape="http://www.inkscape.org/namespaces/inkscape"
                        enable_background="new 0 0 1200 589"
                        height="600"
                        width="2000"
                        viewBox="500 510 70 70"
                        id="us-map"
                        preserveAspectRatio="xMidYMid meet"
                        inkscape:version="0.48.4 r9939"
                        sodipodi:docname="us.svg">
                    <sodipodi:namedview
                            pagecolor="#ffffff"
                            bordercolor="#666666"
                            borderopacity="1"
                            objecttolerance="10"
                            gridtolerance="10"
                            guidetolerance="10"
                            inkscape:pageopacity="0"
                            inkscape:pageshadow="2"
                            inkscape:window-width="1920"
                            inkscape:window-height="1137"
                            id="namedview69"
                            showgrid="false"
                            inkscape:zoom="0.80893016"
                            inkscape:cx="817.66365"
                            inkscape:cy="409.3738"
                            inkscape:window-x="1192"
                            inkscape:window-y="118"
                            inkscape:window-maximized="1"
                            inkscape:current-layer="svg2"/>
                    <defs
                            id="defs4">
                        <style
                                type="text/css"
                                id="style6">path {
                            fill-rule: evenodd;
                        }</style>
                    </defs>
                    <metadata
                            id="metadata8">
                        <views
                                id="views10">
                            <view
                                    h="589.235294118"
                                    padding="0"
                                    w="1000"
                                    id="view12">
                                <proj
                                        id="laea-usa"
                                        lat0="45"
                                        lon0="-100"/>
                                <bbox
                                        h="321.97"
                                        w="589.33"
                                        x="690.09"
                                        y="918.69"
                                        id="bbox15"/>
                            </view>
                        </views>
                        <rdf:RDF>
                            <cc:Work
                                    rdf:about="">
                                <dc:format>image/svg+xml</dc:format>
                                <dc:type
                                        rdf:resource="http://purl.org/dc/dcmitype/StillImage"/>
                                <dc:title/>
                            </cc:Work>
                        </rdf:RDF>
                    </metadata>

                    <path id="BW" style="stroke-width:0.2;fill:lightgrey" data-name="Botswana" class="land" d="M546.588,513.102L546.533,513.247L546.49,513.458L546.542,513.616L546.654,513.828L546.816,514.013L546.94,514.123L547.087,514.396L547.235,514.738L547.429,515.004L547.998,515.614L548.061,515.833L548.14,516.05L548.498,516.467L548.554,516.606L548.53,516.889L548.898,517.741L549.14,518.239L549.345,518.331L550,518.862L550.572,519.29L551.241,519.579L551.732,519.769L551.975,519.908L552.097,520.041L552.195,520.297L552.246,520.743L552.263,521.031L552.791,521.02L553.228,521.046L553.381,521.104L553.438,521.186L553.425,521.376L553.431,521.66L553.451,521.889L553.406,522.133L553.375,522.421L553.354,522.779L553.421,522.918L553.844,523.369L554.021,523.661L554.21,524.104L554.32,524.246L554.409,524.303L554.791,524.351L555.774,524.537L556.38,524.707L556.861,524.882L557.062,524.928L557.159,524.975L557.192,525.018L557.132,525.404L557.153,525.529L557.207,525.641L557.289,525.729L557.388,525.783L557.753,525.825L557.973,526.06L558.111,526.169L557.452,526.228L557.125,526.424L556.936,526.776L556.638,527.035L556.233,527.2L555.805,527.313L555.353,527.375L554.871,527.678L554.36,528.223L554.099,528.566L554.088,528.708L553.974,528.83L553.755,528.933L553.631,529.058L553.603,529.203L553.486,529.272L553.282,529.266L553.138,529.373L553.055,529.591L552.875,529.724L552.595,529.771L552.354,529.894L552.151,530.094L551.996,530.196L551.886,530.199L551.715,530.362L551.438,530.748L551.392,530.927L551.012,532.385L550.804,532.558L550.402,532.859L550.076,533.22L549.936,533.433L549.783,533.528L549.035,533.706L548.758,533.801L548.421,533.939L548.337,534.063L548.254,534.517L548.022,535.167L547.834,535.648L547.712,536.067L547.5,536.588L547.316,536.763L547.107,536.923L546.833,537.002L546.46,537.052L546.121,537.038L545.859,537.045L545.495,537.229L545.155,537.242L544.615,537.135L544.178,537.032L543.983,537.011L543.597,536.67L543.349,536.676L542.97,536.649L542.757,536.571L542.56,536.397L542.131,536.055L541.712,535.778L541.341,535.614L540.995,535.538L540.666,535.606L540.41,535.679L540.311,535.715L540.112,535.858L539.909,536.129L539.74,536.553L539.676,536.813L539.488,537.366L539.239,538.03L539.12,538.221L538.982,538.363L538.764,538.489L538.053,539.018L537.697,539.615L537.473,539.789L537.203,539.87L536.974,539.921L536.848,540.021L536.707,540.323L536.585,540.43L536.45,540.471L536.043,540.435L535.913,540.404L534.835,540.463L534.506,540.368L534.273,540.329L533.906,540.455L533.752,540.372L533.629,540.121L533.569,539.617L533.588,539.189L533.788,538.866L533.954,538.63L534.117,538.321L534.138,538.183L534.105,538.059L534.073,537.806L534.055,537.546L533.824,536.98L533.54,536.231L533.157,535.398L533.038,535.169L532.798,534.808L531.91,534.122L531.774,534.029L531.774,533.953L531.774,533.289L531.773,532.411L531.772,531.534L531.771,530.66L531.77,529.787L531.769,528.917L531.768,528.048L531.768,527.181L531.767,526.316L531.766,525.586L532.406,525.586L533.197,525.586L534.138,525.586L534.554,525.586L534.578,525.471L534.578,524.936L534.576,523.712L534.574,522.491L534.572,521.274L534.571,520.06L534.569,518.85L534.567,517.642L534.565,516.438L534.564,515.235L534.563,514.643L535.289,514.607L536.122,514.486L537.474,514.29L538.733,514.046L539.555,513.904L540.529,513.735L540.864,513.706L540.955,513.729L541.087,513.787L541.539,514.385L541.821,514.841L541.878,515.037L541.932,515.058L542.065,515.026L542.215,514.953L542.674,514.498L542.77,514.379L543.063,514.159L543.418,513.934L543.74,513.775L544.063,513.643L544.212,513.676L544.388,513.79L544.544,513.861L545.278,513.31L545.606,513.183L546.468,513.084z"/>
                    <path id="LS" style="stroke-width:0.2;fill:lightgrey" data-name="Lesotho" class="land" d="M556.349,550.789L556.097,550.869L556.062,550.875L555.899,550.857L555.683,550.876L555.514,550.92L555.382,550.937L555.167,551.166L554.775,551.784L554.671,551.914L554.643,552.158L554.552,552.351L554.44,552.501L554.332,552.538L554.006,552.478L553.588,552.401L553.345,552.214L553.129,551.968L553.016,551.789L552.896,551.691L552.855,551.636L552.686,551.554L552.622,551.511L552.565,551.48L552.497,551.362L552.456,551.259L552.472,550.972L552.352,550.801L552.147,550.51L552.018,550.271L551.841,549.945L551.732,549.667L551.62,549.379L551.635,549.255L551.742,549.171L552.057,549.026L552.301,548.914L552.476,548.709L552.667,548.403L552.76,548.22L552.853,548.136L552.954,548.007L553.131,547.72L553.328,547.402L553.539,547.061L553.805,546.962L554.168,546.848L554.518,546.55L554.934,546.3L555.605,546.028L555.918,545.959L556.038,545.919L556.113,545.971L556.193,546.126L556.307,546.257L556.572,546.483L556.684,546.538L556.958,546.874L557.25,547.104L557.587,547.37L557.816,547.502L557.934,547.539L558.03,547.775L558.129,547.95L558.184,548.114L558.173,548.274L558.067,548.666L557.912,549.067L557.787,549.233L557.635,549.339L557.487,549.498L557.43,549.82L557.363,550.199L557.169,550.355L557.019,550.458L556.81,550.584z"/>
                    <path id="NA" style="stroke-width:0.2;fill:lightgrey" data-name="Namibia" class="land" d="M541.317,512.653L541.918,512.533L542.492,512.418L543.159,512.303L543.693,512.211L543.827,512.187L545.112,512.294L545.672,512.369L545.867,512.443L546.12,512.635L546.588,513.102L546.468,513.084L545.606,513.183L545.278,513.31L544.544,513.861L544.388,513.79L544.212,513.676L544.063,513.643L543.74,513.775L543.418,513.934L543.063,514.159L542.77,514.379L542.674,514.498L542.215,514.953L542.065,515.026L541.932,515.058L541.878,515.037L541.821,514.841L541.539,514.385L541.087,513.787L540.955,513.729L540.864,513.706L540.529,513.735L539.555,513.904L538.733,514.046L537.474,514.29L536.122,514.486L535.289,514.607L534.563,514.643L534.564,515.235L534.565,516.438L534.567,517.642L534.569,518.85L534.571,520.06L534.572,521.274L534.574,522.491L534.576,523.712L534.578,524.936L534.578,525.471L534.554,525.586L534.138,525.586L533.197,525.586L532.406,525.586L531.766,525.586L531.767,526.316L531.768,527.181L531.768,528.048L531.769,528.917L531.77,529.787L531.771,530.66L531.772,531.534L531.773,532.411L531.774,533.289L531.774,533.953L531.774,534.029L531.774,535.322L531.774,536.697L531.774,538.077L531.774,539.462L531.774,540.853L531.774,542.249L531.774,543.65L531.774,545.058L531.774,545.505L531.486,545.499L530.907,545.672L530.538,545.897L530.378,546.174L530.166,546.342L529.9,546.402L529.783,546.543L529.815,546.767L529.712,546.938L529.477,547.057L529.096,547.022L528.57,546.834L527.901,546.79L527.089,546.889L526.504,546.843L526.149,546.65L525.772,546.541L525.373,546.513L525.141,546.433L524.667,546.29L524.577,546.044L524.521,545.859L524.386,545.664L524.371,545.506L524.477,545.386L524.492,545.194L524.417,544.928L524.286,544.799L524.1,544.806L523.984,544.704L523.938,544.494L523.829,544.335L523.568,544.173L523.223,544.295L523.06,544.48L522.964,544.768L522.877,544.913L522.833,545.154L522.813,545.325L522.725,545.508L522.633,545.582L522.538,545.548L522.361,545.622L521.97,545.891L521.859,546.033L521.544,545.776L520.624,544.809L520.297,544.558L519.815,543.967L518.755,542.141L518.604,541.79L518.402,540.912L518.17,540.263L518.144,539.889L518.255,539.677L518.187,539.39L518.068,539.133L517.707,538.797L517.604,537.679L517.362,536.958L517.415,536.363L517.299,535.822L517.288,535.476L517.34,534.818L517.146,534.063L516.753,533.327L516.398,532.267L516.347,531.803L516.385,530.56L516.316,530.053L516.32,529.459L516.18,528.844L516.122,528.509L516.221,528.244L516.279,528.328L516.381,528.368L516.45,528.016L516.466,527.705L516.289,526.939L515.894,526.157L514.915,524.887L514.676,524.403L514.54,524.003L513.448,522.337L512.982,521.166L512.656,520.156L512.302,519.691L510.663,516.432L510.3,515.914L509.646,515.295L509.493,515.089L509.241,514.5L508.749,513.712L508.629,512.977L508.596,512.145L508.656,511.509L509.104,511.443L509.417,511.273L509.698,511.262L509.976,511.395L510.271,511.405L510.386,511.383L510.916,511.402L511.22,511.25L511.581,511.098L511.789,510.964L512.081,510.827L512.468,510.688L512.688,510.699L512.958,510.751L513.317,510.805L513.52,510.898L513.76,511.194L514.133,511.463L514.407,511.624L514.722,511.835L514.816,511.917L514.955,511.962L515.04,511.976L515.625,511.943L516.154,511.914L516.725,511.915L517.798,511.916L518.872,511.918L519.946,511.919L521.02,511.921L522.094,511.923L523.167,511.925L524.241,511.926L525.315,511.928L525.754,511.929L526.521,511.938L527.329,511.948L527.418,511.965L527.508,512.021L527.582,512.075L527.867,512.447L528.231,512.837L528.535,513.021L528.897,513.131L529.237,513.172L529.555,513.145L530.081,513.195L530.817,513.321L531.582,513.358L532.375,513.307L532.932,513.376L533.254,513.567L533.584,513.697L533.922,513.765L534.378,513.725L534.954,513.577L535.444,513.598L535.671,513.705L535.806,513.708L536.652,513.553L537.332,513.429L538.353,513.23L539.194,513.066L540.44,512.824z"/>
                    <path id="SZ" style="stroke-width:0.2;fill:lightgrey" data-name="Swaziland" class="land" d="M565.362,537.677L565.418,537.722L565.677,537.865L565.7,538.151L565.675,538.477L565.623,538.683L565.643,538.888L565.726,539.208L565.805,539.427L565.824,540.425L565.736,540.379L565.577,540.336L565.492,540.356L565.415,540.805L565.355,541.472L565.391,541.887L564.785,541.9L564.019,541.855L563.47,541.675L562.878,541.28L562.527,540.664L562.373,540.278L562.158,540.256L562.123,540.19L562.104,539.719L562.108,539.226L562.149,539.095L562.547,538.488L562.794,538.112L562.948,537.749L563.283,537.322L563.641,537.05L563.774,537.011L563.866,537.022L564.498,537.396L565.146,537.751L565.288,537.711z"/>
                    <path id="ZA" style="stroke-width:0.2;fill:lightgrey" data-name="South Africa" class="land" d="M563.508,526.797l0.015,0.159l0.02,0.072l0.134,0.419l0.2,0.628l0.133,0.58l0.183,0.797l-0.006,0.445l0.045,0.172l0.164,0.215l0.201,0.37l0.068,0.209l0.067,0.157l0.212,0.298l0.165,0.452l0.14,0.599l0.12,0.288l0.045,0.142l0.054,0.258l-0.007,0.545l0.003,0.633l0.004,0.707l0.003,0.585l-0.021,0.296l0.015,0.843l-0.181,0.439l0.022,0.346l0.056,0.224l-0.074,0.035l-0.141,0.04l-0.648,-0.355l-0.632,-0.375l-0.091,-0.011l-0.133,0.039l-0.358,0.272l-0.335,0.426l-0.154,0.364l-0.247,0.376l-0.398,0.606l-0.041,0.131l-0.004,0.494l0.019,0.471l0.035,0.066l0.215,0.022l0.154,0.386l0.352,0.616l0.591,0.396l0.549,0.18l0.766,0.045l0.606,-0.013l-0.035,-0.416l0.06,-0.667l0.077,-0.448l0.085,-0.02l0.159,0.043l0.088,0.046l0.243,-0.019l0.432,0.088l0.349,-0.009l0.312,-0.009l0.527,-0.015l0.308,-0.005l-0.104,0.723l-0.402,1.135l-0.137,0.522l-0.343,1.871l-0.448,0.947l-0.251,0.392l-0.726,0.694l-0.202,0.141l-0.179,0.09l-0.318,0.08l-1.244,1.41l-0.463,0.682l-0.412,0.997l-0.409,0.549l-0.601,1.174l-0.537,0.909l-0.515,0.832l-0.891,1.148l-0.396,0.333l-0.267,0.152l-0.708,0.669l-0.997,1.08l-0.763,0.96l-1.141,1.094l-0.661,0.48l-0.992,0.947l-0.277,0.14l-1.118,0.883l-0.804,0.538l-1.301,0.625l-0.517,0.175l-1.235,-0.162l-0.515,0.086l-0.431,0.378l-0.04,0.544l-0.18,0.082l-0.272,-0.024l-0.863,-0.227l-0.468,0.043l-0.273,0.291l-0.22,0.368l-0.65,0.019l-1.158,-0.381l-1.362,-0.232l-0.315,-0.026l-0.66,0.283l-0.23,0.041l-0.961,-0.061l-0.533,-0.178l-0.51,-0.001l-0.391,0.147l-0.474,0.052l-1.281,1.025l-0.662,0.001l-0.571,0.119l-0.283,-0.004l-0.53,-0.144l-0.197,0.01l-0.302,0.064l-0.302,0.181l-0.688,0.078l-0.267,0.155l-1.162,0.941l-0.265,-0.038l-0.214,-0.061l-0.604,-0.012l-0.683,-0.501l-0.262,0.032l0.07,-0.15l0.021,-0.266l-0.145,-0.188l-0.097,-0.084l-0.268,0.016l-0.143,-0.226l-0.41,-0.021l-0.142,0.057l-0.197,0.012l-0.017,-0.229l0.015,-0.144l-0.012,-0.221l-0.049,-0.271l-0.159,-0.086l-0.122,-0.036l-0.29,0.019l-0.2,0.029l-0.094,0.079l-0.107,0.199l-0.001,0.604l-0.144,-0.173l-0.164,-0.362l-0.053,-0.386l0.059,-0.455l0.311,-0.173l-0.024,-0.307l-0.066,-0.266l-0.347,-0.68l-0.135,-0.311l-0.294,-0.21l-0.229,-0.506l-0.23,-0.183l-0.096,-0.354l-0.225,-0.282l-0.076,-0.446l0.124,-0.255l0.196,-0.14l0.2,0.221l0.249,-0.086l0.353,-0.322l0.209,-0.488l0.013,-0.779l-0.054,-0.485l-0.28,-1.25l-0.132,-0.287l-0.632,-0.891l-0.733,-1.189l-0.927,-1.865l-0.443,-1.116l-0.671,-2.24l-0.591,-1.261l-0.726,-1.172l-0.093,-0.076l0.111,-0.142l0.391,-0.27l0.177,-0.073l0.095,0.034l0.092,-0.074l0.089,-0.183l0.02,-0.171l0.044,-0.242l0.087,-0.145l0.096,-0.288l0.163,-0.185l0.345,-0.123l0.261,0.163l0.109,0.159l0.045,0.21l0.116,0.102l0.186,-0.007l0.131,0.129l0.076,0.266l-0.015,0.192l-0.106,0.12l0.015,0.157l0.135,0.195l0.056,0.186l0.09,0.246l0.474,0.143l0.232,0.08l0.399,0.027l0.377,0.11l0.355,0.192l0.584,0.046l0.813,-0.099l0.669,0.044l0.525,0.188l0.381,0.035l0.236,-0.119l0.103,-0.171l-0.032,-0.224l0.117,-0.141l0.265,-0.06l0.212,-0.168l0.16,-0.277l0.369,-0.225l0.579,-0.173l0.288,0.006v-0.447v-1.408v-1.401v-1.396v-1.391v-1.385v-1.379v-1.375v-1.293l0.135,0.093l0.889,0.686l0.24,0.361l0.119,0.229l0.382,0.833l0.284,0.749l0.231,0.566l0.018,0.259l0.033,0.253l0.033,0.125l-0.021,0.138l-0.163,0.309l-0.166,0.236l-0.2,0.323l-0.019,0.427l0.06,0.504l0.123,0.251l0.154,0.083l0.368,-0.125l0.233,0.039l0.329,0.096l1.078,-0.059l0.13,0.031l0.407,0.036l0.136,-0.042l0.122,-0.107l0.141,-0.302l0.126,-0.1l0.229,-0.051l0.271,-0.082l0.224,-0.174l0.355,-0.597l0.711,-0.529l0.218,-0.126l0.138,-0.142l0.12,-0.191l0.249,-0.664l0.188,-0.552l0.064,-0.26l0.168,-0.424l0.203,-0.271l0.199,-0.143l0.1,-0.036l0.256,-0.073l0.329,-0.068l0.346,0.076l0.371,0.164l0.419,0.276l0.429,0.342l0.197,0.174l0.213,0.078l0.379,0.027l0.248,-0.006l0.386,0.34l0.195,0.021l0.437,0.103l0.54,0.106l0.339,-0.012l0.364,-0.184l0.262,-0.008l0.339,0.015l0.373,-0.05l0.273,-0.079l0.209,-0.16l0.184,-0.175l0.212,-0.521l0.122,-0.418l0.188,-0.481l0.231,-0.651l0.083,-0.453l0.084,-0.125l0.336,-0.138l0.277,-0.095l0.748,-0.178l0.153,-0.095l0.14,-0.213l0.326,-0.361l0.402,-0.301l0.208,-0.172l0.38,-1.458l0.046,-0.18l0.276,-0.386l0.171,-0.163l0.11,-0.003l0.156,-0.102l0.203,-0.2l0.241,-0.124l0.279,-0.046l0.181,-0.133l0.083,-0.218l0.144,-0.106l0.205,0.006l0.117,-0.069l0.028,-0.145l0.124,-0.125l0.219,-0.103l0.114,-0.123l0.011,-0.141l0.261,-0.343l0.511,-0.545l0.481,-0.303l0.452,-0.062l0.429,-0.113l0.405,-0.165l0.297,-0.259l0.19,-0.352l0.327,-0.197l0.659,-0.058l0.036,-0.003l0.802,-0.14l0.671,0.114l0.809,0.322l0.757,0.114l0.706,-0.094l0.574,-0.021l0.441,0.052l0.348,0.112L563.508,526.797zM556.349,550.789l0.461,-0.205l0.208,-0.125l0.15,-0.103l0.194,-0.156l0.067,-0.379l0.057,-0.322l0.148,-0.159l0.152,-0.105l0.125,-0.167l0.155,-0.401l0.106,-0.392l0.011,-0.16l-0.055,-0.164l-0.099,-0.175l-0.097,-0.236l-0.117,-0.037l-0.229,-0.132l-0.337,-0.266l-0.292,-0.231l-0.274,-0.335l-0.112,-0.055l-0.265,-0.227l-0.114,-0.13l-0.08,-0.156l-0.075,-0.051l-0.119,0.04l-0.313,0.069l-0.671,0.272l-0.416,0.25l-0.35,0.298l-0.363,0.114l-0.266,0.099l-0.211,0.341l-0.197,0.318l-0.177,0.287l-0.102,0.129l-0.092,0.083l-0.093,0.184l-0.191,0.306l-0.175,0.205l-0.244,0.112l-0.315,0.145l-0.107,0.084l-0.015,0.124l0.112,0.288l0.108,0.278l0.177,0.326l0.13,0.239l0.205,0.292l0.12,0.171l-0.016,0.287l0.041,0.103l0.068,0.119l0.057,0.03l0.064,0.043l0.17,0.083l0.041,0.055l0.119,0.098l0.114,0.179l0.216,0.246l0.243,0.187l0.417,0.077l0.326,0.06l0.108,-0.037l0.111,-0.151l0.091,-0.192l0.029,-0.244l0.104,-0.13l0.391,-0.619l0.215,-0.229l0.132,-0.017l0.169,-0.044l0.216,-0.019l0.162,0.019l0.035,-0.007L556.349,550.789zM581.944,611.46l-0.121,0.076l-0.567,-0.067l-0.061,-0.157l0.167,-0.242l0.099,-0.102l0.293,0.055l0.234,0.196l0.042,0.066L581.944,611.46z"/>


                </svg>
