<svg
                    xmlns:dc="http://purl.org/dc/elements/1.1/"
                    xmlns:cc="http://creativecommons.org/ns#"
                    xmlns:rdf="http://www.w3.org/1999/02/22-rdf-syntax-ns#"
                    xmlns:svg="http://www.w3.org/2000/svg"
                    xmlns="http://www.w3.org/2000/svg"
                    xmlns:sodipodi="http://sodipodi.sourceforge.net/DTD/sodipodi-0.dtd"
                    xmlns:inkscape="http://www.inkscape.org/namespaces/inkscape"
                    enable_background="new 0 0 1200 589"
                    height="900"
                    width="2000"
                    viewBox="140 460 200 200"
                    id="us-map"
                    preserveAspectRatio="xMidYMid meet"
                    inkscape:version="0.48.4 r9939"
                    sodipodi:docname="us.svg">
                <sodipodi:namedview
                        pagecolor="#ffffff"
                        bordercolor="#666666"
                        borderopacity="1"
                        objecttolerance="10"
                        gridtolerance="10"
                        guidetolerance="10"
                        inkscape:pageopacity="0"
                        inkscape:pageshadow="2"
                        inkscape:window-width="1920"
                        inkscape:window-height="1137"
                        id="namedview69"
                        showgrid="false"
                        inkscape:zoom="0.80893016"
                        inkscape:cx="817.66365"
                        inkscape:cy="409.3738"
                        inkscape:window-x="1192"
                        inkscape:window-y="118"
                        inkscape:window-maximized="1"
                        inkscape:current-layer="svg2"/>
                <defs
                        id="defs4">
                    <style
                            type="text/css"
                            id="style6">path {
                        fill-rule: evenodd;
                    }</style>
                </defs>
                <metadata
                        id="metadata8">
                    <views
                            id="views10">
                        <view
                                h="589.235294118"
                                padding="0"
                                w="1000"
                                id="view12">
                            <proj
                                    id="laea-usa"
                                    lat0="45"
                                    lon0="-100"/>
                            <bbox
                                    h="321.97"
                                    w="589.33"
                                    x="690.09"
                                    y="918.69"
                                    id="bbox15"/>
                        </view>
                    </views>
                    <rdf:RDF>
                        <cc:Work
                                rdf:about="">
                            <dc:format>image/svg+xml</dc:format>
                            <dc:type
                                    rdf:resource="http://purl.org/dc/dcmitype/StillImage"/>
                            <dc:title/>
                        </cc:Work>
                    </rdf:RDF>
                </metadata>
                <path id="NL" style="stroke-width:0.1;fill:lightgrey" data-name="Netherlands" class="land" d="M239.91,554.91,239.81,555.32,239.55,555.76,238.66,556.41,237.73,556.83,237.25,556.78,236.92,556.56,236.75,556.32,236.25,556.1,235.57,555.99,235.14,556.23,234.84,556.46,234.57,556.42,234.37,556.23,234.22,555.94,234.02,555,234.53,554.83,235.63,554.77,236.48,555.1,237.61,555.25,238.46,554.81,239.14,555.19,239.91,554.91zM238.05,551.09,238.7,551.69,238.84,551.88,238.9,552.08,238.06,552.31,237.17,551.59,236.59,551.76,236.36,551.42,236.36,551.2,236.97,551.02,238.05,551.09zM244.35,536.43,243.69,537.22,243.28,537,243.16,536.82,243.37,536.2,244.35,535.17,244.35,536.43zM245.85,533.77,244.61,534.6,244.5,534.46,245.3,533.75,245.85,533.77zM239.91,554.91,239.32,554.75,238.43,554.3,237.19,554.66,236.33,554.23,235.61,554.18,235.16,553.84,234.68,553.25,235.02,552.86,235.35,552.72,236.67,552.65,237.62,552.88,239.34,554.16,239.77,554.15,240.23,553.99,240,553.64,239.57,553.48,238.93,553.13,238.42,552.65,239.62,552.49,239.45,552.24,239.3,551.82,238.03,550.32,238.25,549.92,238.56,549.05,238.96,548.32,239.28,548.13,239.79,547.62,240.92,546.11,241.64,544.87,242.17,543.41,242.95,539.34,243.19,538.65,243.56,537.88,244.04,538.02,244.36,538.24,245.53,537.66,247.53,536.14,248.12,534.83,248.7,534.21,251,533.01,252.26,532.65,254.22,532.56,255.64,532.35,257.34,532.27,257.98,533.01,258.36,533.55,258.96,533.85,259.9,534.06,259.85,535.13,259.85,537.23,259.78,537.6,259.36,538.48,258.92,540.06,258.8,541.1,258.66,541.3,256.88,541.29,256.63,541.47,256.59,541.69,256.68,541.96,256.64,542.22,256.5,542.44,256.58,542.78,256.88,543.17,257.45,543.41,258.05,543.43,258.36,543.39,258.59,543.67,258.81,544.09,258.79,544.63,258.71,545.35,258.42,546.01,257.6,546.78,257.23,547.04,256.89,547.18,256.72,547.38,256.64,547.64,256.66,547.86,257.24,548.48,257.23,548.62,257.06,548.93,256.84,549.23,255.33,549.85,254.71,549.8,254.35,550.11,254.24,550.17,253.85,549.89,252.97,549.56,252.63,549.67,252.45,549.85,251.9,550.07,251.5,550.41,251.5,550.85,252.2,551.98,252.45,552.2,252.46,552.62,252.8,553.15,253.15,553.81,253.18,554.23,253.14,554.65,252.96,555.25,252.52,556.24,252.21,556.55,252.21,556.97,252.22,557.3,252.61,557.18,252.77,557.29,252.72,557.48,251.51,558.4,251.43,558.73,251.26,558.73,251.11,558.38,250.96,558.57,250.89,558.73,250.95,558.99,251.14,559.22,251.54,559.34,251.85,559.32,251.77,559.54,251.83,559.81,252.35,559.95,252.29,560.25,252.34,560.5,252.25,560.73,252.13,560.64,251.89,560.71,251.88,561.18,251.58,561.22,251.94,561.5,251.9,561.71,251.12,561.69,250.48,561.67,250.14,561.61,249.78,561.45,249.62,561.12,249.31,560.81,249.34,560.47,249.56,560.35,249.91,559.87,250.06,559.61,249.9,559.49,250.14,559.14,250.2,558.83,250.3,558.41,250.56,558,250.68,557.71,250.48,557.42,250.18,557.24,249.21,556.93,248.75,556.49,248.54,556.11,248.33,556,248.01,556.13,247.21,556.27,246.56,556.07,245.79,555.34,245.61,554.69,245.52,554.19,245.33,554.02,245.07,554.28,244.74,554.68,244.1,554.73,243.91,554.63,243.88,554.41,243.84,554.2,243.67,553.93,243.47,553.78,242.66,554.53,242.35,554.53,241.97,554.24,241.78,553.96,241.36,554.12,240.98,554.47,241.11,555.12,240.9,555.24,240.44,555.18,239.91,554.91zM247.31,532.9,246.68,532.98,246.4,532.83,247.91,532.38,248.87,532.24,249.04,532.3,247.31,532.9zM251.37,532.07,250.04,532.25,249.59,532.12,249.52,531.98,249.88,531.91,251.01,531.89,251.36,532,251.37,532.07zM254.09,531.48,253.15,531.87,252.92,531.79,252.97,531.68,253.8,531.44,254.09,531.48zM256.79,530.67,256.17,530.71,256.34,530.41,256.92,530.19,257.23,530.19,256.79,530.67z"/>
                <path id="MC" style="stroke-width:0.1;fill:lightgrey" data-name="Monaco" class="land" d="M261.53,631.11,261.12,631.28,261.13,631.08,261.23,630.97,261.36,630.91,261.51,631,261.53,631.11z"/>
                <path id="LU" style="stroke-width:0.1;fill:lightgrey" data-name="Luxembourg" class="land" d="M252.63,568.35,252.58,568.63,252.58,569.26,252.78,569.88,253.22,570.5,253.57,570.95,254.03,571.31,254.81,571.65,255.12,571.72,255.17,572.18,255.11,572.66,254.84,572.93,254.58,573.31,254.39,573.78,254.19,574.68,254.16,575.3,253.71,575.05,253.48,574.87,253.06,574.82,252.65,574.97,252.34,575.28,251.92,575.38,251.57,575.28,251.37,575.05,251.18,574.92,250.66,574.76,250.43,574.42,250.6,574.26,250.75,574,250.88,573.64,251.04,573.31,250.53,572.41,250.42,572.13,250,571.61,250,571.35,250.1,571.11,250.07,570.91,250.12,570.45,250.42,570.02,250.62,569.48,250.95,568.75,251.69,567.86,252.21,568,252.45,568,252.59,568.32,252.63,568.35z"/>
                <path id="LI" style="stroke-width:0.1;fill:lightgrey" data-name="Liechtenstein" class="land" d="M275.93,599.47,275.41,599.42,275.31,599.42,275.26,599.07,275.29,598.33,275.58,597.36,275.64,597.52,275.68,597.72,275.74,597.94,275.77,598.21,275.88,598.48,276.08,598.73,276.14,598.98,276.04,599.29,275.93,599.47z"/>
                <path id="IE" style="stroke-width:0.1;fill:lightgrey" data-name="Ireland" class="land" d="M162.91,513.27,161.84,514.02,161.68,514.31,161.38,515.46,161.34,515.79,161,516.39,160.68,517.06,160.3,517.32,159.74,517.53,159.42,517.73,159.02,517.63,158.51,517.64,158.25,517.87,158.27,518.05,158.42,518.25,158.86,518.55,159.36,518.83,159.3,519.07,159.04,519.35,157.35,520.03,156.85,520.44,156.68,520.71,156.86,521.16,158.2,522.52,158.43,522.67,158.63,523.46,159.81,523.78,160.3,524.28,160.72,524.39,161.63,524.35,161.99,524.54,162.2,524.4,162.32,524.14,163.08,523.47,163.33,523.18,163.18,522.77,163.02,522.46,163.48,521.84,164.05,521.23,164.33,521.25,164.81,521.62,165.21,522.15,165.26,522.55,165.33,522.84,165.71,523.47,165.95,523.68,166.6,523.81,166.76,524.05,166.64,524.95,166.74,525.25,167.42,525.27,168.15,525.2,168.4,525.23,168.66,525.04,169.06,524.84,169.64,524.91,169.93,525.31,170.05,525.73,169.56,525.88,169.04,525.8,168.79,526.07,168.77,526.59,168.94,527.27,169.29,527.75,169.57,528.82,169.8,530.01,170.15,530.73,170.23,531.62,170.17,532.05,170.24,532.84,170.09,533.11,170.2,533.85,170.62,535.36,170.81,536.2,170.92,538.03,170.63,538.72,170.23,539.37,169.97,540.14,169.77,540.96,169.65,542.3,168.78,543.85,168.42,544.24,167.99,544.48,168.92,545.56,168.16,546.04,167.33,546.2,166.42,545.92,165.85,545.96,165.32,546.31,165.12,546.52,164.95,546.42,164.61,545.53,164.36,546.45,163.83,546.74,162.93,546.68,161.41,546.92,160.83,547.18,160.59,547.59,160.41,548.06,160.18,548.34,159.91,548.48,158.74,548.83,158.51,548.97,157.97,549.72,157.26,550.16,156.68,550.29,156.16,549.85,155.94,549.59,155.7,549.45,154.9,549.47,155.15,549.61,155.31,549.92,155.39,550.51,155.3,551.1,154.91,551.39,154.44,551.45,153.69,552.05,152.71,552.21,152.18,552.77,148.93,553.71,148.74,553.72,148.3,553.48,147.81,553.37,147.32,553.45,145.96,553.97,145.3,553.87,146.14,552.57,147.27,551.91,147.39,551.73,147.02,551.64,144.87,552.1,144.13,552.49,143.38,552.6,143.73,552,144.69,551.19,145.21,550.81,145.52,550.65,145.88,550.17,146.89,549.63,143.63,550.75,142.77,550.62,142.57,550.3,141.9,550.45,141.65,549.69,142.64,548.54,143.21,548.04,143.9,547.77,144.56,547.39,144.8,546.92,144.49,546.77,142.52,546.89,141.57,546.79,141.62,546.41,141.8,546,142.78,545.29,143.31,545.17,143.78,545.24,144.24,545.42,144.62,545.66,145.73,545.52,145.26,545.07,145.18,544.14,144.83,543.83,145.28,543.4,145.8,543.14,146.67,542.25,146.98,542.12,148.69,541.9,150.55,541.43,152.38,540.79,151.44,540.42,150.99,539.94,150.26,540.91,149.74,541.28,148.27,541.48,147.81,541.37,147.15,541.07,146.94,541.18,146.76,541.42,145.78,541.89,144.76,542,145.95,541.13,147.46,539.66,147.8,539.19,148.28,538.38,148.13,538.02,147.82,537.81,148.91,536.13,149.3,535.83,150,535.78,150.51,535.51,150.74,535.51,150.94,535.41,151.39,534.9,150.7,534.58,149.98,534.42,147.76,534.59,147.46,534.55,147.19,534.4,147.01,534.17,146.87,533.6,146.71,533.47,146.21,533.47,145.72,533.65,145.37,533.63,145.03,533.38,145.57,532.79,144.87,532.65,144.17,532.77,143.58,532.59,143.56,532.22,143.83,531.85,143.48,531.5,143.41,531.06,143.78,530.84,144.19,530.91,145.01,530.58,146.07,530.42,145.17,530.1,144.8,529.82,144.79,529.4,144.86,529.03,145.91,528.42,147.03,528.14,146.95,527.74,147.03,527.3,145.89,527.17,144.77,527.48,144.89,526.64,145.16,525.87,145.21,525.37,145.16,524.83,144.64,525.06,144.57,524.3,144.35,523.78,143.57,524.14,143.59,523.45,143.82,522.97,144.22,522.76,144.63,522.85,145.38,522.84,146.1,522.48,147.14,522.38,148.8,522.5,149.94,523.52,150.24,523.34,150.69,522.69,150.91,522.62,152.63,522.9,153.7,523.27,153.98,523.16,153.83,522.44,153.46,521.94,153.92,521.29,154.48,520.84,154.86,520.62,155.72,520.35,156.1,520.09,156.35,519.24,156.75,518.54,154.58,518.91,152.51,518.07,152.84,517.48,153.28,517.14,154.03,516.89,154.1,516.58,154.48,516.32,155.11,515.64,154.88,514.76,155.01,514.11,155.46,513.69,155.6,513.08,155.8,512.63,156.73,512.47,157.61,512.05,157.93,512.1,158.98,512,159.33,512.17,159.25,511.43,159.89,511.33,160.14,511.48,160.25,512,160.54,512.34,160.63,512.91,160.44,513.36,160.11,513.7,160.41,514.06,159.95,514.69,160.45,514.42,161.16,513.8,161.12,513.29,161,512.65,160.8,512.07,160.9,511.43,161.3,511.04,162.35,510.83,161.92,510.11,162.3,510.04,162.72,510.19,163.33,510.76,163.97,511.2,164.64,511.55,164,512.25,163.22,512.74,162.91,513.27zM144.54,526.92,144.52,527.24,144.02,526.83,143.77,526.38,142.41,526.18,142.98,525.73,143.26,525.86,144.22,525.88,144.49,526.07,144.54,526.92z"/>
                <path id="IM" style="stroke-width:0.1;fill:lightgrey" data-name="Isle of Man" class="land" d="M181.79,523.8,180.43,525.25,179.88,524.99,179.41,525.13,179.28,525.09,179.55,524.56,179.86,523.34,180.43,522.86,181.14,521.6,181.71,521.24,181.9,521.29,182.03,521.41,182.29,522.84,181.93,523.34,181.79,523.8z"/>
                <path id="FR" style="stroke-width:0.1;fill:lightgrey" data-name="France" class="land" d="M250.43,574.42,250.66,574.76,251.18,574.92,251.37,575.05,251.57,575.28,251.92,575.38,252.34,575.28,252.65,574.97,253.06,574.82,253.48,574.87,253.71,575.05,254.16,575.3,254.42,575.25,254.93,575.4,255.44,575.9,255.66,576.4,255.71,576.67,255.93,576.97,256.79,578.31,257.07,578.38,257.37,578.17,257.56,577.89,257.84,577.83,258.29,577.96,258.58,578.11,258.72,578.69,258.82,578.8,259.02,578.68,259.36,578.65,259.92,578.79,260.68,578.63,261.29,578.39,261.61,578.4,262.11,579.07,262.68,579.33,263.95,579.53,265.31,579.85,265.84,580.1,266.21,580.23,266.25,581.12,266.14,581.25,264.78,583.04,264.21,583.67,263.92,584.58,263.72,585.96,263.32,587.28,262.72,588.52,262.5,589.45,262.67,590.07,262.57,591.04,262.2,592.36,262.14,593.36,262.38,594.03,262.72,594.17,261.9,594.62,261.72,595.01,261.4,595.53,260.88,595.75,260.36,595.83,259.94,595.76,259.7,595.55,259.71,595.35,259.49,595.19,258.93,595.19,258.36,595.55,257.9,596.14,258.05,596.47,258.47,596.55,258.58,596.68,258.58,596.85,258.43,597.05,258.25,597.4,257.37,598.43,256.48,599.46,256.33,599.77,256.05,599.99,254.92,600.54,254.8,600.76,254.73,601.68,254.61,602.44,253.76,603.15,252.93,603.85,252.72,604.28,252.57,604.78,252.3,605.34,252.25,605.64,252.68,606.12,252.63,606.52,252.49,607.08,252.09,607.48,251.64,607.71,251.65,608.33,251.89,608.41,252.43,608.37,253.19,607.92,253.68,607.35,253.39,606.8,253.35,606.69,253.43,606.57,254.01,605.97,254.73,605.61,255.74,605.55,256.95,605.76,257.07,605.84,257.01,606.21,257.12,606.75,257.34,607.12,257.04,608.19,257.27,608.53,257.62,608.93,257.88,609.29,258.26,609.62,258.6,610.19,258.72,610.51,258.18,611.06,257.26,611.58,257.16,611.91,257.17,612.29,257.27,612.59,257.78,612.97,258.32,613.83,258.67,614.6,259.42,615.33,259.61,615.55,259.56,615.73,259.36,616.04,259.1,617.09,258.79,617.25,258.45,617.32,257.51,618.08,257.1,617.99,256.5,618,256.07,618.25,256.12,618.72,256.5,619.15,256.72,619.63,256.81,620.11,257.24,620.48,257.83,620.69,258.17,620.71,258.39,620.84,258.52,621.01,258.78,622.05,258.63,622.31,258.31,622.43,258.12,622.86,257.73,623.49,257.52,623.99,257.76,624.44,257.86,624.77,257.73,625.11,257.9,625.64,258.35,626.16,259.58,626.9,260.72,627.49,261.07,627.59,262.61,627.21,262.86,627.24,263.05,627.7,263.13,628,262.96,628.47,262.54,629.1,262.09,629.61,261.82,630.04,261.87,630.43,261.89,630.95,261.53,631.11,261.51,631,261.36,630.91,261.23,630.97,261.13,631.08,261.12,631.28,260.33,631.61,259.79,631.95,257.66,634,256.67,634.6,256.47,634.96,256.27,635.63,255.68,636.21,255.17,636.48,253.9,636.76,252.63,637.37,252.05,637.11,250.56,637.14,249.64,636.4,247.85,635.93,247.27,634.86,246.46,634.79,245.93,634.82,245.61,634.66,245.53,634.29,245.52,633.94,244.96,634.1,244.53,634.1,244.27,634.24,244.07,634.41,243.83,634.3,243.69,634.34,243.7,634.55,243.18,634.6,242.62,634.47,241.15,633.92,240.92,633.83,239.9,633.62,239.48,633.39,239.15,632.84,238.9,632.67,238.74,632.57,237.79,632.84,237.46,633.28,236.94,633.78,233.4,636.26,232.76,637.29,232.01,638.81,231.95,639.52,232.27,641.78,232.99,642.96,233.08,643.23,232.69,643.23,232.02,643.09,231.46,642.9,230.93,643.01,230.42,643.25,229.98,643.4,229.66,643.44,229.44,643.58,229.34,643.86,229.32,644.06,228.75,644.01,227.45,643.6,226.28,643.32,225.59,643.64,225.15,643.94,224.84,643.89,224.61,643.58,224.45,643.28,223.99,643,222.96,642.58,223.01,642.37,223.19,642.09,223.18,641.91,222.98,641.65,222.03,641.38,221.58,641.3,221.29,641.5,221.09,641.73,220.56,640.87,220.18,640.69,219.61,640.66,218.95,640.4,218.27,640.06,216.62,639.52,216.17,639.45,215.98,639.54,215.86,639.86,215.8,640.78,215.73,640.88,214.96,640.91,214.02,640.78,213.58,640.84,213.2,640.85,212.83,640.6,211.2,640.88,210.93,640.75,210.54,640.33,210.1,640,209.75,639.83,209.46,639.64,209.2,639.6,208.8,639.79,208.24,639.87,207.78,639.85,207.53,639.88,206.5,638.86,206.35,638.59,205.83,638.51,205.19,638.5,203.57,637.84,202.83,637.49,202.72,637.28,202.73,637.11,202.6,637.14,202.38,637.45,202.26,637.69,202.1,637.74,201.86,637.7,201.65,637.56,201.52,637.38,201.66,637.07,201.91,636.67,202.01,636.22,201.99,635.83,201.58,635.57,200.97,635.47,200.53,635.44,199.95,635.21,199.68,635.05,199.42,634.61,199.41,634.28,200.5,634,201.49,632.84,202.42,628.59,203.1,623.53,203.6,622.57,204.23,622.31,203.72,621.6,203.4,621.96,203.27,622.34,203.1,622.52,203.48,617.83,203.75,616.11,204.2,614.29,205.14,615.01,205.92,615.74,206.32,616.38,206.83,618.48,207.21,618.92,207.79,619.36,207.56,618.88,207.16,618.51,206.54,615.7,206.16,614.91,205.55,614.24,203.61,612.82,203.43,612.54,203.34,612,203.98,612.02,204.54,612.29,204.47,611.98,204.3,611.66,204.05,610.51,203.83,607.81,203.86,607.34,203.76,606.77,203.14,606.64,202.64,606.62,202.11,606.4,199.46,604.79,198.55,603.13,197.62,601.9,197.4,601.36,197.41,600.82,197.89,599.66,197.47,598.93,197.05,598.79,196.69,598.43,197.02,597.83,197.29,597.44,197.84,597.33,198.55,597.46,199.22,597.81,199.75,597.9,198.19,596.97,195.65,597.28,195.1,597.16,194.64,596.95,194.45,596.26,194.82,595.95,195.14,595.38,194.77,594.97,194.29,594.82,193.54,594.83,192.84,594.95,192.66,594.72,193.09,594.08,192.72,593.84,192.24,593.95,191.53,594.08,190.86,593.88,190.22,593.15,189.8,593.16,189.51,593.25,189.08,592.96,188.63,592.89,188.31,592.99,187.88,592.57,185.23,591.72,184.09,591.62,183.04,592,182.46,591.87,182.04,591.32,181.68,590.41,180,589.7,180.33,589.23,181.12,589.12,182.02,588.8,182.35,588.39,181.64,587.9,181.12,587.78,180.9,587.61,180.68,587.18,180.99,586.98,181.21,587.08,181.85,587.14,182.94,587.04,182.53,586.6,182.11,586.5,181.92,586.39,181.03,586.34,180.63,586.49,179.72,586.44,179.53,585.96,179.43,585.56,179.71,584.65,180.99,583.83,184.17,582.94,185.54,583.07,186.48,582.91,187.62,582.35,188.12,581.87,189.74,581.59,191.27,582.1,192.69,584.03,193.36,584.68,195.02,583.55,197.49,583.58,198,584.22,198.2,583.68,198.66,583.05,199.02,583.34,199.2,583.73,201.8,583.62,202.22,583.5,201.52,583.04,200.94,581.95,200.83,577.88,200.1,576.74,199.28,574.91,198.89,573.83,198.86,573.45,198.99,572.91,200,572.94,200.79,573.08,202.29,572.66,203.01,572.95,202.97,573.8,203.19,574.87,203.44,575.38,203.82,575.97,205.02,575.92,206.33,576.26,207.97,576.31,210.38,576.91,211.4,576.57,212.39,575.83,214.28,575.35,214.43,575.09,213.34,575.19,212.35,574.73,212.21,574.22,212.33,573.76,212.73,572.71,215.62,571.04,217.69,570.55,219.86,569.63,220.94,568.69,221.66,567.47,221.9,567.2,222.19,566.97,221.92,566.53,222.1,561.83,222.31,560.98,222.73,560.28,223.37,559.74,224.34,559.15,227.93,558.34,228.47,558.01,228.54,558.52,228.8,559.17,228.98,559.53,228.83,559.99,228.95,560.38,229.44,561.06,230.04,561.71,230.58,562.12,230.74,562.08,231.14,561.96,231.82,561.54,232.38,561.4,232.7,561.73,232.89,561.91,233.24,562.64,233.34,563.4,233.5,564.03,233.79,564.28,234.87,564.37,235.67,564.6,235.88,564.81,236.15,566.21,236.3,566.41,236.5,566.24,236.69,566.01,236.97,565.98,237.43,566.06,238.05,566.09,238.69,566.25,239.56,567.03,239.53,567.29,239.36,567.75,239.3,568.11,239.45,568.26,239.68,568.63,239.63,569.06,239.4,569.37,239.31,569.61,239.31,569.78,239.39,569.91,239.57,570.03,240.87,570.19,242.06,570.03,242.8,569.59,242.93,569.12,243.14,568.6,243.59,568.16,243.9,568.01,244.18,568.19,243.71,570.04,244.05,570.51,244.1,571.21,244.23,571.82,244.65,571.81,245.16,571.93,245.53,572.15,245.95,572.52,246.56,572.85,246.99,572.97,247.15,573.25,247.5,573.57,248.04,574.25,248.53,574.7,248.77,574.7,249.22,574.52,249.9,574.41,250.43,574.42zM203.55,610.72,203.31,611.56,202.86,610.78,202.27,610.1,202.13,609.47,202.13,609.3,202.83,609.76,203.55,610.72zM275.26,639.82,275.09,641.16,275.21,641.55,275.46,641.83,275.57,642.13,275.77,645.68,275.74,645.97,274.91,647.39,274.73,647.8,274.69,649.56,274.55,650.03,274.26,650.5,273.74,651.99,273.28,652.67,272.05,651.85,271.32,651.49,270.97,651.11,270.74,650.84,270.89,650.49,271.22,650.12,271.27,649.84,270.49,649.51,270.13,649.29,270.14,648.91,270.41,648.31,270.28,647.81,269.83,647.84,269.49,647.76,269.44,647.51,269.7,647.18,270.03,646.75,270.02,646.27,269.62,646.07,269.26,645.68,269.11,645.16,269.39,644.8,269.85,644.57,269.51,644.03,269.29,644.02,269.11,643.9,269.26,643.65,269.61,643.27,270.1,642.15,270.78,641.62,272,641.28,272.32,641.13,272.63,640.74,272.96,640.48,273.36,640.52,273.74,640.67,273.97,640.83,274.14,640.66,274.31,640.17,274.2,639.74,274.26,638.55,274.47,637.88,274.82,637.84,275.15,638.21,275.13,638.54,275.25,639.31,275.26,639.82z"/>
                <path id="GB" style="stroke-width:0.1;fill:lightgrey" data-name="United Kingdom" class="land" d="M204.31,562.35,203.74,562.71,203.57,563.14,203.43,563.31,203.06,563.42,202.69,563.43,201.28,562.57,200.96,562.6,201.28,562.21,202.15,561.89,202.64,561.47,203.78,561.88,204.31,562.35zM183.24,533.62,183.52,533.83,184.23,533.8,184,534.26,183.22,534.78,182.69,535.29,182.05,535.72,181.75,535.23,181.39,535.25,180.84,534.3,180.74,532.89,181.46,532.52,182.44,532.54,183.24,533.62zM169.64,524.91,169.06,524.84,168.66,525.04,168.4,525.23,168.15,525.2,167.42,525.27,166.74,525.25,166.64,524.95,166.76,524.05,166.6,523.81,165.95,523.68,165.71,523.47,165.33,522.84,165.26,522.55,165.21,522.15,164.81,521.62,164.33,521.25,164.05,521.23,163.48,521.84,163.02,522.46,163.18,522.77,163.33,523.18,163.08,523.47,162.32,524.14,162.2,524.4,161.99,524.54,161.63,524.35,160.72,524.39,160.3,524.28,159.81,523.78,158.63,523.46,158.43,522.67,158.2,522.52,156.86,521.16,156.68,520.71,156.85,520.44,157.35,520.03,159.04,519.35,159.3,519.07,159.36,518.83,158.86,518.55,158.42,518.25,158.27,518.05,158.25,517.87,158.51,517.64,159.02,517.63,159.42,517.73,159.74,517.53,160.3,517.32,160.68,517.06,161,516.39,161.34,515.79,161.38,515.46,161.68,514.31,161.84,514.02,162.91,513.27,163.18,513.68,163.7,513.78,164.17,513.4,164.74,512.21,165.13,512.13,165.56,512.23,166.41,512.08,167.91,511.52,168.58,511.51,169.53,511.8,170.24,511.79,170.87,512.65,171.2,514,171.99,515.33,173.01,516.48,173.05,517.19,172.69,517.56,171.92,518.03,171.92,518.53,172.43,518.28,172.87,518.16,173.92,518.28,174.28,518.79,174.54,519.55,174.67,520.17,174.58,520.85,174.3,520.63,174.01,520.03,173.69,519.75,173.32,519.6,173.49,520.43,173.42,521.54,173.58,521.64,174.08,521.66,173.75,522.8,173.07,523.1,172.28,523.22,172.09,523.62,171.94,524.14,171.53,524.9,170.98,525.34,170.3,525.25,169.64,524.91zM177.13,509.06,176.28,509.07,175.97,508.97,175.61,508.68,175.19,507.05,175.34,506.47,175.51,506.18,175.7,505.96,176.14,505.87,176.59,506.18,176.76,506.47,177.13,507.57,177.2,508.52,177.13,509.06zM170.24,503.31,170.48,504.85,170.72,505.81,170.74,506.13,170.51,506.58,169.4,507.18,169.06,507.18,169.04,507.04,169.29,506.43,169.08,505.73,169.18,505.21,169.08,505.11,168.86,505.19,168.07,506.02,167.8,506.11,167.77,505.94,167.97,505.25,167.99,504.78,168.11,504.49,168.33,504.23,168.59,504.03,168.79,504,169.01,504.2,169.66,503.63,170.24,503.31zM171.31,504.71,171.17,504.83,170.83,504.8,170.7,504.61,170.63,504.31,170.62,503.76,170.83,503.37,171.7,502.78,171.31,502.58,171.29,502.43,171.52,501.94,172.46,501.17,172.71,501.03,172.96,501.05,172.47,502.41,171.31,504.71zM172.6,498.32,169.92,499,169,498.94,168.92,498.61,169.1,498.39,169.86,498.17,170.17,496.55,169.02,495.8,168.96,495.59,169.05,495.23,169.18,495.07,169.88,494.69,170.18,494.6,170.42,494.65,170.91,495.09,171.47,496.01,172.21,496.16,172.72,496.54,172.6,498.32zM167.02,495.39,166.64,495.46,166.61,495.29,167.27,494.46,167.7,494.33,167.85,494.41,167.54,494.89,167.02,495.39zM161.57,490.73,160.98,490.9,160.76,490.8,160.73,490.64,160.86,490.22,161.32,490.07,161.64,490.3,161.7,490.51,161.57,490.73zM169.23,490.74,169.03,490.9,168.78,490.86,168.53,490.66,168.2,490.08,168.94,489.68,169.24,489.91,169.35,490.18,169.36,490.48,169.23,490.74zM162.7,488.87,162.41,488.94,162.04,488.88,161.81,488.69,161.58,487.92,161.54,487.46,161.64,486.6,161.62,485.57,162.39,485.54,162.58,485.69,162.71,488.74,162.7,488.87zM170.13,484.02,170.12,484.58,170.01,485.23,170.16,485.91,170.2,486.41,170.48,486.56,170.65,486.79,171.91,487.04,173.09,486.97,173.31,487.17,173.34,487.49,173.15,487.84,172.48,488.49,171.69,489.53,171.45,489.74,171.19,489.75,171.01,489.66,170.88,487.81,170.01,488.05,169.32,488.02,168.94,487.79,168.67,487.36,168.13,486.24,166.56,485.8,166.12,485.18,165.99,484.81,166.04,484.6,166.37,484.14,166.78,484.3,167.03,484.2,167.19,484,167.18,483.83,166.97,483.43,166.96,483.3,168.56,482.79,168.7,482,169.05,481.93,169.45,482.19,169.99,483.02,170.13,484.02zM163,481.79,163.76,482.5,163.15,483.67,162.22,483.66,160.92,482.81,160.91,482.64,161.02,482.38,161.22,482.17,161.42,482.13,161.74,482.27,162.19,482.04,162.56,482.11,163,481.79zM169.77,473.15,168.92,475.38,168.58,475.44,168.29,476,167.38,476.61,168.17,476.62,168.39,476.82,168.4,477.26,168.25,477.52,167.22,478.53,166.51,478.91,165.75,479.97,165.36,479.98,164.98,480.65,164.67,480.95,164.49,480.95,164.29,480.8,163.82,480.14,164.68,479.5,164.76,479.13,165.34,478.76,165.29,478.64,164.36,478.11,164,477.75,164.03,477.56,164.48,477.15,164.27,477.09,164.12,476.87,163.86,476.78,163.78,476.58,163.74,476.03,163.81,475.47,164.08,475.22,164.19,474.96,164.3,474.88,164.72,475.02,165.15,475.46,165.64,475.29,166.22,475.38,166.23,475.27,165.81,474.17,165.88,473.95,166.11,473.69,167.45,472.9,169.11,471.57,169.51,471.36,169.63,471.54,169.8,472.23,169.77,473.15zM190.55,471.2,190.61,472.25,190.53,472.57,190.37,472.96,189.86,473.69,188.53,474.74,186.08,477.13,184.63,478.31,184.43,478.87,184.32,479.66,185.19,479.82,185.53,480.08,185.32,480.48,184.04,481.87,183.66,483.11,184.64,483.07,185.45,482.83,187.07,482.05,188.58,481.47,189.31,481.45,190.73,481.91,191.05,481.93,191.65,481.71,192.26,481.67,196.38,481.82,197.52,481.55,198.28,481.87,198.91,482.68,199.51,484.17,199.5,484.41,199.13,485.09,198.46,485.93,197.88,487.09,197.71,487.72,197.6,488.4,197.42,489.03,196.27,491.98,195.15,493.61,194.65,494.76,194.03,495.68,193.44,496.26,192.81,496.64,190.97,497.05,190.46,497.34,189.85,497.84,189.21,498.09,189.96,498.06,190.71,497.78,192.07,497.68,193.63,498.64,193.48,499.42,192.86,500.04,191.43,500.14,190.09,501.52,189.49,501.94,188.86,502.15,188.06,502.09,186.62,501.72,185.98,501.34,186.55,501.96,187.2,502.29,190.96,503.06,191.19,502.98,192.39,502.17,193.99,502.15,197.03,503.65,197.91,504.78,199.16,506.41,199.85,507.04,200.34,507.62,200.64,508.48,201.23,511.3,201.91,514.04,202.79,516.99,203.19,517.81,203.71,518.38,206.37,519.69,206.96,520.13,207.99,521.38,208.99,522.72,209.91,523.74,210.91,524.57,210.43,525,210.09,525.67,210.34,526.59,210.75,527.46,211.55,528.85,212.25,530.37,211.99,530.14,211.72,530.02,211.35,530.05,210.98,529.98,210.31,529.51,209.66,528.92,208.37,529.16,207.66,529.05,207.04,529.07,208.21,529.4,209.5,529.43,212.34,531.96,213.3,533.46,213.87,535.43,213.48,536.32,212.88,536.89,212.31,537.54,211.79,538.27,213.36,539.35,213.7,539.32,214.05,539.17,214.38,538.8,214.95,537.91,215.24,537.59,216.22,537.48,217.04,537.54,217.86,537.74,218.58,537.68,220.03,538.06,220.78,538.41,222.62,539.96,223.02,540.81,223.21,541.91,223.23,543.11,222.92,544.22,222.56,545.21,222.34,546.49,222.18,546.95,221.97,547.31,220.99,548.32,220.34,548.73,220.06,548.55,219.77,548.57,219.74,548.82,220.05,549.33,220.05,549.94,219.47,550.4,218.89,550.6,217.9,550.35,216.54,551.2,217.52,551.64,217.72,552.1,217.47,552.91,216.85,553.28,216.17,553.44,215.47,553.48,214.89,553.67,214.33,554.06,215.03,553.85,215.52,554.03,215.82,554.71,216.1,554.91,217.46,555.2,218.31,555.2,219.94,555.03,220.72,555.04,221,555.16,221,555.72,220.88,557.11,220.66,557.39,218.5,558.55,218.06,559.36,217.94,559.84,216.67,559.76,216.08,560.27,215.06,560.62,214.27,560.98,213.49,561.44,212.86,561.58,210.11,561.03,208.44,561.08,206.19,561.55,205.61,561.47,204.74,561.02,203.85,560.71,202.83,560.57,201.95,560.15,202.5,560.96,201.27,561.74,200.71,561.9,200.12,561.87,198.92,562.08,197.81,561.98,197.98,562.53,198.28,563.01,198.03,563.22,197.78,563.27,195.66,562.91,195.37,562.98,195.1,563.31,194.34,563.13,193.59,562.57,192.79,562.19,191.96,562.01,191.3,562.07,188.57,562.96,188.03,563.86,187.75,565.12,187.36,566.24,186.72,567.1,185.95,567.21,185.24,566.62,183.87,565.96,183.4,565.51,183.26,565.49,183.1,565.65,182.57,565.85,182.01,565.86,181.16,566.03,179.67,566.57,179.06,566.93,177.77,567.93,177.51,568.21,177.04,569.21,176.32,569.39,175.66,568.75,174.92,568.52,174.13,568.74,173.65,569.08,173.43,568.81,173.42,568.23,174,567.55,175.53,567.04,176.88,565.69,177.54,564.87,177.81,564.41,178.13,564.12,178.55,564.01,178.77,563.49,180.64,561.43,180.8,560.96,180.89,560.11,181.05,559.29,182.57,558.76,183.3,557.04,183.5,556.9,185.63,556.58,187.2,556.61,188.77,556.95,189.57,556.98,190.38,556.86,191.01,556.39,192.09,554.7,192.7,553.96,193.4,553.28,194.05,552.51,195.11,551.08,194.39,551.58,193.53,552.36,193.03,552.81,191.44,553.27,190.75,553.73,189.55,554.78,189.32,554.87,187.51,554.62,186.16,553.25,185.3,552.7,184.94,552.63,184.58,552.8,183.79,552.97,182.99,552.94,183.4,552.31,183.95,551.96,182.71,551.71,182.36,551.52,181.97,551.08,180.99,551,180.52,551.11,179.74,551.7,178.49,552.32,177,551.46,176.7,551.08,176.71,550.35,176.49,549.77,176.07,549.57,176.6,548.81,177.24,548.3,178.65,547.8,180.79,546.61,181.99,546.1,183.1,545.22,183.56,544.69,183.89,543.95,184.22,543.05,184.7,542.31,184.24,542.14,184.03,541.58,184.09,541.02,184.3,540.51,184.11,539.89,183.77,539.23,183.79,538.71,183.88,538.16,183.02,538.19,182.17,538.37,181.39,538.75,180.64,539.28,179.97,539.38,179.98,538.96,180.27,538.44,181.03,537.69,181.84,537.07,182.13,536.6,182.35,536.05,182.76,535.61,183.82,534.77,185.85,533.83,186.15,533.77,186.95,533.88,187.73,533.74,188.41,533.4,189.1,533.33,190.64,534.31,190.18,532.79,190.86,532.43,191.84,533.8,192.21,533.94,192.98,533.75,192.68,533.51,192.33,533.5,191.88,533.29,191.49,532.86,190.86,531.46,190.89,530.63,191.32,529.77,191.8,528.97,191.4,528.81,191.08,528.51,190.99,527.71,191.11,527,191.97,526.37,192.22,525.42,192.33,524.37,192.18,523.89,191.34,523.97,190.92,524.17,190.55,524.48,190.18,524.46,189.13,523.3,188.53,522.42,187.46,520.55,187.31,519.43,188.17,517,189.49,515.44,191.05,514.9,190.75,514.79,188.37,514.77,187.59,514.97,186.86,515.6,186.45,515.8,186.02,515.87,185.63,516.19,185.25,516.63,184.85,516.91,184.05,516.84,183.67,516.93,183.39,516.67,183.16,516.25,182.86,516.14,182.52,516.27,181.81,516.84,181.08,517.17,180.21,516.81,179.06,516.15,178.83,516.39,178.58,517.01,178.43,517.97,177.62,517.14,176.92,516.02,176.69,515.31,176.67,514.51,177.05,514.21,177.46,514.49,178.07,512.59,179.28,510.12,179.71,509.39,180.01,508.44,179.96,507.81,179.69,507.28,178.56,506.08,178.58,505.1,178.7,503.99,179.01,503.33,179.14,503.2,180.63,503.22,180.05,502.87,178.89,501.87,178.91,501.51,179.18,500.57,179.05,500.67,178.8,501.1,178.33,502.14,178.04,502.39,177.21,502.63,177.06,503.15,176.93,503.28,176.52,503.34,176.39,503.81,176.3,503.85,176.18,503.33,176.17,502.48,176.34,501.69,176.65,501.07,177.86,499.67,177.27,500.1,175.94,501.4,175.26,502.25,175.07,502.54,175.02,502.78,175.02,503.06,175.33,504.55,175.24,505.24,174.09,509.76,173.88,510.21,173.68,510.45,173.49,510.5,172.92,510.42,172.67,510.08,172.67,509.7,172.78,509.12,173.25,506.98,173.46,506.38,173.77,505.83,174.44,504.85,174.43,504.79,173.97,504.98,173.78,504.92,173.65,504.72,173.73,501.82,174.1,500.86,174.24,499.46,174.55,498.25,174.92,497.38,175.2,496.25,175.62,495.75,175.73,494.98,176.2,494.15,176.57,493.28,176.37,493.36,174.04,495.63,173.45,496.04,172.64,495.93,172.02,495.68,171.53,495.14,171.32,494.11,170.72,494.09,170.21,493.91,170.21,493.77,170.87,493.21,171.93,493.01,172.92,492.11,172.04,491.5,172.11,491.31,172.88,490.79,173.86,489.04,174.06,487.42,173.59,486.66,173.42,486.16,172.49,485.6,172.33,484.89,172.44,484.49,172.74,484.1,173.2,483.79,173.92,483.5,173.27,483.19,173.03,482.82,172.84,482.29,172.82,481.98,173.16,480.59,173.36,480.02,173.74,479.29,175.49,479.33,175.69,479.01,175.89,479,176.78,479.29,176.65,478.97,175.19,477.23,175.06,476.9,175.47,475.96,175.5,475.54,175.44,475.09,175.56,474.75,176.02,474.59,177.43,474.6,177.78,474.44,177.62,473.99,177.29,473.39,177.23,472.88,177.31,472.44,177.32,471.54,177.39,471.14,177.72,470.54,178,470.36,178.34,470.26,179.12,470.46,179.41,470.7,179.75,471.27,180,471.22,180.96,470.61,181.25,470.52,181.65,471.23,183.3,470.66,185.51,470.41,186.84,470.03,188.24,469.89,189.55,469.46,190.94,469.66,190.98,469.91,190.91,470.25,190.55,471.2zM191.77,468.28,191.7,468.32,191.46,468.08,191.05,467.23,191.69,467.06,191.99,467.16,191.88,467.53,191.77,468.28zM190.18,467.6,189.8,467.77,189.42,467.76,188.82,467,188.6,466.46,188.64,466.1,188.89,465.97,189.46,466.15,189.76,466.78,189.8,467.19,189.87,467.35,190.23,467.51,190.18,467.6zM190.91,464.53,190.82,464.85,191.33,464.85,192.07,465.12,192.52,465.15,192.89,465.49,192.69,466.13,192.46,466.31,192.21,466.34,191.33,465.71,190.17,465.97,189.94,465.89,189.79,465.72,189.73,465.5,189.73,465.05,189.66,464.92,189.24,465.34,189.06,465.29,188.96,465.09,188.91,464.67,188.96,464.07,189.2,463.21,189.62,463.03,190.24,463.13,190.95,463.62,191.16,463.92,191.16,464.16,190.91,464.53zM194.33,461.89,193.57,461.9,193.96,461.12,194.42,460.93,195.28,461.02,195.13,461.36,194.33,461.89zM193.11,462.47,192.54,462.8,192.29,462.53,192.22,461.68,191.54,461.32,191.2,461.1,190.94,460.67,191.01,460.54,191.46,460.36,192.22,461.14,192.54,461.76,193.1,461.95,193.18,462.04,193.11,462.47zM202.68,444.38,202.82,445.34,203.16,445.09,203.69,446.01,203.96,446.02,204.4,445.65,204.31,446.51,203.85,448.88,203.72,449.28,203.63,449.99,203.54,450.13,203.41,451.58,203.1,452.05,202.84,453.19,202.73,453.3,202.35,452.86,202.73,451.13,202.89,450.12,202.79,449.6,202.58,449.13,202,449.11,201.51,449.33,201.41,449.05,201.39,448.67,201.27,448.55,200.62,448.58,200.43,448.47,200.31,448.13,200.28,447.85,200.87,447.64,201.42,447.72,202.23,447.17,201.72,445.32,201.06,445.15,200.9,444.97,201.03,444.65,201.4,444.48,201.96,443.54,202.3,443.39,202.72,443.42,202.68,444.38zM204.46,444.7,204.29,444.86,203.64,443.47,204.12,441.87,204.71,441.92,204.8,442.34,204.75,442.73,204.45,442.76,204.42,442.88,204.51,443.62,204.52,444.48,204.46,444.7zM206.27,440.61,206.27,440.77,205.92,441.93,205.92,442.37,205.36,442.33,205.27,442.19,205.17,441.52,205.24,440.81,205.32,440.63,205.48,440.56,205.66,440.7,205.94,440.34,206.08,440.34,206.27,440.61z"/>
                <path id="DE" style="stroke-width:0.1;fill:lightgrey" data-name="Germany" class="land" d="M307.09,526.49,307.01,526.85,307.11,527.4,306.83,527.36,306,527.49,305.17,527.3,305.01,526.62,305.14,525.96,304.81,525.51,304.51,525.24,304.46,524.86,304.51,524.47,305.93,525.53,307.09,526.49zM287.39,521.12,286.36,521.14,285.96,520.68,285.57,520.56,285.78,519.99,286.06,519.78,287.06,520.16,287.37,520.88,287.39,521.12zM303.71,521.53,303.88,522.3,303.7,522.7,302.95,522.04,302.19,522.05,301.73,523.06,301.39,523.1,300.22,522.19,300.03,521.74,300,521.36,300.16,520.07,300.13,519.66,300.5,519.21,300.56,518.57,301.21,517.88,301.79,517.86,301.97,518.44,302.25,518.83,303.22,519.28,303.37,519.48,303.46,519.76,303,520.31,302.85,520.59,302.99,521.04,303.71,521.53zM269.26,517.7,269,517.99,268.36,517.96,268,517.69,268.11,517.4,268.45,517.18,268.73,517.15,269.16,517.28,269.26,517.7zM277.01,516.39,277.05,516.6,278.03,516.91,278.45,517.41,278.91,518.15,278.95,519.23,278.36,520,277.88,520.49,279.72,520.31,279.91,520.75,280.19,521.22,281.18,520.88,283.68,522.29,285.19,521.61,285.58,521.57,285.92,522.71,285.54,523.85,284.21,525.06,284.51,525.81,284.93,525.98,286.19,525.82,288.18,526.56,288.59,526.33,290.2,524.62,290.84,524.26,292.96,523.99,293.35,523.33,294.21,522.67,294.76,521.94,296.09,520.55,297.46,520.8,298.26,521.07,299.14,521.2,299.94,522.68,301.96,524.31,303.82,524.17,304.48,525.71,304.77,527.6,305.34,528.19,305.84,528.58,307.35,528.98,307.41,529,307.46,529.26,307.55,530.19,307.68,530.97,308.46,534.05,308.45,534.8,308.44,534.99,308.15,536.04,307.64,536.92,306.97,537.42,306.61,537.97,306.54,538.58,307.38,539.64,309.13,541.16,309.84,542.46,309.5,543.53,309.4,544.32,309.53,544.82,309.81,545.22,310.25,545.52,310.42,545.99,310.33,546.62,310.41,547.06,310.73,547.37,310.71,547.49,310.55,547.92,310.33,548.72,310.21,549.3,309.72,550.09,309.87,550.75,310.26,551.54,310.55,551.94,310.64,552.31,310.45,553.2,310.55,553.43,311.77,554.08,311.97,554.38,312.08,555.01,312.51,556.35,312.16,558.04,311.84,558.96,311.15,560.42,311.12,560.56,311.04,560.73,310.83,560.99,310.54,561.03,310.1,560.84,309.8,560.59,309.87,559.96,309.68,559.92,309.44,559.53,309.34,559.12,309.09,558.95,308.14,558.77,307.82,558.65,307.58,558.74,307.39,559.03,307.51,559.3,307.69,559.56,308.21,559.97,308.15,560.13,307.03,560.53,306.32,560.94,305.66,561.17,304.99,561.59,303.66,562.07,302.69,562.2,302.49,562.32,302.12,563.13,301.88,563.29,301.64,563.21,301.46,563.07,301.24,563.18,301,563.45,300.76,563.55,300.54,563.55,300.16,564.25,299.05,564.46,298.92,564.83,298.72,565.25,298.56,565.35,298.06,565.18,297.37,565.09,296.97,565.32,296.49,565.45,295.91,565.49,295.26,565.95,294.63,566.75,294.27,567.46,294.08,567.72,293.77,567.05,293.39,566.59,293.12,566.35,292.88,566.35,292.82,566.45,292.82,566.8,293.08,567.38,293.39,567.77,293.44,568.07,293.61,568.59,294.08,569.17,294.8,569.63,295.29,570.08,295.66,570.7,295.66,570.89,295.56,571.15,295.39,571.39,295.24,571.7,294.84,572.33,294.96,572.6,295.29,572.95,295.58,573.37,295.95,574.04,296.47,575.21,296.8,575.7,297.25,576.2,297.69,576.57,298.38,576.56,299.1,577.29,299.89,578.33,300.48,578.81,300.89,578.96,301.22,579.34,301.52,579.88,301.64,580.19,301.91,580.41,302.63,580.37,303.55,581.22,304.12,581.84,304.43,582.34,304.35,582.54,304.31,583.16,304.32,583.82,304.23,584.16,303.81,584.62,303.6,584.72,303.49,584.82,302.22,584.22,302.12,584.32,302.04,584.4,301.7,586.12,301.46,586.45,301.12,586.76,300.39,587.06,299.89,587.18,299.5,587.33,298.25,588.05,297.69,588.48,297.33,589.02,297.33,589.33,297.93,590.25,298.63,591.19,298.64,592.02,298.33,592.64,298.25,592.88,298.46,592.97,298.85,593,299.17,593.11,299.31,593.54,299.27,594.3,299.16,595.01,299.04,595.31,298.73,595.33,298.13,595.02,297.66,594.67,297.48,594.45,297.47,594.19,297.57,594.02,297.41,593.7,296.83,593.4,296.21,593.53,295.76,593.73,295.46,593.72,295.15,593.43,294.66,593.21,294.02,593.07,293.62,592.91,293.54,593.01,293.59,593.63,293.46,593.9,290.31,594.26,289.35,594.59,288.65,595.03,288.13,595.22,288,595.48,287.49,595.83,286.91,595.95,286.77,595.83,286.4,595.99,285.77,596.15,285.36,596.1,285.16,595.82,284.77,595.38,284.62,595.08,284.63,594.89,283.75,594.85,283.19,594.62,282.01,594.67,281.72,594.58,281.65,594.68,281.48,595.91,281.24,596.42,280.86,596.94,280.38,597.23,279.99,597.28,280.01,596.9,280.11,596.44,279.83,596.34,279.41,596.28,279.21,596.15,279.26,595.8,279.16,595.59,278.99,595.35,278.57,595.04,277.68,594.57,277.07,594.34,276.84,594.58,276.41,594.83,275.72,594.75,275.56,594.85,274.39,594.1,273.26,593.39,272.89,593.39,271.23,593.53,271.18,593.47,270.89,593.06,270.64,592.93,270.48,593,270.38,593.12,270.2,593.1,269.46,592.44,269.16,592.34,268.73,592.43,268.23,592.78,268.02,593.22,268.08,593.47,268.34,593.58,269.02,593.5,269.12,593.58,269.14,593.72,269.07,593.85,268.52,593.97,268.36,594.13,268.2,594.17,268.09,594.2,267.51,594.02,266.64,594.02,265.93,594.33,264.81,594.45,263.27,594.39,262.72,594.17,262.38,594.03,262.14,593.36,262.2,592.36,262.57,591.04,262.67,590.07,262.5,589.45,262.72,588.52,263.32,587.28,263.72,585.96,263.92,584.58,264.21,583.67,264.78,583.04,266.14,581.25,266.25,581.12,266.21,580.23,265.84,580.1,265.31,579.85,263.95,579.53,262.68,579.33,262.11,579.07,261.61,578.4,261.29,578.39,260.68,578.63,259.92,578.79,259.36,578.65,259.02,578.68,258.82,578.8,258.72,578.69,258.58,578.11,258.29,577.96,257.84,577.83,257.56,577.89,257.37,578.17,257.07,578.38,256.79,578.31,255.93,576.97,255.71,576.67,255.66,576.4,255.44,575.9,254.93,575.4,254.42,575.25,254.16,575.3,254.19,574.68,254.39,573.78,254.58,573.31,254.84,572.93,255.11,572.66,255.17,572.18,255.12,571.72,254.81,571.65,254.03,571.31,253.57,570.95,253.22,570.5,252.78,569.88,252.58,569.26,252.58,568.63,252.63,568.35,252.66,568.16,253.02,567.18,254.3,566.3,254.16,565.41,254.14,564.87,253.83,564.52,253.21,564.37,253.05,564.12,252.98,563.88,253.56,563.08,252.94,562.94,252.9,562.67,252.49,562.01,252,562,251.9,561.71,251.94,561.5,251.58,561.22,251.88,561.18,251.89,560.71,252.13,560.64,252.25,560.73,252.34,560.5,252.29,560.25,252.35,559.95,251.83,559.81,251.77,559.54,251.85,559.32,251.54,559.34,251.14,559.22,250.95,558.99,250.89,558.73,250.96,558.57,251.11,558.38,251.26,558.73,251.43,558.73,251.51,558.4,252.72,557.48,252.77,557.29,252.61,557.18,252.22,557.3,252.21,556.97,252.21,556.55,252.52,556.24,252.96,555.25,253.14,554.65,253.18,554.23,253.15,553.81,252.8,553.15,252.46,552.62,252.45,552.2,252.2,551.98,251.5,550.85,251.5,550.41,251.9,550.07,252.45,549.85,252.63,549.67,252.97,549.56,253.85,549.89,254.24,550.17,254.35,550.11,254.71,549.8,255.33,549.85,256.84,549.23,257.06,548.93,257.23,548.62,257.24,548.48,256.66,547.86,256.64,547.64,256.72,547.38,256.89,547.18,257.23,547.04,257.6,546.78,258.42,546.01,258.71,545.35,258.79,544.63,258.81,544.09,258.59,543.67,258.36,543.39,258.05,543.43,257.45,543.41,256.88,543.17,256.58,542.78,256.5,542.44,256.64,542.22,256.68,541.96,256.59,541.69,256.63,541.47,256.88,541.29,258.66,541.3,258.8,541.1,258.92,540.06,259.36,538.48,259.78,537.6,259.85,537.23,259.85,535.13,259.9,534.06,259.6,533.56,258.93,533.01,259.07,531.86,259.29,530.96,259.96,529.86,260.49,529.55,262.81,529.37,265.36,529.45,266.43,531.12,266.03,531.97,266.65,532.37,266.95,532.22,267.18,531.48,267.33,530.65,267.55,530.4,268.34,531.02,268.62,531.44,268.63,532.8,268.93,530.96,268.71,529.67,268.86,528.42,269.18,527.77,269.47,527.35,271.34,527.8,273.41,527.57,274.2,528.05,275.97,530.47,276.56,530.86,277.31,530.99,276.28,530.47,274.13,527.53,273.49,527.17,272.5,527.05,271.88,526.77,271.5,526.32,271.38,525.92,271.4,522.93,271.03,522.49,270.55,522.33,270.25,522.54,269.64,522.54,269.51,521.86,269.66,521.35,270.89,521.01,271.71,520.55,271.74,519.73,271.23,519.08,270.62,517.9,269.89,516.78,269.81,515.48,269.82,515.48,271.07,515.51,271.38,515.56,273.28,516.17,273.75,516.59,274.33,516.61,275.39,516.22,276.17,516.04,276.48,516.29,276.91,516.39,277.01,516.39zM267.37,516.84,267.22,517.07,267.29,515.42,268.03,513.66,268.34,513.7,268.02,514.18,267.93,514.51,267.8,515.18,267.86,515.52,269.54,515.62,269.34,515.92,267.64,516.13,267.37,516.84z"/>
                <path id="CH" style="stroke-width:0.1;fill:lightgrey" data-name="Switzerland" class="land" d="M275.56,594.85,275.76,594.98,276.24,595.42,276.13,596.16,275.58,597.36,275.29,598.33,275.26,599.07,275.31,599.42,275.41,599.42,275.93,599.47,276.2,599.47,277.04,599.67,277.72,599.96,277.85,600.27,277.94,600.65,278.74,601.16,279.66,601.49,279.97,601.39,281.11,600.18,281.55,600.39,281.82,601.02,281.81,601.36,281.49,602.64,281.44,603.32,281.71,603.77,281.74,604.13,281.66,604.45,281.2,604.48,280.59,604.3,280.07,603.75,279.68,603.82,279.34,603.96,279.17,604.48,279.02,605.1,279.07,605.44,279.31,605.71,279.5,606.27,279.63,607,279.74,607.33,279.62,607.48,279.3,607.58,279.03,607.48,278.57,606.61,278.35,606.28,277.98,606.22,277.33,606.43,276.33,606.92,275.93,606.92,275.59,606.82,275.27,606.41,275,605.61,274.91,605.11,274.72,605.12,274.08,604.98,273.78,605.18,273.78,605.99,273.72,607.01,273.4,607.67,272.51,608.8,272.18,609.29,272.05,609.65,272.02,609.95,272.16,610.48,272.34,610.99,272.19,611.28,271.72,611.43,271.39,611.12,271.26,610.58,270.54,609.83,270.87,609.2,270.81,609.04,269.62,608.72,269.11,608.24,268.39,607.41,268.25,607.05,268.28,605.88,268.24,605.6,268.15,605.46,267.8,605.47,267.31,605.88,266.86,606.48,265.95,607.16,265.85,607.31,266.16,607.97,266.14,608.23,265.4,609.29,265.26,609.64,264.31,610.3,263.88,610.54,262.56,610.06,262.2,610,261.61,610.33,260.78,610.64,259.44,610.94,258.95,610.72,258.72,610.51,258.6,610.19,258.26,609.62,257.88,609.29,257.62,608.93,257.27,608.53,257.04,608.19,257.34,607.12,257.12,606.75,257.01,606.21,257.07,605.84,256.95,605.76,255.74,605.55,254.73,605.61,254.01,605.97,253.43,606.57,253.35,606.69,253.39,606.8,253.68,607.35,253.19,607.92,252.43,608.37,251.89,608.41,251.65,608.33,251.64,607.71,252.09,607.48,252.49,607.08,252.63,606.52,252.68,606.12,252.25,605.64,252.3,605.34,252.57,604.78,252.72,604.28,252.93,603.85,253.76,603.15,254.61,602.44,254.73,601.68,254.8,600.76,254.92,600.54,256.05,599.99,256.33,599.77,256.48,599.46,257.37,598.43,258.25,597.4,258.43,597.05,258.58,596.85,258.58,596.68,258.47,596.55,258.05,596.47,257.9,596.14,258.36,595.55,258.93,595.19,259.49,595.19,259.71,595.35,259.7,595.55,259.94,595.76,260.36,595.83,260.88,595.75,261.4,595.53,261.72,595.01,261.9,594.62,262.72,594.17,263.27,594.39,264.81,594.45,265.93,594.33,266.64,594.02,267.51,594.02,268.09,594.2,268.2,594.17,268.36,594.13,268.52,593.97,269.07,593.85,269.14,593.72,269.12,593.58,269.02,593.5,268.34,593.58,268.08,593.47,268.02,593.22,268.23,592.78,268.73,592.43,269.16,592.34,269.46,592.44,270.2,593.1,270.38,593.12,270.48,593,270.64,592.93,270.89,593.06,271.18,593.47,271.23,593.53,272.89,593.39,273.26,593.39,274.39,594.1,275.56,594.85z"/>
                <path id="BE" style="stroke-width:0.1;fill:lightgrey" data-name="Belgium" class="land" d="M250.3,558.41,250.14,559.14,249.9,559.49,250.06,559.61,249.91,559.87,249.56,560.35,249.34,560.47,249.31,560.81,249.62,561.12,249.78,561.45,250.14,561.61,250.48,561.67,251.12,561.69,251.9,561.71,252,562,252.49,562.01,252.9,562.67,252.94,562.94,253.56,563.08,252.98,563.88,253.05,564.12,253.21,564.37,253.83,564.52,254.14,564.87,254.16,565.41,254.3,566.3,253.02,567.18,252.66,568.16,252.63,568.35,252.59,568.32,252.45,568,252.21,568,251.69,567.86,250.95,568.75,250.62,569.48,250.42,570.02,250.12,570.45,250.07,570.91,250.1,571.11,250,571.35,250,571.61,250.42,572.13,250.53,572.41,251.04,573.31,250.88,573.64,250.75,574,250.6,574.26,250.43,574.42,249.9,574.41,249.22,574.52,248.77,574.7,248.53,574.7,248.04,574.25,247.5,573.57,247.15,573.25,246.99,572.97,246.56,572.85,245.95,572.52,245.53,572.15,245.16,571.93,244.65,571.81,244.23,571.82,244.1,571.21,244.05,570.51,243.71,570.04,244.18,568.19,243.9,568.01,243.59,568.16,243.14,568.6,242.93,569.12,242.8,569.59,242.06,570.03,240.87,570.19,239.57,570.03,239.39,569.91,239.31,569.78,239.31,569.61,239.4,569.37,239.63,569.06,239.68,568.63,239.45,568.26,239.3,568.11,239.36,567.75,239.53,567.29,239.56,567.03,238.69,566.25,238.05,566.09,237.43,566.06,236.97,565.98,236.69,566.01,236.5,566.24,236.3,566.41,236.15,566.21,235.88,564.81,235.67,564.6,234.87,564.37,233.79,564.28,233.5,564.03,233.34,563.4,233.24,562.64,232.89,561.91,232.7,561.73,232.38,561.4,231.82,561.54,231.14,561.96,230.74,562.08,230.58,562.12,230.04,561.71,229.44,561.06,228.95,560.38,228.83,559.99,228.98,559.53,228.8,559.17,228.54,558.52,228.47,558.01,231.39,556.21,233.18,555.29,234.02,555,234.22,555.94,234.37,556.23,234.57,556.42,234.84,556.46,235.14,556.23,235.57,555.99,236.25,556.1,236.75,556.32,236.92,556.56,237.25,556.78,237.73,556.83,238.66,556.41,239.55,555.76,239.81,555.32,239.91,554.91,240.44,555.18,240.9,555.24,241.11,555.12,240.98,554.47,241.36,554.12,241.78,553.96,241.97,554.24,242.35,554.53,242.66,554.53,243.47,553.78,243.67,553.93,243.84,554.2,243.88,554.41,243.91,554.63,244.1,554.73,244.74,554.68,245.07,554.28,245.33,554.02,245.52,554.19,245.61,554.69,245.79,555.34,246.56,556.07,247.21,556.27,248.01,556.13,248.33,556,248.54,556.11,248.75,556.49,249.21,556.93,250.18,557.24,250.48,557.42,250.68,557.71,250.56,558,250.3,558.41z"/>
                <path id="AT" style="stroke-width:0.1;fill:lightgrey" data-name="Austria" class="land" d="M325.54,584.05,325.51,584.15,325.48,584.53,325.21,585.02,324.93,585.64,324.95,586.2,325.67,588.1,326.31,589.26,326.43,589.7,326.85,590.03,326.46,590.46,326.38,591.09,326.12,591.37,326.06,591.73,326.16,592.05,326.16,592.46,326.3,593.02,325.68,593.14,324.93,593.12,324.67,593.16,324.42,593.31,324.16,593.23,323.48,592.71,323.1,592.59,322.84,592.62,322.63,592.85,322.29,593.15,321.96,593.35,322.04,593.53,323.43,594,323.68,594.73,323.41,595.32,323.32,595.61,322.99,595.84,322.59,596.04,322.11,596.09,322.05,596.4,322.24,597.34,322.09,597.54,321.93,597.83,322.08,598.6,322.38,598.65,322.44,598.83,322.39,599.14,322.34,599.46,322.23,599.81,322.18,599.97,321.98,600.06,321.36,600.01,320.83,600.31,319.75,601.38,319.38,601.56,318.97,601.99,319,602.92,318.94,603.01,318.84,603.2,317.56,602.87,317.51,602.87,316.66,603,316.07,603.42,315.36,603.67,313.86,603.54,312.4,603.7,312.06,603.83,311.68,603.9,311.33,604.15,311.13,604.5,310.76,604.94,310.25,605.29,309.69,605.56,309.55,605.78,309.37,605.91,309.06,605.74,308.81,605.75,308.5,605.64,307.47,605.51,306.34,605.31,305.8,605.11,305.19,604.95,304.54,604.83,303.95,604.8,303.65,604.74,302.24,604.39,301.31,604.37,300.08,604.23,297.64,603.71,296.92,603.49,296.24,603.43,295.44,603.25,294.83,602.95,294.44,602.39,294.02,601.65,293.25,600.67,293.09,600.18,293.33,599.76,293.57,599.43,293.54,599.3,293.36,599.23,292.01,599.64,290.71,600.17,290.19,600.19,289.7,600.07,289.04,600.06,288.4,600.2,287.13,600.27,286.39,600.66,285.91,601.42,285.66,602.03,285.44,602.23,285,602.3,284.34,602.24,283.87,602.07,283.4,601.54,282.66,601.47,281.98,601.46,281.81,601.36,281.82,601.02,281.55,600.39,281.11,600.18,279.97,601.39,279.66,601.49,278.74,601.16,277.94,600.65,277.85,600.27,277.72,599.96,277.04,599.67,276.2,599.47,275.93,599.47,276.04,599.29,276.14,598.98,276.08,598.73,275.88,598.48,275.77,598.21,275.74,597.94,275.68,597.72,275.64,597.52,275.58,597.36,276.13,596.16,276.24,595.42,275.76,594.98,275.56,594.85,275.72,594.75,276.41,594.83,276.84,594.58,277.07,594.34,277.68,594.57,278.57,595.04,278.99,595.35,279.16,595.59,279.26,595.8,279.21,596.15,279.41,596.28,279.83,596.34,280.11,596.44,280.01,596.9,279.99,597.28,280.38,597.23,280.86,596.94,281.24,596.42,281.48,595.91,281.65,594.68,281.72,594.58,282.01,594.67,283.19,594.62,283.75,594.85,284.63,594.89,284.62,595.08,284.77,595.38,285.16,595.82,285.36,596.1,285.77,596.15,286.4,595.99,286.77,595.83,286.91,595.95,287.49,595.83,288,595.48,288.13,595.22,288.65,595.03,289.35,594.59,290.31,594.26,293.46,593.9,293.59,593.63,293.54,593.01,293.62,592.91,294.02,593.07,294.66,593.21,295.15,593.43,295.46,593.72,295.76,593.73,296.21,593.53,296.83,593.4,297.41,593.7,297.57,594.02,297.47,594.19,297.48,594.45,297.66,594.67,298.13,595.02,298.73,595.33,299.04,595.31,299.16,595.01,299.27,594.3,299.31,593.54,299.17,593.11,298.85,593,298.46,592.97,298.25,592.88,298.33,592.64,298.64,592.02,298.63,591.19,297.93,590.25,297.33,589.33,297.33,589.02,297.69,588.48,298.25,588.05,299.5,587.33,299.89,587.18,300.39,587.06,301.12,586.76,301.46,586.45,301.7,586.12,302.04,584.4,302.12,584.32,302.22,584.22,303.49,584.82,303.6,584.72,303.81,584.62,304.23,584.16,304.32,583.82,304.31,583.16,304.35,582.54,304.43,582.34,304.62,582.41,305.16,582.73,305.6,583.1,306,584.01,306.95,584.25,308.14,584.28,308.57,583.87,308.96,583.78,309.4,583.9,310.32,584.04,310.43,583.31,310.96,582.54,311.2,582.27,311.88,582.29,312.05,581.72,312.21,580.12,312.36,579.95,312.85,579.98,313.34,580.27,313.49,580.51,313.74,580.49,314.1,580.33,314.49,580.22,315.11,580.39,316.43,581.12,317.11,581.38,317.55,581.33,317.95,581.34,319.51,582.46,320.6,582.62,321.6,582.62,321.92,582.29,322.34,582,322.78,582.04,323.17,582.19,323.92,582.67,324.27,582.8,324.73,582.87,325.07,582.98,325.37,583.82,325.54,584.05z"/>

            </svg>
